<?xml version="1.0" encoding="utf-8" standalone="no"?>
<!DOCTYPE svg PUBLIC "-//W3C//DTD SVG 1.1//EN"
  "http://www.w3.org/Graphics/SVG/1.1/DTD/svg11.dtd">
<svg xmlns:xlink="http://www.w3.org/1999/xlink" width="576pt" height="414pt" viewBox="0 0 576 414" xmlns="http://www.w3.org/2000/svg" version="1.1">
 <metadata>
  <rdf:RDF xmlns:dc="http://purl.org/dc/elements/1.1/" xmlns:cc="http://creativecommons.org/ns#" xmlns:rdf="http://www.w3.org/1999/02/22-rdf-syntax-ns#">
   <cc:Work>
    <dc:type rdf:resource="http://purl.org/dc/dcmitype/StillImage"/>
    <dc:date>2024-06-01T01:03:15.250806</dc:date>
    <dc:format>image/svg+xml</dc:format>
    <dc:creator>
     <cc:Agent>
      <dc:title>Matplotlib v3.9.0, https://matplotlib.org/</dc:title>
     </cc:Agent>
    </dc:creator>
   </cc:Work>
  </rdf:RDF>
 </metadata>
 <defs>
  <style type="text/css">*{stroke-linejoin: round; stroke-linecap: butt}</style>
 </defs>
 <g id="figure_1">
  <g id="patch_1">
   <path d="M 0 414 
L 576 414 
L 576 0 
L 0 0 
z
" style="fill: #ffffff"/>
  </g>
  <g id="axes_1">
   <g id="patch_2">
    <path d="M 103.68 256.68 
L 518.4 256.68 
L 518.4 49.68 
L 103.68 49.68 
z
" style="fill: #ffffff"/>
   </g>
   <g id="matplotlib.axis_1">
    <g id="xtick_1">
     <g id="line2d_1">
      <path d="M 137.031608 256.68 
L 137.031608 49.68 
" clip-path="url(#p92299870df)" style="fill: none; stroke-dasharray: 2.96,1.28; stroke-dashoffset: 0; stroke: #d0d0d0; stroke-width: 0.8"/>
     </g>
     <g id="line2d_2"/>
    </g>
    <g id="xtick_2">
     <g id="line2d_3">
      <path d="M 212.687431 256.68 
L 212.687431 49.68 
" clip-path="url(#p92299870df)" style="fill: none; stroke-dasharray: 2.96,1.28; stroke-dashoffset: 0; stroke: #d0d0d0; stroke-width: 0.8"/>
     </g>
     <g id="line2d_4"/>
    </g>
    <g id="xtick_3">
     <g id="line2d_5">
      <path d="M 288.343253 256.68 
L 288.343253 49.68 
" clip-path="url(#p92299870df)" style="fill: none; stroke-dasharray: 2.96,1.28; stroke-dashoffset: 0; stroke: #d0d0d0; stroke-width: 0.8"/>
     </g>
     <g id="line2d_6"/>
    </g>
    <g id="xtick_4">
     <g id="line2d_7">
      <path d="M 363.999076 256.68 
L 363.999076 49.68 
" clip-path="url(#p92299870df)" style="fill: none; stroke-dasharray: 2.96,1.28; stroke-dashoffset: 0; stroke: #d0d0d0; stroke-width: 0.8"/>
     </g>
     <g id="line2d_8"/>
    </g>
    <g id="xtick_5">
     <g id="line2d_9">
      <path d="M 439.654898 256.68 
L 439.654898 49.68 
" clip-path="url(#p92299870df)" style="fill: none; stroke-dasharray: 2.96,1.28; stroke-dashoffset: 0; stroke: #d0d0d0; stroke-width: 0.8"/>
     </g>
     <g id="line2d_10"/>
    </g>
    <g id="xtick_6">
     <g id="line2d_11">
      <path d="M 515.310721 256.68 
L 515.310721 49.68 
" clip-path="url(#p92299870df)" style="fill: none; stroke-dasharray: 2.96,1.28; stroke-dashoffset: 0; stroke: #d0d0d0; stroke-width: 0.8"/>
     </g>
     <g id="line2d_12"/>
    </g>
   </g>
   <g id="matplotlib.axis_2">
    <g id="ytick_1">
     <g id="line2d_13">
      <path d="M 103.68 246.478008 
L 518.4 246.478008 
" clip-path="url(#p92299870df)" style="fill: none; stroke-dasharray: 2.96,1.28; stroke-dashoffset: 0; stroke: #d0d0d0; stroke-width: 0.8"/>
     </g>
     <g id="line2d_14"/>
     <g id="text_1">
      <!-- 0.455 -->
      <g style="fill: #262626" transform="translate(70.15375 250.772696) scale(0.12 -0.12)">
       <defs>
        <path id="ArialMT-30" d="M 266 2259 
Q 266 3072 433 3567 
Q 600 4063 929 4331 
Q 1259 4600 1759 4600 
Q 2128 4600 2406 4451 
Q 2684 4303 2865 4023 
Q 3047 3744 3150 3342 
Q 3253 2941 3253 2259 
Q 3253 1453 3087 958 
Q 2922 463 2592 192 
Q 2263 -78 1759 -78 
Q 1097 -78 719 397 
Q 266 969 266 2259 
z
M 844 2259 
Q 844 1131 1108 757 
Q 1372 384 1759 384 
Q 2147 384 2411 759 
Q 2675 1134 2675 2259 
Q 2675 3391 2411 3762 
Q 2147 4134 1753 4134 
Q 1366 4134 1134 3806 
Q 844 3388 844 2259 
z
" transform="scale(0.015625)"/>
        <path id="ArialMT-2e" d="M 581 0 
L 581 641 
L 1222 641 
L 1222 0 
L 581 0 
z
" transform="scale(0.015625)"/>
        <path id="ArialMT-34" d="M 2069 0 
L 2069 1097 
L 81 1097 
L 81 1613 
L 2172 4581 
L 2631 4581 
L 2631 1613 
L 3250 1613 
L 3250 1097 
L 2631 1097 
L 2631 0 
L 2069 0 
z
M 2069 1613 
L 2069 3678 
L 634 1613 
L 2069 1613 
z
" transform="scale(0.015625)"/>
        <path id="ArialMT-35" d="M 266 1200 
L 856 1250 
Q 922 819 1161 601 
Q 1400 384 1738 384 
Q 2144 384 2425 690 
Q 2706 997 2706 1503 
Q 2706 1984 2436 2262 
Q 2166 2541 1728 2541 
Q 1456 2541 1237 2417 
Q 1019 2294 894 2097 
L 366 2166 
L 809 4519 
L 3088 4519 
L 3088 3981 
L 1259 3981 
L 1013 2750 
Q 1425 3038 1878 3038 
Q 2478 3038 2890 2622 
Q 3303 2206 3303 1553 
Q 3303 931 2941 478 
Q 2500 -78 1738 -78 
Q 1113 -78 717 272 
Q 322 622 266 1200 
z
" transform="scale(0.015625)"/>
       </defs>
       <use xlink:href="#ArialMT-30"/>
       <use xlink:href="#ArialMT-2e" x="55.615234"/>
       <use xlink:href="#ArialMT-34" x="83.398438"/>
       <use xlink:href="#ArialMT-35" x="139.013672"/>
       <use xlink:href="#ArialMT-35" x="194.628906"/>
      </g>
     </g>
    </g>
    <g id="ytick_2">
     <g id="line2d_15">
      <path d="M 103.68 220.047978 
L 518.4 220.047978 
" clip-path="url(#p92299870df)" style="fill: none; stroke-dasharray: 2.96,1.28; stroke-dashoffset: 0; stroke: #d0d0d0; stroke-width: 0.8"/>
     </g>
     <g id="line2d_16"/>
     <g id="text_2">
      <!-- 0.460 -->
      <g style="fill: #262626" transform="translate(70.15375 224.342665) scale(0.12 -0.12)">
       <defs>
        <path id="ArialMT-36" d="M 3184 3459 
L 2625 3416 
Q 2550 3747 2413 3897 
Q 2184 4138 1850 4138 
Q 1581 4138 1378 3988 
Q 1113 3794 959 3422 
Q 806 3050 800 2363 
Q 1003 2672 1297 2822 
Q 1591 2972 1913 2972 
Q 2475 2972 2870 2558 
Q 3266 2144 3266 1488 
Q 3266 1056 3080 686 
Q 2894 316 2569 119 
Q 2244 -78 1831 -78 
Q 1128 -78 684 439 
Q 241 956 241 2144 
Q 241 3472 731 4075 
Q 1159 4600 1884 4600 
Q 2425 4600 2770 4297 
Q 3116 3994 3184 3459 
z
M 888 1484 
Q 888 1194 1011 928 
Q 1134 663 1356 523 
Q 1578 384 1822 384 
Q 2178 384 2434 671 
Q 2691 959 2691 1453 
Q 2691 1928 2437 2201 
Q 2184 2475 1800 2475 
Q 1419 2475 1153 2201 
Q 888 1928 888 1484 
z
" transform="scale(0.015625)"/>
       </defs>
       <use xlink:href="#ArialMT-30"/>
       <use xlink:href="#ArialMT-2e" x="55.615234"/>
       <use xlink:href="#ArialMT-34" x="83.398438"/>
       <use xlink:href="#ArialMT-36" x="139.013672"/>
       <use xlink:href="#ArialMT-30" x="194.628906"/>
      </g>
     </g>
    </g>
    <g id="ytick_3">
     <g id="line2d_17">
      <path d="M 103.68 193.617947 
L 518.4 193.617947 
" clip-path="url(#p92299870df)" style="fill: none; stroke-dasharray: 2.96,1.28; stroke-dashoffset: 0; stroke: #d0d0d0; stroke-width: 0.8"/>
     </g>
     <g id="line2d_18"/>
     <g id="text_3">
      <!-- 0.465 -->
      <g style="fill: #262626" transform="translate(70.15375 197.912634) scale(0.12 -0.12)">
       <use xlink:href="#ArialMT-30"/>
       <use xlink:href="#ArialMT-2e" x="55.615234"/>
       <use xlink:href="#ArialMT-34" x="83.398438"/>
       <use xlink:href="#ArialMT-36" x="139.013672"/>
       <use xlink:href="#ArialMT-35" x="194.628906"/>
      </g>
     </g>
    </g>
    <g id="ytick_4">
     <g id="line2d_19">
      <path d="M 103.68 167.187916 
L 518.4 167.187916 
" clip-path="url(#p92299870df)" style="fill: none; stroke-dasharray: 2.96,1.28; stroke-dashoffset: 0; stroke: #d0d0d0; stroke-width: 0.8"/>
     </g>
     <g id="line2d_20"/>
     <g id="text_4">
      <!-- 0.470 -->
      <g style="fill: #262626" transform="translate(70.15375 171.482604) scale(0.12 -0.12)">
       <defs>
        <path id="ArialMT-37" d="M 303 3981 
L 303 4522 
L 3269 4522 
L 3269 4084 
Q 2831 3619 2401 2847 
Q 1972 2075 1738 1259 
Q 1569 684 1522 0 
L 944 0 
Q 953 541 1156 1306 
Q 1359 2072 1739 2783 
Q 2119 3494 2547 3981 
L 303 3981 
z
" transform="scale(0.015625)"/>
       </defs>
       <use xlink:href="#ArialMT-30"/>
       <use xlink:href="#ArialMT-2e" x="55.615234"/>
       <use xlink:href="#ArialMT-34" x="83.398438"/>
       <use xlink:href="#ArialMT-37" x="139.013672"/>
       <use xlink:href="#ArialMT-30" x="194.628906"/>
      </g>
     </g>
    </g>
    <g id="ytick_5">
     <g id="line2d_21">
      <path d="M 103.68 140.757886 
L 518.4 140.757886 
" clip-path="url(#p92299870df)" style="fill: none; stroke-dasharray: 2.96,1.28; stroke-dashoffset: 0; stroke: #d0d0d0; stroke-width: 0.8"/>
     </g>
     <g id="line2d_22"/>
     <g id="text_5">
      <!-- 0.475 -->
      <g style="fill: #262626" transform="translate(70.15375 145.052573) scale(0.12 -0.12)">
       <use xlink:href="#ArialMT-30"/>
       <use xlink:href="#ArialMT-2e" x="55.615234"/>
       <use xlink:href="#ArialMT-34" x="83.398438"/>
       <use xlink:href="#ArialMT-37" x="139.013672"/>
       <use xlink:href="#ArialMT-35" x="194.628906"/>
      </g>
     </g>
    </g>
    <g id="ytick_6">
     <g id="line2d_23">
      <path d="M 103.68 114.327855 
L 518.4 114.327855 
" clip-path="url(#p92299870df)" style="fill: none; stroke-dasharray: 2.96,1.28; stroke-dashoffset: 0; stroke: #d0d0d0; stroke-width: 0.8"/>
     </g>
     <g id="line2d_24"/>
     <g id="text_6">
      <!-- 0.480 -->
      <g style="fill: #262626" transform="translate(70.15375 118.622542) scale(0.12 -0.12)">
       <defs>
        <path id="ArialMT-38" d="M 1131 2484 
Q 781 2613 612 2850 
Q 444 3088 444 3419 
Q 444 3919 803 4259 
Q 1163 4600 1759 4600 
Q 2359 4600 2725 4251 
Q 3091 3903 3091 3403 
Q 3091 3084 2923 2848 
Q 2756 2613 2416 2484 
Q 2838 2347 3058 2040 
Q 3278 1734 3278 1309 
Q 3278 722 2862 322 
Q 2447 -78 1769 -78 
Q 1091 -78 675 323 
Q 259 725 259 1325 
Q 259 1772 486 2073 
Q 713 2375 1131 2484 
z
M 1019 3438 
Q 1019 3113 1228 2906 
Q 1438 2700 1772 2700 
Q 2097 2700 2305 2904 
Q 2513 3109 2513 3406 
Q 2513 3716 2298 3927 
Q 2084 4138 1766 4138 
Q 1444 4138 1231 3931 
Q 1019 3725 1019 3438 
z
M 838 1322 
Q 838 1081 952 856 
Q 1066 631 1291 507 
Q 1516 384 1775 384 
Q 2178 384 2440 643 
Q 2703 903 2703 1303 
Q 2703 1709 2433 1975 
Q 2163 2241 1756 2241 
Q 1359 2241 1098 1978 
Q 838 1716 838 1322 
z
" transform="scale(0.015625)"/>
       </defs>
       <use xlink:href="#ArialMT-30"/>
       <use xlink:href="#ArialMT-2e" x="55.615234"/>
       <use xlink:href="#ArialMT-34" x="83.398438"/>
       <use xlink:href="#ArialMT-38" x="139.013672"/>
       <use xlink:href="#ArialMT-30" x="194.628906"/>
      </g>
     </g>
    </g>
    <g id="ytick_7">
     <g id="line2d_25">
      <path d="M 103.68 87.897824 
L 518.4 87.897824 
" clip-path="url(#p92299870df)" style="fill: none; stroke-dasharray: 2.96,1.28; stroke-dashoffset: 0; stroke: #d0d0d0; stroke-width: 0.8"/>
     </g>
     <g id="line2d_26"/>
     <g id="text_7">
      <!-- 0.485 -->
      <g style="fill: #262626" transform="translate(70.15375 92.192512) scale(0.12 -0.12)">
       <use xlink:href="#ArialMT-30"/>
       <use xlink:href="#ArialMT-2e" x="55.615234"/>
       <use xlink:href="#ArialMT-34" x="83.398438"/>
       <use xlink:href="#ArialMT-38" x="139.013672"/>
       <use xlink:href="#ArialMT-35" x="194.628906"/>
      </g>
     </g>
    </g>
    <g id="ytick_8">
     <g id="line2d_27">
      <path d="M 103.68 61.467794 
L 518.4 61.467794 
" clip-path="url(#p92299870df)" style="fill: none; stroke-dasharray: 2.96,1.28; stroke-dashoffset: 0; stroke: #d0d0d0; stroke-width: 0.8"/>
     </g>
     <g id="line2d_28"/>
     <g id="text_8">
      <!-- 0.490 -->
      <g style="fill: #262626" transform="translate(70.15375 65.762481) scale(0.12 -0.12)">
       <defs>
        <path id="ArialMT-39" d="M 350 1059 
L 891 1109 
Q 959 728 1153 556 
Q 1347 384 1650 384 
Q 1909 384 2104 503 
Q 2300 622 2425 820 
Q 2550 1019 2634 1356 
Q 2719 1694 2719 2044 
Q 2719 2081 2716 2156 
Q 2547 1888 2255 1720 
Q 1963 1553 1622 1553 
Q 1053 1553 659 1965 
Q 266 2378 266 3053 
Q 266 3750 677 4175 
Q 1088 4600 1706 4600 
Q 2153 4600 2523 4359 
Q 2894 4119 3086 3673 
Q 3278 3228 3278 2384 
Q 3278 1506 3087 986 
Q 2897 466 2520 194 
Q 2144 -78 1638 -78 
Q 1100 -78 759 220 
Q 419 519 350 1059 
z
M 2653 3081 
Q 2653 3566 2395 3850 
Q 2138 4134 1775 4134 
Q 1400 4134 1122 3828 
Q 844 3522 844 3034 
Q 844 2597 1108 2323 
Q 1372 2050 1759 2050 
Q 2150 2050 2401 2323 
Q 2653 2597 2653 3081 
z
" transform="scale(0.015625)"/>
       </defs>
       <use xlink:href="#ArialMT-30"/>
       <use xlink:href="#ArialMT-2e" x="55.615234"/>
       <use xlink:href="#ArialMT-34" x="83.398438"/>
       <use xlink:href="#ArialMT-39" x="139.013672"/>
       <use xlink:href="#ArialMT-30" x="194.628906"/>
      </g>
     </g>
    </g>
    <g id="text_9">
     <!-- Price -->
     <g style="fill: #262626" transform="translate(63.785625 167.8575) rotate(-90) scale(0.12 -0.12)">
      <defs>
       <path id="Arial-BoldMT-50" d="M 466 0 
L 466 4581 
L 1950 4581 
Q 2794 4581 3050 4513 
Q 3444 4409 3709 4064 
Q 3975 3719 3975 3172 
Q 3975 2750 3822 2462 
Q 3669 2175 3433 2011 
Q 3197 1847 2953 1794 
Q 2622 1728 1994 1728 
L 1391 1728 
L 1391 0 
L 466 0 
z
M 1391 3806 
L 1391 2506 
L 1897 2506 
Q 2444 2506 2628 2578 
Q 2813 2650 2917 2803 
Q 3022 2956 3022 3159 
Q 3022 3409 2875 3571 
Q 2728 3734 2503 3775 
Q 2338 3806 1838 3806 
L 1391 3806 
z
" transform="scale(0.015625)"/>
       <path id="Arial-BoldMT-72" d="M 1300 0 
L 422 0 
L 422 3319 
L 1238 3319 
L 1238 2847 
Q 1447 3181 1614 3287 
Q 1781 3394 1994 3394 
Q 2294 3394 2572 3228 
L 2300 2463 
Q 2078 2606 1888 2606 
Q 1703 2606 1575 2504 
Q 1447 2403 1373 2137 
Q 1300 1872 1300 1025 
L 1300 0 
z
" transform="scale(0.015625)"/>
       <path id="Arial-BoldMT-69" d="M 459 3769 
L 459 4581 
L 1338 4581 
L 1338 3769 
L 459 3769 
z
M 459 0 
L 459 3319 
L 1338 3319 
L 1338 0 
L 459 0 
z
" transform="scale(0.015625)"/>
       <path id="Arial-BoldMT-63" d="M 3353 2338 
L 2488 2181 
Q 2444 2441 2289 2572 
Q 2134 2703 1888 2703 
Q 1559 2703 1364 2476 
Q 1169 2250 1169 1719 
Q 1169 1128 1367 884 
Q 1566 641 1900 641 
Q 2150 641 2309 783 
Q 2469 925 2534 1272 
L 3397 1125 
Q 3263 531 2881 228 
Q 2500 -75 1859 -75 
Q 1131 -75 698 384 
Q 266 844 266 1656 
Q 266 2478 700 2936 
Q 1134 3394 1875 3394 
Q 2481 3394 2839 3133 
Q 3197 2872 3353 2338 
z
" transform="scale(0.015625)"/>
       <path id="Arial-BoldMT-65" d="M 2381 1056 
L 3256 909 
Q 3088 428 2723 176 
Q 2359 -75 1813 -75 
Q 947 -75 531 491 
Q 203 944 203 1634 
Q 203 2459 634 2926 
Q 1066 3394 1725 3394 
Q 2466 3394 2894 2905 
Q 3322 2416 3303 1406 
L 1103 1406 
Q 1113 1016 1316 798 
Q 1519 581 1822 581 
Q 2028 581 2168 693 
Q 2309 806 2381 1056 
z
M 2431 1944 
Q 2422 2325 2234 2523 
Q 2047 2722 1778 2722 
Q 1491 2722 1303 2513 
Q 1116 2303 1119 1944 
L 2431 1944 
z
" transform="scale(0.015625)"/>
      </defs>
      <use xlink:href="#Arial-BoldMT-50"/>
      <use xlink:href="#Arial-BoldMT-72" x="66.699219"/>
      <use xlink:href="#Arial-BoldMT-69" x="105.615234"/>
      <use xlink:href="#Arial-BoldMT-63" x="133.398438"/>
      <use xlink:href="#Arial-BoldMT-65" x="189.013672"/>
     </g>
    </g>
   </g>
   <g id="PolyCollection_1">
    <path d="M 132.11398 222.42668 
L 132.11398 231.412891 
L 141.949237 231.412891 
L 141.949237 222.42668 
z
" clip-path="url(#p92299870df)" style="fill: #ea0070; fill-opacity: 0.9; stroke: #ea0070"/>
    <path d="M 147.245144 231.412891 
L 147.245144 228.769888 
L 157.080401 228.769888 
L 157.080401 231.412891 
z
" clip-path="url(#p92299870df)" style="fill: #70a800; fill-opacity: 0.9; stroke: #70a800"/>
    <path d="M 162.376309 228.769888 
L 162.376309 223.483882 
L 172.211566 223.483882 
L 172.211566 228.769888 
z
" clip-path="url(#p92299870df)" style="fill: #70a800; fill-opacity: 0.9; stroke: #70a800"/>
    <path d="M 177.507473 223.483882 
L 177.507473 220.840878 
L 187.34273 220.840878 
L 187.34273 223.483882 
z
" clip-path="url(#p92299870df)" style="fill: #70a800; fill-opacity: 0.9; stroke: #70a800"/>
    <path d="M 192.638638 220.840878 
L 192.638638 201.811256 
L 202.473895 201.811256 
L 202.473895 220.840878 
z
" clip-path="url(#p92299870df)" style="fill: #70a800; fill-opacity: 0.9; stroke: #70a800"/>
    <path d="M 207.769802 201.811256 
L 207.769802 196.52525 
L 217.605059 196.52525 
L 217.605059 201.811256 
z
" clip-path="url(#p92299870df)" style="fill: #70a800; fill-opacity: 0.9; stroke: #70a800"/>
    <path d="M 222.900967 196.52525 
L 222.900967 183.838836 
L 232.736224 183.838836 
L 232.736224 196.52525 
z
" clip-path="url(#p92299870df)" style="fill: #70a800; fill-opacity: 0.9; stroke: #70a800"/>
    <path d="M 238.032131 183.838836 
L 238.032131 111.420552 
L 247.867388 111.420552 
L 247.867388 183.838836 
z
" clip-path="url(#p92299870df)" style="fill: #70a800; fill-opacity: 0.9; stroke: #70a800"/>
    <path d="M 253.163296 111.420552 
L 253.163296 111.949152 
L 262.998553 111.949152 
L 262.998553 111.420552 
z
" clip-path="url(#p92299870df)" style="fill: #ea0070; fill-opacity: 0.9; stroke: #ea0070"/>
    <path d="M 268.29446 111.949152 
L 268.29446 102.962942 
L 278.129717 102.962942 
L 278.129717 111.949152 
z
" clip-path="url(#p92299870df)" style="fill: #70a800; fill-opacity: 0.9; stroke: #70a800"/>
    <path d="M 283.425625 102.962942 
L 283.425625 75.47571 
L 293.260882 75.47571 
L 293.260882 102.962942 
z
" clip-path="url(#p92299870df)" style="fill: #70a800; fill-opacity: 0.9; stroke: #70a800"/>
    <path d="M 298.556789 75.47571 
L 298.556789 74.418509 
L 308.392046 74.418509 
L 308.392046 75.47571 
z
" clip-path="url(#p92299870df)" style="fill: #70a800; fill-opacity: 0.9; stroke: #70a800"/>
    <path d="M 313.687954 74.418509 
L 313.687954 86.576323 
L 323.523211 86.576323 
L 323.523211 74.418509 
z
" clip-path="url(#p92299870df)" style="fill: #ea0070; fill-opacity: 0.9; stroke: #ea0070"/>
    <path d="M 328.819118 86.576323 
L 328.819118 107.720347 
L 338.654375 107.720347 
L 338.654375 86.576323 
z
" clip-path="url(#p92299870df)" style="fill: #ea0070; fill-opacity: 0.9; stroke: #ea0070"/>
    <path d="M 343.950283 107.720347 
L 343.950283 109.83475 
L 353.78554 109.83475 
L 353.78554 107.720347 
z
" clip-path="url(#p92299870df)" style="fill: #ea0070; fill-opacity: 0.9; stroke: #ea0070"/>
    <path d="M 359.081447 109.83475 
L 359.081447 97.676936 
L 368.916704 97.676936 
L 368.916704 109.83475 
z
" clip-path="url(#p92299870df)" style="fill: #70a800; fill-opacity: 0.9; stroke: #70a800"/>
    <path d="M 374.212612 97.676936 
L 374.212612 108.248948 
L 384.047869 108.248948 
L 384.047869 97.676936 
z
" clip-path="url(#p92299870df)" style="fill: #ea0070; fill-opacity: 0.9; stroke: #ea0070"/>
    <path d="M 389.343776 108.248948 
L 389.343776 98.205536 
L 399.179033 98.205536 
L 399.179033 108.248948 
z
" clip-path="url(#p92299870df)" style="fill: #70a800; fill-opacity: 0.9; stroke: #70a800"/>
    <path d="M 404.474941 98.205536 
L 404.474941 107.191747 
L 414.310198 107.191747 
L 414.310198 98.205536 
z
" clip-path="url(#p92299870df)" style="fill: #ea0070; fill-opacity: 0.9; stroke: #ea0070"/>
    <path d="M 419.606105 107.191747 
L 419.606105 95.562533 
L 429.441362 95.562533 
L 429.441362 107.191747 
z
" clip-path="url(#p92299870df)" style="fill: #70a800; fill-opacity: 0.9; stroke: #70a800"/>
    <path d="M 434.73727 95.562533 
L 434.73727 102.434341 
L 444.572527 102.434341 
L 444.572527 95.562533 
z
" clip-path="url(#p92299870df)" style="fill: #ea0070; fill-opacity: 0.9; stroke: #ea0070"/>
    <path d="M 449.868434 102.434341 
L 449.868434 102.962942 
L 459.703691 102.962942 
L 459.703691 102.434341 
z
" clip-path="url(#p92299870df)" style="fill: #ea0070; fill-opacity: 0.9; stroke: #ea0070"/>
    <path d="M 464.999599 102.962942 
L 464.999599 101.905741 
L 474.834856 101.905741 
L 474.834856 102.962942 
z
" clip-path="url(#p92299870df)" style="fill: #70a800; fill-opacity: 0.9; stroke: #70a800"/>
    <path d="M 480.130763 101.905741 
L 480.130763 102.962942 
L 489.96602 102.962942 
L 489.96602 101.905741 
z
" clip-path="url(#p92299870df)" style="fill: #ea0070; fill-opacity: 0.9; stroke: #ea0070"/>
   </g>
   <g id="LineCollection_1">
    <path d="M 137.031608 244.099305 
L 137.031608 231.412891 
" clip-path="url(#p92299870df)" style="fill: none; stroke: #ea0070"/>
    <path d="M 152.162773 247.270909 
L 152.162773 231.412891 
" clip-path="url(#p92299870df)" style="fill: none; stroke: #70a800"/>
    <path d="M 167.293937 234.055894 
L 167.293937 228.769888 
" clip-path="url(#p92299870df)" style="fill: none; stroke: #70a800"/>
    <path d="M 182.425102 226.655485 
L 182.425102 223.483882 
" clip-path="url(#p92299870df)" style="fill: none; stroke: #70a800"/>
    <path d="M 197.556266 220.840878 
L 197.556266 220.840878 
" clip-path="url(#p92299870df)" style="fill: none; stroke: #70a800"/>
    <path d="M 212.687431 205.511461 
L 212.687431 201.811256 
" clip-path="url(#p92299870df)" style="fill: none; stroke: #70a800"/>
    <path d="M 227.818595 203.397058 
L 227.818595 196.52525 
" clip-path="url(#p92299870df)" style="fill: none; stroke: #70a800"/>
    <path d="M 242.94976 183.838836 
L 242.94976 183.838836 
" clip-path="url(#p92299870df)" style="fill: none; stroke: #70a800"/>
    <path d="M 258.080924 132.564576 
L 258.080924 111.949152 
" clip-path="url(#p92299870df)" style="fill: none; stroke: #ea0070"/>
    <path d="M 273.212089 117.763759 
L 273.212089 111.949152 
" clip-path="url(#p92299870df)" style="fill: none; stroke: #70a800"/>
    <path d="M 288.343253 107.720347 
L 288.343253 102.962942 
" clip-path="url(#p92299870df)" style="fill: none; stroke: #70a800"/>
    <path d="M 303.474418 86.576323 
L 303.474418 75.47571 
" clip-path="url(#p92299870df)" style="fill: none; stroke: #70a800"/>
    <path d="M 318.605582 93.448131 
L 318.605582 86.576323 
" clip-path="url(#p92299870df)" style="fill: none; stroke: #ea0070"/>
    <path d="M 333.736747 111.949152 
L 333.736747 107.720347 
" clip-path="url(#p92299870df)" style="fill: none; stroke: #ea0070"/>
    <path d="M 348.867911 124.635567 
L 348.867911 109.83475 
" clip-path="url(#p92299870df)" style="fill: none; stroke: #ea0070"/>
    <path d="M 363.999076 119.349561 
L 363.999076 109.83475 
" clip-path="url(#p92299870df)" style="fill: none; stroke: #70a800"/>
    <path d="M 379.13024 108.248948 
L 379.13024 108.248948 
" clip-path="url(#p92299870df)" style="fill: none; stroke: #ea0070"/>
    <path d="M 394.261405 109.306149 
L 394.261405 108.248948 
" clip-path="url(#p92299870df)" style="fill: none; stroke: #70a800"/>
    <path d="M 409.392569 116.706558 
L 409.392569 107.191747 
" clip-path="url(#p92299870df)" style="fill: none; stroke: #ea0070"/>
    <path d="M 424.523734 111.420552 
L 424.523734 107.191747 
" clip-path="url(#p92299870df)" style="fill: none; stroke: #70a800"/>
    <path d="M 439.654898 107.191747 
L 439.654898 102.434341 
" clip-path="url(#p92299870df)" style="fill: none; stroke: #ea0070"/>
    <path d="M 454.786063 108.777549 
L 454.786063 102.962942 
" clip-path="url(#p92299870df)" style="fill: none; stroke: #ea0070"/>
    <path d="M 469.917227 110.891951 
L 469.917227 102.962942 
" clip-path="url(#p92299870df)" style="fill: none; stroke: #70a800"/>
    <path d="M 485.048392 111.949152 
L 485.048392 102.962942 
" clip-path="url(#p92299870df)" style="fill: none; stroke: #ea0070"/>
    <path d="M 137.031608 213.96907 
L 137.031608 222.42668 
" clip-path="url(#p92299870df)" style="fill: none; stroke: #ea0070"/>
    <path d="M 152.162773 228.769888 
L 152.162773 228.769888 
" clip-path="url(#p92299870df)" style="fill: none; stroke: #70a800"/>
    <path d="M 167.293937 221.369479 
L 167.293937 223.483882 
" clip-path="url(#p92299870df)" style="fill: none; stroke: #70a800"/>
    <path d="M 182.425102 215.026272 
L 182.425102 220.840878 
" clip-path="url(#p92299870df)" style="fill: none; stroke: #70a800"/>
    <path d="M 197.556266 187.53904 
L 197.556266 201.811256 
" clip-path="url(#p92299870df)" style="fill: none; stroke: #70a800"/>
    <path d="M 212.687431 194.410848 
L 212.687431 196.52525 
" clip-path="url(#p92299870df)" style="fill: none; stroke: #70a800"/>
    <path d="M 227.818595 179.610031 
L 227.818595 183.838836 
" clip-path="url(#p92299870df)" style="fill: none; stroke: #70a800"/>
    <path d="M 242.94976 106.663146 
L 242.94976 111.420552 
" clip-path="url(#p92299870df)" style="fill: none; stroke: #70a800"/>
    <path d="M 258.080924 97.148335 
L 258.080924 111.420552 
" clip-path="url(#p92299870df)" style="fill: none; stroke: #ea0070"/>
    <path d="M 273.212089 101.905741 
L 273.212089 102.962942 
" clip-path="url(#p92299870df)" style="fill: none; stroke: #70a800"/>
    <path d="M 288.343253 72.832707 
L 288.343253 75.47571 
" clip-path="url(#p92299870df)" style="fill: none; stroke: #70a800"/>
    <path d="M 303.474418 59.089091 
L 303.474418 74.418509 
" clip-path="url(#p92299870df)" style="fill: none; stroke: #70a800"/>
    <path d="M 318.605582 70.189704 
L 318.605582 74.418509 
" clip-path="url(#p92299870df)" style="fill: none; stroke: #ea0070"/>
    <path d="M 333.736747 82.347518 
L 333.736747 86.576323 
" clip-path="url(#p92299870df)" style="fill: none; stroke: #ea0070"/>
    <path d="M 348.867911 102.962942 
L 348.867911 107.720347 
" clip-path="url(#p92299870df)" style="fill: none; stroke: #ea0070"/>
    <path d="M 363.999076 92.39093 
L 363.999076 97.676936 
" clip-path="url(#p92299870df)" style="fill: none; stroke: #70a800"/>
    <path d="M 379.13024 88.162125 
L 379.13024 97.676936 
" clip-path="url(#p92299870df)" style="fill: none; stroke: #ea0070"/>
    <path d="M 394.261405 93.976731 
L 394.261405 98.205536 
" clip-path="url(#p92299870df)" style="fill: none; stroke: #70a800"/>
    <path d="M 409.392569 98.205536 
L 409.392569 98.205536 
" clip-path="url(#p92299870df)" style="fill: none; stroke: #ea0070"/>
    <path d="M 424.523734 95.562533 
L 424.523734 95.562533 
" clip-path="url(#p92299870df)" style="fill: none; stroke: #70a800"/>
    <path d="M 439.654898 95.562533 
L 439.654898 95.562533 
" clip-path="url(#p92299870df)" style="fill: none; stroke: #ea0070"/>
    <path d="M 454.786063 99.791338 
L 454.786063 102.434341 
" clip-path="url(#p92299870df)" style="fill: none; stroke: #ea0070"/>
    <path d="M 469.917227 98.734137 
L 469.917227 101.905741 
" clip-path="url(#p92299870df)" style="fill: none; stroke: #70a800"/>
    <path d="M 485.048392 100.848539 
L 485.048392 101.905741 
" clip-path="url(#p92299870df)" style="fill: none; stroke: #ea0070"/>
   </g>
   <g id="patch_3">
    <path d="M 103.68 256.68 
L 103.68 49.68 
" style="fill: none; stroke: #e6e6e6; stroke-width: 1.5; stroke-linejoin: miter; stroke-linecap: square"/>
   </g>
   <g id="patch_4">
    <path d="M 518.4 256.68 
L 518.4 49.68 
" style="fill: none; stroke: #e6e6e6; stroke-width: 1.5; stroke-linejoin: miter; stroke-linecap: square"/>
   </g>
   <g id="patch_5">
    <path d="M 103.68 256.68 
L 518.4 256.68 
" style="fill: none; stroke: #e6e6e6; stroke-width: 1.5; stroke-linejoin: miter; stroke-linecap: square"/>
   </g>
   <g id="patch_6">
    <path d="M 103.68 49.68 
L 518.4 49.68 
" style="fill: none; stroke: #e6e6e6; stroke-width: 1.5; stroke-linejoin: miter; stroke-linecap: square"/>
   </g>
  </g>
  <g id="axes_2">
   <g id="patch_7">
    <path d="M 103.68 339.48 
L 518.4 339.48 
L 518.4 256.68 
L 103.68 256.68 
z
" style="fill: #ffffff"/>
   </g>
   <g id="matplotlib.axis_3">
    <g id="xtick_7">
     <g id="line2d_29">
      <path d="M 137.031608 339.48 
L 137.031608 256.68 
" clip-path="url(#p97ab0b053f)" style="fill: none; stroke-dasharray: 2.96,1.28; stroke-dashoffset: 0; stroke: #d0d0d0; stroke-width: 0.8"/>
     </g>
     <g id="line2d_30"/>
     <g id="text_10">
      <!-- 00:00 -->
      <g style="fill: #262626" transform="translate(128.609304 370.28537) rotate(-45) scale(0.12 -0.12)">
       <defs>
        <path id="ArialMT-3a" d="M 578 2678 
L 578 3319 
L 1219 3319 
L 1219 2678 
L 578 2678 
z
M 578 0 
L 578 641 
L 1219 641 
L 1219 0 
L 578 0 
z
" transform="scale(0.015625)"/>
       </defs>
       <use xlink:href="#ArialMT-30"/>
       <use xlink:href="#ArialMT-30" x="55.615234"/>
       <use xlink:href="#ArialMT-3a" x="111.230469"/>
       <use xlink:href="#ArialMT-30" x="139.013672"/>
       <use xlink:href="#ArialMT-30" x="194.628906"/>
      </g>
     </g>
    </g>
    <g id="xtick_8">
     <g id="line2d_31">
      <path d="M 212.687431 339.48 
L 212.687431 256.68 
" clip-path="url(#p97ab0b053f)" style="fill: none; stroke-dasharray: 2.96,1.28; stroke-dashoffset: 0; stroke: #d0d0d0; stroke-width: 0.8"/>
     </g>
     <g id="line2d_32"/>
     <g id="text_11">
      <!-- 05:00 -->
      <g style="fill: #262626" transform="translate(204.265126 370.28537) rotate(-45) scale(0.12 -0.12)">
       <use xlink:href="#ArialMT-30"/>
       <use xlink:href="#ArialMT-35" x="55.615234"/>
       <use xlink:href="#ArialMT-3a" x="111.230469"/>
       <use xlink:href="#ArialMT-30" x="139.013672"/>
       <use xlink:href="#ArialMT-30" x="194.628906"/>
      </g>
     </g>
    </g>
    <g id="xtick_9">
     <g id="line2d_33">
      <path d="M 288.343253 339.48 
L 288.343253 256.68 
" clip-path="url(#p97ab0b053f)" style="fill: none; stroke-dasharray: 2.96,1.28; stroke-dashoffset: 0; stroke: #d0d0d0; stroke-width: 0.8"/>
     </g>
     <g id="line2d_34"/>
     <g id="text_12">
      <!-- 10:00 -->
      <g style="fill: #262626" transform="translate(279.920949 370.28537) rotate(-45) scale(0.12 -0.12)">
       <defs>
        <path id="ArialMT-31" d="M 2384 0 
L 1822 0 
L 1822 3584 
Q 1619 3391 1289 3197 
Q 959 3003 697 2906 
L 697 3450 
Q 1169 3672 1522 3987 
Q 1875 4303 2022 4600 
L 2384 4600 
L 2384 0 
z
" transform="scale(0.015625)"/>
       </defs>
       <use xlink:href="#ArialMT-31"/>
       <use xlink:href="#ArialMT-30" x="55.615234"/>
       <use xlink:href="#ArialMT-3a" x="111.230469"/>
       <use xlink:href="#ArialMT-30" x="139.013672"/>
       <use xlink:href="#ArialMT-30" x="194.628906"/>
      </g>
     </g>
    </g>
    <g id="xtick_10">
     <g id="line2d_35">
      <path d="M 363.999076 339.48 
L 363.999076 256.68 
" clip-path="url(#p97ab0b053f)" style="fill: none; stroke-dasharray: 2.96,1.28; stroke-dashoffset: 0; stroke: #d0d0d0; stroke-width: 0.8"/>
     </g>
     <g id="line2d_36"/>
     <g id="text_13">
      <!-- 15:00 -->
      <g style="fill: #262626" transform="translate(355.576771 370.28537) rotate(-45) scale(0.12 -0.12)">
       <use xlink:href="#ArialMT-31"/>
       <use xlink:href="#ArialMT-35" x="55.615234"/>
       <use xlink:href="#ArialMT-3a" x="111.230469"/>
       <use xlink:href="#ArialMT-30" x="139.013672"/>
       <use xlink:href="#ArialMT-30" x="194.628906"/>
      </g>
     </g>
    </g>
    <g id="xtick_11">
     <g id="line2d_37">
      <path d="M 439.654898 339.48 
L 439.654898 256.68 
" clip-path="url(#p97ab0b053f)" style="fill: none; stroke-dasharray: 2.96,1.28; stroke-dashoffset: 0; stroke: #d0d0d0; stroke-width: 0.8"/>
     </g>
     <g id="line2d_38"/>
     <g id="text_14">
      <!-- 20:00 -->
      <g style="fill: #262626" transform="translate(431.232593 370.28537) rotate(-45) scale(0.12 -0.12)">
       <defs>
        <path id="ArialMT-32" d="M 3222 541 
L 3222 0 
L 194 0 
Q 188 203 259 391 
Q 375 700 629 1000 
Q 884 1300 1366 1694 
Q 2113 2306 2375 2664 
Q 2638 3022 2638 3341 
Q 2638 3675 2398 3904 
Q 2159 4134 1775 4134 
Q 1369 4134 1125 3890 
Q 881 3647 878 3216 
L 300 3275 
Q 359 3922 746 4261 
Q 1134 4600 1788 4600 
Q 2447 4600 2831 4234 
Q 3216 3869 3216 3328 
Q 3216 3053 3103 2787 
Q 2991 2522 2730 2228 
Q 2469 1934 1863 1422 
Q 1356 997 1212 845 
Q 1069 694 975 541 
L 3222 541 
z
" transform="scale(0.015625)"/>
       </defs>
       <use xlink:href="#ArialMT-32"/>
       <use xlink:href="#ArialMT-30" x="55.615234"/>
       <use xlink:href="#ArialMT-3a" x="111.230469"/>
       <use xlink:href="#ArialMT-30" x="139.013672"/>
       <use xlink:href="#ArialMT-30" x="194.628906"/>
      </g>
     </g>
    </g>
    <g id="xtick_12">
     <g id="line2d_39">
      <path d="M 515.310721 339.48 
L 515.310721 256.68 
" clip-path="url(#p97ab0b053f)" style="fill: none; stroke-dasharray: 2.96,1.28; stroke-dashoffset: 0; stroke: #d0d0d0; stroke-width: 0.8"/>
     </g>
     <g id="line2d_40"/>
    </g>
   </g>
   <g id="matplotlib.axis_4">
    <g id="ytick_9">
     <g id="line2d_41">
      <path d="M 103.68 301.260134 
L 518.4 301.260134 
" clip-path="url(#p97ab0b053f)" style="fill: none; stroke-dasharray: 2.96,1.28; stroke-dashoffset: 0; stroke: #d0d0d0; stroke-width: 0.8"/>
     </g>
     <g id="line2d_42"/>
     <g id="text_15">
      <!-- 50000 -->
      <g style="fill: #262626" transform="translate(66.814375 305.554822) scale(0.12 -0.12)">
       <use xlink:href="#ArialMT-35"/>
       <use xlink:href="#ArialMT-30" x="55.615234"/>
       <use xlink:href="#ArialMT-30" x="111.230469"/>
       <use xlink:href="#ArialMT-30" x="166.845703"/>
       <use xlink:href="#ArialMT-30" x="222.460938"/>
      </g>
     </g>
    </g>
    <g id="ytick_10">
     <g id="line2d_43">
      <path d="M 103.68 259.709305 
L 518.4 259.709305 
" clip-path="url(#p97ab0b053f)" style="fill: none; stroke-dasharray: 2.96,1.28; stroke-dashoffset: 0; stroke: #d0d0d0; stroke-width: 0.8"/>
     </g>
     <g id="line2d_44"/>
     <g id="text_16">
      <!-- 100000 -->
      <g style="fill: #262626" transform="translate(60.14125 264.003992) scale(0.12 -0.12)">
       <use xlink:href="#ArialMT-31"/>
       <use xlink:href="#ArialMT-30" x="55.615234"/>
       <use xlink:href="#ArialMT-30" x="111.230469"/>
       <use xlink:href="#ArialMT-30" x="166.845703"/>
       <use xlink:href="#ArialMT-30" x="222.460938"/>
       <use xlink:href="#ArialMT-30" x="278.076172"/>
      </g>
     </g>
    </g>
    <g id="text_17">
     <!-- Volume -->
     <g style="fill: #262626" transform="translate(53.773125 319.307813) rotate(-90) scale(0.12 -0.12)">
      <defs>
       <path id="Arial-BoldMT-56" d="M 1634 0 
L -3 4581 
L 1000 4581 
L 2159 1191 
L 3281 4581 
L 4263 4581 
L 2622 0 
L 1634 0 
z
" transform="scale(0.015625)"/>
       <path id="Arial-BoldMT-6f" d="M 256 1706 
Q 256 2144 472 2553 
Q 688 2963 1083 3178 
Q 1478 3394 1966 3394 
Q 2719 3394 3200 2905 
Q 3681 2416 3681 1669 
Q 3681 916 3195 420 
Q 2709 -75 1972 -75 
Q 1516 -75 1102 131 
Q 688 338 472 736 
Q 256 1134 256 1706 
z
M 1156 1659 
Q 1156 1166 1390 903 
Q 1625 641 1969 641 
Q 2313 641 2545 903 
Q 2778 1166 2778 1666 
Q 2778 2153 2545 2415 
Q 2313 2678 1969 2678 
Q 1625 2678 1390 2415 
Q 1156 2153 1156 1659 
z
" transform="scale(0.015625)"/>
       <path id="Arial-BoldMT-6c" d="M 459 0 
L 459 4581 
L 1338 4581 
L 1338 0 
L 459 0 
z
" transform="scale(0.015625)"/>
       <path id="Arial-BoldMT-75" d="M 2644 0 
L 2644 497 
Q 2463 231 2167 78 
Q 1872 -75 1544 -75 
Q 1209 -75 943 72 
Q 678 219 559 484 
Q 441 750 441 1219 
L 441 3319 
L 1319 3319 
L 1319 1794 
Q 1319 1094 1367 936 
Q 1416 778 1544 686 
Q 1672 594 1869 594 
Q 2094 594 2272 717 
Q 2450 841 2515 1023 
Q 2581 1206 2581 1919 
L 2581 3319 
L 3459 3319 
L 3459 0 
L 2644 0 
z
" transform="scale(0.015625)"/>
       <path id="Arial-BoldMT-6d" d="M 394 3319 
L 1203 3319 
L 1203 2866 
Q 1638 3394 2238 3394 
Q 2556 3394 2790 3262 
Q 3025 3131 3175 2866 
Q 3394 3131 3647 3262 
Q 3900 3394 4188 3394 
Q 4553 3394 4806 3245 
Q 5059 3097 5184 2809 
Q 5275 2597 5275 2122 
L 5275 0 
L 4397 0 
L 4397 1897 
Q 4397 2391 4306 2534 
Q 4184 2722 3931 2722 
Q 3747 2722 3584 2609 
Q 3422 2497 3350 2280 
Q 3278 2063 3278 1594 
L 3278 0 
L 2400 0 
L 2400 1819 
Q 2400 2303 2353 2443 
Q 2306 2584 2207 2653 
Q 2109 2722 1941 2722 
Q 1738 2722 1575 2612 
Q 1413 2503 1342 2297 
Q 1272 2091 1272 1613 
L 1272 0 
L 394 0 
L 394 3319 
z
" transform="scale(0.015625)"/>
      </defs>
      <use xlink:href="#Arial-BoldMT-56"/>
      <use xlink:href="#Arial-BoldMT-6f" x="59.324219"/>
      <use xlink:href="#Arial-BoldMT-6c" x="120.408203"/>
      <use xlink:href="#Arial-BoldMT-75" x="148.191406"/>
      <use xlink:href="#Arial-BoldMT-6d" x="209.275391"/>
      <use xlink:href="#Arial-BoldMT-65" x="298.191406"/>
     </g>
    </g>
   </g>
   <g id="patch_8">
    <path d="M 129.617338 342.810964 
L 144.445879 342.810964 
L 144.445879 317.150834 
L 129.617338 317.150834 
z
" clip-path="url(#p97ab0b053f)" style="fill: #ea0070; stroke: #d30065; stroke-width: 0.65; stroke-linejoin: miter"/>
   </g>
   <g id="patch_9">
    <path d="M 144.748502 342.810964 
L 159.577043 342.810964 
L 159.577043 321.15384 
L 144.748502 321.15384 
z
" clip-path="url(#p97ab0b053f)" style="fill: #70a800; stroke: #659700; stroke-width: 0.65; stroke-linejoin: miter"/>
   </g>
   <g id="patch_10">
    <path d="M 159.879667 342.810964 
L 174.708208 342.810964 
L 174.708208 324.156303 
L 159.879667 324.156303 
z
" clip-path="url(#p97ab0b053f)" style="fill: #70a800; stroke: #659700; stroke-width: 0.65; stroke-linejoin: miter"/>
   </g>
   <g id="patch_11">
    <path d="M 175.010831 342.810964 
L 189.839372 342.810964 
L 189.839372 317.622851 
L 175.010831 317.622851 
z
" clip-path="url(#p97ab0b053f)" style="fill: #70a800; stroke: #659700; stroke-width: 0.65; stroke-linejoin: miter"/>
   </g>
   <g id="patch_12">
    <path d="M 190.141996 342.810964 
L 204.970537 342.810964 
L 204.970537 319.124498 
L 190.141996 319.124498 
z
" clip-path="url(#p97ab0b053f)" style="fill: #70a800; stroke: #659700; stroke-width: 0.65; stroke-linejoin: miter"/>
   </g>
   <g id="patch_13">
    <path d="M 205.27316 342.810964 
L 220.101701 342.810964 
L 220.101701 319.437791 
L 205.27316 319.437791 
z
" clip-path="url(#p97ab0b053f)" style="fill: #70a800; stroke: #659700; stroke-width: 0.65; stroke-linejoin: miter"/>
   </g>
   <g id="patch_14">
    <path d="M 220.404325 342.810964 
L 235.232866 342.810964 
L 235.232866 304.288359 
L 220.404325 304.288359 
z
" clip-path="url(#p97ab0b053f)" style="fill: #70a800; stroke: #659700; stroke-width: 0.65; stroke-linejoin: miter"/>
   </g>
   <g id="patch_15">
    <path d="M 235.535489 342.810964 
L 250.36403 342.810964 
L 250.36403 278.712992 
L 235.535489 278.712992 
z
" clip-path="url(#p97ab0b053f)" style="fill: #70a800; stroke: #659700; stroke-width: 0.65; stroke-linejoin: miter"/>
   </g>
   <g id="patch_16">
    <path d="M 250.666654 342.810964 
L 265.495195 342.810964 
L 265.495195 301.953202 
L 250.666654 301.953202 
z
" clip-path="url(#p97ab0b053f)" style="fill: #ea0070; stroke: #d30065; stroke-width: 0.65; stroke-linejoin: miter"/>
   </g>
   <g id="patch_17">
    <path d="M 265.797818 342.810964 
L 280.626359 342.810964 
L 280.626359 317.923679 
L 265.797818 317.923679 
z
" clip-path="url(#p97ab0b053f)" style="fill: #70a800; stroke: #659700; stroke-width: 0.65; stroke-linejoin: miter"/>
   </g>
   <g id="patch_18">
    <path d="M 280.928983 342.810964 
L 295.757524 342.810964 
L 295.757524 296.101183 
L 280.928983 296.101183 
z
" clip-path="url(#p97ab0b053f)" style="fill: #70a800; stroke: #659700; stroke-width: 0.65; stroke-linejoin: miter"/>
   </g>
   <g id="patch_19">
    <path d="M 296.060147 342.810964 
L 310.888688 342.810964 
L 310.888688 290.709548 
L 296.060147 290.709548 
z
" clip-path="url(#p97ab0b053f)" style="fill: #70a800; stroke: #659700; stroke-width: 0.65; stroke-linejoin: miter"/>
   </g>
   <g id="patch_20">
    <path d="M 311.191312 342.810964 
L 326.019853 342.810964 
L 326.019853 295.448004 
L 311.191312 295.448004 
z
" clip-path="url(#p97ab0b053f)" style="fill: #ea0070; stroke: #d30065; stroke-width: 0.65; stroke-linejoin: miter"/>
   </g>
   <g id="patch_21">
    <path d="M 326.322476 342.810964 
L 341.151017 342.810964 
L 341.151017 294.994269 
L 326.322476 294.994269 
z
" clip-path="url(#p97ab0b053f)" style="fill: #ea0070; stroke: #d30065; stroke-width: 0.65; stroke-linejoin: miter"/>
   </g>
   <g id="patch_22">
    <path d="M 341.453641 342.810964 
L 356.282182 342.810964 
L 356.282182 302.790036 
L 341.453641 302.790036 
z
" clip-path="url(#p97ab0b053f)" style="fill: #ea0070; stroke: #d30065; stroke-width: 0.65; stroke-linejoin: miter"/>
   </g>
   <g id="patch_23">
    <path d="M 356.584805 342.810964 
L 371.413346 342.810964 
L 371.413346 264.510088 
L 356.584805 264.510088 
z
" clip-path="url(#p97ab0b053f)" style="fill: #70a800; stroke: #659700; stroke-width: 0.65; stroke-linejoin: miter"/>
   </g>
   <g id="patch_24">
    <path d="M 371.71597 342.810964 
L 386.544511 342.810964 
L 386.544511 293.901482 
L 371.71597 293.901482 
z
" clip-path="url(#p97ab0b053f)" style="fill: #ea0070; stroke: #d30065; stroke-width: 0.65; stroke-linejoin: miter"/>
   </g>
   <g id="patch_25">
    <path d="M 386.847134 342.810964 
L 401.675675 342.810964 
L 401.675675 301.178695 
L 386.847134 301.178695 
z
" clip-path="url(#p97ab0b053f)" style="fill: #70a800; stroke: #659700; stroke-width: 0.65; stroke-linejoin: miter"/>
   </g>
   <g id="patch_26">
    <path d="M 401.978299 342.810964 
L 416.80684 342.810964 
L 416.80684 302.999452 
L 401.978299 302.999452 
z
" clip-path="url(#p97ab0b053f)" style="fill: #ea0070; stroke: #d30065; stroke-width: 0.65; stroke-linejoin: miter"/>
   </g>
   <g id="patch_27">
    <path d="M 417.109463 342.810964 
L 431.938004 342.810964 
L 431.938004 327.230234 
L 417.109463 327.230234 
z
" clip-path="url(#p97ab0b053f)" style="fill: #70a800; stroke: #659700; stroke-width: 0.65; stroke-linejoin: miter"/>
   </g>
   <g id="patch_28">
    <path d="M 432.240628 342.810964 
L 447.069169 342.810964 
L 447.069169 328.305569 
L 432.240628 328.305569 
z
" clip-path="url(#p97ab0b053f)" style="fill: #ea0070; stroke: #d30065; stroke-width: 0.65; stroke-linejoin: miter"/>
   </g>
   <g id="patch_29">
    <path d="M 447.371792 342.810964 
L 462.200333 342.810964 
L 462.200333 331.707751 
L 447.371792 331.707751 
z
" clip-path="url(#p97ab0b053f)" style="fill: #ea0070; stroke: #d30065; stroke-width: 0.65; stroke-linejoin: miter"/>
   </g>
   <g id="patch_30">
    <path d="M 462.502957 342.810964 
L 477.331498 342.810964 
L 477.331498 328.362909 
L 462.502957 328.362909 
z
" clip-path="url(#p97ab0b053f)" style="fill: #70a800; stroke: #659700; stroke-width: 0.65; stroke-linejoin: miter"/>
   </g>
   <g id="patch_31">
    <path d="M 477.634121 342.810964 
L 492.462662 342.810964 
L 492.462662 324.753804 
L 477.634121 324.753804 
z
" clip-path="url(#p97ab0b053f)" style="fill: #ea0070; stroke: #d30065; stroke-width: 0.65; stroke-linejoin: miter"/>
   </g>
   <g id="patch_32">
    <path d="M 103.68 339.48 
L 103.68 256.68 
" style="fill: none; stroke: #e6e6e6; stroke-width: 1.5; stroke-linejoin: miter; stroke-linecap: square"/>
   </g>
   <g id="patch_33">
    <path d="M 518.4 339.48 
L 518.4 256.68 
" style="fill: none; stroke: #e6e6e6; stroke-width: 1.5; stroke-linejoin: miter; stroke-linecap: square"/>
   </g>
   <g id="patch_34">
    <path d="M 103.68 339.48 
L 518.4 339.48 
" style="fill: none; stroke: #e6e6e6; stroke-width: 1.5; stroke-linejoin: miter; stroke-linecap: square"/>
   </g>
   <g id="patch_35">
    <path d="M 103.68 256.68 
L 518.4 256.68 
" style="fill: none; stroke: #e6e6e6; stroke-width: 1.5; stroke-linejoin: miter; stroke-linecap: square"/>
   </g>
  </g>
  <g id="text_18">
   <!-- ADA - day 2 -->
   <g style="fill: #262626" transform="translate(239.83605 12.67155) scale(0.1728 -0.1728)">
    <defs>
     <path id="Arial-BoldMT-41" d="M 4597 0 
L 3591 0 
L 3191 1041 
L 1359 1041 
L 981 0 
L 0 0 
L 1784 4581 
L 2763 4581 
L 4597 0 
z
M 2894 1813 
L 2263 3513 
L 1644 1813 
L 2894 1813 
z
" transform="scale(0.015625)"/>
     <path id="Arial-BoldMT-44" d="M 463 4581 
L 2153 4581 
Q 2725 4581 3025 4494 
Q 3428 4375 3715 4072 
Q 4003 3769 4153 3330 
Q 4303 2891 4303 2247 
Q 4303 1681 4163 1272 
Q 3991 772 3672 463 
Q 3431 228 3022 97 
Q 2716 0 2203 0 
L 463 0 
L 463 4581 
z
M 1388 3806 
L 1388 772 
L 2078 772 
Q 2466 772 2638 816 
Q 2863 872 3011 1006 
Q 3159 1141 3253 1448 
Q 3347 1756 3347 2288 
Q 3347 2819 3253 3103 
Q 3159 3388 2990 3547 
Q 2822 3706 2563 3763 
Q 2369 3806 1803 3806 
L 1388 3806 
z
" transform="scale(0.015625)"/>
     <path id="Arial-BoldMT-20" transform="scale(0.015625)"/>
     <path id="Arial-BoldMT-2d" d="M 359 1222 
L 359 2100 
L 2084 2100 
L 2084 1222 
L 359 1222 
z
" transform="scale(0.015625)"/>
     <path id="Arial-BoldMT-64" d="M 3503 0 
L 2688 0 
L 2688 488 
Q 2484 203 2207 64 
Q 1931 -75 1650 -75 
Q 1078 -75 670 386 
Q 263 847 263 1672 
Q 263 2516 659 2955 
Q 1056 3394 1663 3394 
Q 2219 3394 2625 2931 
L 2625 4581 
L 3503 4581 
L 3503 0 
z
M 1159 1731 
Q 1159 1200 1306 963 
Q 1519 619 1900 619 
Q 2203 619 2415 876 
Q 2628 1134 2628 1647 
Q 2628 2219 2422 2470 
Q 2216 2722 1894 2722 
Q 1581 2722 1370 2473 
Q 1159 2225 1159 1731 
z
" transform="scale(0.015625)"/>
     <path id="Arial-BoldMT-61" d="M 1116 2306 
L 319 2450 
Q 453 2931 781 3162 
Q 1109 3394 1756 3394 
Q 2344 3394 2631 3255 
Q 2919 3116 3036 2902 
Q 3153 2688 3153 2116 
L 3144 1091 
Q 3144 653 3186 445 
Q 3228 238 3344 0 
L 2475 0 
Q 2441 88 2391 259 
Q 2369 338 2359 363 
Q 2134 144 1878 34 
Q 1622 -75 1331 -75 
Q 819 -75 523 203 
Q 228 481 228 906 
Q 228 1188 362 1408 
Q 497 1628 739 1745 
Q 981 1863 1438 1950 
Q 2053 2066 2291 2166 
L 2291 2253 
Q 2291 2506 2166 2614 
Q 2041 2722 1694 2722 
Q 1459 2722 1328 2630 
Q 1197 2538 1116 2306 
z
M 2291 1594 
Q 2122 1538 1756 1459 
Q 1391 1381 1278 1306 
Q 1106 1184 1106 997 
Q 1106 813 1243 678 
Q 1381 544 1594 544 
Q 1831 544 2047 700 
Q 2206 819 2256 991 
Q 2291 1103 2291 1419 
L 2291 1594 
z
" transform="scale(0.015625)"/>
     <path id="Arial-BoldMT-79" d="M 44 3319 
L 978 3319 
L 1772 963 
L 2547 3319 
L 3456 3319 
L 2284 125 
L 2075 -453 
Q 1959 -744 1854 -897 
Q 1750 -1050 1614 -1145 
Q 1478 -1241 1279 -1294 
Q 1081 -1347 831 -1347 
Q 578 -1347 334 -1294 
L 256 -606 
Q 463 -647 628 -647 
Q 934 -647 1081 -467 
Q 1228 -288 1306 -9 
L 44 3319 
z
" transform="scale(0.015625)"/>
     <path id="Arial-BoldMT-32" d="M 3238 816 
L 3238 0 
L 159 0 
Q 209 463 459 877 
Q 709 1291 1447 1975 
Q 2041 2528 2175 2725 
Q 2356 2997 2356 3263 
Q 2356 3556 2198 3714 
Q 2041 3872 1763 3872 
Q 1488 3872 1325 3706 
Q 1163 3541 1138 3156 
L 263 3244 
Q 341 3969 753 4284 
Q 1166 4600 1784 4600 
Q 2463 4600 2850 4234 
Q 3238 3869 3238 3325 
Q 3238 3016 3127 2736 
Q 3016 2456 2775 2150 
Q 2616 1947 2200 1565 
Q 1784 1184 1673 1059 
Q 1563 934 1494 816 
L 3238 816 
z
" transform="scale(0.015625)"/>
    </defs>
    <use xlink:href="#Arial-BoldMT-41"/>
    <use xlink:href="#Arial-BoldMT-44" x="72.216797"/>
    <use xlink:href="#Arial-BoldMT-41" x="144.433594"/>
    <use xlink:href="#Arial-BoldMT-20" x="212.900391"/>
    <use xlink:href="#Arial-BoldMT-2d" x="240.683594"/>
    <use xlink:href="#Arial-BoldMT-20" x="273.984375"/>
    <use xlink:href="#Arial-BoldMT-64" x="301.767578"/>
    <use xlink:href="#Arial-BoldMT-61" x="362.851562"/>
    <use xlink:href="#Arial-BoldMT-79" x="418.466797"/>
    <use xlink:href="#Arial-BoldMT-20" x="474.082031"/>
    <use xlink:href="#Arial-BoldMT-32" x="501.865234"/>
   </g>
  </g>
 </g>
 <defs>
  <clipPath id="p92299870df">
   <rect x="103.68" y="49.68" width="414.72" height="207"/>
  </clipPath>
  <clipPath id="p97ab0b053f">
   <rect x="103.68" y="256.68" width="414.72" height="82.8"/>
  </clipPath>
 </defs>
</svg>
