<?xml version="1.0" encoding="utf-8" standalone="no"?>
<!DOCTYPE svg PUBLIC "-//W3C//DTD SVG 1.1//EN"
  "http://www.w3.org/Graphics/SVG/1.1/DTD/svg11.dtd">
<svg xmlns:xlink="http://www.w3.org/1999/xlink" width="576pt" height="414pt" viewBox="0 0 576 414" xmlns="http://www.w3.org/2000/svg" version="1.1">
 <metadata>
  <rdf:RDF xmlns:dc="http://purl.org/dc/elements/1.1/" xmlns:cc="http://creativecommons.org/ns#" xmlns:rdf="http://www.w3.org/1999/02/22-rdf-syntax-ns#">
   <cc:Work>
    <dc:type rdf:resource="http://purl.org/dc/dcmitype/StillImage"/>
    <dc:date>2024-06-03T20:05:41.090294</dc:date>
    <dc:format>image/svg+xml</dc:format>
    <dc:creator>
     <cc:Agent>
      <dc:title>Matplotlib v3.9.0, https://matplotlib.org/</dc:title>
     </cc:Agent>
    </dc:creator>
   </cc:Work>
  </rdf:RDF>
 </metadata>
 <defs>
  <style type="text/css">*{stroke-linejoin: round; stroke-linecap: butt}</style>
 </defs>
 <g id="figure_1">
  <g id="patch_1">
   <path d="M 0 414 
L 576 414 
L 576 0 
L 0 0 
z
" style="fill: #ffffff"/>
  </g>
  <g id="axes_1">
   <g id="patch_2">
    <path d="M 103.68 256.68 
L 518.4 256.68 
L 518.4 49.68 
L 103.68 49.68 
z
" style="fill: #ffffff"/>
   </g>
   <g id="matplotlib.axis_1">
    <g id="xtick_1">
     <g id="line2d_1">
      <path d="M 137.031608 256.68 
L 137.031608 49.68 
" clip-path="url(#p926353547f)" style="fill: none; stroke-dasharray: 2.96,1.28; stroke-dashoffset: 0; stroke: #d0d0d0; stroke-width: 0.8"/>
     </g>
     <g id="line2d_2"/>
    </g>
    <g id="xtick_2">
     <g id="line2d_3">
      <path d="M 212.687431 256.68 
L 212.687431 49.68 
" clip-path="url(#p926353547f)" style="fill: none; stroke-dasharray: 2.96,1.28; stroke-dashoffset: 0; stroke: #d0d0d0; stroke-width: 0.8"/>
     </g>
     <g id="line2d_4"/>
    </g>
    <g id="xtick_3">
     <g id="line2d_5">
      <path d="M 288.343253 256.68 
L 288.343253 49.68 
" clip-path="url(#p926353547f)" style="fill: none; stroke-dasharray: 2.96,1.28; stroke-dashoffset: 0; stroke: #d0d0d0; stroke-width: 0.8"/>
     </g>
     <g id="line2d_6"/>
    </g>
    <g id="xtick_4">
     <g id="line2d_7">
      <path d="M 363.999076 256.68 
L 363.999076 49.68 
" clip-path="url(#p926353547f)" style="fill: none; stroke-dasharray: 2.96,1.28; stroke-dashoffset: 0; stroke: #d0d0d0; stroke-width: 0.8"/>
     </g>
     <g id="line2d_8"/>
    </g>
    <g id="xtick_5">
     <g id="line2d_9">
      <path d="M 439.654898 256.68 
L 439.654898 49.68 
" clip-path="url(#p926353547f)" style="fill: none; stroke-dasharray: 2.96,1.28; stroke-dashoffset: 0; stroke: #d0d0d0; stroke-width: 0.8"/>
     </g>
     <g id="line2d_10"/>
    </g>
    <g id="xtick_6">
     <g id="line2d_11">
      <path d="M 515.310721 256.68 
L 515.310721 49.68 
" clip-path="url(#p926353547f)" style="fill: none; stroke-dasharray: 2.96,1.28; stroke-dashoffset: 0; stroke: #d0d0d0; stroke-width: 0.8"/>
     </g>
     <g id="line2d_12"/>
    </g>
   </g>
   <g id="matplotlib.axis_2">
    <g id="ytick_1">
     <g id="line2d_13">
      <path d="M 103.68 220.269103 
L 518.4 220.269103 
" clip-path="url(#p926353547f)" style="fill: none; stroke-dasharray: 2.96,1.28; stroke-dashoffset: 0; stroke: #d0d0d0; stroke-width: 0.8"/>
     </g>
     <g id="line2d_14"/>
     <g id="text_1">
      <!-- 7.1 -->
      <g style="fill: #262626" transform="translate(83.5 224.56379) scale(0.12 -0.12)">
       <defs>
        <path id="ArialMT-37" d="M 303 3981 
L 303 4522 
L 3269 4522 
L 3269 4084 
Q 2831 3619 2401 2847 
Q 1972 2075 1738 1259 
Q 1569 684 1522 0 
L 944 0 
Q 953 541 1156 1306 
Q 1359 2072 1739 2783 
Q 2119 3494 2547 3981 
L 303 3981 
z
" transform="scale(0.015625)"/>
        <path id="ArialMT-2e" d="M 581 0 
L 581 641 
L 1222 641 
L 1222 0 
L 581 0 
z
" transform="scale(0.015625)"/>
        <path id="ArialMT-31" d="M 2384 0 
L 1822 0 
L 1822 3584 
Q 1619 3391 1289 3197 
Q 959 3003 697 2906 
L 697 3450 
Q 1169 3672 1522 3987 
Q 1875 4303 2022 4600 
L 2384 4600 
L 2384 0 
z
" transform="scale(0.015625)"/>
       </defs>
       <use xlink:href="#ArialMT-37"/>
       <use xlink:href="#ArialMT-2e" x="55.615234"/>
       <use xlink:href="#ArialMT-31" x="83.398438"/>
      </g>
     </g>
    </g>
    <g id="ytick_2">
     <g id="line2d_15">
      <path d="M 103.68 178.727863 
L 518.4 178.727863 
" clip-path="url(#p926353547f)" style="fill: none; stroke-dasharray: 2.96,1.28; stroke-dashoffset: 0; stroke: #d0d0d0; stroke-width: 0.8"/>
     </g>
     <g id="line2d_16"/>
     <g id="text_2">
      <!-- 7.2 -->
      <g style="fill: #262626" transform="translate(83.5 183.02255) scale(0.12 -0.12)">
       <defs>
        <path id="ArialMT-32" d="M 3222 541 
L 3222 0 
L 194 0 
Q 188 203 259 391 
Q 375 700 629 1000 
Q 884 1300 1366 1694 
Q 2113 2306 2375 2664 
Q 2638 3022 2638 3341 
Q 2638 3675 2398 3904 
Q 2159 4134 1775 4134 
Q 1369 4134 1125 3890 
Q 881 3647 878 3216 
L 300 3275 
Q 359 3922 746 4261 
Q 1134 4600 1788 4600 
Q 2447 4600 2831 4234 
Q 3216 3869 3216 3328 
Q 3216 3053 3103 2787 
Q 2991 2522 2730 2228 
Q 2469 1934 1863 1422 
Q 1356 997 1212 845 
Q 1069 694 975 541 
L 3222 541 
z
" transform="scale(0.015625)"/>
       </defs>
       <use xlink:href="#ArialMT-37"/>
       <use xlink:href="#ArialMT-2e" x="55.615234"/>
       <use xlink:href="#ArialMT-32" x="83.398438"/>
      </g>
     </g>
    </g>
    <g id="ytick_3">
     <g id="line2d_17">
      <path d="M 103.68 137.186623 
L 518.4 137.186623 
" clip-path="url(#p926353547f)" style="fill: none; stroke-dasharray: 2.96,1.28; stroke-dashoffset: 0; stroke: #d0d0d0; stroke-width: 0.8"/>
     </g>
     <g id="line2d_18"/>
     <g id="text_3">
      <!-- 7.3 -->
      <g style="fill: #262626" transform="translate(83.5 141.48131) scale(0.12 -0.12)">
       <defs>
        <path id="ArialMT-33" d="M 269 1209 
L 831 1284 
Q 928 806 1161 595 
Q 1394 384 1728 384 
Q 2125 384 2398 659 
Q 2672 934 2672 1341 
Q 2672 1728 2419 1979 
Q 2166 2231 1775 2231 
Q 1616 2231 1378 2169 
L 1441 2663 
Q 1497 2656 1531 2656 
Q 1891 2656 2178 2843 
Q 2466 3031 2466 3422 
Q 2466 3731 2256 3934 
Q 2047 4138 1716 4138 
Q 1388 4138 1169 3931 
Q 950 3725 888 3313 
L 325 3413 
Q 428 3978 793 4289 
Q 1159 4600 1703 4600 
Q 2078 4600 2393 4439 
Q 2709 4278 2876 4000 
Q 3044 3722 3044 3409 
Q 3044 3113 2884 2869 
Q 2725 2625 2413 2481 
Q 2819 2388 3044 2092 
Q 3269 1797 3269 1353 
Q 3269 753 2831 336 
Q 2394 -81 1725 -81 
Q 1122 -81 723 278 
Q 325 638 269 1209 
z
" transform="scale(0.015625)"/>
       </defs>
       <use xlink:href="#ArialMT-37"/>
       <use xlink:href="#ArialMT-2e" x="55.615234"/>
       <use xlink:href="#ArialMT-33" x="83.398438"/>
      </g>
     </g>
    </g>
    <g id="ytick_4">
     <g id="line2d_19">
      <path d="M 103.68 95.645382 
L 518.4 95.645382 
" clip-path="url(#p926353547f)" style="fill: none; stroke-dasharray: 2.96,1.28; stroke-dashoffset: 0; stroke: #d0d0d0; stroke-width: 0.8"/>
     </g>
     <g id="line2d_20"/>
     <g id="text_4">
      <!-- 7.4 -->
      <g style="fill: #262626" transform="translate(83.5 99.94007) scale(0.12 -0.12)">
       <defs>
        <path id="ArialMT-34" d="M 2069 0 
L 2069 1097 
L 81 1097 
L 81 1613 
L 2172 4581 
L 2631 4581 
L 2631 1613 
L 3250 1613 
L 3250 1097 
L 2631 1097 
L 2631 0 
L 2069 0 
z
M 2069 1613 
L 2069 3678 
L 634 1613 
L 2069 1613 
z
" transform="scale(0.015625)"/>
       </defs>
       <use xlink:href="#ArialMT-37"/>
       <use xlink:href="#ArialMT-2e" x="55.615234"/>
       <use xlink:href="#ArialMT-34" x="83.398438"/>
      </g>
     </g>
    </g>
    <g id="ytick_5">
     <g id="line2d_21">
      <path d="M 103.68 54.104142 
L 518.4 54.104142 
" clip-path="url(#p926353547f)" style="fill: none; stroke-dasharray: 2.96,1.28; stroke-dashoffset: 0; stroke: #d0d0d0; stroke-width: 0.8"/>
     </g>
     <g id="line2d_22"/>
     <g id="text_5">
      <!-- 7.5 -->
      <g style="fill: #262626" transform="translate(83.5 58.39883) scale(0.12 -0.12)">
       <defs>
        <path id="ArialMT-35" d="M 266 1200 
L 856 1250 
Q 922 819 1161 601 
Q 1400 384 1738 384 
Q 2144 384 2425 690 
Q 2706 997 2706 1503 
Q 2706 1984 2436 2262 
Q 2166 2541 1728 2541 
Q 1456 2541 1237 2417 
Q 1019 2294 894 2097 
L 366 2166 
L 809 4519 
L 3088 4519 
L 3088 3981 
L 1259 3981 
L 1013 2750 
Q 1425 3038 1878 3038 
Q 2478 3038 2890 2622 
Q 3303 2206 3303 1553 
Q 3303 931 2941 478 
Q 2500 -78 1738 -78 
Q 1113 -78 717 272 
Q 322 622 266 1200 
z
" transform="scale(0.015625)"/>
       </defs>
       <use xlink:href="#ArialMT-37"/>
       <use xlink:href="#ArialMT-2e" x="55.615234"/>
       <use xlink:href="#ArialMT-35" x="83.398438"/>
      </g>
     </g>
    </g>
    <g id="text_6">
     <!-- Price -->
     <g style="fill: #262626" transform="translate(77.131875 167.8575) rotate(-90) scale(0.12 -0.12)">
      <defs>
       <path id="Arial-BoldMT-50" d="M 466 0 
L 466 4581 
L 1950 4581 
Q 2794 4581 3050 4513 
Q 3444 4409 3709 4064 
Q 3975 3719 3975 3172 
Q 3975 2750 3822 2462 
Q 3669 2175 3433 2011 
Q 3197 1847 2953 1794 
Q 2622 1728 1994 1728 
L 1391 1728 
L 1391 0 
L 466 0 
z
M 1391 3806 
L 1391 2506 
L 1897 2506 
Q 2444 2506 2628 2578 
Q 2813 2650 2917 2803 
Q 3022 2956 3022 3159 
Q 3022 3409 2875 3571 
Q 2728 3734 2503 3775 
Q 2338 3806 1838 3806 
L 1391 3806 
z
" transform="scale(0.015625)"/>
       <path id="Arial-BoldMT-72" d="M 1300 0 
L 422 0 
L 422 3319 
L 1238 3319 
L 1238 2847 
Q 1447 3181 1614 3287 
Q 1781 3394 1994 3394 
Q 2294 3394 2572 3228 
L 2300 2463 
Q 2078 2606 1888 2606 
Q 1703 2606 1575 2504 
Q 1447 2403 1373 2137 
Q 1300 1872 1300 1025 
L 1300 0 
z
" transform="scale(0.015625)"/>
       <path id="Arial-BoldMT-69" d="M 459 3769 
L 459 4581 
L 1338 4581 
L 1338 3769 
L 459 3769 
z
M 459 0 
L 459 3319 
L 1338 3319 
L 1338 0 
L 459 0 
z
" transform="scale(0.015625)"/>
       <path id="Arial-BoldMT-63" d="M 3353 2338 
L 2488 2181 
Q 2444 2441 2289 2572 
Q 2134 2703 1888 2703 
Q 1559 2703 1364 2476 
Q 1169 2250 1169 1719 
Q 1169 1128 1367 884 
Q 1566 641 1900 641 
Q 2150 641 2309 783 
Q 2469 925 2534 1272 
L 3397 1125 
Q 3263 531 2881 228 
Q 2500 -75 1859 -75 
Q 1131 -75 698 384 
Q 266 844 266 1656 
Q 266 2478 700 2936 
Q 1134 3394 1875 3394 
Q 2481 3394 2839 3133 
Q 3197 2872 3353 2338 
z
" transform="scale(0.015625)"/>
       <path id="Arial-BoldMT-65" d="M 2381 1056 
L 3256 909 
Q 3088 428 2723 176 
Q 2359 -75 1813 -75 
Q 947 -75 531 491 
Q 203 944 203 1634 
Q 203 2459 634 2926 
Q 1066 3394 1725 3394 
Q 2466 3394 2894 2905 
Q 3322 2416 3303 1406 
L 1103 1406 
Q 1113 1016 1316 798 
Q 1519 581 1822 581 
Q 2028 581 2168 693 
Q 2309 806 2381 1056 
z
M 2431 1944 
Q 2422 2325 2234 2523 
Q 2047 2722 1778 2722 
Q 1491 2722 1303 2513 
Q 1116 2303 1119 1944 
L 2431 1944 
z
" transform="scale(0.015625)"/>
      </defs>
      <use xlink:href="#Arial-BoldMT-50"/>
      <use xlink:href="#Arial-BoldMT-72" x="66.699219"/>
      <use xlink:href="#Arial-BoldMT-69" x="105.615234"/>
      <use xlink:href="#Arial-BoldMT-63" x="133.398438"/>
      <use xlink:href="#Arial-BoldMT-65" x="189.013672"/>
     </g>
    </g>
   </g>
   <g id="PolyCollection_1">
    <path d="M 132.11398 80.898242 
L 132.11398 88.791078 
L 141.949237 88.791078 
L 141.949237 80.898242 
z
" clip-path="url(#p926353547f)" style="fill: #ea0070; fill-opacity: 0.9; stroke: #ea0070"/>
    <path d="M 147.245144 88.791078 
L 147.245144 95.437676 
L 157.080401 95.437676 
L 157.080401 88.791078 
z
" clip-path="url(#p926353547f)" style="fill: #ea0070; fill-opacity: 0.9; stroke: #ea0070"/>
    <path d="M 162.376309 95.437676 
L 162.376309 67.605045 
L 172.211566 67.605045 
L 172.211566 95.437676 
z
" clip-path="url(#p926353547f)" style="fill: #70a800; fill-opacity: 0.9; stroke: #70a800"/>
    <path d="M 177.507473 67.605045 
L 177.507473 76.744118 
L 187.34273 76.744118 
L 187.34273 67.605045 
z
" clip-path="url(#p926353547f)" style="fill: #ea0070; fill-opacity: 0.9; stroke: #ea0070"/>
    <path d="M 192.638638 76.744118 
L 192.638638 80.067417 
L 202.473895 80.067417 
L 202.473895 76.744118 
z
" clip-path="url(#p926353547f)" style="fill: #ea0070; fill-opacity: 0.9; stroke: #ea0070"/>
    <path d="M 207.769802 80.067417 
L 207.769802 86.714016 
L 217.605059 86.714016 
L 217.605059 80.067417 
z
" clip-path="url(#p926353547f)" style="fill: #ea0070; fill-opacity: 0.9; stroke: #ea0070"/>
    <path d="M 222.900967 86.714016 
L 222.900967 106.238399 
L 232.736224 106.238399 
L 232.736224 86.714016 
z
" clip-path="url(#p926353547f)" style="fill: #ea0070; fill-opacity: 0.9; stroke: #ea0070"/>
    <path d="M 238.032131 106.030692 
L 238.032131 87.54484 
L 247.867388 87.54484 
L 247.867388 106.030692 
z
" clip-path="url(#p926353547f)" style="fill: #70a800; fill-opacity: 0.9; stroke: #70a800"/>
    <path d="M 253.163296 87.337134 
L 253.163296 98.345563 
L 262.998553 98.345563 
L 262.998553 87.337134 
z
" clip-path="url(#p926353547f)" style="fill: #ea0070; fill-opacity: 0.9; stroke: #ea0070"/>
    <path d="M 268.29446 98.345563 
L 268.29446 102.499687 
L 278.129717 102.499687 
L 278.129717 98.345563 
z
" clip-path="url(#p926353547f)" style="fill: #ea0070; fill-opacity: 0.9; stroke: #ea0070"/>
    <path d="M 283.425625 102.499687 
L 283.425625 112.469585 
L 293.260882 112.469585 
L 293.260882 102.499687 
z
" clip-path="url(#p926353547f)" style="fill: #ea0070; fill-opacity: 0.9; stroke: #ea0070"/>
    <path d="M 298.556789 112.469585 
L 298.556789 117.246827 
L 308.392046 117.246827 
L 308.392046 112.469585 
z
" clip-path="url(#p926353547f)" style="fill: #ea0070; fill-opacity: 0.9; stroke: #ea0070"/>
    <path d="M 313.687954 117.246827 
L 313.687954 160.865129 
L 323.523211 160.865129 
L 323.523211 117.246827 
z
" clip-path="url(#p926353547f)" style="fill: #ea0070; fill-opacity: 0.9; stroke: #ea0070"/>
    <path d="M 328.819118 160.865129 
L 328.819118 158.164949 
L 338.654375 158.164949 
L 338.654375 160.865129 
z
" clip-path="url(#p926353547f)" style="fill: #70a800; fill-opacity: 0.9; stroke: #70a800"/>
    <path d="M 343.950283 158.164949 
L 343.950283 175.196857 
L 353.78554 175.196857 
L 353.78554 158.164949 
z
" clip-path="url(#p926353547f)" style="fill: #ea0070; fill-opacity: 0.9; stroke: #ea0070"/>
    <path d="M 359.081447 175.196857 
L 359.081447 185.99758 
L 368.916704 185.99758 
L 368.916704 175.196857 
z
" clip-path="url(#p926353547f)" style="fill: #ea0070; fill-opacity: 0.9; stroke: #ea0070"/>
    <path d="M 374.212612 185.99758 
L 374.212612 221.099928 
L 384.047869 221.099928 
L 384.047869 185.99758 
z
" clip-path="url(#p926353547f)" style="fill: #ea0070; fill-opacity: 0.9; stroke: #ea0070"/>
    <path d="M 389.343776 221.099928 
L 389.343776 209.676087 
L 399.179033 209.676087 
L 399.179033 221.099928 
z
" clip-path="url(#p926353547f)" style="fill: #70a800; fill-opacity: 0.9; stroke: #70a800"/>
    <path d="M 404.474941 209.46838 
L 404.474941 215.49186 
L 414.310198 215.49186 
L 414.310198 209.46838 
z
" clip-path="url(#p926353547f)" style="fill: #ea0070; fill-opacity: 0.9; stroke: #ea0070"/>
    <path d="M 419.606105 215.49186 
L 419.606105 211.337736 
L 429.441362 211.337736 
L 429.441362 215.49186 
z
" clip-path="url(#p926353547f)" style="fill: #70a800; fill-opacity: 0.9; stroke: #70a800"/>
    <path d="M 434.73727 211.337736 
L 434.73727 214.868742 
L 444.572527 214.868742 
L 444.572527 211.337736 
z
" clip-path="url(#p926353547f)" style="fill: #ea0070; fill-opacity: 0.9; stroke: #ea0070"/>
    <path d="M 449.868434 214.868742 
L 449.868434 230.031294 
L 459.703691 230.031294 
L 459.703691 214.868742 
z
" clip-path="url(#p926353547f)" style="fill: #ea0070; fill-opacity: 0.9; stroke: #ea0070"/>
    <path d="M 464.999599 230.031294 
L 464.999599 223.592402 
L 474.834856 223.592402 
L 474.834856 230.031294 
z
" clip-path="url(#p926353547f)" style="fill: #70a800; fill-opacity: 0.9; stroke: #70a800"/>
    <path d="M 480.130763 223.592402 
L 480.130763 232.523769 
L 489.96602 232.523769 
L 489.96602 223.592402 
z
" clip-path="url(#p926353547f)" style="fill: #ea0070; fill-opacity: 0.9; stroke: #ea0070"/>
   </g>
   <g id="LineCollection_1">
    <path d="M 137.031608 92.322083 
L 137.031608 88.791078 
" clip-path="url(#p926353547f)" style="fill: none; stroke: #ea0070"/>
    <path d="M 152.162773 98.345563 
L 152.162773 95.437676 
" clip-path="url(#p926353547f)" style="fill: none; stroke: #ea0070"/>
    <path d="M 167.293937 96.268501 
L 167.293937 95.437676 
" clip-path="url(#p926353547f)" style="fill: none; stroke: #70a800"/>
    <path d="M 182.425102 76.951824 
L 182.425102 76.744118 
" clip-path="url(#p926353547f)" style="fill: none; stroke: #ea0070"/>
    <path d="M 197.556266 94.399145 
L 197.556266 80.067417 
" clip-path="url(#p926353547f)" style="fill: none; stroke: #ea0070"/>
    <path d="M 212.687431 89.20649 
L 212.687431 86.714016 
" clip-path="url(#p926353547f)" style="fill: none; stroke: #ea0070"/>
    <path d="M 227.818595 113.300409 
L 227.818595 106.238399 
" clip-path="url(#p926353547f)" style="fill: none; stroke: #ea0070"/>
    <path d="M 242.94976 106.861517 
L 242.94976 106.030692 
" clip-path="url(#p926353547f)" style="fill: none; stroke: #70a800"/>
    <path d="M 258.080924 106.653811 
L 258.080924 98.345563 
" clip-path="url(#p926353547f)" style="fill: none; stroke: #ea0070"/>
    <path d="M 273.212089 112.677291 
L 273.212089 102.499687 
" clip-path="url(#p926353547f)" style="fill: none; stroke: #ea0070"/>
    <path d="M 288.343253 116.416002 
L 288.343253 112.469585 
" clip-path="url(#p926353547f)" style="fill: none; stroke: #ea0070"/>
    <path d="M 303.474418 138.017447 
L 303.474418 117.246827 
" clip-path="url(#p926353547f)" style="fill: none; stroke: #ea0070"/>
    <path d="M 318.605582 163.357604 
L 318.605582 160.865129 
" clip-path="url(#p926353547f)" style="fill: none; stroke: #ea0070"/>
    <path d="M 333.736747 178.104744 
L 333.736747 160.865129 
" clip-path="url(#p926353547f)" style="fill: none; stroke: #70a800"/>
    <path d="M 348.867911 185.166755 
L 348.867911 175.196857 
" clip-path="url(#p926353547f)" style="fill: none; stroke: #ea0070"/>
    <path d="M 363.999076 207.599025 
L 363.999076 185.99758 
" clip-path="url(#p926353547f)" style="fill: none; stroke: #ea0070"/>
    <path d="M 379.13024 225.254052 
L 379.13024 221.099928 
" clip-path="url(#p926353547f)" style="fill: none; stroke: #ea0070"/>
    <path d="M 394.261405 224.838639 
L 394.261405 221.099928 
" clip-path="url(#p926353547f)" style="fill: none; stroke: #70a800"/>
    <path d="M 409.392569 219.645984 
L 409.392569 215.49186 
" clip-path="url(#p926353547f)" style="fill: none; stroke: #ea0070"/>
    <path d="M 424.523734 220.892222 
L 424.523734 215.49186 
" clip-path="url(#p926353547f)" style="fill: none; stroke: #70a800"/>
    <path d="M 439.654898 219.645984 
L 439.654898 214.868742 
" clip-path="url(#p926353547f)" style="fill: none; stroke: #ea0070"/>
    <path d="M 454.786063 247.270909 
L 454.786063 230.031294 
" clip-path="url(#p926353547f)" style="fill: none; stroke: #ea0070"/>
    <path d="M 469.917227 231.277532 
L 469.917227 230.031294 
" clip-path="url(#p926353547f)" style="fill: none; stroke: #70a800"/>
    <path d="M 485.048392 235.431656 
L 485.048392 232.523769 
" clip-path="url(#p926353547f)" style="fill: none; stroke: #ea0070"/>
    <path d="M 137.031608 76.744118 
L 137.031608 80.898242 
" clip-path="url(#p926353547f)" style="fill: none; stroke: #ea0070"/>
    <path d="M 152.162773 79.028886 
L 152.162773 88.791078 
" clip-path="url(#p926353547f)" style="fill: none; stroke: #ea0070"/>
    <path d="M 167.293937 66.566514 
L 167.293937 67.605045 
" clip-path="url(#p926353547f)" style="fill: none; stroke: #70a800"/>
    <path d="M 182.425102 59.089091 
L 182.425102 67.605045 
" clip-path="url(#p926353547f)" style="fill: none; stroke: #ea0070"/>
    <path d="M 197.556266 76.328706 
L 197.556266 76.744118 
" clip-path="url(#p926353547f)" style="fill: none; stroke: #ea0070"/>
    <path d="M 212.687431 77.990355 
L 212.687431 80.067417 
" clip-path="url(#p926353547f)" style="fill: none; stroke: #ea0070"/>
    <path d="M 227.818595 84.429247 
L 227.818595 86.714016 
" clip-path="url(#p926353547f)" style="fill: none; stroke: #ea0070"/>
    <path d="M 242.94976 85.052366 
L 242.94976 87.54484 
" clip-path="url(#p926353547f)" style="fill: none; stroke: #70a800"/>
    <path d="M 258.080924 85.052366 
L 258.080924 87.337134 
" clip-path="url(#p926353547f)" style="fill: none; stroke: #ea0070"/>
    <path d="M 273.212089 95.437676 
L 273.212089 98.345563 
" clip-path="url(#p926353547f)" style="fill: none; stroke: #ea0070"/>
    <path d="M 288.343253 88.791078 
L 288.343253 102.499687 
" clip-path="url(#p926353547f)" style="fill: none; stroke: #ea0070"/>
    <path d="M 303.474418 109.353992 
L 303.474418 112.469585 
" clip-path="url(#p926353547f)" style="fill: none; stroke: #ea0070"/>
    <path d="M 318.605582 114.962059 
L 318.605582 117.246827 
" clip-path="url(#p926353547f)" style="fill: none; stroke: #ea0070"/>
    <path d="M 333.736747 150.687526 
L 333.736747 158.164949 
" clip-path="url(#p926353547f)" style="fill: none; stroke: #70a800"/>
    <path d="M 348.867911 154.426237 
L 348.867911 158.164949 
" clip-path="url(#p926353547f)" style="fill: none; stroke: #ea0070"/>
    <path d="M 363.999076 174.989151 
L 363.999076 175.196857 
" clip-path="url(#p926353547f)" style="fill: none; stroke: #ea0070"/>
    <path d="M 379.13024 184.959049 
L 379.13024 185.99758 
" clip-path="url(#p926353547f)" style="fill: none; stroke: #ea0070"/>
    <path d="M 394.261405 202.614076 
L 394.261405 209.676087 
" clip-path="url(#p926353547f)" style="fill: none; stroke: #70a800"/>
    <path d="M 409.392569 203.029488 
L 409.392569 209.46838 
" clip-path="url(#p926353547f)" style="fill: none; stroke: #ea0070"/>
    <path d="M 424.523734 194.098122 
L 424.523734 211.337736 
" clip-path="url(#p926353547f)" style="fill: none; stroke: #70a800"/>
    <path d="M 439.654898 202.821782 
L 439.654898 211.337736 
" clip-path="url(#p926353547f)" style="fill: none; stroke: #ea0070"/>
    <path d="M 454.786063 210.506911 
L 454.786063 214.868742 
" clip-path="url(#p926353547f)" style="fill: none; stroke: #ea0070"/>
    <path d="M 469.917227 220.476809 
L 469.917227 223.592402 
" clip-path="url(#p926353547f)" style="fill: none; stroke: #70a800"/>
    <path d="M 485.048392 223.17699 
L 485.048392 223.592402 
" clip-path="url(#p926353547f)" style="fill: none; stroke: #ea0070"/>
   </g>
   <g id="patch_3">
    <path d="M 103.68 256.68 
L 103.68 49.68 
" style="fill: none; stroke: #e6e6e6; stroke-width: 1.5; stroke-linejoin: miter; stroke-linecap: square"/>
   </g>
   <g id="patch_4">
    <path d="M 518.4 256.68 
L 518.4 49.68 
" style="fill: none; stroke: #e6e6e6; stroke-width: 1.5; stroke-linejoin: miter; stroke-linecap: square"/>
   </g>
   <g id="patch_5">
    <path d="M 103.68 256.68 
L 518.4 256.68 
" style="fill: none; stroke: #e6e6e6; stroke-width: 1.5; stroke-linejoin: miter; stroke-linecap: square"/>
   </g>
   <g id="patch_6">
    <path d="M 103.68 49.68 
L 518.4 49.68 
" style="fill: none; stroke: #e6e6e6; stroke-width: 1.5; stroke-linejoin: miter; stroke-linecap: square"/>
   </g>
  </g>
  <g id="axes_2">
   <g id="patch_7">
    <path d="M 103.68 339.48 
L 518.4 339.48 
L 518.4 256.68 
L 103.68 256.68 
z
" style="fill: #ffffff"/>
   </g>
   <g id="matplotlib.axis_3">
    <g id="xtick_7">
     <g id="line2d_23">
      <path d="M 137.031608 339.48 
L 137.031608 256.68 
" clip-path="url(#p30358612e0)" style="fill: none; stroke-dasharray: 2.96,1.28; stroke-dashoffset: 0; stroke: #d0d0d0; stroke-width: 0.8"/>
     </g>
     <g id="line2d_24"/>
     <g id="text_7">
      <!-- 00:00 -->
      <g style="fill: #262626" transform="translate(128.609304 370.28537) rotate(-45) scale(0.12 -0.12)">
       <defs>
        <path id="ArialMT-30" d="M 266 2259 
Q 266 3072 433 3567 
Q 600 4063 929 4331 
Q 1259 4600 1759 4600 
Q 2128 4600 2406 4451 
Q 2684 4303 2865 4023 
Q 3047 3744 3150 3342 
Q 3253 2941 3253 2259 
Q 3253 1453 3087 958 
Q 2922 463 2592 192 
Q 2263 -78 1759 -78 
Q 1097 -78 719 397 
Q 266 969 266 2259 
z
M 844 2259 
Q 844 1131 1108 757 
Q 1372 384 1759 384 
Q 2147 384 2411 759 
Q 2675 1134 2675 2259 
Q 2675 3391 2411 3762 
Q 2147 4134 1753 4134 
Q 1366 4134 1134 3806 
Q 844 3388 844 2259 
z
" transform="scale(0.015625)"/>
        <path id="ArialMT-3a" d="M 578 2678 
L 578 3319 
L 1219 3319 
L 1219 2678 
L 578 2678 
z
M 578 0 
L 578 641 
L 1219 641 
L 1219 0 
L 578 0 
z
" transform="scale(0.015625)"/>
       </defs>
       <use xlink:href="#ArialMT-30"/>
       <use xlink:href="#ArialMT-30" x="55.615234"/>
       <use xlink:href="#ArialMT-3a" x="111.230469"/>
       <use xlink:href="#ArialMT-30" x="139.013672"/>
       <use xlink:href="#ArialMT-30" x="194.628906"/>
      </g>
     </g>
    </g>
    <g id="xtick_8">
     <g id="line2d_25">
      <path d="M 212.687431 339.48 
L 212.687431 256.68 
" clip-path="url(#p30358612e0)" style="fill: none; stroke-dasharray: 2.96,1.28; stroke-dashoffset: 0; stroke: #d0d0d0; stroke-width: 0.8"/>
     </g>
     <g id="line2d_26"/>
     <g id="text_8">
      <!-- 05:00 -->
      <g style="fill: #262626" transform="translate(204.265126 370.28537) rotate(-45) scale(0.12 -0.12)">
       <use xlink:href="#ArialMT-30"/>
       <use xlink:href="#ArialMT-35" x="55.615234"/>
       <use xlink:href="#ArialMT-3a" x="111.230469"/>
       <use xlink:href="#ArialMT-30" x="139.013672"/>
       <use xlink:href="#ArialMT-30" x="194.628906"/>
      </g>
     </g>
    </g>
    <g id="xtick_9">
     <g id="line2d_27">
      <path d="M 288.343253 339.48 
L 288.343253 256.68 
" clip-path="url(#p30358612e0)" style="fill: none; stroke-dasharray: 2.96,1.28; stroke-dashoffset: 0; stroke: #d0d0d0; stroke-width: 0.8"/>
     </g>
     <g id="line2d_28"/>
     <g id="text_9">
      <!-- 10:00 -->
      <g style="fill: #262626" transform="translate(279.920949 370.28537) rotate(-45) scale(0.12 -0.12)">
       <use xlink:href="#ArialMT-31"/>
       <use xlink:href="#ArialMT-30" x="55.615234"/>
       <use xlink:href="#ArialMT-3a" x="111.230469"/>
       <use xlink:href="#ArialMT-30" x="139.013672"/>
       <use xlink:href="#ArialMT-30" x="194.628906"/>
      </g>
     </g>
    </g>
    <g id="xtick_10">
     <g id="line2d_29">
      <path d="M 363.999076 339.48 
L 363.999076 256.68 
" clip-path="url(#p30358612e0)" style="fill: none; stroke-dasharray: 2.96,1.28; stroke-dashoffset: 0; stroke: #d0d0d0; stroke-width: 0.8"/>
     </g>
     <g id="line2d_30"/>
     <g id="text_10">
      <!-- 15:00 -->
      <g style="fill: #262626" transform="translate(355.576771 370.28537) rotate(-45) scale(0.12 -0.12)">
       <use xlink:href="#ArialMT-31"/>
       <use xlink:href="#ArialMT-35" x="55.615234"/>
       <use xlink:href="#ArialMT-3a" x="111.230469"/>
       <use xlink:href="#ArialMT-30" x="139.013672"/>
       <use xlink:href="#ArialMT-30" x="194.628906"/>
      </g>
     </g>
    </g>
    <g id="xtick_11">
     <g id="line2d_31">
      <path d="M 439.654898 339.48 
L 439.654898 256.68 
" clip-path="url(#p30358612e0)" style="fill: none; stroke-dasharray: 2.96,1.28; stroke-dashoffset: 0; stroke: #d0d0d0; stroke-width: 0.8"/>
     </g>
     <g id="line2d_32"/>
     <g id="text_11">
      <!-- 20:00 -->
      <g style="fill: #262626" transform="translate(431.232593 370.28537) rotate(-45) scale(0.12 -0.12)">
       <use xlink:href="#ArialMT-32"/>
       <use xlink:href="#ArialMT-30" x="55.615234"/>
       <use xlink:href="#ArialMT-3a" x="111.230469"/>
       <use xlink:href="#ArialMT-30" x="139.013672"/>
       <use xlink:href="#ArialMT-30" x="194.628906"/>
      </g>
     </g>
    </g>
    <g id="xtick_12">
     <g id="line2d_33">
      <path d="M 515.310721 339.48 
L 515.310721 256.68 
" clip-path="url(#p30358612e0)" style="fill: none; stroke-dasharray: 2.96,1.28; stroke-dashoffset: 0; stroke: #d0d0d0; stroke-width: 0.8"/>
     </g>
     <g id="line2d_34"/>
    </g>
   </g>
   <g id="matplotlib.axis_4">
    <g id="ytick_6">
     <g id="line2d_35">
      <path d="M 103.68 318.659517 
L 518.4 318.659517 
" clip-path="url(#p30358612e0)" style="fill: none; stroke-dasharray: 2.96,1.28; stroke-dashoffset: 0; stroke: #d0d0d0; stroke-width: 0.8"/>
     </g>
     <g id="line2d_36"/>
     <g id="text_12">
      <!-- 10000 -->
      <g style="fill: #262626" transform="translate(66.814375 322.954204) scale(0.12 -0.12)">
       <use xlink:href="#ArialMT-31"/>
       <use xlink:href="#ArialMT-30" x="55.615234"/>
       <use xlink:href="#ArialMT-30" x="111.230469"/>
       <use xlink:href="#ArialMT-30" x="166.845703"/>
       <use xlink:href="#ArialMT-30" x="222.460938"/>
      </g>
     </g>
    </g>
    <g id="ytick_7">
     <g id="line2d_37">
      <path d="M 103.68 290.277108 
L 518.4 290.277108 
" clip-path="url(#p30358612e0)" style="fill: none; stroke-dasharray: 2.96,1.28; stroke-dashoffset: 0; stroke: #d0d0d0; stroke-width: 0.8"/>
     </g>
     <g id="line2d_38"/>
     <g id="text_13">
      <!-- 20000 -->
      <g style="fill: #262626" transform="translate(66.814375 294.571796) scale(0.12 -0.12)">
       <use xlink:href="#ArialMT-32"/>
       <use xlink:href="#ArialMT-30" x="55.615234"/>
       <use xlink:href="#ArialMT-30" x="111.230469"/>
       <use xlink:href="#ArialMT-30" x="166.845703"/>
       <use xlink:href="#ArialMT-30" x="222.460938"/>
      </g>
     </g>
    </g>
    <g id="ytick_8">
     <g id="line2d_39">
      <path d="M 103.68 261.8947 
L 518.4 261.8947 
" clip-path="url(#p30358612e0)" style="fill: none; stroke-dasharray: 2.96,1.28; stroke-dashoffset: 0; stroke: #d0d0d0; stroke-width: 0.8"/>
     </g>
     <g id="line2d_40"/>
     <g id="text_14">
      <!-- 30000 -->
      <g style="fill: #262626" transform="translate(66.814375 266.189387) scale(0.12 -0.12)">
       <use xlink:href="#ArialMT-33"/>
       <use xlink:href="#ArialMT-30" x="55.615234"/>
       <use xlink:href="#ArialMT-30" x="111.230469"/>
       <use xlink:href="#ArialMT-30" x="166.845703"/>
       <use xlink:href="#ArialMT-30" x="222.460938"/>
      </g>
     </g>
    </g>
    <g id="text_15">
     <!-- Volume -->
     <g style="fill: #262626" transform="translate(60.44625 319.307813) rotate(-90) scale(0.12 -0.12)">
      <defs>
       <path id="Arial-BoldMT-56" d="M 1634 0 
L -3 4581 
L 1000 4581 
L 2159 1191 
L 3281 4581 
L 4263 4581 
L 2622 0 
L 1634 0 
z
" transform="scale(0.015625)"/>
       <path id="Arial-BoldMT-6f" d="M 256 1706 
Q 256 2144 472 2553 
Q 688 2963 1083 3178 
Q 1478 3394 1966 3394 
Q 2719 3394 3200 2905 
Q 3681 2416 3681 1669 
Q 3681 916 3195 420 
Q 2709 -75 1972 -75 
Q 1516 -75 1102 131 
Q 688 338 472 736 
Q 256 1134 256 1706 
z
M 1156 1659 
Q 1156 1166 1390 903 
Q 1625 641 1969 641 
Q 2313 641 2545 903 
Q 2778 1166 2778 1666 
Q 2778 2153 2545 2415 
Q 2313 2678 1969 2678 
Q 1625 2678 1390 2415 
Q 1156 2153 1156 1659 
z
" transform="scale(0.015625)"/>
       <path id="Arial-BoldMT-6c" d="M 459 0 
L 459 4581 
L 1338 4581 
L 1338 0 
L 459 0 
z
" transform="scale(0.015625)"/>
       <path id="Arial-BoldMT-75" d="M 2644 0 
L 2644 497 
Q 2463 231 2167 78 
Q 1872 -75 1544 -75 
Q 1209 -75 943 72 
Q 678 219 559 484 
Q 441 750 441 1219 
L 441 3319 
L 1319 3319 
L 1319 1794 
Q 1319 1094 1367 936 
Q 1416 778 1544 686 
Q 1672 594 1869 594 
Q 2094 594 2272 717 
Q 2450 841 2515 1023 
Q 2581 1206 2581 1919 
L 2581 3319 
L 3459 3319 
L 3459 0 
L 2644 0 
z
" transform="scale(0.015625)"/>
       <path id="Arial-BoldMT-6d" d="M 394 3319 
L 1203 3319 
L 1203 2866 
Q 1638 3394 2238 3394 
Q 2556 3394 2790 3262 
Q 3025 3131 3175 2866 
Q 3394 3131 3647 3262 
Q 3900 3394 4188 3394 
Q 4553 3394 4806 3245 
Q 5059 3097 5184 2809 
Q 5275 2597 5275 2122 
L 5275 0 
L 4397 0 
L 4397 1897 
Q 4397 2391 4306 2534 
Q 4184 2722 3931 2722 
Q 3747 2722 3584 2609 
Q 3422 2497 3350 2280 
Q 3278 2063 3278 1594 
L 3278 0 
L 2400 0 
L 2400 1819 
Q 2400 2303 2353 2443 
Q 2306 2584 2207 2653 
Q 2109 2722 1941 2722 
Q 1738 2722 1575 2612 
Q 1413 2503 1342 2297 
Q 1272 2091 1272 1613 
L 1272 0 
L 394 0 
L 394 3319 
z
" transform="scale(0.015625)"/>
      </defs>
      <use xlink:href="#Arial-BoldMT-56"/>
      <use xlink:href="#Arial-BoldMT-6f" x="59.324219"/>
      <use xlink:href="#Arial-BoldMT-6c" x="120.408203"/>
      <use xlink:href="#Arial-BoldMT-75" x="148.191406"/>
      <use xlink:href="#Arial-BoldMT-6d" x="209.275391"/>
      <use xlink:href="#Arial-BoldMT-65" x="298.191406"/>
     </g>
    </g>
   </g>
   <g id="patch_8">
    <path d="M 129.617338 347.041925 
L 144.445879 347.041925 
L 144.445879 301.789013 
L 129.617338 301.789013 
z
" clip-path="url(#p30358612e0)" style="fill: #ea0070; stroke: #d30065; stroke-width: 0.65; stroke-linejoin: miter"/>
   </g>
   <g id="patch_9">
    <path d="M 144.748502 347.041925 
L 159.577043 347.041925 
L 159.577043 318.974561 
L 144.748502 318.974561 
z
" clip-path="url(#p30358612e0)" style="fill: #ea0070; stroke: #d30065; stroke-width: 0.65; stroke-linejoin: miter"/>
   </g>
   <g id="patch_10">
    <path d="M 159.879667 347.041925 
L 174.708208 347.041925 
L 174.708208 320.376652 
L 159.879667 320.376652 
z
" clip-path="url(#p30358612e0)" style="fill: #70a800; stroke: #659700; stroke-width: 0.65; stroke-linejoin: miter"/>
   </g>
   <g id="patch_11">
    <path d="M 175.010831 347.041925 
L 189.839372 347.041925 
L 189.839372 316.017114 
L 175.010831 316.017114 
z
" clip-path="url(#p30358612e0)" style="fill: #ea0070; stroke: #d30065; stroke-width: 0.65; stroke-linejoin: miter"/>
   </g>
   <g id="patch_12">
    <path d="M 190.141996 347.041925 
L 204.970537 347.041925 
L 204.970537 305.138137 
L 190.141996 305.138137 
z
" clip-path="url(#p30358612e0)" style="fill: #ea0070; stroke: #d30065; stroke-width: 0.65; stroke-linejoin: miter"/>
   </g>
   <g id="patch_13">
    <path d="M 205.27316 347.041925 
L 220.101701 347.041925 
L 220.101701 311.430517 
L 205.27316 311.430517 
z
" clip-path="url(#p30358612e0)" style="fill: #ea0070; stroke: #d30065; stroke-width: 0.65; stroke-linejoin: miter"/>
   </g>
   <g id="patch_14">
    <path d="M 220.404325 347.041925 
L 235.232866 347.041925 
L 235.232866 294.233616 
L 220.404325 294.233616 
z
" clip-path="url(#p30358612e0)" style="fill: #ea0070; stroke: #d30065; stroke-width: 0.65; stroke-linejoin: miter"/>
   </g>
   <g id="patch_15">
    <path d="M 235.535489 347.041925 
L 250.36403 347.041925 
L 250.36403 319.434356 
L 235.535489 319.434356 
z
" clip-path="url(#p30358612e0)" style="fill: #70a800; stroke: #659700; stroke-width: 0.65; stroke-linejoin: miter"/>
   </g>
   <g id="patch_16">
    <path d="M 250.666654 347.041925 
L 265.495195 347.041925 
L 265.495195 302.561015 
L 250.666654 302.561015 
z
" clip-path="url(#p30358612e0)" style="fill: #ea0070; stroke: #d30065; stroke-width: 0.65; stroke-linejoin: miter"/>
   </g>
   <g id="patch_17">
    <path d="M 265.797818 347.041925 
L 280.626359 347.041925 
L 280.626359 287.46725 
L 265.797818 287.46725 
z
" clip-path="url(#p30358612e0)" style="fill: #ea0070; stroke: #d30065; stroke-width: 0.65; stroke-linejoin: miter"/>
   </g>
   <g id="patch_18">
    <path d="M 280.928983 347.041925 
L 295.757524 347.041925 
L 295.757524 283.615757 
L 280.928983 283.615757 
z
" clip-path="url(#p30358612e0)" style="fill: #ea0070; stroke: #d30065; stroke-width: 0.65; stroke-linejoin: miter"/>
   </g>
   <g id="patch_19">
    <path d="M 296.060147 347.041925 
L 310.888688 347.041925 
L 310.888688 271.695146 
L 296.060147 271.695146 
z
" clip-path="url(#p30358612e0)" style="fill: #ea0070; stroke: #d30065; stroke-width: 0.65; stroke-linejoin: miter"/>
   </g>
   <g id="patch_20">
    <path d="M 311.191312 347.041925 
L 326.019853 347.041925 
L 326.019853 282.795505 
L 311.191312 282.795505 
z
" clip-path="url(#p30358612e0)" style="fill: #ea0070; stroke: #d30065; stroke-width: 0.65; stroke-linejoin: miter"/>
   </g>
   <g id="patch_21">
    <path d="M 326.322476 347.041925 
L 341.151017 347.041925 
L 341.151017 283.263815 
L 326.322476 283.263815 
z
" clip-path="url(#p30358612e0)" style="fill: #70a800; stroke: #659700; stroke-width: 0.65; stroke-linejoin: miter"/>
   </g>
   <g id="patch_22">
    <path d="M 341.453641 347.041925 
L 356.282182 347.041925 
L 356.282182 295.689634 
L 341.453641 295.689634 
z
" clip-path="url(#p30358612e0)" style="fill: #ea0070; stroke: #d30065; stroke-width: 0.65; stroke-linejoin: miter"/>
   </g>
   <g id="patch_23">
    <path d="M 356.584805 347.041925 
L 371.413346 347.041925 
L 371.413346 264.89472 
L 356.584805 264.89472 
z
" clip-path="url(#p30358612e0)" style="fill: #ea0070; stroke: #d30065; stroke-width: 0.65; stroke-linejoin: miter"/>
   </g>
   <g id="patch_24">
    <path d="M 371.71597 347.041925 
L 386.544511 347.041925 
L 386.544511 285.690511 
L 371.71597 285.690511 
z
" clip-path="url(#p30358612e0)" style="fill: #ea0070; stroke: #d30065; stroke-width: 0.65; stroke-linejoin: miter"/>
   </g>
   <g id="patch_25">
    <path d="M 386.847134 347.041925 
L 401.675675 347.041925 
L 401.675675 306.801346 
L 386.847134 306.801346 
z
" clip-path="url(#p30358612e0)" style="fill: #70a800; stroke: #659700; stroke-width: 0.65; stroke-linejoin: miter"/>
   </g>
   <g id="patch_26">
    <path d="M 401.978299 347.041925 
L 416.80684 347.041925 
L 416.80684 303.554399 
L 401.978299 303.554399 
z
" clip-path="url(#p30358612e0)" style="fill: #ea0070; stroke: #d30065; stroke-width: 0.65; stroke-linejoin: miter"/>
   </g>
   <g id="patch_27">
    <path d="M 417.109463 347.041925 
L 431.938004 347.041925 
L 431.938004 276.287419 
L 417.109463 276.287419 
z
" clip-path="url(#p30358612e0)" style="fill: #70a800; stroke: #659700; stroke-width: 0.65; stroke-linejoin: miter"/>
   </g>
   <g id="patch_28">
    <path d="M 432.240628 347.041925 
L 447.069169 347.041925 
L 447.069169 287.569427 
L 432.240628 287.569427 
z
" clip-path="url(#p30358612e0)" style="fill: #ea0070; stroke: #d30065; stroke-width: 0.65; stroke-linejoin: miter"/>
   </g>
   <g id="patch_29">
    <path d="M 447.371792 347.041925 
L 462.200333 347.041925 
L 462.200333 299.288523 
L 447.371792 299.288523 
z
" clip-path="url(#p30358612e0)" style="fill: #ea0070; stroke: #d30065; stroke-width: 0.65; stroke-linejoin: miter"/>
   </g>
   <g id="patch_30">
    <path d="M 462.502957 347.041925 
L 477.331498 347.041925 
L 477.331498 321.835508 
L 462.502957 321.835508 
z
" clip-path="url(#p30358612e0)" style="fill: #70a800; stroke: #659700; stroke-width: 0.65; stroke-linejoin: miter"/>
   </g>
   <g id="patch_31">
    <path d="M 477.634121 347.041925 
L 492.462662 347.041925 
L 492.462662 308.407791 
L 477.634121 308.407791 
z
" clip-path="url(#p30358612e0)" style="fill: #ea0070; stroke: #d30065; stroke-width: 0.65; stroke-linejoin: miter"/>
   </g>
   <g id="patch_32">
    <path d="M 103.68 339.48 
L 103.68 256.68 
" style="fill: none; stroke: #e6e6e6; stroke-width: 1.5; stroke-linejoin: miter; stroke-linecap: square"/>
   </g>
   <g id="patch_33">
    <path d="M 518.4 339.48 
L 518.4 256.68 
" style="fill: none; stroke: #e6e6e6; stroke-width: 1.5; stroke-linejoin: miter; stroke-linecap: square"/>
   </g>
   <g id="patch_34">
    <path d="M 103.68 339.48 
L 518.4 339.48 
" style="fill: none; stroke: #e6e6e6; stroke-width: 1.5; stroke-linejoin: miter; stroke-linecap: square"/>
   </g>
   <g id="patch_35">
    <path d="M 103.68 256.68 
L 518.4 256.68 
" style="fill: none; stroke: #e6e6e6; stroke-width: 1.5; stroke-linejoin: miter; stroke-linecap: square"/>
   </g>
  </g>
  <g id="text_16">
   <!-- AXS - day 4 -->
   <g style="fill: #262626" transform="translate(240.46515 12.7512) scale(0.1728 -0.1728)">
    <defs>
     <path id="Arial-BoldMT-41" d="M 4597 0 
L 3591 0 
L 3191 1041 
L 1359 1041 
L 981 0 
L 0 0 
L 1784 4581 
L 2763 4581 
L 4597 0 
z
M 2894 1813 
L 2263 3513 
L 1644 1813 
L 2894 1813 
z
" transform="scale(0.015625)"/>
     <path id="Arial-BoldMT-58" d="M 0 0 
L 1566 2391 
L 147 4581 
L 1228 4581 
L 2147 3109 
L 3047 4581 
L 4119 4581 
L 2694 2356 
L 4259 0 
L 3144 0 
L 2128 1584 
L 1109 0 
L 0 0 
z
" transform="scale(0.015625)"/>
     <path id="Arial-BoldMT-53" d="M 231 1491 
L 1131 1578 
Q 1213 1125 1461 912 
Q 1709 700 2131 700 
Q 2578 700 2804 889 
Q 3031 1078 3031 1331 
Q 3031 1494 2936 1608 
Q 2841 1722 2603 1806 
Q 2441 1863 1863 2006 
Q 1119 2191 819 2459 
Q 397 2838 397 3381 
Q 397 3731 595 4036 
Q 794 4341 1167 4500 
Q 1541 4659 2069 4659 
Q 2931 4659 3367 4281 
Q 3803 3903 3825 3272 
L 2900 3231 
Q 2841 3584 2645 3739 
Q 2450 3894 2059 3894 
Q 1656 3894 1428 3728 
Q 1281 3622 1281 3444 
Q 1281 3281 1419 3166 
Q 1594 3019 2269 2859 
Q 2944 2700 3267 2529 
Q 3591 2359 3773 2064 
Q 3956 1769 3956 1334 
Q 3956 941 3737 597 
Q 3519 253 3119 86 
Q 2719 -81 2122 -81 
Q 1253 -81 787 320 
Q 322 722 231 1491 
z
" transform="scale(0.015625)"/>
     <path id="Arial-BoldMT-20" transform="scale(0.015625)"/>
     <path id="Arial-BoldMT-2d" d="M 359 1222 
L 359 2100 
L 2084 2100 
L 2084 1222 
L 359 1222 
z
" transform="scale(0.015625)"/>
     <path id="Arial-BoldMT-64" d="M 3503 0 
L 2688 0 
L 2688 488 
Q 2484 203 2207 64 
Q 1931 -75 1650 -75 
Q 1078 -75 670 386 
Q 263 847 263 1672 
Q 263 2516 659 2955 
Q 1056 3394 1663 3394 
Q 2219 3394 2625 2931 
L 2625 4581 
L 3503 4581 
L 3503 0 
z
M 1159 1731 
Q 1159 1200 1306 963 
Q 1519 619 1900 619 
Q 2203 619 2415 876 
Q 2628 1134 2628 1647 
Q 2628 2219 2422 2470 
Q 2216 2722 1894 2722 
Q 1581 2722 1370 2473 
Q 1159 2225 1159 1731 
z
" transform="scale(0.015625)"/>
     <path id="Arial-BoldMT-61" d="M 1116 2306 
L 319 2450 
Q 453 2931 781 3162 
Q 1109 3394 1756 3394 
Q 2344 3394 2631 3255 
Q 2919 3116 3036 2902 
Q 3153 2688 3153 2116 
L 3144 1091 
Q 3144 653 3186 445 
Q 3228 238 3344 0 
L 2475 0 
Q 2441 88 2391 259 
Q 2369 338 2359 363 
Q 2134 144 1878 34 
Q 1622 -75 1331 -75 
Q 819 -75 523 203 
Q 228 481 228 906 
Q 228 1188 362 1408 
Q 497 1628 739 1745 
Q 981 1863 1438 1950 
Q 2053 2066 2291 2166 
L 2291 2253 
Q 2291 2506 2166 2614 
Q 2041 2722 1694 2722 
Q 1459 2722 1328 2630 
Q 1197 2538 1116 2306 
z
M 2291 1594 
Q 2122 1538 1756 1459 
Q 1391 1381 1278 1306 
Q 1106 1184 1106 997 
Q 1106 813 1243 678 
Q 1381 544 1594 544 
Q 1831 544 2047 700 
Q 2206 819 2256 991 
Q 2291 1103 2291 1419 
L 2291 1594 
z
" transform="scale(0.015625)"/>
     <path id="Arial-BoldMT-79" d="M 44 3319 
L 978 3319 
L 1772 963 
L 2547 3319 
L 3456 3319 
L 2284 125 
L 2075 -453 
Q 1959 -744 1854 -897 
Q 1750 -1050 1614 -1145 
Q 1478 -1241 1279 -1294 
Q 1081 -1347 831 -1347 
Q 578 -1347 334 -1294 
L 256 -606 
Q 463 -647 628 -647 
Q 934 -647 1081 -467 
Q 1228 -288 1306 -9 
L 44 3319 
z
" transform="scale(0.015625)"/>
     <path id="Arial-BoldMT-34" d="M 1994 0 
L 1994 922 
L 119 922 
L 119 1691 
L 2106 4600 
L 2844 4600 
L 2844 1694 
L 3413 1694 
L 3413 922 
L 2844 922 
L 2844 0 
L 1994 0 
z
M 1994 1694 
L 1994 3259 
L 941 1694 
L 1994 1694 
z
" transform="scale(0.015625)"/>
    </defs>
    <use xlink:href="#Arial-BoldMT-41"/>
    <use xlink:href="#Arial-BoldMT-58" x="72.216797"/>
    <use xlink:href="#Arial-BoldMT-53" x="138.916016"/>
    <use xlink:href="#Arial-BoldMT-20" x="205.615234"/>
    <use xlink:href="#Arial-BoldMT-2d" x="233.398438"/>
    <use xlink:href="#Arial-BoldMT-20" x="266.699219"/>
    <use xlink:href="#Arial-BoldMT-64" x="294.482422"/>
    <use xlink:href="#Arial-BoldMT-61" x="355.566406"/>
    <use xlink:href="#Arial-BoldMT-79" x="411.181641"/>
    <use xlink:href="#Arial-BoldMT-20" x="466.796875"/>
    <use xlink:href="#Arial-BoldMT-34" x="494.580078"/>
   </g>
  </g>
 </g>
 <defs>
  <clipPath id="p926353547f">
   <rect x="103.68" y="49.68" width="414.72" height="207"/>
  </clipPath>
  <clipPath id="p30358612e0">
   <rect x="103.68" y="256.68" width="414.72" height="82.8"/>
  </clipPath>
 </defs>
</svg>
