<?xml version="1.0" encoding="utf-8" standalone="no"?>
<!DOCTYPE svg PUBLIC "-//W3C//DTD SVG 1.1//EN"
  "http://www.w3.org/Graphics/SVG/1.1/DTD/svg11.dtd">
<svg xmlns:xlink="http://www.w3.org/1999/xlink" width="576pt" height="414pt" viewBox="0 0 576 414" xmlns="http://www.w3.org/2000/svg" version="1.1">
 <metadata>
  <rdf:RDF xmlns:dc="http://purl.org/dc/elements/1.1/" xmlns:cc="http://creativecommons.org/ns#" xmlns:rdf="http://www.w3.org/1999/02/22-rdf-syntax-ns#">
   <cc:Work>
    <dc:type rdf:resource="http://purl.org/dc/dcmitype/StillImage"/>
    <dc:date>2024-05-25T21:13:02.822376</dc:date>
    <dc:format>image/svg+xml</dc:format>
    <dc:creator>
     <cc:Agent>
      <dc:title>Matplotlib v3.9.0, https://matplotlib.org/</dc:title>
     </cc:Agent>
    </dc:creator>
   </cc:Work>
  </rdf:RDF>
 </metadata>
 <defs>
  <style type="text/css">*{stroke-linejoin: round; stroke-linecap: butt}</style>
 </defs>
 <g id="figure_1">
  <g id="patch_1">
   <path d="M 0 414 
L 576 414 
L 576 0 
L 0 0 
z
"/>
  </g>
  <g id="axes_1">
   <g id="patch_2">
    <path d="M 103.68 256.68 
L 518.4 256.68 
L 518.4 49.68 
L 103.68 49.68 
z
"/>
   </g>
   <g id="matplotlib.axis_1">
    <g id="xtick_1">
     <g id="line2d_1">
      <path d="M 137.031608 256.68 
L 137.031608 49.68 
" clip-path="url(#pe6ba5089eb)" style="fill: none; stroke-dasharray: 2.96,1.28; stroke-dashoffset: 0; stroke: #ffffff; stroke-width: 0.8"/>
     </g>
     <g id="line2d_2">
      <defs>
       <path id="me0b390c02e" d="M 0 0 
L 0 3.5 
" style="stroke: #ffffff; stroke-width: 0.8"/>
      </defs>
      <g>
       <use xlink:href="#me0b390c02e" x="137.031608" y="256.68" style="fill: #ffffff; stroke: #ffffff; stroke-width: 0.8"/>
      </g>
     </g>
    </g>
    <g id="xtick_2">
     <g id="line2d_3">
      <path d="M 212.687431 256.68 
L 212.687431 49.68 
" clip-path="url(#pe6ba5089eb)" style="fill: none; stroke-dasharray: 2.96,1.28; stroke-dashoffset: 0; stroke: #ffffff; stroke-width: 0.8"/>
     </g>
     <g id="line2d_4">
      <g>
       <use xlink:href="#me0b390c02e" x="212.687431" y="256.68" style="fill: #ffffff; stroke: #ffffff; stroke-width: 0.8"/>
      </g>
     </g>
    </g>
    <g id="xtick_3">
     <g id="line2d_5">
      <path d="M 288.343253 256.68 
L 288.343253 49.68 
" clip-path="url(#pe6ba5089eb)" style="fill: none; stroke-dasharray: 2.96,1.28; stroke-dashoffset: 0; stroke: #ffffff; stroke-width: 0.8"/>
     </g>
     <g id="line2d_6">
      <g>
       <use xlink:href="#me0b390c02e" x="288.343253" y="256.68" style="fill: #ffffff; stroke: #ffffff; stroke-width: 0.8"/>
      </g>
     </g>
    </g>
    <g id="xtick_4">
     <g id="line2d_7">
      <path d="M 363.999076 256.68 
L 363.999076 49.68 
" clip-path="url(#pe6ba5089eb)" style="fill: none; stroke-dasharray: 2.96,1.28; stroke-dashoffset: 0; stroke: #ffffff; stroke-width: 0.8"/>
     </g>
     <g id="line2d_8">
      <g>
       <use xlink:href="#me0b390c02e" x="363.999076" y="256.68" style="fill: #ffffff; stroke: #ffffff; stroke-width: 0.8"/>
      </g>
     </g>
    </g>
    <g id="xtick_5">
     <g id="line2d_9">
      <path d="M 439.654898 256.68 
L 439.654898 49.68 
" clip-path="url(#pe6ba5089eb)" style="fill: none; stroke-dasharray: 2.96,1.28; stroke-dashoffset: 0; stroke: #ffffff; stroke-width: 0.8"/>
     </g>
     <g id="line2d_10">
      <g>
       <use xlink:href="#me0b390c02e" x="439.654898" y="256.68" style="fill: #ffffff; stroke: #ffffff; stroke-width: 0.8"/>
      </g>
     </g>
    </g>
    <g id="xtick_6">
     <g id="line2d_11">
      <path d="M 515.310721 256.68 
L 515.310721 49.68 
" clip-path="url(#pe6ba5089eb)" style="fill: none; stroke-dasharray: 2.96,1.28; stroke-dashoffset: 0; stroke: #ffffff; stroke-width: 0.8"/>
     </g>
     <g id="line2d_12">
      <g>
       <use xlink:href="#me0b390c02e" x="515.310721" y="256.68" style="fill: #ffffff; stroke: #ffffff; stroke-width: 0.8"/>
      </g>
     </g>
    </g>
   </g>
   <g id="matplotlib.axis_2">
    <g id="ytick_1">
     <g id="line2d_13">
      <path d="M 103.68 234.098182 
L 518.4 234.098182 
" clip-path="url(#pe6ba5089eb)" style="fill: none; stroke-dasharray: 2.96,1.28; stroke-dashoffset: 0; stroke: #ffffff; stroke-width: 0.8"/>
     </g>
     <g id="line2d_14">
      <defs>
       <path id="m2e0a7cd9b0" d="M 0 0 
L 3.5 0 
" style="stroke: #ffffff; stroke-width: 0.8"/>
      </defs>
      <g>
       <use xlink:href="#m2e0a7cd9b0" x="518.4" y="234.098182" style="fill: #ffffff; stroke: #ffffff; stroke-width: 0.8"/>
      </g>
     </g>
     <g id="text_1">
      <!-- 7.40 -->
      <g style="fill: #ffffff" transform="translate(525.4 237.897401) scale(0.1 -0.1)">
       <defs>
        <path id="DejaVuSans-37" d="M 525 4666 
L 3525 4666 
L 3525 4397 
L 1831 0 
L 1172 0 
L 2766 4134 
L 525 4134 
L 525 4666 
z
" transform="scale(0.015625)"/>
        <path id="DejaVuSans-2e" d="M 684 794 
L 1344 794 
L 1344 0 
L 684 0 
L 684 794 
z
" transform="scale(0.015625)"/>
        <path id="DejaVuSans-34" d="M 2419 4116 
L 825 1625 
L 2419 1625 
L 2419 4116 
z
M 2253 4666 
L 3047 4666 
L 3047 1625 
L 3713 1625 
L 3713 1100 
L 3047 1100 
L 3047 0 
L 2419 0 
L 2419 1100 
L 313 1100 
L 313 1709 
L 2253 4666 
z
" transform="scale(0.015625)"/>
        <path id="DejaVuSans-30" d="M 2034 4250 
Q 1547 4250 1301 3770 
Q 1056 3291 1056 2328 
Q 1056 1369 1301 889 
Q 1547 409 2034 409 
Q 2525 409 2770 889 
Q 3016 1369 3016 2328 
Q 3016 3291 2770 3770 
Q 2525 4250 2034 4250 
z
M 2034 4750 
Q 2819 4750 3233 4129 
Q 3647 3509 3647 2328 
Q 3647 1150 3233 529 
Q 2819 -91 2034 -91 
Q 1250 -91 836 529 
Q 422 1150 422 2328 
Q 422 3509 836 4129 
Q 1250 4750 2034 4750 
z
" transform="scale(0.015625)"/>
       </defs>
       <use xlink:href="#DejaVuSans-37"/>
       <use xlink:href="#DejaVuSans-2e" x="63.623047"/>
       <use xlink:href="#DejaVuSans-34" x="95.410156"/>
       <use xlink:href="#DejaVuSans-30" x="159.033203"/>
      </g>
     </g>
    </g>
    <g id="ytick_2">
     <g id="line2d_15">
      <path d="M 103.68 209.007273 
L 518.4 209.007273 
" clip-path="url(#pe6ba5089eb)" style="fill: none; stroke-dasharray: 2.96,1.28; stroke-dashoffset: 0; stroke: #ffffff; stroke-width: 0.8"/>
     </g>
     <g id="line2d_16">
      <g>
       <use xlink:href="#m2e0a7cd9b0" x="518.4" y="209.007273" style="fill: #ffffff; stroke: #ffffff; stroke-width: 0.8"/>
      </g>
     </g>
     <g id="text_2">
      <!-- 7.42 -->
      <g style="fill: #ffffff" transform="translate(525.4 212.806491) scale(0.1 -0.1)">
       <defs>
        <path id="DejaVuSans-32" d="M 1228 531 
L 3431 531 
L 3431 0 
L 469 0 
L 469 531 
Q 828 903 1448 1529 
Q 2069 2156 2228 2338 
Q 2531 2678 2651 2914 
Q 2772 3150 2772 3378 
Q 2772 3750 2511 3984 
Q 2250 4219 1831 4219 
Q 1534 4219 1204 4116 
Q 875 4013 500 3803 
L 500 4441 
Q 881 4594 1212 4672 
Q 1544 4750 1819 4750 
Q 2544 4750 2975 4387 
Q 3406 4025 3406 3419 
Q 3406 3131 3298 2873 
Q 3191 2616 2906 2266 
Q 2828 2175 2409 1742 
Q 1991 1309 1228 531 
z
" transform="scale(0.015625)"/>
       </defs>
       <use xlink:href="#DejaVuSans-37"/>
       <use xlink:href="#DejaVuSans-2e" x="63.623047"/>
       <use xlink:href="#DejaVuSans-34" x="95.410156"/>
       <use xlink:href="#DejaVuSans-32" x="159.033203"/>
      </g>
     </g>
    </g>
    <g id="ytick_3">
     <g id="line2d_17">
      <path d="M 103.68 183.916364 
L 518.4 183.916364 
" clip-path="url(#pe6ba5089eb)" style="fill: none; stroke-dasharray: 2.96,1.28; stroke-dashoffset: 0; stroke: #ffffff; stroke-width: 0.8"/>
     </g>
     <g id="line2d_18">
      <g>
       <use xlink:href="#m2e0a7cd9b0" x="518.4" y="183.916364" style="fill: #ffffff; stroke: #ffffff; stroke-width: 0.8"/>
      </g>
     </g>
     <g id="text_3">
      <!-- 7.44 -->
      <g style="fill: #ffffff" transform="translate(525.4 187.715582) scale(0.1 -0.1)">
       <use xlink:href="#DejaVuSans-37"/>
       <use xlink:href="#DejaVuSans-2e" x="63.623047"/>
       <use xlink:href="#DejaVuSans-34" x="95.410156"/>
       <use xlink:href="#DejaVuSans-34" x="159.033203"/>
      </g>
     </g>
    </g>
    <g id="ytick_4">
     <g id="line2d_19">
      <path d="M 103.68 158.825455 
L 518.4 158.825455 
" clip-path="url(#pe6ba5089eb)" style="fill: none; stroke-dasharray: 2.96,1.28; stroke-dashoffset: 0; stroke: #ffffff; stroke-width: 0.8"/>
     </g>
     <g id="line2d_20">
      <g>
       <use xlink:href="#m2e0a7cd9b0" x="518.4" y="158.825455" style="fill: #ffffff; stroke: #ffffff; stroke-width: 0.8"/>
      </g>
     </g>
     <g id="text_4">
      <!-- 7.46 -->
      <g style="fill: #ffffff" transform="translate(525.4 162.624673) scale(0.1 -0.1)">
       <defs>
        <path id="DejaVuSans-36" d="M 2113 2584 
Q 1688 2584 1439 2293 
Q 1191 2003 1191 1497 
Q 1191 994 1439 701 
Q 1688 409 2113 409 
Q 2538 409 2786 701 
Q 3034 994 3034 1497 
Q 3034 2003 2786 2293 
Q 2538 2584 2113 2584 
z
M 3366 4563 
L 3366 3988 
Q 3128 4100 2886 4159 
Q 2644 4219 2406 4219 
Q 1781 4219 1451 3797 
Q 1122 3375 1075 2522 
Q 1259 2794 1537 2939 
Q 1816 3084 2150 3084 
Q 2853 3084 3261 2657 
Q 3669 2231 3669 1497 
Q 3669 778 3244 343 
Q 2819 -91 2113 -91 
Q 1303 -91 875 529 
Q 447 1150 447 2328 
Q 447 3434 972 4092 
Q 1497 4750 2381 4750 
Q 2619 4750 2861 4703 
Q 3103 4656 3366 4563 
z
" transform="scale(0.015625)"/>
       </defs>
       <use xlink:href="#DejaVuSans-37"/>
       <use xlink:href="#DejaVuSans-2e" x="63.623047"/>
       <use xlink:href="#DejaVuSans-34" x="95.410156"/>
       <use xlink:href="#DejaVuSans-36" x="159.033203"/>
      </g>
     </g>
    </g>
    <g id="ytick_5">
     <g id="line2d_21">
      <path d="M 103.68 133.734545 
L 518.4 133.734545 
" clip-path="url(#pe6ba5089eb)" style="fill: none; stroke-dasharray: 2.96,1.28; stroke-dashoffset: 0; stroke: #ffffff; stroke-width: 0.8"/>
     </g>
     <g id="line2d_22">
      <g>
       <use xlink:href="#m2e0a7cd9b0" x="518.4" y="133.734545" style="fill: #ffffff; stroke: #ffffff; stroke-width: 0.8"/>
      </g>
     </g>
     <g id="text_5">
      <!-- 7.48 -->
      <g style="fill: #ffffff" transform="translate(525.4 137.533764) scale(0.1 -0.1)">
       <defs>
        <path id="DejaVuSans-38" d="M 2034 2216 
Q 1584 2216 1326 1975 
Q 1069 1734 1069 1313 
Q 1069 891 1326 650 
Q 1584 409 2034 409 
Q 2484 409 2743 651 
Q 3003 894 3003 1313 
Q 3003 1734 2745 1975 
Q 2488 2216 2034 2216 
z
M 1403 2484 
Q 997 2584 770 2862 
Q 544 3141 544 3541 
Q 544 4100 942 4425 
Q 1341 4750 2034 4750 
Q 2731 4750 3128 4425 
Q 3525 4100 3525 3541 
Q 3525 3141 3298 2862 
Q 3072 2584 2669 2484 
Q 3125 2378 3379 2068 
Q 3634 1759 3634 1313 
Q 3634 634 3220 271 
Q 2806 -91 2034 -91 
Q 1263 -91 848 271 
Q 434 634 434 1313 
Q 434 1759 690 2068 
Q 947 2378 1403 2484 
z
M 1172 3481 
Q 1172 3119 1398 2916 
Q 1625 2713 2034 2713 
Q 2441 2713 2670 2916 
Q 2900 3119 2900 3481 
Q 2900 3844 2670 4047 
Q 2441 4250 2034 4250 
Q 1625 4250 1398 4047 
Q 1172 3844 1172 3481 
z
" transform="scale(0.015625)"/>
       </defs>
       <use xlink:href="#DejaVuSans-37"/>
       <use xlink:href="#DejaVuSans-2e" x="63.623047"/>
       <use xlink:href="#DejaVuSans-34" x="95.410156"/>
       <use xlink:href="#DejaVuSans-38" x="159.033203"/>
      </g>
     </g>
    </g>
    <g id="ytick_6">
     <g id="line2d_23">
      <path d="M 103.68 108.643636 
L 518.4 108.643636 
" clip-path="url(#pe6ba5089eb)" style="fill: none; stroke-dasharray: 2.96,1.28; stroke-dashoffset: 0; stroke: #ffffff; stroke-width: 0.8"/>
     </g>
     <g id="line2d_24">
      <g>
       <use xlink:href="#m2e0a7cd9b0" x="518.4" y="108.643636" style="fill: #ffffff; stroke: #ffffff; stroke-width: 0.8"/>
      </g>
     </g>
     <g id="text_6">
      <!-- 7.50 -->
      <g style="fill: #ffffff" transform="translate(525.4 112.442855) scale(0.1 -0.1)">
       <defs>
        <path id="DejaVuSans-35" d="M 691 4666 
L 3169 4666 
L 3169 4134 
L 1269 4134 
L 1269 2991 
Q 1406 3038 1543 3061 
Q 1681 3084 1819 3084 
Q 2600 3084 3056 2656 
Q 3513 2228 3513 1497 
Q 3513 744 3044 326 
Q 2575 -91 1722 -91 
Q 1428 -91 1123 -41 
Q 819 9 494 109 
L 494 744 
Q 775 591 1075 516 
Q 1375 441 1709 441 
Q 2250 441 2565 725 
Q 2881 1009 2881 1497 
Q 2881 1984 2565 2268 
Q 2250 2553 1709 2553 
Q 1456 2553 1204 2497 
Q 953 2441 691 2322 
L 691 4666 
z
" transform="scale(0.015625)"/>
       </defs>
       <use xlink:href="#DejaVuSans-37"/>
       <use xlink:href="#DejaVuSans-2e" x="63.623047"/>
       <use xlink:href="#DejaVuSans-35" x="95.410156"/>
       <use xlink:href="#DejaVuSans-30" x="159.033203"/>
      </g>
     </g>
    </g>
    <g id="ytick_7">
     <g id="line2d_25">
      <path d="M 103.68 83.552727 
L 518.4 83.552727 
" clip-path="url(#pe6ba5089eb)" style="fill: none; stroke-dasharray: 2.96,1.28; stroke-dashoffset: 0; stroke: #ffffff; stroke-width: 0.8"/>
     </g>
     <g id="line2d_26">
      <g>
       <use xlink:href="#m2e0a7cd9b0" x="518.4" y="83.552727" style="fill: #ffffff; stroke: #ffffff; stroke-width: 0.8"/>
      </g>
     </g>
     <g id="text_7">
      <!-- 7.52 -->
      <g style="fill: #ffffff" transform="translate(525.4 87.351946) scale(0.1 -0.1)">
       <use xlink:href="#DejaVuSans-37"/>
       <use xlink:href="#DejaVuSans-2e" x="63.623047"/>
       <use xlink:href="#DejaVuSans-35" x="95.410156"/>
       <use xlink:href="#DejaVuSans-32" x="159.033203"/>
      </g>
     </g>
    </g>
    <g id="ytick_8">
     <g id="line2d_27">
      <path d="M 103.68 58.461818 
L 518.4 58.461818 
" clip-path="url(#pe6ba5089eb)" style="fill: none; stroke-dasharray: 2.96,1.28; stroke-dashoffset: 0; stroke: #ffffff; stroke-width: 0.8"/>
     </g>
     <g id="line2d_28">
      <g>
       <use xlink:href="#m2e0a7cd9b0" x="518.4" y="58.461818" style="fill: #ffffff; stroke: #ffffff; stroke-width: 0.8"/>
      </g>
     </g>
     <g id="text_8">
      <!-- 7.54 -->
      <g style="fill: #ffffff" transform="translate(525.4 62.261037) scale(0.1 -0.1)">
       <use xlink:href="#DejaVuSans-37"/>
       <use xlink:href="#DejaVuSans-2e" x="63.623047"/>
       <use xlink:href="#DejaVuSans-35" x="95.410156"/>
       <use xlink:href="#DejaVuSans-34" x="159.033203"/>
      </g>
     </g>
    </g>
    <g id="text_9">
     <!-- Price -->
     <g style="fill: #ffffff" transform="translate(559.264063 165.377656) rotate(-90) scale(0.1 -0.1)">
      <defs>
       <path id="DejaVuSans-50" d="M 1259 4147 
L 1259 2394 
L 2053 2394 
Q 2494 2394 2734 2622 
Q 2975 2850 2975 3272 
Q 2975 3691 2734 3919 
Q 2494 4147 2053 4147 
L 1259 4147 
z
M 628 4666 
L 2053 4666 
Q 2838 4666 3239 4311 
Q 3641 3956 3641 3272 
Q 3641 2581 3239 2228 
Q 2838 1875 2053 1875 
L 1259 1875 
L 1259 0 
L 628 0 
L 628 4666 
z
" transform="scale(0.015625)"/>
       <path id="DejaVuSans-72" d="M 2631 2963 
Q 2534 3019 2420 3045 
Q 2306 3072 2169 3072 
Q 1681 3072 1420 2755 
Q 1159 2438 1159 1844 
L 1159 0 
L 581 0 
L 581 3500 
L 1159 3500 
L 1159 2956 
Q 1341 3275 1631 3429 
Q 1922 3584 2338 3584 
Q 2397 3584 2469 3576 
Q 2541 3569 2628 3553 
L 2631 2963 
z
" transform="scale(0.015625)"/>
       <path id="DejaVuSans-69" d="M 603 3500 
L 1178 3500 
L 1178 0 
L 603 0 
L 603 3500 
z
M 603 4863 
L 1178 4863 
L 1178 4134 
L 603 4134 
L 603 4863 
z
" transform="scale(0.015625)"/>
       <path id="DejaVuSans-63" d="M 3122 3366 
L 3122 2828 
Q 2878 2963 2633 3030 
Q 2388 3097 2138 3097 
Q 1578 3097 1268 2742 
Q 959 2388 959 1747 
Q 959 1106 1268 751 
Q 1578 397 2138 397 
Q 2388 397 2633 464 
Q 2878 531 3122 666 
L 3122 134 
Q 2881 22 2623 -34 
Q 2366 -91 2075 -91 
Q 1284 -91 818 406 
Q 353 903 353 1747 
Q 353 2603 823 3093 
Q 1294 3584 2113 3584 
Q 2378 3584 2631 3529 
Q 2884 3475 3122 3366 
z
" transform="scale(0.015625)"/>
       <path id="DejaVuSans-65" d="M 3597 1894 
L 3597 1613 
L 953 1613 
Q 991 1019 1311 708 
Q 1631 397 2203 397 
Q 2534 397 2845 478 
Q 3156 559 3463 722 
L 3463 178 
Q 3153 47 2828 -22 
Q 2503 -91 2169 -91 
Q 1331 -91 842 396 
Q 353 884 353 1716 
Q 353 2575 817 3079 
Q 1281 3584 2069 3584 
Q 2775 3584 3186 3129 
Q 3597 2675 3597 1894 
z
M 3022 2063 
Q 3016 2534 2758 2815 
Q 2500 3097 2075 3097 
Q 1594 3097 1305 2825 
Q 1016 2553 972 2059 
L 3022 2063 
z
" transform="scale(0.015625)"/>
      </defs>
      <use xlink:href="#DejaVuSans-50"/>
      <use xlink:href="#DejaVuSans-72" x="58.552734"/>
      <use xlink:href="#DejaVuSans-69" x="99.666016"/>
      <use xlink:href="#DejaVuSans-63" x="127.449219"/>
      <use xlink:href="#DejaVuSans-65" x="182.429688"/>
     </g>
    </g>
   </g>
   <g id="PolyCollection_1">
    <path d="M 132.11398 180.78 
L 132.11398 79.161818 
L 141.949237 79.161818 
L 141.949237 180.78 
z
" clip-path="url(#pe6ba5089eb)" style="fill: #3dc985; stroke: #3dc985"/>
    <path d="M 147.245144 79.161818 
L 147.245144 119.307273 
L 157.080401 119.307273 
L 157.080401 79.161818 
z
" clip-path="url(#pe6ba5089eb)" style="fill: #ef4f60; stroke: #ef4f60"/>
    <path d="M 162.376309 119.934545 
L 162.376309 133.107273 
L 172.211566 133.107273 
L 172.211566 119.934545 
z
" clip-path="url(#pe6ba5089eb)" style="fill: #ef4f60; stroke: #ef4f60"/>
    <path d="M 177.507473 133.107273 
L 177.507473 105.507273 
L 187.34273 105.507273 
L 187.34273 133.107273 
z
" clip-path="url(#pe6ba5089eb)" style="fill: #3dc985; stroke: #3dc985"/>
    <path d="M 192.638638 105.507273 
L 192.638638 128.089091 
L 202.473895 128.089091 
L 202.473895 105.507273 
z
" clip-path="url(#pe6ba5089eb)" style="fill: #ef4f60; stroke: #ef4f60"/>
    <path d="M 207.769802 128.089091 
L 207.769802 97.98 
L 217.605059 97.98 
L 217.605059 128.089091 
z
" clip-path="url(#pe6ba5089eb)" style="fill: #3dc985; stroke: #3dc985"/>
    <path d="M 222.900967 97.98 
L 222.900967 115.543636 
L 232.736224 115.543636 
L 232.736224 97.98 
z
" clip-path="url(#pe6ba5089eb)" style="fill: #ef4f60; stroke: #ef4f60"/>
    <path d="M 238.032131 115.543636 
L 238.032131 123.070909 
L 247.867388 123.070909 
L 247.867388 115.543636 
z
" clip-path="url(#pe6ba5089eb)" style="fill: #ef4f60; stroke: #ef4f60"/>
    <path d="M 253.163296 122.443636 
L 253.163296 79.161818 
L 262.998553 79.161818 
L 262.998553 122.443636 
z
" clip-path="url(#pe6ba5089eb)" style="fill: #3dc985; stroke: #3dc985"/>
    <path d="M 268.29446 79.161818 
L 268.29446 105.507273 
L 278.129717 105.507273 
L 278.129717 79.161818 
z
" clip-path="url(#pe6ba5089eb)" style="fill: #ef4f60; stroke: #ef4f60"/>
    <path d="M 283.425625 105.507273 
L 283.425625 133.107273 
L 293.260882 133.107273 
L 293.260882 105.507273 
z
" clip-path="url(#pe6ba5089eb)" style="fill: #ef4f60; stroke: #ef4f60"/>
    <path d="M 298.556789 133.107273 
L 298.556789 156.316364 
L 308.392046 156.316364 
L 308.392046 133.107273 
z
" clip-path="url(#pe6ba5089eb)" style="fill: #ef4f60; stroke: #ef4f60"/>
    <path d="M 313.687954 156.316364 
L 313.687954 195.207273 
L 323.523211 195.207273 
L 323.523211 156.316364 
z
" clip-path="url(#pe6ba5089eb)" style="fill: #ef4f60; stroke: #ef4f60"/>
    <path d="M 328.819118 195.207273 
L 328.819118 229.08 
L 338.654375 229.08 
L 338.654375 195.207273 
z
" clip-path="url(#pe6ba5089eb)" style="fill: #ef4f60; stroke: #ef4f60"/>
    <path d="M 343.950283 229.08 
L 343.950283 195.834545 
L 353.78554 195.834545 
L 353.78554 229.08 
z
" clip-path="url(#pe6ba5089eb)" style="fill: #3dc985; stroke: #3dc985"/>
    <path d="M 359.081447 195.834545 
L 359.081447 203.989091 
L 368.916704 203.989091 
L 368.916704 195.834545 
z
" clip-path="url(#pe6ba5089eb)" style="fill: #ef4f60; stroke: #ef4f60"/>
    <path d="M 374.212612 204.616364 
L 374.212612 223.434545 
L 384.047869 223.434545 
L 384.047869 204.616364 
z
" clip-path="url(#pe6ba5089eb)" style="fill: #ef4f60; stroke: #ef4f60"/>
    <path d="M 389.343776 223.434545 
L 389.343776 191.443636 
L 399.179033 191.443636 
L 399.179033 223.434545 
z
" clip-path="url(#pe6ba5089eb)" style="fill: #3dc985; stroke: #3dc985"/>
    <path d="M 404.474941 191.443636 
L 404.474941 197.089091 
L 414.310198 197.089091 
L 414.310198 191.443636 
z
" clip-path="url(#pe6ba5089eb)" style="fill: #ef4f60; stroke: #ef4f60"/>
    <path d="M 419.606105 197.089091 
L 419.606105 207.752727 
L 429.441362 207.752727 
L 429.441362 197.089091 
z
" clip-path="url(#pe6ba5089eb)" style="fill: #ef4f60; stroke: #ef4f60"/>
    <path d="M 434.73727 207.752727 
L 434.73727 208.38 
L 444.572527 208.38 
L 444.572527 207.752727 
z
" clip-path="url(#pe6ba5089eb)" style="fill: #ef4f60; stroke: #ef4f60"/>
    <path d="M 449.868434 208.38 
L 449.868434 224.689091 
L 459.703691 224.689091 
L 459.703691 208.38 
z
" clip-path="url(#pe6ba5089eb)" style="fill: #ef4f60; stroke: #ef4f60"/>
    <path d="M 464.999599 224.689091 
L 464.999599 214.652727 
L 474.834856 214.652727 
L 474.834856 224.689091 
z
" clip-path="url(#pe6ba5089eb)" style="fill: #3dc985; stroke: #3dc985"/>
    <path d="M 480.130763 214.652727 
L 480.130763 189.561818 
L 489.96602 189.561818 
L 489.96602 214.652727 
z
" clip-path="url(#pe6ba5089eb)" style="fill: #3dc985; stroke: #3dc985"/>
   </g>
   <g id="LineCollection_1">
    <path d="M 137.031608 199.598182 
L 137.031608 180.78 
" clip-path="url(#pe6ba5089eb)" style="fill: none; stroke: #3dc985"/>
    <path d="M 152.162773 180.152727 
L 152.162773 119.307273 
" clip-path="url(#pe6ba5089eb)" style="fill: none; stroke: #ef4f60"/>
    <path d="M 167.293937 149.416364 
L 167.293937 133.107273 
" clip-path="url(#pe6ba5089eb)" style="fill: none; stroke: #ef4f60"/>
    <path d="M 182.425102 134.361818 
L 182.425102 133.107273 
" clip-path="url(#pe6ba5089eb)" style="fill: none; stroke: #3dc985"/>
    <path d="M 197.556266 136.243636 
L 197.556266 128.089091 
" clip-path="url(#pe6ba5089eb)" style="fill: none; stroke: #ef4f60"/>
    <path d="M 212.687431 135.616364 
L 212.687431 128.089091 
" clip-path="url(#pe6ba5089eb)" style="fill: none; stroke: #3dc985"/>
    <path d="M 227.818595 128.089091 
L 227.818595 115.543636 
" clip-path="url(#pe6ba5089eb)" style="fill: none; stroke: #ef4f60"/>
    <path d="M 242.94976 140.634545 
L 242.94976 123.070909 
" clip-path="url(#pe6ba5089eb)" style="fill: none; stroke: #ef4f60"/>
    <path d="M 258.080924 126.834545 
L 258.080924 122.443636 
" clip-path="url(#pe6ba5089eb)" style="fill: none; stroke: #3dc985"/>
    <path d="M 273.212089 133.107273 
L 273.212089 105.507273 
" clip-path="url(#pe6ba5089eb)" style="fill: none; stroke: #ef4f60"/>
    <path d="M 288.343253 158.198182 
L 288.343253 133.107273 
" clip-path="url(#pe6ba5089eb)" style="fill: none; stroke: #ef4f60"/>
    <path d="M 303.474418 158.198182 
L 303.474418 156.316364 
" clip-path="url(#pe6ba5089eb)" style="fill: none; stroke: #ef4f60"/>
    <path d="M 318.605582 203.361818 
L 318.605582 195.207273 
" clip-path="url(#pe6ba5089eb)" style="fill: none; stroke: #ef4f60"/>
    <path d="M 333.736747 246.016364 
L 333.736747 229.08 
" clip-path="url(#pe6ba5089eb)" style="fill: none; stroke: #ef4f60"/>
    <path d="M 348.867911 247.270909 
L 348.867911 229.08 
" clip-path="url(#pe6ba5089eb)" style="fill: none; stroke: #3dc985"/>
    <path d="M 363.999076 207.125455 
L 363.999076 203.989091 
" clip-path="url(#pe6ba5089eb)" style="fill: none; stroke: #ef4f60"/>
    <path d="M 379.13024 224.689091 
L 379.13024 223.434545 
" clip-path="url(#pe6ba5089eb)" style="fill: none; stroke: #ef4f60"/>
    <path d="M 394.261405 224.689091 
L 394.261405 223.434545 
" clip-path="url(#pe6ba5089eb)" style="fill: none; stroke: #3dc985"/>
    <path d="M 409.392569 198.343636 
L 409.392569 197.089091 
" clip-path="url(#pe6ba5089eb)" style="fill: none; stroke: #ef4f60"/>
    <path d="M 424.523734 220.925455 
L 424.523734 207.752727 
" clip-path="url(#pe6ba5089eb)" style="fill: none; stroke: #ef4f60"/>
    <path d="M 439.654898 224.061818 
L 439.654898 208.38 
" clip-path="url(#pe6ba5089eb)" style="fill: none; stroke: #ef4f60"/>
    <path d="M 454.786063 246.016364 
L 454.786063 224.689091 
" clip-path="url(#pe6ba5089eb)" style="fill: none; stroke: #ef4f60"/>
    <path d="M 469.917227 234.098182 
L 469.917227 224.689091 
" clip-path="url(#pe6ba5089eb)" style="fill: none; stroke: #3dc985"/>
    <path d="M 485.048392 226.570909 
L 485.048392 214.652727 
" clip-path="url(#pe6ba5089eb)" style="fill: none; stroke: #3dc985"/>
    <path d="M 137.031608 66.616364 
L 137.031608 79.161818 
" clip-path="url(#pe6ba5089eb)" style="fill: none; stroke: #3dc985"/>
    <path d="M 152.162773 62.225455 
L 152.162773 79.161818 
" clip-path="url(#pe6ba5089eb)" style="fill: none; stroke: #ef4f60"/>
    <path d="M 167.293937 113.034545 
L 167.293937 119.934545 
" clip-path="url(#pe6ba5089eb)" style="fill: none; stroke: #ef4f60"/>
    <path d="M 182.425102 76.652727 
L 182.425102 105.507273 
" clip-path="url(#pe6ba5089eb)" style="fill: none; stroke: #3dc985"/>
    <path d="M 197.556266 91.707273 
L 197.556266 105.507273 
" clip-path="url(#pe6ba5089eb)" style="fill: none; stroke: #ef4f60"/>
    <path d="M 212.687431 87.316364 
L 212.687431 97.98 
" clip-path="url(#pe6ba5089eb)" style="fill: none; stroke: #3dc985"/>
    <path d="M 227.818595 90.452727 
L 227.818595 97.98 
" clip-path="url(#pe6ba5089eb)" style="fill: none; stroke: #ef4f60"/>
    <path d="M 242.94976 96.725455 
L 242.94976 115.543636 
" clip-path="url(#pe6ba5089eb)" style="fill: none; stroke: #ef4f60"/>
    <path d="M 258.080924 59.089091 
L 258.080924 79.161818 
" clip-path="url(#pe6ba5089eb)" style="fill: none; stroke: #3dc985"/>
    <path d="M 273.212089 79.161818 
L 273.212089 79.161818 
" clip-path="url(#pe6ba5089eb)" style="fill: none; stroke: #ef4f60"/>
    <path d="M 288.343253 99.234545 
L 288.343253 105.507273 
" clip-path="url(#pe6ba5089eb)" style="fill: none; stroke: #ef4f60"/>
    <path d="M 303.474418 128.089091 
L 303.474418 133.107273 
" clip-path="url(#pe6ba5089eb)" style="fill: none; stroke: #ef4f60"/>
    <path d="M 318.605582 143.143636 
L 318.605582 156.316364 
" clip-path="url(#pe6ba5089eb)" style="fill: none; stroke: #ef4f60"/>
    <path d="M 333.736747 180.152727 
L 333.736747 195.207273 
" clip-path="url(#pe6ba5089eb)" style="fill: none; stroke: #ef4f60"/>
    <path d="M 348.867911 166.98 
L 348.867911 195.834545 
" clip-path="url(#pe6ba5089eb)" style="fill: none; stroke: #3dc985"/>
    <path d="M 363.999076 171.998182 
L 363.999076 195.834545 
" clip-path="url(#pe6ba5089eb)" style="fill: none; stroke: #ef4f60"/>
    <path d="M 379.13024 175.761818 
L 379.13024 204.616364 
" clip-path="url(#pe6ba5089eb)" style="fill: none; stroke: #ef4f60"/>
    <path d="M 394.261405 172.625455 
L 394.261405 191.443636 
" clip-path="url(#pe6ba5089eb)" style="fill: none; stroke: #3dc985"/>
    <path d="M 409.392569 177.643636 
L 409.392569 191.443636 
" clip-path="url(#pe6ba5089eb)" style="fill: none; stroke: #ef4f60"/>
    <path d="M 424.523734 194.58 
L 424.523734 197.089091 
" clip-path="url(#pe6ba5089eb)" style="fill: none; stroke: #ef4f60"/>
    <path d="M 439.654898 183.916364 
L 439.654898 207.752727 
" clip-path="url(#pe6ba5089eb)" style="fill: none; stroke: #ef4f60"/>
    <path d="M 454.786063 204.616364 
L 454.786063 208.38 
" clip-path="url(#pe6ba5089eb)" style="fill: none; stroke: #ef4f60"/>
    <path d="M 469.917227 183.916364 
L 469.917227 214.652727 
" clip-path="url(#pe6ba5089eb)" style="fill: none; stroke: #3dc985"/>
    <path d="M 485.048392 185.798182 
L 485.048392 189.561818 
" clip-path="url(#pe6ba5089eb)" style="fill: none; stroke: #3dc985"/>
   </g>
   <g id="patch_3">
    <path d="M 103.68 256.68 
L 103.68 49.68 
" style="fill: none; stroke: #474d56; stroke-width: 0.8; stroke-linejoin: miter; stroke-linecap: square"/>
   </g>
   <g id="patch_4">
    <path d="M 518.4 256.68 
L 518.4 49.68 
" style="fill: none; stroke: #474d56; stroke-width: 0.8; stroke-linejoin: miter; stroke-linecap: square"/>
   </g>
   <g id="patch_5">
    <path d="M 103.68 256.68 
L 518.4 256.68 
" style="fill: none; stroke: #474d56; stroke-width: 0.8; stroke-linejoin: miter; stroke-linecap: square"/>
   </g>
   <g id="patch_6">
    <path d="M 103.68 49.68 
L 518.4 49.68 
" style="fill: none; stroke: #474d56; stroke-width: 0.8; stroke-linejoin: miter; stroke-linecap: square"/>
   </g>
  </g>
  <g id="axes_2">
   <g id="patch_7">
    <path d="M 103.68 339.48 
L 518.4 339.48 
L 518.4 256.68 
L 103.68 256.68 
z
"/>
   </g>
   <g id="matplotlib.axis_3">
    <g id="xtick_7">
     <g id="line2d_29">
      <path d="M 137.031608 339.48 
L 137.031608 256.68 
" clip-path="url(#pc5154fb301)" style="fill: none; stroke-dasharray: 2.96,1.28; stroke-dashoffset: 0; stroke: #ffffff; stroke-width: 0.8"/>
     </g>
     <g id="line2d_30">
      <g>
       <use xlink:href="#me0b390c02e" x="137.031608" y="339.48" style="fill: #ffffff; stroke: #ffffff; stroke-width: 0.8"/>
      </g>
     </g>
     <g id="text_10">
      <!-- 00:00 -->
      <g style="fill: #ffffff" transform="translate(128.793814 372.23084) rotate(-45) scale(0.1 -0.1)">
       <defs>
        <path id="DejaVuSans-3a" d="M 750 794 
L 1409 794 
L 1409 0 
L 750 0 
L 750 794 
z
M 750 3309 
L 1409 3309 
L 1409 2516 
L 750 2516 
L 750 3309 
z
" transform="scale(0.015625)"/>
       </defs>
       <use xlink:href="#DejaVuSans-30"/>
       <use xlink:href="#DejaVuSans-30" x="63.623047"/>
       <use xlink:href="#DejaVuSans-3a" x="127.246094"/>
       <use xlink:href="#DejaVuSans-30" x="160.9375"/>
       <use xlink:href="#DejaVuSans-30" x="224.560547"/>
      </g>
     </g>
    </g>
    <g id="xtick_8">
     <g id="line2d_31">
      <path d="M 212.687431 339.48 
L 212.687431 256.68 
" clip-path="url(#pc5154fb301)" style="fill: none; stroke-dasharray: 2.96,1.28; stroke-dashoffset: 0; stroke: #ffffff; stroke-width: 0.8"/>
     </g>
     <g id="line2d_32">
      <g>
       <use xlink:href="#me0b390c02e" x="212.687431" y="339.48" style="fill: #ffffff; stroke: #ffffff; stroke-width: 0.8"/>
      </g>
     </g>
     <g id="text_11">
      <!-- 05:00 -->
      <g style="fill: #ffffff" transform="translate(204.449637 372.23084) rotate(-45) scale(0.1 -0.1)">
       <use xlink:href="#DejaVuSans-30"/>
       <use xlink:href="#DejaVuSans-35" x="63.623047"/>
       <use xlink:href="#DejaVuSans-3a" x="127.246094"/>
       <use xlink:href="#DejaVuSans-30" x="160.9375"/>
       <use xlink:href="#DejaVuSans-30" x="224.560547"/>
      </g>
     </g>
    </g>
    <g id="xtick_9">
     <g id="line2d_33">
      <path d="M 288.343253 339.48 
L 288.343253 256.68 
" clip-path="url(#pc5154fb301)" style="fill: none; stroke-dasharray: 2.96,1.28; stroke-dashoffset: 0; stroke: #ffffff; stroke-width: 0.8"/>
     </g>
     <g id="line2d_34">
      <g>
       <use xlink:href="#me0b390c02e" x="288.343253" y="339.48" style="fill: #ffffff; stroke: #ffffff; stroke-width: 0.8"/>
      </g>
     </g>
     <g id="text_12">
      <!-- 10:00 -->
      <g style="fill: #ffffff" transform="translate(280.105459 372.23084) rotate(-45) scale(0.1 -0.1)">
       <defs>
        <path id="DejaVuSans-31" d="M 794 531 
L 1825 531 
L 1825 4091 
L 703 3866 
L 703 4441 
L 1819 4666 
L 2450 4666 
L 2450 531 
L 3481 531 
L 3481 0 
L 794 0 
L 794 531 
z
" transform="scale(0.015625)"/>
       </defs>
       <use xlink:href="#DejaVuSans-31"/>
       <use xlink:href="#DejaVuSans-30" x="63.623047"/>
       <use xlink:href="#DejaVuSans-3a" x="127.246094"/>
       <use xlink:href="#DejaVuSans-30" x="160.9375"/>
       <use xlink:href="#DejaVuSans-30" x="224.560547"/>
      </g>
     </g>
    </g>
    <g id="xtick_10">
     <g id="line2d_35">
      <path d="M 363.999076 339.48 
L 363.999076 256.68 
" clip-path="url(#pc5154fb301)" style="fill: none; stroke-dasharray: 2.96,1.28; stroke-dashoffset: 0; stroke: #ffffff; stroke-width: 0.8"/>
     </g>
     <g id="line2d_36">
      <g>
       <use xlink:href="#me0b390c02e" x="363.999076" y="339.48" style="fill: #ffffff; stroke: #ffffff; stroke-width: 0.8"/>
      </g>
     </g>
     <g id="text_13">
      <!-- 15:00 -->
      <g style="fill: #ffffff" transform="translate(355.761282 372.23084) rotate(-45) scale(0.1 -0.1)">
       <use xlink:href="#DejaVuSans-31"/>
       <use xlink:href="#DejaVuSans-35" x="63.623047"/>
       <use xlink:href="#DejaVuSans-3a" x="127.246094"/>
       <use xlink:href="#DejaVuSans-30" x="160.9375"/>
       <use xlink:href="#DejaVuSans-30" x="224.560547"/>
      </g>
     </g>
    </g>
    <g id="xtick_11">
     <g id="line2d_37">
      <path d="M 439.654898 339.48 
L 439.654898 256.68 
" clip-path="url(#pc5154fb301)" style="fill: none; stroke-dasharray: 2.96,1.28; stroke-dashoffset: 0; stroke: #ffffff; stroke-width: 0.8"/>
     </g>
     <g id="line2d_38">
      <g>
       <use xlink:href="#me0b390c02e" x="439.654898" y="339.48" style="fill: #ffffff; stroke: #ffffff; stroke-width: 0.8"/>
      </g>
     </g>
     <g id="text_14">
      <!-- 20:00 -->
      <g style="fill: #ffffff" transform="translate(431.417104 372.23084) rotate(-45) scale(0.1 -0.1)">
       <use xlink:href="#DejaVuSans-32"/>
       <use xlink:href="#DejaVuSans-30" x="63.623047"/>
       <use xlink:href="#DejaVuSans-3a" x="127.246094"/>
       <use xlink:href="#DejaVuSans-30" x="160.9375"/>
       <use xlink:href="#DejaVuSans-30" x="224.560547"/>
      </g>
     </g>
    </g>
    <g id="xtick_12">
     <g id="line2d_39">
      <path d="M 515.310721 339.48 
L 515.310721 256.68 
" clip-path="url(#pc5154fb301)" style="fill: none; stroke-dasharray: 2.96,1.28; stroke-dashoffset: 0; stroke: #ffffff; stroke-width: 0.8"/>
     </g>
     <g id="line2d_40">
      <g>
       <use xlink:href="#me0b390c02e" x="515.310721" y="339.48" style="fill: #ffffff; stroke: #ffffff; stroke-width: 0.8"/>
      </g>
     </g>
    </g>
   </g>
   <g id="matplotlib.axis_4">
    <g id="ytick_9">
     <g id="line2d_41">
      <path d="M 103.68 311.051214 
L 518.4 311.051214 
" clip-path="url(#pc5154fb301)" style="fill: none; stroke-dasharray: 2.96,1.28; stroke-dashoffset: 0; stroke: #ffffff; stroke-width: 0.8"/>
     </g>
     <g id="line2d_42">
      <g>
       <use xlink:href="#m2e0a7cd9b0" x="518.4" y="311.051214" style="fill: #ffffff; stroke: #ffffff; stroke-width: 0.8"/>
      </g>
     </g>
     <g id="text_15">
      <!-- 10000 -->
      <g style="fill: #ffffff" transform="translate(525.4 314.850433) scale(0.1 -0.1)">
       <use xlink:href="#DejaVuSans-31"/>
       <use xlink:href="#DejaVuSans-30" x="63.623047"/>
       <use xlink:href="#DejaVuSans-30" x="127.246094"/>
       <use xlink:href="#DejaVuSans-30" x="190.869141"/>
       <use xlink:href="#DejaVuSans-30" x="254.492188"/>
      </g>
     </g>
    </g>
    <g id="ytick_10">
     <g id="line2d_43">
      <path d="M 103.68 275.445356 
L 518.4 275.445356 
" clip-path="url(#pc5154fb301)" style="fill: none; stroke-dasharray: 2.96,1.28; stroke-dashoffset: 0; stroke: #ffffff; stroke-width: 0.8"/>
     </g>
     <g id="line2d_44">
      <g>
       <use xlink:href="#m2e0a7cd9b0" x="518.4" y="275.445356" style="fill: #ffffff; stroke: #ffffff; stroke-width: 0.8"/>
      </g>
     </g>
     <g id="text_16">
      <!-- 20000 -->
      <g style="fill: #ffffff" transform="translate(525.4 279.244574) scale(0.1 -0.1)">
       <use xlink:href="#DejaVuSans-32"/>
       <use xlink:href="#DejaVuSans-30" x="63.623047"/>
       <use xlink:href="#DejaVuSans-30" x="127.246094"/>
       <use xlink:href="#DejaVuSans-30" x="190.869141"/>
       <use xlink:href="#DejaVuSans-30" x="254.492188"/>
      </g>
     </g>
    </g>
    <g id="text_17">
     <!-- Volume -->
     <g style="fill: #ffffff" transform="translate(568.810938 316.676875) rotate(-90) scale(0.1 -0.1)">
      <defs>
       <path id="DejaVuSans-56" d="M 1831 0 
L 50 4666 
L 709 4666 
L 2188 738 
L 3669 4666 
L 4325 4666 
L 2547 0 
L 1831 0 
z
" transform="scale(0.015625)"/>
       <path id="DejaVuSans-6f" d="M 1959 3097 
Q 1497 3097 1228 2736 
Q 959 2375 959 1747 
Q 959 1119 1226 758 
Q 1494 397 1959 397 
Q 2419 397 2687 759 
Q 2956 1122 2956 1747 
Q 2956 2369 2687 2733 
Q 2419 3097 1959 3097 
z
M 1959 3584 
Q 2709 3584 3137 3096 
Q 3566 2609 3566 1747 
Q 3566 888 3137 398 
Q 2709 -91 1959 -91 
Q 1206 -91 779 398 
Q 353 888 353 1747 
Q 353 2609 779 3096 
Q 1206 3584 1959 3584 
z
" transform="scale(0.015625)"/>
       <path id="DejaVuSans-6c" d="M 603 4863 
L 1178 4863 
L 1178 0 
L 603 0 
L 603 4863 
z
" transform="scale(0.015625)"/>
       <path id="DejaVuSans-75" d="M 544 1381 
L 544 3500 
L 1119 3500 
L 1119 1403 
Q 1119 906 1312 657 
Q 1506 409 1894 409 
Q 2359 409 2629 706 
Q 2900 1003 2900 1516 
L 2900 3500 
L 3475 3500 
L 3475 0 
L 2900 0 
L 2900 538 
Q 2691 219 2414 64 
Q 2138 -91 1772 -91 
Q 1169 -91 856 284 
Q 544 659 544 1381 
z
M 1991 3584 
L 1991 3584 
z
" transform="scale(0.015625)"/>
       <path id="DejaVuSans-6d" d="M 3328 2828 
Q 3544 3216 3844 3400 
Q 4144 3584 4550 3584 
Q 5097 3584 5394 3201 
Q 5691 2819 5691 2113 
L 5691 0 
L 5113 0 
L 5113 2094 
Q 5113 2597 4934 2840 
Q 4756 3084 4391 3084 
Q 3944 3084 3684 2787 
Q 3425 2491 3425 1978 
L 3425 0 
L 2847 0 
L 2847 2094 
Q 2847 2600 2669 2842 
Q 2491 3084 2119 3084 
Q 1678 3084 1418 2786 
Q 1159 2488 1159 1978 
L 1159 0 
L 581 0 
L 581 3500 
L 1159 3500 
L 1159 2956 
Q 1356 3278 1631 3431 
Q 1906 3584 2284 3584 
Q 2666 3584 2933 3390 
Q 3200 3197 3328 2828 
z
" transform="scale(0.015625)"/>
      </defs>
      <use xlink:href="#DejaVuSans-56"/>
      <use xlink:href="#DejaVuSans-6f" x="60.658203"/>
      <use xlink:href="#DejaVuSans-6c" x="121.839844"/>
      <use xlink:href="#DejaVuSans-75" x="149.623047"/>
      <use xlink:href="#DejaVuSans-6d" x="213.001953"/>
      <use xlink:href="#DejaVuSans-65" x="310.414062"/>
     </g>
    </g>
   </g>
   <g id="patch_8">
    <path d="M 129.617338 346.657073 
L 144.445879 346.657073 
L 144.445879 270.837958 
L 129.617338 270.837958 
z
" clip-path="url(#pc5154fb301)" style="fill: #247252; stroke: #20674a; stroke-width: 0.65; stroke-linejoin: miter"/>
   </g>
   <g id="patch_9">
    <path d="M 144.748502 346.657073 
L 159.577043 346.657073 
L 159.577043 292.034125 
L 144.748502 292.034125 
z
" clip-path="url(#pc5154fb301)" style="fill: #82333f; stroke: #752e39; stroke-width: 0.65; stroke-linejoin: miter"/>
   </g>
   <g id="patch_10">
    <path d="M 159.879667 346.657073 
L 174.708208 346.657073 
L 174.708208 307.49775 
L 159.879667 307.49775 
z
" clip-path="url(#pc5154fb301)" style="fill: #82333f; stroke: #752e39; stroke-width: 0.65; stroke-linejoin: miter"/>
   </g>
   <g id="patch_11">
    <path d="M 175.010831 346.657073 
L 189.839372 346.657073 
L 189.839372 290.901859 
L 175.010831 290.901859 
z
" clip-path="url(#pc5154fb301)" style="fill: #247252; stroke: #20674a; stroke-width: 0.65; stroke-linejoin: miter"/>
   </g>
   <g id="patch_12">
    <path d="M 190.141996 346.657073 
L 204.970537 346.657073 
L 204.970537 309.3813 
L 190.141996 309.3813 
z
" clip-path="url(#pc5154fb301)" style="fill: #82333f; stroke: #752e39; stroke-width: 0.65; stroke-linejoin: miter"/>
   </g>
   <g id="patch_13">
    <path d="M 205.27316 346.657073 
L 220.101701 346.657073 
L 220.101701 316.096564 
L 205.27316 316.096564 
z
" clip-path="url(#pc5154fb301)" style="fill: #247252; stroke: #20674a; stroke-width: 0.65; stroke-linejoin: miter"/>
   </g>
   <g id="patch_14">
    <path d="M 220.404325 346.657073 
L 235.232866 346.657073 
L 235.232866 320.063057 
L 220.404325 320.063057 
z
" clip-path="url(#pc5154fb301)" style="fill: #82333f; stroke: #752e39; stroke-width: 0.65; stroke-linejoin: miter"/>
   </g>
   <g id="patch_15">
    <path d="M 235.535489 346.657073 
L 250.36403 346.657073 
L 250.36403 314.070591 
L 235.535489 314.070591 
z
" clip-path="url(#pc5154fb301)" style="fill: #82333f; stroke: #752e39; stroke-width: 0.65; stroke-linejoin: miter"/>
   </g>
   <g id="patch_16">
    <path d="M 250.666654 346.657073 
L 265.495195 346.657073 
L 265.495195 313.436807 
L 250.666654 313.436807 
z
" clip-path="url(#pc5154fb301)" style="fill: #247252; stroke: #20674a; stroke-width: 0.65; stroke-linejoin: miter"/>
   </g>
   <g id="patch_17">
    <path d="M 265.797818 346.657073 
L 280.626359 346.657073 
L 280.626359 317.089968 
L 265.797818 317.089968 
z
" clip-path="url(#pc5154fb301)" style="fill: #82333f; stroke: #752e39; stroke-width: 0.65; stroke-linejoin: miter"/>
   </g>
   <g id="patch_18">
    <path d="M 280.928983 346.657073 
L 295.757524 346.657073 
L 295.757524 296.4991 
L 280.928983 296.4991 
z
" clip-path="url(#pc5154fb301)" style="fill: #82333f; stroke: #752e39; stroke-width: 0.65; stroke-linejoin: miter"/>
   </g>
   <g id="patch_19">
    <path d="M 296.060147 346.657073 
L 310.888688 346.657073 
L 310.888688 318.464354 
L 296.060147 318.464354 
z
" clip-path="url(#pc5154fb301)" style="fill: #82333f; stroke: #752e39; stroke-width: 0.65; stroke-linejoin: miter"/>
   </g>
   <g id="patch_20">
    <path d="M 311.191312 346.657073 
L 326.019853 346.657073 
L 326.019853 301.54445 
L 311.191312 301.54445 
z
" clip-path="url(#pc5154fb301)" style="fill: #82333f; stroke: #752e39; stroke-width: 0.65; stroke-linejoin: miter"/>
   </g>
   <g id="patch_21">
    <path d="M 326.322476 346.657073 
L 341.151017 346.657073 
L 341.151017 282.655542 
L 326.322476 282.655542 
z
" clip-path="url(#pc5154fb301)" style="fill: #82333f; stroke: #752e39; stroke-width: 0.65; stroke-linejoin: miter"/>
   </g>
   <g id="patch_22">
    <path d="M 341.453641 346.657073 
L 356.282182 346.657073 
L 356.282182 264.859734 
L 341.453641 264.859734 
z
" clip-path="url(#pc5154fb301)" style="fill: #247252; stroke: #20674a; stroke-width: 0.65; stroke-linejoin: miter"/>
   </g>
   <g id="patch_23">
    <path d="M 356.584805 346.657073 
L 371.413346 346.657073 
L 371.413346 300.465593 
L 356.584805 300.465593 
z
" clip-path="url(#pc5154fb301)" style="fill: #82333f; stroke: #752e39; stroke-width: 0.65; stroke-linejoin: miter"/>
   </g>
   <g id="patch_24">
    <path d="M 371.71597 346.657073 
L 386.544511 346.657073 
L 386.544511 300.50832 
L 371.71597 300.50832 
z
" clip-path="url(#pc5154fb301)" style="fill: #82333f; stroke: #752e39; stroke-width: 0.65; stroke-linejoin: miter"/>
   </g>
   <g id="patch_25">
    <path d="M 386.847134 346.657073 
L 401.675675 346.657073 
L 401.675675 301.572935 
L 386.847134 301.572935 
z
" clip-path="url(#pc5154fb301)" style="fill: #247252; stroke: #20674a; stroke-width: 0.65; stroke-linejoin: miter"/>
   </g>
   <g id="patch_26">
    <path d="M 401.978299 346.657073 
L 416.80684 346.657073 
L 416.80684 322.733497 
L 401.978299 322.733497 
z
" clip-path="url(#pc5154fb301)" style="fill: #82333f; stroke: #752e39; stroke-width: 0.65; stroke-linejoin: miter"/>
   </g>
   <g id="patch_27">
    <path d="M 417.109463 346.657073 
L 431.938004 346.657073 
L 431.938004 312.899158 
L 417.109463 312.899158 
z
" clip-path="url(#pc5154fb301)" style="fill: #82333f; stroke: #752e39; stroke-width: 0.65; stroke-linejoin: miter"/>
   </g>
   <g id="patch_28">
    <path d="M 432.240628 346.657073 
L 447.069169 346.657073 
L 447.069169 312.813704 
L 432.240628 312.813704 
z
" clip-path="url(#pc5154fb301)" style="fill: #82333f; stroke: #752e39; stroke-width: 0.65; stroke-linejoin: miter"/>
   </g>
   <g id="patch_29">
    <path d="M 447.371792 346.657073 
L 462.200333 346.657073 
L 462.200333 318.49996 
L 447.371792 318.49996 
z
" clip-path="url(#pc5154fb301)" style="fill: #82333f; stroke: #752e39; stroke-width: 0.65; stroke-linejoin: miter"/>
   </g>
   <g id="patch_30">
    <path d="M 462.502957 346.657073 
L 477.331498 346.657073 
L 477.331498 299.817566 
L 462.502957 299.817566 
z
" clip-path="url(#pc5154fb301)" style="fill: #247252; stroke: #20674a; stroke-width: 0.65; stroke-linejoin: miter"/>
   </g>
   <g id="patch_31">
    <path d="M 477.634121 346.657073 
L 492.462662 346.657073 
L 492.462662 312.265374 
L 477.634121 312.265374 
z
" clip-path="url(#pc5154fb301)" style="fill: #247252; stroke: #20674a; stroke-width: 0.65; stroke-linejoin: miter"/>
   </g>
   <g id="patch_32">
    <path d="M 103.68 339.48 
L 103.68 256.68 
" style="fill: none; stroke: #474d56; stroke-width: 0.8; stroke-linejoin: miter; stroke-linecap: square"/>
   </g>
   <g id="patch_33">
    <path d="M 518.4 339.48 
L 518.4 256.68 
" style="fill: none; stroke: #474d56; stroke-width: 0.8; stroke-linejoin: miter; stroke-linecap: square"/>
   </g>
   <g id="patch_34">
    <path d="M 103.68 339.48 
L 518.4 339.48 
" style="fill: none; stroke: #474d56; stroke-width: 0.8; stroke-linejoin: miter; stroke-linecap: square"/>
   </g>
   <g id="patch_35">
    <path d="M 103.68 256.68 
L 518.4 256.68 
" style="fill: none; stroke: #474d56; stroke-width: 0.8; stroke-linejoin: miter; stroke-linecap: square"/>
   </g>
  </g>
  <g id="text_18">
   <!-- AXS - day 2 -->
   <g style="fill: #ffffff" transform="translate(241.693875 12.19725) scale(0.144 -0.144)">
    <defs>
     <path id="DejaVuSans-Bold-41" d="M 3419 850 
L 1538 850 
L 1241 0 
L 31 0 
L 1759 4666 
L 3194 4666 
L 4922 0 
L 3713 0 
L 3419 850 
z
M 1838 1716 
L 3116 1716 
L 2478 3572 
L 1838 1716 
z
" transform="scale(0.015625)"/>
     <path id="DejaVuSans-Bold-58" d="M 3188 2381 
L 4806 0 
L 3553 0 
L 2463 1594 
L 1381 0 
L 122 0 
L 1741 2381 
L 184 4666 
L 1441 4666 
L 2463 3163 
L 3481 4666 
L 4744 4666 
L 3188 2381 
z
" transform="scale(0.015625)"/>
     <path id="DejaVuSans-Bold-53" d="M 3834 4519 
L 3834 3531 
Q 3450 3703 3084 3790 
Q 2719 3878 2394 3878 
Q 1963 3878 1756 3759 
Q 1550 3641 1550 3391 
Q 1550 3203 1689 3098 
Q 1828 2994 2194 2919 
L 2706 2816 
Q 3484 2659 3812 2340 
Q 4141 2022 4141 1434 
Q 4141 663 3683 286 
Q 3225 -91 2284 -91 
Q 1841 -91 1394 -6 
Q 947 78 500 244 
L 500 1259 
Q 947 1022 1364 901 
Q 1781 781 2169 781 
Q 2563 781 2772 912 
Q 2981 1044 2981 1288 
Q 2981 1506 2839 1625 
Q 2697 1744 2272 1838 
L 1806 1941 
Q 1106 2091 782 2419 
Q 459 2747 459 3303 
Q 459 4000 909 4375 
Q 1359 4750 2203 4750 
Q 2588 4750 2994 4692 
Q 3400 4634 3834 4519 
z
" transform="scale(0.015625)"/>
     <path id="DejaVuSans-Bold-20" transform="scale(0.015625)"/>
     <path id="DejaVuSans-Bold-2d" d="M 347 2297 
L 2309 2297 
L 2309 1388 
L 347 1388 
L 347 2297 
z
" transform="scale(0.015625)"/>
     <path id="DejaVuSans-Bold-64" d="M 2919 2988 
L 2919 4863 
L 4044 4863 
L 4044 0 
L 2919 0 
L 2919 506 
Q 2688 197 2409 53 
Q 2131 -91 1766 -91 
Q 1119 -91 703 423 
Q 288 938 288 1747 
Q 288 2556 703 3070 
Q 1119 3584 1766 3584 
Q 2128 3584 2408 3439 
Q 2688 3294 2919 2988 
z
M 2181 722 
Q 2541 722 2730 984 
Q 2919 1247 2919 1747 
Q 2919 2247 2730 2509 
Q 2541 2772 2181 2772 
Q 1825 2772 1636 2509 
Q 1447 2247 1447 1747 
Q 1447 1247 1636 984 
Q 1825 722 2181 722 
z
" transform="scale(0.015625)"/>
     <path id="DejaVuSans-Bold-61" d="M 2106 1575 
Q 1756 1575 1579 1456 
Q 1403 1338 1403 1106 
Q 1403 894 1545 773 
Q 1688 653 1941 653 
Q 2256 653 2472 879 
Q 2688 1106 2688 1447 
L 2688 1575 
L 2106 1575 
z
M 3816 1997 
L 3816 0 
L 2688 0 
L 2688 519 
Q 2463 200 2181 54 
Q 1900 -91 1497 -91 
Q 953 -91 614 226 
Q 275 544 275 1050 
Q 275 1666 698 1953 
Q 1122 2241 2028 2241 
L 2688 2241 
L 2688 2328 
Q 2688 2594 2478 2717 
Q 2269 2841 1825 2841 
Q 1466 2841 1156 2769 
Q 847 2697 581 2553 
L 581 3406 
Q 941 3494 1303 3539 
Q 1666 3584 2028 3584 
Q 2975 3584 3395 3211 
Q 3816 2838 3816 1997 
z
" transform="scale(0.015625)"/>
     <path id="DejaVuSans-Bold-79" d="M 78 3500 
L 1197 3500 
L 2138 1125 
L 2938 3500 
L 4056 3500 
L 2584 -331 
Q 2363 -916 2067 -1148 
Q 1772 -1381 1288 -1381 
L 641 -1381 
L 641 -647 
L 991 -647 
Q 1275 -647 1404 -556 
Q 1534 -466 1606 -231 
L 1638 -134 
L 78 3500 
z
" transform="scale(0.015625)"/>
     <path id="DejaVuSans-Bold-32" d="M 1844 884 
L 3897 884 
L 3897 0 
L 506 0 
L 506 884 
L 2209 2388 
Q 2438 2594 2547 2791 
Q 2656 2988 2656 3200 
Q 2656 3528 2436 3728 
Q 2216 3928 1850 3928 
Q 1569 3928 1234 3808 
Q 900 3688 519 3450 
L 519 4475 
Q 925 4609 1322 4679 
Q 1719 4750 2100 4750 
Q 2938 4750 3402 4381 
Q 3866 4013 3866 3353 
Q 3866 2972 3669 2642 
Q 3472 2313 2841 1759 
L 1844 884 
z
" transform="scale(0.015625)"/>
    </defs>
    <use xlink:href="#DejaVuSans-Bold-41"/>
    <use xlink:href="#DejaVuSans-Bold-58" x="77.392578"/>
    <use xlink:href="#DejaVuSans-Bold-53" x="154.492188"/>
    <use xlink:href="#DejaVuSans-Bold-20" x="226.513672"/>
    <use xlink:href="#DejaVuSans-Bold-2d" x="261.328125"/>
    <use xlink:href="#DejaVuSans-Bold-20" x="302.832031"/>
    <use xlink:href="#DejaVuSans-Bold-64" x="337.646484"/>
    <use xlink:href="#DejaVuSans-Bold-61" x="409.228516"/>
    <use xlink:href="#DejaVuSans-Bold-79" x="473.583984"/>
    <use xlink:href="#DejaVuSans-Bold-20" x="538.769531"/>
    <use xlink:href="#DejaVuSans-Bold-32" x="573.583984"/>
   </g>
  </g>
 </g>
 <defs>
  <clipPath id="pe6ba5089eb">
   <rect x="103.68" y="49.68" width="414.72" height="207"/>
  </clipPath>
  <clipPath id="pc5154fb301">
   <rect x="103.68" y="256.68" width="414.72" height="82.8"/>
  </clipPath>
 </defs>
</svg>
