<?xml version="1.0" encoding="utf-8" standalone="no"?>
<!DOCTYPE svg PUBLIC "-//W3C//DTD SVG 1.1//EN"
  "http://www.w3.org/Graphics/SVG/1.1/DTD/svg11.dtd">
<svg xmlns:xlink="http://www.w3.org/1999/xlink" width="576pt" height="414pt" viewBox="0 0 576 414" xmlns="http://www.w3.org/2000/svg" version="1.1">
 <metadata>
  <rdf:RDF xmlns:dc="http://purl.org/dc/elements/1.1/" xmlns:cc="http://creativecommons.org/ns#" xmlns:rdf="http://www.w3.org/1999/02/22-rdf-syntax-ns#">
   <cc:Work>
    <dc:type rdf:resource="http://purl.org/dc/dcmitype/StillImage"/>
    <dc:date>2024-05-25T21:13:06.321939</dc:date>
    <dc:format>image/svg+xml</dc:format>
    <dc:creator>
     <cc:Agent>
      <dc:title>Matplotlib v3.9.0, https://matplotlib.org/</dc:title>
     </cc:Agent>
    </dc:creator>
   </cc:Work>
  </rdf:RDF>
 </metadata>
 <defs>
  <style type="text/css">*{stroke-linejoin: round; stroke-linecap: butt}</style>
 </defs>
 <g id="figure_1">
  <g id="patch_1">
   <path d="M 0 414 
L 576 414 
L 576 0 
L 0 0 
z
"/>
  </g>
  <g id="axes_1">
   <g id="patch_2">
    <path d="M 103.68 256.68 
L 518.4 256.68 
L 518.4 49.68 
L 103.68 49.68 
z
"/>
   </g>
   <g id="matplotlib.axis_1">
    <g id="xtick_1">
     <g id="line2d_1">
      <path d="M 137.031608 256.68 
L 137.031608 49.68 
" clip-path="url(#pa2f464f4a2)" style="fill: none; stroke-dasharray: 2.96,1.28; stroke-dashoffset: 0; stroke: #ffffff; stroke-width: 0.8"/>
     </g>
     <g id="line2d_2">
      <defs>
       <path id="m476b781555" d="M 0 0 
L 0 3.5 
" style="stroke: #ffffff; stroke-width: 0.8"/>
      </defs>
      <g>
       <use xlink:href="#m476b781555" x="137.031608" y="256.68" style="fill: #ffffff; stroke: #ffffff; stroke-width: 0.8"/>
      </g>
     </g>
    </g>
    <g id="xtick_2">
     <g id="line2d_3">
      <path d="M 212.687431 256.68 
L 212.687431 49.68 
" clip-path="url(#pa2f464f4a2)" style="fill: none; stroke-dasharray: 2.96,1.28; stroke-dashoffset: 0; stroke: #ffffff; stroke-width: 0.8"/>
     </g>
     <g id="line2d_4">
      <g>
       <use xlink:href="#m476b781555" x="212.687431" y="256.68" style="fill: #ffffff; stroke: #ffffff; stroke-width: 0.8"/>
      </g>
     </g>
    </g>
    <g id="xtick_3">
     <g id="line2d_5">
      <path d="M 288.343253 256.68 
L 288.343253 49.68 
" clip-path="url(#pa2f464f4a2)" style="fill: none; stroke-dasharray: 2.96,1.28; stroke-dashoffset: 0; stroke: #ffffff; stroke-width: 0.8"/>
     </g>
     <g id="line2d_6">
      <g>
       <use xlink:href="#m476b781555" x="288.343253" y="256.68" style="fill: #ffffff; stroke: #ffffff; stroke-width: 0.8"/>
      </g>
     </g>
    </g>
    <g id="xtick_4">
     <g id="line2d_7">
      <path d="M 363.999076 256.68 
L 363.999076 49.68 
" clip-path="url(#pa2f464f4a2)" style="fill: none; stroke-dasharray: 2.96,1.28; stroke-dashoffset: 0; stroke: #ffffff; stroke-width: 0.8"/>
     </g>
     <g id="line2d_8">
      <g>
       <use xlink:href="#m476b781555" x="363.999076" y="256.68" style="fill: #ffffff; stroke: #ffffff; stroke-width: 0.8"/>
      </g>
     </g>
    </g>
    <g id="xtick_5">
     <g id="line2d_9">
      <path d="M 439.654898 256.68 
L 439.654898 49.68 
" clip-path="url(#pa2f464f4a2)" style="fill: none; stroke-dasharray: 2.96,1.28; stroke-dashoffset: 0; stroke: #ffffff; stroke-width: 0.8"/>
     </g>
     <g id="line2d_10">
      <g>
       <use xlink:href="#m476b781555" x="439.654898" y="256.68" style="fill: #ffffff; stroke: #ffffff; stroke-width: 0.8"/>
      </g>
     </g>
    </g>
    <g id="xtick_6">
     <g id="line2d_11">
      <path d="M 515.310721 256.68 
L 515.310721 49.68 
" clip-path="url(#pa2f464f4a2)" style="fill: none; stroke-dasharray: 2.96,1.28; stroke-dashoffset: 0; stroke: #ffffff; stroke-width: 0.8"/>
     </g>
     <g id="line2d_12">
      <g>
       <use xlink:href="#m476b781555" x="515.310721" y="256.68" style="fill: #ffffff; stroke: #ffffff; stroke-width: 0.8"/>
      </g>
     </g>
    </g>
   </g>
   <g id="matplotlib.axis_2">
    <g id="ytick_1">
     <g id="line2d_13">
      <path d="M 103.68 253.435949 
L 518.4 253.435949 
" clip-path="url(#pa2f464f4a2)" style="fill: none; stroke-dasharray: 2.96,1.28; stroke-dashoffset: 0; stroke: #ffffff; stroke-width: 0.8"/>
     </g>
     <g id="line2d_14">
      <defs>
       <path id="m2443329ad2" d="M 0 0 
L 3.5 0 
" style="stroke: #ffffff; stroke-width: 0.8"/>
      </defs>
      <g>
       <use xlink:href="#m2443329ad2" x="518.4" y="253.435949" style="fill: #ffffff; stroke: #ffffff; stroke-width: 0.8"/>
      </g>
     </g>
     <g id="text_1">
      <!-- 65000 -->
      <g style="fill: #ffffff" transform="translate(525.4 257.235168) scale(0.1 -0.1)">
       <defs>
        <path id="DejaVuSans-36" d="M 2113 2584 
Q 1688 2584 1439 2293 
Q 1191 2003 1191 1497 
Q 1191 994 1439 701 
Q 1688 409 2113 409 
Q 2538 409 2786 701 
Q 3034 994 3034 1497 
Q 3034 2003 2786 2293 
Q 2538 2584 2113 2584 
z
M 3366 4563 
L 3366 3988 
Q 3128 4100 2886 4159 
Q 2644 4219 2406 4219 
Q 1781 4219 1451 3797 
Q 1122 3375 1075 2522 
Q 1259 2794 1537 2939 
Q 1816 3084 2150 3084 
Q 2853 3084 3261 2657 
Q 3669 2231 3669 1497 
Q 3669 778 3244 343 
Q 2819 -91 2113 -91 
Q 1303 -91 875 529 
Q 447 1150 447 2328 
Q 447 3434 972 4092 
Q 1497 4750 2381 4750 
Q 2619 4750 2861 4703 
Q 3103 4656 3366 4563 
z
" transform="scale(0.015625)"/>
        <path id="DejaVuSans-35" d="M 691 4666 
L 3169 4666 
L 3169 4134 
L 1269 4134 
L 1269 2991 
Q 1406 3038 1543 3061 
Q 1681 3084 1819 3084 
Q 2600 3084 3056 2656 
Q 3513 2228 3513 1497 
Q 3513 744 3044 326 
Q 2575 -91 1722 -91 
Q 1428 -91 1123 -41 
Q 819 9 494 109 
L 494 744 
Q 775 591 1075 516 
Q 1375 441 1709 441 
Q 2250 441 2565 725 
Q 2881 1009 2881 1497 
Q 2881 1984 2565 2268 
Q 2250 2553 1709 2553 
Q 1456 2553 1204 2497 
Q 953 2441 691 2322 
L 691 4666 
z
" transform="scale(0.015625)"/>
        <path id="DejaVuSans-30" d="M 2034 4250 
Q 1547 4250 1301 3770 
Q 1056 3291 1056 2328 
Q 1056 1369 1301 889 
Q 1547 409 2034 409 
Q 2525 409 2770 889 
Q 3016 1369 3016 2328 
Q 3016 3291 2770 3770 
Q 2525 4250 2034 4250 
z
M 2034 4750 
Q 2819 4750 3233 4129 
Q 3647 3509 3647 2328 
Q 3647 1150 3233 529 
Q 2819 -91 2034 -91 
Q 1250 -91 836 529 
Q 422 1150 422 2328 
Q 422 3509 836 4129 
Q 1250 4750 2034 4750 
z
" transform="scale(0.015625)"/>
       </defs>
       <use xlink:href="#DejaVuSans-36"/>
       <use xlink:href="#DejaVuSans-35" x="63.623047"/>
       <use xlink:href="#DejaVuSans-30" x="127.246094"/>
       <use xlink:href="#DejaVuSans-30" x="190.869141"/>
       <use xlink:href="#DejaVuSans-30" x="254.492188"/>
      </g>
     </g>
    </g>
    <g id="ytick_2">
     <g id="line2d_15">
      <path d="M 103.68 213.94178 
L 518.4 213.94178 
" clip-path="url(#pa2f464f4a2)" style="fill: none; stroke-dasharray: 2.96,1.28; stroke-dashoffset: 0; stroke: #ffffff; stroke-width: 0.8"/>
     </g>
     <g id="line2d_16">
      <g>
       <use xlink:href="#m2443329ad2" x="518.4" y="213.94178" style="fill: #ffffff; stroke: #ffffff; stroke-width: 0.8"/>
      </g>
     </g>
     <g id="text_2">
      <!-- 65500 -->
      <g style="fill: #ffffff" transform="translate(525.4 217.740998) scale(0.1 -0.1)">
       <use xlink:href="#DejaVuSans-36"/>
       <use xlink:href="#DejaVuSans-35" x="63.623047"/>
       <use xlink:href="#DejaVuSans-35" x="127.246094"/>
       <use xlink:href="#DejaVuSans-30" x="190.869141"/>
       <use xlink:href="#DejaVuSans-30" x="254.492188"/>
      </g>
     </g>
    </g>
    <g id="ytick_3">
     <g id="line2d_17">
      <path d="M 103.68 174.44761 
L 518.4 174.44761 
" clip-path="url(#pa2f464f4a2)" style="fill: none; stroke-dasharray: 2.96,1.28; stroke-dashoffset: 0; stroke: #ffffff; stroke-width: 0.8"/>
     </g>
     <g id="line2d_18">
      <g>
       <use xlink:href="#m2443329ad2" x="518.4" y="174.44761" style="fill: #ffffff; stroke: #ffffff; stroke-width: 0.8"/>
      </g>
     </g>
     <g id="text_3">
      <!-- 66000 -->
      <g style="fill: #ffffff" transform="translate(525.4 178.246829) scale(0.1 -0.1)">
       <use xlink:href="#DejaVuSans-36"/>
       <use xlink:href="#DejaVuSans-36" x="63.623047"/>
       <use xlink:href="#DejaVuSans-30" x="127.246094"/>
       <use xlink:href="#DejaVuSans-30" x="190.869141"/>
       <use xlink:href="#DejaVuSans-30" x="254.492188"/>
      </g>
     </g>
    </g>
    <g id="ytick_4">
     <g id="line2d_19">
      <path d="M 103.68 134.953441 
L 518.4 134.953441 
" clip-path="url(#pa2f464f4a2)" style="fill: none; stroke-dasharray: 2.96,1.28; stroke-dashoffset: 0; stroke: #ffffff; stroke-width: 0.8"/>
     </g>
     <g id="line2d_20">
      <g>
       <use xlink:href="#m2443329ad2" x="518.4" y="134.953441" style="fill: #ffffff; stroke: #ffffff; stroke-width: 0.8"/>
      </g>
     </g>
     <g id="text_4">
      <!-- 66500 -->
      <g style="fill: #ffffff" transform="translate(525.4 138.75266) scale(0.1 -0.1)">
       <use xlink:href="#DejaVuSans-36"/>
       <use xlink:href="#DejaVuSans-36" x="63.623047"/>
       <use xlink:href="#DejaVuSans-35" x="127.246094"/>
       <use xlink:href="#DejaVuSans-30" x="190.869141"/>
       <use xlink:href="#DejaVuSans-30" x="254.492188"/>
      </g>
     </g>
    </g>
    <g id="ytick_5">
     <g id="line2d_21">
      <path d="M 103.68 95.459271 
L 518.4 95.459271 
" clip-path="url(#pa2f464f4a2)" style="fill: none; stroke-dasharray: 2.96,1.28; stroke-dashoffset: 0; stroke: #ffffff; stroke-width: 0.8"/>
     </g>
     <g id="line2d_22">
      <g>
       <use xlink:href="#m2443329ad2" x="518.4" y="95.459271" style="fill: #ffffff; stroke: #ffffff; stroke-width: 0.8"/>
      </g>
     </g>
     <g id="text_5">
      <!-- 67000 -->
      <g style="fill: #ffffff" transform="translate(525.4 99.25849) scale(0.1 -0.1)">
       <defs>
        <path id="DejaVuSans-37" d="M 525 4666 
L 3525 4666 
L 3525 4397 
L 1831 0 
L 1172 0 
L 2766 4134 
L 525 4134 
L 525 4666 
z
" transform="scale(0.015625)"/>
       </defs>
       <use xlink:href="#DejaVuSans-36"/>
       <use xlink:href="#DejaVuSans-37" x="63.623047"/>
       <use xlink:href="#DejaVuSans-30" x="127.246094"/>
       <use xlink:href="#DejaVuSans-30" x="190.869141"/>
       <use xlink:href="#DejaVuSans-30" x="254.492188"/>
      </g>
     </g>
    </g>
    <g id="ytick_6">
     <g id="line2d_23">
      <path d="M 103.68 55.965102 
L 518.4 55.965102 
" clip-path="url(#pa2f464f4a2)" style="fill: none; stroke-dasharray: 2.96,1.28; stroke-dashoffset: 0; stroke: #ffffff; stroke-width: 0.8"/>
     </g>
     <g id="line2d_24">
      <g>
       <use xlink:href="#m2443329ad2" x="518.4" y="55.965102" style="fill: #ffffff; stroke: #ffffff; stroke-width: 0.8"/>
      </g>
     </g>
     <g id="text_6">
      <!-- 67500 -->
      <g style="fill: #ffffff" transform="translate(525.4 59.764321) scale(0.1 -0.1)">
       <use xlink:href="#DejaVuSans-36"/>
       <use xlink:href="#DejaVuSans-37" x="63.623047"/>
       <use xlink:href="#DejaVuSans-35" x="127.246094"/>
       <use xlink:href="#DejaVuSans-30" x="190.869141"/>
       <use xlink:href="#DejaVuSans-30" x="254.492188"/>
      </g>
     </g>
    </g>
    <g id="text_7">
     <!-- Price -->
     <g style="fill: #ffffff" transform="translate(568.810938 165.377656) rotate(-90) scale(0.1 -0.1)">
      <defs>
       <path id="DejaVuSans-50" d="M 1259 4147 
L 1259 2394 
L 2053 2394 
Q 2494 2394 2734 2622 
Q 2975 2850 2975 3272 
Q 2975 3691 2734 3919 
Q 2494 4147 2053 4147 
L 1259 4147 
z
M 628 4666 
L 2053 4666 
Q 2838 4666 3239 4311 
Q 3641 3956 3641 3272 
Q 3641 2581 3239 2228 
Q 2838 1875 2053 1875 
L 1259 1875 
L 1259 0 
L 628 0 
L 628 4666 
z
" transform="scale(0.015625)"/>
       <path id="DejaVuSans-72" d="M 2631 2963 
Q 2534 3019 2420 3045 
Q 2306 3072 2169 3072 
Q 1681 3072 1420 2755 
Q 1159 2438 1159 1844 
L 1159 0 
L 581 0 
L 581 3500 
L 1159 3500 
L 1159 2956 
Q 1341 3275 1631 3429 
Q 1922 3584 2338 3584 
Q 2397 3584 2469 3576 
Q 2541 3569 2628 3553 
L 2631 2963 
z
" transform="scale(0.015625)"/>
       <path id="DejaVuSans-69" d="M 603 3500 
L 1178 3500 
L 1178 0 
L 603 0 
L 603 3500 
z
M 603 4863 
L 1178 4863 
L 1178 4134 
L 603 4134 
L 603 4863 
z
" transform="scale(0.015625)"/>
       <path id="DejaVuSans-63" d="M 3122 3366 
L 3122 2828 
Q 2878 2963 2633 3030 
Q 2388 3097 2138 3097 
Q 1578 3097 1268 2742 
Q 959 2388 959 1747 
Q 959 1106 1268 751 
Q 1578 397 2138 397 
Q 2388 397 2633 464 
Q 2878 531 3122 666 
L 3122 134 
Q 2881 22 2623 -34 
Q 2366 -91 2075 -91 
Q 1284 -91 818 406 
Q 353 903 353 1747 
Q 353 2603 823 3093 
Q 1294 3584 2113 3584 
Q 2378 3584 2631 3529 
Q 2884 3475 3122 3366 
z
" transform="scale(0.015625)"/>
       <path id="DejaVuSans-65" d="M 3597 1894 
L 3597 1613 
L 953 1613 
Q 991 1019 1311 708 
Q 1631 397 2203 397 
Q 2534 397 2845 478 
Q 3156 559 3463 722 
L 3463 178 
Q 3153 47 2828 -22 
Q 2503 -91 2169 -91 
Q 1331 -91 842 396 
Q 353 884 353 1716 
Q 353 2575 817 3079 
Q 1281 3584 2069 3584 
Q 2775 3584 3186 3129 
Q 3597 2675 3597 1894 
z
M 3022 2063 
Q 3016 2534 2758 2815 
Q 2500 3097 2075 3097 
Q 1594 3097 1305 2825 
Q 1016 2553 972 2059 
L 3022 2063 
z
" transform="scale(0.015625)"/>
      </defs>
      <use xlink:href="#DejaVuSans-50"/>
      <use xlink:href="#DejaVuSans-72" x="58.552734"/>
      <use xlink:href="#DejaVuSans-69" x="99.666016"/>
      <use xlink:href="#DejaVuSans-63" x="127.449219"/>
      <use xlink:href="#DejaVuSans-65" x="182.429688"/>
     </g>
    </g>
   </g>
   <g id="PolyCollection_1">
    <path d="M 132.11398 236.694371 
L 132.11398 216.315379 
L 141.949237 216.315379 
L 141.949237 236.694371 
z
" clip-path="url(#pa2f464f4a2)" style="fill: #3dc985; stroke: #3dc985"/>
    <path d="M 147.245144 216.315379 
L 147.245144 228.495381 
L 157.080401 228.495381 
L 157.080401 216.315379 
z
" clip-path="url(#pa2f464f4a2)" style="fill: #ef4f60; stroke: #ef4f60"/>
    <path d="M 162.376309 228.495381 
L 162.376309 224.854019 
L 172.211566 224.854019 
L 172.211566 228.495381 
z
" clip-path="url(#pa2f464f4a2)" style="fill: #3dc985; stroke: #3dc985"/>
    <path d="M 177.507473 224.854019 
L 177.507473 209.230125 
L 187.34273 209.230125 
L 187.34273 224.854019 
z
" clip-path="url(#pa2f464f4a2)" style="fill: #3dc985; stroke: #3dc985"/>
    <path d="M 192.638638 209.230125 
L 192.638638 220.383279 
L 202.473895 220.383279 
L 202.473895 209.230125 
z
" clip-path="url(#pa2f464f4a2)" style="fill: #ef4f60; stroke: #ef4f60"/>
    <path d="M 207.769802 220.383279 
L 207.769802 199.862108 
L 217.605059 199.862108 
L 217.605059 220.383279 
z
" clip-path="url(#pa2f464f4a2)" style="fill: #3dc985; stroke: #3dc985"/>
    <path d="M 222.900967 199.862108 
L 222.900967 180.573156 
L 232.736224 180.573156 
L 232.736224 199.862108 
z
" clip-path="url(#pa2f464f4a2)" style="fill: #3dc985; stroke: #3dc985"/>
    <path d="M 238.032131 180.573156 
L 238.032131 143.922567 
L 247.867388 143.922567 
L 247.867388 180.573156 
z
" clip-path="url(#pa2f464f4a2)" style="fill: #3dc985; stroke: #3dc985"/>
    <path d="M 253.163296 143.922567 
L 253.163296 164.175177 
L 262.998553 164.175177 
L 262.998553 143.922567 
z
" clip-path="url(#pa2f464f4a2)" style="fill: #ef4f60; stroke: #ef4f60"/>
    <path d="M 268.29446 164.175177 
L 268.29446 148.78035 
L 278.129717 148.78035 
L 278.129717 164.175177 
z
" clip-path="url(#pa2f464f4a2)" style="fill: #3dc985; stroke: #3dc985"/>
    <path d="M 283.425625 148.78035 
L 283.425625 135.383927 
L 293.260882 135.383927 
L 293.260882 148.78035 
z
" clip-path="url(#pa2f464f4a2)" style="fill: #3dc985; stroke: #3dc985"/>
    <path d="M 298.556789 135.383927 
L 298.556789 158.567005 
L 308.392046 158.567005 
L 308.392046 135.383927 
z
" clip-path="url(#pa2f464f4a2)" style="fill: #ef4f60; stroke: #ef4f60"/>
    <path d="M 313.687954 158.567005 
L 313.687954 145.944668 
L 323.523211 145.944668 
L 323.523211 158.567005 
z
" clip-path="url(#pa2f464f4a2)" style="fill: #3dc985; stroke: #3dc985"/>
    <path d="M 328.819118 145.944668 
L 328.819118 179.498914 
L 338.654375 179.498914 
L 338.654375 145.944668 
z
" clip-path="url(#pa2f464f4a2)" style="fill: #ef4f60; stroke: #ef4f60"/>
    <path d="M 343.950283 179.498914 
L 343.950283 110.747464 
L 353.78554 110.747464 
L 353.78554 179.498914 
z
" clip-path="url(#pa2f464f4a2)" style="fill: #3dc985; stroke: #3dc985"/>
    <path d="M 359.081447 110.747464 
L 359.081447 78.243763 
L 368.916704 78.243763 
L 368.916704 110.747464 
z
" clip-path="url(#pa2f464f4a2)" style="fill: #3dc985; stroke: #3dc985"/>
    <path d="M 374.212612 78.243763 
L 374.212612 100.392093 
L 384.047869 100.392093 
L 384.047869 78.243763 
z
" clip-path="url(#pa2f464f4a2)" style="fill: #ef4f60; stroke: #ef4f60"/>
    <path d="M 389.343776 100.392093 
L 389.343776 117.990695 
L 399.179033 117.990695 
L 399.179033 100.392093 
z
" clip-path="url(#pa2f464f4a2)" style="fill: #ef4f60; stroke: #ef4f60"/>
    <path d="M 404.474941 117.990695 
L 404.474941 110.218243 
L 414.310198 110.218243 
L 414.310198 117.990695 
z
" clip-path="url(#pa2f464f4a2)" style="fill: #3dc985; stroke: #3dc985"/>
    <path d="M 419.606105 110.218243 
L 419.606105 92.485361 
L 429.441362 92.485361 
L 429.441362 110.218243 
z
" clip-path="url(#pa2f464f4a2)" style="fill: #3dc985; stroke: #3dc985"/>
    <path d="M 434.73727 92.485361 
L 434.73727 103.512133 
L 444.572527 103.512133 
L 444.572527 92.485361 
z
" clip-path="url(#pa2f464f4a2)" style="fill: #ef4f60; stroke: #ef4f60"/>
    <path d="M 449.868434 103.512133 
L 449.868434 109.49155 
L 459.703691 109.49155 
L 459.703691 103.512133 
z
" clip-path="url(#pa2f464f4a2)" style="fill: #ef4f60; stroke: #ef4f60"/>
    <path d="M 464.999599 109.49155 
L 464.999599 113.156609 
L 474.834856 113.156609 
L 474.834856 109.49155 
z
" clip-path="url(#pa2f464f4a2)" style="fill: #ef4f60; stroke: #ef4f60"/>
    <path d="M 480.130763 113.156609 
L 480.130763 92.832909 
L 489.96602 92.832909 
L 489.96602 113.156609 
z
" clip-path="url(#pa2f464f4a2)" style="fill: #3dc985; stroke: #3dc985"/>
   </g>
   <g id="LineCollection_1">
    <path d="M 137.031608 236.694371 
L 137.031608 236.694371 
" clip-path="url(#pa2f464f4a2)" style="fill: none; stroke: #3dc985"/>
    <path d="M 152.162773 247.270909 
L 152.162773 228.495381 
" clip-path="url(#pa2f464f4a2)" style="fill: none; stroke: #ef4f60"/>
    <path d="M 167.293937 241.828613 
L 167.293937 228.495381 
" clip-path="url(#pa2f464f4a2)" style="fill: none; stroke: #3dc985"/>
    <path d="M 182.425102 227.365848 
L 182.425102 224.854019 
" clip-path="url(#pa2f464f4a2)" style="fill: none; stroke: #3dc985"/>
    <path d="M 197.556266 226.228416 
L 197.556266 220.383279 
" clip-path="url(#pa2f464f4a2)" style="fill: none; stroke: #ef4f60"/>
    <path d="M 212.687431 221.125769 
L 212.687431 220.383279 
" clip-path="url(#pa2f464f4a2)" style="fill: none; stroke: #3dc985"/>
    <path d="M 227.818595 209.19853 
L 227.818595 199.862108 
" clip-path="url(#pa2f464f4a2)" style="fill: none; stroke: #3dc985"/>
    <path d="M 242.94976 180.573156 
L 242.94976 180.573156 
" clip-path="url(#pa2f464f4a2)" style="fill: none; stroke: #3dc985"/>
    <path d="M 258.080924 170.036111 
L 258.080924 164.175177 
" clip-path="url(#pa2f464f4a2)" style="fill: none; stroke: #ef4f60"/>
    <path d="M 273.212089 170.494244 
L 273.212089 164.175177 
" clip-path="url(#pa2f464f4a2)" style="fill: none; stroke: #3dc985"/>
    <path d="M 288.343253 162.429534 
L 288.343253 148.78035 
" clip-path="url(#pa2f464f4a2)" style="fill: none; stroke: #3dc985"/>
    <path d="M 303.474418 160.857667 
L 303.474418 158.567005 
" clip-path="url(#pa2f464f4a2)" style="fill: none; stroke: #ef4f60"/>
    <path d="M 318.605582 166.110391 
L 318.605582 158.567005 
" clip-path="url(#pa2f464f4a2)" style="fill: none; stroke: #3dc985"/>
    <path d="M 333.736747 191.252379 
L 333.736747 179.498914 
" clip-path="url(#pa2f464f4a2)" style="fill: none; stroke: #ef4f60"/>
    <path d="M 348.867911 182.342495 
L 348.867911 179.498914 
" clip-path="url(#pa2f464f4a2)" style="fill: none; stroke: #3dc985"/>
    <path d="M 363.999076 130.69202 
L 363.999076 110.747464 
" clip-path="url(#pa2f464f4a2)" style="fill: none; stroke: #3dc985"/>
    <path d="M 379.13024 102.967113 
L 379.13024 100.392093 
" clip-path="url(#pa2f464f4a2)" style="fill: none; stroke: #ef4f60"/>
    <path d="M 394.261405 122.208672 
L 394.261405 117.990695 
" clip-path="url(#pa2f464f4a2)" style="fill: none; stroke: #ef4f60"/>
    <path d="M 409.392569 158.014086 
L 409.392569 117.990695 
" clip-path="url(#pa2f464f4a2)" style="fill: none; stroke: #3dc985"/>
    <path d="M 424.523734 123.764743 
L 424.523734 110.218243 
" clip-path="url(#pa2f464f4a2)" style="fill: none; stroke: #3dc985"/>
    <path d="M 439.654898 114.617893 
L 439.654898 103.512133 
" clip-path="url(#pa2f464f4a2)" style="fill: none; stroke: #ef4f60"/>
    <path d="M 454.786063 115.028632 
L 454.786063 109.49155 
" clip-path="url(#pa2f464f4a2)" style="fill: none; stroke: #ef4f60"/>
    <path d="M 469.917227 120.644703 
L 469.917227 113.156609 
" clip-path="url(#pa2f464f4a2)" style="fill: none; stroke: #ef4f60"/>
    <path d="M 485.048392 120.182621 
L 485.048392 113.156609 
" clip-path="url(#pa2f464f4a2)" style="fill: none; stroke: #3dc985"/>
    <path d="M 137.031608 216.315379 
L 137.031608 216.315379 
" clip-path="url(#pa2f464f4a2)" style="fill: none; stroke: #3dc985"/>
    <path d="M 152.162773 216.315379 
L 152.162773 216.315379 
" clip-path="url(#pa2f464f4a2)" style="fill: none; stroke: #ef4f60"/>
    <path d="M 167.293937 219.933045 
L 167.293937 224.854019 
" clip-path="url(#pa2f464f4a2)" style="fill: none; stroke: #3dc985"/>
    <path d="M 182.425102 184.230316 
L 182.425102 209.230125 
" clip-path="url(#pa2f464f4a2)" style="fill: none; stroke: #3dc985"/>
    <path d="M 197.556266 205.414988 
L 197.556266 209.230125 
" clip-path="url(#pa2f464f4a2)" style="fill: none; stroke: #ef4f60"/>
    <path d="M 212.687431 199.862108 
L 212.687431 199.862108 
" clip-path="url(#pa2f464f4a2)" style="fill: none; stroke: #3dc985"/>
    <path d="M 227.818595 162.279457 
L 227.818595 180.573156 
" clip-path="url(#pa2f464f4a2)" style="fill: none; stroke: #3dc985"/>
    <path d="M 242.94976 135.2299 
L 242.94976 143.922567 
" clip-path="url(#pa2f464f4a2)" style="fill: none; stroke: #3dc985"/>
    <path d="M 258.080924 138.946301 
L 258.080924 143.922567 
" clip-path="url(#pa2f464f4a2)" style="fill: none; stroke: #ef4f60"/>
    <path d="M 273.212089 145.439143 
L 273.212089 148.78035 
" clip-path="url(#pa2f464f4a2)" style="fill: none; stroke: #3dc985"/>
    <path d="M 288.343253 131.568791 
L 288.343253 135.383927 
" clip-path="url(#pa2f464f4a2)" style="fill: none; stroke: #3dc985"/>
    <path d="M 303.474418 130.162798 
L 303.474418 135.383927 
" clip-path="url(#pa2f464f4a2)" style="fill: none; stroke: #ef4f60"/>
    <path d="M 318.605582 131.584588 
L 318.605582 145.944668 
" clip-path="url(#pa2f464f4a2)" style="fill: none; stroke: #3dc985"/>
    <path d="M 333.736747 139.862566 
L 333.736747 145.944668 
" clip-path="url(#pa2f464f4a2)" style="fill: none; stroke: #ef4f60"/>
    <path d="M 348.867911 107.311472 
L 348.867911 110.747464 
" clip-path="url(#pa2f464f4a2)" style="fill: none; stroke: #3dc985"/>
    <path d="M 363.999076 59.089091 
L 363.999076 78.243763 
" clip-path="url(#pa2f464f4a2)" style="fill: none; stroke: #3dc985"/>
    <path d="M 379.13024 69.918392 
L 379.13024 78.243763 
" clip-path="url(#pa2f464f4a2)" style="fill: none; stroke: #ef4f60"/>
    <path d="M 394.261405 95.47112 
L 394.261405 100.392093 
" clip-path="url(#pa2f464f4a2)" style="fill: none; stroke: #ef4f60"/>
    <path d="M 409.392569 107.903884 
L 409.392569 110.218243 
" clip-path="url(#pa2f464f4a2)" style="fill: none; stroke: #3dc985"/>
    <path d="M 424.523734 90.921391 
L 424.523734 92.485361 
" clip-path="url(#pa2f464f4a2)" style="fill: none; stroke: #3dc985"/>
    <path d="M 439.654898 92.485361 
L 439.654898 92.485361 
" clip-path="url(#pa2f464f4a2)" style="fill: none; stroke: #ef4f60"/>
    <path d="M 454.786063 101.987658 
L 454.786063 103.512133 
" clip-path="url(#pa2f464f4a2)" style="fill: none; stroke: #ef4f60"/>
    <path d="M 469.917227 109.49155 
L 469.917227 109.49155 
" clip-path="url(#pa2f464f4a2)" style="fill: none; stroke: #ef4f60"/>
    <path d="M 485.048392 89.64178 
L 485.048392 92.832909 
" clip-path="url(#pa2f464f4a2)" style="fill: none; stroke: #3dc985"/>
   </g>
   <g id="patch_3">
    <path d="M 103.68 256.68 
L 103.68 49.68 
" style="fill: none; stroke: #474d56; stroke-width: 0.8; stroke-linejoin: miter; stroke-linecap: square"/>
   </g>
   <g id="patch_4">
    <path d="M 518.4 256.68 
L 518.4 49.68 
" style="fill: none; stroke: #474d56; stroke-width: 0.8; stroke-linejoin: miter; stroke-linecap: square"/>
   </g>
   <g id="patch_5">
    <path d="M 103.68 256.68 
L 518.4 256.68 
" style="fill: none; stroke: #474d56; stroke-width: 0.8; stroke-linejoin: miter; stroke-linecap: square"/>
   </g>
   <g id="patch_6">
    <path d="M 103.68 49.68 
L 518.4 49.68 
" style="fill: none; stroke: #474d56; stroke-width: 0.8; stroke-linejoin: miter; stroke-linecap: square"/>
   </g>
  </g>
  <g id="axes_2">
   <g id="patch_7">
    <path d="M 103.68 339.48 
L 518.4 339.48 
L 518.4 256.68 
L 103.68 256.68 
z
"/>
   </g>
   <g id="matplotlib.axis_3">
    <g id="xtick_7">
     <g id="line2d_25">
      <path d="M 137.031608 339.48 
L 137.031608 256.68 
" clip-path="url(#p8be124ae03)" style="fill: none; stroke-dasharray: 2.96,1.28; stroke-dashoffset: 0; stroke: #ffffff; stroke-width: 0.8"/>
     </g>
     <g id="line2d_26">
      <g>
       <use xlink:href="#m476b781555" x="137.031608" y="339.48" style="fill: #ffffff; stroke: #ffffff; stroke-width: 0.8"/>
      </g>
     </g>
     <g id="text_8">
      <!-- 00:00 -->
      <g style="fill: #ffffff" transform="translate(128.793814 372.23084) rotate(-45) scale(0.1 -0.1)">
       <defs>
        <path id="DejaVuSans-3a" d="M 750 794 
L 1409 794 
L 1409 0 
L 750 0 
L 750 794 
z
M 750 3309 
L 1409 3309 
L 1409 2516 
L 750 2516 
L 750 3309 
z
" transform="scale(0.015625)"/>
       </defs>
       <use xlink:href="#DejaVuSans-30"/>
       <use xlink:href="#DejaVuSans-30" x="63.623047"/>
       <use xlink:href="#DejaVuSans-3a" x="127.246094"/>
       <use xlink:href="#DejaVuSans-30" x="160.9375"/>
       <use xlink:href="#DejaVuSans-30" x="224.560547"/>
      </g>
     </g>
    </g>
    <g id="xtick_8">
     <g id="line2d_27">
      <path d="M 212.687431 339.48 
L 212.687431 256.68 
" clip-path="url(#p8be124ae03)" style="fill: none; stroke-dasharray: 2.96,1.28; stroke-dashoffset: 0; stroke: #ffffff; stroke-width: 0.8"/>
     </g>
     <g id="line2d_28">
      <g>
       <use xlink:href="#m476b781555" x="212.687431" y="339.48" style="fill: #ffffff; stroke: #ffffff; stroke-width: 0.8"/>
      </g>
     </g>
     <g id="text_9">
      <!-- 05:00 -->
      <g style="fill: #ffffff" transform="translate(204.449637 372.23084) rotate(-45) scale(0.1 -0.1)">
       <use xlink:href="#DejaVuSans-30"/>
       <use xlink:href="#DejaVuSans-35" x="63.623047"/>
       <use xlink:href="#DejaVuSans-3a" x="127.246094"/>
       <use xlink:href="#DejaVuSans-30" x="160.9375"/>
       <use xlink:href="#DejaVuSans-30" x="224.560547"/>
      </g>
     </g>
    </g>
    <g id="xtick_9">
     <g id="line2d_29">
      <path d="M 288.343253 339.48 
L 288.343253 256.68 
" clip-path="url(#p8be124ae03)" style="fill: none; stroke-dasharray: 2.96,1.28; stroke-dashoffset: 0; stroke: #ffffff; stroke-width: 0.8"/>
     </g>
     <g id="line2d_30">
      <g>
       <use xlink:href="#m476b781555" x="288.343253" y="339.48" style="fill: #ffffff; stroke: #ffffff; stroke-width: 0.8"/>
      </g>
     </g>
     <g id="text_10">
      <!-- 10:00 -->
      <g style="fill: #ffffff" transform="translate(280.105459 372.23084) rotate(-45) scale(0.1 -0.1)">
       <defs>
        <path id="DejaVuSans-31" d="M 794 531 
L 1825 531 
L 1825 4091 
L 703 3866 
L 703 4441 
L 1819 4666 
L 2450 4666 
L 2450 531 
L 3481 531 
L 3481 0 
L 794 0 
L 794 531 
z
" transform="scale(0.015625)"/>
       </defs>
       <use xlink:href="#DejaVuSans-31"/>
       <use xlink:href="#DejaVuSans-30" x="63.623047"/>
       <use xlink:href="#DejaVuSans-3a" x="127.246094"/>
       <use xlink:href="#DejaVuSans-30" x="160.9375"/>
       <use xlink:href="#DejaVuSans-30" x="224.560547"/>
      </g>
     </g>
    </g>
    <g id="xtick_10">
     <g id="line2d_31">
      <path d="M 363.999076 339.48 
L 363.999076 256.68 
" clip-path="url(#p8be124ae03)" style="fill: none; stroke-dasharray: 2.96,1.28; stroke-dashoffset: 0; stroke: #ffffff; stroke-width: 0.8"/>
     </g>
     <g id="line2d_32">
      <g>
       <use xlink:href="#m476b781555" x="363.999076" y="339.48" style="fill: #ffffff; stroke: #ffffff; stroke-width: 0.8"/>
      </g>
     </g>
     <g id="text_11">
      <!-- 15:00 -->
      <g style="fill: #ffffff" transform="translate(355.761282 372.23084) rotate(-45) scale(0.1 -0.1)">
       <use xlink:href="#DejaVuSans-31"/>
       <use xlink:href="#DejaVuSans-35" x="63.623047"/>
       <use xlink:href="#DejaVuSans-3a" x="127.246094"/>
       <use xlink:href="#DejaVuSans-30" x="160.9375"/>
       <use xlink:href="#DejaVuSans-30" x="224.560547"/>
      </g>
     </g>
    </g>
    <g id="xtick_11">
     <g id="line2d_33">
      <path d="M 439.654898 339.48 
L 439.654898 256.68 
" clip-path="url(#p8be124ae03)" style="fill: none; stroke-dasharray: 2.96,1.28; stroke-dashoffset: 0; stroke: #ffffff; stroke-width: 0.8"/>
     </g>
     <g id="line2d_34">
      <g>
       <use xlink:href="#m476b781555" x="439.654898" y="339.48" style="fill: #ffffff; stroke: #ffffff; stroke-width: 0.8"/>
      </g>
     </g>
     <g id="text_12">
      <!-- 20:00 -->
      <g style="fill: #ffffff" transform="translate(431.417104 372.23084) rotate(-45) scale(0.1 -0.1)">
       <defs>
        <path id="DejaVuSans-32" d="M 1228 531 
L 3431 531 
L 3431 0 
L 469 0 
L 469 531 
Q 828 903 1448 1529 
Q 2069 2156 2228 2338 
Q 2531 2678 2651 2914 
Q 2772 3150 2772 3378 
Q 2772 3750 2511 3984 
Q 2250 4219 1831 4219 
Q 1534 4219 1204 4116 
Q 875 4013 500 3803 
L 500 4441 
Q 881 4594 1212 4672 
Q 1544 4750 1819 4750 
Q 2544 4750 2975 4387 
Q 3406 4025 3406 3419 
Q 3406 3131 3298 2873 
Q 3191 2616 2906 2266 
Q 2828 2175 2409 1742 
Q 1991 1309 1228 531 
z
" transform="scale(0.015625)"/>
       </defs>
       <use xlink:href="#DejaVuSans-32"/>
       <use xlink:href="#DejaVuSans-30" x="63.623047"/>
       <use xlink:href="#DejaVuSans-3a" x="127.246094"/>
       <use xlink:href="#DejaVuSans-30" x="160.9375"/>
       <use xlink:href="#DejaVuSans-30" x="224.560547"/>
      </g>
     </g>
    </g>
    <g id="xtick_12">
     <g id="line2d_35">
      <path d="M 515.310721 339.48 
L 515.310721 256.68 
" clip-path="url(#p8be124ae03)" style="fill: none; stroke-dasharray: 2.96,1.28; stroke-dashoffset: 0; stroke: #ffffff; stroke-width: 0.8"/>
     </g>
     <g id="line2d_36">
      <g>
       <use xlink:href="#m476b781555" x="515.310721" y="339.48" style="fill: #ffffff; stroke: #ffffff; stroke-width: 0.8"/>
      </g>
     </g>
    </g>
   </g>
   <g id="matplotlib.axis_4">
    <g id="ytick_7">
     <g id="line2d_37">
      <path d="M 103.68 322.638819 
L 518.4 322.638819 
" clip-path="url(#p8be124ae03)" style="fill: none; stroke-dasharray: 2.96,1.28; stroke-dashoffset: 0; stroke: #ffffff; stroke-width: 0.8"/>
     </g>
     <g id="line2d_38">
      <g>
       <use xlink:href="#m2443329ad2" x="518.4" y="322.638819" style="fill: #ffffff; stroke: #ffffff; stroke-width: 0.8"/>
      </g>
     </g>
     <g id="text_13">
      <!-- 100000 -->
      <g style="fill: #ffffff" transform="translate(525.4 326.438037) scale(0.1 -0.1)">
       <use xlink:href="#DejaVuSans-31"/>
       <use xlink:href="#DejaVuSans-30" x="63.623047"/>
       <use xlink:href="#DejaVuSans-30" x="127.246094"/>
       <use xlink:href="#DejaVuSans-30" x="190.869141"/>
       <use xlink:href="#DejaVuSans-30" x="254.492188"/>
       <use xlink:href="#DejaVuSans-30" x="318.115234"/>
      </g>
     </g>
    </g>
    <g id="ytick_8">
     <g id="line2d_39">
      <path d="M 103.68 301.69046 
L 518.4 301.69046 
" clip-path="url(#p8be124ae03)" style="fill: none; stroke-dasharray: 2.96,1.28; stroke-dashoffset: 0; stroke: #ffffff; stroke-width: 0.8"/>
     </g>
     <g id="line2d_40">
      <g>
       <use xlink:href="#m2443329ad2" x="518.4" y="301.69046" style="fill: #ffffff; stroke: #ffffff; stroke-width: 0.8"/>
      </g>
     </g>
     <g id="text_14">
      <!-- 200000 -->
      <g style="fill: #ffffff" transform="translate(525.4 305.489679) scale(0.1 -0.1)">
       <use xlink:href="#DejaVuSans-32"/>
       <use xlink:href="#DejaVuSans-30" x="63.623047"/>
       <use xlink:href="#DejaVuSans-30" x="127.246094"/>
       <use xlink:href="#DejaVuSans-30" x="190.869141"/>
       <use xlink:href="#DejaVuSans-30" x="254.492188"/>
       <use xlink:href="#DejaVuSans-30" x="318.115234"/>
      </g>
     </g>
    </g>
    <g id="ytick_9">
     <g id="line2d_41">
      <path d="M 103.68 280.742102 
L 518.4 280.742102 
" clip-path="url(#p8be124ae03)" style="fill: none; stroke-dasharray: 2.96,1.28; stroke-dashoffset: 0; stroke: #ffffff; stroke-width: 0.8"/>
     </g>
     <g id="line2d_42">
      <g>
       <use xlink:href="#m2443329ad2" x="518.4" y="280.742102" style="fill: #ffffff; stroke: #ffffff; stroke-width: 0.8"/>
      </g>
     </g>
     <g id="text_15">
      <!-- 300000 -->
      <g style="fill: #ffffff" transform="translate(525.4 284.54132) scale(0.1 -0.1)">
       <defs>
        <path id="DejaVuSans-33" d="M 2597 2516 
Q 3050 2419 3304 2112 
Q 3559 1806 3559 1356 
Q 3559 666 3084 287 
Q 2609 -91 1734 -91 
Q 1441 -91 1130 -33 
Q 819 25 488 141 
L 488 750 
Q 750 597 1062 519 
Q 1375 441 1716 441 
Q 2309 441 2620 675 
Q 2931 909 2931 1356 
Q 2931 1769 2642 2001 
Q 2353 2234 1838 2234 
L 1294 2234 
L 1294 2753 
L 1863 2753 
Q 2328 2753 2575 2939 
Q 2822 3125 2822 3475 
Q 2822 3834 2567 4026 
Q 2313 4219 1838 4219 
Q 1578 4219 1281 4162 
Q 984 4106 628 3988 
L 628 4550 
Q 988 4650 1302 4700 
Q 1616 4750 1894 4750 
Q 2613 4750 3031 4423 
Q 3450 4097 3450 3541 
Q 3450 3153 3228 2886 
Q 3006 2619 2597 2516 
z
" transform="scale(0.015625)"/>
       </defs>
       <use xlink:href="#DejaVuSans-33"/>
       <use xlink:href="#DejaVuSans-30" x="63.623047"/>
       <use xlink:href="#DejaVuSans-30" x="127.246094"/>
       <use xlink:href="#DejaVuSans-30" x="190.869141"/>
       <use xlink:href="#DejaVuSans-30" x="254.492188"/>
       <use xlink:href="#DejaVuSans-30" x="318.115234"/>
      </g>
     </g>
    </g>
    <g id="ytick_10">
     <g id="line2d_43">
      <path d="M 103.68 259.793743 
L 518.4 259.793743 
" clip-path="url(#p8be124ae03)" style="fill: none; stroke-dasharray: 2.96,1.28; stroke-dashoffset: 0; stroke: #ffffff; stroke-width: 0.8"/>
     </g>
     <g id="line2d_44">
      <g>
       <use xlink:href="#m2443329ad2" x="518.4" y="259.793743" style="fill: #ffffff; stroke: #ffffff; stroke-width: 0.8"/>
      </g>
     </g>
     <g id="text_16">
      <!-- 400000 -->
      <g style="fill: #ffffff" transform="translate(525.4 263.592962) scale(0.1 -0.1)">
       <defs>
        <path id="DejaVuSans-34" d="M 2419 4116 
L 825 1625 
L 2419 1625 
L 2419 4116 
z
M 2253 4666 
L 3047 4666 
L 3047 1625 
L 3713 1625 
L 3713 1100 
L 3047 1100 
L 3047 0 
L 2419 0 
L 2419 1100 
L 313 1100 
L 313 1709 
L 2253 4666 
z
" transform="scale(0.015625)"/>
       </defs>
       <use xlink:href="#DejaVuSans-34"/>
       <use xlink:href="#DejaVuSans-30" x="63.623047"/>
       <use xlink:href="#DejaVuSans-30" x="127.246094"/>
       <use xlink:href="#DejaVuSans-30" x="190.869141"/>
       <use xlink:href="#DejaVuSans-30" x="254.492188"/>
       <use xlink:href="#DejaVuSans-30" x="318.115234"/>
      </g>
     </g>
    </g>
    <g id="text_17">
     <!-- Volume -->
     <g style="fill: #ffffff" transform="translate(575.173437 316.676875) rotate(-90) scale(0.1 -0.1)">
      <defs>
       <path id="DejaVuSans-56" d="M 1831 0 
L 50 4666 
L 709 4666 
L 2188 738 
L 3669 4666 
L 4325 4666 
L 2547 0 
L 1831 0 
z
" transform="scale(0.015625)"/>
       <path id="DejaVuSans-6f" d="M 1959 3097 
Q 1497 3097 1228 2736 
Q 959 2375 959 1747 
Q 959 1119 1226 758 
Q 1494 397 1959 397 
Q 2419 397 2687 759 
Q 2956 1122 2956 1747 
Q 2956 2369 2687 2733 
Q 2419 3097 1959 3097 
z
M 1959 3584 
Q 2709 3584 3137 3096 
Q 3566 2609 3566 1747 
Q 3566 888 3137 398 
Q 2709 -91 1959 -91 
Q 1206 -91 779 398 
Q 353 888 353 1747 
Q 353 2609 779 3096 
Q 1206 3584 1959 3584 
z
" transform="scale(0.015625)"/>
       <path id="DejaVuSans-6c" d="M 603 4863 
L 1178 4863 
L 1178 0 
L 603 0 
L 603 4863 
z
" transform="scale(0.015625)"/>
       <path id="DejaVuSans-75" d="M 544 1381 
L 544 3500 
L 1119 3500 
L 1119 1403 
Q 1119 906 1312 657 
Q 1506 409 1894 409 
Q 2359 409 2629 706 
Q 2900 1003 2900 1516 
L 2900 3500 
L 3475 3500 
L 3475 0 
L 2900 0 
L 2900 538 
Q 2691 219 2414 64 
Q 2138 -91 1772 -91 
Q 1169 -91 856 284 
Q 544 659 544 1381 
z
M 1991 3584 
L 1991 3584 
z
" transform="scale(0.015625)"/>
       <path id="DejaVuSans-6d" d="M 3328 2828 
Q 3544 3216 3844 3400 
Q 4144 3584 4550 3584 
Q 5097 3584 5394 3201 
Q 5691 2819 5691 2113 
L 5691 0 
L 5113 0 
L 5113 2094 
Q 5113 2597 4934 2840 
Q 4756 3084 4391 3084 
Q 3944 3084 3684 2787 
Q 3425 2491 3425 1978 
L 3425 0 
L 2847 0 
L 2847 2094 
Q 2847 2600 2669 2842 
Q 2491 3084 2119 3084 
Q 1678 3084 1418 2786 
Q 1159 2488 1159 1978 
L 1159 0 
L 581 0 
L 581 3500 
L 1159 3500 
L 1159 2956 
Q 1356 3278 1631 3431 
Q 1906 3584 2284 3584 
Q 2666 3584 2933 3390 
Q 3200 3197 3328 2828 
z
" transform="scale(0.015625)"/>
      </defs>
      <use xlink:href="#DejaVuSans-56"/>
      <use xlink:href="#DejaVuSans-6f" x="60.658203"/>
      <use xlink:href="#DejaVuSans-6c" x="121.839844"/>
      <use xlink:href="#DejaVuSans-75" x="149.623047"/>
      <use xlink:href="#DejaVuSans-6d" x="213.001953"/>
      <use xlink:href="#DejaVuSans-65" x="310.414062"/>
     </g>
    </g>
   </g>
   <g id="patch_8">
    <path d="M 129.617338 343.587177 
L 144.445879 343.587177 
L 144.445879 323.939921 
L 129.617338 323.939921 
z
" clip-path="url(#p8be124ae03)" style="fill: #247252; stroke: #20674a; stroke-width: 0.65; stroke-linejoin: miter"/>
   </g>
   <g id="patch_9">
    <path d="M 144.748502 343.587177 
L 159.577043 343.587177 
L 159.577043 322.390162 
L 144.748502 322.390162 
z
" clip-path="url(#p8be124ae03)" style="fill: #82333f; stroke: #752e39; stroke-width: 0.65; stroke-linejoin: miter"/>
   </g>
   <g id="patch_10">
    <path d="M 159.879667 343.587177 
L 174.708208 343.587177 
L 174.708208 325.026722 
L 159.879667 325.026722 
z
" clip-path="url(#p8be124ae03)" style="fill: #247252; stroke: #20674a; stroke-width: 0.65; stroke-linejoin: miter"/>
   </g>
   <g id="patch_11">
    <path d="M 175.010831 343.587177 
L 189.839372 343.587177 
L 189.839372 316.222755 
L 175.010831 316.222755 
z
" clip-path="url(#p8be124ae03)" style="fill: #247252; stroke: #20674a; stroke-width: 0.65; stroke-linejoin: miter"/>
   </g>
   <g id="patch_12">
    <path d="M 190.141996 343.587177 
L 204.970537 343.587177 
L 204.970537 323.492883 
L 190.141996 323.492883 
z
" clip-path="url(#p8be124ae03)" style="fill: #82333f; stroke: #752e39; stroke-width: 0.65; stroke-linejoin: miter"/>
   </g>
   <g id="patch_13">
    <path d="M 205.27316 343.587177 
L 220.101701 343.587177 
L 220.101701 326.046698 
L 205.27316 326.046698 
z
" clip-path="url(#p8be124ae03)" style="fill: #247252; stroke: #20674a; stroke-width: 0.65; stroke-linejoin: miter"/>
   </g>
   <g id="patch_14">
    <path d="M 220.404325 343.587177 
L 235.232866 343.587177 
L 235.232866 312.68772 
L 220.404325 312.68772 
z
" clip-path="url(#p8be124ae03)" style="fill: #247252; stroke: #20674a; stroke-width: 0.65; stroke-linejoin: miter"/>
   </g>
   <g id="patch_15">
    <path d="M 235.535489 343.587177 
L 250.36403 343.587177 
L 250.36403 291.539514 
L 235.535489 291.539514 
z
" clip-path="url(#p8be124ae03)" style="fill: #247252; stroke: #20674a; stroke-width: 0.65; stroke-linejoin: miter"/>
   </g>
   <g id="patch_16">
    <path d="M 250.666654 343.587177 
L 265.495195 343.587177 
L 265.495195 310.129925 
L 250.666654 310.129925 
z
" clip-path="url(#p8be124ae03)" style="fill: #82333f; stroke: #752e39; stroke-width: 0.65; stroke-linejoin: miter"/>
   </g>
   <g id="patch_17">
    <path d="M 265.797818 343.587177 
L 280.626359 343.587177 
L 280.626359 318.524351 
L 265.797818 318.524351 
z
" clip-path="url(#p8be124ae03)" style="fill: #247252; stroke: #20674a; stroke-width: 0.65; stroke-linejoin: miter"/>
   </g>
   <g id="patch_18">
    <path d="M 280.928983 343.587177 
L 295.757524 343.587177 
L 295.757524 318.907916 
L 280.928983 318.907916 
z
" clip-path="url(#p8be124ae03)" style="fill: #247252; stroke: #20674a; stroke-width: 0.65; stroke-linejoin: miter"/>
   </g>
   <g id="patch_19">
    <path d="M 296.060147 343.587177 
L 310.888688 343.587177 
L 310.888688 317.885217 
L 296.060147 317.885217 
z
" clip-path="url(#p8be124ae03)" style="fill: #82333f; stroke: #752e39; stroke-width: 0.65; stroke-linejoin: miter"/>
   </g>
   <g id="patch_20">
    <path d="M 311.191312 343.587177 
L 326.019853 343.587177 
L 326.019853 307.655715 
L 311.191312 307.655715 
z
" clip-path="url(#p8be124ae03)" style="fill: #247252; stroke: #20674a; stroke-width: 0.65; stroke-linejoin: miter"/>
   </g>
   <g id="patch_21">
    <path d="M 326.322476 343.587177 
L 341.151017 343.587177 
L 341.151017 287.759383 
L 326.322476 287.759383 
z
" clip-path="url(#p8be124ae03)" style="fill: #82333f; stroke: #752e39; stroke-width: 0.65; stroke-linejoin: miter"/>
   </g>
   <g id="patch_22">
    <path d="M 341.453641 343.587177 
L 356.282182 343.587177 
L 356.282182 293.616334 
L 341.453641 293.616334 
z
" clip-path="url(#p8be124ae03)" style="fill: #247252; stroke: #20674a; stroke-width: 0.65; stroke-linejoin: miter"/>
   </g>
   <g id="patch_23">
    <path d="M 356.584805 343.587177 
L 371.413346 343.587177 
L 371.413346 264.580652 
L 356.584805 264.580652 
z
" clip-path="url(#p8be124ae03)" style="fill: #247252; stroke: #20674a; stroke-width: 0.65; stroke-linejoin: miter"/>
   </g>
   <g id="patch_24">
    <path d="M 371.71597 343.587177 
L 386.544511 343.587177 
L 386.544511 299.955098 
L 371.71597 299.955098 
z
" clip-path="url(#p8be124ae03)" style="fill: #82333f; stroke: #752e39; stroke-width: 0.65; stroke-linejoin: miter"/>
   </g>
   <g id="patch_25">
    <path d="M 386.847134 343.587177 
L 401.675675 343.587177 
L 401.675675 308.804313 
L 386.847134 308.804313 
z
" clip-path="url(#p8be124ae03)" style="fill: #82333f; stroke: #752e39; stroke-width: 0.65; stroke-linejoin: miter"/>
   </g>
   <g id="patch_26">
    <path d="M 401.978299 343.587177 
L 416.80684 343.587177 
L 416.80684 302.452352 
L 401.978299 302.452352 
z
" clip-path="url(#p8be124ae03)" style="fill: #247252; stroke: #20674a; stroke-width: 0.65; stroke-linejoin: miter"/>
   </g>
   <g id="patch_27">
    <path d="M 417.109463 343.587177 
L 431.938004 343.587177 
L 431.938004 311.355195 
L 417.109463 311.355195 
z
" clip-path="url(#p8be124ae03)" style="fill: #247252; stroke: #20674a; stroke-width: 0.65; stroke-linejoin: miter"/>
   </g>
   <g id="patch_28">
    <path d="M 432.240628 343.587177 
L 447.069169 343.587177 
L 447.069169 324.273 
L 432.240628 324.273 
z
" clip-path="url(#p8be124ae03)" style="fill: #82333f; stroke: #752e39; stroke-width: 0.65; stroke-linejoin: miter"/>
   </g>
   <g id="patch_29">
    <path d="M 447.371792 343.587177 
L 462.200333 343.587177 
L 462.200333 329.896587 
L 447.371792 329.896587 
z
" clip-path="url(#p8be124ae03)" style="fill: #82333f; stroke: #752e39; stroke-width: 0.65; stroke-linejoin: miter"/>
   </g>
   <g id="patch_30">
    <path d="M 462.502957 343.587177 
L 477.331498 343.587177 
L 477.331498 329.18958 
L 462.502957 329.18958 
z
" clip-path="url(#p8be124ae03)" style="fill: #82333f; stroke: #752e39; stroke-width: 0.65; stroke-linejoin: miter"/>
   </g>
   <g id="patch_31">
    <path d="M 477.634121 343.587177 
L 492.462662 343.587177 
L 492.462662 325.396879 
L 477.634121 325.396879 
z
" clip-path="url(#p8be124ae03)" style="fill: #247252; stroke: #20674a; stroke-width: 0.65; stroke-linejoin: miter"/>
   </g>
   <g id="patch_32">
    <path d="M 103.68 339.48 
L 103.68 256.68 
" style="fill: none; stroke: #474d56; stroke-width: 0.8; stroke-linejoin: miter; stroke-linecap: square"/>
   </g>
   <g id="patch_33">
    <path d="M 518.4 339.48 
L 518.4 256.68 
" style="fill: none; stroke: #474d56; stroke-width: 0.8; stroke-linejoin: miter; stroke-linecap: square"/>
   </g>
   <g id="patch_34">
    <path d="M 103.68 339.48 
L 518.4 339.48 
" style="fill: none; stroke: #474d56; stroke-width: 0.8; stroke-linejoin: miter; stroke-linecap: square"/>
   </g>
   <g id="patch_35">
    <path d="M 103.68 256.68 
L 518.4 256.68 
" style="fill: none; stroke: #474d56; stroke-width: 0.8; stroke-linejoin: miter; stroke-linecap: square"/>
   </g>
  </g>
  <g id="text_18">
   <!-- BTC - day 1 -->
   <g style="fill: #ffffff" transform="translate(242.31825 12.19725) scale(0.144 -0.144)">
    <defs>
     <path id="DejaVuSans-Bold-42" d="M 2456 2859 
Q 2741 2859 2887 2984 
Q 3034 3109 3034 3353 
Q 3034 3594 2887 3720 
Q 2741 3847 2456 3847 
L 1791 3847 
L 1791 2859 
L 2456 2859 
z
M 2497 819 
Q 2859 819 3042 972 
Q 3225 1125 3225 1434 
Q 3225 1738 3044 1889 
Q 2863 2041 2497 2041 
L 1791 2041 
L 1791 819 
L 2497 819 
z
M 3616 2497 
Q 4003 2384 4215 2081 
Q 4428 1778 4428 1338 
Q 4428 663 3972 331 
Q 3516 0 2584 0 
L 588 0 
L 588 4666 
L 2394 4666 
Q 3366 4666 3802 4372 
Q 4238 4078 4238 3431 
Q 4238 3091 4078 2852 
Q 3919 2613 3616 2497 
z
" transform="scale(0.015625)"/>
     <path id="DejaVuSans-Bold-54" d="M 31 4666 
L 4331 4666 
L 4331 3756 
L 2784 3756 
L 2784 0 
L 1581 0 
L 1581 3756 
L 31 3756 
L 31 4666 
z
" transform="scale(0.015625)"/>
     <path id="DejaVuSans-Bold-43" d="M 4288 256 
Q 3956 84 3597 -3 
Q 3238 -91 2847 -91 
Q 1681 -91 1000 561 
Q 319 1213 319 2328 
Q 319 3447 1000 4098 
Q 1681 4750 2847 4750 
Q 3238 4750 3597 4662 
Q 3956 4575 4288 4403 
L 4288 3438 
Q 3953 3666 3628 3772 
Q 3303 3878 2944 3878 
Q 2300 3878 1931 3465 
Q 1563 3053 1563 2328 
Q 1563 1606 1931 1193 
Q 2300 781 2944 781 
Q 3303 781 3628 887 
Q 3953 994 4288 1222 
L 4288 256 
z
" transform="scale(0.015625)"/>
     <path id="DejaVuSans-Bold-20" transform="scale(0.015625)"/>
     <path id="DejaVuSans-Bold-2d" d="M 347 2297 
L 2309 2297 
L 2309 1388 
L 347 1388 
L 347 2297 
z
" transform="scale(0.015625)"/>
     <path id="DejaVuSans-Bold-64" d="M 2919 2988 
L 2919 4863 
L 4044 4863 
L 4044 0 
L 2919 0 
L 2919 506 
Q 2688 197 2409 53 
Q 2131 -91 1766 -91 
Q 1119 -91 703 423 
Q 288 938 288 1747 
Q 288 2556 703 3070 
Q 1119 3584 1766 3584 
Q 2128 3584 2408 3439 
Q 2688 3294 2919 2988 
z
M 2181 722 
Q 2541 722 2730 984 
Q 2919 1247 2919 1747 
Q 2919 2247 2730 2509 
Q 2541 2772 2181 2772 
Q 1825 2772 1636 2509 
Q 1447 2247 1447 1747 
Q 1447 1247 1636 984 
Q 1825 722 2181 722 
z
" transform="scale(0.015625)"/>
     <path id="DejaVuSans-Bold-61" d="M 2106 1575 
Q 1756 1575 1579 1456 
Q 1403 1338 1403 1106 
Q 1403 894 1545 773 
Q 1688 653 1941 653 
Q 2256 653 2472 879 
Q 2688 1106 2688 1447 
L 2688 1575 
L 2106 1575 
z
M 3816 1997 
L 3816 0 
L 2688 0 
L 2688 519 
Q 2463 200 2181 54 
Q 1900 -91 1497 -91 
Q 953 -91 614 226 
Q 275 544 275 1050 
Q 275 1666 698 1953 
Q 1122 2241 2028 2241 
L 2688 2241 
L 2688 2328 
Q 2688 2594 2478 2717 
Q 2269 2841 1825 2841 
Q 1466 2841 1156 2769 
Q 847 2697 581 2553 
L 581 3406 
Q 941 3494 1303 3539 
Q 1666 3584 2028 3584 
Q 2975 3584 3395 3211 
Q 3816 2838 3816 1997 
z
" transform="scale(0.015625)"/>
     <path id="DejaVuSans-Bold-79" d="M 78 3500 
L 1197 3500 
L 2138 1125 
L 2938 3500 
L 4056 3500 
L 2584 -331 
Q 2363 -916 2067 -1148 
Q 1772 -1381 1288 -1381 
L 641 -1381 
L 641 -647 
L 991 -647 
Q 1275 -647 1404 -556 
Q 1534 -466 1606 -231 
L 1638 -134 
L 78 3500 
z
" transform="scale(0.015625)"/>
     <path id="DejaVuSans-Bold-31" d="M 750 831 
L 1813 831 
L 1813 3847 
L 722 3622 
L 722 4441 
L 1806 4666 
L 2950 4666 
L 2950 831 
L 4013 831 
L 4013 0 
L 750 0 
L 750 831 
z
" transform="scale(0.015625)"/>
    </defs>
    <use xlink:href="#DejaVuSans-Bold-42"/>
    <use xlink:href="#DejaVuSans-Bold-54" x="76.220703"/>
    <use xlink:href="#DejaVuSans-Bold-43" x="144.433594"/>
    <use xlink:href="#DejaVuSans-Bold-20" x="217.822266"/>
    <use xlink:href="#DejaVuSans-Bold-2d" x="252.636719"/>
    <use xlink:href="#DejaVuSans-Bold-20" x="294.140625"/>
    <use xlink:href="#DejaVuSans-Bold-64" x="328.955078"/>
    <use xlink:href="#DejaVuSans-Bold-61" x="400.537109"/>
    <use xlink:href="#DejaVuSans-Bold-79" x="464.892578"/>
    <use xlink:href="#DejaVuSans-Bold-20" x="530.078125"/>
    <use xlink:href="#DejaVuSans-Bold-31" x="564.892578"/>
   </g>
  </g>
 </g>
 <defs>
  <clipPath id="pa2f464f4a2">
   <rect x="103.68" y="49.68" width="414.72" height="207"/>
  </clipPath>
  <clipPath id="p8be124ae03">
   <rect x="103.68" y="256.68" width="414.72" height="82.8"/>
  </clipPath>
 </defs>
</svg>
