<?xml version="1.0" encoding="utf-8" standalone="no"?>
<!DOCTYPE svg PUBLIC "-//W3C//DTD SVG 1.1//EN"
  "http://www.w3.org/Graphics/SVG/1.1/DTD/svg11.dtd">
<svg xmlns:xlink="http://www.w3.org/1999/xlink" width="576pt" height="414pt" viewBox="0 0 576 414" xmlns="http://www.w3.org/2000/svg" version="1.1">
 <metadata>
  <rdf:RDF xmlns:dc="http://purl.org/dc/elements/1.1/" xmlns:cc="http://creativecommons.org/ns#" xmlns:rdf="http://www.w3.org/1999/02/22-rdf-syntax-ns#">
   <cc:Work>
    <dc:type rdf:resource="http://purl.org/dc/dcmitype/StillImage"/>
    <dc:date>2024-05-25T21:00:41.650241</dc:date>
    <dc:format>image/svg+xml</dc:format>
    <dc:creator>
     <cc:Agent>
      <dc:title>Matplotlib v3.9.0, https://matplotlib.org/</dc:title>
     </cc:Agent>
    </dc:creator>
   </cc:Work>
  </rdf:RDF>
 </metadata>
 <defs>
  <style type="text/css">*{stroke-linejoin: round; stroke-linecap: butt}</style>
 </defs>
 <g id="figure_1">
  <g id="patch_1">
   <path d="M 0 414 
L 576 414 
L 576 0 
L 0 0 
z
" style="fill: #ffffff"/>
  </g>
  <g id="axes_1">
   <g id="patch_2">
    <path d="M 103.68 256.68 
L 518.4 256.68 
L 518.4 49.68 
L 103.68 49.68 
z
" style="fill: #ffffff"/>
   </g>
   <g id="matplotlib.axis_1">
    <g id="xtick_1">
     <g id="line2d_1">
      <path d="M 137.031608 256.68 
L 137.031608 49.68 
" clip-path="url(#pccff516a14)" style="fill: none; stroke-dasharray: 2.96,1.28; stroke-dashoffset: 0; stroke: #d0d0d0; stroke-width: 0.8"/>
     </g>
     <g id="line2d_2"/>
    </g>
    <g id="xtick_2">
     <g id="line2d_3">
      <path d="M 212.687431 256.68 
L 212.687431 49.68 
" clip-path="url(#pccff516a14)" style="fill: none; stroke-dasharray: 2.96,1.28; stroke-dashoffset: 0; stroke: #d0d0d0; stroke-width: 0.8"/>
     </g>
     <g id="line2d_4"/>
    </g>
    <g id="xtick_3">
     <g id="line2d_5">
      <path d="M 288.343253 256.68 
L 288.343253 49.68 
" clip-path="url(#pccff516a14)" style="fill: none; stroke-dasharray: 2.96,1.28; stroke-dashoffset: 0; stroke: #d0d0d0; stroke-width: 0.8"/>
     </g>
     <g id="line2d_6"/>
    </g>
    <g id="xtick_4">
     <g id="line2d_7">
      <path d="M 363.999076 256.68 
L 363.999076 49.68 
" clip-path="url(#pccff516a14)" style="fill: none; stroke-dasharray: 2.96,1.28; stroke-dashoffset: 0; stroke: #d0d0d0; stroke-width: 0.8"/>
     </g>
     <g id="line2d_8"/>
    </g>
    <g id="xtick_5">
     <g id="line2d_9">
      <path d="M 439.654898 256.68 
L 439.654898 49.68 
" clip-path="url(#pccff516a14)" style="fill: none; stroke-dasharray: 2.96,1.28; stroke-dashoffset: 0; stroke: #d0d0d0; stroke-width: 0.8"/>
     </g>
     <g id="line2d_10"/>
    </g>
    <g id="xtick_6">
     <g id="line2d_11">
      <path d="M 515.310721 256.68 
L 515.310721 49.68 
" clip-path="url(#pccff516a14)" style="fill: none; stroke-dasharray: 2.96,1.28; stroke-dashoffset: 0; stroke: #d0d0d0; stroke-width: 0.8"/>
     </g>
     <g id="line2d_12"/>
    </g>
   </g>
   <g id="matplotlib.axis_2">
    <g id="ytick_1">
     <g id="line2d_13">
      <path d="M 103.68 253.435949 
L 518.4 253.435949 
" clip-path="url(#pccff516a14)" style="fill: none; stroke-dasharray: 2.96,1.28; stroke-dashoffset: 0; stroke: #d0d0d0; stroke-width: 0.8"/>
     </g>
     <g id="line2d_14"/>
     <g id="text_1">
      <!-- 65000 -->
      <g style="fill: #262626" transform="translate(66.814375 257.730636) scale(0.12 -0.12)">
       <defs>
        <path id="ArialMT-36" d="M 3184 3459 
L 2625 3416 
Q 2550 3747 2413 3897 
Q 2184 4138 1850 4138 
Q 1581 4138 1378 3988 
Q 1113 3794 959 3422 
Q 806 3050 800 2363 
Q 1003 2672 1297 2822 
Q 1591 2972 1913 2972 
Q 2475 2972 2870 2558 
Q 3266 2144 3266 1488 
Q 3266 1056 3080 686 
Q 2894 316 2569 119 
Q 2244 -78 1831 -78 
Q 1128 -78 684 439 
Q 241 956 241 2144 
Q 241 3472 731 4075 
Q 1159 4600 1884 4600 
Q 2425 4600 2770 4297 
Q 3116 3994 3184 3459 
z
M 888 1484 
Q 888 1194 1011 928 
Q 1134 663 1356 523 
Q 1578 384 1822 384 
Q 2178 384 2434 671 
Q 2691 959 2691 1453 
Q 2691 1928 2437 2201 
Q 2184 2475 1800 2475 
Q 1419 2475 1153 2201 
Q 888 1928 888 1484 
z
" transform="scale(0.015625)"/>
        <path id="ArialMT-35" d="M 266 1200 
L 856 1250 
Q 922 819 1161 601 
Q 1400 384 1738 384 
Q 2144 384 2425 690 
Q 2706 997 2706 1503 
Q 2706 1984 2436 2262 
Q 2166 2541 1728 2541 
Q 1456 2541 1237 2417 
Q 1019 2294 894 2097 
L 366 2166 
L 809 4519 
L 3088 4519 
L 3088 3981 
L 1259 3981 
L 1013 2750 
Q 1425 3038 1878 3038 
Q 2478 3038 2890 2622 
Q 3303 2206 3303 1553 
Q 3303 931 2941 478 
Q 2500 -78 1738 -78 
Q 1113 -78 717 272 
Q 322 622 266 1200 
z
" transform="scale(0.015625)"/>
        <path id="ArialMT-30" d="M 266 2259 
Q 266 3072 433 3567 
Q 600 4063 929 4331 
Q 1259 4600 1759 4600 
Q 2128 4600 2406 4451 
Q 2684 4303 2865 4023 
Q 3047 3744 3150 3342 
Q 3253 2941 3253 2259 
Q 3253 1453 3087 958 
Q 2922 463 2592 192 
Q 2263 -78 1759 -78 
Q 1097 -78 719 397 
Q 266 969 266 2259 
z
M 844 2259 
Q 844 1131 1108 757 
Q 1372 384 1759 384 
Q 2147 384 2411 759 
Q 2675 1134 2675 2259 
Q 2675 3391 2411 3762 
Q 2147 4134 1753 4134 
Q 1366 4134 1134 3806 
Q 844 3388 844 2259 
z
" transform="scale(0.015625)"/>
       </defs>
       <use xlink:href="#ArialMT-36"/>
       <use xlink:href="#ArialMT-35" x="55.615234"/>
       <use xlink:href="#ArialMT-30" x="111.230469"/>
       <use xlink:href="#ArialMT-30" x="166.845703"/>
       <use xlink:href="#ArialMT-30" x="222.460938"/>
      </g>
     </g>
    </g>
    <g id="ytick_2">
     <g id="line2d_15">
      <path d="M 103.68 213.94178 
L 518.4 213.94178 
" clip-path="url(#pccff516a14)" style="fill: none; stroke-dasharray: 2.96,1.28; stroke-dashoffset: 0; stroke: #d0d0d0; stroke-width: 0.8"/>
     </g>
     <g id="line2d_16"/>
     <g id="text_2">
      <!-- 65500 -->
      <g style="fill: #262626" transform="translate(66.814375 218.236467) scale(0.12 -0.12)">
       <use xlink:href="#ArialMT-36"/>
       <use xlink:href="#ArialMT-35" x="55.615234"/>
       <use xlink:href="#ArialMT-35" x="111.230469"/>
       <use xlink:href="#ArialMT-30" x="166.845703"/>
       <use xlink:href="#ArialMT-30" x="222.460938"/>
      </g>
     </g>
    </g>
    <g id="ytick_3">
     <g id="line2d_17">
      <path d="M 103.68 174.44761 
L 518.4 174.44761 
" clip-path="url(#pccff516a14)" style="fill: none; stroke-dasharray: 2.96,1.28; stroke-dashoffset: 0; stroke: #d0d0d0; stroke-width: 0.8"/>
     </g>
     <g id="line2d_18"/>
     <g id="text_3">
      <!-- 66000 -->
      <g style="fill: #262626" transform="translate(66.814375 178.742298) scale(0.12 -0.12)">
       <use xlink:href="#ArialMT-36"/>
       <use xlink:href="#ArialMT-36" x="55.615234"/>
       <use xlink:href="#ArialMT-30" x="111.230469"/>
       <use xlink:href="#ArialMT-30" x="166.845703"/>
       <use xlink:href="#ArialMT-30" x="222.460938"/>
      </g>
     </g>
    </g>
    <g id="ytick_4">
     <g id="line2d_19">
      <path d="M 103.68 134.953441 
L 518.4 134.953441 
" clip-path="url(#pccff516a14)" style="fill: none; stroke-dasharray: 2.96,1.28; stroke-dashoffset: 0; stroke: #d0d0d0; stroke-width: 0.8"/>
     </g>
     <g id="line2d_20"/>
     <g id="text_4">
      <!-- 66500 -->
      <g style="fill: #262626" transform="translate(66.814375 139.248128) scale(0.12 -0.12)">
       <use xlink:href="#ArialMT-36"/>
       <use xlink:href="#ArialMT-36" x="55.615234"/>
       <use xlink:href="#ArialMT-35" x="111.230469"/>
       <use xlink:href="#ArialMT-30" x="166.845703"/>
       <use xlink:href="#ArialMT-30" x="222.460938"/>
      </g>
     </g>
    </g>
    <g id="ytick_5">
     <g id="line2d_21">
      <path d="M 103.68 95.459271 
L 518.4 95.459271 
" clip-path="url(#pccff516a14)" style="fill: none; stroke-dasharray: 2.96,1.28; stroke-dashoffset: 0; stroke: #d0d0d0; stroke-width: 0.8"/>
     </g>
     <g id="line2d_22"/>
     <g id="text_5">
      <!-- 67000 -->
      <g style="fill: #262626" transform="translate(66.814375 99.753959) scale(0.12 -0.12)">
       <defs>
        <path id="ArialMT-37" d="M 303 3981 
L 303 4522 
L 3269 4522 
L 3269 4084 
Q 2831 3619 2401 2847 
Q 1972 2075 1738 1259 
Q 1569 684 1522 0 
L 944 0 
Q 953 541 1156 1306 
Q 1359 2072 1739 2783 
Q 2119 3494 2547 3981 
L 303 3981 
z
" transform="scale(0.015625)"/>
       </defs>
       <use xlink:href="#ArialMT-36"/>
       <use xlink:href="#ArialMT-37" x="55.615234"/>
       <use xlink:href="#ArialMT-30" x="111.230469"/>
       <use xlink:href="#ArialMT-30" x="166.845703"/>
       <use xlink:href="#ArialMT-30" x="222.460938"/>
      </g>
     </g>
    </g>
    <g id="ytick_6">
     <g id="line2d_23">
      <path d="M 103.68 55.965102 
L 518.4 55.965102 
" clip-path="url(#pccff516a14)" style="fill: none; stroke-dasharray: 2.96,1.28; stroke-dashoffset: 0; stroke: #d0d0d0; stroke-width: 0.8"/>
     </g>
     <g id="line2d_24"/>
     <g id="text_6">
      <!-- 67500 -->
      <g style="fill: #262626" transform="translate(66.814375 60.25979) scale(0.12 -0.12)">
       <use xlink:href="#ArialMT-36"/>
       <use xlink:href="#ArialMT-37" x="55.615234"/>
       <use xlink:href="#ArialMT-35" x="111.230469"/>
       <use xlink:href="#ArialMT-30" x="166.845703"/>
       <use xlink:href="#ArialMT-30" x="222.460938"/>
      </g>
     </g>
    </g>
    <g id="text_7">
     <!-- Price -->
     <g style="fill: #262626" transform="translate(60.44625 167.8575) rotate(-90) scale(0.12 -0.12)">
      <defs>
       <path id="Arial-BoldMT-50" d="M 466 0 
L 466 4581 
L 1950 4581 
Q 2794 4581 3050 4513 
Q 3444 4409 3709 4064 
Q 3975 3719 3975 3172 
Q 3975 2750 3822 2462 
Q 3669 2175 3433 2011 
Q 3197 1847 2953 1794 
Q 2622 1728 1994 1728 
L 1391 1728 
L 1391 0 
L 466 0 
z
M 1391 3806 
L 1391 2506 
L 1897 2506 
Q 2444 2506 2628 2578 
Q 2813 2650 2917 2803 
Q 3022 2956 3022 3159 
Q 3022 3409 2875 3571 
Q 2728 3734 2503 3775 
Q 2338 3806 1838 3806 
L 1391 3806 
z
" transform="scale(0.015625)"/>
       <path id="Arial-BoldMT-72" d="M 1300 0 
L 422 0 
L 422 3319 
L 1238 3319 
L 1238 2847 
Q 1447 3181 1614 3287 
Q 1781 3394 1994 3394 
Q 2294 3394 2572 3228 
L 2300 2463 
Q 2078 2606 1888 2606 
Q 1703 2606 1575 2504 
Q 1447 2403 1373 2137 
Q 1300 1872 1300 1025 
L 1300 0 
z
" transform="scale(0.015625)"/>
       <path id="Arial-BoldMT-69" d="M 459 3769 
L 459 4581 
L 1338 4581 
L 1338 3769 
L 459 3769 
z
M 459 0 
L 459 3319 
L 1338 3319 
L 1338 0 
L 459 0 
z
" transform="scale(0.015625)"/>
       <path id="Arial-BoldMT-63" d="M 3353 2338 
L 2488 2181 
Q 2444 2441 2289 2572 
Q 2134 2703 1888 2703 
Q 1559 2703 1364 2476 
Q 1169 2250 1169 1719 
Q 1169 1128 1367 884 
Q 1566 641 1900 641 
Q 2150 641 2309 783 
Q 2469 925 2534 1272 
L 3397 1125 
Q 3263 531 2881 228 
Q 2500 -75 1859 -75 
Q 1131 -75 698 384 
Q 266 844 266 1656 
Q 266 2478 700 2936 
Q 1134 3394 1875 3394 
Q 2481 3394 2839 3133 
Q 3197 2872 3353 2338 
z
" transform="scale(0.015625)"/>
       <path id="Arial-BoldMT-65" d="M 2381 1056 
L 3256 909 
Q 3088 428 2723 176 
Q 2359 -75 1813 -75 
Q 947 -75 531 491 
Q 203 944 203 1634 
Q 203 2459 634 2926 
Q 1066 3394 1725 3394 
Q 2466 3394 2894 2905 
Q 3322 2416 3303 1406 
L 1103 1406 
Q 1113 1016 1316 798 
Q 1519 581 1822 581 
Q 2028 581 2168 693 
Q 2309 806 2381 1056 
z
M 2431 1944 
Q 2422 2325 2234 2523 
Q 2047 2722 1778 2722 
Q 1491 2722 1303 2513 
Q 1116 2303 1119 1944 
L 2431 1944 
z
" transform="scale(0.015625)"/>
      </defs>
      <use xlink:href="#Arial-BoldMT-50"/>
      <use xlink:href="#Arial-BoldMT-72" x="66.699219"/>
      <use xlink:href="#Arial-BoldMT-69" x="105.615234"/>
      <use xlink:href="#Arial-BoldMT-63" x="133.398438"/>
      <use xlink:href="#Arial-BoldMT-65" x="189.013672"/>
     </g>
    </g>
   </g>
   <g id="PolyCollection_1">
    <path d="M 132.11398 236.694371 
L 132.11398 216.315379 
L 141.949237 216.315379 
L 141.949237 236.694371 
z
" clip-path="url(#pccff516a14)" style="fill: #70a800; fill-opacity: 0.9; stroke: #70a800"/>
    <path d="M 147.245144 216.315379 
L 147.245144 228.495381 
L 157.080401 228.495381 
L 157.080401 216.315379 
z
" clip-path="url(#pccff516a14)" style="fill: #ea0070; fill-opacity: 0.9; stroke: #ea0070"/>
    <path d="M 162.376309 228.495381 
L 162.376309 224.854019 
L 172.211566 224.854019 
L 172.211566 228.495381 
z
" clip-path="url(#pccff516a14)" style="fill: #70a800; fill-opacity: 0.9; stroke: #70a800"/>
    <path d="M 177.507473 224.854019 
L 177.507473 209.230125 
L 187.34273 209.230125 
L 187.34273 224.854019 
z
" clip-path="url(#pccff516a14)" style="fill: #70a800; fill-opacity: 0.9; stroke: #70a800"/>
    <path d="M 192.638638 209.230125 
L 192.638638 220.383279 
L 202.473895 220.383279 
L 202.473895 209.230125 
z
" clip-path="url(#pccff516a14)" style="fill: #ea0070; fill-opacity: 0.9; stroke: #ea0070"/>
    <path d="M 207.769802 220.383279 
L 207.769802 199.862108 
L 217.605059 199.862108 
L 217.605059 220.383279 
z
" clip-path="url(#pccff516a14)" style="fill: #70a800; fill-opacity: 0.9; stroke: #70a800"/>
    <path d="M 222.900967 199.862108 
L 222.900967 180.573156 
L 232.736224 180.573156 
L 232.736224 199.862108 
z
" clip-path="url(#pccff516a14)" style="fill: #70a800; fill-opacity: 0.9; stroke: #70a800"/>
    <path d="M 238.032131 180.573156 
L 238.032131 143.922567 
L 247.867388 143.922567 
L 247.867388 180.573156 
z
" clip-path="url(#pccff516a14)" style="fill: #70a800; fill-opacity: 0.9; stroke: #70a800"/>
    <path d="M 253.163296 143.922567 
L 253.163296 164.175177 
L 262.998553 164.175177 
L 262.998553 143.922567 
z
" clip-path="url(#pccff516a14)" style="fill: #ea0070; fill-opacity: 0.9; stroke: #ea0070"/>
    <path d="M 268.29446 164.175177 
L 268.29446 148.78035 
L 278.129717 148.78035 
L 278.129717 164.175177 
z
" clip-path="url(#pccff516a14)" style="fill: #70a800; fill-opacity: 0.9; stroke: #70a800"/>
    <path d="M 283.425625 148.78035 
L 283.425625 135.383927 
L 293.260882 135.383927 
L 293.260882 148.78035 
z
" clip-path="url(#pccff516a14)" style="fill: #70a800; fill-opacity: 0.9; stroke: #70a800"/>
    <path d="M 298.556789 135.383927 
L 298.556789 158.567005 
L 308.392046 158.567005 
L 308.392046 135.383927 
z
" clip-path="url(#pccff516a14)" style="fill: #ea0070; fill-opacity: 0.9; stroke: #ea0070"/>
    <path d="M 313.687954 158.567005 
L 313.687954 145.944668 
L 323.523211 145.944668 
L 323.523211 158.567005 
z
" clip-path="url(#pccff516a14)" style="fill: #70a800; fill-opacity: 0.9; stroke: #70a800"/>
    <path d="M 328.819118 145.944668 
L 328.819118 179.498914 
L 338.654375 179.498914 
L 338.654375 145.944668 
z
" clip-path="url(#pccff516a14)" style="fill: #ea0070; fill-opacity: 0.9; stroke: #ea0070"/>
    <path d="M 343.950283 179.498914 
L 343.950283 110.747464 
L 353.78554 110.747464 
L 353.78554 179.498914 
z
" clip-path="url(#pccff516a14)" style="fill: #70a800; fill-opacity: 0.9; stroke: #70a800"/>
    <path d="M 359.081447 110.747464 
L 359.081447 78.243763 
L 368.916704 78.243763 
L 368.916704 110.747464 
z
" clip-path="url(#pccff516a14)" style="fill: #70a800; fill-opacity: 0.9; stroke: #70a800"/>
    <path d="M 374.212612 78.243763 
L 374.212612 100.392093 
L 384.047869 100.392093 
L 384.047869 78.243763 
z
" clip-path="url(#pccff516a14)" style="fill: #ea0070; fill-opacity: 0.9; stroke: #ea0070"/>
    <path d="M 389.343776 100.392093 
L 389.343776 117.990695 
L 399.179033 117.990695 
L 399.179033 100.392093 
z
" clip-path="url(#pccff516a14)" style="fill: #ea0070; fill-opacity: 0.9; stroke: #ea0070"/>
    <path d="M 404.474941 117.990695 
L 404.474941 110.218243 
L 414.310198 110.218243 
L 414.310198 117.990695 
z
" clip-path="url(#pccff516a14)" style="fill: #70a800; fill-opacity: 0.9; stroke: #70a800"/>
    <path d="M 419.606105 110.218243 
L 419.606105 92.485361 
L 429.441362 92.485361 
L 429.441362 110.218243 
z
" clip-path="url(#pccff516a14)" style="fill: #70a800; fill-opacity: 0.9; stroke: #70a800"/>
    <path d="M 434.73727 92.485361 
L 434.73727 103.512133 
L 444.572527 103.512133 
L 444.572527 92.485361 
z
" clip-path="url(#pccff516a14)" style="fill: #ea0070; fill-opacity: 0.9; stroke: #ea0070"/>
    <path d="M 449.868434 103.512133 
L 449.868434 109.49155 
L 459.703691 109.49155 
L 459.703691 103.512133 
z
" clip-path="url(#pccff516a14)" style="fill: #ea0070; fill-opacity: 0.9; stroke: #ea0070"/>
    <path d="M 464.999599 109.49155 
L 464.999599 113.156609 
L 474.834856 113.156609 
L 474.834856 109.49155 
z
" clip-path="url(#pccff516a14)" style="fill: #ea0070; fill-opacity: 0.9; stroke: #ea0070"/>
    <path d="M 480.130763 113.156609 
L 480.130763 92.832909 
L 489.96602 92.832909 
L 489.96602 113.156609 
z
" clip-path="url(#pccff516a14)" style="fill: #70a800; fill-opacity: 0.9; stroke: #70a800"/>
   </g>
   <g id="LineCollection_1">
    <path d="M 137.031608 236.694371 
L 137.031608 236.694371 
" clip-path="url(#pccff516a14)" style="fill: none; stroke: #70a800"/>
    <path d="M 152.162773 247.270909 
L 152.162773 228.495381 
" clip-path="url(#pccff516a14)" style="fill: none; stroke: #ea0070"/>
    <path d="M 167.293937 241.828613 
L 167.293937 228.495381 
" clip-path="url(#pccff516a14)" style="fill: none; stroke: #70a800"/>
    <path d="M 182.425102 227.365848 
L 182.425102 224.854019 
" clip-path="url(#pccff516a14)" style="fill: none; stroke: #70a800"/>
    <path d="M 197.556266 226.228416 
L 197.556266 220.383279 
" clip-path="url(#pccff516a14)" style="fill: none; stroke: #ea0070"/>
    <path d="M 212.687431 221.125769 
L 212.687431 220.383279 
" clip-path="url(#pccff516a14)" style="fill: none; stroke: #70a800"/>
    <path d="M 227.818595 209.19853 
L 227.818595 199.862108 
" clip-path="url(#pccff516a14)" style="fill: none; stroke: #70a800"/>
    <path d="M 242.94976 180.573156 
L 242.94976 180.573156 
" clip-path="url(#pccff516a14)" style="fill: none; stroke: #70a800"/>
    <path d="M 258.080924 170.036111 
L 258.080924 164.175177 
" clip-path="url(#pccff516a14)" style="fill: none; stroke: #ea0070"/>
    <path d="M 273.212089 170.494244 
L 273.212089 164.175177 
" clip-path="url(#pccff516a14)" style="fill: none; stroke: #70a800"/>
    <path d="M 288.343253 162.429534 
L 288.343253 148.78035 
" clip-path="url(#pccff516a14)" style="fill: none; stroke: #70a800"/>
    <path d="M 303.474418 160.857667 
L 303.474418 158.567005 
" clip-path="url(#pccff516a14)" style="fill: none; stroke: #ea0070"/>
    <path d="M 318.605582 166.110391 
L 318.605582 158.567005 
" clip-path="url(#pccff516a14)" style="fill: none; stroke: #70a800"/>
    <path d="M 333.736747 191.252379 
L 333.736747 179.498914 
" clip-path="url(#pccff516a14)" style="fill: none; stroke: #ea0070"/>
    <path d="M 348.867911 182.342495 
L 348.867911 179.498914 
" clip-path="url(#pccff516a14)" style="fill: none; stroke: #70a800"/>
    <path d="M 363.999076 130.69202 
L 363.999076 110.747464 
" clip-path="url(#pccff516a14)" style="fill: none; stroke: #70a800"/>
    <path d="M 379.13024 102.967113 
L 379.13024 100.392093 
" clip-path="url(#pccff516a14)" style="fill: none; stroke: #ea0070"/>
    <path d="M 394.261405 122.208672 
L 394.261405 117.990695 
" clip-path="url(#pccff516a14)" style="fill: none; stroke: #ea0070"/>
    <path d="M 409.392569 158.014086 
L 409.392569 117.990695 
" clip-path="url(#pccff516a14)" style="fill: none; stroke: #70a800"/>
    <path d="M 424.523734 123.764743 
L 424.523734 110.218243 
" clip-path="url(#pccff516a14)" style="fill: none; stroke: #70a800"/>
    <path d="M 439.654898 114.617893 
L 439.654898 103.512133 
" clip-path="url(#pccff516a14)" style="fill: none; stroke: #ea0070"/>
    <path d="M 454.786063 115.028632 
L 454.786063 109.49155 
" clip-path="url(#pccff516a14)" style="fill: none; stroke: #ea0070"/>
    <path d="M 469.917227 120.644703 
L 469.917227 113.156609 
" clip-path="url(#pccff516a14)" style="fill: none; stroke: #ea0070"/>
    <path d="M 485.048392 120.182621 
L 485.048392 113.156609 
" clip-path="url(#pccff516a14)" style="fill: none; stroke: #70a800"/>
    <path d="M 137.031608 216.315379 
L 137.031608 216.315379 
" clip-path="url(#pccff516a14)" style="fill: none; stroke: #70a800"/>
    <path d="M 152.162773 216.315379 
L 152.162773 216.315379 
" clip-path="url(#pccff516a14)" style="fill: none; stroke: #ea0070"/>
    <path d="M 167.293937 219.933045 
L 167.293937 224.854019 
" clip-path="url(#pccff516a14)" style="fill: none; stroke: #70a800"/>
    <path d="M 182.425102 184.230316 
L 182.425102 209.230125 
" clip-path="url(#pccff516a14)" style="fill: none; stroke: #70a800"/>
    <path d="M 197.556266 205.414988 
L 197.556266 209.230125 
" clip-path="url(#pccff516a14)" style="fill: none; stroke: #ea0070"/>
    <path d="M 212.687431 199.862108 
L 212.687431 199.862108 
" clip-path="url(#pccff516a14)" style="fill: none; stroke: #70a800"/>
    <path d="M 227.818595 162.279457 
L 227.818595 180.573156 
" clip-path="url(#pccff516a14)" style="fill: none; stroke: #70a800"/>
    <path d="M 242.94976 135.2299 
L 242.94976 143.922567 
" clip-path="url(#pccff516a14)" style="fill: none; stroke: #70a800"/>
    <path d="M 258.080924 138.946301 
L 258.080924 143.922567 
" clip-path="url(#pccff516a14)" style="fill: none; stroke: #ea0070"/>
    <path d="M 273.212089 145.439143 
L 273.212089 148.78035 
" clip-path="url(#pccff516a14)" style="fill: none; stroke: #70a800"/>
    <path d="M 288.343253 131.568791 
L 288.343253 135.383927 
" clip-path="url(#pccff516a14)" style="fill: none; stroke: #70a800"/>
    <path d="M 303.474418 130.162798 
L 303.474418 135.383927 
" clip-path="url(#pccff516a14)" style="fill: none; stroke: #ea0070"/>
    <path d="M 318.605582 131.584588 
L 318.605582 145.944668 
" clip-path="url(#pccff516a14)" style="fill: none; stroke: #70a800"/>
    <path d="M 333.736747 139.862566 
L 333.736747 145.944668 
" clip-path="url(#pccff516a14)" style="fill: none; stroke: #ea0070"/>
    <path d="M 348.867911 107.311472 
L 348.867911 110.747464 
" clip-path="url(#pccff516a14)" style="fill: none; stroke: #70a800"/>
    <path d="M 363.999076 59.089091 
L 363.999076 78.243763 
" clip-path="url(#pccff516a14)" style="fill: none; stroke: #70a800"/>
    <path d="M 379.13024 69.918392 
L 379.13024 78.243763 
" clip-path="url(#pccff516a14)" style="fill: none; stroke: #ea0070"/>
    <path d="M 394.261405 95.47112 
L 394.261405 100.392093 
" clip-path="url(#pccff516a14)" style="fill: none; stroke: #ea0070"/>
    <path d="M 409.392569 107.903884 
L 409.392569 110.218243 
" clip-path="url(#pccff516a14)" style="fill: none; stroke: #70a800"/>
    <path d="M 424.523734 90.921391 
L 424.523734 92.485361 
" clip-path="url(#pccff516a14)" style="fill: none; stroke: #70a800"/>
    <path d="M 439.654898 92.485361 
L 439.654898 92.485361 
" clip-path="url(#pccff516a14)" style="fill: none; stroke: #ea0070"/>
    <path d="M 454.786063 101.987658 
L 454.786063 103.512133 
" clip-path="url(#pccff516a14)" style="fill: none; stroke: #ea0070"/>
    <path d="M 469.917227 109.49155 
L 469.917227 109.49155 
" clip-path="url(#pccff516a14)" style="fill: none; stroke: #ea0070"/>
    <path d="M 485.048392 89.64178 
L 485.048392 92.832909 
" clip-path="url(#pccff516a14)" style="fill: none; stroke: #70a800"/>
   </g>
   <g id="patch_3">
    <path d="M 103.68 256.68 
L 103.68 49.68 
" style="fill: none; stroke: #e6e6e6; stroke-width: 1.5; stroke-linejoin: miter; stroke-linecap: square"/>
   </g>
   <g id="patch_4">
    <path d="M 518.4 256.68 
L 518.4 49.68 
" style="fill: none; stroke: #e6e6e6; stroke-width: 1.5; stroke-linejoin: miter; stroke-linecap: square"/>
   </g>
   <g id="patch_5">
    <path d="M 103.68 256.68 
L 518.4 256.68 
" style="fill: none; stroke: #e6e6e6; stroke-width: 1.5; stroke-linejoin: miter; stroke-linecap: square"/>
   </g>
   <g id="patch_6">
    <path d="M 103.68 49.68 
L 518.4 49.68 
" style="fill: none; stroke: #e6e6e6; stroke-width: 1.5; stroke-linejoin: miter; stroke-linecap: square"/>
   </g>
  </g>
  <g id="axes_2">
   <g id="patch_7">
    <path d="M 103.68 339.48 
L 518.4 339.48 
L 518.4 256.68 
L 103.68 256.68 
z
" style="fill: #ffffff"/>
   </g>
   <g id="matplotlib.axis_3">
    <g id="xtick_7">
     <g id="line2d_25">
      <path d="M 137.031608 339.48 
L 137.031608 256.68 
" clip-path="url(#p134cc4b783)" style="fill: none; stroke-dasharray: 2.96,1.28; stroke-dashoffset: 0; stroke: #d0d0d0; stroke-width: 0.8"/>
     </g>
     <g id="line2d_26"/>
     <g id="text_8">
      <!-- 00:00 -->
      <g style="fill: #262626" transform="translate(128.609304 370.28537) rotate(-45) scale(0.12 -0.12)">
       <defs>
        <path id="ArialMT-3a" d="M 578 2678 
L 578 3319 
L 1219 3319 
L 1219 2678 
L 578 2678 
z
M 578 0 
L 578 641 
L 1219 641 
L 1219 0 
L 578 0 
z
" transform="scale(0.015625)"/>
       </defs>
       <use xlink:href="#ArialMT-30"/>
       <use xlink:href="#ArialMT-30" x="55.615234"/>
       <use xlink:href="#ArialMT-3a" x="111.230469"/>
       <use xlink:href="#ArialMT-30" x="139.013672"/>
       <use xlink:href="#ArialMT-30" x="194.628906"/>
      </g>
     </g>
    </g>
    <g id="xtick_8">
     <g id="line2d_27">
      <path d="M 212.687431 339.48 
L 212.687431 256.68 
" clip-path="url(#p134cc4b783)" style="fill: none; stroke-dasharray: 2.96,1.28; stroke-dashoffset: 0; stroke: #d0d0d0; stroke-width: 0.8"/>
     </g>
     <g id="line2d_28"/>
     <g id="text_9">
      <!-- 05:00 -->
      <g style="fill: #262626" transform="translate(204.265126 370.28537) rotate(-45) scale(0.12 -0.12)">
       <use xlink:href="#ArialMT-30"/>
       <use xlink:href="#ArialMT-35" x="55.615234"/>
       <use xlink:href="#ArialMT-3a" x="111.230469"/>
       <use xlink:href="#ArialMT-30" x="139.013672"/>
       <use xlink:href="#ArialMT-30" x="194.628906"/>
      </g>
     </g>
    </g>
    <g id="xtick_9">
     <g id="line2d_29">
      <path d="M 288.343253 339.48 
L 288.343253 256.68 
" clip-path="url(#p134cc4b783)" style="fill: none; stroke-dasharray: 2.96,1.28; stroke-dashoffset: 0; stroke: #d0d0d0; stroke-width: 0.8"/>
     </g>
     <g id="line2d_30"/>
     <g id="text_10">
      <!-- 10:00 -->
      <g style="fill: #262626" transform="translate(279.920949 370.28537) rotate(-45) scale(0.12 -0.12)">
       <defs>
        <path id="ArialMT-31" d="M 2384 0 
L 1822 0 
L 1822 3584 
Q 1619 3391 1289 3197 
Q 959 3003 697 2906 
L 697 3450 
Q 1169 3672 1522 3987 
Q 1875 4303 2022 4600 
L 2384 4600 
L 2384 0 
z
" transform="scale(0.015625)"/>
       </defs>
       <use xlink:href="#ArialMT-31"/>
       <use xlink:href="#ArialMT-30" x="55.615234"/>
       <use xlink:href="#ArialMT-3a" x="111.230469"/>
       <use xlink:href="#ArialMT-30" x="139.013672"/>
       <use xlink:href="#ArialMT-30" x="194.628906"/>
      </g>
     </g>
    </g>
    <g id="xtick_10">
     <g id="line2d_31">
      <path d="M 363.999076 339.48 
L 363.999076 256.68 
" clip-path="url(#p134cc4b783)" style="fill: none; stroke-dasharray: 2.96,1.28; stroke-dashoffset: 0; stroke: #d0d0d0; stroke-width: 0.8"/>
     </g>
     <g id="line2d_32"/>
     <g id="text_11">
      <!-- 15:00 -->
      <g style="fill: #262626" transform="translate(355.576771 370.28537) rotate(-45) scale(0.12 -0.12)">
       <use xlink:href="#ArialMT-31"/>
       <use xlink:href="#ArialMT-35" x="55.615234"/>
       <use xlink:href="#ArialMT-3a" x="111.230469"/>
       <use xlink:href="#ArialMT-30" x="139.013672"/>
       <use xlink:href="#ArialMT-30" x="194.628906"/>
      </g>
     </g>
    </g>
    <g id="xtick_11">
     <g id="line2d_33">
      <path d="M 439.654898 339.48 
L 439.654898 256.68 
" clip-path="url(#p134cc4b783)" style="fill: none; stroke-dasharray: 2.96,1.28; stroke-dashoffset: 0; stroke: #d0d0d0; stroke-width: 0.8"/>
     </g>
     <g id="line2d_34"/>
     <g id="text_12">
      <!-- 20:00 -->
      <g style="fill: #262626" transform="translate(431.232593 370.28537) rotate(-45) scale(0.12 -0.12)">
       <defs>
        <path id="ArialMT-32" d="M 3222 541 
L 3222 0 
L 194 0 
Q 188 203 259 391 
Q 375 700 629 1000 
Q 884 1300 1366 1694 
Q 2113 2306 2375 2664 
Q 2638 3022 2638 3341 
Q 2638 3675 2398 3904 
Q 2159 4134 1775 4134 
Q 1369 4134 1125 3890 
Q 881 3647 878 3216 
L 300 3275 
Q 359 3922 746 4261 
Q 1134 4600 1788 4600 
Q 2447 4600 2831 4234 
Q 3216 3869 3216 3328 
Q 3216 3053 3103 2787 
Q 2991 2522 2730 2228 
Q 2469 1934 1863 1422 
Q 1356 997 1212 845 
Q 1069 694 975 541 
L 3222 541 
z
" transform="scale(0.015625)"/>
       </defs>
       <use xlink:href="#ArialMT-32"/>
       <use xlink:href="#ArialMT-30" x="55.615234"/>
       <use xlink:href="#ArialMT-3a" x="111.230469"/>
       <use xlink:href="#ArialMT-30" x="139.013672"/>
       <use xlink:href="#ArialMT-30" x="194.628906"/>
      </g>
     </g>
    </g>
    <g id="xtick_12">
     <g id="line2d_35">
      <path d="M 515.310721 339.48 
L 515.310721 256.68 
" clip-path="url(#p134cc4b783)" style="fill: none; stroke-dasharray: 2.96,1.28; stroke-dashoffset: 0; stroke: #d0d0d0; stroke-width: 0.8"/>
     </g>
     <g id="line2d_36"/>
    </g>
   </g>
   <g id="matplotlib.axis_4">
    <g id="ytick_7">
     <g id="line2d_37">
      <path d="M 103.68 301.69046 
L 518.4 301.69046 
" clip-path="url(#p134cc4b783)" style="fill: none; stroke-dasharray: 2.96,1.28; stroke-dashoffset: 0; stroke: #d0d0d0; stroke-width: 0.8"/>
     </g>
     <g id="line2d_38"/>
     <g id="text_13">
      <!-- 200000 -->
      <g style="fill: #262626" transform="translate(60.14125 305.985148) scale(0.12 -0.12)">
       <use xlink:href="#ArialMT-32"/>
       <use xlink:href="#ArialMT-30" x="55.615234"/>
       <use xlink:href="#ArialMT-30" x="111.230469"/>
       <use xlink:href="#ArialMT-30" x="166.845703"/>
       <use xlink:href="#ArialMT-30" x="222.460938"/>
       <use xlink:href="#ArialMT-30" x="278.076172"/>
      </g>
     </g>
    </g>
    <g id="ytick_8">
     <g id="line2d_39">
      <path d="M 103.68 259.793743 
L 518.4 259.793743 
" clip-path="url(#p134cc4b783)" style="fill: none; stroke-dasharray: 2.96,1.28; stroke-dashoffset: 0; stroke: #d0d0d0; stroke-width: 0.8"/>
     </g>
     <g id="line2d_40"/>
     <g id="text_14">
      <!-- 400000 -->
      <g style="fill: #262626" transform="translate(60.14125 264.088431) scale(0.12 -0.12)">
       <defs>
        <path id="ArialMT-34" d="M 2069 0 
L 2069 1097 
L 81 1097 
L 81 1613 
L 2172 4581 
L 2631 4581 
L 2631 1613 
L 3250 1613 
L 3250 1097 
L 2631 1097 
L 2631 0 
L 2069 0 
z
M 2069 1613 
L 2069 3678 
L 634 1613 
L 2069 1613 
z
" transform="scale(0.015625)"/>
       </defs>
       <use xlink:href="#ArialMT-34"/>
       <use xlink:href="#ArialMT-30" x="55.615234"/>
       <use xlink:href="#ArialMT-30" x="111.230469"/>
       <use xlink:href="#ArialMT-30" x="166.845703"/>
       <use xlink:href="#ArialMT-30" x="222.460938"/>
       <use xlink:href="#ArialMT-30" x="278.076172"/>
      </g>
     </g>
    </g>
    <g id="text_15">
     <!-- Volume -->
     <g style="fill: #262626" transform="translate(53.773125 319.307813) rotate(-90) scale(0.12 -0.12)">
      <defs>
       <path id="Arial-BoldMT-56" d="M 1634 0 
L -3 4581 
L 1000 4581 
L 2159 1191 
L 3281 4581 
L 4263 4581 
L 2622 0 
L 1634 0 
z
" transform="scale(0.015625)"/>
       <path id="Arial-BoldMT-6f" d="M 256 1706 
Q 256 2144 472 2553 
Q 688 2963 1083 3178 
Q 1478 3394 1966 3394 
Q 2719 3394 3200 2905 
Q 3681 2416 3681 1669 
Q 3681 916 3195 420 
Q 2709 -75 1972 -75 
Q 1516 -75 1102 131 
Q 688 338 472 736 
Q 256 1134 256 1706 
z
M 1156 1659 
Q 1156 1166 1390 903 
Q 1625 641 1969 641 
Q 2313 641 2545 903 
Q 2778 1166 2778 1666 
Q 2778 2153 2545 2415 
Q 2313 2678 1969 2678 
Q 1625 2678 1390 2415 
Q 1156 2153 1156 1659 
z
" transform="scale(0.015625)"/>
       <path id="Arial-BoldMT-6c" d="M 459 0 
L 459 4581 
L 1338 4581 
L 1338 0 
L 459 0 
z
" transform="scale(0.015625)"/>
       <path id="Arial-BoldMT-75" d="M 2644 0 
L 2644 497 
Q 2463 231 2167 78 
Q 1872 -75 1544 -75 
Q 1209 -75 943 72 
Q 678 219 559 484 
Q 441 750 441 1219 
L 441 3319 
L 1319 3319 
L 1319 1794 
Q 1319 1094 1367 936 
Q 1416 778 1544 686 
Q 1672 594 1869 594 
Q 2094 594 2272 717 
Q 2450 841 2515 1023 
Q 2581 1206 2581 1919 
L 2581 3319 
L 3459 3319 
L 3459 0 
L 2644 0 
z
" transform="scale(0.015625)"/>
       <path id="Arial-BoldMT-6d" d="M 394 3319 
L 1203 3319 
L 1203 2866 
Q 1638 3394 2238 3394 
Q 2556 3394 2790 3262 
Q 3025 3131 3175 2866 
Q 3394 3131 3647 3262 
Q 3900 3394 4188 3394 
Q 4553 3394 4806 3245 
Q 5059 3097 5184 2809 
Q 5275 2597 5275 2122 
L 5275 0 
L 4397 0 
L 4397 1897 
Q 4397 2391 4306 2534 
Q 4184 2722 3931 2722 
Q 3747 2722 3584 2609 
Q 3422 2497 3350 2280 
Q 3278 2063 3278 1594 
L 3278 0 
L 2400 0 
L 2400 1819 
Q 2400 2303 2353 2443 
Q 2306 2584 2207 2653 
Q 2109 2722 1941 2722 
Q 1738 2722 1575 2612 
Q 1413 2503 1342 2297 
Q 1272 2091 1272 1613 
L 1272 0 
L 394 0 
L 394 3319 
z
" transform="scale(0.015625)"/>
      </defs>
      <use xlink:href="#Arial-BoldMT-56"/>
      <use xlink:href="#Arial-BoldMT-6f" x="59.324219"/>
      <use xlink:href="#Arial-BoldMT-6c" x="120.408203"/>
      <use xlink:href="#Arial-BoldMT-75" x="148.191406"/>
      <use xlink:href="#Arial-BoldMT-6d" x="209.275391"/>
      <use xlink:href="#Arial-BoldMT-65" x="298.191406"/>
     </g>
    </g>
   </g>
   <g id="patch_8">
    <path d="M 129.617338 343.587177 
L 144.445879 343.587177 
L 144.445879 323.939921 
L 129.617338 323.939921 
z
" clip-path="url(#p134cc4b783)" style="fill: #70a800; stroke: #659700; stroke-width: 0.65; stroke-linejoin: miter"/>
   </g>
   <g id="patch_9">
    <path d="M 144.748502 343.587177 
L 159.577043 343.587177 
L 159.577043 322.390162 
L 144.748502 322.390162 
z
" clip-path="url(#p134cc4b783)" style="fill: #ea0070; stroke: #d30065; stroke-width: 0.65; stroke-linejoin: miter"/>
   </g>
   <g id="patch_10">
    <path d="M 159.879667 343.587177 
L 174.708208 343.587177 
L 174.708208 325.026722 
L 159.879667 325.026722 
z
" clip-path="url(#p134cc4b783)" style="fill: #70a800; stroke: #659700; stroke-width: 0.65; stroke-linejoin: miter"/>
   </g>
   <g id="patch_11">
    <path d="M 175.010831 343.587177 
L 189.839372 343.587177 
L 189.839372 316.222755 
L 175.010831 316.222755 
z
" clip-path="url(#p134cc4b783)" style="fill: #70a800; stroke: #659700; stroke-width: 0.65; stroke-linejoin: miter"/>
   </g>
   <g id="patch_12">
    <path d="M 190.141996 343.587177 
L 204.970537 343.587177 
L 204.970537 323.492883 
L 190.141996 323.492883 
z
" clip-path="url(#p134cc4b783)" style="fill: #ea0070; stroke: #d30065; stroke-width: 0.65; stroke-linejoin: miter"/>
   </g>
   <g id="patch_13">
    <path d="M 205.27316 343.587177 
L 220.101701 343.587177 
L 220.101701 326.046698 
L 205.27316 326.046698 
z
" clip-path="url(#p134cc4b783)" style="fill: #70a800; stroke: #659700; stroke-width: 0.65; stroke-linejoin: miter"/>
   </g>
   <g id="patch_14">
    <path d="M 220.404325 343.587177 
L 235.232866 343.587177 
L 235.232866 312.68772 
L 220.404325 312.68772 
z
" clip-path="url(#p134cc4b783)" style="fill: #70a800; stroke: #659700; stroke-width: 0.65; stroke-linejoin: miter"/>
   </g>
   <g id="patch_15">
    <path d="M 235.535489 343.587177 
L 250.36403 343.587177 
L 250.36403 291.539514 
L 235.535489 291.539514 
z
" clip-path="url(#p134cc4b783)" style="fill: #70a800; stroke: #659700; stroke-width: 0.65; stroke-linejoin: miter"/>
   </g>
   <g id="patch_16">
    <path d="M 250.666654 343.587177 
L 265.495195 343.587177 
L 265.495195 310.129925 
L 250.666654 310.129925 
z
" clip-path="url(#p134cc4b783)" style="fill: #ea0070; stroke: #d30065; stroke-width: 0.65; stroke-linejoin: miter"/>
   </g>
   <g id="patch_17">
    <path d="M 265.797818 343.587177 
L 280.626359 343.587177 
L 280.626359 318.524351 
L 265.797818 318.524351 
z
" clip-path="url(#p134cc4b783)" style="fill: #70a800; stroke: #659700; stroke-width: 0.65; stroke-linejoin: miter"/>
   </g>
   <g id="patch_18">
    <path d="M 280.928983 343.587177 
L 295.757524 343.587177 
L 295.757524 318.907916 
L 280.928983 318.907916 
z
" clip-path="url(#p134cc4b783)" style="fill: #70a800; stroke: #659700; stroke-width: 0.65; stroke-linejoin: miter"/>
   </g>
   <g id="patch_19">
    <path d="M 296.060147 343.587177 
L 310.888688 343.587177 
L 310.888688 317.885217 
L 296.060147 317.885217 
z
" clip-path="url(#p134cc4b783)" style="fill: #ea0070; stroke: #d30065; stroke-width: 0.65; stroke-linejoin: miter"/>
   </g>
   <g id="patch_20">
    <path d="M 311.191312 343.587177 
L 326.019853 343.587177 
L 326.019853 307.655715 
L 311.191312 307.655715 
z
" clip-path="url(#p134cc4b783)" style="fill: #70a800; stroke: #659700; stroke-width: 0.65; stroke-linejoin: miter"/>
   </g>
   <g id="patch_21">
    <path d="M 326.322476 343.587177 
L 341.151017 343.587177 
L 341.151017 287.759383 
L 326.322476 287.759383 
z
" clip-path="url(#p134cc4b783)" style="fill: #ea0070; stroke: #d30065; stroke-width: 0.65; stroke-linejoin: miter"/>
   </g>
   <g id="patch_22">
    <path d="M 341.453641 343.587177 
L 356.282182 343.587177 
L 356.282182 293.616334 
L 341.453641 293.616334 
z
" clip-path="url(#p134cc4b783)" style="fill: #70a800; stroke: #659700; stroke-width: 0.65; stroke-linejoin: miter"/>
   </g>
   <g id="patch_23">
    <path d="M 356.584805 343.587177 
L 371.413346 343.587177 
L 371.413346 264.580652 
L 356.584805 264.580652 
z
" clip-path="url(#p134cc4b783)" style="fill: #70a800; stroke: #659700; stroke-width: 0.65; stroke-linejoin: miter"/>
   </g>
   <g id="patch_24">
    <path d="M 371.71597 343.587177 
L 386.544511 343.587177 
L 386.544511 299.955098 
L 371.71597 299.955098 
z
" clip-path="url(#p134cc4b783)" style="fill: #ea0070; stroke: #d30065; stroke-width: 0.65; stroke-linejoin: miter"/>
   </g>
   <g id="patch_25">
    <path d="M 386.847134 343.587177 
L 401.675675 343.587177 
L 401.675675 308.804313 
L 386.847134 308.804313 
z
" clip-path="url(#p134cc4b783)" style="fill: #ea0070; stroke: #d30065; stroke-width: 0.65; stroke-linejoin: miter"/>
   </g>
   <g id="patch_26">
    <path d="M 401.978299 343.587177 
L 416.80684 343.587177 
L 416.80684 302.452352 
L 401.978299 302.452352 
z
" clip-path="url(#p134cc4b783)" style="fill: #70a800; stroke: #659700; stroke-width: 0.65; stroke-linejoin: miter"/>
   </g>
   <g id="patch_27">
    <path d="M 417.109463 343.587177 
L 431.938004 343.587177 
L 431.938004 311.355195 
L 417.109463 311.355195 
z
" clip-path="url(#p134cc4b783)" style="fill: #70a800; stroke: #659700; stroke-width: 0.65; stroke-linejoin: miter"/>
   </g>
   <g id="patch_28">
    <path d="M 432.240628 343.587177 
L 447.069169 343.587177 
L 447.069169 324.273 
L 432.240628 324.273 
z
" clip-path="url(#p134cc4b783)" style="fill: #ea0070; stroke: #d30065; stroke-width: 0.65; stroke-linejoin: miter"/>
   </g>
   <g id="patch_29">
    <path d="M 447.371792 343.587177 
L 462.200333 343.587177 
L 462.200333 329.896587 
L 447.371792 329.896587 
z
" clip-path="url(#p134cc4b783)" style="fill: #ea0070; stroke: #d30065; stroke-width: 0.65; stroke-linejoin: miter"/>
   </g>
   <g id="patch_30">
    <path d="M 462.502957 343.587177 
L 477.331498 343.587177 
L 477.331498 329.18958 
L 462.502957 329.18958 
z
" clip-path="url(#p134cc4b783)" style="fill: #ea0070; stroke: #d30065; stroke-width: 0.65; stroke-linejoin: miter"/>
   </g>
   <g id="patch_31">
    <path d="M 477.634121 343.587177 
L 492.462662 343.587177 
L 492.462662 325.396879 
L 477.634121 325.396879 
z
" clip-path="url(#p134cc4b783)" style="fill: #70a800; stroke: #659700; stroke-width: 0.65; stroke-linejoin: miter"/>
   </g>
   <g id="patch_32">
    <path d="M 103.68 339.48 
L 103.68 256.68 
" style="fill: none; stroke: #e6e6e6; stroke-width: 1.5; stroke-linejoin: miter; stroke-linecap: square"/>
   </g>
   <g id="patch_33">
    <path d="M 518.4 339.48 
L 518.4 256.68 
" style="fill: none; stroke: #e6e6e6; stroke-width: 1.5; stroke-linejoin: miter; stroke-linecap: square"/>
   </g>
   <g id="patch_34">
    <path d="M 103.68 339.48 
L 518.4 339.48 
" style="fill: none; stroke: #e6e6e6; stroke-width: 1.5; stroke-linejoin: miter; stroke-linecap: square"/>
   </g>
   <g id="patch_35">
    <path d="M 103.68 256.68 
L 518.4 256.68 
" style="fill: none; stroke: #e6e6e6; stroke-width: 1.5; stroke-linejoin: miter; stroke-linecap: square"/>
   </g>
  </g>
  <g id="text_16">
   <!-- BTC - day 1 -->
   <g style="fill: #262626" transform="translate(240.4746 12.7512) scale(0.1728 -0.1728)">
    <defs>
     <path id="Arial-BoldMT-42" d="M 469 4581 
L 2300 4581 
Q 2844 4581 3111 4536 
Q 3378 4491 3589 4347 
Q 3800 4203 3940 3964 
Q 4081 3725 4081 3428 
Q 4081 3106 3907 2837 
Q 3734 2569 3438 2434 
Q 3856 2313 4081 2019 
Q 4306 1725 4306 1328 
Q 4306 1016 4161 720 
Q 4016 425 3764 248 
Q 3513 72 3144 31 
Q 2913 6 2028 0 
L 469 0 
L 469 4581 
z
M 1394 3819 
L 1394 2759 
L 2000 2759 
Q 2541 2759 2672 2775 
Q 2909 2803 3045 2939 
Q 3181 3075 3181 3297 
Q 3181 3509 3064 3642 
Q 2947 3775 2716 3803 
Q 2578 3819 1925 3819 
L 1394 3819 
z
M 1394 1997 
L 1394 772 
L 2250 772 
Q 2750 772 2884 800 
Q 3091 838 3220 983 
Q 3350 1128 3350 1372 
Q 3350 1578 3250 1722 
Q 3150 1866 2961 1931 
Q 2772 1997 2141 1997 
L 1394 1997 
z
" transform="scale(0.015625)"/>
     <path id="Arial-BoldMT-54" d="M 1497 0 
L 1497 3806 
L 138 3806 
L 138 4581 
L 3778 4581 
L 3778 3806 
L 2422 3806 
L 2422 0 
L 1497 0 
z
" transform="scale(0.015625)"/>
     <path id="Arial-BoldMT-43" d="M 3397 1684 
L 4294 1400 
Q 4088 650 3608 286 
Q 3128 -78 2391 -78 
Q 1478 -78 890 545 
Q 303 1169 303 2250 
Q 303 3394 893 4026 
Q 1484 4659 2447 4659 
Q 3288 4659 3813 4163 
Q 4125 3869 4281 3319 
L 3366 3100 
Q 3284 3456 3026 3662 
Q 2769 3869 2400 3869 
Q 1891 3869 1573 3503 
Q 1256 3138 1256 2319 
Q 1256 1450 1568 1081 
Q 1881 713 2381 713 
Q 2750 713 3015 947 
Q 3281 1181 3397 1684 
z
" transform="scale(0.015625)"/>
     <path id="Arial-BoldMT-20" transform="scale(0.015625)"/>
     <path id="Arial-BoldMT-2d" d="M 359 1222 
L 359 2100 
L 2084 2100 
L 2084 1222 
L 359 1222 
z
" transform="scale(0.015625)"/>
     <path id="Arial-BoldMT-64" d="M 3503 0 
L 2688 0 
L 2688 488 
Q 2484 203 2207 64 
Q 1931 -75 1650 -75 
Q 1078 -75 670 386 
Q 263 847 263 1672 
Q 263 2516 659 2955 
Q 1056 3394 1663 3394 
Q 2219 3394 2625 2931 
L 2625 4581 
L 3503 4581 
L 3503 0 
z
M 1159 1731 
Q 1159 1200 1306 963 
Q 1519 619 1900 619 
Q 2203 619 2415 876 
Q 2628 1134 2628 1647 
Q 2628 2219 2422 2470 
Q 2216 2722 1894 2722 
Q 1581 2722 1370 2473 
Q 1159 2225 1159 1731 
z
" transform="scale(0.015625)"/>
     <path id="Arial-BoldMT-61" d="M 1116 2306 
L 319 2450 
Q 453 2931 781 3162 
Q 1109 3394 1756 3394 
Q 2344 3394 2631 3255 
Q 2919 3116 3036 2902 
Q 3153 2688 3153 2116 
L 3144 1091 
Q 3144 653 3186 445 
Q 3228 238 3344 0 
L 2475 0 
Q 2441 88 2391 259 
Q 2369 338 2359 363 
Q 2134 144 1878 34 
Q 1622 -75 1331 -75 
Q 819 -75 523 203 
Q 228 481 228 906 
Q 228 1188 362 1408 
Q 497 1628 739 1745 
Q 981 1863 1438 1950 
Q 2053 2066 2291 2166 
L 2291 2253 
Q 2291 2506 2166 2614 
Q 2041 2722 1694 2722 
Q 1459 2722 1328 2630 
Q 1197 2538 1116 2306 
z
M 2291 1594 
Q 2122 1538 1756 1459 
Q 1391 1381 1278 1306 
Q 1106 1184 1106 997 
Q 1106 813 1243 678 
Q 1381 544 1594 544 
Q 1831 544 2047 700 
Q 2206 819 2256 991 
Q 2291 1103 2291 1419 
L 2291 1594 
z
" transform="scale(0.015625)"/>
     <path id="Arial-BoldMT-79" d="M 44 3319 
L 978 3319 
L 1772 963 
L 2547 3319 
L 3456 3319 
L 2284 125 
L 2075 -453 
Q 1959 -744 1854 -897 
Q 1750 -1050 1614 -1145 
Q 1478 -1241 1279 -1294 
Q 1081 -1347 831 -1347 
Q 578 -1347 334 -1294 
L 256 -606 
Q 463 -647 628 -647 
Q 934 -647 1081 -467 
Q 1228 -288 1306 -9 
L 44 3319 
z
" transform="scale(0.015625)"/>
     <path id="Arial-BoldMT-31" d="M 2519 0 
L 1641 0 
L 1641 3309 
Q 1159 2859 506 2644 
L 506 3441 
Q 850 3553 1253 3867 
Q 1656 4181 1806 4600 
L 2519 4600 
L 2519 0 
z
" transform="scale(0.015625)"/>
    </defs>
    <use xlink:href="#Arial-BoldMT-42"/>
    <use xlink:href="#Arial-BoldMT-54" x="72.216797"/>
    <use xlink:href="#Arial-BoldMT-43" x="133.300781"/>
    <use xlink:href="#Arial-BoldMT-20" x="205.517578"/>
    <use xlink:href="#Arial-BoldMT-2d" x="233.300781"/>
    <use xlink:href="#Arial-BoldMT-20" x="266.601562"/>
    <use xlink:href="#Arial-BoldMT-64" x="294.384766"/>
    <use xlink:href="#Arial-BoldMT-61" x="355.46875"/>
    <use xlink:href="#Arial-BoldMT-79" x="411.083984"/>
    <use xlink:href="#Arial-BoldMT-20" x="466.699219"/>
    <use xlink:href="#Arial-BoldMT-31" x="494.482422"/>
   </g>
  </g>
 </g>
 <defs>
  <clipPath id="pccff516a14">
   <rect x="103.68" y="49.68" width="414.72" height="207"/>
  </clipPath>
  <clipPath id="p134cc4b783">
   <rect x="103.68" y="256.68" width="414.72" height="82.8"/>
  </clipPath>
 </defs>
</svg>
