<?xml version="1.0" encoding="utf-8" standalone="no"?>
<!DOCTYPE svg PUBLIC "-//W3C//DTD SVG 1.1//EN"
  "http://www.w3.org/Graphics/SVG/1.1/DTD/svg11.dtd">
<svg xmlns:xlink="http://www.w3.org/1999/xlink" width="576pt" height="414pt" viewBox="0 0 576 414" xmlns="http://www.w3.org/2000/svg" version="1.1">
 <metadata>
  <rdf:RDF xmlns:dc="http://purl.org/dc/elements/1.1/" xmlns:cc="http://creativecommons.org/ns#" xmlns:rdf="http://www.w3.org/1999/02/22-rdf-syntax-ns#">
   <cc:Work>
    <dc:type rdf:resource="http://purl.org/dc/dcmitype/StillImage"/>
    <dc:date>2024-06-01T01:03:18.095305</dc:date>
    <dc:format>image/svg+xml</dc:format>
    <dc:creator>
     <cc:Agent>
      <dc:title>Matplotlib v3.9.0, https://matplotlib.org/</dc:title>
     </cc:Agent>
    </dc:creator>
   </cc:Work>
  </rdf:RDF>
 </metadata>
 <defs>
  <style type="text/css">*{stroke-linejoin: round; stroke-linecap: butt}</style>
 </defs>
 <g id="figure_1">
  <g id="patch_1">
   <path d="M 0 414 
L 576 414 
L 576 0 
L 0 0 
z
" style="fill: #ffffff"/>
  </g>
  <g id="axes_1">
   <g id="patch_2">
    <path d="M 103.68 256.68 
L 518.4 256.68 
L 518.4 49.68 
L 103.68 49.68 
z
" style="fill: #ffffff"/>
   </g>
   <g id="matplotlib.axis_1">
    <g id="xtick_1">
     <g id="line2d_1">
      <path d="M 137.031608 256.68 
L 137.031608 49.68 
" clip-path="url(#p867fb9ef30)" style="fill: none; stroke-dasharray: 2.96,1.28; stroke-dashoffset: 0; stroke: #d0d0d0; stroke-width: 0.8"/>
     </g>
     <g id="line2d_2"/>
    </g>
    <g id="xtick_2">
     <g id="line2d_3">
      <path d="M 212.687431 256.68 
L 212.687431 49.68 
" clip-path="url(#p867fb9ef30)" style="fill: none; stroke-dasharray: 2.96,1.28; stroke-dashoffset: 0; stroke: #d0d0d0; stroke-width: 0.8"/>
     </g>
     <g id="line2d_4"/>
    </g>
    <g id="xtick_3">
     <g id="line2d_5">
      <path d="M 288.343253 256.68 
L 288.343253 49.68 
" clip-path="url(#p867fb9ef30)" style="fill: none; stroke-dasharray: 2.96,1.28; stroke-dashoffset: 0; stroke: #d0d0d0; stroke-width: 0.8"/>
     </g>
     <g id="line2d_6"/>
    </g>
    <g id="xtick_4">
     <g id="line2d_7">
      <path d="M 363.999076 256.68 
L 363.999076 49.68 
" clip-path="url(#p867fb9ef30)" style="fill: none; stroke-dasharray: 2.96,1.28; stroke-dashoffset: 0; stroke: #d0d0d0; stroke-width: 0.8"/>
     </g>
     <g id="line2d_8"/>
    </g>
    <g id="xtick_5">
     <g id="line2d_9">
      <path d="M 439.654898 256.68 
L 439.654898 49.68 
" clip-path="url(#p867fb9ef30)" style="fill: none; stroke-dasharray: 2.96,1.28; stroke-dashoffset: 0; stroke: #d0d0d0; stroke-width: 0.8"/>
     </g>
     <g id="line2d_10"/>
    </g>
    <g id="xtick_6">
     <g id="line2d_11">
      <path d="M 515.310721 256.68 
L 515.310721 49.68 
" clip-path="url(#p867fb9ef30)" style="fill: none; stroke-dasharray: 2.96,1.28; stroke-dashoffset: 0; stroke: #d0d0d0; stroke-width: 0.8"/>
     </g>
     <g id="line2d_12"/>
    </g>
   </g>
   <g id="matplotlib.axis_2">
    <g id="ytick_1">
     <g id="line2d_13">
      <path d="M 103.68 251.785885 
L 518.4 251.785885 
" clip-path="url(#p867fb9ef30)" style="fill: none; stroke-dasharray: 2.96,1.28; stroke-dashoffset: 0; stroke: #d0d0d0; stroke-width: 0.8"/>
     </g>
     <g id="line2d_14"/>
     <g id="text_1">
      <!-- 64500 -->
      <g style="fill: #262626" transform="translate(66.814375 256.080572) scale(0.12 -0.12)">
       <defs>
        <path id="ArialMT-36" d="M 3184 3459 
L 2625 3416 
Q 2550 3747 2413 3897 
Q 2184 4138 1850 4138 
Q 1581 4138 1378 3988 
Q 1113 3794 959 3422 
Q 806 3050 800 2363 
Q 1003 2672 1297 2822 
Q 1591 2972 1913 2972 
Q 2475 2972 2870 2558 
Q 3266 2144 3266 1488 
Q 3266 1056 3080 686 
Q 2894 316 2569 119 
Q 2244 -78 1831 -78 
Q 1128 -78 684 439 
Q 241 956 241 2144 
Q 241 3472 731 4075 
Q 1159 4600 1884 4600 
Q 2425 4600 2770 4297 
Q 3116 3994 3184 3459 
z
M 888 1484 
Q 888 1194 1011 928 
Q 1134 663 1356 523 
Q 1578 384 1822 384 
Q 2178 384 2434 671 
Q 2691 959 2691 1453 
Q 2691 1928 2437 2201 
Q 2184 2475 1800 2475 
Q 1419 2475 1153 2201 
Q 888 1928 888 1484 
z
" transform="scale(0.015625)"/>
        <path id="ArialMT-34" d="M 2069 0 
L 2069 1097 
L 81 1097 
L 81 1613 
L 2172 4581 
L 2631 4581 
L 2631 1613 
L 3250 1613 
L 3250 1097 
L 2631 1097 
L 2631 0 
L 2069 0 
z
M 2069 1613 
L 2069 3678 
L 634 1613 
L 2069 1613 
z
" transform="scale(0.015625)"/>
        <path id="ArialMT-35" d="M 266 1200 
L 856 1250 
Q 922 819 1161 601 
Q 1400 384 1738 384 
Q 2144 384 2425 690 
Q 2706 997 2706 1503 
Q 2706 1984 2436 2262 
Q 2166 2541 1728 2541 
Q 1456 2541 1237 2417 
Q 1019 2294 894 2097 
L 366 2166 
L 809 4519 
L 3088 4519 
L 3088 3981 
L 1259 3981 
L 1013 2750 
Q 1425 3038 1878 3038 
Q 2478 3038 2890 2622 
Q 3303 2206 3303 1553 
Q 3303 931 2941 478 
Q 2500 -78 1738 -78 
Q 1113 -78 717 272 
Q 322 622 266 1200 
z
" transform="scale(0.015625)"/>
        <path id="ArialMT-30" d="M 266 2259 
Q 266 3072 433 3567 
Q 600 4063 929 4331 
Q 1259 4600 1759 4600 
Q 2128 4600 2406 4451 
Q 2684 4303 2865 4023 
Q 3047 3744 3150 3342 
Q 3253 2941 3253 2259 
Q 3253 1453 3087 958 
Q 2922 463 2592 192 
Q 2263 -78 1759 -78 
Q 1097 -78 719 397 
Q 266 969 266 2259 
z
M 844 2259 
Q 844 1131 1108 757 
Q 1372 384 1759 384 
Q 2147 384 2411 759 
Q 2675 1134 2675 2259 
Q 2675 3391 2411 3762 
Q 2147 4134 1753 4134 
Q 1366 4134 1134 3806 
Q 844 3388 844 2259 
z
" transform="scale(0.015625)"/>
       </defs>
       <use xlink:href="#ArialMT-36"/>
       <use xlink:href="#ArialMT-34" x="55.615234"/>
       <use xlink:href="#ArialMT-35" x="111.230469"/>
       <use xlink:href="#ArialMT-30" x="166.845703"/>
       <use xlink:href="#ArialMT-30" x="222.460938"/>
      </g>
     </g>
    </g>
    <g id="ytick_2">
     <g id="line2d_15">
      <path d="M 103.68 209.471211 
L 518.4 209.471211 
" clip-path="url(#p867fb9ef30)" style="fill: none; stroke-dasharray: 2.96,1.28; stroke-dashoffset: 0; stroke: #d0d0d0; stroke-width: 0.8"/>
     </g>
     <g id="line2d_16"/>
     <g id="text_2">
      <!-- 65000 -->
      <g style="fill: #262626" transform="translate(66.814375 213.765898) scale(0.12 -0.12)">
       <use xlink:href="#ArialMT-36"/>
       <use xlink:href="#ArialMT-35" x="55.615234"/>
       <use xlink:href="#ArialMT-30" x="111.230469"/>
       <use xlink:href="#ArialMT-30" x="166.845703"/>
       <use xlink:href="#ArialMT-30" x="222.460938"/>
      </g>
     </g>
    </g>
    <g id="ytick_3">
     <g id="line2d_17">
      <path d="M 103.68 167.156537 
L 518.4 167.156537 
" clip-path="url(#p867fb9ef30)" style="fill: none; stroke-dasharray: 2.96,1.28; stroke-dashoffset: 0; stroke: #d0d0d0; stroke-width: 0.8"/>
     </g>
     <g id="line2d_18"/>
     <g id="text_3">
      <!-- 65500 -->
      <g style="fill: #262626" transform="translate(66.814375 171.451224) scale(0.12 -0.12)">
       <use xlink:href="#ArialMT-36"/>
       <use xlink:href="#ArialMT-35" x="55.615234"/>
       <use xlink:href="#ArialMT-35" x="111.230469"/>
       <use xlink:href="#ArialMT-30" x="166.845703"/>
       <use xlink:href="#ArialMT-30" x="222.460938"/>
      </g>
     </g>
    </g>
    <g id="ytick_4">
     <g id="line2d_19">
      <path d="M 103.68 124.841863 
L 518.4 124.841863 
" clip-path="url(#p867fb9ef30)" style="fill: none; stroke-dasharray: 2.96,1.28; stroke-dashoffset: 0; stroke: #d0d0d0; stroke-width: 0.8"/>
     </g>
     <g id="line2d_20"/>
     <g id="text_4">
      <!-- 66000 -->
      <g style="fill: #262626" transform="translate(66.814375 129.13655) scale(0.12 -0.12)">
       <use xlink:href="#ArialMT-36"/>
       <use xlink:href="#ArialMT-36" x="55.615234"/>
       <use xlink:href="#ArialMT-30" x="111.230469"/>
       <use xlink:href="#ArialMT-30" x="166.845703"/>
       <use xlink:href="#ArialMT-30" x="222.460938"/>
      </g>
     </g>
    </g>
    <g id="ytick_5">
     <g id="line2d_21">
      <path d="M 103.68 82.527189 
L 518.4 82.527189 
" clip-path="url(#p867fb9ef30)" style="fill: none; stroke-dasharray: 2.96,1.28; stroke-dashoffset: 0; stroke: #d0d0d0; stroke-width: 0.8"/>
     </g>
     <g id="line2d_22"/>
     <g id="text_5">
      <!-- 66500 -->
      <g style="fill: #262626" transform="translate(66.814375 86.821876) scale(0.12 -0.12)">
       <use xlink:href="#ArialMT-36"/>
       <use xlink:href="#ArialMT-36" x="55.615234"/>
       <use xlink:href="#ArialMT-35" x="111.230469"/>
       <use xlink:href="#ArialMT-30" x="166.845703"/>
       <use xlink:href="#ArialMT-30" x="222.460938"/>
      </g>
     </g>
    </g>
    <g id="text_6">
     <!-- Price -->
     <g style="fill: #262626" transform="translate(60.44625 167.8575) rotate(-90) scale(0.12 -0.12)">
      <defs>
       <path id="Arial-BoldMT-50" d="M 466 0 
L 466 4581 
L 1950 4581 
Q 2794 4581 3050 4513 
Q 3444 4409 3709 4064 
Q 3975 3719 3975 3172 
Q 3975 2750 3822 2462 
Q 3669 2175 3433 2011 
Q 3197 1847 2953 1794 
Q 2622 1728 1994 1728 
L 1391 1728 
L 1391 0 
L 466 0 
z
M 1391 3806 
L 1391 2506 
L 1897 2506 
Q 2444 2506 2628 2578 
Q 2813 2650 2917 2803 
Q 3022 2956 3022 3159 
Q 3022 3409 2875 3571 
Q 2728 3734 2503 3775 
Q 2338 3806 1838 3806 
L 1391 3806 
z
" transform="scale(0.015625)"/>
       <path id="Arial-BoldMT-72" d="M 1300 0 
L 422 0 
L 422 3319 
L 1238 3319 
L 1238 2847 
Q 1447 3181 1614 3287 
Q 1781 3394 1994 3394 
Q 2294 3394 2572 3228 
L 2300 2463 
Q 2078 2606 1888 2606 
Q 1703 2606 1575 2504 
Q 1447 2403 1373 2137 
Q 1300 1872 1300 1025 
L 1300 0 
z
" transform="scale(0.015625)"/>
       <path id="Arial-BoldMT-69" d="M 459 3769 
L 459 4581 
L 1338 4581 
L 1338 3769 
L 459 3769 
z
M 459 0 
L 459 3319 
L 1338 3319 
L 1338 0 
L 459 0 
z
" transform="scale(0.015625)"/>
       <path id="Arial-BoldMT-63" d="M 3353 2338 
L 2488 2181 
Q 2444 2441 2289 2572 
Q 2134 2703 1888 2703 
Q 1559 2703 1364 2476 
Q 1169 2250 1169 1719 
Q 1169 1128 1367 884 
Q 1566 641 1900 641 
Q 2150 641 2309 783 
Q 2469 925 2534 1272 
L 3397 1125 
Q 3263 531 2881 228 
Q 2500 -75 1859 -75 
Q 1131 -75 698 384 
Q 266 844 266 1656 
Q 266 2478 700 2936 
Q 1134 3394 1875 3394 
Q 2481 3394 2839 3133 
Q 3197 2872 3353 2338 
z
" transform="scale(0.015625)"/>
       <path id="Arial-BoldMT-65" d="M 2381 1056 
L 3256 909 
Q 3088 428 2723 176 
Q 2359 -75 1813 -75 
Q 947 -75 531 491 
Q 203 944 203 1634 
Q 203 2459 634 2926 
Q 1066 3394 1725 3394 
Q 2466 3394 2894 2905 
Q 3322 2416 3303 1406 
L 1103 1406 
Q 1113 1016 1316 798 
Q 1519 581 1822 581 
Q 2028 581 2168 693 
Q 2309 806 2381 1056 
z
M 2431 1944 
Q 2422 2325 2234 2523 
Q 2047 2722 1778 2722 
Q 1491 2722 1303 2513 
Q 1116 2303 1119 1944 
L 2431 1944 
z
" transform="scale(0.015625)"/>
      </defs>
      <use xlink:href="#Arial-BoldMT-50"/>
      <use xlink:href="#Arial-BoldMT-72" x="66.699219"/>
      <use xlink:href="#Arial-BoldMT-69" x="105.615234"/>
      <use xlink:href="#Arial-BoldMT-63" x="133.398438"/>
      <use xlink:href="#Arial-BoldMT-65" x="189.013672"/>
     </g>
    </g>
   </g>
   <g id="PolyCollection_1">
    <path d="M 132.11398 107.209338 
L 132.11398 118.321172 
L 141.949237 118.321172 
L 141.949237 107.209338 
z
" clip-path="url(#p867fb9ef30)" style="fill: #ea0070; fill-opacity: 0.9; stroke: #ea0070"/>
    <path d="M 147.245144 118.321172 
L 147.245144 127.046457 
L 157.080401 127.046457 
L 157.080401 118.321172 
z
" clip-path="url(#p867fb9ef30)" style="fill: #ea0070; fill-opacity: 0.9; stroke: #ea0070"/>
    <path d="M 162.376309 127.046457 
L 162.376309 132.547365 
L 172.211566 132.547365 
L 172.211566 127.046457 
z
" clip-path="url(#p867fb9ef30)" style="fill: #ea0070; fill-opacity: 0.9; stroke: #ea0070"/>
    <path d="M 177.507473 132.547365 
L 177.507473 126.665625 
L 187.34273 126.665625 
L 187.34273 132.547365 
z
" clip-path="url(#p867fb9ef30)" style="fill: #70a800; fill-opacity: 0.9; stroke: #70a800"/>
    <path d="M 192.638638 126.665625 
L 192.638638 141.323428 
L 202.473895 141.323428 
L 202.473895 126.665625 
z
" clip-path="url(#p867fb9ef30)" style="fill: #ea0070; fill-opacity: 0.9; stroke: #ea0070"/>
    <path d="M 207.769802 141.323428 
L 207.769802 144.480103 
L 217.605059 144.480103 
L 217.605059 141.323428 
z
" clip-path="url(#p867fb9ef30)" style="fill: #ea0070; fill-opacity: 0.9; stroke: #ea0070"/>
    <path d="M 222.900967 144.480103 
L 222.900967 129.763059 
L 232.736224 129.763059 
L 232.736224 144.480103 
z
" clip-path="url(#p867fb9ef30)" style="fill: #70a800; fill-opacity: 0.9; stroke: #70a800"/>
    <path d="M 238.032131 129.763059 
L 238.032131 114.978312 
L 247.867388 114.978312 
L 247.867388 129.763059 
z
" clip-path="url(#p867fb9ef30)" style="fill: #70a800; fill-opacity: 0.9; stroke: #70a800"/>
    <path d="M 253.163296 114.978312 
L 253.163296 102.292373 
L 262.998553 102.292373 
L 262.998553 114.978312 
z
" clip-path="url(#p867fb9ef30)" style="fill: #70a800; fill-opacity: 0.9; stroke: #70a800"/>
    <path d="M 268.29446 102.292373 
L 268.29446 96.05519 
L 278.129717 96.05519 
L 278.129717 102.292373 
z
" clip-path="url(#p867fb9ef30)" style="fill: #70a800; fill-opacity: 0.9; stroke: #70a800"/>
    <path d="M 283.425625 96.05519 
L 283.425625 111.847026 
L 293.260882 111.847026 
L 293.260882 96.05519 
z
" clip-path="url(#p867fb9ef30)" style="fill: #ea0070; fill-opacity: 0.9; stroke: #ea0070"/>
    <path d="M 298.556789 111.847026 
L 298.556789 81.456628 
L 308.392046 81.456628 
L 308.392046 111.847026 
z
" clip-path="url(#p867fb9ef30)" style="fill: #70a800; fill-opacity: 0.9; stroke: #70a800"/>
    <path d="M 313.687954 81.456628 
L 313.687954 124.600669 
L 323.523211 124.600669 
L 323.523211 81.456628 
z
" clip-path="url(#p867fb9ef30)" style="fill: #ea0070; fill-opacity: 0.9; stroke: #ea0070"/>
    <path d="M 328.819118 124.600669 
L 328.819118 97.383871 
L 338.654375 97.383871 
L 338.654375 124.600669 
z
" clip-path="url(#p867fb9ef30)" style="fill: #70a800; fill-opacity: 0.9; stroke: #70a800"/>
    <path d="M 343.950283 97.383871 
L 343.950283 159.417183 
L 353.78554 159.417183 
L 353.78554 97.383871 
z
" clip-path="url(#p867fb9ef30)" style="fill: #ea0070; fill-opacity: 0.9; stroke: #ea0070"/>
    <path d="M 359.081447 159.417183 
L 359.081447 142.525165 
L 368.916704 142.525165 
L 368.916704 159.417183 
z
" clip-path="url(#p867fb9ef30)" style="fill: #70a800; fill-opacity: 0.9; stroke: #70a800"/>
    <path d="M 374.212612 142.525165 
L 374.212612 198.981403 
L 384.047869 198.981403 
L 384.047869 142.525165 
z
" clip-path="url(#p867fb9ef30)" style="fill: #ea0070; fill-opacity: 0.9; stroke: #ea0070"/>
    <path d="M 389.343776 198.981403 
L 389.343776 211.421917 
L 399.179033 211.421917 
L 399.179033 198.981403 
z
" clip-path="url(#p867fb9ef30)" style="fill: #ea0070; fill-opacity: 0.9; stroke: #ea0070"/>
    <path d="M 404.474941 211.421917 
L 404.474941 201.816486 
L 414.310198 201.816486 
L 414.310198 211.421917 
z
" clip-path="url(#p867fb9ef30)" style="fill: #70a800; fill-opacity: 0.9; stroke: #70a800"/>
    <path d="M 419.606105 201.816486 
L 419.606105 196.408671 
L 429.441362 196.408671 
L 429.441362 201.816486 
z
" clip-path="url(#p867fb9ef30)" style="fill: #70a800; fill-opacity: 0.9; stroke: #70a800"/>
    <path d="M 434.73727 196.408671 
L 434.73727 189.020529 
L 444.572527 189.020529 
L 444.572527 196.408671 
z
" clip-path="url(#p867fb9ef30)" style="fill: #70a800; fill-opacity: 0.9; stroke: #70a800"/>
    <path d="M 449.868434 189.020529 
L 449.868434 171.900012 
L 459.703691 171.900012 
L 459.703691 189.020529 
z
" clip-path="url(#p867fb9ef30)" style="fill: #70a800; fill-opacity: 0.9; stroke: #70a800"/>
    <path d="M 464.999599 171.900012 
L 464.999599 176.207646 
L 474.834856 176.207646 
L 474.834856 171.900012 
z
" clip-path="url(#p867fb9ef30)" style="fill: #ea0070; fill-opacity: 0.9; stroke: #ea0070"/>
    <path d="M 480.130763 176.207646 
L 480.130763 191.534021 
L 489.96602 191.534021 
L 489.96602 176.207646 
z
" clip-path="url(#p867fb9ef30)" style="fill: #ea0070; fill-opacity: 0.9; stroke: #ea0070"/>
   </g>
   <g id="LineCollection_1">
    <path d="M 137.031608 130.059262 
L 137.031608 118.321172 
" clip-path="url(#p867fb9ef30)" style="fill: none; stroke: #ea0070"/>
    <path d="M 152.162773 139.292324 
L 152.162773 127.046457 
" clip-path="url(#p867fb9ef30)" style="fill: none; stroke: #ea0070"/>
    <path d="M 167.293937 142.685961 
L 167.293937 132.547365 
" clip-path="url(#p867fb9ef30)" style="fill: none; stroke: #ea0070"/>
    <path d="M 182.425102 141.086466 
L 182.425102 132.547365 
" clip-path="url(#p867fb9ef30)" style="fill: none; stroke: #70a800"/>
    <path d="M 197.556266 141.93276 
L 197.556266 141.323428 
" clip-path="url(#p867fb9ef30)" style="fill: none; stroke: #ea0070"/>
    <path d="M 212.687431 148.004915 
L 212.687431 144.480103 
" clip-path="url(#p867fb9ef30)" style="fill: none; stroke: #ea0070"/>
    <path d="M 227.818595 156.717507 
L 227.818595 144.480103 
" clip-path="url(#p867fb9ef30)" style="fill: none; stroke: #70a800"/>
    <path d="M 242.94976 131.963422 
L 242.94976 129.763059 
" clip-path="url(#p867fb9ef30)" style="fill: none; stroke: #70a800"/>
    <path d="M 258.080924 119.015132 
L 258.080924 114.978312 
" clip-path="url(#p867fb9ef30)" style="fill: none; stroke: #70a800"/>
    <path d="M 273.212089 119.446742 
L 273.212089 102.292373 
" clip-path="url(#p867fb9ef30)" style="fill: none; stroke: #70a800"/>
    <path d="M 288.343253 118.321172 
L 288.343253 111.847026 
" clip-path="url(#p867fb9ef30)" style="fill: none; stroke: #ea0070"/>
    <path d="M 303.474418 125.912424 
L 303.474418 111.847026 
" clip-path="url(#p867fb9ef30)" style="fill: none; stroke: #70a800"/>
    <path d="M 318.605582 133.300566 
L 318.605582 124.600669 
" clip-path="url(#p867fb9ef30)" style="fill: none; stroke: #ea0070"/>
    <path d="M 333.736747 146.28694 
L 333.736747 124.600669 
" clip-path="url(#p867fb9ef30)" style="fill: none; stroke: #70a800"/>
    <path d="M 348.867911 163.398994 
L 348.867911 159.417183 
" clip-path="url(#p867fb9ef30)" style="fill: none; stroke: #ea0070"/>
    <path d="M 363.999076 180.447576 
L 363.999076 159.417183 
" clip-path="url(#p867fb9ef30)" style="fill: none; stroke: #70a800"/>
    <path d="M 379.13024 203.204408 
L 379.13024 198.981403 
" clip-path="url(#p867fb9ef30)" style="fill: none; stroke: #ea0070"/>
    <path d="M 394.261405 247.270909 
L 394.261405 211.421917 
" clip-path="url(#p867fb9ef30)" style="fill: none; stroke: #ea0070"/>
    <path d="M 409.392569 226.604422 
L 409.392569 211.421917 
" clip-path="url(#p867fb9ef30)" style="fill: none; stroke: #70a800"/>
    <path d="M 424.523734 204.930846 
L 424.523734 201.816486 
" clip-path="url(#p867fb9ef30)" style="fill: none; stroke: #70a800"/>
    <path d="M 439.654898 207.977503 
L 439.654898 196.408671 
" clip-path="url(#p867fb9ef30)" style="fill: none; stroke: #70a800"/>
    <path d="M 454.786063 190.188414 
L 454.786063 189.020529 
" clip-path="url(#p867fb9ef30)" style="fill: none; stroke: #70a800"/>
    <path d="M 469.917227 199.514568 
L 469.917227 176.207646 
" clip-path="url(#p867fb9ef30)" style="fill: none; stroke: #ea0070"/>
    <path d="M 485.048392 195.257712 
L 485.048392 191.534021 
" clip-path="url(#p867fb9ef30)" style="fill: none; stroke: #ea0070"/>
    <path d="M 137.031608 68.567578 
L 137.031608 107.209338 
" clip-path="url(#p867fb9ef30)" style="fill: none; stroke: #ea0070"/>
    <path d="M 152.162773 107.928688 
L 152.162773 118.321172 
" clip-path="url(#p867fb9ef30)" style="fill: none; stroke: #ea0070"/>
    <path d="M 167.293937 115.841532 
L 167.293937 127.046457 
" clip-path="url(#p867fb9ef30)" style="fill: none; stroke: #ea0070"/>
    <path d="M 182.425102 118.498893 
L 182.425102 126.665625 
" clip-path="url(#p867fb9ef30)" style="fill: none; stroke: #70a800"/>
    <path d="M 197.556266 124.600669 
L 197.556266 126.665625 
" clip-path="url(#p867fb9ef30)" style="fill: none; stroke: #ea0070"/>
    <path d="M 212.687431 133.503677 
L 212.687431 141.323428 
" clip-path="url(#p867fb9ef30)" style="fill: none; stroke: #ea0070"/>
    <path d="M 227.818595 125.954739 
L 227.818595 129.763059 
" clip-path="url(#p867fb9ef30)" style="fill: none; stroke: #70a800"/>
    <path d="M 242.94976 104.298089 
L 242.94976 114.978312 
" clip-path="url(#p867fb9ef30)" style="fill: none; stroke: #70a800"/>
    <path d="M 258.080924 88.793992 
L 258.080924 102.292373 
" clip-path="url(#p867fb9ef30)" style="fill: none; stroke: #70a800"/>
    <path d="M 273.212089 95.665895 
L 273.212089 96.05519 
" clip-path="url(#p867fb9ef30)" style="fill: none; stroke: #70a800"/>
    <path d="M 288.343253 96.05519 
L 288.343253 96.05519 
" clip-path="url(#p867fb9ef30)" style="fill: none; stroke: #ea0070"/>
    <path d="M 303.474418 72.735573 
L 303.474418 81.456628 
" clip-path="url(#p867fb9ef30)" style="fill: none; stroke: #70a800"/>
    <path d="M 318.605582 59.089091 
L 318.605582 81.456628 
" clip-path="url(#p867fb9ef30)" style="fill: none; stroke: #ea0070"/>
    <path d="M 333.736747 94.15103 
L 333.736747 97.383871 
" clip-path="url(#p867fb9ef30)" style="fill: none; stroke: #70a800"/>
    <path d="M 348.867911 92.263795 
L 348.867911 97.383871 
" clip-path="url(#p867fb9ef30)" style="fill: none; stroke: #ea0070"/>
    <path d="M 363.999076 135.340133 
L 363.999076 142.525165 
" clip-path="url(#p867fb9ef30)" style="fill: none; stroke: #70a800"/>
    <path d="M 379.13024 141.780427 
L 379.13024 142.525165 
" clip-path="url(#p867fb9ef30)" style="fill: none; stroke: #ea0070"/>
    <path d="M 394.261405 179.245839 
L 394.261405 198.981403 
" clip-path="url(#p867fb9ef30)" style="fill: none; stroke: #ea0070"/>
    <path d="M 409.392569 195.36773 
L 409.392569 201.816486 
" clip-path="url(#p867fb9ef30)" style="fill: none; stroke: #70a800"/>
    <path d="M 424.523734 162.116859 
L 424.523734 196.408671 
" clip-path="url(#p867fb9ef30)" style="fill: none; stroke: #70a800"/>
    <path d="M 439.654898 187.666459 
L 439.654898 189.020529 
" clip-path="url(#p867fb9ef30)" style="fill: none; stroke: #70a800"/>
    <path d="M 454.786063 165.84055 
L 454.786063 171.900012 
" clip-path="url(#p867fb9ef30)" style="fill: none; stroke: #70a800"/>
    <path d="M 469.917227 169.936611 
L 469.917227 171.900012 
" clip-path="url(#p867fb9ef30)" style="fill: none; stroke: #ea0070"/>
    <path d="M 485.048392 175.776036 
L 485.048392 176.207646 
" clip-path="url(#p867fb9ef30)" style="fill: none; stroke: #ea0070"/>
   </g>
   <g id="patch_3">
    <path d="M 103.68 256.68 
L 103.68 49.68 
" style="fill: none; stroke: #e6e6e6; stroke-width: 1.5; stroke-linejoin: miter; stroke-linecap: square"/>
   </g>
   <g id="patch_4">
    <path d="M 518.4 256.68 
L 518.4 49.68 
" style="fill: none; stroke: #e6e6e6; stroke-width: 1.5; stroke-linejoin: miter; stroke-linecap: square"/>
   </g>
   <g id="patch_5">
    <path d="M 103.68 256.68 
L 518.4 256.68 
" style="fill: none; stroke: #e6e6e6; stroke-width: 1.5; stroke-linejoin: miter; stroke-linecap: square"/>
   </g>
   <g id="patch_6">
    <path d="M 103.68 49.68 
L 518.4 49.68 
" style="fill: none; stroke: #e6e6e6; stroke-width: 1.5; stroke-linejoin: miter; stroke-linecap: square"/>
   </g>
  </g>
  <g id="axes_2">
   <g id="patch_7">
    <path d="M 103.68 339.48 
L 518.4 339.48 
L 518.4 256.68 
L 103.68 256.68 
z
" style="fill: #ffffff"/>
   </g>
   <g id="matplotlib.axis_3">
    <g id="xtick_7">
     <g id="line2d_23">
      <path d="M 137.031608 339.48 
L 137.031608 256.68 
" clip-path="url(#p7f4e342791)" style="fill: none; stroke-dasharray: 2.96,1.28; stroke-dashoffset: 0; stroke: #d0d0d0; stroke-width: 0.8"/>
     </g>
     <g id="line2d_24"/>
     <g id="text_7">
      <!-- 00:00 -->
      <g style="fill: #262626" transform="translate(128.609304 370.28537) rotate(-45) scale(0.12 -0.12)">
       <defs>
        <path id="ArialMT-3a" d="M 578 2678 
L 578 3319 
L 1219 3319 
L 1219 2678 
L 578 2678 
z
M 578 0 
L 578 641 
L 1219 641 
L 1219 0 
L 578 0 
z
" transform="scale(0.015625)"/>
       </defs>
       <use xlink:href="#ArialMT-30"/>
       <use xlink:href="#ArialMT-30" x="55.615234"/>
       <use xlink:href="#ArialMT-3a" x="111.230469"/>
       <use xlink:href="#ArialMT-30" x="139.013672"/>
       <use xlink:href="#ArialMT-30" x="194.628906"/>
      </g>
     </g>
    </g>
    <g id="xtick_8">
     <g id="line2d_25">
      <path d="M 212.687431 339.48 
L 212.687431 256.68 
" clip-path="url(#p7f4e342791)" style="fill: none; stroke-dasharray: 2.96,1.28; stroke-dashoffset: 0; stroke: #d0d0d0; stroke-width: 0.8"/>
     </g>
     <g id="line2d_26"/>
     <g id="text_8">
      <!-- 05:00 -->
      <g style="fill: #262626" transform="translate(204.265126 370.28537) rotate(-45) scale(0.12 -0.12)">
       <use xlink:href="#ArialMT-30"/>
       <use xlink:href="#ArialMT-35" x="55.615234"/>
       <use xlink:href="#ArialMT-3a" x="111.230469"/>
       <use xlink:href="#ArialMT-30" x="139.013672"/>
       <use xlink:href="#ArialMT-30" x="194.628906"/>
      </g>
     </g>
    </g>
    <g id="xtick_9">
     <g id="line2d_27">
      <path d="M 288.343253 339.48 
L 288.343253 256.68 
" clip-path="url(#p7f4e342791)" style="fill: none; stroke-dasharray: 2.96,1.28; stroke-dashoffset: 0; stroke: #d0d0d0; stroke-width: 0.8"/>
     </g>
     <g id="line2d_28"/>
     <g id="text_9">
      <!-- 10:00 -->
      <g style="fill: #262626" transform="translate(279.920949 370.28537) rotate(-45) scale(0.12 -0.12)">
       <defs>
        <path id="ArialMT-31" d="M 2384 0 
L 1822 0 
L 1822 3584 
Q 1619 3391 1289 3197 
Q 959 3003 697 2906 
L 697 3450 
Q 1169 3672 1522 3987 
Q 1875 4303 2022 4600 
L 2384 4600 
L 2384 0 
z
" transform="scale(0.015625)"/>
       </defs>
       <use xlink:href="#ArialMT-31"/>
       <use xlink:href="#ArialMT-30" x="55.615234"/>
       <use xlink:href="#ArialMT-3a" x="111.230469"/>
       <use xlink:href="#ArialMT-30" x="139.013672"/>
       <use xlink:href="#ArialMT-30" x="194.628906"/>
      </g>
     </g>
    </g>
    <g id="xtick_10">
     <g id="line2d_29">
      <path d="M 363.999076 339.48 
L 363.999076 256.68 
" clip-path="url(#p7f4e342791)" style="fill: none; stroke-dasharray: 2.96,1.28; stroke-dashoffset: 0; stroke: #d0d0d0; stroke-width: 0.8"/>
     </g>
     <g id="line2d_30"/>
     <g id="text_10">
      <!-- 15:00 -->
      <g style="fill: #262626" transform="translate(355.576771 370.28537) rotate(-45) scale(0.12 -0.12)">
       <use xlink:href="#ArialMT-31"/>
       <use xlink:href="#ArialMT-35" x="55.615234"/>
       <use xlink:href="#ArialMT-3a" x="111.230469"/>
       <use xlink:href="#ArialMT-30" x="139.013672"/>
       <use xlink:href="#ArialMT-30" x="194.628906"/>
      </g>
     </g>
    </g>
    <g id="xtick_11">
     <g id="line2d_31">
      <path d="M 439.654898 339.48 
L 439.654898 256.68 
" clip-path="url(#p7f4e342791)" style="fill: none; stroke-dasharray: 2.96,1.28; stroke-dashoffset: 0; stroke: #d0d0d0; stroke-width: 0.8"/>
     </g>
     <g id="line2d_32"/>
     <g id="text_11">
      <!-- 20:00 -->
      <g style="fill: #262626" transform="translate(431.232593 370.28537) rotate(-45) scale(0.12 -0.12)">
       <defs>
        <path id="ArialMT-32" d="M 3222 541 
L 3222 0 
L 194 0 
Q 188 203 259 391 
Q 375 700 629 1000 
Q 884 1300 1366 1694 
Q 2113 2306 2375 2664 
Q 2638 3022 2638 3341 
Q 2638 3675 2398 3904 
Q 2159 4134 1775 4134 
Q 1369 4134 1125 3890 
Q 881 3647 878 3216 
L 300 3275 
Q 359 3922 746 4261 
Q 1134 4600 1788 4600 
Q 2447 4600 2831 4234 
Q 3216 3869 3216 3328 
Q 3216 3053 3103 2787 
Q 2991 2522 2730 2228 
Q 2469 1934 1863 1422 
Q 1356 997 1212 845 
Q 1069 694 975 541 
L 3222 541 
z
" transform="scale(0.015625)"/>
       </defs>
       <use xlink:href="#ArialMT-32"/>
       <use xlink:href="#ArialMT-30" x="55.615234"/>
       <use xlink:href="#ArialMT-3a" x="111.230469"/>
       <use xlink:href="#ArialMT-30" x="139.013672"/>
       <use xlink:href="#ArialMT-30" x="194.628906"/>
      </g>
     </g>
    </g>
    <g id="xtick_12">
     <g id="line2d_33">
      <path d="M 515.310721 339.48 
L 515.310721 256.68 
" clip-path="url(#p7f4e342791)" style="fill: none; stroke-dasharray: 2.96,1.28; stroke-dashoffset: 0; stroke: #d0d0d0; stroke-width: 0.8"/>
     </g>
     <g id="line2d_34"/>
    </g>
   </g>
   <g id="matplotlib.axis_4">
    <g id="ytick_6">
     <g id="line2d_35">
      <path d="M 103.68 319.790998 
L 518.4 319.790998 
" clip-path="url(#p7f4e342791)" style="fill: none; stroke-dasharray: 2.96,1.28; stroke-dashoffset: 0; stroke: #d0d0d0; stroke-width: 0.8"/>
     </g>
     <g id="line2d_36"/>
     <g id="text_12">
      <!-- 100000 -->
      <g style="fill: #262626" transform="translate(60.14125 324.085686) scale(0.12 -0.12)">
       <use xlink:href="#ArialMT-31"/>
       <use xlink:href="#ArialMT-30" x="55.615234"/>
       <use xlink:href="#ArialMT-30" x="111.230469"/>
       <use xlink:href="#ArialMT-30" x="166.845703"/>
       <use xlink:href="#ArialMT-30" x="222.460938"/>
       <use xlink:href="#ArialMT-30" x="278.076172"/>
      </g>
     </g>
    </g>
    <g id="ytick_7">
     <g id="line2d_37">
      <path d="M 103.68 293.886564 
L 518.4 293.886564 
" clip-path="url(#p7f4e342791)" style="fill: none; stroke-dasharray: 2.96,1.28; stroke-dashoffset: 0; stroke: #d0d0d0; stroke-width: 0.8"/>
     </g>
     <g id="line2d_38"/>
     <g id="text_13">
      <!-- 200000 -->
      <g style="fill: #262626" transform="translate(60.14125 298.181252) scale(0.12 -0.12)">
       <use xlink:href="#ArialMT-32"/>
       <use xlink:href="#ArialMT-30" x="55.615234"/>
       <use xlink:href="#ArialMT-30" x="111.230469"/>
       <use xlink:href="#ArialMT-30" x="166.845703"/>
       <use xlink:href="#ArialMT-30" x="222.460938"/>
       <use xlink:href="#ArialMT-30" x="278.076172"/>
      </g>
     </g>
    </g>
    <g id="ytick_8">
     <g id="line2d_39">
      <path d="M 103.68 267.98213 
L 518.4 267.98213 
" clip-path="url(#p7f4e342791)" style="fill: none; stroke-dasharray: 2.96,1.28; stroke-dashoffset: 0; stroke: #d0d0d0; stroke-width: 0.8"/>
     </g>
     <g id="line2d_40"/>
     <g id="text_14">
      <!-- 300000 -->
      <g style="fill: #262626" transform="translate(60.14125 272.276818) scale(0.12 -0.12)">
       <defs>
        <path id="ArialMT-33" d="M 269 1209 
L 831 1284 
Q 928 806 1161 595 
Q 1394 384 1728 384 
Q 2125 384 2398 659 
Q 2672 934 2672 1341 
Q 2672 1728 2419 1979 
Q 2166 2231 1775 2231 
Q 1616 2231 1378 2169 
L 1441 2663 
Q 1497 2656 1531 2656 
Q 1891 2656 2178 2843 
Q 2466 3031 2466 3422 
Q 2466 3731 2256 3934 
Q 2047 4138 1716 4138 
Q 1388 4138 1169 3931 
Q 950 3725 888 3313 
L 325 3413 
Q 428 3978 793 4289 
Q 1159 4600 1703 4600 
Q 2078 4600 2393 4439 
Q 2709 4278 2876 4000 
Q 3044 3722 3044 3409 
Q 3044 3113 2884 2869 
Q 2725 2625 2413 2481 
Q 2819 2388 3044 2092 
Q 3269 1797 3269 1353 
Q 3269 753 2831 336 
Q 2394 -81 1725 -81 
Q 1122 -81 723 278 
Q 325 638 269 1209 
z
" transform="scale(0.015625)"/>
       </defs>
       <use xlink:href="#ArialMT-33"/>
       <use xlink:href="#ArialMT-30" x="55.615234"/>
       <use xlink:href="#ArialMT-30" x="111.230469"/>
       <use xlink:href="#ArialMT-30" x="166.845703"/>
       <use xlink:href="#ArialMT-30" x="222.460938"/>
       <use xlink:href="#ArialMT-30" x="278.076172"/>
      </g>
     </g>
    </g>
    <g id="text_15">
     <!-- Volume -->
     <g style="fill: #262626" transform="translate(53.773125 319.307813) rotate(-90) scale(0.12 -0.12)">
      <defs>
       <path id="Arial-BoldMT-56" d="M 1634 0 
L -3 4581 
L 1000 4581 
L 2159 1191 
L 3281 4581 
L 4263 4581 
L 2622 0 
L 1634 0 
z
" transform="scale(0.015625)"/>
       <path id="Arial-BoldMT-6f" d="M 256 1706 
Q 256 2144 472 2553 
Q 688 2963 1083 3178 
Q 1478 3394 1966 3394 
Q 2719 3394 3200 2905 
Q 3681 2416 3681 1669 
Q 3681 916 3195 420 
Q 2709 -75 1972 -75 
Q 1516 -75 1102 131 
Q 688 338 472 736 
Q 256 1134 256 1706 
z
M 1156 1659 
Q 1156 1166 1390 903 
Q 1625 641 1969 641 
Q 2313 641 2545 903 
Q 2778 1166 2778 1666 
Q 2778 2153 2545 2415 
Q 2313 2678 1969 2678 
Q 1625 2678 1390 2415 
Q 1156 2153 1156 1659 
z
" transform="scale(0.015625)"/>
       <path id="Arial-BoldMT-6c" d="M 459 0 
L 459 4581 
L 1338 4581 
L 1338 0 
L 459 0 
z
" transform="scale(0.015625)"/>
       <path id="Arial-BoldMT-75" d="M 2644 0 
L 2644 497 
Q 2463 231 2167 78 
Q 1872 -75 1544 -75 
Q 1209 -75 943 72 
Q 678 219 559 484 
Q 441 750 441 1219 
L 441 3319 
L 1319 3319 
L 1319 1794 
Q 1319 1094 1367 936 
Q 1416 778 1544 686 
Q 1672 594 1869 594 
Q 2094 594 2272 717 
Q 2450 841 2515 1023 
Q 2581 1206 2581 1919 
L 2581 3319 
L 3459 3319 
L 3459 0 
L 2644 0 
z
" transform="scale(0.015625)"/>
       <path id="Arial-BoldMT-6d" d="M 394 3319 
L 1203 3319 
L 1203 2866 
Q 1638 3394 2238 3394 
Q 2556 3394 2790 3262 
Q 3025 3131 3175 2866 
Q 3394 3131 3647 3262 
Q 3900 3394 4188 3394 
Q 4553 3394 4806 3245 
Q 5059 3097 5184 2809 
Q 5275 2597 5275 2122 
L 5275 0 
L 4397 0 
L 4397 1897 
Q 4397 2391 4306 2534 
Q 4184 2722 3931 2722 
Q 3747 2722 3584 2609 
Q 3422 2497 3350 2280 
Q 3278 2063 3278 1594 
L 3278 0 
L 2400 0 
L 2400 1819 
Q 2400 2303 2353 2443 
Q 2306 2584 2207 2653 
Q 2109 2722 1941 2722 
Q 1738 2722 1575 2612 
Q 1413 2503 1342 2297 
Q 1272 2091 1272 1613 
L 1272 0 
L 394 0 
L 394 3319 
z
" transform="scale(0.015625)"/>
      </defs>
      <use xlink:href="#Arial-BoldMT-56"/>
      <use xlink:href="#Arial-BoldMT-6f" x="59.324219"/>
      <use xlink:href="#Arial-BoldMT-6c" x="120.408203"/>
      <use xlink:href="#Arial-BoldMT-75" x="148.191406"/>
      <use xlink:href="#Arial-BoldMT-6d" x="209.275391"/>
      <use xlink:href="#Arial-BoldMT-65" x="298.191406"/>
     </g>
    </g>
   </g>
   <g id="patch_8">
    <path d="M 129.617338 345.695432 
L 144.445879 345.695432 
L 144.445879 289.186982 
L 129.617338 289.186982 
z
" clip-path="url(#p7f4e342791)" style="fill: #ea0070; stroke: #d30065; stroke-width: 0.65; stroke-linejoin: miter"/>
   </g>
   <g id="patch_9">
    <path d="M 144.748502 345.695432 
L 159.577043 345.695432 
L 159.577043 314.502867 
L 144.748502 314.502867 
z
" clip-path="url(#p7f4e342791)" style="fill: #ea0070; stroke: #d30065; stroke-width: 0.65; stroke-linejoin: miter"/>
   </g>
   <g id="patch_10">
    <path d="M 159.879667 345.695432 
L 174.708208 345.695432 
L 174.708208 318.179742 
L 159.879667 318.179742 
z
" clip-path="url(#p7f4e342791)" style="fill: #ea0070; stroke: #d30065; stroke-width: 0.65; stroke-linejoin: miter"/>
   </g>
   <g id="patch_11">
    <path d="M 175.010831 345.695432 
L 189.839372 345.695432 
L 189.839372 319.563039 
L 175.010831 319.563039 
z
" clip-path="url(#p7f4e342791)" style="fill: #70a800; stroke: #659700; stroke-width: 0.65; stroke-linejoin: miter"/>
   </g>
   <g id="patch_12">
    <path d="M 190.141996 345.695432 
L 204.970537 345.695432 
L 204.970537 324.812832 
L 190.141996 324.812832 
z
" clip-path="url(#p7f4e342791)" style="fill: #ea0070; stroke: #d30065; stroke-width: 0.65; stroke-linejoin: miter"/>
   </g>
   <g id="patch_13">
    <path d="M 205.27316 345.695432 
L 220.101701 345.695432 
L 220.101701 324.977325 
L 205.27316 324.977325 
z
" clip-path="url(#p7f4e342791)" style="fill: #ea0070; stroke: #d30065; stroke-width: 0.65; stroke-linejoin: miter"/>
   </g>
   <g id="patch_14">
    <path d="M 220.404325 345.695432 
L 235.232866 345.695432 
L 235.232866 320.706461 
L 220.404325 320.706461 
z
" clip-path="url(#p7f4e342791)" style="fill: #70a800; stroke: #659700; stroke-width: 0.65; stroke-linejoin: miter"/>
   </g>
   <g id="patch_15">
    <path d="M 235.535489 345.695432 
L 250.36403 345.695432 
L 250.36403 315.219643 
L 235.535489 315.219643 
z
" clip-path="url(#p7f4e342791)" style="fill: #70a800; stroke: #659700; stroke-width: 0.65; stroke-linejoin: miter"/>
   </g>
   <g id="patch_16">
    <path d="M 250.666654 345.695432 
L 265.495195 345.695432 
L 265.495195 311.186841 
L 250.666654 311.186841 
z
" clip-path="url(#p7f4e342791)" style="fill: #70a800; stroke: #659700; stroke-width: 0.65; stroke-linejoin: miter"/>
   </g>
   <g id="patch_17">
    <path d="M 265.797818 345.695432 
L 280.626359 345.695432 
L 280.626359 317.042538 
L 265.797818 317.042538 
z
" clip-path="url(#p7f4e342791)" style="fill: #70a800; stroke: #659700; stroke-width: 0.65; stroke-linejoin: miter"/>
   </g>
   <g id="patch_18">
    <path d="M 280.928983 345.695432 
L 295.757524 345.695432 
L 295.757524 317.82537 
L 280.928983 317.82537 
z
" clip-path="url(#p7f4e342791)" style="fill: #ea0070; stroke: #d30065; stroke-width: 0.65; stroke-linejoin: miter"/>
   </g>
   <g id="patch_19">
    <path d="M 296.060147 345.695432 
L 310.888688 345.695432 
L 310.888688 314.074408 
L 296.060147 314.074408 
z
" clip-path="url(#p7f4e342791)" style="fill: #70a800; stroke: #659700; stroke-width: 0.65; stroke-linejoin: miter"/>
   </g>
   <g id="patch_20">
    <path d="M 311.191312 345.695432 
L 326.019853 345.695432 
L 326.019853 264.772312 
L 311.191312 264.772312 
z
" clip-path="url(#p7f4e342791)" style="fill: #ea0070; stroke: #d30065; stroke-width: 0.65; stroke-linejoin: miter"/>
   </g>
   <g id="patch_21">
    <path d="M 326.322476 345.695432 
L 341.151017 345.695432 
L 341.151017 282.588086 
L 326.322476 282.588086 
z
" clip-path="url(#p7f4e342791)" style="fill: #70a800; stroke: #659700; stroke-width: 0.65; stroke-linejoin: miter"/>
   </g>
   <g id="patch_22">
    <path d="M 341.453641 345.695432 
L 356.282182 345.695432 
L 356.282182 265.856154 
L 341.453641 265.856154 
z
" clip-path="url(#p7f4e342791)" style="fill: #ea0070; stroke: #d30065; stroke-width: 0.65; stroke-linejoin: miter"/>
   </g>
   <g id="patch_23">
    <path d="M 356.584805 345.695432 
L 371.413346 345.695432 
L 371.413346 273.274406 
L 356.584805 273.274406 
z
" clip-path="url(#p7f4e342791)" style="fill: #70a800; stroke: #659700; stroke-width: 0.65; stroke-linejoin: miter"/>
   </g>
   <g id="patch_24">
    <path d="M 371.71597 345.695432 
L 386.544511 345.695432 
L 386.544511 276.757257 
L 371.71597 276.757257 
z
" clip-path="url(#p7f4e342791)" style="fill: #ea0070; stroke: #d30065; stroke-width: 0.65; stroke-linejoin: miter"/>
   </g>
   <g id="patch_25">
    <path d="M 386.847134 345.695432 
L 401.675675 345.695432 
L 401.675675 266.652197 
L 386.847134 266.652197 
z
" clip-path="url(#p7f4e342791)" style="fill: #ea0070; stroke: #d30065; stroke-width: 0.65; stroke-linejoin: miter"/>
   </g>
   <g id="patch_26">
    <path d="M 401.978299 345.695432 
L 416.80684 345.695432 
L 416.80684 302.704952 
L 401.978299 302.704952 
z
" clip-path="url(#p7f4e342791)" style="fill: #70a800; stroke: #659700; stroke-width: 0.65; stroke-linejoin: miter"/>
   </g>
   <g id="patch_27">
    <path d="M 417.109463 345.695432 
L 431.938004 345.695432 
L 431.938004 305.536306 
L 417.109463 305.536306 
z
" clip-path="url(#p7f4e342791)" style="fill: #70a800; stroke: #659700; stroke-width: 0.65; stroke-linejoin: miter"/>
   </g>
   <g id="patch_28">
    <path d="M 432.240628 345.695432 
L 447.069169 345.695432 
L 447.069169 320.939342 
L 432.240628 320.939342 
z
" clip-path="url(#p7f4e342791)" style="fill: #70a800; stroke: #659700; stroke-width: 0.65; stroke-linejoin: miter"/>
   </g>
   <g id="patch_29">
    <path d="M 447.371792 345.695432 
L 462.200333 345.695432 
L 462.200333 321.384639 
L 447.371792 321.384639 
z
" clip-path="url(#p7f4e342791)" style="fill: #70a800; stroke: #659700; stroke-width: 0.65; stroke-linejoin: miter"/>
   </g>
   <g id="patch_30">
    <path d="M 462.502957 345.695432 
L 477.331498 345.695432 
L 477.331498 318.217563 
L 462.502957 318.217563 
z
" clip-path="url(#p7f4e342791)" style="fill: #ea0070; stroke: #d30065; stroke-width: 0.65; stroke-linejoin: miter"/>
   </g>
   <g id="patch_31">
    <path d="M 477.634121 345.695432 
L 492.462662 345.695432 
L 492.462662 324.571402 
L 477.634121 324.571402 
z
" clip-path="url(#p7f4e342791)" style="fill: #ea0070; stroke: #d30065; stroke-width: 0.65; stroke-linejoin: miter"/>
   </g>
   <g id="patch_32">
    <path d="M 103.68 339.48 
L 103.68 256.68 
" style="fill: none; stroke: #e6e6e6; stroke-width: 1.5; stroke-linejoin: miter; stroke-linecap: square"/>
   </g>
   <g id="patch_33">
    <path d="M 518.4 339.48 
L 518.4 256.68 
" style="fill: none; stroke: #e6e6e6; stroke-width: 1.5; stroke-linejoin: miter; stroke-linecap: square"/>
   </g>
   <g id="patch_34">
    <path d="M 103.68 339.48 
L 518.4 339.48 
" style="fill: none; stroke: #e6e6e6; stroke-width: 1.5; stroke-linejoin: miter; stroke-linecap: square"/>
   </g>
   <g id="patch_35">
    <path d="M 103.68 256.68 
L 518.4 256.68 
" style="fill: none; stroke: #e6e6e6; stroke-width: 1.5; stroke-linejoin: miter; stroke-linecap: square"/>
   </g>
  </g>
  <g id="text_16">
   <!-- BTC - day 1 -->
   <g style="fill: #262626" transform="translate(240.4746 12.7512) scale(0.1728 -0.1728)">
    <defs>
     <path id="Arial-BoldMT-42" d="M 469 4581 
L 2300 4581 
Q 2844 4581 3111 4536 
Q 3378 4491 3589 4347 
Q 3800 4203 3940 3964 
Q 4081 3725 4081 3428 
Q 4081 3106 3907 2837 
Q 3734 2569 3438 2434 
Q 3856 2313 4081 2019 
Q 4306 1725 4306 1328 
Q 4306 1016 4161 720 
Q 4016 425 3764 248 
Q 3513 72 3144 31 
Q 2913 6 2028 0 
L 469 0 
L 469 4581 
z
M 1394 3819 
L 1394 2759 
L 2000 2759 
Q 2541 2759 2672 2775 
Q 2909 2803 3045 2939 
Q 3181 3075 3181 3297 
Q 3181 3509 3064 3642 
Q 2947 3775 2716 3803 
Q 2578 3819 1925 3819 
L 1394 3819 
z
M 1394 1997 
L 1394 772 
L 2250 772 
Q 2750 772 2884 800 
Q 3091 838 3220 983 
Q 3350 1128 3350 1372 
Q 3350 1578 3250 1722 
Q 3150 1866 2961 1931 
Q 2772 1997 2141 1997 
L 1394 1997 
z
" transform="scale(0.015625)"/>
     <path id="Arial-BoldMT-54" d="M 1497 0 
L 1497 3806 
L 138 3806 
L 138 4581 
L 3778 4581 
L 3778 3806 
L 2422 3806 
L 2422 0 
L 1497 0 
z
" transform="scale(0.015625)"/>
     <path id="Arial-BoldMT-43" d="M 3397 1684 
L 4294 1400 
Q 4088 650 3608 286 
Q 3128 -78 2391 -78 
Q 1478 -78 890 545 
Q 303 1169 303 2250 
Q 303 3394 893 4026 
Q 1484 4659 2447 4659 
Q 3288 4659 3813 4163 
Q 4125 3869 4281 3319 
L 3366 3100 
Q 3284 3456 3026 3662 
Q 2769 3869 2400 3869 
Q 1891 3869 1573 3503 
Q 1256 3138 1256 2319 
Q 1256 1450 1568 1081 
Q 1881 713 2381 713 
Q 2750 713 3015 947 
Q 3281 1181 3397 1684 
z
" transform="scale(0.015625)"/>
     <path id="Arial-BoldMT-20" transform="scale(0.015625)"/>
     <path id="Arial-BoldMT-2d" d="M 359 1222 
L 359 2100 
L 2084 2100 
L 2084 1222 
L 359 1222 
z
" transform="scale(0.015625)"/>
     <path id="Arial-BoldMT-64" d="M 3503 0 
L 2688 0 
L 2688 488 
Q 2484 203 2207 64 
Q 1931 -75 1650 -75 
Q 1078 -75 670 386 
Q 263 847 263 1672 
Q 263 2516 659 2955 
Q 1056 3394 1663 3394 
Q 2219 3394 2625 2931 
L 2625 4581 
L 3503 4581 
L 3503 0 
z
M 1159 1731 
Q 1159 1200 1306 963 
Q 1519 619 1900 619 
Q 2203 619 2415 876 
Q 2628 1134 2628 1647 
Q 2628 2219 2422 2470 
Q 2216 2722 1894 2722 
Q 1581 2722 1370 2473 
Q 1159 2225 1159 1731 
z
" transform="scale(0.015625)"/>
     <path id="Arial-BoldMT-61" d="M 1116 2306 
L 319 2450 
Q 453 2931 781 3162 
Q 1109 3394 1756 3394 
Q 2344 3394 2631 3255 
Q 2919 3116 3036 2902 
Q 3153 2688 3153 2116 
L 3144 1091 
Q 3144 653 3186 445 
Q 3228 238 3344 0 
L 2475 0 
Q 2441 88 2391 259 
Q 2369 338 2359 363 
Q 2134 144 1878 34 
Q 1622 -75 1331 -75 
Q 819 -75 523 203 
Q 228 481 228 906 
Q 228 1188 362 1408 
Q 497 1628 739 1745 
Q 981 1863 1438 1950 
Q 2053 2066 2291 2166 
L 2291 2253 
Q 2291 2506 2166 2614 
Q 2041 2722 1694 2722 
Q 1459 2722 1328 2630 
Q 1197 2538 1116 2306 
z
M 2291 1594 
Q 2122 1538 1756 1459 
Q 1391 1381 1278 1306 
Q 1106 1184 1106 997 
Q 1106 813 1243 678 
Q 1381 544 1594 544 
Q 1831 544 2047 700 
Q 2206 819 2256 991 
Q 2291 1103 2291 1419 
L 2291 1594 
z
" transform="scale(0.015625)"/>
     <path id="Arial-BoldMT-79" d="M 44 3319 
L 978 3319 
L 1772 963 
L 2547 3319 
L 3456 3319 
L 2284 125 
L 2075 -453 
Q 1959 -744 1854 -897 
Q 1750 -1050 1614 -1145 
Q 1478 -1241 1279 -1294 
Q 1081 -1347 831 -1347 
Q 578 -1347 334 -1294 
L 256 -606 
Q 463 -647 628 -647 
Q 934 -647 1081 -467 
Q 1228 -288 1306 -9 
L 44 3319 
z
" transform="scale(0.015625)"/>
     <path id="Arial-BoldMT-31" d="M 2519 0 
L 1641 0 
L 1641 3309 
Q 1159 2859 506 2644 
L 506 3441 
Q 850 3553 1253 3867 
Q 1656 4181 1806 4600 
L 2519 4600 
L 2519 0 
z
" transform="scale(0.015625)"/>
    </defs>
    <use xlink:href="#Arial-BoldMT-42"/>
    <use xlink:href="#Arial-BoldMT-54" x="72.216797"/>
    <use xlink:href="#Arial-BoldMT-43" x="133.300781"/>
    <use xlink:href="#Arial-BoldMT-20" x="205.517578"/>
    <use xlink:href="#Arial-BoldMT-2d" x="233.300781"/>
    <use xlink:href="#Arial-BoldMT-20" x="266.601562"/>
    <use xlink:href="#Arial-BoldMT-64" x="294.384766"/>
    <use xlink:href="#Arial-BoldMT-61" x="355.46875"/>
    <use xlink:href="#Arial-BoldMT-79" x="411.083984"/>
    <use xlink:href="#Arial-BoldMT-20" x="466.699219"/>
    <use xlink:href="#Arial-BoldMT-31" x="494.482422"/>
   </g>
  </g>
 </g>
 <defs>
  <clipPath id="p867fb9ef30">
   <rect x="103.68" y="49.68" width="414.72" height="207"/>
  </clipPath>
  <clipPath id="p7f4e342791">
   <rect x="103.68" y="256.68" width="414.72" height="82.8"/>
  </clipPath>
 </defs>
</svg>
