<?xml version="1.0" encoding="utf-8" standalone="no"?>
<!DOCTYPE svg PUBLIC "-//W3C//DTD SVG 1.1//EN"
  "http://www.w3.org/Graphics/SVG/1.1/DTD/svg11.dtd">
<svg xmlns:xlink="http://www.w3.org/1999/xlink" width="576pt" height="414pt" viewBox="0 0 576 414" xmlns="http://www.w3.org/2000/svg" version="1.1">
 <metadata>
  <rdf:RDF xmlns:dc="http://purl.org/dc/elements/1.1/" xmlns:cc="http://creativecommons.org/ns#" xmlns:rdf="http://www.w3.org/1999/02/22-rdf-syntax-ns#">
   <cc:Work>
    <dc:type rdf:resource="http://purl.org/dc/dcmitype/StillImage"/>
    <dc:date>2024-06-01T01:03:21.321966</dc:date>
    <dc:format>image/svg+xml</dc:format>
    <dc:creator>
     <cc:Agent>
      <dc:title>Matplotlib v3.9.0, https://matplotlib.org/</dc:title>
     </cc:Agent>
    </dc:creator>
   </cc:Work>
  </rdf:RDF>
 </metadata>
 <defs>
  <style type="text/css">*{stroke-linejoin: round; stroke-linecap: butt}</style>
 </defs>
 <g id="figure_1">
  <g id="patch_1">
   <path d="M 0 414 
L 576 414 
L 576 0 
L 0 0 
z
" style="fill: #ffffff"/>
  </g>
  <g id="axes_1">
   <g id="patch_2">
    <path d="M 103.68 256.68 
L 518.4 256.68 
L 518.4 49.68 
L 103.68 49.68 
z
" style="fill: #ffffff"/>
   </g>
   <g id="matplotlib.axis_1">
    <g id="xtick_1">
     <g id="line2d_1">
      <path d="M 137.031608 256.68 
L 137.031608 49.68 
" clip-path="url(#pceba48934e)" style="fill: none; stroke-dasharray: 2.96,1.28; stroke-dashoffset: 0; stroke: #d0d0d0; stroke-width: 0.8"/>
     </g>
     <g id="line2d_2"/>
    </g>
    <g id="xtick_2">
     <g id="line2d_3">
      <path d="M 212.687431 256.68 
L 212.687431 49.68 
" clip-path="url(#pceba48934e)" style="fill: none; stroke-dasharray: 2.96,1.28; stroke-dashoffset: 0; stroke: #d0d0d0; stroke-width: 0.8"/>
     </g>
     <g id="line2d_4"/>
    </g>
    <g id="xtick_3">
     <g id="line2d_5">
      <path d="M 288.343253 256.68 
L 288.343253 49.68 
" clip-path="url(#pceba48934e)" style="fill: none; stroke-dasharray: 2.96,1.28; stroke-dashoffset: 0; stroke: #d0d0d0; stroke-width: 0.8"/>
     </g>
     <g id="line2d_6"/>
    </g>
    <g id="xtick_4">
     <g id="line2d_7">
      <path d="M 363.999076 256.68 
L 363.999076 49.68 
" clip-path="url(#pceba48934e)" style="fill: none; stroke-dasharray: 2.96,1.28; stroke-dashoffset: 0; stroke: #d0d0d0; stroke-width: 0.8"/>
     </g>
     <g id="line2d_8"/>
    </g>
    <g id="xtick_5">
     <g id="line2d_9">
      <path d="M 439.654898 256.68 
L 439.654898 49.68 
" clip-path="url(#pceba48934e)" style="fill: none; stroke-dasharray: 2.96,1.28; stroke-dashoffset: 0; stroke: #d0d0d0; stroke-width: 0.8"/>
     </g>
     <g id="line2d_10"/>
    </g>
    <g id="xtick_6">
     <g id="line2d_11">
      <path d="M 515.310721 256.68 
L 515.310721 49.68 
" clip-path="url(#pceba48934e)" style="fill: none; stroke-dasharray: 2.96,1.28; stroke-dashoffset: 0; stroke: #d0d0d0; stroke-width: 0.8"/>
     </g>
     <g id="line2d_12"/>
    </g>
   </g>
   <g id="matplotlib.axis_2">
    <g id="ytick_1">
     <g id="line2d_13">
      <path d="M 103.68 227.064298 
L 518.4 227.064298 
" clip-path="url(#pceba48934e)" style="fill: none; stroke-dasharray: 2.96,1.28; stroke-dashoffset: 0; stroke: #d0d0d0; stroke-width: 0.8"/>
     </g>
     <g id="line2d_14"/>
     <g id="text_1">
      <!-- 0.150 -->
      <g style="fill: #262626" transform="translate(70.15375 231.358985) scale(0.12 -0.12)">
       <defs>
        <path id="ArialMT-30" d="M 266 2259 
Q 266 3072 433 3567 
Q 600 4063 929 4331 
Q 1259 4600 1759 4600 
Q 2128 4600 2406 4451 
Q 2684 4303 2865 4023 
Q 3047 3744 3150 3342 
Q 3253 2941 3253 2259 
Q 3253 1453 3087 958 
Q 2922 463 2592 192 
Q 2263 -78 1759 -78 
Q 1097 -78 719 397 
Q 266 969 266 2259 
z
M 844 2259 
Q 844 1131 1108 757 
Q 1372 384 1759 384 
Q 2147 384 2411 759 
Q 2675 1134 2675 2259 
Q 2675 3391 2411 3762 
Q 2147 4134 1753 4134 
Q 1366 4134 1134 3806 
Q 844 3388 844 2259 
z
" transform="scale(0.015625)"/>
        <path id="ArialMT-2e" d="M 581 0 
L 581 641 
L 1222 641 
L 1222 0 
L 581 0 
z
" transform="scale(0.015625)"/>
        <path id="ArialMT-31" d="M 2384 0 
L 1822 0 
L 1822 3584 
Q 1619 3391 1289 3197 
Q 959 3003 697 2906 
L 697 3450 
Q 1169 3672 1522 3987 
Q 1875 4303 2022 4600 
L 2384 4600 
L 2384 0 
z
" transform="scale(0.015625)"/>
        <path id="ArialMT-35" d="M 266 1200 
L 856 1250 
Q 922 819 1161 601 
Q 1400 384 1738 384 
Q 2144 384 2425 690 
Q 2706 997 2706 1503 
Q 2706 1984 2436 2262 
Q 2166 2541 1728 2541 
Q 1456 2541 1237 2417 
Q 1019 2294 894 2097 
L 366 2166 
L 809 4519 
L 3088 4519 
L 3088 3981 
L 1259 3981 
L 1013 2750 
Q 1425 3038 1878 3038 
Q 2478 3038 2890 2622 
Q 3303 2206 3303 1553 
Q 3303 931 2941 478 
Q 2500 -78 1738 -78 
Q 1113 -78 717 272 
Q 322 622 266 1200 
z
" transform="scale(0.015625)"/>
       </defs>
       <use xlink:href="#ArialMT-30"/>
       <use xlink:href="#ArialMT-2e" x="55.615234"/>
       <use xlink:href="#ArialMT-31" x="83.398438"/>
       <use xlink:href="#ArialMT-35" x="139.013672"/>
       <use xlink:href="#ArialMT-30" x="194.628906"/>
      </g>
     </g>
    </g>
    <g id="ytick_2">
     <g id="line2d_15">
      <path d="M 103.68 177.477521 
L 518.4 177.477521 
" clip-path="url(#pceba48934e)" style="fill: none; stroke-dasharray: 2.96,1.28; stroke-dashoffset: 0; stroke: #d0d0d0; stroke-width: 0.8"/>
     </g>
     <g id="line2d_16"/>
     <g id="text_2">
      <!-- 0.152 -->
      <g style="fill: #262626" transform="translate(70.15375 181.772208) scale(0.12 -0.12)">
       <defs>
        <path id="ArialMT-32" d="M 3222 541 
L 3222 0 
L 194 0 
Q 188 203 259 391 
Q 375 700 629 1000 
Q 884 1300 1366 1694 
Q 2113 2306 2375 2664 
Q 2638 3022 2638 3341 
Q 2638 3675 2398 3904 
Q 2159 4134 1775 4134 
Q 1369 4134 1125 3890 
Q 881 3647 878 3216 
L 300 3275 
Q 359 3922 746 4261 
Q 1134 4600 1788 4600 
Q 2447 4600 2831 4234 
Q 3216 3869 3216 3328 
Q 3216 3053 3103 2787 
Q 2991 2522 2730 2228 
Q 2469 1934 1863 1422 
Q 1356 997 1212 845 
Q 1069 694 975 541 
L 3222 541 
z
" transform="scale(0.015625)"/>
       </defs>
       <use xlink:href="#ArialMT-30"/>
       <use xlink:href="#ArialMT-2e" x="55.615234"/>
       <use xlink:href="#ArialMT-31" x="83.398438"/>
       <use xlink:href="#ArialMT-35" x="139.013672"/>
       <use xlink:href="#ArialMT-32" x="194.628906"/>
      </g>
     </g>
    </g>
    <g id="ytick_3">
     <g id="line2d_17">
      <path d="M 103.68 127.890744 
L 518.4 127.890744 
" clip-path="url(#pceba48934e)" style="fill: none; stroke-dasharray: 2.96,1.28; stroke-dashoffset: 0; stroke: #d0d0d0; stroke-width: 0.8"/>
     </g>
     <g id="line2d_18"/>
     <g id="text_3">
      <!-- 0.154 -->
      <g style="fill: #262626" transform="translate(70.15375 132.185431) scale(0.12 -0.12)">
       <defs>
        <path id="ArialMT-34" d="M 2069 0 
L 2069 1097 
L 81 1097 
L 81 1613 
L 2172 4581 
L 2631 4581 
L 2631 1613 
L 3250 1613 
L 3250 1097 
L 2631 1097 
L 2631 0 
L 2069 0 
z
M 2069 1613 
L 2069 3678 
L 634 1613 
L 2069 1613 
z
" transform="scale(0.015625)"/>
       </defs>
       <use xlink:href="#ArialMT-30"/>
       <use xlink:href="#ArialMT-2e" x="55.615234"/>
       <use xlink:href="#ArialMT-31" x="83.398438"/>
       <use xlink:href="#ArialMT-35" x="139.013672"/>
       <use xlink:href="#ArialMT-34" x="194.628906"/>
      </g>
     </g>
    </g>
    <g id="ytick_4">
     <g id="line2d_19">
      <path d="M 103.68 78.303967 
L 518.4 78.303967 
" clip-path="url(#pceba48934e)" style="fill: none; stroke-dasharray: 2.96,1.28; stroke-dashoffset: 0; stroke: #d0d0d0; stroke-width: 0.8"/>
     </g>
     <g id="line2d_20"/>
     <g id="text_4">
      <!-- 0.156 -->
      <g style="fill: #262626" transform="translate(70.15375 82.598654) scale(0.12 -0.12)">
       <defs>
        <path id="ArialMT-36" d="M 3184 3459 
L 2625 3416 
Q 2550 3747 2413 3897 
Q 2184 4138 1850 4138 
Q 1581 4138 1378 3988 
Q 1113 3794 959 3422 
Q 806 3050 800 2363 
Q 1003 2672 1297 2822 
Q 1591 2972 1913 2972 
Q 2475 2972 2870 2558 
Q 3266 2144 3266 1488 
Q 3266 1056 3080 686 
Q 2894 316 2569 119 
Q 2244 -78 1831 -78 
Q 1128 -78 684 439 
Q 241 956 241 2144 
Q 241 3472 731 4075 
Q 1159 4600 1884 4600 
Q 2425 4600 2770 4297 
Q 3116 3994 3184 3459 
z
M 888 1484 
Q 888 1194 1011 928 
Q 1134 663 1356 523 
Q 1578 384 1822 384 
Q 2178 384 2434 671 
Q 2691 959 2691 1453 
Q 2691 1928 2437 2201 
Q 2184 2475 1800 2475 
Q 1419 2475 1153 2201 
Q 888 1928 888 1484 
z
" transform="scale(0.015625)"/>
       </defs>
       <use xlink:href="#ArialMT-30"/>
       <use xlink:href="#ArialMT-2e" x="55.615234"/>
       <use xlink:href="#ArialMT-31" x="83.398438"/>
       <use xlink:href="#ArialMT-35" x="139.013672"/>
       <use xlink:href="#ArialMT-36" x="194.628906"/>
      </g>
     </g>
    </g>
    <g id="text_5">
     <!-- Price -->
     <g style="fill: #262626" transform="translate(63.785625 167.8575) rotate(-90) scale(0.12 -0.12)">
      <defs>
       <path id="Arial-BoldMT-50" d="M 466 0 
L 466 4581 
L 1950 4581 
Q 2794 4581 3050 4513 
Q 3444 4409 3709 4064 
Q 3975 3719 3975 3172 
Q 3975 2750 3822 2462 
Q 3669 2175 3433 2011 
Q 3197 1847 2953 1794 
Q 2622 1728 1994 1728 
L 1391 1728 
L 1391 0 
L 466 0 
z
M 1391 3806 
L 1391 2506 
L 1897 2506 
Q 2444 2506 2628 2578 
Q 2813 2650 2917 2803 
Q 3022 2956 3022 3159 
Q 3022 3409 2875 3571 
Q 2728 3734 2503 3775 
Q 2338 3806 1838 3806 
L 1391 3806 
z
" transform="scale(0.015625)"/>
       <path id="Arial-BoldMT-72" d="M 1300 0 
L 422 0 
L 422 3319 
L 1238 3319 
L 1238 2847 
Q 1447 3181 1614 3287 
Q 1781 3394 1994 3394 
Q 2294 3394 2572 3228 
L 2300 2463 
Q 2078 2606 1888 2606 
Q 1703 2606 1575 2504 
Q 1447 2403 1373 2137 
Q 1300 1872 1300 1025 
L 1300 0 
z
" transform="scale(0.015625)"/>
       <path id="Arial-BoldMT-69" d="M 459 3769 
L 459 4581 
L 1338 4581 
L 1338 3769 
L 459 3769 
z
M 459 0 
L 459 3319 
L 1338 3319 
L 1338 0 
L 459 0 
z
" transform="scale(0.015625)"/>
       <path id="Arial-BoldMT-63" d="M 3353 2338 
L 2488 2181 
Q 2444 2441 2289 2572 
Q 2134 2703 1888 2703 
Q 1559 2703 1364 2476 
Q 1169 2250 1169 1719 
Q 1169 1128 1367 884 
Q 1566 641 1900 641 
Q 2150 641 2309 783 
Q 2469 925 2534 1272 
L 3397 1125 
Q 3263 531 2881 228 
Q 2500 -75 1859 -75 
Q 1131 -75 698 384 
Q 266 844 266 1656 
Q 266 2478 700 2936 
Q 1134 3394 1875 3394 
Q 2481 3394 2839 3133 
Q 3197 2872 3353 2338 
z
" transform="scale(0.015625)"/>
       <path id="Arial-BoldMT-65" d="M 2381 1056 
L 3256 909 
Q 3088 428 2723 176 
Q 2359 -75 1813 -75 
Q 947 -75 531 491 
Q 203 944 203 1634 
Q 203 2459 634 2926 
Q 1066 3394 1725 3394 
Q 2466 3394 2894 2905 
Q 3322 2416 3303 1406 
L 1103 1406 
Q 1113 1016 1316 798 
Q 1519 581 1822 581 
Q 2028 581 2168 693 
Q 2309 806 2381 1056 
z
M 2431 1944 
Q 2422 2325 2234 2523 
Q 2047 2722 1778 2722 
Q 1491 2722 1303 2513 
Q 1116 2303 1119 1944 
L 2431 1944 
z
" transform="scale(0.015625)"/>
      </defs>
      <use xlink:href="#Arial-BoldMT-50"/>
      <use xlink:href="#Arial-BoldMT-72" x="66.699219"/>
      <use xlink:href="#Arial-BoldMT-69" x="105.615234"/>
      <use xlink:href="#Arial-BoldMT-63" x="133.398438"/>
      <use xlink:href="#Arial-BoldMT-65" x="189.013672"/>
     </g>
    </g>
   </g>
   <g id="PolyCollection_1">
    <path d="M 132.11398 234.874215 
L 132.11398 208.097355 
L 141.949237 208.097355 
L 141.949237 234.874215 
z
" clip-path="url(#pceba48934e)" style="fill: #70a800; fill-opacity: 0.9; stroke: #70a800"/>
    <path d="M 147.245144 208.097355 
L 147.245144 217.518843 
L 157.080401 217.518843 
L 157.080401 208.097355 
z
" clip-path="url(#pceba48934e)" style="fill: #ea0070; fill-opacity: 0.9; stroke: #ea0070"/>
    <path d="M 162.376309 217.518843 
L 162.376309 234.378347 
L 172.211566 234.378347 
L 172.211566 217.518843 
z
" clip-path="url(#pceba48934e)" style="fill: #ea0070; fill-opacity: 0.9; stroke: #ea0070"/>
    <path d="M 177.507473 234.378347 
L 177.507473 213.303967 
L 187.34273 213.303967 
L 187.34273 234.378347 
z
" clip-path="url(#pceba48934e)" style="fill: #70a800; fill-opacity: 0.9; stroke: #70a800"/>
    <path d="M 192.638638 213.303967 
L 192.638638 234.874215 
L 202.473895 234.874215 
L 202.473895 213.303967 
z
" clip-path="url(#pceba48934e)" style="fill: #ea0070; fill-opacity: 0.9; stroke: #ea0070"/>
    <path d="M 207.769802 234.874215 
L 207.769802 217.270909 
L 217.605059 217.270909 
L 217.605059 234.874215 
z
" clip-path="url(#pceba48934e)" style="fill: #70a800; fill-opacity: 0.9; stroke: #70a800"/>
    <path d="M 222.900967 217.270909 
L 222.900967 192.229587 
L 232.736224 192.229587 
L 232.736224 217.270909 
z
" clip-path="url(#pceba48934e)" style="fill: #70a800; fill-opacity: 0.9; stroke: #70a800"/>
    <path d="M 238.032131 192.229587 
L 238.032131 132.725455 
L 247.867388 132.725455 
L 247.867388 192.229587 
z
" clip-path="url(#pceba48934e)" style="fill: #70a800; fill-opacity: 0.9; stroke: #70a800"/>
    <path d="M 253.163296 132.725455 
L 253.163296 156.775041 
L 262.998553 156.775041 
L 262.998553 132.725455 
z
" clip-path="url(#pceba48934e)" style="fill: #ea0070; fill-opacity: 0.9; stroke: #ea0070"/>
    <path d="M 268.29446 156.775041 
L 268.29446 151.816364 
L 278.129717 151.816364 
L 278.129717 156.775041 
z
" clip-path="url(#pceba48934e)" style="fill: #70a800; fill-opacity: 0.9; stroke: #70a800"/>
    <path d="M 283.425625 151.816364 
L 283.425625 151.320496 
L 293.260882 151.320496 
L 293.260882 151.816364 
z
" clip-path="url(#pceba48934e)" style="fill: #70a800; fill-opacity: 0.9; stroke: #70a800"/>
    <path d="M 298.556789 151.320496 
L 298.556789 173.386612 
L 308.392046 173.386612 
L 308.392046 151.320496 
z
" clip-path="url(#pceba48934e)" style="fill: #ea0070; fill-opacity: 0.9; stroke: #ea0070"/>
    <path d="M 313.687954 173.386612 
L 313.687954 144.130413 
L 323.523211 144.130413 
L 323.523211 173.386612 
z
" clip-path="url(#pceba48934e)" style="fill: #70a800; fill-opacity: 0.9; stroke: #70a800"/>
    <path d="M 328.819118 144.130413 
L 328.819118 187.766777 
L 338.654375 187.766777 
L 338.654375 144.130413 
z
" clip-path="url(#pceba48934e)" style="fill: #ea0070; fill-opacity: 0.9; stroke: #ea0070"/>
    <path d="M 343.950283 187.766777 
L 343.950283 137.684132 
L 353.78554 137.684132 
L 353.78554 187.766777 
z
" clip-path="url(#pceba48934e)" style="fill: #70a800; fill-opacity: 0.9; stroke: #70a800"/>
    <path d="M 359.081447 137.684132 
L 359.081447 86.361818 
L 368.916704 86.361818 
L 368.916704 137.684132 
z
" clip-path="url(#pceba48934e)" style="fill: #70a800; fill-opacity: 0.9; stroke: #70a800"/>
    <path d="M 374.212612 86.361818 
L 374.212612 109.667603 
L 384.047869 109.667603 
L 384.047869 86.361818 
z
" clip-path="url(#pceba48934e)" style="fill: #ea0070; fill-opacity: 0.9; stroke: #ea0070"/>
    <path d="M 389.343776 109.667603 
L 389.343776 124.543636 
L 399.179033 124.543636 
L 399.179033 109.667603 
z
" clip-path="url(#pceba48934e)" style="fill: #ea0070; fill-opacity: 0.9; stroke: #ea0070"/>
    <path d="M 404.474941 124.543636 
L 404.474941 128.510579 
L 414.310198 128.510579 
L 414.310198 124.543636 
z
" clip-path="url(#pceba48934e)" style="fill: #ea0070; fill-opacity: 0.9; stroke: #ea0070"/>
    <path d="M 419.606105 128.510579 
L 419.606105 125.535372 
L 429.441362 125.535372 
L 429.441362 128.510579 
z
" clip-path="url(#pceba48934e)" style="fill: #70a800; fill-opacity: 0.9; stroke: #70a800"/>
    <path d="M 434.73727 125.535372 
L 434.73727 112.146942 
L 444.572527 112.146942 
L 444.572527 125.535372 
z
" clip-path="url(#pceba48934e)" style="fill: #70a800; fill-opacity: 0.9; stroke: #70a800"/>
    <path d="M 449.868434 112.146942 
L 449.868434 92.560165 
L 459.703691 92.560165 
L 459.703691 112.146942 
z
" clip-path="url(#pceba48934e)" style="fill: #70a800; fill-opacity: 0.9; stroke: #70a800"/>
    <path d="M 464.999599 92.560165 
L 464.999599 81.40314 
L 474.834856 81.40314 
L 474.834856 92.560165 
z
" clip-path="url(#pceba48934e)" style="fill: #70a800; fill-opacity: 0.9; stroke: #70a800"/>
    <path d="M 480.130763 81.527107 
L 480.130763 87.849421 
L 489.96602 87.849421 
L 489.96602 81.527107 
z
" clip-path="url(#pceba48934e)" style="fill: #ea0070; fill-opacity: 0.9; stroke: #ea0070"/>
   </g>
   <g id="LineCollection_1">
    <path d="M 137.031608 238.593223 
L 137.031608 234.874215 
" clip-path="url(#pceba48934e)" style="fill: none; stroke: #70a800"/>
    <path d="M 152.162773 242.312231 
L 152.162773 217.518843 
" clip-path="url(#pceba48934e)" style="fill: none; stroke: #ea0070"/>
    <path d="M 167.293937 237.849421 
L 167.293937 234.378347 
" clip-path="url(#pceba48934e)" style="fill: none; stroke: #ea0070"/>
    <path d="M 182.425102 236.361818 
L 182.425102 234.378347 
" clip-path="url(#pceba48934e)" style="fill: none; stroke: #70a800"/>
    <path d="M 197.556266 247.270909 
L 197.556266 234.874215 
" clip-path="url(#pceba48934e)" style="fill: none; stroke: #ea0070"/>
    <path d="M 212.687431 237.849421 
L 212.687431 234.874215 
" clip-path="url(#pceba48934e)" style="fill: none; stroke: #70a800"/>
    <path d="M 227.818595 234.626281 
L 227.818595 217.270909 
" clip-path="url(#pceba48934e)" style="fill: none; stroke: #70a800"/>
    <path d="M 242.94976 192.229587 
L 242.94976 192.229587 
" clip-path="url(#pceba48934e)" style="fill: none; stroke: #70a800"/>
    <path d="M 258.080924 167.188264 
L 258.080924 156.775041 
" clip-path="url(#pceba48934e)" style="fill: none; stroke: #ea0070"/>
    <path d="M 273.212089 165.452727 
L 273.212089 156.775041 
" clip-path="url(#pceba48934e)" style="fill: none; stroke: #70a800"/>
    <path d="M 288.343253 179.832893 
L 288.343253 151.816364 
" clip-path="url(#pceba48934e)" style="fill: none; stroke: #70a800"/>
    <path d="M 303.474418 175.370083 
L 303.474418 173.386612 
" clip-path="url(#pceba48934e)" style="fill: none; stroke: #ea0070"/>
    <path d="M 318.605582 195.700661 
L 318.605582 173.386612 
" clip-path="url(#pceba48934e)" style="fill: none; stroke: #70a800"/>
    <path d="M 333.736747 196.444463 
L 333.736747 187.766777 
" clip-path="url(#pceba48934e)" style="fill: none; stroke: #ea0070"/>
    <path d="M 348.867911 188.510579 
L 348.867911 187.766777 
" clip-path="url(#pceba48934e)" style="fill: none; stroke: #70a800"/>
    <path d="M 363.999076 155.535372 
L 363.999076 137.684132 
" clip-path="url(#pceba48934e)" style="fill: none; stroke: #70a800"/>
    <path d="M 379.13024 114.378347 
L 379.13024 109.667603 
" clip-path="url(#pceba48934e)" style="fill: none; stroke: #ea0070"/>
    <path d="M 394.261405 129.25438 
L 394.261405 124.543636 
" clip-path="url(#pceba48934e)" style="fill: none; stroke: #ea0070"/>
    <path d="M 409.392569 160.122149 
L 409.392569 128.510579 
" clip-path="url(#pceba48934e)" style="fill: none; stroke: #ea0070"/>
    <path d="M 424.523734 151.072562 
L 424.523734 128.510579 
" clip-path="url(#pceba48934e)" style="fill: none; stroke: #70a800"/>
    <path d="M 439.654898 131.237851 
L 439.654898 125.535372 
" clip-path="url(#pceba48934e)" style="fill: none; stroke: #70a800"/>
    <path d="M 454.786063 112.394876 
L 454.786063 112.146942 
" clip-path="url(#pceba48934e)" style="fill: none; stroke: #70a800"/>
    <path d="M 469.917227 103.469256 
L 469.917227 92.560165 
" clip-path="url(#pceba48934e)" style="fill: none; stroke: #70a800"/>
    <path d="M 485.048392 96.40314 
L 485.048392 87.849421 
" clip-path="url(#pceba48934e)" style="fill: none; stroke: #ea0070"/>
    <path d="M 137.031608 207.601488 
L 137.031608 208.097355 
" clip-path="url(#pceba48934e)" style="fill: none; stroke: #70a800"/>
    <path d="M 152.162773 207.10562 
L 152.162773 208.097355 
" clip-path="url(#pceba48934e)" style="fill: none; stroke: #ea0070"/>
    <path d="M 167.293937 212.808099 
L 167.293937 217.518843 
" clip-path="url(#pceba48934e)" style="fill: none; stroke: #ea0070"/>
    <path d="M 182.425102 196.692397 
L 182.425102 213.303967 
" clip-path="url(#pceba48934e)" style="fill: none; stroke: #70a800"/>
    <path d="M 197.556266 208.593223 
L 197.556266 213.303967 
" clip-path="url(#pceba48934e)" style="fill: none; stroke: #ea0070"/>
    <path d="M 212.687431 216.775041 
L 212.687431 217.270909 
" clip-path="url(#pceba48934e)" style="fill: none; stroke: #70a800"/>
    <path d="M 227.818595 184.79157 
L 227.818595 192.229587 
" clip-path="url(#pceba48934e)" style="fill: none; stroke: #70a800"/>
    <path d="M 242.94976 128.262645 
L 242.94976 132.725455 
" clip-path="url(#pceba48934e)" style="fill: none; stroke: #70a800"/>
    <path d="M 258.080924 123.427934 
L 258.080924 132.725455 
" clip-path="url(#pceba48934e)" style="fill: none; stroke: #ea0070"/>
    <path d="M 273.212089 135.948595 
L 273.212089 151.816364 
" clip-path="url(#pceba48934e)" style="fill: none; stroke: #70a800"/>
    <path d="M 288.343253 147.353554 
L 288.343253 151.320496 
" clip-path="url(#pceba48934e)" style="fill: none; stroke: #70a800"/>
    <path d="M 303.474418 149.584959 
L 303.474418 151.320496 
" clip-path="url(#pceba48934e)" style="fill: none; stroke: #ea0070"/>
    <path d="M 318.605582 130.989917 
L 318.605582 144.130413 
" clip-path="url(#pceba48934e)" style="fill: none; stroke: #70a800"/>
    <path d="M 333.736747 141.651074 
L 333.736747 144.130413 
" clip-path="url(#pceba48934e)" style="fill: none; stroke: #ea0070"/>
    <path d="M 348.867911 136.444463 
L 348.867911 137.684132 
" clip-path="url(#pceba48934e)" style="fill: none; stroke: #70a800"/>
    <path d="M 363.999076 72.229587 
L 363.999076 86.361818 
" clip-path="url(#pceba48934e)" style="fill: none; stroke: #70a800"/>
    <path d="M 379.13024 59.089091 
L 379.13024 86.361818 
" clip-path="url(#pceba48934e)" style="fill: none; stroke: #ea0070"/>
    <path d="M 394.261405 91.816364 
L 394.261405 109.667603 
" clip-path="url(#pceba48934e)" style="fill: none; stroke: #ea0070"/>
    <path d="M 409.392569 123.551901 
L 409.392569 124.543636 
" clip-path="url(#pceba48934e)" style="fill: none; stroke: #ea0070"/>
    <path d="M 424.523734 125.039504 
L 424.523734 125.535372 
" clip-path="url(#pceba48934e)" style="fill: none; stroke: #70a800"/>
    <path d="M 439.654898 100.49405 
L 439.654898 112.146942 
" clip-path="url(#pceba48934e)" style="fill: none; stroke: #70a800"/>
    <path d="M 454.786063 74.213058 
L 454.786063 92.560165 
" clip-path="url(#pceba48934e)" style="fill: none; stroke: #70a800"/>
    <path d="M 469.917227 76.692397 
L 469.917227 81.40314 
" clip-path="url(#pceba48934e)" style="fill: none; stroke: #70a800"/>
    <path d="M 485.048392 72.229587 
L 485.048392 81.527107 
" clip-path="url(#pceba48934e)" style="fill: none; stroke: #ea0070"/>
   </g>
   <g id="patch_3">
    <path d="M 103.68 256.68 
L 103.68 49.68 
" style="fill: none; stroke: #e6e6e6; stroke-width: 1.5; stroke-linejoin: miter; stroke-linecap: square"/>
   </g>
   <g id="patch_4">
    <path d="M 518.4 256.68 
L 518.4 49.68 
" style="fill: none; stroke: #e6e6e6; stroke-width: 1.5; stroke-linejoin: miter; stroke-linecap: square"/>
   </g>
   <g id="patch_5">
    <path d="M 103.68 256.68 
L 518.4 256.68 
" style="fill: none; stroke: #e6e6e6; stroke-width: 1.5; stroke-linejoin: miter; stroke-linecap: square"/>
   </g>
   <g id="patch_6">
    <path d="M 103.68 49.68 
L 518.4 49.68 
" style="fill: none; stroke: #e6e6e6; stroke-width: 1.5; stroke-linejoin: miter; stroke-linecap: square"/>
   </g>
  </g>
  <g id="axes_2">
   <g id="patch_7">
    <path d="M 103.68 339.48 
L 518.4 339.48 
L 518.4 256.68 
L 103.68 256.68 
z
" style="fill: #ffffff"/>
   </g>
   <g id="matplotlib.axis_3">
    <g id="xtick_7">
     <g id="line2d_21">
      <path d="M 137.031608 339.48 
L 137.031608 256.68 
" clip-path="url(#p7486bd95ba)" style="fill: none; stroke-dasharray: 2.96,1.28; stroke-dashoffset: 0; stroke: #d0d0d0; stroke-width: 0.8"/>
     </g>
     <g id="line2d_22"/>
     <g id="text_6">
      <!-- 00:00 -->
      <g style="fill: #262626" transform="translate(128.609304 370.28537) rotate(-45) scale(0.12 -0.12)">
       <defs>
        <path id="ArialMT-3a" d="M 578 2678 
L 578 3319 
L 1219 3319 
L 1219 2678 
L 578 2678 
z
M 578 0 
L 578 641 
L 1219 641 
L 1219 0 
L 578 0 
z
" transform="scale(0.015625)"/>
       </defs>
       <use xlink:href="#ArialMT-30"/>
       <use xlink:href="#ArialMT-30" x="55.615234"/>
       <use xlink:href="#ArialMT-3a" x="111.230469"/>
       <use xlink:href="#ArialMT-30" x="139.013672"/>
       <use xlink:href="#ArialMT-30" x="194.628906"/>
      </g>
     </g>
    </g>
    <g id="xtick_8">
     <g id="line2d_23">
      <path d="M 212.687431 339.48 
L 212.687431 256.68 
" clip-path="url(#p7486bd95ba)" style="fill: none; stroke-dasharray: 2.96,1.28; stroke-dashoffset: 0; stroke: #d0d0d0; stroke-width: 0.8"/>
     </g>
     <g id="line2d_24"/>
     <g id="text_7">
      <!-- 05:00 -->
      <g style="fill: #262626" transform="translate(204.265126 370.28537) rotate(-45) scale(0.12 -0.12)">
       <use xlink:href="#ArialMT-30"/>
       <use xlink:href="#ArialMT-35" x="55.615234"/>
       <use xlink:href="#ArialMT-3a" x="111.230469"/>
       <use xlink:href="#ArialMT-30" x="139.013672"/>
       <use xlink:href="#ArialMT-30" x="194.628906"/>
      </g>
     </g>
    </g>
    <g id="xtick_9">
     <g id="line2d_25">
      <path d="M 288.343253 339.48 
L 288.343253 256.68 
" clip-path="url(#p7486bd95ba)" style="fill: none; stroke-dasharray: 2.96,1.28; stroke-dashoffset: 0; stroke: #d0d0d0; stroke-width: 0.8"/>
     </g>
     <g id="line2d_26"/>
     <g id="text_8">
      <!-- 10:00 -->
      <g style="fill: #262626" transform="translate(279.920949 370.28537) rotate(-45) scale(0.12 -0.12)">
       <use xlink:href="#ArialMT-31"/>
       <use xlink:href="#ArialMT-30" x="55.615234"/>
       <use xlink:href="#ArialMT-3a" x="111.230469"/>
       <use xlink:href="#ArialMT-30" x="139.013672"/>
       <use xlink:href="#ArialMT-30" x="194.628906"/>
      </g>
     </g>
    </g>
    <g id="xtick_10">
     <g id="line2d_27">
      <path d="M 363.999076 339.48 
L 363.999076 256.68 
" clip-path="url(#p7486bd95ba)" style="fill: none; stroke-dasharray: 2.96,1.28; stroke-dashoffset: 0; stroke: #d0d0d0; stroke-width: 0.8"/>
     </g>
     <g id="line2d_28"/>
     <g id="text_9">
      <!-- 15:00 -->
      <g style="fill: #262626" transform="translate(355.576771 370.28537) rotate(-45) scale(0.12 -0.12)">
       <use xlink:href="#ArialMT-31"/>
       <use xlink:href="#ArialMT-35" x="55.615234"/>
       <use xlink:href="#ArialMT-3a" x="111.230469"/>
       <use xlink:href="#ArialMT-30" x="139.013672"/>
       <use xlink:href="#ArialMT-30" x="194.628906"/>
      </g>
     </g>
    </g>
    <g id="xtick_11">
     <g id="line2d_29">
      <path d="M 439.654898 339.48 
L 439.654898 256.68 
" clip-path="url(#p7486bd95ba)" style="fill: none; stroke-dasharray: 2.96,1.28; stroke-dashoffset: 0; stroke: #d0d0d0; stroke-width: 0.8"/>
     </g>
     <g id="line2d_30"/>
     <g id="text_10">
      <!-- 20:00 -->
      <g style="fill: #262626" transform="translate(431.232593 370.28537) rotate(-45) scale(0.12 -0.12)">
       <use xlink:href="#ArialMT-32"/>
       <use xlink:href="#ArialMT-30" x="55.615234"/>
       <use xlink:href="#ArialMT-3a" x="111.230469"/>
       <use xlink:href="#ArialMT-30" x="139.013672"/>
       <use xlink:href="#ArialMT-30" x="194.628906"/>
      </g>
     </g>
    </g>
    <g id="xtick_12">
     <g id="line2d_31">
      <path d="M 515.310721 339.48 
L 515.310721 256.68 
" clip-path="url(#p7486bd95ba)" style="fill: none; stroke-dasharray: 2.96,1.28; stroke-dashoffset: 0; stroke: #d0d0d0; stroke-width: 0.8"/>
     </g>
     <g id="line2d_32"/>
    </g>
   </g>
   <g id="matplotlib.axis_4">
    <g id="ytick_5">
     <g id="line2d_33">
      <path d="M 103.68 310.616935 
L 518.4 310.616935 
" clip-path="url(#p7486bd95ba)" style="fill: none; stroke-dasharray: 2.96,1.28; stroke-dashoffset: 0; stroke: #d0d0d0; stroke-width: 0.8"/>
     </g>
     <g id="line2d_34"/>
     <g id="text_11">
      <!-- 50000 -->
      <g style="fill: #262626" transform="translate(66.814375 314.911623) scale(0.12 -0.12)">
       <use xlink:href="#ArialMT-35"/>
       <use xlink:href="#ArialMT-30" x="55.615234"/>
       <use xlink:href="#ArialMT-30" x="111.230469"/>
       <use xlink:href="#ArialMT-30" x="166.845703"/>
       <use xlink:href="#ArialMT-30" x="222.460938"/>
      </g>
     </g>
    </g>
    <g id="ytick_6">
     <g id="line2d_35">
      <path d="M 103.68 274.309459 
L 518.4 274.309459 
" clip-path="url(#p7486bd95ba)" style="fill: none; stroke-dasharray: 2.96,1.28; stroke-dashoffset: 0; stroke: #d0d0d0; stroke-width: 0.8"/>
     </g>
     <g id="line2d_36"/>
     <g id="text_12">
      <!-- 100000 -->
      <g style="fill: #262626" transform="translate(60.14125 278.604146) scale(0.12 -0.12)">
       <use xlink:href="#ArialMT-31"/>
       <use xlink:href="#ArialMT-30" x="55.615234"/>
       <use xlink:href="#ArialMT-30" x="111.230469"/>
       <use xlink:href="#ArialMT-30" x="166.845703"/>
       <use xlink:href="#ArialMT-30" x="222.460938"/>
       <use xlink:href="#ArialMT-30" x="278.076172"/>
      </g>
     </g>
    </g>
    <g id="text_13">
     <!-- Volume -->
     <g style="fill: #262626" transform="translate(53.773125 319.307813) rotate(-90) scale(0.12 -0.12)">
      <defs>
       <path id="Arial-BoldMT-56" d="M 1634 0 
L -3 4581 
L 1000 4581 
L 2159 1191 
L 3281 4581 
L 4263 4581 
L 2622 0 
L 1634 0 
z
" transform="scale(0.015625)"/>
       <path id="Arial-BoldMT-6f" d="M 256 1706 
Q 256 2144 472 2553 
Q 688 2963 1083 3178 
Q 1478 3394 1966 3394 
Q 2719 3394 3200 2905 
Q 3681 2416 3681 1669 
Q 3681 916 3195 420 
Q 2709 -75 1972 -75 
Q 1516 -75 1102 131 
Q 688 338 472 736 
Q 256 1134 256 1706 
z
M 1156 1659 
Q 1156 1166 1390 903 
Q 1625 641 1969 641 
Q 2313 641 2545 903 
Q 2778 1166 2778 1666 
Q 2778 2153 2545 2415 
Q 2313 2678 1969 2678 
Q 1625 2678 1390 2415 
Q 1156 2153 1156 1659 
z
" transform="scale(0.015625)"/>
       <path id="Arial-BoldMT-6c" d="M 459 0 
L 459 4581 
L 1338 4581 
L 1338 0 
L 459 0 
z
" transform="scale(0.015625)"/>
       <path id="Arial-BoldMT-75" d="M 2644 0 
L 2644 497 
Q 2463 231 2167 78 
Q 1872 -75 1544 -75 
Q 1209 -75 943 72 
Q 678 219 559 484 
Q 441 750 441 1219 
L 441 3319 
L 1319 3319 
L 1319 1794 
Q 1319 1094 1367 936 
Q 1416 778 1544 686 
Q 1672 594 1869 594 
Q 2094 594 2272 717 
Q 2450 841 2515 1023 
Q 2581 1206 2581 1919 
L 2581 3319 
L 3459 3319 
L 3459 0 
L 2644 0 
z
" transform="scale(0.015625)"/>
       <path id="Arial-BoldMT-6d" d="M 394 3319 
L 1203 3319 
L 1203 2866 
Q 1638 3394 2238 3394 
Q 2556 3394 2790 3262 
Q 3025 3131 3175 2866 
Q 3394 3131 3647 3262 
Q 3900 3394 4188 3394 
Q 4553 3394 4806 3245 
Q 5059 3097 5184 2809 
Q 5275 2597 5275 2122 
L 5275 0 
L 4397 0 
L 4397 1897 
Q 4397 2391 4306 2534 
Q 4184 2722 3931 2722 
Q 3747 2722 3584 2609 
Q 3422 2497 3350 2280 
Q 3278 2063 3278 1594 
L 3278 0 
L 2400 0 
L 2400 1819 
Q 2400 2303 2353 2443 
Q 2306 2584 2207 2653 
Q 2109 2722 1941 2722 
Q 1738 2722 1575 2612 
Q 1413 2503 1342 2297 
Q 1272 2091 1272 1613 
L 1272 0 
L 394 0 
L 394 3319 
z
" transform="scale(0.015625)"/>
      </defs>
      <use xlink:href="#Arial-BoldMT-56"/>
      <use xlink:href="#Arial-BoldMT-6f" x="59.324219"/>
      <use xlink:href="#Arial-BoldMT-6c" x="120.408203"/>
      <use xlink:href="#Arial-BoldMT-75" x="148.191406"/>
      <use xlink:href="#Arial-BoldMT-6d" x="209.275391"/>
      <use xlink:href="#Arial-BoldMT-65" x="298.191406"/>
     </g>
    </g>
   </g>
   <g id="patch_8">
    <path d="M 129.617338 346.924412 
L 144.445879 346.924412 
L 144.445879 310.942977 
L 129.617338 310.942977 
z
" clip-path="url(#p7486bd95ba)" style="fill: #70a800; stroke: #659700; stroke-width: 0.65; stroke-linejoin: miter"/>
   </g>
   <g id="patch_9">
    <path d="M 144.748502 346.924412 
L 159.577043 346.924412 
L 159.577043 301.819634 
L 144.748502 301.819634 
z
" clip-path="url(#p7486bd95ba)" style="fill: #ea0070; stroke: #d30065; stroke-width: 0.65; stroke-linejoin: miter"/>
   </g>
   <g id="patch_10">
    <path d="M 159.879667 346.924412 
L 174.708208 346.924412 
L 174.708208 313.632635 
L 159.879667 313.632635 
z
" clip-path="url(#p7486bd95ba)" style="fill: #ea0070; stroke: #d30065; stroke-width: 0.65; stroke-linejoin: miter"/>
   </g>
   <g id="patch_11">
    <path d="M 175.010831 346.924412 
L 189.839372 346.924412 
L 189.839372 310.330833 
L 175.010831 310.330833 
z
" clip-path="url(#p7486bd95ba)" style="fill: #70a800; stroke: #659700; stroke-width: 0.65; stroke-linejoin: miter"/>
   </g>
   <g id="patch_12">
    <path d="M 190.141996 346.924412 
L 204.970537 346.924412 
L 204.970537 320.048892 
L 190.141996 320.048892 
z
" clip-path="url(#p7486bd95ba)" style="fill: #ea0070; stroke: #d30065; stroke-width: 0.65; stroke-linejoin: miter"/>
   </g>
   <g id="patch_13">
    <path d="M 205.27316 346.924412 
L 220.101701 346.924412 
L 220.101701 322.109704 
L 205.27316 322.109704 
z
" clip-path="url(#p7486bd95ba)" style="fill: #70a800; stroke: #659700; stroke-width: 0.65; stroke-linejoin: miter"/>
   </g>
   <g id="patch_14">
    <path d="M 220.404325 346.924412 
L 235.232866 346.924412 
L 235.232866 307.644079 
L 220.404325 307.644079 
z
" clip-path="url(#p7486bd95ba)" style="fill: #70a800; stroke: #659700; stroke-width: 0.65; stroke-linejoin: miter"/>
   </g>
   <g id="patch_15">
    <path d="M 235.535489 346.924412 
L 250.36403 346.924412 
L 250.36403 276.424732 
L 235.535489 276.424732 
z
" clip-path="url(#p7486bd95ba)" style="fill: #70a800; stroke: #659700; stroke-width: 0.65; stroke-linejoin: miter"/>
   </g>
   <g id="patch_16">
    <path d="M 250.666654 346.924412 
L 265.495195 346.924412 
L 265.495195 295.694562 
L 250.666654 295.694562 
z
" clip-path="url(#p7486bd95ba)" style="fill: #ea0070; stroke: #d30065; stroke-width: 0.65; stroke-linejoin: miter"/>
   </g>
   <g id="patch_17">
    <path d="M 265.797818 346.924412 
L 280.626359 346.924412 
L 280.626359 303.676398 
L 265.797818 303.676398 
z
" clip-path="url(#p7486bd95ba)" style="fill: #70a800; stroke: #659700; stroke-width: 0.65; stroke-linejoin: miter"/>
   </g>
   <g id="patch_18">
    <path d="M 280.928983 346.924412 
L 295.757524 346.924412 
L 295.757524 304.112088 
L 280.928983 304.112088 
z
" clip-path="url(#p7486bd95ba)" style="fill: #70a800; stroke: #659700; stroke-width: 0.65; stroke-linejoin: miter"/>
   </g>
   <g id="patch_19">
    <path d="M 296.060147 346.924412 
L 310.888688 346.924412 
L 310.888688 307.254863 
L 296.060147 307.254863 
z
" clip-path="url(#p7486bd95ba)" style="fill: #ea0070; stroke: #d30065; stroke-width: 0.65; stroke-linejoin: miter"/>
   </g>
   <g id="patch_20">
    <path d="M 311.191312 346.924412 
L 326.019853 346.924412 
L 326.019853 289.550611 
L 311.191312 289.550611 
z
" clip-path="url(#p7486bd95ba)" style="fill: #70a800; stroke: #659700; stroke-width: 0.65; stroke-linejoin: miter"/>
   </g>
   <g id="patch_21">
    <path d="M 326.322476 346.924412 
L 341.151017 346.924412 
L 341.151017 285.380334 
L 326.322476 285.380334 
z
" clip-path="url(#p7486bd95ba)" style="fill: #ea0070; stroke: #d30065; stroke-width: 0.65; stroke-linejoin: miter"/>
   </g>
   <g id="patch_22">
    <path d="M 341.453641 346.924412 
L 356.282182 346.924412 
L 356.282182 289.111291 
L 341.453641 289.111291 
z
" clip-path="url(#p7486bd95ba)" style="fill: #70a800; stroke: #659700; stroke-width: 0.65; stroke-linejoin: miter"/>
   </g>
   <g id="patch_23">
    <path d="M 356.584805 346.924412 
L 371.413346 346.924412 
L 371.413346 264.884037 
L 356.584805 264.884037 
z
" clip-path="url(#p7486bd95ba)" style="fill: #70a800; stroke: #659700; stroke-width: 0.65; stroke-linejoin: miter"/>
   </g>
   <g id="patch_24">
    <path d="M 371.71597 346.924412 
L 386.544511 346.924412 
L 386.544511 288.181819 
L 371.71597 288.181819 
z
" clip-path="url(#p7486bd95ba)" style="fill: #ea0070; stroke: #d30065; stroke-width: 0.65; stroke-linejoin: miter"/>
   </g>
   <g id="patch_25">
    <path d="M 386.847134 346.924412 
L 401.675675 346.924412 
L 401.675675 309.363601 
L 386.847134 309.363601 
z
" clip-path="url(#p7486bd95ba)" style="fill: #ea0070; stroke: #d30065; stroke-width: 0.65; stroke-linejoin: miter"/>
   </g>
   <g id="patch_26">
    <path d="M 401.978299 346.924412 
L 416.80684 346.924412 
L 416.80684 306.643445 
L 401.978299 306.643445 
z
" clip-path="url(#p7486bd95ba)" style="fill: #ea0070; stroke: #d30065; stroke-width: 0.65; stroke-linejoin: miter"/>
   </g>
   <g id="patch_27">
    <path d="M 417.109463 346.924412 
L 431.938004 346.924412 
L 431.938004 313.285535 
L 417.109463 313.285535 
z
" clip-path="url(#p7486bd95ba)" style="fill: #70a800; stroke: #659700; stroke-width: 0.65; stroke-linejoin: miter"/>
   </g>
   <g id="patch_28">
    <path d="M 432.240628 346.924412 
L 447.069169 346.924412 
L 447.069169 314.666671 
L 432.240628 314.666671 
z
" clip-path="url(#p7486bd95ba)" style="fill: #70a800; stroke: #659700; stroke-width: 0.65; stroke-linejoin: miter"/>
   </g>
   <g id="patch_29">
    <path d="M 447.371792 346.924412 
L 462.200333 346.924412 
L 462.200333 316.255487 
L 447.371792 316.255487 
z
" clip-path="url(#p7486bd95ba)" style="fill: #70a800; stroke: #659700; stroke-width: 0.65; stroke-linejoin: miter"/>
   </g>
   <g id="patch_30">
    <path d="M 462.502957 346.924412 
L 477.331498 346.924412 
L 477.331498 321.063323 
L 462.502957 321.063323 
z
" clip-path="url(#p7486bd95ba)" style="fill: #70a800; stroke: #659700; stroke-width: 0.65; stroke-linejoin: miter"/>
   </g>
   <g id="patch_31">
    <path d="M 477.634121 346.924412 
L 492.462662 346.924412 
L 492.462662 318.691718 
L 477.634121 318.691718 
z
" clip-path="url(#p7486bd95ba)" style="fill: #ea0070; stroke: #d30065; stroke-width: 0.65; stroke-linejoin: miter"/>
   </g>
   <g id="patch_32">
    <path d="M 103.68 339.48 
L 103.68 256.68 
" style="fill: none; stroke: #e6e6e6; stroke-width: 1.5; stroke-linejoin: miter; stroke-linecap: square"/>
   </g>
   <g id="patch_33">
    <path d="M 518.4 339.48 
L 518.4 256.68 
" style="fill: none; stroke: #e6e6e6; stroke-width: 1.5; stroke-linejoin: miter; stroke-linecap: square"/>
   </g>
   <g id="patch_34">
    <path d="M 103.68 339.48 
L 518.4 339.48 
" style="fill: none; stroke: #e6e6e6; stroke-width: 1.5; stroke-linejoin: miter; stroke-linecap: square"/>
   </g>
   <g id="patch_35">
    <path d="M 103.68 256.68 
L 518.4 256.68 
" style="fill: none; stroke: #e6e6e6; stroke-width: 1.5; stroke-linejoin: miter; stroke-linecap: square"/>
   </g>
  </g>
  <g id="text_14">
   <!-- DOGE - day 2 -->
   <g style="fill: #262626" transform="translate(232.7877 12.7512) scale(0.1728 -0.1728)">
    <defs>
     <path id="Arial-BoldMT-44" d="M 463 4581 
L 2153 4581 
Q 2725 4581 3025 4494 
Q 3428 4375 3715 4072 
Q 4003 3769 4153 3330 
Q 4303 2891 4303 2247 
Q 4303 1681 4163 1272 
Q 3991 772 3672 463 
Q 3431 228 3022 97 
Q 2716 0 2203 0 
L 463 0 
L 463 4581 
z
M 1388 3806 
L 1388 772 
L 2078 772 
Q 2466 772 2638 816 
Q 2863 872 3011 1006 
Q 3159 1141 3253 1448 
Q 3347 1756 3347 2288 
Q 3347 2819 3253 3103 
Q 3159 3388 2990 3547 
Q 2822 3706 2563 3763 
Q 2369 3806 1803 3806 
L 1388 3806 
z
" transform="scale(0.015625)"/>
     <path id="Arial-BoldMT-4f" d="M 278 2263 
Q 278 2963 488 3438 
Q 644 3788 914 4066 
Q 1184 4344 1506 4478 
Q 1934 4659 2494 4659 
Q 3506 4659 4114 4031 
Q 4722 3403 4722 2284 
Q 4722 1175 4119 548 
Q 3516 -78 2506 -78 
Q 1484 -78 881 545 
Q 278 1169 278 2263 
z
M 1231 2294 
Q 1231 1516 1590 1114 
Q 1950 713 2503 713 
Q 3056 713 3411 1111 
Q 3766 1509 3766 2306 
Q 3766 3094 3420 3481 
Q 3075 3869 2503 3869 
Q 1931 3869 1581 3476 
Q 1231 3084 1231 2294 
z
" transform="scale(0.015625)"/>
     <path id="Arial-BoldMT-47" d="M 2597 1684 
L 2597 2456 
L 4591 2456 
L 4591 631 
Q 4300 350 3748 136 
Q 3197 -78 2631 -78 
Q 1913 -78 1378 223 
Q 844 525 575 1086 
Q 306 1647 306 2306 
Q 306 3022 606 3578 
Q 906 4134 1484 4431 
Q 1925 4659 2581 4659 
Q 3434 4659 3914 4301 
Q 4394 3944 4531 3313 
L 3613 3141 
Q 3516 3478 3248 3673 
Q 2981 3869 2581 3869 
Q 1975 3869 1617 3484 
Q 1259 3100 1259 2344 
Q 1259 1528 1621 1120 
Q 1984 713 2572 713 
Q 2863 713 3155 827 
Q 3447 941 3656 1103 
L 3656 1684 
L 2597 1684 
z
" transform="scale(0.015625)"/>
     <path id="Arial-BoldMT-45" d="M 466 0 
L 466 4581 
L 3863 4581 
L 3863 3806 
L 1391 3806 
L 1391 2791 
L 3691 2791 
L 3691 2019 
L 1391 2019 
L 1391 772 
L 3950 772 
L 3950 0 
L 466 0 
z
" transform="scale(0.015625)"/>
     <path id="Arial-BoldMT-20" transform="scale(0.015625)"/>
     <path id="Arial-BoldMT-2d" d="M 359 1222 
L 359 2100 
L 2084 2100 
L 2084 1222 
L 359 1222 
z
" transform="scale(0.015625)"/>
     <path id="Arial-BoldMT-64" d="M 3503 0 
L 2688 0 
L 2688 488 
Q 2484 203 2207 64 
Q 1931 -75 1650 -75 
Q 1078 -75 670 386 
Q 263 847 263 1672 
Q 263 2516 659 2955 
Q 1056 3394 1663 3394 
Q 2219 3394 2625 2931 
L 2625 4581 
L 3503 4581 
L 3503 0 
z
M 1159 1731 
Q 1159 1200 1306 963 
Q 1519 619 1900 619 
Q 2203 619 2415 876 
Q 2628 1134 2628 1647 
Q 2628 2219 2422 2470 
Q 2216 2722 1894 2722 
Q 1581 2722 1370 2473 
Q 1159 2225 1159 1731 
z
" transform="scale(0.015625)"/>
     <path id="Arial-BoldMT-61" d="M 1116 2306 
L 319 2450 
Q 453 2931 781 3162 
Q 1109 3394 1756 3394 
Q 2344 3394 2631 3255 
Q 2919 3116 3036 2902 
Q 3153 2688 3153 2116 
L 3144 1091 
Q 3144 653 3186 445 
Q 3228 238 3344 0 
L 2475 0 
Q 2441 88 2391 259 
Q 2369 338 2359 363 
Q 2134 144 1878 34 
Q 1622 -75 1331 -75 
Q 819 -75 523 203 
Q 228 481 228 906 
Q 228 1188 362 1408 
Q 497 1628 739 1745 
Q 981 1863 1438 1950 
Q 2053 2066 2291 2166 
L 2291 2253 
Q 2291 2506 2166 2614 
Q 2041 2722 1694 2722 
Q 1459 2722 1328 2630 
Q 1197 2538 1116 2306 
z
M 2291 1594 
Q 2122 1538 1756 1459 
Q 1391 1381 1278 1306 
Q 1106 1184 1106 997 
Q 1106 813 1243 678 
Q 1381 544 1594 544 
Q 1831 544 2047 700 
Q 2206 819 2256 991 
Q 2291 1103 2291 1419 
L 2291 1594 
z
" transform="scale(0.015625)"/>
     <path id="Arial-BoldMT-79" d="M 44 3319 
L 978 3319 
L 1772 963 
L 2547 3319 
L 3456 3319 
L 2284 125 
L 2075 -453 
Q 1959 -744 1854 -897 
Q 1750 -1050 1614 -1145 
Q 1478 -1241 1279 -1294 
Q 1081 -1347 831 -1347 
Q 578 -1347 334 -1294 
L 256 -606 
Q 463 -647 628 -647 
Q 934 -647 1081 -467 
Q 1228 -288 1306 -9 
L 44 3319 
z
" transform="scale(0.015625)"/>
     <path id="Arial-BoldMT-32" d="M 3238 816 
L 3238 0 
L 159 0 
Q 209 463 459 877 
Q 709 1291 1447 1975 
Q 2041 2528 2175 2725 
Q 2356 2997 2356 3263 
Q 2356 3556 2198 3714 
Q 2041 3872 1763 3872 
Q 1488 3872 1325 3706 
Q 1163 3541 1138 3156 
L 263 3244 
Q 341 3969 753 4284 
Q 1166 4600 1784 4600 
Q 2463 4600 2850 4234 
Q 3238 3869 3238 3325 
Q 3238 3016 3127 2736 
Q 3016 2456 2775 2150 
Q 2616 1947 2200 1565 
Q 1784 1184 1673 1059 
Q 1563 934 1494 816 
L 3238 816 
z
" transform="scale(0.015625)"/>
    </defs>
    <use xlink:href="#Arial-BoldMT-44"/>
    <use xlink:href="#Arial-BoldMT-4f" x="72.216797"/>
    <use xlink:href="#Arial-BoldMT-47" x="150"/>
    <use xlink:href="#Arial-BoldMT-45" x="227.783203"/>
    <use xlink:href="#Arial-BoldMT-20" x="294.482422"/>
    <use xlink:href="#Arial-BoldMT-2d" x="322.265625"/>
    <use xlink:href="#Arial-BoldMT-20" x="355.566406"/>
    <use xlink:href="#Arial-BoldMT-64" x="383.349609"/>
    <use xlink:href="#Arial-BoldMT-61" x="444.433594"/>
    <use xlink:href="#Arial-BoldMT-79" x="500.048828"/>
    <use xlink:href="#Arial-BoldMT-20" x="555.664062"/>
    <use xlink:href="#Arial-BoldMT-32" x="583.447266"/>
   </g>
  </g>
 </g>
 <defs>
  <clipPath id="pceba48934e">
   <rect x="103.68" y="49.68" width="414.72" height="207"/>
  </clipPath>
  <clipPath id="p7486bd95ba">
   <rect x="103.68" y="256.68" width="414.72" height="82.8"/>
  </clipPath>
 </defs>
</svg>
