<?xml version="1.0" encoding="utf-8" standalone="no"?>
<!DOCTYPE svg PUBLIC "-//W3C//DTD SVG 1.1//EN"
  "http://www.w3.org/Graphics/SVG/1.1/DTD/svg11.dtd">
<svg xmlns:xlink="http://www.w3.org/1999/xlink" width="1080pt" height="360pt" viewBox="0 0 1080 360" xmlns="http://www.w3.org/2000/svg" version="1.1">
 <metadata>
  <rdf:RDF xmlns:dc="http://purl.org/dc/elements/1.1/" xmlns:cc="http://creativecommons.org/ns#" xmlns:rdf="http://www.w3.org/1999/02/22-rdf-syntax-ns#">
   <cc:Work>
    <dc:type rdf:resource="http://purl.org/dc/dcmitype/StillImage"/>
    <dc:date>2024-06-03T20:42:46.558090</dc:date>
    <dc:format>image/svg+xml</dc:format>
    <dc:creator>
     <cc:Agent>
      <dc:title>Matplotlib v3.9.0, https://matplotlib.org/</dc:title>
     </cc:Agent>
    </dc:creator>
   </cc:Work>
  </rdf:RDF>
 </metadata>
 <defs>
  <style type="text/css">*{stroke-linejoin: round; stroke-linecap: butt}</style>
 </defs>
 <g id="figure_1">
  <g id="patch_1">
   <path d="M 0 360 
L 1080 360 
L 1080 0 
L 0 0 
z
" style="fill: #ffffff"/>
  </g>
  <g id="axes_1">
   <g id="patch_2">
    <path d="M 135 320.4 
L 515.454545 320.4 
L 515.454545 43.2 
L 135 43.2 
z
" style="fill: #ffffff"/>
   </g>
   <g id="matplotlib.axis_1">
    <g id="xtick_1">
     <g id="line2d_1">
      <path d="M 165.595995 320.4 
L 165.595995 43.2 
" clip-path="url(#pfd6d64b02e)" style="fill: none; stroke-dasharray: 2.96,1.28; stroke-dashoffset: 0; stroke: #d0d0d0; stroke-width: 0.8"/>
     </g>
     <g id="line2d_2"/>
     <g id="text_1">
      <!-- 00:00 -->
      <g style="fill: #262626" transform="translate(157.17369 351.20537) rotate(-45) scale(0.12 -0.12)">
       <defs>
        <path id="ArialMT-30" d="M 266 2259 
Q 266 3072 433 3567 
Q 600 4063 929 4331 
Q 1259 4600 1759 4600 
Q 2128 4600 2406 4451 
Q 2684 4303 2865 4023 
Q 3047 3744 3150 3342 
Q 3253 2941 3253 2259 
Q 3253 1453 3087 958 
Q 2922 463 2592 192 
Q 2263 -78 1759 -78 
Q 1097 -78 719 397 
Q 266 969 266 2259 
z
M 844 2259 
Q 844 1131 1108 757 
Q 1372 384 1759 384 
Q 2147 384 2411 759 
Q 2675 1134 2675 2259 
Q 2675 3391 2411 3762 
Q 2147 4134 1753 4134 
Q 1366 4134 1134 3806 
Q 844 3388 844 2259 
z
" transform="scale(0.015625)"/>
        <path id="ArialMT-3a" d="M 578 2678 
L 578 3319 
L 1219 3319 
L 1219 2678 
L 578 2678 
z
M 578 0 
L 578 641 
L 1219 641 
L 1219 0 
L 578 0 
z
" transform="scale(0.015625)"/>
       </defs>
       <use xlink:href="#ArialMT-30"/>
       <use xlink:href="#ArialMT-30" x="55.615234"/>
       <use xlink:href="#ArialMT-3a" x="111.230469"/>
       <use xlink:href="#ArialMT-30" x="139.013672"/>
       <use xlink:href="#ArialMT-30" x="194.628906"/>
      </g>
     </g>
    </g>
    <g id="xtick_2">
     <g id="line2d_3">
      <path d="M 235.000898 320.4 
L 235.000898 43.2 
" clip-path="url(#pfd6d64b02e)" style="fill: none; stroke-dasharray: 2.96,1.28; stroke-dashoffset: 0; stroke: #d0d0d0; stroke-width: 0.8"/>
     </g>
     <g id="line2d_4"/>
     <g id="text_2">
      <!-- 05:00 -->
      <g style="fill: #262626" transform="translate(226.578594 351.20537) rotate(-45) scale(0.12 -0.12)">
       <defs>
        <path id="ArialMT-35" d="M 266 1200 
L 856 1250 
Q 922 819 1161 601 
Q 1400 384 1738 384 
Q 2144 384 2425 690 
Q 2706 997 2706 1503 
Q 2706 1984 2436 2262 
Q 2166 2541 1728 2541 
Q 1456 2541 1237 2417 
Q 1019 2294 894 2097 
L 366 2166 
L 809 4519 
L 3088 4519 
L 3088 3981 
L 1259 3981 
L 1013 2750 
Q 1425 3038 1878 3038 
Q 2478 3038 2890 2622 
Q 3303 2206 3303 1553 
Q 3303 931 2941 478 
Q 2500 -78 1738 -78 
Q 1113 -78 717 272 
Q 322 622 266 1200 
z
" transform="scale(0.015625)"/>
       </defs>
       <use xlink:href="#ArialMT-30"/>
       <use xlink:href="#ArialMT-35" x="55.615234"/>
       <use xlink:href="#ArialMT-3a" x="111.230469"/>
       <use xlink:href="#ArialMT-30" x="139.013672"/>
       <use xlink:href="#ArialMT-30" x="194.628906"/>
      </g>
     </g>
    </g>
    <g id="xtick_3">
     <g id="line2d_5">
      <path d="M 304.405802 320.4 
L 304.405802 43.2 
" clip-path="url(#pfd6d64b02e)" style="fill: none; stroke-dasharray: 2.96,1.28; stroke-dashoffset: 0; stroke: #d0d0d0; stroke-width: 0.8"/>
     </g>
     <g id="line2d_6"/>
     <g id="text_3">
      <!-- 10:00 -->
      <g style="fill: #262626" transform="translate(295.983497 351.20537) rotate(-45) scale(0.12 -0.12)">
       <defs>
        <path id="ArialMT-31" d="M 2384 0 
L 1822 0 
L 1822 3584 
Q 1619 3391 1289 3197 
Q 959 3003 697 2906 
L 697 3450 
Q 1169 3672 1522 3987 
Q 1875 4303 2022 4600 
L 2384 4600 
L 2384 0 
z
" transform="scale(0.015625)"/>
       </defs>
       <use xlink:href="#ArialMT-31"/>
       <use xlink:href="#ArialMT-30" x="55.615234"/>
       <use xlink:href="#ArialMT-3a" x="111.230469"/>
       <use xlink:href="#ArialMT-30" x="139.013672"/>
       <use xlink:href="#ArialMT-30" x="194.628906"/>
      </g>
     </g>
    </g>
    <g id="xtick_4">
     <g id="line2d_7">
      <path d="M 373.810705 320.4 
L 373.810705 43.2 
" clip-path="url(#pfd6d64b02e)" style="fill: none; stroke-dasharray: 2.96,1.28; stroke-dashoffset: 0; stroke: #d0d0d0; stroke-width: 0.8"/>
     </g>
     <g id="line2d_8"/>
     <g id="text_4">
      <!-- 15:00 -->
      <g style="fill: #262626" transform="translate(365.3884 351.20537) rotate(-45) scale(0.12 -0.12)">
       <use xlink:href="#ArialMT-31"/>
       <use xlink:href="#ArialMT-35" x="55.615234"/>
       <use xlink:href="#ArialMT-3a" x="111.230469"/>
       <use xlink:href="#ArialMT-30" x="139.013672"/>
       <use xlink:href="#ArialMT-30" x="194.628906"/>
      </g>
     </g>
    </g>
    <g id="xtick_5">
     <g id="line2d_9">
      <path d="M 443.215609 320.4 
L 443.215609 43.2 
" clip-path="url(#pfd6d64b02e)" style="fill: none; stroke-dasharray: 2.96,1.28; stroke-dashoffset: 0; stroke: #d0d0d0; stroke-width: 0.8"/>
     </g>
     <g id="line2d_10"/>
     <g id="text_5">
      <!-- 20:00 -->
      <g style="fill: #262626" transform="translate(434.793304 351.20537) rotate(-45) scale(0.12 -0.12)">
       <defs>
        <path id="ArialMT-32" d="M 3222 541 
L 3222 0 
L 194 0 
Q 188 203 259 391 
Q 375 700 629 1000 
Q 884 1300 1366 1694 
Q 2113 2306 2375 2664 
Q 2638 3022 2638 3341 
Q 2638 3675 2398 3904 
Q 2159 4134 1775 4134 
Q 1369 4134 1125 3890 
Q 881 3647 878 3216 
L 300 3275 
Q 359 3922 746 4261 
Q 1134 4600 1788 4600 
Q 2447 4600 2831 4234 
Q 3216 3869 3216 3328 
Q 3216 3053 3103 2787 
Q 2991 2522 2730 2228 
Q 2469 1934 1863 1422 
Q 1356 997 1212 845 
Q 1069 694 975 541 
L 3222 541 
z
" transform="scale(0.015625)"/>
       </defs>
       <use xlink:href="#ArialMT-32"/>
       <use xlink:href="#ArialMT-30" x="55.615234"/>
       <use xlink:href="#ArialMT-3a" x="111.230469"/>
       <use xlink:href="#ArialMT-30" x="139.013672"/>
       <use xlink:href="#ArialMT-30" x="194.628906"/>
      </g>
     </g>
    </g>
    <g id="xtick_6">
     <g id="line2d_11">
      <path d="M 512.620512 320.4 
L 512.620512 43.2 
" clip-path="url(#pfd6d64b02e)" style="fill: none; stroke-dasharray: 2.96,1.28; stroke-dashoffset: 0; stroke: #d0d0d0; stroke-width: 0.8"/>
     </g>
     <g id="line2d_12"/>
    </g>
   </g>
   <g id="matplotlib.axis_2">
    <g id="ytick_1">
     <g id="line2d_13">
      <path d="M 135 300.839668 
L 515.454545 300.839668 
" clip-path="url(#pfd6d64b02e)" style="fill: none; stroke-dasharray: 2.96,1.28; stroke-dashoffset: 0; stroke: #d0d0d0; stroke-width: 0.8"/>
     </g>
     <g id="line2d_14"/>
     <g id="text_6">
      <!-- 0 -->
      <g style="fill: #262626" transform="translate(124.826875 305.134355) scale(0.12 -0.12)">
       <use xlink:href="#ArialMT-30"/>
      </g>
     </g>
    </g>
    <g id="ytick_2">
     <g id="line2d_15">
      <path d="M 135 269.895677 
L 515.454545 269.895677 
" clip-path="url(#pfd6d64b02e)" style="fill: none; stroke-dasharray: 2.96,1.28; stroke-dashoffset: 0; stroke: #d0d0d0; stroke-width: 0.8"/>
     </g>
     <g id="line2d_16"/>
     <g id="text_7">
      <!-- 1 -->
      <g style="fill: #262626" transform="translate(124.826875 274.190364) scale(0.12 -0.12)">
       <use xlink:href="#ArialMT-31"/>
      </g>
     </g>
    </g>
    <g id="ytick_3">
     <g id="line2d_17">
      <path d="M 135 238.951686 
L 515.454545 238.951686 
" clip-path="url(#pfd6d64b02e)" style="fill: none; stroke-dasharray: 2.96,1.28; stroke-dashoffset: 0; stroke: #d0d0d0; stroke-width: 0.8"/>
     </g>
     <g id="line2d_18"/>
     <g id="text_8">
      <!-- 2 -->
      <g style="fill: #262626" transform="translate(124.826875 243.246373) scale(0.12 -0.12)">
       <use xlink:href="#ArialMT-32"/>
      </g>
     </g>
    </g>
    <g id="ytick_4">
     <g id="line2d_19">
      <path d="M 135 208.007695 
L 515.454545 208.007695 
" clip-path="url(#pfd6d64b02e)" style="fill: none; stroke-dasharray: 2.96,1.28; stroke-dashoffset: 0; stroke: #d0d0d0; stroke-width: 0.8"/>
     </g>
     <g id="line2d_20"/>
     <g id="text_9">
      <!-- 3 -->
      <g style="fill: #262626" transform="translate(124.826875 212.302383) scale(0.12 -0.12)">
       <defs>
        <path id="ArialMT-33" d="M 269 1209 
L 831 1284 
Q 928 806 1161 595 
Q 1394 384 1728 384 
Q 2125 384 2398 659 
Q 2672 934 2672 1341 
Q 2672 1728 2419 1979 
Q 2166 2231 1775 2231 
Q 1616 2231 1378 2169 
L 1441 2663 
Q 1497 2656 1531 2656 
Q 1891 2656 2178 2843 
Q 2466 3031 2466 3422 
Q 2466 3731 2256 3934 
Q 2047 4138 1716 4138 
Q 1388 4138 1169 3931 
Q 950 3725 888 3313 
L 325 3413 
Q 428 3978 793 4289 
Q 1159 4600 1703 4600 
Q 2078 4600 2393 4439 
Q 2709 4278 2876 4000 
Q 3044 3722 3044 3409 
Q 3044 3113 2884 2869 
Q 2725 2625 2413 2481 
Q 2819 2388 3044 2092 
Q 3269 1797 3269 1353 
Q 3269 753 2831 336 
Q 2394 -81 1725 -81 
Q 1122 -81 723 278 
Q 325 638 269 1209 
z
" transform="scale(0.015625)"/>
       </defs>
       <use xlink:href="#ArialMT-33"/>
      </g>
     </g>
    </g>
    <g id="ytick_5">
     <g id="line2d_21">
      <path d="M 135 177.063704 
L 515.454545 177.063704 
" clip-path="url(#pfd6d64b02e)" style="fill: none; stroke-dasharray: 2.96,1.28; stroke-dashoffset: 0; stroke: #d0d0d0; stroke-width: 0.8"/>
     </g>
     <g id="line2d_22"/>
     <g id="text_10">
      <!-- 4 -->
      <g style="fill: #262626" transform="translate(124.826875 181.358392) scale(0.12 -0.12)">
       <defs>
        <path id="ArialMT-34" d="M 2069 0 
L 2069 1097 
L 81 1097 
L 81 1613 
L 2172 4581 
L 2631 4581 
L 2631 1613 
L 3250 1613 
L 3250 1097 
L 2631 1097 
L 2631 0 
L 2069 0 
z
M 2069 1613 
L 2069 3678 
L 634 1613 
L 2069 1613 
z
" transform="scale(0.015625)"/>
       </defs>
       <use xlink:href="#ArialMT-34"/>
      </g>
     </g>
    </g>
    <g id="ytick_6">
     <g id="line2d_23">
      <path d="M 135 146.119713 
L 515.454545 146.119713 
" clip-path="url(#pfd6d64b02e)" style="fill: none; stroke-dasharray: 2.96,1.28; stroke-dashoffset: 0; stroke: #d0d0d0; stroke-width: 0.8"/>
     </g>
     <g id="line2d_24"/>
     <g id="text_11">
      <!-- 5 -->
      <g style="fill: #262626" transform="translate(124.826875 150.414401) scale(0.12 -0.12)">
       <use xlink:href="#ArialMT-35"/>
      </g>
     </g>
    </g>
    <g id="ytick_7">
     <g id="line2d_25">
      <path d="M 135 115.175723 
L 515.454545 115.175723 
" clip-path="url(#pfd6d64b02e)" style="fill: none; stroke-dasharray: 2.96,1.28; stroke-dashoffset: 0; stroke: #d0d0d0; stroke-width: 0.8"/>
     </g>
     <g id="line2d_26"/>
     <g id="text_12">
      <!-- 6 -->
      <g style="fill: #262626" transform="translate(124.826875 119.47041) scale(0.12 -0.12)">
       <defs>
        <path id="ArialMT-36" d="M 3184 3459 
L 2625 3416 
Q 2550 3747 2413 3897 
Q 2184 4138 1850 4138 
Q 1581 4138 1378 3988 
Q 1113 3794 959 3422 
Q 806 3050 800 2363 
Q 1003 2672 1297 2822 
Q 1591 2972 1913 2972 
Q 2475 2972 2870 2558 
Q 3266 2144 3266 1488 
Q 3266 1056 3080 686 
Q 2894 316 2569 119 
Q 2244 -78 1831 -78 
Q 1128 -78 684 439 
Q 241 956 241 2144 
Q 241 3472 731 4075 
Q 1159 4600 1884 4600 
Q 2425 4600 2770 4297 
Q 3116 3994 3184 3459 
z
M 888 1484 
Q 888 1194 1011 928 
Q 1134 663 1356 523 
Q 1578 384 1822 384 
Q 2178 384 2434 671 
Q 2691 959 2691 1453 
Q 2691 1928 2437 2201 
Q 2184 2475 1800 2475 
Q 1419 2475 1153 2201 
Q 888 1928 888 1484 
z
" transform="scale(0.015625)"/>
       </defs>
       <use xlink:href="#ArialMT-36"/>
      </g>
     </g>
    </g>
    <g id="ytick_8">
     <g id="line2d_27">
      <path d="M 135 84.231732 
L 515.454545 84.231732 
" clip-path="url(#pfd6d64b02e)" style="fill: none; stroke-dasharray: 2.96,1.28; stroke-dashoffset: 0; stroke: #d0d0d0; stroke-width: 0.8"/>
     </g>
     <g id="line2d_28"/>
     <g id="text_13">
      <!-- 7 -->
      <g style="fill: #262626" transform="translate(124.826875 88.526419) scale(0.12 -0.12)">
       <defs>
        <path id="ArialMT-37" d="M 303 3981 
L 303 4522 
L 3269 4522 
L 3269 4084 
Q 2831 3619 2401 2847 
Q 1972 2075 1738 1259 
Q 1569 684 1522 0 
L 944 0 
Q 953 541 1156 1306 
Q 1359 2072 1739 2783 
Q 2119 3494 2547 3981 
L 303 3981 
z
" transform="scale(0.015625)"/>
       </defs>
       <use xlink:href="#ArialMT-37"/>
      </g>
     </g>
    </g>
    <g id="ytick_9">
     <g id="line2d_29">
      <path d="M 135 53.287741 
L 515.454545 53.287741 
" clip-path="url(#pfd6d64b02e)" style="fill: none; stroke-dasharray: 2.96,1.28; stroke-dashoffset: 0; stroke: #d0d0d0; stroke-width: 0.8"/>
     </g>
     <g id="line2d_30"/>
     <g id="text_14">
      <!-- 8 -->
      <g style="fill: #262626" transform="translate(124.826875 57.582429) scale(0.12 -0.12)">
       <defs>
        <path id="ArialMT-38" d="M 1131 2484 
Q 781 2613 612 2850 
Q 444 3088 444 3419 
Q 444 3919 803 4259 
Q 1163 4600 1759 4600 
Q 2359 4600 2725 4251 
Q 3091 3903 3091 3403 
Q 3091 3084 2923 2848 
Q 2756 2613 2416 2484 
Q 2838 2347 3058 2040 
Q 3278 1734 3278 1309 
Q 3278 722 2862 322 
Q 2447 -78 1769 -78 
Q 1091 -78 675 323 
Q 259 725 259 1325 
Q 259 1772 486 2073 
Q 713 2375 1131 2484 
z
M 1019 3438 
Q 1019 3113 1228 2906 
Q 1438 2700 1772 2700 
Q 2097 2700 2305 2904 
Q 2513 3109 2513 3406 
Q 2513 3716 2298 3927 
Q 2084 4138 1766 4138 
Q 1444 4138 1231 3931 
Q 1019 3725 1019 3438 
z
M 838 1322 
Q 838 1081 952 856 
Q 1066 631 1291 507 
Q 1516 384 1775 384 
Q 2178 384 2440 643 
Q 2703 903 2703 1303 
Q 2703 1709 2433 1975 
Q 2163 2241 1756 2241 
Q 1359 2241 1098 1978 
Q 838 1716 838 1322 
z
" transform="scale(0.015625)"/>
       </defs>
       <use xlink:href="#ArialMT-38"/>
      </g>
     </g>
    </g>
    <g id="text_15">
     <!-- Price -->
     <g style="fill: #262626" transform="translate(118.45875 196.4775) rotate(-90) scale(0.12 -0.12)">
      <defs>
       <path id="Arial-BoldMT-50" d="M 466 0 
L 466 4581 
L 1950 4581 
Q 2794 4581 3050 4513 
Q 3444 4409 3709 4064 
Q 3975 3719 3975 3172 
Q 3975 2750 3822 2462 
Q 3669 2175 3433 2011 
Q 3197 1847 2953 1794 
Q 2622 1728 1994 1728 
L 1391 1728 
L 1391 0 
L 466 0 
z
M 1391 3806 
L 1391 2506 
L 1897 2506 
Q 2444 2506 2628 2578 
Q 2813 2650 2917 2803 
Q 3022 2956 3022 3159 
Q 3022 3409 2875 3571 
Q 2728 3734 2503 3775 
Q 2338 3806 1838 3806 
L 1391 3806 
z
" transform="scale(0.015625)"/>
       <path id="Arial-BoldMT-72" d="M 1300 0 
L 422 0 
L 422 3319 
L 1238 3319 
L 1238 2847 
Q 1447 3181 1614 3287 
Q 1781 3394 1994 3394 
Q 2294 3394 2572 3228 
L 2300 2463 
Q 2078 2606 1888 2606 
Q 1703 2606 1575 2504 
Q 1447 2403 1373 2137 
Q 1300 1872 1300 1025 
L 1300 0 
z
" transform="scale(0.015625)"/>
       <path id="Arial-BoldMT-69" d="M 459 3769 
L 459 4581 
L 1338 4581 
L 1338 3769 
L 459 3769 
z
M 459 0 
L 459 3319 
L 1338 3319 
L 1338 0 
L 459 0 
z
" transform="scale(0.015625)"/>
       <path id="Arial-BoldMT-63" d="M 3353 2338 
L 2488 2181 
Q 2444 2441 2289 2572 
Q 2134 2703 1888 2703 
Q 1559 2703 1364 2476 
Q 1169 2250 1169 1719 
Q 1169 1128 1367 884 
Q 1566 641 1900 641 
Q 2150 641 2309 783 
Q 2469 925 2534 1272 
L 3397 1125 
Q 3263 531 2881 228 
Q 2500 -75 1859 -75 
Q 1131 -75 698 384 
Q 266 844 266 1656 
Q 266 2478 700 2936 
Q 1134 3394 1875 3394 
Q 2481 3394 2839 3133 
Q 3197 2872 3353 2338 
z
" transform="scale(0.015625)"/>
       <path id="Arial-BoldMT-65" d="M 2381 1056 
L 3256 909 
Q 3088 428 2723 176 
Q 2359 -75 1813 -75 
Q 947 -75 531 491 
Q 203 944 203 1634 
Q 203 2459 634 2926 
Q 1066 3394 1725 3394 
Q 2466 3394 2894 2905 
Q 3322 2416 3303 1406 
L 1103 1406 
Q 1113 1016 1316 798 
Q 1519 581 1822 581 
Q 2028 581 2168 693 
Q 2309 806 2381 1056 
z
M 2431 1944 
Q 2422 2325 2234 2523 
Q 2047 2722 1778 2722 
Q 1491 2722 1303 2513 
Q 1116 2303 1119 1944 
L 2431 1944 
z
" transform="scale(0.015625)"/>
      </defs>
      <use xlink:href="#Arial-BoldMT-50"/>
      <use xlink:href="#Arial-BoldMT-72" x="66.699219"/>
      <use xlink:href="#Arial-BoldMT-69" x="105.615234"/>
      <use xlink:href="#Arial-BoldMT-63" x="133.398438"/>
      <use xlink:href="#Arial-BoldMT-65" x="189.013672"/>
     </g>
    </g>
   </g>
   <g id="PolyCollection_1">
    <path d="M 161.084676 60.141835 
L 161.084676 59.693147 
L 170.107314 59.693147 
L 170.107314 60.141835 
z
" clip-path="url(#pfd6d64b02e)" style="fill: #70a800; fill-opacity: 0.9; stroke: #70a800"/>
    <path d="M 174.965657 59.693147 
L 174.965657 56.134588 
L 183.988294 56.134588 
L 183.988294 59.693147 
z
" clip-path="url(#pfd6d64b02e)" style="fill: #70a800; fill-opacity: 0.9; stroke: #70a800"/>
    <path d="M 188.846638 56.134588 
L 188.846638 54.912301 
L 197.869275 54.912301 
L 197.869275 56.134588 
z
" clip-path="url(#pfd6d64b02e)" style="fill: #70a800; fill-opacity: 0.9; stroke: #70a800"/>
    <path d="M 202.727618 54.912301 
L 202.727618 55.37646 
L 211.750256 55.37646 
L 211.750256 54.912301 
z
" clip-path="url(#pfd6d64b02e)" style="fill: #ea0070; fill-opacity: 0.9; stroke: #ea0070"/>
    <path d="M 216.608599 55.37646 
L 216.608599 52.189229 
L 225.631236 52.189229 
L 225.631236 55.37646 
z
" clip-path="url(#pfd6d64b02e)" style="fill: #70a800; fill-opacity: 0.9; stroke: #70a800"/>
    <path d="M 230.48958 52.204701 
L 230.48958 51.322798 
L 239.512217 51.322798 
L 239.512217 52.204701 
z
" clip-path="url(#pfd6d64b02e)" style="fill: #70a800; fill-opacity: 0.9; stroke: #70a800"/>
    <path d="M 244.37056 51.322798 
L 244.37056 55.407404 
L 253.393198 55.407404 
L 253.393198 51.322798 
z
" clip-path="url(#pfd6d64b02e)" style="fill: #ea0070; fill-opacity: 0.9; stroke: #ea0070"/>
    <path d="M 258.251541 55.407404 
L 258.251541 54.076813 
L 267.274178 54.076813 
L 267.274178 55.407404 
z
" clip-path="url(#pfd6d64b02e)" style="fill: #70a800; fill-opacity: 0.9; stroke: #70a800"/>
    <path d="M 272.132522 54.076813 
L 272.132522 56.676108 
L 281.155159 56.676108 
L 281.155159 54.076813 
z
" clip-path="url(#pfd6d64b02e)" style="fill: #ea0070; fill-opacity: 0.9; stroke: #ea0070"/>
    <path d="M 286.013502 56.707052 
L 286.013502 56.676108 
L 295.03614 56.676108 
L 295.03614 56.707052 
z
" clip-path="url(#pfd6d64b02e)" style="fill: #70a800; fill-opacity: 0.9; stroke: #70a800"/>
    <path d="M 299.894483 56.676108 
L 299.894483 55.84062 
L 308.91712 55.84062 
L 308.91712 56.676108 
z
" clip-path="url(#pfd6d64b02e)" style="fill: #70a800; fill-opacity: 0.9; stroke: #70a800"/>
    <path d="M 313.775464 55.84062 
L 313.775464 57.2331 
L 322.798101 57.2331 
L 322.798101 55.84062 
z
" clip-path="url(#pfd6d64b02e)" style="fill: #ea0070; fill-opacity: 0.9; stroke: #ea0070"/>
    <path d="M 327.656444 57.2331 
L 327.656444 58.31614 
L 336.679082 58.31614 
L 336.679082 57.2331 
z
" clip-path="url(#pfd6d64b02e)" style="fill: #ea0070; fill-opacity: 0.9; stroke: #ea0070"/>
    <path d="M 341.537425 58.31614 
L 341.537425 56.737996 
L 350.560062 56.737996 
L 350.560062 58.31614 
z
" clip-path="url(#pfd6d64b02e)" style="fill: #70a800; fill-opacity: 0.9; stroke: #70a800"/>
    <path d="M 355.418406 56.737996 
L 355.418406 59.043323 
L 364.441043 59.043323 
L 364.441043 56.737996 
z
" clip-path="url(#pfd6d64b02e)" style="fill: #ea0070; fill-opacity: 0.9; stroke: #ea0070"/>
    <path d="M 369.299386 59.043323 
L 369.299386 51.322798 
L 378.322024 51.322798 
L 378.322024 59.043323 
z
" clip-path="url(#pfd6d64b02e)" style="fill: #70a800; fill-opacity: 0.9; stroke: #70a800"/>
    <path d="M 383.180367 51.322798 
L 383.180367 48.47595 
L 392.203005 48.47595 
L 392.203005 51.322798 
z
" clip-path="url(#pfd6d64b02e)" style="fill: #70a800; fill-opacity: 0.9; stroke: #70a800"/>
    <path d="M 397.061348 48.47595 
L 397.061348 49.295966 
L 406.083985 49.295966 
L 406.083985 48.47595 
z
" clip-path="url(#pfd6d64b02e)" style="fill: #ea0070; fill-opacity: 0.9; stroke: #ea0070"/>
    <path d="M 410.942328 49.295966 
L 410.942328 48.893694 
L 419.964966 48.893694 
L 419.964966 49.295966 
z
" clip-path="url(#pfd6d64b02e)" style="fill: #70a800; fill-opacity: 0.9; stroke: #70a800"/>
    <path d="M 424.823309 48.893694 
L 424.823309 44.344928 
L 433.845947 44.344928 
L 433.845947 48.893694 
z
" clip-path="url(#pfd6d64b02e)" style="fill: #70a800; fill-opacity: 0.9; stroke: #70a800"/>
    <path d="M 438.70429 44.344928 
L 438.70429 50.131454 
L 447.726927 50.131454 
L 447.726927 44.344928 
z
" clip-path="url(#pfd6d64b02e)" style="fill: #ea0070; fill-opacity: 0.9; stroke: #ea0070"/>
    <path d="M 452.58527 50.17787 
L 452.58527 48.32123 
L 461.607908 48.32123 
L 461.607908 50.17787 
z
" clip-path="url(#pfd6d64b02e)" style="fill: #70a800; fill-opacity: 0.9; stroke: #70a800"/>
    <path d="M 466.466251 48.32123 
L 466.466251 46.681199 
L 475.488889 46.681199 
L 475.488889 48.32123 
z
" clip-path="url(#pfd6d64b02e)" style="fill: #70a800; fill-opacity: 0.9; stroke: #70a800"/>
    <path d="M 480.347232 46.681199 
L 480.347232 44.20568 
L 489.369869 44.20568 
L 489.369869 46.681199 
z
" clip-path="url(#pfd6d64b02e)" style="fill: #70a800; fill-opacity: 0.9; stroke: #70a800"/>
   </g>
   <g id="LineCollection_1">
    <path d="M 165.595995 62.292442 
L 165.595995 60.141835 
" clip-path="url(#pfd6d64b02e)" style="fill: none; stroke: #70a800"/>
    <path d="M 179.476976 60.358443 
L 179.476976 59.693147 
" clip-path="url(#pfd6d64b02e)" style="fill: none; stroke: #70a800"/>
    <path d="M 193.357956 57.635372 
L 193.357956 56.134588 
" clip-path="url(#pfd6d64b02e)" style="fill: none; stroke: #70a800"/>
    <path d="M 207.238937 56.15006 
L 207.238937 55.37646 
" clip-path="url(#pfd6d64b02e)" style="fill: none; stroke: #ea0070"/>
    <path d="M 221.119918 55.670428 
L 221.119918 55.37646 
" clip-path="url(#pfd6d64b02e)" style="fill: none; stroke: #70a800"/>
    <path d="M 235.000898 52.653389 
L 235.000898 52.204701 
" clip-path="url(#pfd6d64b02e)" style="fill: none; stroke: #70a800"/>
    <path d="M 248.881879 56.676108 
L 248.881879 55.407404 
" clip-path="url(#pfd6d64b02e)" style="fill: none; stroke: #ea0070"/>
    <path d="M 262.76286 56.258364 
L 262.76286 55.407404 
" clip-path="url(#pfd6d64b02e)" style="fill: none; stroke: #70a800"/>
    <path d="M 276.64384 57.604428 
L 276.64384 56.676108 
" clip-path="url(#pfd6d64b02e)" style="fill: none; stroke: #ea0070"/>
    <path d="M 290.524821 57.202156 
L 290.524821 56.707052 
" clip-path="url(#pfd6d64b02e)" style="fill: none; stroke: #70a800"/>
    <path d="M 304.405802 57.31046 
L 304.405802 56.676108 
" clip-path="url(#pfd6d64b02e)" style="fill: none; stroke: #70a800"/>
    <path d="M 318.286782 58.068588 
L 318.286782 57.2331 
" clip-path="url(#pfd6d64b02e)" style="fill: none; stroke: #ea0070"/>
    <path d="M 332.167763 59.414651 
L 332.167763 58.31614 
" clip-path="url(#pfd6d64b02e)" style="fill: none; stroke: #ea0070"/>
    <path d="M 346.048744 58.904075 
L 346.048744 58.31614 
" clip-path="url(#pfd6d64b02e)" style="fill: none; stroke: #70a800"/>
    <path d="M 359.929724 60.605995 
L 359.929724 59.043323 
" clip-path="url(#pfd6d64b02e)" style="fill: none; stroke: #ea0070"/>
    <path d="M 373.810705 59.615787 
L 373.810705 59.043323 
" clip-path="url(#pfd6d64b02e)" style="fill: none; stroke: #70a800"/>
    <path d="M 387.691686 53.179437 
L 387.691686 51.322798 
" clip-path="url(#pfd6d64b02e)" style="fill: none; stroke: #70a800"/>
    <path d="M 401.572666 50.688446 
L 401.572666 49.295966 
" clip-path="url(#pfd6d64b02e)" style="fill: none; stroke: #ea0070"/>
    <path d="M 415.453647 51.663181 
L 415.453647 49.295966 
" clip-path="url(#pfd6d64b02e)" style="fill: none; stroke: #70a800"/>
    <path d="M 429.334628 49.651822 
L 429.334628 48.893694 
" clip-path="url(#pfd6d64b02e)" style="fill: none; stroke: #70a800"/>
    <path d="M 443.215609 50.95147 
L 443.215609 50.131454 
" clip-path="url(#pfd6d64b02e)" style="fill: none; stroke: #ea0070"/>
    <path d="M 457.096589 53.303213 
L 457.096589 50.17787 
" clip-path="url(#pfd6d64b02e)" style="fill: none; stroke: #70a800"/>
    <path d="M 470.97757 50.595614 
L 470.97757 48.32123 
" clip-path="url(#pfd6d64b02e)" style="fill: none; stroke: #70a800"/>
    <path d="M 484.858551 47.609519 
L 484.858551 46.681199 
" clip-path="url(#pfd6d64b02e)" style="fill: none; stroke: #70a800"/>
    <path d="M 165.595995 58.532747 
L 165.595995 59.693147 
" clip-path="url(#pfd6d64b02e)" style="fill: none; stroke: #70a800"/>
    <path d="M 179.476976 54.479085 
L 179.476976 56.134588 
" clip-path="url(#pfd6d64b02e)" style="fill: none; stroke: #70a800"/>
    <path d="M 193.357956 53.690013 
L 193.357956 54.912301 
" clip-path="url(#pfd6d64b02e)" style="fill: none; stroke: #70a800"/>
    <path d="M 207.238937 53.813789 
L 207.238937 54.912301 
" clip-path="url(#pfd6d64b02e)" style="fill: none; stroke: #ea0070"/>
    <path d="M 221.119918 51.400158 
L 221.119918 52.189229 
" clip-path="url(#pfd6d64b02e)" style="fill: none; stroke: #70a800"/>
    <path d="M 235.000898 49.620878 
L 235.000898 51.322798 
" clip-path="url(#pfd6d64b02e)" style="fill: none; stroke: #70a800"/>
    <path d="M 248.881879 50.25523 
L 248.881879 51.322798 
" clip-path="url(#pfd6d64b02e)" style="fill: none; stroke: #ea0070"/>
    <path d="M 262.76286 53.396045 
L 262.76286 54.076813 
" clip-path="url(#pfd6d64b02e)" style="fill: none; stroke: #70a800"/>
    <path d="M 276.64384 52.189229 
L 276.64384 54.076813 
" clip-path="url(#pfd6d64b02e)" style="fill: none; stroke: #ea0070"/>
    <path d="M 290.524821 55.407404 
L 290.524821 56.676108 
" clip-path="url(#pfd6d64b02e)" style="fill: none; stroke: #70a800"/>
    <path d="M 304.405802 54.463613 
L 304.405802 55.84062 
" clip-path="url(#pfd6d64b02e)" style="fill: none; stroke: #70a800"/>
    <path d="M 318.286782 52.931885 
L 318.286782 55.84062 
" clip-path="url(#pfd6d64b02e)" style="fill: none; stroke: #ea0070"/>
    <path d="M 332.167763 56.645164 
L 332.167763 57.2331 
" clip-path="url(#pfd6d64b02e)" style="fill: none; stroke: #ea0070"/>
    <path d="M 346.048744 56.289308 
L 346.048744 56.737996 
" clip-path="url(#pfd6d64b02e)" style="fill: none; stroke: #70a800"/>
    <path d="M 359.929724 56.737996 
L 359.929724 56.737996 
" clip-path="url(#pfd6d64b02e)" style="fill: none; stroke: #ea0070"/>
    <path d="M 373.810705 51.291854 
L 373.810705 51.322798 
" clip-path="url(#pfd6d64b02e)" style="fill: none; stroke: #70a800"/>
    <path d="M 387.691686 47.392911 
L 387.691686 48.47595 
" clip-path="url(#pfd6d64b02e)" style="fill: none; stroke: #70a800"/>
    <path d="M 401.572666 47.702351 
L 401.572666 48.47595 
" clip-path="url(#pfd6d64b02e)" style="fill: none; stroke: #ea0070"/>
    <path d="M 415.453647 48.599726 
L 415.453647 48.893694 
" clip-path="url(#pfd6d64b02e)" style="fill: none; stroke: #70a800"/>
    <path d="M 429.334628 43.74152 
L 429.334628 44.344928 
" clip-path="url(#pfd6d64b02e)" style="fill: none; stroke: #70a800"/>
    <path d="M 443.215609 43.246416 
L 443.215609 44.344928 
" clip-path="url(#pfd6d64b02e)" style="fill: none; stroke: #ea0070"/>
    <path d="M 457.096589 48.32123 
L 457.096589 48.32123 
" clip-path="url(#pfd6d64b02e)" style="fill: none; stroke: #70a800"/>
    <path d="M 470.97757 43.849824 
L 470.97757 46.681199 
" clip-path="url(#pfd6d64b02e)" style="fill: none; stroke: #70a800"/>
    <path d="M 484.858551 43.2 
L 484.858551 44.20568 
" clip-path="url(#pfd6d64b02e)" style="fill: none; stroke: #70a800"/>
   </g>
   <g id="patch_3">
    <path d="M 135 320.4 
L 135 43.2 
" style="fill: none; stroke: #e6e6e6; stroke-width: 1.5; stroke-linejoin: miter; stroke-linecap: square"/>
   </g>
   <g id="patch_4">
    <path d="M 515.454545 320.4 
L 515.454545 43.2 
" style="fill: none; stroke: #e6e6e6; stroke-width: 1.5; stroke-linejoin: miter; stroke-linecap: square"/>
   </g>
   <g id="patch_5">
    <path d="M 135 320.4 
L 515.454545 320.4 
" style="fill: none; stroke: #e6e6e6; stroke-width: 1.5; stroke-linejoin: miter; stroke-linecap: square"/>
   </g>
   <g id="patch_6">
    <path d="M 135 43.2 
L 515.454545 43.2 
" style="fill: none; stroke: #e6e6e6; stroke-width: 1.5; stroke-linejoin: miter; stroke-linecap: square"/>
   </g>
   <g id="text_16">
    <!-- Actual -->
    <g style="fill: #262626" transform="translate(305.216898 37.2) scale(0.144 -0.144)">
     <defs>
      <path id="ArialMT-41" d="M -9 0 
L 1750 4581 
L 2403 4581 
L 4278 0 
L 3588 0 
L 3053 1388 
L 1138 1388 
L 634 0 
L -9 0 
z
M 1313 1881 
L 2866 1881 
L 2388 3150 
Q 2169 3728 2063 4100 
Q 1975 3659 1816 3225 
L 1313 1881 
z
" transform="scale(0.015625)"/>
      <path id="ArialMT-63" d="M 2588 1216 
L 3141 1144 
Q 3050 572 2676 248 
Q 2303 -75 1759 -75 
Q 1078 -75 664 370 
Q 250 816 250 1647 
Q 250 2184 428 2587 
Q 606 2991 970 3192 
Q 1334 3394 1763 3394 
Q 2303 3394 2647 3120 
Q 2991 2847 3088 2344 
L 2541 2259 
Q 2463 2594 2264 2762 
Q 2066 2931 1784 2931 
Q 1359 2931 1093 2626 
Q 828 2322 828 1663 
Q 828 994 1084 691 
Q 1341 388 1753 388 
Q 2084 388 2306 591 
Q 2528 794 2588 1216 
z
" transform="scale(0.015625)"/>
      <path id="ArialMT-74" d="M 1650 503 
L 1731 6 
Q 1494 -44 1306 -44 
Q 1000 -44 831 53 
Q 663 150 594 308 
Q 525 466 525 972 
L 525 2881 
L 113 2881 
L 113 3319 
L 525 3319 
L 525 4141 
L 1084 4478 
L 1084 3319 
L 1650 3319 
L 1650 2881 
L 1084 2881 
L 1084 941 
Q 1084 700 1114 631 
Q 1144 563 1211 522 
Q 1278 481 1403 481 
Q 1497 481 1650 503 
z
" transform="scale(0.015625)"/>
      <path id="ArialMT-75" d="M 2597 0 
L 2597 488 
Q 2209 -75 1544 -75 
Q 1250 -75 995 37 
Q 741 150 617 320 
Q 494 491 444 738 
Q 409 903 409 1263 
L 409 3319 
L 972 3319 
L 972 1478 
Q 972 1038 1006 884 
Q 1059 663 1231 536 
Q 1403 409 1656 409 
Q 1909 409 2131 539 
Q 2353 669 2445 892 
Q 2538 1116 2538 1541 
L 2538 3319 
L 3100 3319 
L 3100 0 
L 2597 0 
z
" transform="scale(0.015625)"/>
      <path id="ArialMT-61" d="M 2588 409 
Q 2275 144 1986 34 
Q 1697 -75 1366 -75 
Q 819 -75 525 192 
Q 231 459 231 875 
Q 231 1119 342 1320 
Q 453 1522 633 1644 
Q 813 1766 1038 1828 
Q 1203 1872 1538 1913 
Q 2219 1994 2541 2106 
Q 2544 2222 2544 2253 
Q 2544 2597 2384 2738 
Q 2169 2928 1744 2928 
Q 1347 2928 1158 2789 
Q 969 2650 878 2297 
L 328 2372 
Q 403 2725 575 2942 
Q 747 3159 1072 3276 
Q 1397 3394 1825 3394 
Q 2250 3394 2515 3294 
Q 2781 3194 2906 3042 
Q 3031 2891 3081 2659 
Q 3109 2516 3109 2141 
L 3109 1391 
Q 3109 606 3145 398 
Q 3181 191 3288 0 
L 2700 0 
Q 2613 175 2588 409 
z
M 2541 1666 
Q 2234 1541 1622 1453 
Q 1275 1403 1131 1340 
Q 988 1278 909 1158 
Q 831 1038 831 891 
Q 831 666 1001 516 
Q 1172 366 1500 366 
Q 1825 366 2078 508 
Q 2331 650 2450 897 
Q 2541 1088 2541 1459 
L 2541 1666 
z
" transform="scale(0.015625)"/>
      <path id="ArialMT-6c" d="M 409 0 
L 409 4581 
L 972 4581 
L 972 0 
L 409 0 
z
" transform="scale(0.015625)"/>
     </defs>
     <use xlink:href="#ArialMT-41"/>
     <use xlink:href="#ArialMT-63" x="66.699219"/>
     <use xlink:href="#ArialMT-74" x="116.699219"/>
     <use xlink:href="#ArialMT-75" x="144.482422"/>
     <use xlink:href="#ArialMT-61" x="200.097656"/>
     <use xlink:href="#ArialMT-6c" x="255.712891"/>
    </g>
   </g>
  </g>
  <g id="axes_2">
   <g id="patch_7">
    <path d="M 591.545455 320.4 
L 972 320.4 
L 972 43.2 
L 591.545455 43.2 
z
" style="fill: #ffffff"/>
   </g>
   <g id="matplotlib.axis_3">
    <g id="xtick_7">
     <g id="line2d_31">
      <path d="M 622.141449 320.4 
L 622.141449 43.2 
" clip-path="url(#pe9a34ca84a)" style="fill: none; stroke-dasharray: 2.96,1.28; stroke-dashoffset: 0; stroke: #d0d0d0; stroke-width: 0.8"/>
     </g>
     <g id="line2d_32"/>
     <g id="text_17">
      <!-- 00:00 -->
      <g style="fill: #262626" transform="translate(613.719145 351.20537) rotate(-45) scale(0.12 -0.12)">
       <use xlink:href="#ArialMT-30"/>
       <use xlink:href="#ArialMT-30" x="55.615234"/>
       <use xlink:href="#ArialMT-3a" x="111.230469"/>
       <use xlink:href="#ArialMT-30" x="139.013672"/>
       <use xlink:href="#ArialMT-30" x="194.628906"/>
      </g>
     </g>
    </g>
    <g id="xtick_8">
     <g id="line2d_33">
      <path d="M 691.546353 320.4 
L 691.546353 43.2 
" clip-path="url(#pe9a34ca84a)" style="fill: none; stroke-dasharray: 2.96,1.28; stroke-dashoffset: 0; stroke: #d0d0d0; stroke-width: 0.8"/>
     </g>
     <g id="line2d_34"/>
     <g id="text_18">
      <!-- 05:00 -->
      <g style="fill: #262626" transform="translate(683.124048 351.20537) rotate(-45) scale(0.12 -0.12)">
       <use xlink:href="#ArialMT-30"/>
       <use xlink:href="#ArialMT-35" x="55.615234"/>
       <use xlink:href="#ArialMT-3a" x="111.230469"/>
       <use xlink:href="#ArialMT-30" x="139.013672"/>
       <use xlink:href="#ArialMT-30" x="194.628906"/>
      </g>
     </g>
    </g>
    <g id="xtick_9">
     <g id="line2d_35">
      <path d="M 760.951256 320.4 
L 760.951256 43.2 
" clip-path="url(#pe9a34ca84a)" style="fill: none; stroke-dasharray: 2.96,1.28; stroke-dashoffset: 0; stroke: #d0d0d0; stroke-width: 0.8"/>
     </g>
     <g id="line2d_36"/>
     <g id="text_19">
      <!-- 10:00 -->
      <g style="fill: #262626" transform="translate(752.528952 351.20537) rotate(-45) scale(0.12 -0.12)">
       <use xlink:href="#ArialMT-31"/>
       <use xlink:href="#ArialMT-30" x="55.615234"/>
       <use xlink:href="#ArialMT-3a" x="111.230469"/>
       <use xlink:href="#ArialMT-30" x="139.013672"/>
       <use xlink:href="#ArialMT-30" x="194.628906"/>
      </g>
     </g>
    </g>
    <g id="xtick_10">
     <g id="line2d_37">
      <path d="M 830.35616 320.4 
L 830.35616 43.2 
" clip-path="url(#pe9a34ca84a)" style="fill: none; stroke-dasharray: 2.96,1.28; stroke-dashoffset: 0; stroke: #d0d0d0; stroke-width: 0.8"/>
     </g>
     <g id="line2d_38"/>
     <g id="text_20">
      <!-- 15:00 -->
      <g style="fill: #262626" transform="translate(821.933855 351.20537) rotate(-45) scale(0.12 -0.12)">
       <use xlink:href="#ArialMT-31"/>
       <use xlink:href="#ArialMT-35" x="55.615234"/>
       <use xlink:href="#ArialMT-3a" x="111.230469"/>
       <use xlink:href="#ArialMT-30" x="139.013672"/>
       <use xlink:href="#ArialMT-30" x="194.628906"/>
      </g>
     </g>
    </g>
    <g id="xtick_11">
     <g id="line2d_39">
      <path d="M 899.761063 320.4 
L 899.761063 43.2 
" clip-path="url(#pe9a34ca84a)" style="fill: none; stroke-dasharray: 2.96,1.28; stroke-dashoffset: 0; stroke: #d0d0d0; stroke-width: 0.8"/>
     </g>
     <g id="line2d_40"/>
     <g id="text_21">
      <!-- 20:00 -->
      <g style="fill: #262626" transform="translate(891.338758 351.20537) rotate(-45) scale(0.12 -0.12)">
       <use xlink:href="#ArialMT-32"/>
       <use xlink:href="#ArialMT-30" x="55.615234"/>
       <use xlink:href="#ArialMT-3a" x="111.230469"/>
       <use xlink:href="#ArialMT-30" x="139.013672"/>
       <use xlink:href="#ArialMT-30" x="194.628906"/>
      </g>
     </g>
    </g>
    <g id="xtick_12">
     <g id="line2d_41">
      <path d="M 969.165966 320.4 
L 969.165966 43.2 
" clip-path="url(#pe9a34ca84a)" style="fill: none; stroke-dasharray: 2.96,1.28; stroke-dashoffset: 0; stroke: #d0d0d0; stroke-width: 0.8"/>
     </g>
     <g id="line2d_42"/>
    </g>
   </g>
   <g id="matplotlib.axis_4">
    <g id="ytick_10">
     <g id="line2d_43">
      <path d="M 591.545455 300.839668 
L 972 300.839668 
" clip-path="url(#pe9a34ca84a)" style="fill: none; stroke-dasharray: 2.96,1.28; stroke-dashoffset: 0; stroke: #d0d0d0; stroke-width: 0.8"/>
     </g>
     <g id="line2d_44"/>
     <g id="text_22">
      <!-- 0 -->
      <g style="fill: #262626" transform="translate(581.37233 305.134355) scale(0.12 -0.12)">
       <use xlink:href="#ArialMT-30"/>
      </g>
     </g>
    </g>
    <g id="ytick_11">
     <g id="line2d_45">
      <path d="M 591.545455 269.895677 
L 972 269.895677 
" clip-path="url(#pe9a34ca84a)" style="fill: none; stroke-dasharray: 2.96,1.28; stroke-dashoffset: 0; stroke: #d0d0d0; stroke-width: 0.8"/>
     </g>
     <g id="line2d_46"/>
     <g id="text_23">
      <!-- 1 -->
      <g style="fill: #262626" transform="translate(581.37233 274.190364) scale(0.12 -0.12)">
       <use xlink:href="#ArialMT-31"/>
      </g>
     </g>
    </g>
    <g id="ytick_12">
     <g id="line2d_47">
      <path d="M 591.545455 238.951686 
L 972 238.951686 
" clip-path="url(#pe9a34ca84a)" style="fill: none; stroke-dasharray: 2.96,1.28; stroke-dashoffset: 0; stroke: #d0d0d0; stroke-width: 0.8"/>
     </g>
     <g id="line2d_48"/>
     <g id="text_24">
      <!-- 2 -->
      <g style="fill: #262626" transform="translate(581.37233 243.246373) scale(0.12 -0.12)">
       <use xlink:href="#ArialMT-32"/>
      </g>
     </g>
    </g>
    <g id="ytick_13">
     <g id="line2d_49">
      <path d="M 591.545455 208.007695 
L 972 208.007695 
" clip-path="url(#pe9a34ca84a)" style="fill: none; stroke-dasharray: 2.96,1.28; stroke-dashoffset: 0; stroke: #d0d0d0; stroke-width: 0.8"/>
     </g>
     <g id="line2d_50"/>
     <g id="text_25">
      <!-- 3 -->
      <g style="fill: #262626" transform="translate(581.37233 212.302383) scale(0.12 -0.12)">
       <use xlink:href="#ArialMT-33"/>
      </g>
     </g>
    </g>
    <g id="ytick_14">
     <g id="line2d_51">
      <path d="M 591.545455 177.063704 
L 972 177.063704 
" clip-path="url(#pe9a34ca84a)" style="fill: none; stroke-dasharray: 2.96,1.28; stroke-dashoffset: 0; stroke: #d0d0d0; stroke-width: 0.8"/>
     </g>
     <g id="line2d_52"/>
     <g id="text_26">
      <!-- 4 -->
      <g style="fill: #262626" transform="translate(581.37233 181.358392) scale(0.12 -0.12)">
       <use xlink:href="#ArialMT-34"/>
      </g>
     </g>
    </g>
    <g id="ytick_15">
     <g id="line2d_53">
      <path d="M 591.545455 146.119713 
L 972 146.119713 
" clip-path="url(#pe9a34ca84a)" style="fill: none; stroke-dasharray: 2.96,1.28; stroke-dashoffset: 0; stroke: #d0d0d0; stroke-width: 0.8"/>
     </g>
     <g id="line2d_54"/>
     <g id="text_27">
      <!-- 5 -->
      <g style="fill: #262626" transform="translate(581.37233 150.414401) scale(0.12 -0.12)">
       <use xlink:href="#ArialMT-35"/>
      </g>
     </g>
    </g>
    <g id="ytick_16">
     <g id="line2d_55">
      <path d="M 591.545455 115.175723 
L 972 115.175723 
" clip-path="url(#pe9a34ca84a)" style="fill: none; stroke-dasharray: 2.96,1.28; stroke-dashoffset: 0; stroke: #d0d0d0; stroke-width: 0.8"/>
     </g>
     <g id="line2d_56"/>
     <g id="text_28">
      <!-- 6 -->
      <g style="fill: #262626" transform="translate(581.37233 119.47041) scale(0.12 -0.12)">
       <use xlink:href="#ArialMT-36"/>
      </g>
     </g>
    </g>
    <g id="ytick_17">
     <g id="line2d_57">
      <path d="M 591.545455 84.231732 
L 972 84.231732 
" clip-path="url(#pe9a34ca84a)" style="fill: none; stroke-dasharray: 2.96,1.28; stroke-dashoffset: 0; stroke: #d0d0d0; stroke-width: 0.8"/>
     </g>
     <g id="line2d_58"/>
     <g id="text_29">
      <!-- 7 -->
      <g style="fill: #262626" transform="translate(581.37233 88.526419) scale(0.12 -0.12)">
       <use xlink:href="#ArialMT-37"/>
      </g>
     </g>
    </g>
    <g id="ytick_18">
     <g id="line2d_59">
      <path d="M 591.545455 53.287741 
L 972 53.287741 
" clip-path="url(#pe9a34ca84a)" style="fill: none; stroke-dasharray: 2.96,1.28; stroke-dashoffset: 0; stroke: #d0d0d0; stroke-width: 0.8"/>
     </g>
     <g id="line2d_60"/>
     <g id="text_30">
      <!-- 8 -->
      <g style="fill: #262626" transform="translate(581.37233 57.582429) scale(0.12 -0.12)">
       <use xlink:href="#ArialMT-38"/>
      </g>
     </g>
    </g>
    <g id="text_31">
     <!-- Price -->
     <g style="fill: #262626" transform="translate(575.004205 196.4775) rotate(-90) scale(0.12 -0.12)">
      <use xlink:href="#Arial-BoldMT-50"/>
      <use xlink:href="#Arial-BoldMT-72" x="66.699219"/>
      <use xlink:href="#Arial-BoldMT-69" x="105.615234"/>
      <use xlink:href="#Arial-BoldMT-63" x="133.398438"/>
      <use xlink:href="#Arial-BoldMT-65" x="189.013672"/>
     </g>
    </g>
   </g>
   <g id="PolyCollection_2">
    <path d="M 617.630131 320.399978 
L 617.630131 320.39995 
L 626.652768 320.39995 
L 626.652768 320.399978 
z
" clip-path="url(#pe9a34ca84a)" style="fill: #70a800; fill-opacity: 0.9; stroke: #70a800"/>
    <path d="M 631.511111 320.399958 
L 631.511111 319.46043 
L 640.533749 319.46043 
L 640.533749 320.399958 
z
" clip-path="url(#pe9a34ca84a)" style="fill: #70a800; fill-opacity: 0.9; stroke: #70a800"/>
    <path d="M 645.392092 319.86902 
L 645.392092 312.384595 
L 654.41473 312.384595 
L 654.41473 319.86902 
z
" clip-path="url(#pe9a34ca84a)" style="fill: #70a800; fill-opacity: 0.9; stroke: #70a800"/>
    <path d="M 659.273073 312.854556 
L 659.273073 315.904932 
L 668.29571 315.904932 
L 668.29571 312.854556 
z
" clip-path="url(#pe9a34ca84a)" style="fill: #ea0070; fill-opacity: 0.9; stroke: #ea0070"/>
    <path d="M 673.154053 316.203836 
L 673.154053 291.144861 
L 682.176691 291.144861 
L 682.176691 316.203836 
z
" clip-path="url(#pe9a34ca84a)" style="fill: #70a800; fill-opacity: 0.9; stroke: #70a800"/>
    <path d="M 687.035034 291.696483 
L 687.035034 284.693512 
L 696.057672 284.693512 
L 696.057672 291.696483 
z
" clip-path="url(#pe9a34ca84a)" style="fill: #70a800; fill-opacity: 0.9; stroke: #70a800"/>
    <path d="M 700.916015 285.382046 
L 700.916015 316.267383 
L 709.938652 316.267383 
L 709.938652 285.382046 
z
" clip-path="url(#pe9a34ca84a)" style="fill: #ea0070; fill-opacity: 0.9; stroke: #ea0070"/>
    <path d="M 714.796995 317.167996 
L 714.796995 306.067199 
L 723.819633 306.067199 
L 723.819633 317.167996 
z
" clip-path="url(#pe9a34ca84a)" style="fill: #70a800; fill-opacity: 0.9; stroke: #70a800"/>
    <path d="M 728.677976 305.521937 
L 728.677976 320.10183 
L 737.700614 320.10183 
L 737.700614 305.521937 
z
" clip-path="url(#pe9a34ca84a)" style="fill: #ea0070; fill-opacity: 0.9; stroke: #ea0070"/>
    <path d="M 742.558957 320.141669 
L 742.558957 320.130835 
L 751.581594 320.130835 
L 751.581594 320.141669 
z
" clip-path="url(#pe9a34ca84a)" style="fill: #70a800; fill-opacity: 0.9; stroke: #70a800"/>
    <path d="M 756.439938 320.16508 
L 756.439938 318.323067 
L 765.462575 318.323067 
L 765.462575 320.16508 
z
" clip-path="url(#pe9a34ca84a)" style="fill: #70a800; fill-opacity: 0.9; stroke: #70a800"/>
    <path d="M 770.320918 318.318799 
L 770.320918 320.33471 
L 779.343556 320.33471 
L 779.343556 318.318799 
z
" clip-path="url(#pe9a34ca84a)" style="fill: #ea0070; fill-opacity: 0.9; stroke: #ea0070"/>
    <path d="M 784.201899 320.353508 
L 784.201899 320.396036 
L 793.224536 320.396036 
L 793.224536 320.353508 
z
" clip-path="url(#pe9a34ca84a)" style="fill: #ea0070; fill-opacity: 0.9; stroke: #ea0070"/>
    <path d="M 798.08288 320.396673 
L 798.08288 320.158897 
L 807.105517 320.158897 
L 807.105517 320.396673 
z
" clip-path="url(#pe9a34ca84a)" style="fill: #70a800; fill-opacity: 0.9; stroke: #70a800"/>
    <path d="M 811.96386 320.190138 
L 811.96386 320.39965 
L 820.986498 320.39965 
L 820.986498 320.190138 
z
" clip-path="url(#pe9a34ca84a)" style="fill: #ea0070; fill-opacity: 0.9; stroke: #ea0070"/>
    <path d="M 825.844841 320.399579 
L 825.844841 285.720616 
L 834.867478 285.720616 
L 834.867478 320.399579 
z
" clip-path="url(#pe9a34ca84a)" style="fill: #70a800; fill-opacity: 0.9; stroke: #70a800"/>
    <path d="M 839.725822 285.088429 
L 839.725822 264.765072 
L 848.748459 264.765072 
L 848.748459 285.088429 
z
" clip-path="url(#pe9a34ca84a)" style="fill: #70a800; fill-opacity: 0.9; stroke: #70a800"/>
    <path d="M 853.606802 263.849844 
L 853.606802 270.513398 
L 862.62944 270.513398 
L 862.62944 263.849844 
z
" clip-path="url(#pe9a34ca84a)" style="fill: #ea0070; fill-opacity: 0.9; stroke: #ea0070"/>
    <path d="M 867.487783 270.573852 
L 867.487783 267.597119 
L 876.51042 267.597119 
L 876.51042 270.573852 
z
" clip-path="url(#pe9a34ca84a)" style="fill: #70a800; fill-opacity: 0.9; stroke: #70a800"/>
    <path d="M 881.368764 267.59214 
L 881.368764 234.753797 
L 890.391401 234.753797 
L 890.391401 267.59214 
z
" clip-path="url(#pe9a34ca84a)" style="fill: #70a800; fill-opacity: 0.9; stroke: #70a800"/>
    <path d="M 895.249744 231.388243 
L 895.249744 277.075022 
L 904.272382 277.075022 
L 904.272382 231.388243 
z
" clip-path="url(#pe9a34ca84a)" style="fill: #ea0070; fill-opacity: 0.9; stroke: #ea0070"/>
    <path d="M 909.130725 277.402854 
L 909.130725 264.217881 
L 918.153362 264.217881 
L 918.153362 277.402854 
z
" clip-path="url(#pe9a34ca84a)" style="fill: #70a800; fill-opacity: 0.9; stroke: #70a800"/>
    <path d="M 923.011706 264.114653 
L 923.011706 251.906614 
L 932.034343 251.906614 
L 932.034343 264.114653 
z
" clip-path="url(#pe9a34ca84a)" style="fill: #70a800; fill-opacity: 0.9; stroke: #70a800"/>
    <path d="M 936.892686 251.426489 
L 936.892686 234.562672 
L 945.915324 234.562672 
L 945.915324 251.426489 
z
" clip-path="url(#pe9a34ca84a)" style="fill: #70a800; fill-opacity: 0.9; stroke: #70a800"/>
   </g>
   <g id="LineCollection_2">
    <path d="M 622.141449 320.4 
L 622.141449 320.399978 
" clip-path="url(#pe9a34ca84a)" style="fill: none; stroke: #70a800"/>
    <path d="M 636.02243 320.399993 
L 636.02243 320.399958 
" clip-path="url(#pe9a34ca84a)" style="fill: none; stroke: #70a800"/>
    <path d="M 649.903411 320.377471 
L 649.903411 319.86902 
" clip-path="url(#pe9a34ca84a)" style="fill: none; stroke: #70a800"/>
    <path d="M 663.784391 319.454821 
L 663.784391 315.904932 
" clip-path="url(#pe9a34ca84a)" style="fill: none; stroke: #ea0070"/>
    <path d="M 677.665372 316.879371 
L 677.665372 316.203836 
" clip-path="url(#pe9a34ca84a)" style="fill: none; stroke: #70a800"/>
    <path d="M 691.546353 294.754672 
L 691.546353 291.696483 
" clip-path="url(#pe9a34ca84a)" style="fill: none; stroke: #70a800"/>
    <path d="M 705.427334 320.086824 
L 705.427334 316.267383 
" clip-path="url(#pe9a34ca84a)" style="fill: none; stroke: #ea0070"/>
    <path d="M 719.308314 319.728231 
L 719.308314 317.167996 
" clip-path="url(#pe9a34ca84a)" style="fill: none; stroke: #70a800"/>
    <path d="M 733.189295 320.376473 
L 733.189295 320.10183 
" clip-path="url(#pe9a34ca84a)" style="fill: none; stroke: #ea0070"/>
    <path d="M 747.070276 320.333236 
L 747.070276 320.141669 
" clip-path="url(#pe9a34ca84a)" style="fill: none; stroke: #70a800"/>
    <path d="M 760.951256 320.347918 
L 760.951256 320.16508 
" clip-path="url(#pe9a34ca84a)" style="fill: none; stroke: #70a800"/>
    <path d="M 774.832237 320.393478 
L 774.832237 320.33471 
" clip-path="url(#pe9a34ca84a)" style="fill: none; stroke: #ea0070"/>
    <path d="M 788.713218 320.399792 
L 788.713218 320.396036 
" clip-path="url(#pe9a34ca84a)" style="fill: none; stroke: #ea0070"/>
    <path d="M 802.594198 320.399413 
L 802.594198 320.396673 
" clip-path="url(#pe9a34ca84a)" style="fill: none; stroke: #70a800"/>
    <path d="M 816.475179 320.399996 
L 816.475179 320.39965 
" clip-path="url(#pe9a34ca84a)" style="fill: none; stroke: #ea0070"/>
    <path d="M 830.35616 320.399937 
L 830.35616 320.399579 
" clip-path="url(#pe9a34ca84a)" style="fill: none; stroke: #70a800"/>
    <path d="M 844.23714 297.59186 
L 844.23714 285.088429 
" clip-path="url(#pe9a34ca84a)" style="fill: none; stroke: #70a800"/>
    <path d="M 858.118121 280.492255 
L 858.118121 270.513398 
" clip-path="url(#pe9a34ca84a)" style="fill: none; stroke: #ea0070"/>
    <path d="M 871.999102 287.978628 
L 871.999102 270.573852 
" clip-path="url(#pe9a34ca84a)" style="fill: none; stroke: #70a800"/>
    <path d="M 885.880082 272.968086 
L 885.880082 267.59214 
" clip-path="url(#pe9a34ca84a)" style="fill: none; stroke: #70a800"/>
    <path d="M 899.761063 282.37161 
L 899.761063 277.075022 
" clip-path="url(#pe9a34ca84a)" style="fill: none; stroke: #ea0070"/>
    <path d="M 913.642044 298.499169 
L 913.642044 277.402854 
" clip-path="url(#pe9a34ca84a)" style="fill: none; stroke: #70a800"/>
    <path d="M 927.523024 279.510982 
L 927.523024 264.114653 
" clip-path="url(#pe9a34ca84a)" style="fill: none; stroke: #70a800"/>
    <path d="M 941.404005 258.146536 
L 941.404005 251.426489 
" clip-path="url(#pe9a34ca84a)" style="fill: none; stroke: #70a800"/>
    <path d="M 622.141449 302.567843 
L 622.141449 320.39995 
" clip-path="url(#pe9a34ca84a)" style="fill: none; stroke: #70a800"/>
    <path d="M 636.02243 308.678872 
L 636.02243 319.46043 
" clip-path="url(#pe9a34ca84a)" style="fill: none; stroke: #70a800"/>
    <path d="M 649.903411 302.677701 
L 649.903411 312.384595 
" clip-path="url(#pe9a34ca84a)" style="fill: none; stroke: #70a800"/>
    <path d="M 663.784391 303.166628 
L 663.784391 312.854556 
" clip-path="url(#pe9a34ca84a)" style="fill: none; stroke: #ea0070"/>
    <path d="M 677.665372 286.921995 
L 677.665372 291.144861 
" clip-path="url(#pe9a34ca84a)" style="fill: none; stroke: #70a800"/>
    <path d="M 691.546353 273.299319 
L 691.546353 284.693512 
" clip-path="url(#pe9a34ca84a)" style="fill: none; stroke: #70a800"/>
    <path d="M 705.427334 278.150817 
L 705.427334 285.382046 
" clip-path="url(#pe9a34ca84a)" style="fill: none; stroke: #ea0070"/>
    <path d="M 719.308314 300.393318 
L 719.308314 306.067199 
" clip-path="url(#pe9a34ca84a)" style="fill: none; stroke: #70a800"/>
    <path d="M 733.189295 292.236765 
L 733.189295 305.521937 
" clip-path="url(#pe9a34ca84a)" style="fill: none; stroke: #ea0070"/>
    <path d="M 747.070276 315.404471 
L 747.070276 320.130835 
" clip-path="url(#pe9a34ca84a)" style="fill: none; stroke: #70a800"/>
    <path d="M 760.951256 308.788052 
L 760.951256 318.323067 
" clip-path="url(#pe9a34ca84a)" style="fill: none; stroke: #70a800"/>
    <path d="M 774.832237 297.985056 
L 774.832237 318.318799 
" clip-path="url(#pe9a34ca84a)" style="fill: none; stroke: #ea0070"/>
    <path d="M 788.713218 320.144192 
L 788.713218 320.353508 
" clip-path="url(#pe9a34ca84a)" style="fill: none; stroke: #ea0070"/>
    <path d="M 802.594198 319.75723 
L 802.594198 320.158897 
" clip-path="url(#pe9a34ca84a)" style="fill: none; stroke: #70a800"/>
    <path d="M 816.475179 320.230363 
L 816.475179 320.190138 
" clip-path="url(#pe9a34ca84a)" style="fill: none; stroke: #ea0070"/>
    <path d="M 830.35616 285.858598 
L 830.35616 285.720616 
" clip-path="url(#pe9a34ca84a)" style="fill: none; stroke: #70a800"/>
    <path d="M 844.23714 256.903562 
L 844.23714 264.765072 
" clip-path="url(#pe9a34ca84a)" style="fill: none; stroke: #70a800"/>
    <path d="M 858.118121 259.612116 
L 858.118121 263.849844 
" clip-path="url(#pe9a34ca84a)" style="fill: none; stroke: #ea0070"/>
    <path d="M 871.999102 266.208348 
L 871.999102 267.597119 
" clip-path="url(#pe9a34ca84a)" style="fill: none; stroke: #70a800"/>
    <path d="M 885.880082 231.89997 
L 885.880082 234.753797 
" clip-path="url(#pe9a34ca84a)" style="fill: none; stroke: #70a800"/>
    <path d="M 899.761063 227.545166 
L 899.761063 231.388243 
" clip-path="url(#pe9a34ca84a)" style="fill: none; stroke: #ea0070"/>
    <path d="M 913.642044 264.006641 
L 913.642044 264.217881 
" clip-path="url(#pe9a34ca84a)" style="fill: none; stroke: #70a800"/>
    <path d="M 927.523024 232.080353 
L 927.523024 251.906614 
" clip-path="url(#pe9a34ca84a)" style="fill: none; stroke: #70a800"/>
    <path d="M 941.404005 225.880642 
L 941.404005 234.562672 
" clip-path="url(#pe9a34ca84a)" style="fill: none; stroke: #70a800"/>
   </g>
   <g id="patch_8">
    <path d="M 591.545455 320.4 
L 591.545455 43.2 
" style="fill: none; stroke: #e6e6e6; stroke-width: 1.5; stroke-linejoin: miter; stroke-linecap: square"/>
   </g>
   <g id="patch_9">
    <path d="M 972 320.4 
L 972 43.2 
" style="fill: none; stroke: #e6e6e6; stroke-width: 1.5; stroke-linejoin: miter; stroke-linecap: square"/>
   </g>
   <g id="patch_10">
    <path d="M 591.545455 320.4 
L 972 320.4 
" style="fill: none; stroke: #e6e6e6; stroke-width: 1.5; stroke-linejoin: miter; stroke-linecap: square"/>
   </g>
   <g id="patch_11">
    <path d="M 591.545455 43.2 
L 972 43.2 
" style="fill: none; stroke: #e6e6e6; stroke-width: 1.5; stroke-linejoin: miter; stroke-linecap: square"/>
   </g>
   <g id="text_32">
    <!-- Predicted -->
    <g style="fill: #262626" transform="translate(751.357227 37.2) scale(0.144 -0.144)">
     <defs>
      <path id="ArialMT-50" d="M 494 0 
L 494 4581 
L 2222 4581 
Q 2678 4581 2919 4538 
Q 3256 4481 3484 4323 
Q 3713 4166 3852 3881 
Q 3991 3597 3991 3256 
Q 3991 2672 3619 2267 
Q 3247 1863 2275 1863 
L 1100 1863 
L 1100 0 
L 494 0 
z
M 1100 2403 
L 2284 2403 
Q 2872 2403 3119 2622 
Q 3366 2841 3366 3238 
Q 3366 3525 3220 3729 
Q 3075 3934 2838 4000 
Q 2684 4041 2272 4041 
L 1100 4041 
L 1100 2403 
z
" transform="scale(0.015625)"/>
      <path id="ArialMT-72" d="M 416 0 
L 416 3319 
L 922 3319 
L 922 2816 
Q 1116 3169 1280 3281 
Q 1444 3394 1641 3394 
Q 1925 3394 2219 3213 
L 2025 2691 
Q 1819 2813 1613 2813 
Q 1428 2813 1281 2702 
Q 1134 2591 1072 2394 
Q 978 2094 978 1738 
L 978 0 
L 416 0 
z
" transform="scale(0.015625)"/>
      <path id="ArialMT-65" d="M 2694 1069 
L 3275 997 
Q 3138 488 2766 206 
Q 2394 -75 1816 -75 
Q 1088 -75 661 373 
Q 234 822 234 1631 
Q 234 2469 665 2931 
Q 1097 3394 1784 3394 
Q 2450 3394 2872 2941 
Q 3294 2488 3294 1666 
Q 3294 1616 3291 1516 
L 816 1516 
Q 847 969 1125 678 
Q 1403 388 1819 388 
Q 2128 388 2347 550 
Q 2566 713 2694 1069 
z
M 847 1978 
L 2700 1978 
Q 2663 2397 2488 2606 
Q 2219 2931 1791 2931 
Q 1403 2931 1139 2672 
Q 875 2413 847 1978 
z
" transform="scale(0.015625)"/>
      <path id="ArialMT-64" d="M 2575 0 
L 2575 419 
Q 2259 -75 1647 -75 
Q 1250 -75 917 144 
Q 584 363 401 755 
Q 219 1147 219 1656 
Q 219 2153 384 2558 
Q 550 2963 881 3178 
Q 1213 3394 1622 3394 
Q 1922 3394 2156 3267 
Q 2391 3141 2538 2938 
L 2538 4581 
L 3097 4581 
L 3097 0 
L 2575 0 
z
M 797 1656 
Q 797 1019 1065 703 
Q 1334 388 1700 388 
Q 2069 388 2326 689 
Q 2584 991 2584 1609 
Q 2584 2291 2321 2609 
Q 2059 2928 1675 2928 
Q 1300 2928 1048 2622 
Q 797 2316 797 1656 
z
" transform="scale(0.015625)"/>
      <path id="ArialMT-69" d="M 425 3934 
L 425 4581 
L 988 4581 
L 988 3934 
L 425 3934 
z
M 425 0 
L 425 3319 
L 988 3319 
L 988 0 
L 425 0 
z
" transform="scale(0.015625)"/>
     </defs>
     <use xlink:href="#ArialMT-50"/>
     <use xlink:href="#ArialMT-72" x="66.699219"/>
     <use xlink:href="#ArialMT-65" x="100"/>
     <use xlink:href="#ArialMT-64" x="155.615234"/>
     <use xlink:href="#ArialMT-69" x="211.230469"/>
     <use xlink:href="#ArialMT-63" x="233.447266"/>
     <use xlink:href="#ArialMT-74" x="283.447266"/>
     <use xlink:href="#ArialMT-65" x="311.230469"/>
     <use xlink:href="#ArialMT-64" x="366.845703"/>
    </g>
   </g>
  </g>
  <g id="text_33">
   <!-- LSTM - NEAR -->
   <g style="fill: #262626" transform="translate(484.326 19.5687) scale(0.1728 -0.1728)">
    <defs>
     <path id="Arial-BoldMT-4c" d="M 491 0 
L 491 4544 
L 1416 4544 
L 1416 772 
L 3716 772 
L 3716 0 
L 491 0 
z
" transform="scale(0.015625)"/>
     <path id="Arial-BoldMT-53" d="M 231 1491 
L 1131 1578 
Q 1213 1125 1461 912 
Q 1709 700 2131 700 
Q 2578 700 2804 889 
Q 3031 1078 3031 1331 
Q 3031 1494 2936 1608 
Q 2841 1722 2603 1806 
Q 2441 1863 1863 2006 
Q 1119 2191 819 2459 
Q 397 2838 397 3381 
Q 397 3731 595 4036 
Q 794 4341 1167 4500 
Q 1541 4659 2069 4659 
Q 2931 4659 3367 4281 
Q 3803 3903 3825 3272 
L 2900 3231 
Q 2841 3584 2645 3739 
Q 2450 3894 2059 3894 
Q 1656 3894 1428 3728 
Q 1281 3622 1281 3444 
Q 1281 3281 1419 3166 
Q 1594 3019 2269 2859 
Q 2944 2700 3267 2529 
Q 3591 2359 3773 2064 
Q 3956 1769 3956 1334 
Q 3956 941 3737 597 
Q 3519 253 3119 86 
Q 2719 -81 2122 -81 
Q 1253 -81 787 320 
Q 322 722 231 1491 
z
" transform="scale(0.015625)"/>
     <path id="Arial-BoldMT-54" d="M 1497 0 
L 1497 3806 
L 138 3806 
L 138 4581 
L 3778 4581 
L 3778 3806 
L 2422 3806 
L 2422 0 
L 1497 0 
z
" transform="scale(0.015625)"/>
     <path id="Arial-BoldMT-4d" d="M 453 0 
L 453 4581 
L 1838 4581 
L 2669 1456 
L 3491 4581 
L 4878 4581 
L 4878 0 
L 4019 0 
L 4019 3606 
L 3109 0 
L 2219 0 
L 1313 3606 
L 1313 0 
L 453 0 
z
" transform="scale(0.015625)"/>
     <path id="Arial-BoldMT-20" transform="scale(0.015625)"/>
     <path id="Arial-BoldMT-2d" d="M 359 1222 
L 359 2100 
L 2084 2100 
L 2084 1222 
L 359 1222 
z
" transform="scale(0.015625)"/>
     <path id="Arial-BoldMT-4e" d="M 475 0 
L 475 4581 
L 1375 4581 
L 3250 1522 
L 3250 4581 
L 4109 4581 
L 4109 0 
L 3181 0 
L 1334 2988 
L 1334 0 
L 475 0 
z
" transform="scale(0.015625)"/>
     <path id="Arial-BoldMT-45" d="M 466 0 
L 466 4581 
L 3863 4581 
L 3863 3806 
L 1391 3806 
L 1391 2791 
L 3691 2791 
L 3691 2019 
L 1391 2019 
L 1391 772 
L 3950 772 
L 3950 0 
L 466 0 
z
" transform="scale(0.015625)"/>
     <path id="Arial-BoldMT-41" d="M 4597 0 
L 3591 0 
L 3191 1041 
L 1359 1041 
L 981 0 
L 0 0 
L 1784 4581 
L 2763 4581 
L 4597 0 
z
M 2894 1813 
L 2263 3513 
L 1644 1813 
L 2894 1813 
z
" transform="scale(0.015625)"/>
     <path id="Arial-BoldMT-52" d="M 469 0 
L 469 4581 
L 2416 4581 
Q 3150 4581 3483 4457 
Q 3816 4334 4016 4018 
Q 4216 3703 4216 3297 
Q 4216 2781 3912 2445 
Q 3609 2109 3006 2022 
Q 3306 1847 3501 1637 
Q 3697 1428 4028 894 
L 4588 0 
L 3481 0 
L 2813 997 
Q 2456 1531 2325 1670 
Q 2194 1809 2047 1861 
Q 1900 1913 1581 1913 
L 1394 1913 
L 1394 0 
L 469 0 
z
M 1394 2644 
L 2078 2644 
Q 2744 2644 2909 2700 
Q 3075 2756 3169 2893 
Q 3263 3031 3263 3238 
Q 3263 3469 3139 3611 
Q 3016 3753 2791 3791 
Q 2678 3806 2116 3806 
L 1394 3806 
L 1394 2644 
z
" transform="scale(0.015625)"/>
    </defs>
    <use xlink:href="#Arial-BoldMT-4c"/>
    <use xlink:href="#Arial-BoldMT-53" x="61.083984"/>
    <use xlink:href="#Arial-BoldMT-54" x="127.783203"/>
    <use xlink:href="#Arial-BoldMT-4d" x="188.867188"/>
    <use xlink:href="#Arial-BoldMT-20" x="272.167969"/>
    <use xlink:href="#Arial-BoldMT-2d" x="299.951172"/>
    <use xlink:href="#Arial-BoldMT-20" x="333.251953"/>
    <use xlink:href="#Arial-BoldMT-4e" x="361.035156"/>
    <use xlink:href="#Arial-BoldMT-45" x="433.251953"/>
    <use xlink:href="#Arial-BoldMT-41" x="499.951172"/>
    <use xlink:href="#Arial-BoldMT-52" x="572.167969"/>
   </g>
  </g>
 </g>
 <defs>
  <clipPath id="pfd6d64b02e">
   <rect x="135" y="43.2" width="380.454545" height="277.2"/>
  </clipPath>
  <clipPath id="pe9a34ca84a">
   <rect x="591.545455" y="43.2" width="380.454545" height="277.2"/>
  </clipPath>
 </defs>
</svg>
