<?xml version="1.0" encoding="utf-8" standalone="no"?>
<!DOCTYPE svg PUBLIC "-//W3C//DTD SVG 1.1//EN"
  "http://www.w3.org/Graphics/SVG/1.1/DTD/svg11.dtd">
<svg xmlns:xlink="http://www.w3.org/1999/xlink" width="1080pt" height="360pt" viewBox="0 0 1080 360" xmlns="http://www.w3.org/2000/svg" version="1.1">
 <metadata>
  <rdf:RDF xmlns:dc="http://purl.org/dc/elements/1.1/" xmlns:cc="http://creativecommons.org/ns#" xmlns:rdf="http://www.w3.org/1999/02/22-rdf-syntax-ns#">
   <cc:Work>
    <dc:type rdf:resource="http://purl.org/dc/dcmitype/StillImage"/>
    <dc:date>2024-06-03T20:42:45.548217</dc:date>
    <dc:format>image/svg+xml</dc:format>
    <dc:creator>
     <cc:Agent>
      <dc:title>Matplotlib v3.9.0, https://matplotlib.org/</dc:title>
     </cc:Agent>
    </dc:creator>
   </cc:Work>
  </rdf:RDF>
 </metadata>
 <defs>
  <style type="text/css">*{stroke-linejoin: round; stroke-linecap: butt}</style>
 </defs>
 <g id="figure_1">
  <g id="patch_1">
   <path d="M 0 360 
L 1080 360 
L 1080 0 
L 0 0 
z
" style="fill: #ffffff"/>
  </g>
  <g id="axes_1">
   <g id="patch_2">
    <path d="M 135 320.4 
L 515.454545 320.4 
L 515.454545 43.2 
L 135 43.2 
z
" style="fill: #ffffff"/>
   </g>
   <g id="matplotlib.axis_1">
    <g id="xtick_1">
     <g id="line2d_1">
      <path d="M 165.595995 320.4 
L 165.595995 43.2 
" clip-path="url(#p650c2b3ca1)" style="fill: none; stroke-dasharray: 2.96,1.28; stroke-dashoffset: 0; stroke: #d0d0d0; stroke-width: 0.8"/>
     </g>
     <g id="line2d_2"/>
     <g id="text_1">
      <!-- 00:00 -->
      <g style="fill: #262626" transform="translate(157.17369 351.20537) rotate(-45) scale(0.12 -0.12)">
       <defs>
        <path id="ArialMT-30" d="M 266 2259 
Q 266 3072 433 3567 
Q 600 4063 929 4331 
Q 1259 4600 1759 4600 
Q 2128 4600 2406 4451 
Q 2684 4303 2865 4023 
Q 3047 3744 3150 3342 
Q 3253 2941 3253 2259 
Q 3253 1453 3087 958 
Q 2922 463 2592 192 
Q 2263 -78 1759 -78 
Q 1097 -78 719 397 
Q 266 969 266 2259 
z
M 844 2259 
Q 844 1131 1108 757 
Q 1372 384 1759 384 
Q 2147 384 2411 759 
Q 2675 1134 2675 2259 
Q 2675 3391 2411 3762 
Q 2147 4134 1753 4134 
Q 1366 4134 1134 3806 
Q 844 3388 844 2259 
z
" transform="scale(0.015625)"/>
        <path id="ArialMT-3a" d="M 578 2678 
L 578 3319 
L 1219 3319 
L 1219 2678 
L 578 2678 
z
M 578 0 
L 578 641 
L 1219 641 
L 1219 0 
L 578 0 
z
" transform="scale(0.015625)"/>
       </defs>
       <use xlink:href="#ArialMT-30"/>
       <use xlink:href="#ArialMT-30" x="55.615234"/>
       <use xlink:href="#ArialMT-3a" x="111.230469"/>
       <use xlink:href="#ArialMT-30" x="139.013672"/>
       <use xlink:href="#ArialMT-30" x="194.628906"/>
      </g>
     </g>
    </g>
    <g id="xtick_2">
     <g id="line2d_3">
      <path d="M 235.000898 320.4 
L 235.000898 43.2 
" clip-path="url(#p650c2b3ca1)" style="fill: none; stroke-dasharray: 2.96,1.28; stroke-dashoffset: 0; stroke: #d0d0d0; stroke-width: 0.8"/>
     </g>
     <g id="line2d_4"/>
     <g id="text_2">
      <!-- 05:00 -->
      <g style="fill: #262626" transform="translate(226.578594 351.20537) rotate(-45) scale(0.12 -0.12)">
       <defs>
        <path id="ArialMT-35" d="M 266 1200 
L 856 1250 
Q 922 819 1161 601 
Q 1400 384 1738 384 
Q 2144 384 2425 690 
Q 2706 997 2706 1503 
Q 2706 1984 2436 2262 
Q 2166 2541 1728 2541 
Q 1456 2541 1237 2417 
Q 1019 2294 894 2097 
L 366 2166 
L 809 4519 
L 3088 4519 
L 3088 3981 
L 1259 3981 
L 1013 2750 
Q 1425 3038 1878 3038 
Q 2478 3038 2890 2622 
Q 3303 2206 3303 1553 
Q 3303 931 2941 478 
Q 2500 -78 1738 -78 
Q 1113 -78 717 272 
Q 322 622 266 1200 
z
" transform="scale(0.015625)"/>
       </defs>
       <use xlink:href="#ArialMT-30"/>
       <use xlink:href="#ArialMT-35" x="55.615234"/>
       <use xlink:href="#ArialMT-3a" x="111.230469"/>
       <use xlink:href="#ArialMT-30" x="139.013672"/>
       <use xlink:href="#ArialMT-30" x="194.628906"/>
      </g>
     </g>
    </g>
    <g id="xtick_3">
     <g id="line2d_5">
      <path d="M 304.405802 320.4 
L 304.405802 43.2 
" clip-path="url(#p650c2b3ca1)" style="fill: none; stroke-dasharray: 2.96,1.28; stroke-dashoffset: 0; stroke: #d0d0d0; stroke-width: 0.8"/>
     </g>
     <g id="line2d_6"/>
     <g id="text_3">
      <!-- 10:00 -->
      <g style="fill: #262626" transform="translate(295.983497 351.20537) rotate(-45) scale(0.12 -0.12)">
       <defs>
        <path id="ArialMT-31" d="M 2384 0 
L 1822 0 
L 1822 3584 
Q 1619 3391 1289 3197 
Q 959 3003 697 2906 
L 697 3450 
Q 1169 3672 1522 3987 
Q 1875 4303 2022 4600 
L 2384 4600 
L 2384 0 
z
" transform="scale(0.015625)"/>
       </defs>
       <use xlink:href="#ArialMT-31"/>
       <use xlink:href="#ArialMT-30" x="55.615234"/>
       <use xlink:href="#ArialMT-3a" x="111.230469"/>
       <use xlink:href="#ArialMT-30" x="139.013672"/>
       <use xlink:href="#ArialMT-30" x="194.628906"/>
      </g>
     </g>
    </g>
    <g id="xtick_4">
     <g id="line2d_7">
      <path d="M 373.810705 320.4 
L 373.810705 43.2 
" clip-path="url(#p650c2b3ca1)" style="fill: none; stroke-dasharray: 2.96,1.28; stroke-dashoffset: 0; stroke: #d0d0d0; stroke-width: 0.8"/>
     </g>
     <g id="line2d_8"/>
     <g id="text_4">
      <!-- 15:00 -->
      <g style="fill: #262626" transform="translate(365.3884 351.20537) rotate(-45) scale(0.12 -0.12)">
       <use xlink:href="#ArialMT-31"/>
       <use xlink:href="#ArialMT-35" x="55.615234"/>
       <use xlink:href="#ArialMT-3a" x="111.230469"/>
       <use xlink:href="#ArialMT-30" x="139.013672"/>
       <use xlink:href="#ArialMT-30" x="194.628906"/>
      </g>
     </g>
    </g>
    <g id="xtick_5">
     <g id="line2d_9">
      <path d="M 443.215609 320.4 
L 443.215609 43.2 
" clip-path="url(#p650c2b3ca1)" style="fill: none; stroke-dasharray: 2.96,1.28; stroke-dashoffset: 0; stroke: #d0d0d0; stroke-width: 0.8"/>
     </g>
     <g id="line2d_10"/>
     <g id="text_5">
      <!-- 20:00 -->
      <g style="fill: #262626" transform="translate(434.793304 351.20537) rotate(-45) scale(0.12 -0.12)">
       <defs>
        <path id="ArialMT-32" d="M 3222 541 
L 3222 0 
L 194 0 
Q 188 203 259 391 
Q 375 700 629 1000 
Q 884 1300 1366 1694 
Q 2113 2306 2375 2664 
Q 2638 3022 2638 3341 
Q 2638 3675 2398 3904 
Q 2159 4134 1775 4134 
Q 1369 4134 1125 3890 
Q 881 3647 878 3216 
L 300 3275 
Q 359 3922 746 4261 
Q 1134 4600 1788 4600 
Q 2447 4600 2831 4234 
Q 3216 3869 3216 3328 
Q 3216 3053 3103 2787 
Q 2991 2522 2730 2228 
Q 2469 1934 1863 1422 
Q 1356 997 1212 845 
Q 1069 694 975 541 
L 3222 541 
z
" transform="scale(0.015625)"/>
       </defs>
       <use xlink:href="#ArialMT-32"/>
       <use xlink:href="#ArialMT-30" x="55.615234"/>
       <use xlink:href="#ArialMT-3a" x="111.230469"/>
       <use xlink:href="#ArialMT-30" x="139.013672"/>
       <use xlink:href="#ArialMT-30" x="194.628906"/>
      </g>
     </g>
    </g>
    <g id="xtick_6">
     <g id="line2d_11">
      <path d="M 512.620512 320.4 
L 512.620512 43.2 
" clip-path="url(#p650c2b3ca1)" style="fill: none; stroke-dasharray: 2.96,1.28; stroke-dashoffset: 0; stroke: #d0d0d0; stroke-width: 0.8"/>
     </g>
     <g id="line2d_12"/>
    </g>
   </g>
   <g id="matplotlib.axis_2">
    <g id="ytick_1">
     <g id="line2d_13">
      <path d="M 135 310.113762 
L 515.454545 310.113762 
" clip-path="url(#p650c2b3ca1)" style="fill: none; stroke-dasharray: 2.96,1.28; stroke-dashoffset: 0; stroke: #d0d0d0; stroke-width: 0.8"/>
     </g>
     <g id="line2d_14"/>
     <g id="text_6">
      <!-- −0.5 -->
      <g style="fill: #262626" transform="translate(107.81125 314.408449) scale(0.12 -0.12)">
       <defs>
        <path id="ArialMT-2212" d="M 3381 1997 
L 356 1997 
L 356 2522 
L 3381 2522 
L 3381 1997 
z
" transform="scale(0.015625)"/>
        <path id="ArialMT-2e" d="M 581 0 
L 581 641 
L 1222 641 
L 1222 0 
L 581 0 
z
" transform="scale(0.015625)"/>
       </defs>
       <use xlink:href="#ArialMT-2212"/>
       <use xlink:href="#ArialMT-30" x="58.398438"/>
       <use xlink:href="#ArialMT-2e" x="114.013672"/>
       <use xlink:href="#ArialMT-35" x="141.796875"/>
      </g>
     </g>
    </g>
    <g id="ytick_2">
     <g id="line2d_15">
      <path d="M 135 271.184743 
L 515.454545 271.184743 
" clip-path="url(#p650c2b3ca1)" style="fill: none; stroke-dasharray: 2.96,1.28; stroke-dashoffset: 0; stroke: #d0d0d0; stroke-width: 0.8"/>
     </g>
     <g id="line2d_16"/>
     <g id="text_7">
      <!-- 0.0 -->
      <g style="fill: #262626" transform="translate(114.82 275.47943) scale(0.12 -0.12)">
       <use xlink:href="#ArialMT-30"/>
       <use xlink:href="#ArialMT-2e" x="55.615234"/>
       <use xlink:href="#ArialMT-30" x="83.398438"/>
      </g>
     </g>
    </g>
    <g id="ytick_3">
     <g id="line2d_17">
      <path d="M 135 232.255724 
L 515.454545 232.255724 
" clip-path="url(#p650c2b3ca1)" style="fill: none; stroke-dasharray: 2.96,1.28; stroke-dashoffset: 0; stroke: #d0d0d0; stroke-width: 0.8"/>
     </g>
     <g id="line2d_18"/>
     <g id="text_8">
      <!-- 0.5 -->
      <g style="fill: #262626" transform="translate(114.82 236.550411) scale(0.12 -0.12)">
       <use xlink:href="#ArialMT-30"/>
       <use xlink:href="#ArialMT-2e" x="55.615234"/>
       <use xlink:href="#ArialMT-35" x="83.398438"/>
      </g>
     </g>
    </g>
    <g id="ytick_4">
     <g id="line2d_19">
      <path d="M 135 193.326705 
L 515.454545 193.326705 
" clip-path="url(#p650c2b3ca1)" style="fill: none; stroke-dasharray: 2.96,1.28; stroke-dashoffset: 0; stroke: #d0d0d0; stroke-width: 0.8"/>
     </g>
     <g id="line2d_20"/>
     <g id="text_9">
      <!-- 1.0 -->
      <g style="fill: #262626" transform="translate(114.82 197.621392) scale(0.12 -0.12)">
       <use xlink:href="#ArialMT-31"/>
       <use xlink:href="#ArialMT-2e" x="55.615234"/>
       <use xlink:href="#ArialMT-30" x="83.398438"/>
      </g>
     </g>
    </g>
    <g id="ytick_5">
     <g id="line2d_21">
      <path d="M 135 154.397686 
L 515.454545 154.397686 
" clip-path="url(#p650c2b3ca1)" style="fill: none; stroke-dasharray: 2.96,1.28; stroke-dashoffset: 0; stroke: #d0d0d0; stroke-width: 0.8"/>
     </g>
     <g id="line2d_22"/>
     <g id="text_10">
      <!-- 1.5 -->
      <g style="fill: #262626" transform="translate(114.82 158.692373) scale(0.12 -0.12)">
       <use xlink:href="#ArialMT-31"/>
       <use xlink:href="#ArialMT-2e" x="55.615234"/>
       <use xlink:href="#ArialMT-35" x="83.398438"/>
      </g>
     </g>
    </g>
    <g id="ytick_6">
     <g id="line2d_23">
      <path d="M 135 115.468667 
L 515.454545 115.468667 
" clip-path="url(#p650c2b3ca1)" style="fill: none; stroke-dasharray: 2.96,1.28; stroke-dashoffset: 0; stroke: #d0d0d0; stroke-width: 0.8"/>
     </g>
     <g id="line2d_24"/>
     <g id="text_11">
      <!-- 2.0 -->
      <g style="fill: #262626" transform="translate(114.82 119.763354) scale(0.12 -0.12)">
       <use xlink:href="#ArialMT-32"/>
       <use xlink:href="#ArialMT-2e" x="55.615234"/>
       <use xlink:href="#ArialMT-30" x="83.398438"/>
      </g>
     </g>
    </g>
    <g id="ytick_7">
     <g id="line2d_25">
      <path d="M 135 76.539648 
L 515.454545 76.539648 
" clip-path="url(#p650c2b3ca1)" style="fill: none; stroke-dasharray: 2.96,1.28; stroke-dashoffset: 0; stroke: #d0d0d0; stroke-width: 0.8"/>
     </g>
     <g id="line2d_26"/>
     <g id="text_12">
      <!-- 2.5 -->
      <g style="fill: #262626" transform="translate(114.82 80.834335) scale(0.12 -0.12)">
       <use xlink:href="#ArialMT-32"/>
       <use xlink:href="#ArialMT-2e" x="55.615234"/>
       <use xlink:href="#ArialMT-35" x="83.398438"/>
      </g>
     </g>
    </g>
    <g id="text_13">
     <!-- Price -->
     <g style="fill: #262626" transform="translate(101.443125 196.4775) rotate(-90) scale(0.12 -0.12)">
      <defs>
       <path id="Arial-BoldMT-50" d="M 466 0 
L 466 4581 
L 1950 4581 
Q 2794 4581 3050 4513 
Q 3444 4409 3709 4064 
Q 3975 3719 3975 3172 
Q 3975 2750 3822 2462 
Q 3669 2175 3433 2011 
Q 3197 1847 2953 1794 
Q 2622 1728 1994 1728 
L 1391 1728 
L 1391 0 
L 466 0 
z
M 1391 3806 
L 1391 2506 
L 1897 2506 
Q 2444 2506 2628 2578 
Q 2813 2650 2917 2803 
Q 3022 2956 3022 3159 
Q 3022 3409 2875 3571 
Q 2728 3734 2503 3775 
Q 2338 3806 1838 3806 
L 1391 3806 
z
" transform="scale(0.015625)"/>
       <path id="Arial-BoldMT-72" d="M 1300 0 
L 422 0 
L 422 3319 
L 1238 3319 
L 1238 2847 
Q 1447 3181 1614 3287 
Q 1781 3394 1994 3394 
Q 2294 3394 2572 3228 
L 2300 2463 
Q 2078 2606 1888 2606 
Q 1703 2606 1575 2504 
Q 1447 2403 1373 2137 
Q 1300 1872 1300 1025 
L 1300 0 
z
" transform="scale(0.015625)"/>
       <path id="Arial-BoldMT-69" d="M 459 3769 
L 459 4581 
L 1338 4581 
L 1338 3769 
L 459 3769 
z
M 459 0 
L 459 3319 
L 1338 3319 
L 1338 0 
L 459 0 
z
" transform="scale(0.015625)"/>
       <path id="Arial-BoldMT-63" d="M 3353 2338 
L 2488 2181 
Q 2444 2441 2289 2572 
Q 2134 2703 1888 2703 
Q 1559 2703 1364 2476 
Q 1169 2250 1169 1719 
Q 1169 1128 1367 884 
Q 1566 641 1900 641 
Q 2150 641 2309 783 
Q 2469 925 2534 1272 
L 3397 1125 
Q 3263 531 2881 228 
Q 2500 -75 1859 -75 
Q 1131 -75 698 384 
Q 266 844 266 1656 
Q 266 2478 700 2936 
Q 1134 3394 1875 3394 
Q 2481 3394 2839 3133 
Q 3197 2872 3353 2338 
z
" transform="scale(0.015625)"/>
       <path id="Arial-BoldMT-65" d="M 2381 1056 
L 3256 909 
Q 3088 428 2723 176 
Q 2359 -75 1813 -75 
Q 947 -75 531 491 
Q 203 944 203 1634 
Q 203 2459 634 2926 
Q 1066 3394 1725 3394 
Q 2466 3394 2894 2905 
Q 3322 2416 3303 1406 
L 1103 1406 
Q 1113 1016 1316 798 
Q 1519 581 1822 581 
Q 2028 581 2168 693 
Q 2309 806 2381 1056 
z
M 2431 1944 
Q 2422 2325 2234 2523 
Q 2047 2722 1778 2722 
Q 1491 2722 1303 2513 
Q 1116 2303 1119 1944 
L 2431 1944 
z
" transform="scale(0.015625)"/>
      </defs>
      <use xlink:href="#Arial-BoldMT-50"/>
      <use xlink:href="#Arial-BoldMT-72" x="66.699219"/>
      <use xlink:href="#Arial-BoldMT-69" x="105.615234"/>
      <use xlink:href="#Arial-BoldMT-63" x="133.398438"/>
      <use xlink:href="#Arial-BoldMT-65" x="189.013672"/>
     </g>
    </g>
   </g>
   <g id="PolyCollection_1">
    <path d="M 161.084676 234.81336 
L 161.084676 234.852289 
L 170.107314 234.852289 
L 170.107314 234.81336 
z
" clip-path="url(#p650c2b3ca1)" style="fill: #ea0070; fill-opacity: 0.9; stroke: #ea0070"/>
    <path d="M 174.965657 234.852289 
L 174.965657 234.945719 
L 183.988294 234.945719 
L 183.988294 234.852289 
z
" clip-path="url(#p650c2b3ca1)" style="fill: #ea0070; fill-opacity: 0.9; stroke: #ea0070"/>
    <path d="M 188.846638 234.945719 
L 188.846638 234.673216 
L 197.869275 234.673216 
L 197.869275 234.945719 
z
" clip-path="url(#p650c2b3ca1)" style="fill: #70a800; fill-opacity: 0.9; stroke: #70a800"/>
    <path d="M 202.727618 234.673216 
L 202.727618 234.579786 
L 211.750256 234.579786 
L 211.750256 234.673216 
z
" clip-path="url(#p650c2b3ca1)" style="fill: #70a800; fill-opacity: 0.9; stroke: #70a800"/>
    <path d="M 216.608599 234.579786 
L 216.608599 234.135995 
L 225.631236 234.135995 
L 225.631236 234.579786 
z
" clip-path="url(#p650c2b3ca1)" style="fill: #70a800; fill-opacity: 0.9; stroke: #70a800"/>
    <path d="M 230.48958 234.135995 
L 230.48958 234.221639 
L 239.512217 234.221639 
L 239.512217 234.135995 
z
" clip-path="url(#p650c2b3ca1)" style="fill: #ea0070; fill-opacity: 0.9; stroke: #ea0070"/>
    <path d="M 244.37056 234.221639 
L 244.37056 235.20265 
L 253.393198 235.20265 
L 253.393198 234.221639 
z
" clip-path="url(#p650c2b3ca1)" style="fill: #ea0070; fill-opacity: 0.9; stroke: #ea0070"/>
    <path d="M 258.251541 235.20265 
L 258.251541 234.821146 
L 267.274178 234.821146 
L 267.274178 235.20265 
z
" clip-path="url(#p650c2b3ca1)" style="fill: #70a800; fill-opacity: 0.9; stroke: #70a800"/>
    <path d="M 272.132522 234.821146 
L 272.132522 234.704359 
L 281.155159 234.704359 
L 281.155159 234.821146 
z
" clip-path="url(#p650c2b3ca1)" style="fill: #70a800; fill-opacity: 0.9; stroke: #70a800"/>
    <path d="M 286.013502 234.704359 
L 286.013502 234.860075 
L 295.03614 234.860075 
L 295.03614 234.704359 
z
" clip-path="url(#p650c2b3ca1)" style="fill: #ea0070; fill-opacity: 0.9; stroke: #ea0070"/>
    <path d="M 299.894483 234.860075 
L 299.894483 234.719931 
L 308.91712 234.719931 
L 308.91712 234.860075 
z
" clip-path="url(#p650c2b3ca1)" style="fill: #70a800; fill-opacity: 0.9; stroke: #70a800"/>
    <path d="M 313.775464 234.719931 
L 313.775464 234.828932 
L 322.798101 234.828932 
L 322.798101 234.719931 
z
" clip-path="url(#p650c2b3ca1)" style="fill: #ea0070; fill-opacity: 0.9; stroke: #ea0070"/>
    <path d="M 327.656444 234.828932 
L 327.656444 234.945719 
L 336.679082 234.945719 
L 336.679082 234.828932 
z
" clip-path="url(#p650c2b3ca1)" style="fill: #ea0070; fill-opacity: 0.9; stroke: #ea0070"/>
    <path d="M 341.537425 234.945719 
L 341.537425 234.75886 
L 350.560062 234.75886 
L 350.560062 234.945719 
z
" clip-path="url(#p650c2b3ca1)" style="fill: #70a800; fill-opacity: 0.9; stroke: #70a800"/>
    <path d="M 355.418406 234.75886 
L 355.418406 234.937933 
L 364.441043 234.937933 
L 364.441043 234.75886 
z
" clip-path="url(#p650c2b3ca1)" style="fill: #ea0070; fill-opacity: 0.9; stroke: #ea0070"/>
    <path d="M 369.299386 234.937933 
L 369.299386 234.719931 
L 378.322024 234.719931 
L 378.322024 234.937933 
z
" clip-path="url(#p650c2b3ca1)" style="fill: #70a800; fill-opacity: 0.9; stroke: #70a800"/>
    <path d="M 383.180367 234.719931 
L 383.180367 234.392927 
L 392.203005 234.392927 
L 392.203005 234.719931 
z
" clip-path="url(#p650c2b3ca1)" style="fill: #70a800; fill-opacity: 0.9; stroke: #70a800"/>
    <path d="M 397.061348 234.392927 
L 397.061348 234.681002 
L 406.083985 234.681002 
L 406.083985 234.392927 
z
" clip-path="url(#p650c2b3ca1)" style="fill: #ea0070; fill-opacity: 0.9; stroke: #ea0070"/>
    <path d="M 410.942328 234.681002 
L 410.942328 234.587572 
L 419.964966 234.587572 
L 419.964966 234.681002 
z
" clip-path="url(#p650c2b3ca1)" style="fill: #70a800; fill-opacity: 0.9; stroke: #70a800"/>
    <path d="M 424.823309 234.587572 
L 424.823309 233.06934 
L 433.845947 233.06934 
L 433.845947 234.587572 
z
" clip-path="url(#p650c2b3ca1)" style="fill: #70a800; fill-opacity: 0.9; stroke: #70a800"/>
    <path d="M 438.70429 233.06934 
L 438.70429 233.108269 
L 447.726927 233.108269 
L 447.726927 233.06934 
z
" clip-path="url(#p650c2b3ca1)" style="fill: #ea0070; fill-opacity: 0.9; stroke: #ea0070"/>
    <path d="M 452.58527 233.108269 
L 452.58527 232.469833 
L 461.607908 232.469833 
L 461.607908 233.108269 
z
" clip-path="url(#p650c2b3ca1)" style="fill: #70a800; fill-opacity: 0.9; stroke: #70a800"/>
    <path d="M 466.466251 232.469833 
L 466.466251 232.469833 
L 475.488889 232.469833 
L 475.488889 232.469833 
z
" clip-path="url(#p650c2b3ca1)" style="fill: #ea0070; fill-opacity: 0.9; stroke: #ea0070"/>
    <path d="M 480.347232 232.469833 
L 480.347232 232.080543 
L 489.369869 232.080543 
L 489.369869 232.469833 
z
" clip-path="url(#p650c2b3ca1)" style="fill: #70a800; fill-opacity: 0.9; stroke: #70a800"/>
   </g>
   <g id="LineCollection_1">
    <path d="M 165.595995 234.976862 
L 165.595995 234.852289 
" clip-path="url(#p650c2b3ca1)" style="fill: none; stroke: #ea0070"/>
    <path d="M 179.476976 235.29608 
L 179.476976 234.945719 
" clip-path="url(#p650c2b3ca1)" style="fill: none; stroke: #ea0070"/>
    <path d="M 193.357956 234.96129 
L 193.357956 234.945719 
" clip-path="url(#p650c2b3ca1)" style="fill: none; stroke: #70a800"/>
    <path d="M 207.238937 234.696573 
L 207.238937 234.673216 
" clip-path="url(#p650c2b3ca1)" style="fill: none; stroke: #70a800"/>
    <path d="M 221.119918 234.579786 
L 221.119918 234.579786 
" clip-path="url(#p650c2b3ca1)" style="fill: none; stroke: #70a800"/>
    <path d="M 235.000898 234.221639 
L 235.000898 234.221639 
" clip-path="url(#p650c2b3ca1)" style="fill: none; stroke: #ea0070"/>
    <path d="M 248.881879 235.335009 
L 248.881879 235.20265 
" clip-path="url(#p650c2b3ca1)" style="fill: none; stroke: #ea0070"/>
    <path d="M 262.76286 235.272723 
L 262.76286 235.20265 
" clip-path="url(#p650c2b3ca1)" style="fill: none; stroke: #70a800"/>
    <path d="M 276.64384 234.867861 
L 276.64384 234.821146 
" clip-path="url(#p650c2b3ca1)" style="fill: none; stroke: #70a800"/>
    <path d="M 290.524821 234.867861 
L 290.524821 234.860075 
" clip-path="url(#p650c2b3ca1)" style="fill: none; stroke: #ea0070"/>
    <path d="M 304.405802 234.891218 
L 304.405802 234.860075 
" clip-path="url(#p650c2b3ca1)" style="fill: none; stroke: #70a800"/>
    <path d="M 318.286782 234.867861 
L 318.286782 234.828932 
" clip-path="url(#p650c2b3ca1)" style="fill: none; stroke: #ea0070"/>
    <path d="M 332.167763 235.008005 
L 332.167763 234.945719 
" clip-path="url(#p650c2b3ca1)" style="fill: none; stroke: #ea0070"/>
    <path d="M 346.048744 235.015791 
L 346.048744 234.945719 
" clip-path="url(#p650c2b3ca1)" style="fill: none; stroke: #70a800"/>
    <path d="M 359.929724 235.070292 
L 359.929724 234.937933 
" clip-path="url(#p650c2b3ca1)" style="fill: none; stroke: #ea0070"/>
    <path d="M 373.810705 235.008005 
L 373.810705 234.937933 
" clip-path="url(#p650c2b3ca1)" style="fill: none; stroke: #70a800"/>
    <path d="M 387.691686 234.75886 
L 387.691686 234.719931 
" clip-path="url(#p650c2b3ca1)" style="fill: none; stroke: #70a800"/>
    <path d="M 401.572666 234.743288 
L 401.572666 234.681002 
" clip-path="url(#p650c2b3ca1)" style="fill: none; stroke: #ea0070"/>
    <path d="M 415.453647 234.751074 
L 415.453647 234.681002 
" clip-path="url(#p650c2b3ca1)" style="fill: none; stroke: #70a800"/>
    <path d="M 429.334628 234.657644 
L 429.334628 234.587572 
" clip-path="url(#p650c2b3ca1)" style="fill: none; stroke: #70a800"/>
    <path d="M 443.215609 233.583203 
L 443.215609 233.108269 
" clip-path="url(#p650c2b3ca1)" style="fill: none; stroke: #ea0070"/>
    <path d="M 457.096589 233.419701 
L 457.096589 233.108269 
" clip-path="url(#p650c2b3ca1)" style="fill: none; stroke: #70a800"/>
    <path d="M 470.97757 232.711193 
L 470.97757 232.469833 
" clip-path="url(#p650c2b3ca1)" style="fill: none; stroke: #ea0070"/>
    <path d="M 484.858551 232.617764 
L 484.858551 232.469833 
" clip-path="url(#p650c2b3ca1)" style="fill: none; stroke: #70a800"/>
    <path d="M 165.595995 234.696573 
L 165.595995 234.81336 
" clip-path="url(#p650c2b3ca1)" style="fill: none; stroke: #ea0070"/>
    <path d="M 179.476976 234.751074 
L 179.476976 234.852289 
" clip-path="url(#p650c2b3ca1)" style="fill: none; stroke: #ea0070"/>
    <path d="M 193.357956 234.587572 
L 193.357956 234.673216 
" clip-path="url(#p650c2b3ca1)" style="fill: none; stroke: #70a800"/>
    <path d="M 207.238937 234.455213 
L 207.238937 234.579786 
" clip-path="url(#p650c2b3ca1)" style="fill: none; stroke: #70a800"/>
    <path d="M 221.119918 234.058137 
L 221.119918 234.135995 
" clip-path="url(#p650c2b3ca1)" style="fill: none; stroke: #70a800"/>
    <path d="M 235.000898 233.988065 
L 235.000898 234.135995 
" clip-path="url(#p650c2b3ca1)" style="fill: none; stroke: #ea0070"/>
    <path d="M 248.881879 233.267878 
L 248.881879 234.221639 
" clip-path="url(#p650c2b3ca1)" style="fill: none; stroke: #ea0070"/>
    <path d="M 262.76286 234.797789 
L 262.76286 234.821146 
" clip-path="url(#p650c2b3ca1)" style="fill: none; stroke: #70a800"/>
    <path d="M 276.64384 234.657644 
L 276.64384 234.704359 
" clip-path="url(#p650c2b3ca1)" style="fill: none; stroke: #70a800"/>
    <path d="M 290.524821 234.634287 
L 290.524821 234.704359 
" clip-path="url(#p650c2b3ca1)" style="fill: none; stroke: #ea0070"/>
    <path d="M 304.405802 234.603143 
L 304.405802 234.719931 
" clip-path="url(#p650c2b3ca1)" style="fill: none; stroke: #70a800"/>
    <path d="M 318.286782 234.66543 
L 318.286782 234.719931 
" clip-path="url(#p650c2b3ca1)" style="fill: none; stroke: #ea0070"/>
    <path d="M 332.167763 234.790003 
L 332.167763 234.828932 
" clip-path="url(#p650c2b3ca1)" style="fill: none; stroke: #ea0070"/>
    <path d="M 346.048744 234.704359 
L 346.048744 234.75886 
" clip-path="url(#p650c2b3ca1)" style="fill: none; stroke: #70a800"/>
    <path d="M 359.929724 234.751074 
L 359.929724 234.75886 
" clip-path="url(#p650c2b3ca1)" style="fill: none; stroke: #ea0070"/>
    <path d="M 373.810705 234.712145 
L 373.810705 234.719931 
" clip-path="url(#p650c2b3ca1)" style="fill: none; stroke: #70a800"/>
    <path d="M 387.691686 234.291711 
L 387.691686 234.392927 
" clip-path="url(#p650c2b3ca1)" style="fill: none; stroke: #70a800"/>
    <path d="M 401.572666 234.143781 
L 401.572666 234.392927 
" clip-path="url(#p650c2b3ca1)" style="fill: none; stroke: #ea0070"/>
    <path d="M 415.453647 234.525285 
L 415.453647 234.587572 
" clip-path="url(#p650c2b3ca1)" style="fill: none; stroke: #70a800"/>
    <path d="M 429.334628 232.991482 
L 429.334628 233.06934 
" clip-path="url(#p650c2b3ca1)" style="fill: none; stroke: #70a800"/>
    <path d="M 443.215609 232.835766 
L 443.215609 233.06934 
" clip-path="url(#p650c2b3ca1)" style="fill: none; stroke: #ea0070"/>
    <path d="M 457.096589 232.462047 
L 457.096589 232.469833 
" clip-path="url(#p650c2b3ca1)" style="fill: none; stroke: #70a800"/>
    <path d="M 470.97757 232.29076 
L 470.97757 232.469833 
" clip-path="url(#p650c2b3ca1)" style="fill: none; stroke: #ea0070"/>
    <path d="M 484.858551 231.994899 
L 484.858551 232.080543 
" clip-path="url(#p650c2b3ca1)" style="fill: none; stroke: #70a800"/>
   </g>
   <g id="patch_3">
    <path d="M 135 320.4 
L 135 43.2 
" style="fill: none; stroke: #e6e6e6; stroke-width: 1.5; stroke-linejoin: miter; stroke-linecap: square"/>
   </g>
   <g id="patch_4">
    <path d="M 515.454545 320.4 
L 515.454545 43.2 
" style="fill: none; stroke: #e6e6e6; stroke-width: 1.5; stroke-linejoin: miter; stroke-linecap: square"/>
   </g>
   <g id="patch_5">
    <path d="M 135 320.4 
L 515.454545 320.4 
" style="fill: none; stroke: #e6e6e6; stroke-width: 1.5; stroke-linejoin: miter; stroke-linecap: square"/>
   </g>
   <g id="patch_6">
    <path d="M 135 43.2 
L 515.454545 43.2 
" style="fill: none; stroke: #e6e6e6; stroke-width: 1.5; stroke-linejoin: miter; stroke-linecap: square"/>
   </g>
   <g id="text_14">
    <!-- Actual -->
    <g style="fill: #262626" transform="translate(305.216898 37.2) scale(0.144 -0.144)">
     <defs>
      <path id="ArialMT-41" d="M -9 0 
L 1750 4581 
L 2403 4581 
L 4278 0 
L 3588 0 
L 3053 1388 
L 1138 1388 
L 634 0 
L -9 0 
z
M 1313 1881 
L 2866 1881 
L 2388 3150 
Q 2169 3728 2063 4100 
Q 1975 3659 1816 3225 
L 1313 1881 
z
" transform="scale(0.015625)"/>
      <path id="ArialMT-63" d="M 2588 1216 
L 3141 1144 
Q 3050 572 2676 248 
Q 2303 -75 1759 -75 
Q 1078 -75 664 370 
Q 250 816 250 1647 
Q 250 2184 428 2587 
Q 606 2991 970 3192 
Q 1334 3394 1763 3394 
Q 2303 3394 2647 3120 
Q 2991 2847 3088 2344 
L 2541 2259 
Q 2463 2594 2264 2762 
Q 2066 2931 1784 2931 
Q 1359 2931 1093 2626 
Q 828 2322 828 1663 
Q 828 994 1084 691 
Q 1341 388 1753 388 
Q 2084 388 2306 591 
Q 2528 794 2588 1216 
z
" transform="scale(0.015625)"/>
      <path id="ArialMT-74" d="M 1650 503 
L 1731 6 
Q 1494 -44 1306 -44 
Q 1000 -44 831 53 
Q 663 150 594 308 
Q 525 466 525 972 
L 525 2881 
L 113 2881 
L 113 3319 
L 525 3319 
L 525 4141 
L 1084 4478 
L 1084 3319 
L 1650 3319 
L 1650 2881 
L 1084 2881 
L 1084 941 
Q 1084 700 1114 631 
Q 1144 563 1211 522 
Q 1278 481 1403 481 
Q 1497 481 1650 503 
z
" transform="scale(0.015625)"/>
      <path id="ArialMT-75" d="M 2597 0 
L 2597 488 
Q 2209 -75 1544 -75 
Q 1250 -75 995 37 
Q 741 150 617 320 
Q 494 491 444 738 
Q 409 903 409 1263 
L 409 3319 
L 972 3319 
L 972 1478 
Q 972 1038 1006 884 
Q 1059 663 1231 536 
Q 1403 409 1656 409 
Q 1909 409 2131 539 
Q 2353 669 2445 892 
Q 2538 1116 2538 1541 
L 2538 3319 
L 3100 3319 
L 3100 0 
L 2597 0 
z
" transform="scale(0.015625)"/>
      <path id="ArialMT-61" d="M 2588 409 
Q 2275 144 1986 34 
Q 1697 -75 1366 -75 
Q 819 -75 525 192 
Q 231 459 231 875 
Q 231 1119 342 1320 
Q 453 1522 633 1644 
Q 813 1766 1038 1828 
Q 1203 1872 1538 1913 
Q 2219 1994 2541 2106 
Q 2544 2222 2544 2253 
Q 2544 2597 2384 2738 
Q 2169 2928 1744 2928 
Q 1347 2928 1158 2789 
Q 969 2650 878 2297 
L 328 2372 
Q 403 2725 575 2942 
Q 747 3159 1072 3276 
Q 1397 3394 1825 3394 
Q 2250 3394 2515 3294 
Q 2781 3194 2906 3042 
Q 3031 2891 3081 2659 
Q 3109 2516 3109 2141 
L 3109 1391 
Q 3109 606 3145 398 
Q 3181 191 3288 0 
L 2700 0 
Q 2613 175 2588 409 
z
M 2541 1666 
Q 2234 1541 1622 1453 
Q 1275 1403 1131 1340 
Q 988 1278 909 1158 
Q 831 1038 831 891 
Q 831 666 1001 516 
Q 1172 366 1500 366 
Q 1825 366 2078 508 
Q 2331 650 2450 897 
Q 2541 1088 2541 1459 
L 2541 1666 
z
" transform="scale(0.015625)"/>
      <path id="ArialMT-6c" d="M 409 0 
L 409 4581 
L 972 4581 
L 972 0 
L 409 0 
z
" transform="scale(0.015625)"/>
     </defs>
     <use xlink:href="#ArialMT-41"/>
     <use xlink:href="#ArialMT-63" x="66.699219"/>
     <use xlink:href="#ArialMT-74" x="116.699219"/>
     <use xlink:href="#ArialMT-75" x="144.482422"/>
     <use xlink:href="#ArialMT-61" x="200.097656"/>
     <use xlink:href="#ArialMT-6c" x="255.712891"/>
    </g>
   </g>
  </g>
  <g id="axes_2">
   <g id="patch_7">
    <path d="M 591.545455 320.4 
L 972 320.4 
L 972 43.2 
L 591.545455 43.2 
z
" style="fill: #ffffff"/>
   </g>
   <g id="matplotlib.axis_3">
    <g id="xtick_7">
     <g id="line2d_27">
      <path d="M 622.141449 320.4 
L 622.141449 43.2 
" clip-path="url(#pc512662e26)" style="fill: none; stroke-dasharray: 2.96,1.28; stroke-dashoffset: 0; stroke: #d0d0d0; stroke-width: 0.8"/>
     </g>
     <g id="line2d_28"/>
     <g id="text_15">
      <!-- 00:00 -->
      <g style="fill: #262626" transform="translate(613.719145 351.20537) rotate(-45) scale(0.12 -0.12)">
       <use xlink:href="#ArialMT-30"/>
       <use xlink:href="#ArialMT-30" x="55.615234"/>
       <use xlink:href="#ArialMT-3a" x="111.230469"/>
       <use xlink:href="#ArialMT-30" x="139.013672"/>
       <use xlink:href="#ArialMT-30" x="194.628906"/>
      </g>
     </g>
    </g>
    <g id="xtick_8">
     <g id="line2d_29">
      <path d="M 691.546353 320.4 
L 691.546353 43.2 
" clip-path="url(#pc512662e26)" style="fill: none; stroke-dasharray: 2.96,1.28; stroke-dashoffset: 0; stroke: #d0d0d0; stroke-width: 0.8"/>
     </g>
     <g id="line2d_30"/>
     <g id="text_16">
      <!-- 05:00 -->
      <g style="fill: #262626" transform="translate(683.124048 351.20537) rotate(-45) scale(0.12 -0.12)">
       <use xlink:href="#ArialMT-30"/>
       <use xlink:href="#ArialMT-35" x="55.615234"/>
       <use xlink:href="#ArialMT-3a" x="111.230469"/>
       <use xlink:href="#ArialMT-30" x="139.013672"/>
       <use xlink:href="#ArialMT-30" x="194.628906"/>
      </g>
     </g>
    </g>
    <g id="xtick_9">
     <g id="line2d_31">
      <path d="M 760.951256 320.4 
L 760.951256 43.2 
" clip-path="url(#pc512662e26)" style="fill: none; stroke-dasharray: 2.96,1.28; stroke-dashoffset: 0; stroke: #d0d0d0; stroke-width: 0.8"/>
     </g>
     <g id="line2d_32"/>
     <g id="text_17">
      <!-- 10:00 -->
      <g style="fill: #262626" transform="translate(752.528952 351.20537) rotate(-45) scale(0.12 -0.12)">
       <use xlink:href="#ArialMT-31"/>
       <use xlink:href="#ArialMT-30" x="55.615234"/>
       <use xlink:href="#ArialMT-3a" x="111.230469"/>
       <use xlink:href="#ArialMT-30" x="139.013672"/>
       <use xlink:href="#ArialMT-30" x="194.628906"/>
      </g>
     </g>
    </g>
    <g id="xtick_10">
     <g id="line2d_33">
      <path d="M 830.35616 320.4 
L 830.35616 43.2 
" clip-path="url(#pc512662e26)" style="fill: none; stroke-dasharray: 2.96,1.28; stroke-dashoffset: 0; stroke: #d0d0d0; stroke-width: 0.8"/>
     </g>
     <g id="line2d_34"/>
     <g id="text_18">
      <!-- 15:00 -->
      <g style="fill: #262626" transform="translate(821.933855 351.20537) rotate(-45) scale(0.12 -0.12)">
       <use xlink:href="#ArialMT-31"/>
       <use xlink:href="#ArialMT-35" x="55.615234"/>
       <use xlink:href="#ArialMT-3a" x="111.230469"/>
       <use xlink:href="#ArialMT-30" x="139.013672"/>
       <use xlink:href="#ArialMT-30" x="194.628906"/>
      </g>
     </g>
    </g>
    <g id="xtick_11">
     <g id="line2d_35">
      <path d="M 899.761063 320.4 
L 899.761063 43.2 
" clip-path="url(#pc512662e26)" style="fill: none; stroke-dasharray: 2.96,1.28; stroke-dashoffset: 0; stroke: #d0d0d0; stroke-width: 0.8"/>
     </g>
     <g id="line2d_36"/>
     <g id="text_19">
      <!-- 20:00 -->
      <g style="fill: #262626" transform="translate(891.338758 351.20537) rotate(-45) scale(0.12 -0.12)">
       <use xlink:href="#ArialMT-32"/>
       <use xlink:href="#ArialMT-30" x="55.615234"/>
       <use xlink:href="#ArialMT-3a" x="111.230469"/>
       <use xlink:href="#ArialMT-30" x="139.013672"/>
       <use xlink:href="#ArialMT-30" x="194.628906"/>
      </g>
     </g>
    </g>
    <g id="xtick_12">
     <g id="line2d_37">
      <path d="M 969.165966 320.4 
L 969.165966 43.2 
" clip-path="url(#pc512662e26)" style="fill: none; stroke-dasharray: 2.96,1.28; stroke-dashoffset: 0; stroke: #d0d0d0; stroke-width: 0.8"/>
     </g>
     <g id="line2d_38"/>
    </g>
   </g>
   <g id="matplotlib.axis_4">
    <g id="ytick_8">
     <g id="line2d_39">
      <path d="M 591.545455 310.113762 
L 972 310.113762 
" clip-path="url(#pc512662e26)" style="fill: none; stroke-dasharray: 2.96,1.28; stroke-dashoffset: 0; stroke: #d0d0d0; stroke-width: 0.8"/>
     </g>
     <g id="line2d_40"/>
     <g id="text_20">
      <!-- −0.5 -->
      <g style="fill: #262626" transform="translate(564.356705 314.408449) scale(0.12 -0.12)">
       <use xlink:href="#ArialMT-2212"/>
       <use xlink:href="#ArialMT-30" x="58.398438"/>
       <use xlink:href="#ArialMT-2e" x="114.013672"/>
       <use xlink:href="#ArialMT-35" x="141.796875"/>
      </g>
     </g>
    </g>
    <g id="ytick_9">
     <g id="line2d_41">
      <path d="M 591.545455 271.184743 
L 972 271.184743 
" clip-path="url(#pc512662e26)" style="fill: none; stroke-dasharray: 2.96,1.28; stroke-dashoffset: 0; stroke: #d0d0d0; stroke-width: 0.8"/>
     </g>
     <g id="line2d_42"/>
     <g id="text_21">
      <!-- 0.0 -->
      <g style="fill: #262626" transform="translate(571.365455 275.47943) scale(0.12 -0.12)">
       <use xlink:href="#ArialMT-30"/>
       <use xlink:href="#ArialMT-2e" x="55.615234"/>
       <use xlink:href="#ArialMT-30" x="83.398438"/>
      </g>
     </g>
    </g>
    <g id="ytick_10">
     <g id="line2d_43">
      <path d="M 591.545455 232.255724 
L 972 232.255724 
" clip-path="url(#pc512662e26)" style="fill: none; stroke-dasharray: 2.96,1.28; stroke-dashoffset: 0; stroke: #d0d0d0; stroke-width: 0.8"/>
     </g>
     <g id="line2d_44"/>
     <g id="text_22">
      <!-- 0.5 -->
      <g style="fill: #262626" transform="translate(571.365455 236.550411) scale(0.12 -0.12)">
       <use xlink:href="#ArialMT-30"/>
       <use xlink:href="#ArialMT-2e" x="55.615234"/>
       <use xlink:href="#ArialMT-35" x="83.398438"/>
      </g>
     </g>
    </g>
    <g id="ytick_11">
     <g id="line2d_45">
      <path d="M 591.545455 193.326705 
L 972 193.326705 
" clip-path="url(#pc512662e26)" style="fill: none; stroke-dasharray: 2.96,1.28; stroke-dashoffset: 0; stroke: #d0d0d0; stroke-width: 0.8"/>
     </g>
     <g id="line2d_46"/>
     <g id="text_23">
      <!-- 1.0 -->
      <g style="fill: #262626" transform="translate(571.365455 197.621392) scale(0.12 -0.12)">
       <use xlink:href="#ArialMT-31"/>
       <use xlink:href="#ArialMT-2e" x="55.615234"/>
       <use xlink:href="#ArialMT-30" x="83.398438"/>
      </g>
     </g>
    </g>
    <g id="ytick_12">
     <g id="line2d_47">
      <path d="M 591.545455 154.397686 
L 972 154.397686 
" clip-path="url(#pc512662e26)" style="fill: none; stroke-dasharray: 2.96,1.28; stroke-dashoffset: 0; stroke: #d0d0d0; stroke-width: 0.8"/>
     </g>
     <g id="line2d_48"/>
     <g id="text_24">
      <!-- 1.5 -->
      <g style="fill: #262626" transform="translate(571.365455 158.692373) scale(0.12 -0.12)">
       <use xlink:href="#ArialMT-31"/>
       <use xlink:href="#ArialMT-2e" x="55.615234"/>
       <use xlink:href="#ArialMT-35" x="83.398438"/>
      </g>
     </g>
    </g>
    <g id="ytick_13">
     <g id="line2d_49">
      <path d="M 591.545455 115.468667 
L 972 115.468667 
" clip-path="url(#pc512662e26)" style="fill: none; stroke-dasharray: 2.96,1.28; stroke-dashoffset: 0; stroke: #d0d0d0; stroke-width: 0.8"/>
     </g>
     <g id="line2d_50"/>
     <g id="text_25">
      <!-- 2.0 -->
      <g style="fill: #262626" transform="translate(571.365455 119.763354) scale(0.12 -0.12)">
       <use xlink:href="#ArialMT-32"/>
       <use xlink:href="#ArialMT-2e" x="55.615234"/>
       <use xlink:href="#ArialMT-30" x="83.398438"/>
      </g>
     </g>
    </g>
    <g id="ytick_14">
     <g id="line2d_51">
      <path d="M 591.545455 76.539648 
L 972 76.539648 
" clip-path="url(#pc512662e26)" style="fill: none; stroke-dasharray: 2.96,1.28; stroke-dashoffset: 0; stroke: #d0d0d0; stroke-width: 0.8"/>
     </g>
     <g id="line2d_52"/>
     <g id="text_26">
      <!-- 2.5 -->
      <g style="fill: #262626" transform="translate(571.365455 80.834335) scale(0.12 -0.12)">
       <use xlink:href="#ArialMT-32"/>
       <use xlink:href="#ArialMT-2e" x="55.615234"/>
       <use xlink:href="#ArialMT-35" x="83.398438"/>
      </g>
     </g>
    </g>
    <g id="text_27">
     <!-- Price -->
     <g style="fill: #262626" transform="translate(557.98858 196.4775) rotate(-90) scale(0.12 -0.12)">
      <use xlink:href="#Arial-BoldMT-50"/>
      <use xlink:href="#Arial-BoldMT-72" x="66.699219"/>
      <use xlink:href="#Arial-BoldMT-69" x="105.615234"/>
      <use xlink:href="#Arial-BoldMT-63" x="133.398438"/>
      <use xlink:href="#Arial-BoldMT-65" x="189.013672"/>
     </g>
    </g>
   </g>
   <g id="PolyCollection_2">
    <path d="M 617.630131 316.26489 
L 617.630131 318.121337 
L 626.652768 318.121337 
L 626.652768 316.26489 
z
" clip-path="url(#pc512662e26)" style="fill: #ea0070; fill-opacity: 0.9; stroke: #ea0070"/>
    <path d="M 631.511111 318.374427 
L 631.511111 319.767166 
L 640.533749 319.767166 
L 640.533749 318.374427 
z
" clip-path="url(#pc512662e26)" style="fill: #ea0070; fill-opacity: 0.9; stroke: #ea0070"/>
    <path d="M 645.392092 319.844216 
L 645.392092 303.87534 
L 654.41473 303.87534 
L 654.41473 319.844216 
z
" clip-path="url(#pc512662e26)" style="fill: #70a800; fill-opacity: 0.9; stroke: #70a800"/>
    <path d="M 659.273073 305.23028 
L 659.273073 292.210938 
L 668.29571 292.210938 
L 668.29571 305.23028 
z
" clip-path="url(#pc512662e26)" style="fill: #70a800; fill-opacity: 0.9; stroke: #70a800"/>
    <path d="M 673.154053 293.885714 
L 673.154053 251.005161 
L 682.176691 251.005161 
L 682.176691 293.885714 
z
" clip-path="url(#pc512662e26)" style="fill: #70a800; fill-opacity: 0.9; stroke: #70a800"/>
    <path d="M 687.035034 249.399365 
L 687.035034 258.945418 
L 696.057672 258.945418 
L 696.057672 249.399365 
z
" clip-path="url(#pc512662e26)" style="fill: #ea0070; fill-opacity: 0.9; stroke: #ea0070"/>
    <path d="M 700.916015 257.898389 
L 700.916015 320.393234 
L 709.938652 320.393234 
L 709.938652 257.898389 
z
" clip-path="url(#pc512662e26)" style="fill: #ea0070; fill-opacity: 0.9; stroke: #ea0070"/>
    <path d="M 714.796995 320.396144 
L 714.796995 316.72088 
L 723.819633 316.72088 
L 723.819633 320.396144 
z
" clip-path="url(#pc512662e26)" style="fill: #70a800; fill-opacity: 0.9; stroke: #70a800"/>
    <path d="M 728.677976 316.68136 
L 728.677976 308.198308 
L 737.700614 308.198308 
L 737.700614 316.68136 
z
" clip-path="url(#pc512662e26)" style="fill: #70a800; fill-opacity: 0.9; stroke: #70a800"/>
    <path d="M 742.558957 308.886565 
L 742.558957 318.176724 
L 751.581594 318.176724 
L 751.581594 308.886565 
z
" clip-path="url(#pc512662e26)" style="fill: #ea0070; fill-opacity: 0.9; stroke: #ea0070"/>
    <path d="M 756.439938 318.078647 
L 756.439938 308.330728 
L 765.462575 308.330728 
L 765.462575 318.078647 
z
" clip-path="url(#pc512662e26)" style="fill: #70a800; fill-opacity: 0.9; stroke: #70a800"/>
    <path d="M 770.320918 308.582428 
L 770.320918 316.971678 
L 779.343556 316.971678 
L 779.343556 308.582428 
z
" clip-path="url(#pc512662e26)" style="fill: #ea0070; fill-opacity: 0.9; stroke: #ea0070"/>
    <path d="M 784.201899 316.75944 
L 784.201899 319.702879 
L 793.224536 319.702879 
L 793.224536 316.75944 
z
" clip-path="url(#pc512662e26)" style="fill: #ea0070; fill-opacity: 0.9; stroke: #ea0070"/>
    <path d="M 798.08288 319.770401 
L 798.08288 313.591257 
L 807.105517 313.591257 
L 807.105517 319.770401 
z
" clip-path="url(#pc512662e26)" style="fill: #70a800; fill-opacity: 0.9; stroke: #70a800"/>
    <path d="M 811.96386 313.022608 
L 811.96386 319.838331 
L 820.986498 319.838331 
L 820.986498 313.022608 
z
" clip-path="url(#pc512662e26)" style="fill: #ea0070; fill-opacity: 0.9; stroke: #ea0070"/>
    <path d="M 825.844841 319.843441 
L 825.844841 309.378858 
L 834.867478 309.378858 
L 834.867478 319.843441 
z
" clip-path="url(#pc512662e26)" style="fill: #70a800; fill-opacity: 0.9; stroke: #70a800"/>
    <path d="M 839.725822 309.722815 
L 839.725822 275.223502 
L 848.748459 275.223502 
L 848.748459 309.722815 
z
" clip-path="url(#pc512662e26)" style="fill: #70a800; fill-opacity: 0.9; stroke: #70a800"/>
    <path d="M 853.606802 274.988757 
L 853.606802 304.766623 
L 862.62944 304.766623 
L 862.62944 274.988757 
z
" clip-path="url(#pc512662e26)" style="fill: #ea0070; fill-opacity: 0.9; stroke: #ea0070"/>
    <path d="M 867.487783 307.491255 
L 867.487783 293.648198 
L 876.51042 293.648198 
L 876.51042 307.491255 
z
" clip-path="url(#pc512662e26)" style="fill: #70a800; fill-opacity: 0.9; stroke: #70a800"/>
    <path d="M 881.368764 295.898114 
L 881.368764 145.741832 
L 890.391401 145.741832 
L 890.391401 295.898114 
z
" clip-path="url(#pc512662e26)" style="fill: #70a800; fill-opacity: 0.9; stroke: #70a800"/>
    <path d="M 895.249744 141.879386 
L 895.249744 150.703484 
L 904.272382 150.703484 
L 904.272382 141.879386 
z
" clip-path="url(#pc512662e26)" style="fill: #ea0070; fill-opacity: 0.9; stroke: #ea0070"/>
    <path d="M 909.130725 149.502006 
L 909.130725 86.189966 
L 918.153362 86.189966 
L 918.153362 149.502006 
z
" clip-path="url(#pc512662e26)" style="fill: #70a800; fill-opacity: 0.9; stroke: #70a800"/>
    <path d="M 923.011706 88.02696 
L 923.011706 84.623377 
L 932.034343 84.623377 
L 932.034343 88.02696 
z
" clip-path="url(#pc512662e26)" style="fill: #70a800; fill-opacity: 0.9; stroke: #70a800"/>
    <path d="M 936.892686 89.871768 
L 936.892686 43.2 
L 945.915324 43.2 
L 945.915324 89.871768 
z
" clip-path="url(#pc512662e26)" style="fill: #70a800; fill-opacity: 0.9; stroke: #70a800"/>
   </g>
   <g id="LineCollection_2">
    <path d="M 622.141449 320.067355 
L 622.141449 318.121337 
" clip-path="url(#pc512662e26)" style="fill: none; stroke: #ea0070"/>
    <path d="M 636.02243 320.399606 
L 636.02243 319.767166 
" clip-path="url(#pc512662e26)" style="fill: none; stroke: #ea0070"/>
    <path d="M 649.903411 319.90564 
L 649.903411 319.844216 
" clip-path="url(#pc512662e26)" style="fill: none; stroke: #70a800"/>
    <path d="M 663.784391 307.142319 
L 663.784391 305.23028 
" clip-path="url(#pc512662e26)" style="fill: none; stroke: #70a800"/>
    <path d="M 677.665372 294.95672 
L 677.665372 293.885714 
" clip-path="url(#pc512662e26)" style="fill: none; stroke: #70a800"/>
    <path d="M 691.546353 258.267323 
L 691.546353 258.945418 
" clip-path="url(#pc512662e26)" style="fill: none; stroke: #ea0070"/>
    <path d="M 705.427334 320.4 
L 705.427334 320.393234 
" clip-path="url(#pc512662e26)" style="fill: none; stroke: #ea0070"/>
    <path d="M 719.308314 320.398849 
L 719.308314 320.396144 
" clip-path="url(#pc512662e26)" style="fill: none; stroke: #70a800"/>
    <path d="M 733.189295 317.928131 
L 733.189295 316.68136 
" clip-path="url(#pc512662e26)" style="fill: none; stroke: #70a800"/>
    <path d="M 747.070276 318.332331 
L 747.070276 318.176724 
" clip-path="url(#pc512662e26)" style="fill: none; stroke: #ea0070"/>
    <path d="M 760.951256 319.030455 
L 760.951256 318.078647 
" clip-path="url(#pc512662e26)" style="fill: none; stroke: #70a800"/>
    <path d="M 774.832237 318.523259 
L 774.832237 316.971678 
" clip-path="url(#pc512662e26)" style="fill: none; stroke: #ea0070"/>
    <path d="M 788.713218 320.231905 
L 788.713218 319.702879 
" clip-path="url(#pc512662e26)" style="fill: none; stroke: #ea0070"/>
    <path d="M 802.594198 320.214001 
L 802.594198 319.770401 
" clip-path="url(#pc512662e26)" style="fill: none; stroke: #70a800"/>
    <path d="M 816.475179 320.344581 
L 816.475179 319.838331 
" clip-path="url(#pc512662e26)" style="fill: none; stroke: #ea0070"/>
    <path d="M 830.35616 320.211068 
L 830.35616 319.843441 
" clip-path="url(#pc512662e26)" style="fill: none; stroke: #70a800"/>
    <path d="M 844.23714 312.95026 
L 844.23714 309.722815 
" clip-path="url(#pc512662e26)" style="fill: none; stroke: #70a800"/>
    <path d="M 858.118121 311.470897 
L 858.118121 304.766623 
" clip-path="url(#pc512662e26)" style="fill: none; stroke: #ea0070"/>
    <path d="M 871.999102 312.064322 
L 871.999102 307.491255 
" clip-path="url(#pc512662e26)" style="fill: none; stroke: #70a800"/>
    <path d="M 885.880082 302.909264 
L 885.880082 295.898114 
" clip-path="url(#pc512662e26)" style="fill: none; stroke: #70a800"/>
    <path d="M 899.761063 194.693929 
L 899.761063 150.703484 
" clip-path="url(#pc512662e26)" style="fill: none; stroke: #ea0070"/>
    <path d="M 913.642044 180.14253 
L 913.642044 149.502006 
" clip-path="url(#pc512662e26)" style="fill: none; stroke: #70a800"/>
    <path d="M 927.523024 111.108821 
L 927.523024 88.02696 
" clip-path="url(#pc512662e26)" style="fill: none; stroke: #70a800"/>
    <path d="M 941.404005 104.087515 
L 941.404005 89.871768 
" clip-path="url(#pc512662e26)" style="fill: none; stroke: #70a800"/>
    <path d="M 622.141449 308.554732 
L 622.141449 316.26489 
" clip-path="url(#pc512662e26)" style="fill: none; stroke: #ea0070"/>
    <path d="M 636.02243 312.868839 
L 636.02243 318.374427 
" clip-path="url(#pc512662e26)" style="fill: none; stroke: #ea0070"/>
    <path d="M 649.903411 294.110679 
L 649.903411 303.87534 
" clip-path="url(#pc512662e26)" style="fill: none; stroke: #70a800"/>
    <path d="M 663.784391 280.128735 
L 663.784391 292.210938 
" clip-path="url(#pc512662e26)" style="fill: none; stroke: #70a800"/>
    <path d="M 677.665372 243.878359 
L 677.665372 251.005161 
" clip-path="url(#pc512662e26)" style="fill: none; stroke: #70a800"/>
    <path d="M 691.546353 236.734199 
L 691.546353 249.399365 
" clip-path="url(#pc512662e26)" style="fill: none; stroke: #ea0070"/>
    <path d="M 705.427334 239.814875 
L 705.427334 257.898389 
" clip-path="url(#pc512662e26)" style="fill: none; stroke: #ea0070"/>
    <path d="M 719.308314 315.24246 
L 719.308314 316.72088 
" clip-path="url(#pc512662e26)" style="fill: none; stroke: #70a800"/>
    <path d="M 733.189295 303.61885 
L 733.189295 308.198308 
" clip-path="url(#pc512662e26)" style="fill: none; stroke: #70a800"/>
    <path d="M 747.070276 301.857702 
L 747.070276 308.886565 
" clip-path="url(#pc512662e26)" style="fill: none; stroke: #ea0070"/>
    <path d="M 760.951256 296.136779 
L 760.951256 308.330728 
" clip-path="url(#pc512662e26)" style="fill: none; stroke: #70a800"/>
    <path d="M 774.832237 302.142163 
L 774.832237 308.582428 
" clip-path="url(#pc512662e26)" style="fill: none; stroke: #ea0070"/>
    <path d="M 788.713218 314.777559 
L 788.713218 316.75944 
" clip-path="url(#pc512662e26)" style="fill: none; stroke: #ea0070"/>
    <path d="M 802.594198 308.641471 
L 802.594198 313.591257 
" clip-path="url(#pc512662e26)" style="fill: none; stroke: #70a800"/>
    <path d="M 816.475179 313.414961 
L 816.475179 313.022608 
" clip-path="url(#pc512662e26)" style="fill: none; stroke: #ea0070"/>
    <path d="M 830.35616 309.913576 
L 830.35616 309.378858 
" clip-path="url(#pc512662e26)" style="fill: none; stroke: #70a800"/>
    <path d="M 844.23714 265.440269 
L 844.23714 275.223502 
" clip-path="url(#pc512662e26)" style="fill: none; stroke: #70a800"/>
    <path d="M 858.118121 251.875419 
L 858.118121 274.988757 
" clip-path="url(#pc512662e26)" style="fill: none; stroke: #ea0070"/>
    <path d="M 871.999102 286.749852 
L 871.999102 293.648198 
" clip-path="url(#pc512662e26)" style="fill: none; stroke: #70a800"/>
    <path d="M 885.880082 139.13947 
L 885.880082 145.741832 
" clip-path="url(#pc512662e26)" style="fill: none; stroke: #70a800"/>
    <path d="M 899.761063 124.998967 
L 899.761063 141.879386 
" clip-path="url(#pc512662e26)" style="fill: none; stroke: #ea0070"/>
    <path d="M 913.642044 91.171944 
L 913.642044 86.189966 
" clip-path="url(#pc512662e26)" style="fill: none; stroke: #70a800"/>
    <path d="M 927.523024 76.129614 
L 927.523024 84.623377 
" clip-path="url(#pc512662e26)" style="fill: none; stroke: #70a800"/>
    <path d="M 941.404005 51.944881 
L 941.404005 43.2 
" clip-path="url(#pc512662e26)" style="fill: none; stroke: #70a800"/>
   </g>
   <g id="patch_8">
    <path d="M 591.545455 320.4 
L 591.545455 43.2 
" style="fill: none; stroke: #e6e6e6; stroke-width: 1.5; stroke-linejoin: miter; stroke-linecap: square"/>
   </g>
   <g id="patch_9">
    <path d="M 972 320.4 
L 972 43.2 
" style="fill: none; stroke: #e6e6e6; stroke-width: 1.5; stroke-linejoin: miter; stroke-linecap: square"/>
   </g>
   <g id="patch_10">
    <path d="M 591.545455 320.4 
L 972 320.4 
" style="fill: none; stroke: #e6e6e6; stroke-width: 1.5; stroke-linejoin: miter; stroke-linecap: square"/>
   </g>
   <g id="patch_11">
    <path d="M 591.545455 43.2 
L 972 43.2 
" style="fill: none; stroke: #e6e6e6; stroke-width: 1.5; stroke-linejoin: miter; stroke-linecap: square"/>
   </g>
   <g id="text_28">
    <!-- Predicted -->
    <g style="fill: #262626" transform="translate(751.357227 37.2) scale(0.144 -0.144)">
     <defs>
      <path id="ArialMT-50" d="M 494 0 
L 494 4581 
L 2222 4581 
Q 2678 4581 2919 4538 
Q 3256 4481 3484 4323 
Q 3713 4166 3852 3881 
Q 3991 3597 3991 3256 
Q 3991 2672 3619 2267 
Q 3247 1863 2275 1863 
L 1100 1863 
L 1100 0 
L 494 0 
z
M 1100 2403 
L 2284 2403 
Q 2872 2403 3119 2622 
Q 3366 2841 3366 3238 
Q 3366 3525 3220 3729 
Q 3075 3934 2838 4000 
Q 2684 4041 2272 4041 
L 1100 4041 
L 1100 2403 
z
" transform="scale(0.015625)"/>
      <path id="ArialMT-72" d="M 416 0 
L 416 3319 
L 922 3319 
L 922 2816 
Q 1116 3169 1280 3281 
Q 1444 3394 1641 3394 
Q 1925 3394 2219 3213 
L 2025 2691 
Q 1819 2813 1613 2813 
Q 1428 2813 1281 2702 
Q 1134 2591 1072 2394 
Q 978 2094 978 1738 
L 978 0 
L 416 0 
z
" transform="scale(0.015625)"/>
      <path id="ArialMT-65" d="M 2694 1069 
L 3275 997 
Q 3138 488 2766 206 
Q 2394 -75 1816 -75 
Q 1088 -75 661 373 
Q 234 822 234 1631 
Q 234 2469 665 2931 
Q 1097 3394 1784 3394 
Q 2450 3394 2872 2941 
Q 3294 2488 3294 1666 
Q 3294 1616 3291 1516 
L 816 1516 
Q 847 969 1125 678 
Q 1403 388 1819 388 
Q 2128 388 2347 550 
Q 2566 713 2694 1069 
z
M 847 1978 
L 2700 1978 
Q 2663 2397 2488 2606 
Q 2219 2931 1791 2931 
Q 1403 2931 1139 2672 
Q 875 2413 847 1978 
z
" transform="scale(0.015625)"/>
      <path id="ArialMT-64" d="M 2575 0 
L 2575 419 
Q 2259 -75 1647 -75 
Q 1250 -75 917 144 
Q 584 363 401 755 
Q 219 1147 219 1656 
Q 219 2153 384 2558 
Q 550 2963 881 3178 
Q 1213 3394 1622 3394 
Q 1922 3394 2156 3267 
Q 2391 3141 2538 2938 
L 2538 4581 
L 3097 4581 
L 3097 0 
L 2575 0 
z
M 797 1656 
Q 797 1019 1065 703 
Q 1334 388 1700 388 
Q 2069 388 2326 689 
Q 2584 991 2584 1609 
Q 2584 2291 2321 2609 
Q 2059 2928 1675 2928 
Q 1300 2928 1048 2622 
Q 797 2316 797 1656 
z
" transform="scale(0.015625)"/>
      <path id="ArialMT-69" d="M 425 3934 
L 425 4581 
L 988 4581 
L 988 3934 
L 425 3934 
z
M 425 0 
L 425 3319 
L 988 3319 
L 988 0 
L 425 0 
z
" transform="scale(0.015625)"/>
     </defs>
     <use xlink:href="#ArialMT-50"/>
     <use xlink:href="#ArialMT-72" x="66.699219"/>
     <use xlink:href="#ArialMT-65" x="100"/>
     <use xlink:href="#ArialMT-64" x="155.615234"/>
     <use xlink:href="#ArialMT-69" x="211.230469"/>
     <use xlink:href="#ArialMT-63" x="233.447266"/>
     <use xlink:href="#ArialMT-74" x="283.447266"/>
     <use xlink:href="#ArialMT-65" x="311.230469"/>
     <use xlink:href="#ArialMT-64" x="366.845703"/>
    </g>
   </g>
  </g>
  <g id="text_29">
   <!-- LSTM - ADA -->
   <g style="fill: #262626" transform="translate(490.41315 19.5687) scale(0.1728 -0.1728)">
    <defs>
     <path id="Arial-BoldMT-4c" d="M 491 0 
L 491 4544 
L 1416 4544 
L 1416 772 
L 3716 772 
L 3716 0 
L 491 0 
z
" transform="scale(0.015625)"/>
     <path id="Arial-BoldMT-53" d="M 231 1491 
L 1131 1578 
Q 1213 1125 1461 912 
Q 1709 700 2131 700 
Q 2578 700 2804 889 
Q 3031 1078 3031 1331 
Q 3031 1494 2936 1608 
Q 2841 1722 2603 1806 
Q 2441 1863 1863 2006 
Q 1119 2191 819 2459 
Q 397 2838 397 3381 
Q 397 3731 595 4036 
Q 794 4341 1167 4500 
Q 1541 4659 2069 4659 
Q 2931 4659 3367 4281 
Q 3803 3903 3825 3272 
L 2900 3231 
Q 2841 3584 2645 3739 
Q 2450 3894 2059 3894 
Q 1656 3894 1428 3728 
Q 1281 3622 1281 3444 
Q 1281 3281 1419 3166 
Q 1594 3019 2269 2859 
Q 2944 2700 3267 2529 
Q 3591 2359 3773 2064 
Q 3956 1769 3956 1334 
Q 3956 941 3737 597 
Q 3519 253 3119 86 
Q 2719 -81 2122 -81 
Q 1253 -81 787 320 
Q 322 722 231 1491 
z
" transform="scale(0.015625)"/>
     <path id="Arial-BoldMT-54" d="M 1497 0 
L 1497 3806 
L 138 3806 
L 138 4581 
L 3778 4581 
L 3778 3806 
L 2422 3806 
L 2422 0 
L 1497 0 
z
" transform="scale(0.015625)"/>
     <path id="Arial-BoldMT-4d" d="M 453 0 
L 453 4581 
L 1838 4581 
L 2669 1456 
L 3491 4581 
L 4878 4581 
L 4878 0 
L 4019 0 
L 4019 3606 
L 3109 0 
L 2219 0 
L 1313 3606 
L 1313 0 
L 453 0 
z
" transform="scale(0.015625)"/>
     <path id="Arial-BoldMT-20" transform="scale(0.015625)"/>
     <path id="Arial-BoldMT-2d" d="M 359 1222 
L 359 2100 
L 2084 2100 
L 2084 1222 
L 359 1222 
z
" transform="scale(0.015625)"/>
     <path id="Arial-BoldMT-41" d="M 4597 0 
L 3591 0 
L 3191 1041 
L 1359 1041 
L 981 0 
L 0 0 
L 1784 4581 
L 2763 4581 
L 4597 0 
z
M 2894 1813 
L 2263 3513 
L 1644 1813 
L 2894 1813 
z
" transform="scale(0.015625)"/>
     <path id="Arial-BoldMT-44" d="M 463 4581 
L 2153 4581 
Q 2725 4581 3025 4494 
Q 3428 4375 3715 4072 
Q 4003 3769 4153 3330 
Q 4303 2891 4303 2247 
Q 4303 1681 4163 1272 
Q 3991 772 3672 463 
Q 3431 228 3022 97 
Q 2716 0 2203 0 
L 463 0 
L 463 4581 
z
M 1388 3806 
L 1388 772 
L 2078 772 
Q 2466 772 2638 816 
Q 2863 872 3011 1006 
Q 3159 1141 3253 1448 
Q 3347 1756 3347 2288 
Q 3347 2819 3253 3103 
Q 3159 3388 2990 3547 
Q 2822 3706 2563 3763 
Q 2369 3806 1803 3806 
L 1388 3806 
z
" transform="scale(0.015625)"/>
    </defs>
    <use xlink:href="#Arial-BoldMT-4c"/>
    <use xlink:href="#Arial-BoldMT-53" x="61.083984"/>
    <use xlink:href="#Arial-BoldMT-54" x="127.783203"/>
    <use xlink:href="#Arial-BoldMT-4d" x="188.867188"/>
    <use xlink:href="#Arial-BoldMT-20" x="272.167969"/>
    <use xlink:href="#Arial-BoldMT-2d" x="299.951172"/>
    <use xlink:href="#Arial-BoldMT-20" x="333.251953"/>
    <use xlink:href="#Arial-BoldMT-41" x="357.285156"/>
    <use xlink:href="#Arial-BoldMT-44" x="429.501953"/>
    <use xlink:href="#Arial-BoldMT-41" x="501.71875"/>
   </g>
  </g>
 </g>
 <defs>
  <clipPath id="p650c2b3ca1">
   <rect x="135" y="43.2" width="380.454545" height="277.2"/>
  </clipPath>
  <clipPath id="pc512662e26">
   <rect x="591.545455" y="43.2" width="380.454545" height="277.2"/>
  </clipPath>
 </defs>
</svg>
