<?xml version="1.0" encoding="utf-8" standalone="no"?>
<!DOCTYPE svg PUBLIC "-//W3C//DTD SVG 1.1//EN"
  "http://www.w3.org/Graphics/SVG/1.1/DTD/svg11.dtd">
<svg xmlns:xlink="http://www.w3.org/1999/xlink" width="1080pt" height="360pt" viewBox="0 0 1080 360" xmlns="http://www.w3.org/2000/svg" version="1.1">
 <metadata>
  <rdf:RDF xmlns:dc="http://purl.org/dc/elements/1.1/" xmlns:cc="http://creativecommons.org/ns#" xmlns:rdf="http://www.w3.org/1999/02/22-rdf-syntax-ns#">
   <cc:Work>
    <dc:type rdf:resource="http://purl.org/dc/dcmitype/StillImage"/>
    <dc:date>2024-06-03T21:09:26.353443</dc:date>
    <dc:format>image/svg+xml</dc:format>
    <dc:creator>
     <cc:Agent>
      <dc:title>Matplotlib v3.9.0, https://matplotlib.org/</dc:title>
     </cc:Agent>
    </dc:creator>
   </cc:Work>
  </rdf:RDF>
 </metadata>
 <defs>
  <style type="text/css">*{stroke-linejoin: round; stroke-linecap: butt}</style>
 </defs>
 <g id="figure_1">
  <g id="patch_1">
   <path d="M 0 360 
L 1080 360 
L 1080 0 
L 0 0 
z
" style="fill: #ffffff"/>
  </g>
  <g id="axes_1">
   <g id="patch_2">
    <path d="M 135 320.4 
L 515.454545 320.4 
L 515.454545 43.2 
L 135 43.2 
z
" style="fill: #ffffff"/>
   </g>
   <g id="matplotlib.axis_1">
    <g id="xtick_1">
     <g id="line2d_1">
      <defs>
       <path id="m1c4bb5c5fb" d="M 0 0 
L 0 3.5 
" style="stroke: #000000; stroke-width: 0.8"/>
      </defs>
      <g>
       <use xlink:href="#m1c4bb5c5fb" x="165.595995" y="320.4" style="stroke: #000000; stroke-width: 0.8"/>
      </g>
     </g>
     <g id="text_1">
      <!-- 00:00 -->
      <g transform="translate(157.358201 353.15084) rotate(-45) scale(0.1 -0.1)">
       <defs>
        <path id="DejaVuSans-30" d="M 2034 4250 
Q 1547 4250 1301 3770 
Q 1056 3291 1056 2328 
Q 1056 1369 1301 889 
Q 1547 409 2034 409 
Q 2525 409 2770 889 
Q 3016 1369 3016 2328 
Q 3016 3291 2770 3770 
Q 2525 4250 2034 4250 
z
M 2034 4750 
Q 2819 4750 3233 4129 
Q 3647 3509 3647 2328 
Q 3647 1150 3233 529 
Q 2819 -91 2034 -91 
Q 1250 -91 836 529 
Q 422 1150 422 2328 
Q 422 3509 836 4129 
Q 1250 4750 2034 4750 
z
" transform="scale(0.015625)"/>
        <path id="DejaVuSans-3a" d="M 750 794 
L 1409 794 
L 1409 0 
L 750 0 
L 750 794 
z
M 750 3309 
L 1409 3309 
L 1409 2516 
L 750 2516 
L 750 3309 
z
" transform="scale(0.015625)"/>
       </defs>
       <use xlink:href="#DejaVuSans-30"/>
       <use xlink:href="#DejaVuSans-30" x="63.623047"/>
       <use xlink:href="#DejaVuSans-3a" x="127.246094"/>
       <use xlink:href="#DejaVuSans-30" x="160.9375"/>
       <use xlink:href="#DejaVuSans-30" x="224.560547"/>
      </g>
     </g>
    </g>
    <g id="xtick_2">
     <g id="line2d_2">
      <g>
       <use xlink:href="#m1c4bb5c5fb" x="235.000898" y="320.4" style="stroke: #000000; stroke-width: 0.8"/>
      </g>
     </g>
     <g id="text_2">
      <!-- 05:00 -->
      <g transform="translate(226.763104 353.15084) rotate(-45) scale(0.1 -0.1)">
       <defs>
        <path id="DejaVuSans-35" d="M 691 4666 
L 3169 4666 
L 3169 4134 
L 1269 4134 
L 1269 2991 
Q 1406 3038 1543 3061 
Q 1681 3084 1819 3084 
Q 2600 3084 3056 2656 
Q 3513 2228 3513 1497 
Q 3513 744 3044 326 
Q 2575 -91 1722 -91 
Q 1428 -91 1123 -41 
Q 819 9 494 109 
L 494 744 
Q 775 591 1075 516 
Q 1375 441 1709 441 
Q 2250 441 2565 725 
Q 2881 1009 2881 1497 
Q 2881 1984 2565 2268 
Q 2250 2553 1709 2553 
Q 1456 2553 1204 2497 
Q 953 2441 691 2322 
L 691 4666 
z
" transform="scale(0.015625)"/>
       </defs>
       <use xlink:href="#DejaVuSans-30"/>
       <use xlink:href="#DejaVuSans-35" x="63.623047"/>
       <use xlink:href="#DejaVuSans-3a" x="127.246094"/>
       <use xlink:href="#DejaVuSans-30" x="160.9375"/>
       <use xlink:href="#DejaVuSans-30" x="224.560547"/>
      </g>
     </g>
    </g>
    <g id="xtick_3">
     <g id="line2d_3">
      <g>
       <use xlink:href="#m1c4bb5c5fb" x="304.405802" y="320.4" style="stroke: #000000; stroke-width: 0.8"/>
      </g>
     </g>
     <g id="text_3">
      <!-- 10:00 -->
      <g transform="translate(296.168008 353.15084) rotate(-45) scale(0.1 -0.1)">
       <defs>
        <path id="DejaVuSans-31" d="M 794 531 
L 1825 531 
L 1825 4091 
L 703 3866 
L 703 4441 
L 1819 4666 
L 2450 4666 
L 2450 531 
L 3481 531 
L 3481 0 
L 794 0 
L 794 531 
z
" transform="scale(0.015625)"/>
       </defs>
       <use xlink:href="#DejaVuSans-31"/>
       <use xlink:href="#DejaVuSans-30" x="63.623047"/>
       <use xlink:href="#DejaVuSans-3a" x="127.246094"/>
       <use xlink:href="#DejaVuSans-30" x="160.9375"/>
       <use xlink:href="#DejaVuSans-30" x="224.560547"/>
      </g>
     </g>
    </g>
    <g id="xtick_4">
     <g id="line2d_4">
      <g>
       <use xlink:href="#m1c4bb5c5fb" x="373.810705" y="320.4" style="stroke: #000000; stroke-width: 0.8"/>
      </g>
     </g>
     <g id="text_4">
      <!-- 15:00 -->
      <g transform="translate(365.572911 353.15084) rotate(-45) scale(0.1 -0.1)">
       <use xlink:href="#DejaVuSans-31"/>
       <use xlink:href="#DejaVuSans-35" x="63.623047"/>
       <use xlink:href="#DejaVuSans-3a" x="127.246094"/>
       <use xlink:href="#DejaVuSans-30" x="160.9375"/>
       <use xlink:href="#DejaVuSans-30" x="224.560547"/>
      </g>
     </g>
    </g>
    <g id="xtick_5">
     <g id="line2d_5">
      <g>
       <use xlink:href="#m1c4bb5c5fb" x="443.215609" y="320.4" style="stroke: #000000; stroke-width: 0.8"/>
      </g>
     </g>
     <g id="text_5">
      <!-- 20:00 -->
      <g transform="translate(434.977815 353.15084) rotate(-45) scale(0.1 -0.1)">
       <defs>
        <path id="DejaVuSans-32" d="M 1228 531 
L 3431 531 
L 3431 0 
L 469 0 
L 469 531 
Q 828 903 1448 1529 
Q 2069 2156 2228 2338 
Q 2531 2678 2651 2914 
Q 2772 3150 2772 3378 
Q 2772 3750 2511 3984 
Q 2250 4219 1831 4219 
Q 1534 4219 1204 4116 
Q 875 4013 500 3803 
L 500 4441 
Q 881 4594 1212 4672 
Q 1544 4750 1819 4750 
Q 2544 4750 2975 4387 
Q 3406 4025 3406 3419 
Q 3406 3131 3298 2873 
Q 3191 2616 2906 2266 
Q 2828 2175 2409 1742 
Q 1991 1309 1228 531 
z
" transform="scale(0.015625)"/>
       </defs>
       <use xlink:href="#DejaVuSans-32"/>
       <use xlink:href="#DejaVuSans-30" x="63.623047"/>
       <use xlink:href="#DejaVuSans-3a" x="127.246094"/>
       <use xlink:href="#DejaVuSans-30" x="160.9375"/>
       <use xlink:href="#DejaVuSans-30" x="224.560547"/>
      </g>
     </g>
    </g>
    <g id="xtick_6">
     <g id="line2d_6">
      <g>
       <use xlink:href="#m1c4bb5c5fb" x="512.620512" y="320.4" style="stroke: #000000; stroke-width: 0.8"/>
      </g>
     </g>
    </g>
   </g>
   <g id="matplotlib.axis_2">
    <g id="ytick_1">
     <g id="line2d_7">
      <defs>
       <path id="m23c740068b" d="M 0 0 
L -3.5 0 
" style="stroke: #000000; stroke-width: 0.8"/>
      </defs>
      <g>
       <use xlink:href="#m23c740068b" x="135" y="273.733184" style="stroke: #000000; stroke-width: 0.8"/>
      </g>
     </g>
     <g id="text_6">
      <!-- 67000 -->
      <g transform="translate(96.1875 277.532403) scale(0.1 -0.1)">
       <defs>
        <path id="DejaVuSans-36" d="M 2113 2584 
Q 1688 2584 1439 2293 
Q 1191 2003 1191 1497 
Q 1191 994 1439 701 
Q 1688 409 2113 409 
Q 2538 409 2786 701 
Q 3034 994 3034 1497 
Q 3034 2003 2786 2293 
Q 2538 2584 2113 2584 
z
M 3366 4563 
L 3366 3988 
Q 3128 4100 2886 4159 
Q 2644 4219 2406 4219 
Q 1781 4219 1451 3797 
Q 1122 3375 1075 2522 
Q 1259 2794 1537 2939 
Q 1816 3084 2150 3084 
Q 2853 3084 3261 2657 
Q 3669 2231 3669 1497 
Q 3669 778 3244 343 
Q 2819 -91 2113 -91 
Q 1303 -91 875 529 
Q 447 1150 447 2328 
Q 447 3434 972 4092 
Q 1497 4750 2381 4750 
Q 2619 4750 2861 4703 
Q 3103 4656 3366 4563 
z
" transform="scale(0.015625)"/>
        <path id="DejaVuSans-37" d="M 525 4666 
L 3525 4666 
L 3525 4397 
L 1831 0 
L 1172 0 
L 2766 4134 
L 525 4134 
L 525 4666 
z
" transform="scale(0.015625)"/>
       </defs>
       <use xlink:href="#DejaVuSans-36"/>
       <use xlink:href="#DejaVuSans-37" x="63.623047"/>
       <use xlink:href="#DejaVuSans-30" x="127.246094"/>
       <use xlink:href="#DejaVuSans-30" x="190.869141"/>
       <use xlink:href="#DejaVuSans-30" x="254.492188"/>
      </g>
     </g>
    </g>
    <g id="ytick_2">
     <g id="line2d_8">
      <g>
       <use xlink:href="#m23c740068b" x="135" y="225.39633" style="stroke: #000000; stroke-width: 0.8"/>
      </g>
     </g>
     <g id="text_7">
      <!-- 68000 -->
      <g transform="translate(96.1875 229.195549) scale(0.1 -0.1)">
       <defs>
        <path id="DejaVuSans-38" d="M 2034 2216 
Q 1584 2216 1326 1975 
Q 1069 1734 1069 1313 
Q 1069 891 1326 650 
Q 1584 409 2034 409 
Q 2484 409 2743 651 
Q 3003 894 3003 1313 
Q 3003 1734 2745 1975 
Q 2488 2216 2034 2216 
z
M 1403 2484 
Q 997 2584 770 2862 
Q 544 3141 544 3541 
Q 544 4100 942 4425 
Q 1341 4750 2034 4750 
Q 2731 4750 3128 4425 
Q 3525 4100 3525 3541 
Q 3525 3141 3298 2862 
Q 3072 2584 2669 2484 
Q 3125 2378 3379 2068 
Q 3634 1759 3634 1313 
Q 3634 634 3220 271 
Q 2806 -91 2034 -91 
Q 1263 -91 848 271 
Q 434 634 434 1313 
Q 434 1759 690 2068 
Q 947 2378 1403 2484 
z
M 1172 3481 
Q 1172 3119 1398 2916 
Q 1625 2713 2034 2713 
Q 2441 2713 2670 2916 
Q 2900 3119 2900 3481 
Q 2900 3844 2670 4047 
Q 2441 4250 2034 4250 
Q 1625 4250 1398 4047 
Q 1172 3844 1172 3481 
z
" transform="scale(0.015625)"/>
       </defs>
       <use xlink:href="#DejaVuSans-36"/>
       <use xlink:href="#DejaVuSans-38" x="63.623047"/>
       <use xlink:href="#DejaVuSans-30" x="127.246094"/>
       <use xlink:href="#DejaVuSans-30" x="190.869141"/>
       <use xlink:href="#DejaVuSans-30" x="254.492188"/>
      </g>
     </g>
    </g>
    <g id="ytick_3">
     <g id="line2d_9">
      <g>
       <use xlink:href="#m23c740068b" x="135" y="177.059476" style="stroke: #000000; stroke-width: 0.8"/>
      </g>
     </g>
     <g id="text_8">
      <!-- 69000 -->
      <g transform="translate(96.1875 180.858695) scale(0.1 -0.1)">
       <defs>
        <path id="DejaVuSans-39" d="M 703 97 
L 703 672 
Q 941 559 1184 500 
Q 1428 441 1663 441 
Q 2288 441 2617 861 
Q 2947 1281 2994 2138 
Q 2813 1869 2534 1725 
Q 2256 1581 1919 1581 
Q 1219 1581 811 2004 
Q 403 2428 403 3163 
Q 403 3881 828 4315 
Q 1253 4750 1959 4750 
Q 2769 4750 3195 4129 
Q 3622 3509 3622 2328 
Q 3622 1225 3098 567 
Q 2575 -91 1691 -91 
Q 1453 -91 1209 -44 
Q 966 3 703 97 
z
M 1959 2075 
Q 2384 2075 2632 2365 
Q 2881 2656 2881 3163 
Q 2881 3666 2632 3958 
Q 2384 4250 1959 4250 
Q 1534 4250 1286 3958 
Q 1038 3666 1038 3163 
Q 1038 2656 1286 2365 
Q 1534 2075 1959 2075 
z
" transform="scale(0.015625)"/>
       </defs>
       <use xlink:href="#DejaVuSans-36"/>
       <use xlink:href="#DejaVuSans-39" x="63.623047"/>
       <use xlink:href="#DejaVuSans-30" x="127.246094"/>
       <use xlink:href="#DejaVuSans-30" x="190.869141"/>
       <use xlink:href="#DejaVuSans-30" x="254.492188"/>
      </g>
     </g>
    </g>
    <g id="ytick_4">
     <g id="line2d_10">
      <g>
       <use xlink:href="#m23c740068b" x="135" y="128.722622" style="stroke: #000000; stroke-width: 0.8"/>
      </g>
     </g>
     <g id="text_9">
      <!-- 70000 -->
      <g transform="translate(96.1875 132.521841) scale(0.1 -0.1)">
       <use xlink:href="#DejaVuSans-37"/>
       <use xlink:href="#DejaVuSans-30" x="63.623047"/>
       <use xlink:href="#DejaVuSans-30" x="127.246094"/>
       <use xlink:href="#DejaVuSans-30" x="190.869141"/>
       <use xlink:href="#DejaVuSans-30" x="254.492188"/>
      </g>
     </g>
    </g>
    <g id="ytick_5">
     <g id="line2d_11">
      <g>
       <use xlink:href="#m23c740068b" x="135" y="80.385768" style="stroke: #000000; stroke-width: 0.8"/>
      </g>
     </g>
     <g id="text_10">
      <!-- 71000 -->
      <g transform="translate(96.1875 84.184987) scale(0.1 -0.1)">
       <use xlink:href="#DejaVuSans-37"/>
       <use xlink:href="#DejaVuSans-31" x="63.623047"/>
       <use xlink:href="#DejaVuSans-30" x="127.246094"/>
       <use xlink:href="#DejaVuSans-30" x="190.869141"/>
       <use xlink:href="#DejaVuSans-30" x="254.492188"/>
      </g>
     </g>
    </g>
    <g id="text_11">
     <!-- Price -->
     <g transform="translate(90.107812 193.997656) rotate(-90) scale(0.1 -0.1)">
      <defs>
       <path id="DejaVuSans-50" d="M 1259 4147 
L 1259 2394 
L 2053 2394 
Q 2494 2394 2734 2622 
Q 2975 2850 2975 3272 
Q 2975 3691 2734 3919 
Q 2494 4147 2053 4147 
L 1259 4147 
z
M 628 4666 
L 2053 4666 
Q 2838 4666 3239 4311 
Q 3641 3956 3641 3272 
Q 3641 2581 3239 2228 
Q 2838 1875 2053 1875 
L 1259 1875 
L 1259 0 
L 628 0 
L 628 4666 
z
" transform="scale(0.015625)"/>
       <path id="DejaVuSans-72" d="M 2631 2963 
Q 2534 3019 2420 3045 
Q 2306 3072 2169 3072 
Q 1681 3072 1420 2755 
Q 1159 2438 1159 1844 
L 1159 0 
L 581 0 
L 581 3500 
L 1159 3500 
L 1159 2956 
Q 1341 3275 1631 3429 
Q 1922 3584 2338 3584 
Q 2397 3584 2469 3576 
Q 2541 3569 2628 3553 
L 2631 2963 
z
" transform="scale(0.015625)"/>
       <path id="DejaVuSans-69" d="M 603 3500 
L 1178 3500 
L 1178 0 
L 603 0 
L 603 3500 
z
M 603 4863 
L 1178 4863 
L 1178 4134 
L 603 4134 
L 603 4863 
z
" transform="scale(0.015625)"/>
       <path id="DejaVuSans-63" d="M 3122 3366 
L 3122 2828 
Q 2878 2963 2633 3030 
Q 2388 3097 2138 3097 
Q 1578 3097 1268 2742 
Q 959 2388 959 1747 
Q 959 1106 1268 751 
Q 1578 397 2138 397 
Q 2388 397 2633 464 
Q 2878 531 3122 666 
L 3122 134 
Q 2881 22 2623 -34 
Q 2366 -91 2075 -91 
Q 1284 -91 818 406 
Q 353 903 353 1747 
Q 353 2603 823 3093 
Q 1294 3584 2113 3584 
Q 2378 3584 2631 3529 
Q 2884 3475 3122 3366 
z
" transform="scale(0.015625)"/>
       <path id="DejaVuSans-65" d="M 3597 1894 
L 3597 1613 
L 953 1613 
Q 991 1019 1311 708 
Q 1631 397 2203 397 
Q 2534 397 2845 478 
Q 3156 559 3463 722 
L 3463 178 
Q 3153 47 2828 -22 
Q 2503 -91 2169 -91 
Q 1331 -91 842 396 
Q 353 884 353 1716 
Q 353 2575 817 3079 
Q 1281 3584 2069 3584 
Q 2775 3584 3186 3129 
Q 3597 2675 3597 1894 
z
M 3022 2063 
Q 3016 2534 2758 2815 
Q 2500 3097 2075 3097 
Q 1594 3097 1305 2825 
Q 1016 2553 972 2059 
L 3022 2063 
z
" transform="scale(0.015625)"/>
      </defs>
      <use xlink:href="#DejaVuSans-50"/>
      <use xlink:href="#DejaVuSans-72" x="58.552734"/>
      <use xlink:href="#DejaVuSans-69" x="99.666016"/>
      <use xlink:href="#DejaVuSans-63" x="127.449219"/>
      <use xlink:href="#DejaVuSans-65" x="182.429688"/>
     </g>
    </g>
   </g>
   <g id="PolyCollection_1">
    <path d="M 161.084676 310.69396 
L 161.084676 301.360113 
L 170.107314 301.360113 
L 170.107314 310.69396 
z
" clip-path="url(#pafd5ae3261)" style="fill: #70a800; fill-opacity: 0.9; stroke: #70a800"/>
    <path d="M 174.965657 301.360113 
L 174.965657 298.817595 
L 183.988294 298.817595 
L 183.988294 301.360113 
z
" clip-path="url(#pafd5ae3261)" style="fill: #70a800; fill-opacity: 0.9; stroke: #70a800"/>
    <path d="M 188.846638 298.817595 
L 188.846638 290.716338 
L 197.869275 290.716338 
L 197.869275 298.817595 
z
" clip-path="url(#pafd5ae3261)" style="fill: #70a800; fill-opacity: 0.9; stroke: #70a800"/>
    <path d="M 202.727618 290.716338 
L 202.727618 290.677668 
L 211.750256 290.677668 
L 211.750256 290.716338 
z
" clip-path="url(#pafd5ae3261)" style="fill: #70a800; fill-opacity: 0.9; stroke: #70a800"/>
    <path d="M 216.608599 290.677668 
L 216.608599 267.891676 
L 225.631236 267.891676 
L 225.631236 290.677668 
z
" clip-path="url(#pafd5ae3261)" style="fill: #70a800; fill-opacity: 0.9; stroke: #70a800"/>
    <path d="M 230.48958 267.891676 
L 230.48958 267.509814 
L 239.512217 267.509814 
L 239.512217 267.891676 
z
" clip-path="url(#pafd5ae3261)" style="fill: #70a800; fill-opacity: 0.9; stroke: #70a800"/>
    <path d="M 244.37056 267.509814 
L 244.37056 303.59811 
L 253.393198 303.59811 
L 253.393198 267.509814 
z
" clip-path="url(#pafd5ae3261)" style="fill: #ea0070; fill-opacity: 0.9; stroke: #ea0070"/>
    <path d="M 258.251541 303.59811 
L 258.251541 283.547983 
L 267.274178 283.547983 
L 267.274178 303.59811 
z
" clip-path="url(#pafd5ae3261)" style="fill: #70a800; fill-opacity: 0.9; stroke: #70a800"/>
    <path d="M 272.132522 283.547983 
L 272.132522 286.419192 
L 281.155159 286.419192 
L 281.155159 283.547983 
z
" clip-path="url(#pafd5ae3261)" style="fill: #ea0070; fill-opacity: 0.9; stroke: #ea0070"/>
    <path d="M 286.013502 286.419192 
L 286.013502 279.43935 
L 295.03614 279.43935 
L 295.03614 286.419192 
z
" clip-path="url(#pafd5ae3261)" style="fill: #70a800; fill-opacity: 0.9; stroke: #70a800"/>
    <path d="M 299.894483 279.43935 
L 299.894483 269.216105 
L 308.91712 269.216105 
L 308.91712 279.43935 
z
" clip-path="url(#pafd5ae3261)" style="fill: #70a800; fill-opacity: 0.9; stroke: #70a800"/>
    <path d="M 313.775464 269.216105 
L 313.775464 274.799012 
L 322.798101 274.799012 
L 322.798101 269.216105 
z
" clip-path="url(#pafd5ae3261)" style="fill: #ea0070; fill-opacity: 0.9; stroke: #ea0070"/>
    <path d="M 327.656444 274.799012 
L 327.656444 278.255097 
L 336.679082 278.255097 
L 336.679082 274.799012 
z
" clip-path="url(#pafd5ae3261)" style="fill: #ea0070; fill-opacity: 0.9; stroke: #ea0070"/>
    <path d="M 341.537425 278.255097 
L 341.537425 269.902489 
L 350.560062 269.902489 
L 350.560062 278.255097 
z
" clip-path="url(#pafd5ae3261)" style="fill: #70a800; fill-opacity: 0.9; stroke: #70a800"/>
    <path d="M 355.418406 269.902489 
L 355.418406 274.794178 
L 364.441043 274.794178 
L 364.441043 269.902489 
z
" clip-path="url(#pafd5ae3261)" style="fill: #ea0070; fill-opacity: 0.9; stroke: #ea0070"/>
    <path d="M 369.299386 274.794178 
L 369.299386 254.08667 
L 378.322024 254.08667 
L 378.322024 274.794178 
z
" clip-path="url(#pafd5ae3261)" style="fill: #70a800; fill-opacity: 0.9; stroke: #70a800"/>
    <path d="M 383.180367 254.08667 
L 383.180367 216.214745 
L 392.203005 216.214745 
L 392.203005 254.08667 
z
" clip-path="url(#pafd5ae3261)" style="fill: #70a800; fill-opacity: 0.9; stroke: #70a800"/>
    <path d="M 397.061348 216.214745 
L 397.061348 208.940048 
L 406.083985 208.940048 
L 406.083985 216.214745 
z
" clip-path="url(#pafd5ae3261)" style="fill: #70a800; fill-opacity: 0.9; stroke: #70a800"/>
    <path d="M 410.942328 208.940048 
L 410.942328 189.842157 
L 419.964966 189.842157 
L 419.964966 208.940048 
z
" clip-path="url(#pafd5ae3261)" style="fill: #70a800; fill-opacity: 0.9; stroke: #70a800"/>
    <path d="M 424.823309 189.842157 
L 424.823309 125.728154 
L 433.845947 125.728154 
L 433.845947 189.842157 
z
" clip-path="url(#pafd5ae3261)" style="fill: #70a800; fill-opacity: 0.9; stroke: #70a800"/>
    <path d="M 438.70429 125.728154 
L 438.70429 150.950325 
L 447.726927 150.950325 
L 447.726927 125.728154 
z
" clip-path="url(#pafd5ae3261)" style="fill: #ea0070; fill-opacity: 0.9; stroke: #ea0070"/>
    <path d="M 452.58527 150.950325 
L 452.58527 139.58633 
L 461.607908 139.58633 
L 461.607908 150.950325 
z
" clip-path="url(#pafd5ae3261)" style="fill: #70a800; fill-opacity: 0.9; stroke: #70a800"/>
    <path d="M 466.466251 139.58633 
L 466.466251 143.221262 
L 475.488889 143.221262 
L 475.488889 139.58633 
z
" clip-path="url(#pafd5ae3261)" style="fill: #ea0070; fill-opacity: 0.9; stroke: #ea0070"/>
    <path d="M 480.347232 143.221262 
L 480.347232 56.321266 
L 489.369869 56.321266 
L 489.369869 143.221262 
z
" clip-path="url(#pafd5ae3261)" style="fill: #70a800; fill-opacity: 0.9; stroke: #70a800"/>
   </g>
   <g id="LineCollection_1">
    <path d="M 165.595995 316.547553 
L 165.595995 310.69396 
" clip-path="url(#pafd5ae3261)" style="fill: none; stroke: #70a800"/>
    <path d="M 179.476976 320.4 
L 179.476976 301.360113 
" clip-path="url(#pafd5ae3261)" style="fill: none; stroke: #70a800"/>
    <path d="M 193.357956 299.455641 
L 193.357956 298.817595 
" clip-path="url(#pafd5ae3261)" style="fill: none; stroke: #70a800"/>
    <path d="M 207.238937 295.675699 
L 207.238937 290.716338 
" clip-path="url(#pafd5ae3261)" style="fill: none; stroke: #70a800"/>
    <path d="M 221.119918 293.510208 
L 221.119918 290.677668 
" clip-path="url(#pafd5ae3261)" style="fill: none; stroke: #70a800"/>
    <path d="M 235.000898 272.036561 
L 235.000898 267.891676 
" clip-path="url(#pafd5ae3261)" style="fill: none; stroke: #70a800"/>
    <path d="M 248.881879 309.519374 
L 248.881879 303.59811 
" clip-path="url(#pafd5ae3261)" style="fill: none; stroke: #ea0070"/>
    <path d="M 262.76286 306.44515 
L 262.76286 303.59811 
" clip-path="url(#pafd5ae3261)" style="fill: none; stroke: #70a800"/>
    <path d="M 276.64384 287.330341 
L 276.64384 286.419192 
" clip-path="url(#pafd5ae3261)" style="fill: none; stroke: #ea0070"/>
    <path d="M 290.524821 286.907394 
L 290.524821 286.419192 
" clip-path="url(#pafd5ae3261)" style="fill: none; stroke: #70a800"/>
    <path d="M 304.405802 280.981296 
L 304.405802 279.43935 
" clip-path="url(#pafd5ae3261)" style="fill: none; stroke: #70a800"/>
    <path d="M 318.286782 279.139661 
L 318.286782 274.799012 
" clip-path="url(#pafd5ae3261)" style="fill: none; stroke: #ea0070"/>
    <path d="M 332.167763 285.012589 
L 332.167763 278.255097 
" clip-path="url(#pafd5ae3261)" style="fill: none; stroke: #ea0070"/>
    <path d="M 346.048744 285.814981 
L 346.048744 278.255097 
" clip-path="url(#pafd5ae3261)" style="fill: none; stroke: #70a800"/>
    <path d="M 359.929724 286.598038 
L 359.929724 274.794178 
" clip-path="url(#pafd5ae3261)" style="fill: none; stroke: #ea0070"/>
    <path d="M 373.810705 279.956554 
L 373.810705 274.794178 
" clip-path="url(#pafd5ae3261)" style="fill: none; stroke: #70a800"/>
    <path d="M 387.691686 256.718612 
L 387.691686 254.08667 
" clip-path="url(#pafd5ae3261)" style="fill: none; stroke: #70a800"/>
    <path d="M 401.572666 222.977071 
L 401.572666 216.214745 
" clip-path="url(#pafd5ae3261)" style="fill: none; stroke: #70a800"/>
    <path d="M 415.453647 211.584074 
L 415.453647 208.940048 
" clip-path="url(#pafd5ae3261)" style="fill: none; stroke: #70a800"/>
    <path d="M 429.334628 196.077612 
L 429.334628 189.842157 
" clip-path="url(#pafd5ae3261)" style="fill: none; stroke: #70a800"/>
    <path d="M 443.215609 166.065259 
L 443.215609 150.950325 
" clip-path="url(#pafd5ae3261)" style="fill: none; stroke: #ea0070"/>
    <path d="M 457.096589 180.244875 
L 457.096589 150.950325 
" clip-path="url(#pafd5ae3261)" style="fill: none; stroke: #70a800"/>
    <path d="M 470.97757 147.900269 
L 470.97757 143.221262 
" clip-path="url(#pafd5ae3261)" style="fill: none; stroke: #ea0070"/>
    <path d="M 484.858551 143.221262 
L 484.858551 143.221262 
" clip-path="url(#pafd5ae3261)" style="fill: none; stroke: #70a800"/>
    <path d="M 165.595995 299.644155 
L 165.595995 301.360113 
" clip-path="url(#pafd5ae3261)" style="fill: none; stroke: #70a800"/>
    <path d="M 179.476976 295.487185 
L 179.476976 298.817595 
" clip-path="url(#pafd5ae3261)" style="fill: none; stroke: #70a800"/>
    <path d="M 193.357956 286.540034 
L 193.357956 290.716338 
" clip-path="url(#pafd5ae3261)" style="fill: none; stroke: #70a800"/>
    <path d="M 207.238937 286.448194 
L 207.238937 290.677668 
" clip-path="url(#pafd5ae3261)" style="fill: none; stroke: #70a800"/>
    <path d="M 221.119918 267.074783 
L 221.119918 267.891676 
" clip-path="url(#pafd5ae3261)" style="fill: none; stroke: #70a800"/>
    <path d="M 235.000898 259.833922 
L 235.000898 267.509814 
" clip-path="url(#pafd5ae3261)" style="fill: none; stroke: #70a800"/>
    <path d="M 248.881879 266.475406 
L 248.881879 267.509814 
" clip-path="url(#pafd5ae3261)" style="fill: none; stroke: #ea0070"/>
    <path d="M 262.76286 279.971055 
L 262.76286 283.547983 
" clip-path="url(#pafd5ae3261)" style="fill: none; stroke: #70a800"/>
    <path d="M 276.64384 271.908468 
L 276.64384 283.547983 
" clip-path="url(#pafd5ae3261)" style="fill: none; stroke: #ea0070"/>
    <path d="M 290.524821 274.774844 
L 290.524821 279.43935 
" clip-path="url(#pafd5ae3261)" style="fill: none; stroke: #70a800"/>
    <path d="M 304.405802 257.042469 
L 304.405802 269.216105 
" clip-path="url(#pafd5ae3261)" style="fill: none; stroke: #70a800"/>
    <path d="M 318.286782 259.278048 
L 318.286782 269.216105 
" clip-path="url(#pafd5ae3261)" style="fill: none; stroke: #ea0070"/>
    <path d="M 332.167763 270.062 
L 332.167763 274.799012 
" clip-path="url(#pafd5ae3261)" style="fill: none; stroke: #ea0070"/>
    <path d="M 346.048744 265.047052 
L 346.048744 269.902489 
" clip-path="url(#pafd5ae3261)" style="fill: none; stroke: #70a800"/>
    <path d="M 359.929724 269.191937 
L 359.929724 269.902489 
" clip-path="url(#pafd5ae3261)" style="fill: none; stroke: #ea0070"/>
    <path d="M 373.810705 250.509743 
L 373.810705 254.08667 
" clip-path="url(#pafd5ae3261)" style="fill: none; stroke: #70a800"/>
    <path d="M 387.691686 213.382205 
L 387.691686 216.214745 
" clip-path="url(#pafd5ae3261)" style="fill: none; stroke: #70a800"/>
    <path d="M 401.572666 195.072205 
L 401.572666 208.940048 
" clip-path="url(#pafd5ae3261)" style="fill: none; stroke: #70a800"/>
    <path d="M 415.453647 187.95702 
L 415.453647 189.842157 
" clip-path="url(#pafd5ae3261)" style="fill: none; stroke: #70a800"/>
    <path d="M 429.334628 122.924617 
L 429.334628 125.728154 
" clip-path="url(#pafd5ae3261)" style="fill: none; stroke: #70a800"/>
    <path d="M 443.215609 105.639358 
L 443.215609 125.728154 
" clip-path="url(#pafd5ae3261)" style="fill: none; stroke: #ea0070"/>
    <path d="M 457.096589 137.203323 
L 457.096589 139.58633 
" clip-path="url(#pafd5ae3261)" style="fill: none; stroke: #70a800"/>
    <path d="M 470.97757 127.482782 
L 470.97757 139.58633 
" clip-path="url(#pafd5ae3261)" style="fill: none; stroke: #ea0070"/>
    <path d="M 484.858551 46.586223 
L 484.858551 56.321266 
" clip-path="url(#pafd5ae3261)" style="fill: none; stroke: #70a800"/>
   </g>
   <g id="patch_3">
    <path d="M 135 320.4 
L 135 43.2 
" style="fill: none; stroke: #000000; stroke-width: 0.8; stroke-linejoin: miter; stroke-linecap: square"/>
   </g>
   <g id="patch_4">
    <path d="M 515.454545 320.4 
L 515.454545 43.2 
" style="fill: none; stroke: #000000; stroke-width: 0.8; stroke-linejoin: miter; stroke-linecap: square"/>
   </g>
   <g id="patch_5">
    <path d="M 135 320.4 
L 515.454545 320.4 
" style="fill: none; stroke: #000000; stroke-width: 0.8; stroke-linejoin: miter; stroke-linecap: square"/>
   </g>
   <g id="patch_6">
    <path d="M 135 43.2 
L 515.454545 43.2 
" style="fill: none; stroke: #000000; stroke-width: 0.8; stroke-linejoin: miter; stroke-linecap: square"/>
   </g>
   <g id="text_12">
    <!-- Actual -->
    <g transform="translate(306.430398 37.2) scale(0.12 -0.12)">
     <defs>
      <path id="DejaVuSans-41" d="M 2188 4044 
L 1331 1722 
L 3047 1722 
L 2188 4044 
z
M 1831 4666 
L 2547 4666 
L 4325 0 
L 3669 0 
L 3244 1197 
L 1141 1197 
L 716 0 
L 50 0 
L 1831 4666 
z
" transform="scale(0.015625)"/>
      <path id="DejaVuSans-74" d="M 1172 4494 
L 1172 3500 
L 2356 3500 
L 2356 3053 
L 1172 3053 
L 1172 1153 
Q 1172 725 1289 603 
Q 1406 481 1766 481 
L 2356 481 
L 2356 0 
L 1766 0 
Q 1100 0 847 248 
Q 594 497 594 1153 
L 594 3053 
L 172 3053 
L 172 3500 
L 594 3500 
L 594 4494 
L 1172 4494 
z
" transform="scale(0.015625)"/>
      <path id="DejaVuSans-75" d="M 544 1381 
L 544 3500 
L 1119 3500 
L 1119 1403 
Q 1119 906 1312 657 
Q 1506 409 1894 409 
Q 2359 409 2629 706 
Q 2900 1003 2900 1516 
L 2900 3500 
L 3475 3500 
L 3475 0 
L 2900 0 
L 2900 538 
Q 2691 219 2414 64 
Q 2138 -91 1772 -91 
Q 1169 -91 856 284 
Q 544 659 544 1381 
z
M 1991 3584 
L 1991 3584 
z
" transform="scale(0.015625)"/>
      <path id="DejaVuSans-61" d="M 2194 1759 
Q 1497 1759 1228 1600 
Q 959 1441 959 1056 
Q 959 750 1161 570 
Q 1363 391 1709 391 
Q 2188 391 2477 730 
Q 2766 1069 2766 1631 
L 2766 1759 
L 2194 1759 
z
M 3341 1997 
L 3341 0 
L 2766 0 
L 2766 531 
Q 2569 213 2275 61 
Q 1981 -91 1556 -91 
Q 1019 -91 701 211 
Q 384 513 384 1019 
Q 384 1609 779 1909 
Q 1175 2209 1959 2209 
L 2766 2209 
L 2766 2266 
Q 2766 2663 2505 2880 
Q 2244 3097 1772 3097 
Q 1472 3097 1187 3025 
Q 903 2953 641 2809 
L 641 3341 
Q 956 3463 1253 3523 
Q 1550 3584 1831 3584 
Q 2591 3584 2966 3190 
Q 3341 2797 3341 1997 
z
" transform="scale(0.015625)"/>
      <path id="DejaVuSans-6c" d="M 603 4863 
L 1178 4863 
L 1178 0 
L 603 0 
L 603 4863 
z
" transform="scale(0.015625)"/>
     </defs>
     <use xlink:href="#DejaVuSans-41"/>
     <use xlink:href="#DejaVuSans-63" x="66.658203"/>
     <use xlink:href="#DejaVuSans-74" x="121.638672"/>
     <use xlink:href="#DejaVuSans-75" x="160.847656"/>
     <use xlink:href="#DejaVuSans-61" x="224.226562"/>
     <use xlink:href="#DejaVuSans-6c" x="285.505859"/>
    </g>
   </g>
  </g>
  <g id="axes_2">
   <g id="patch_7">
    <path d="M 591.545455 320.4 
L 972 320.4 
L 972 43.2 
L 591.545455 43.2 
z
" style="fill: #ffffff"/>
   </g>
   <g id="matplotlib.axis_3">
    <g id="xtick_7">
     <g id="line2d_12">
      <g>
       <use xlink:href="#m1c4bb5c5fb" x="622.141449" y="320.4" style="stroke: #000000; stroke-width: 0.8"/>
      </g>
     </g>
     <g id="text_13">
      <!-- 00:00 -->
      <g transform="translate(613.903655 353.15084) rotate(-45) scale(0.1 -0.1)">
       <use xlink:href="#DejaVuSans-30"/>
       <use xlink:href="#DejaVuSans-30" x="63.623047"/>
       <use xlink:href="#DejaVuSans-3a" x="127.246094"/>
       <use xlink:href="#DejaVuSans-30" x="160.9375"/>
       <use xlink:href="#DejaVuSans-30" x="224.560547"/>
      </g>
     </g>
    </g>
    <g id="xtick_8">
     <g id="line2d_13">
      <g>
       <use xlink:href="#m1c4bb5c5fb" x="691.546353" y="320.4" style="stroke: #000000; stroke-width: 0.8"/>
      </g>
     </g>
     <g id="text_14">
      <!-- 05:00 -->
      <g transform="translate(683.308559 353.15084) rotate(-45) scale(0.1 -0.1)">
       <use xlink:href="#DejaVuSans-30"/>
       <use xlink:href="#DejaVuSans-35" x="63.623047"/>
       <use xlink:href="#DejaVuSans-3a" x="127.246094"/>
       <use xlink:href="#DejaVuSans-30" x="160.9375"/>
       <use xlink:href="#DejaVuSans-30" x="224.560547"/>
      </g>
     </g>
    </g>
    <g id="xtick_9">
     <g id="line2d_14">
      <g>
       <use xlink:href="#m1c4bb5c5fb" x="760.951256" y="320.4" style="stroke: #000000; stroke-width: 0.8"/>
      </g>
     </g>
     <g id="text_15">
      <!-- 10:00 -->
      <g transform="translate(752.713462 353.15084) rotate(-45) scale(0.1 -0.1)">
       <use xlink:href="#DejaVuSans-31"/>
       <use xlink:href="#DejaVuSans-30" x="63.623047"/>
       <use xlink:href="#DejaVuSans-3a" x="127.246094"/>
       <use xlink:href="#DejaVuSans-30" x="160.9375"/>
       <use xlink:href="#DejaVuSans-30" x="224.560547"/>
      </g>
     </g>
    </g>
    <g id="xtick_10">
     <g id="line2d_15">
      <g>
       <use xlink:href="#m1c4bb5c5fb" x="830.35616" y="320.4" style="stroke: #000000; stroke-width: 0.8"/>
      </g>
     </g>
     <g id="text_16">
      <!-- 15:00 -->
      <g transform="translate(822.118366 353.15084) rotate(-45) scale(0.1 -0.1)">
       <use xlink:href="#DejaVuSans-31"/>
       <use xlink:href="#DejaVuSans-35" x="63.623047"/>
       <use xlink:href="#DejaVuSans-3a" x="127.246094"/>
       <use xlink:href="#DejaVuSans-30" x="160.9375"/>
       <use xlink:href="#DejaVuSans-30" x="224.560547"/>
      </g>
     </g>
    </g>
    <g id="xtick_11">
     <g id="line2d_16">
      <g>
       <use xlink:href="#m1c4bb5c5fb" x="899.761063" y="320.4" style="stroke: #000000; stroke-width: 0.8"/>
      </g>
     </g>
     <g id="text_17">
      <!-- 20:00 -->
      <g transform="translate(891.523269 353.15084) rotate(-45) scale(0.1 -0.1)">
       <use xlink:href="#DejaVuSans-32"/>
       <use xlink:href="#DejaVuSans-30" x="63.623047"/>
       <use xlink:href="#DejaVuSans-3a" x="127.246094"/>
       <use xlink:href="#DejaVuSans-30" x="160.9375"/>
       <use xlink:href="#DejaVuSans-30" x="224.560547"/>
      </g>
     </g>
    </g>
    <g id="xtick_12">
     <g id="line2d_17">
      <g>
       <use xlink:href="#m1c4bb5c5fb" x="969.165966" y="320.4" style="stroke: #000000; stroke-width: 0.8"/>
      </g>
     </g>
    </g>
   </g>
   <g id="matplotlib.axis_4">
    <g id="ytick_6">
     <g id="line2d_18">
      <g>
       <use xlink:href="#m23c740068b" x="591.545455" y="273.733184" style="stroke: #000000; stroke-width: 0.8"/>
      </g>
     </g>
     <g id="text_18">
      <!-- 67000 -->
      <g transform="translate(552.732955 277.532403) scale(0.1 -0.1)">
       <use xlink:href="#DejaVuSans-36"/>
       <use xlink:href="#DejaVuSans-37" x="63.623047"/>
       <use xlink:href="#DejaVuSans-30" x="127.246094"/>
       <use xlink:href="#DejaVuSans-30" x="190.869141"/>
       <use xlink:href="#DejaVuSans-30" x="254.492188"/>
      </g>
     </g>
    </g>
    <g id="ytick_7">
     <g id="line2d_19">
      <g>
       <use xlink:href="#m23c740068b" x="591.545455" y="225.39633" style="stroke: #000000; stroke-width: 0.8"/>
      </g>
     </g>
     <g id="text_19">
      <!-- 68000 -->
      <g transform="translate(552.732955 229.195549) scale(0.1 -0.1)">
       <use xlink:href="#DejaVuSans-36"/>
       <use xlink:href="#DejaVuSans-38" x="63.623047"/>
       <use xlink:href="#DejaVuSans-30" x="127.246094"/>
       <use xlink:href="#DejaVuSans-30" x="190.869141"/>
       <use xlink:href="#DejaVuSans-30" x="254.492188"/>
      </g>
     </g>
    </g>
    <g id="ytick_8">
     <g id="line2d_20">
      <g>
       <use xlink:href="#m23c740068b" x="591.545455" y="177.059476" style="stroke: #000000; stroke-width: 0.8"/>
      </g>
     </g>
     <g id="text_20">
      <!-- 69000 -->
      <g transform="translate(552.732955 180.858695) scale(0.1 -0.1)">
       <use xlink:href="#DejaVuSans-36"/>
       <use xlink:href="#DejaVuSans-39" x="63.623047"/>
       <use xlink:href="#DejaVuSans-30" x="127.246094"/>
       <use xlink:href="#DejaVuSans-30" x="190.869141"/>
       <use xlink:href="#DejaVuSans-30" x="254.492188"/>
      </g>
     </g>
    </g>
    <g id="ytick_9">
     <g id="line2d_21">
      <g>
       <use xlink:href="#m23c740068b" x="591.545455" y="128.722622" style="stroke: #000000; stroke-width: 0.8"/>
      </g>
     </g>
     <g id="text_21">
      <!-- 70000 -->
      <g transform="translate(552.732955 132.521841) scale(0.1 -0.1)">
       <use xlink:href="#DejaVuSans-37"/>
       <use xlink:href="#DejaVuSans-30" x="63.623047"/>
       <use xlink:href="#DejaVuSans-30" x="127.246094"/>
       <use xlink:href="#DejaVuSans-30" x="190.869141"/>
       <use xlink:href="#DejaVuSans-30" x="254.492188"/>
      </g>
     </g>
    </g>
    <g id="ytick_10">
     <g id="line2d_22">
      <g>
       <use xlink:href="#m23c740068b" x="591.545455" y="80.385768" style="stroke: #000000; stroke-width: 0.8"/>
      </g>
     </g>
     <g id="text_22">
      <!-- 71000 -->
      <g transform="translate(552.732955 84.184987) scale(0.1 -0.1)">
       <use xlink:href="#DejaVuSans-37"/>
       <use xlink:href="#DejaVuSans-31" x="63.623047"/>
       <use xlink:href="#DejaVuSans-30" x="127.246094"/>
       <use xlink:href="#DejaVuSans-30" x="190.869141"/>
       <use xlink:href="#DejaVuSans-30" x="254.492188"/>
      </g>
     </g>
    </g>
    <g id="text_23">
     <!-- Price -->
     <g transform="translate(546.653267 193.997656) rotate(-90) scale(0.1 -0.1)">
      <use xlink:href="#DejaVuSans-50"/>
      <use xlink:href="#DejaVuSans-72" x="58.552734"/>
      <use xlink:href="#DejaVuSans-69" x="99.666016"/>
      <use xlink:href="#DejaVuSans-63" x="127.449219"/>
      <use xlink:href="#DejaVuSans-65" x="182.429688"/>
     </g>
    </g>
   </g>
   <g id="PolyCollection_2">
    <path d="M 617.630131 282.356404 
L 617.630131 282.320151 
L 626.652768 282.320151 
L 626.652768 282.356404 
z
" clip-path="url(#pec4c02f26f)" style="fill: #70a800; fill-opacity: 0.9; stroke: #70a800"/>
    <path d="M 631.511111 282.292584 
L 631.511111 282.290318 
L 640.533749 282.290318 
L 640.533749 282.292584 
z
" clip-path="url(#pec4c02f26f)" style="fill: #70a800; fill-opacity: 0.9; stroke: #70a800"/>
    <path d="M 645.392092 282.255576 
L 645.392092 281.999542 
L 654.41473 281.999542 
L 654.41473 282.255576 
z
" clip-path="url(#pec4c02f26f)" style="fill: #70a800; fill-opacity: 0.9; stroke: #70a800"/>
    <path d="M 659.273073 281.804306 
L 659.273073 281.991989 
L 668.29571 281.991989 
L 668.29571 281.804306 
z
" clip-path="url(#pec4c02f26f)" style="fill: #ea0070; fill-opacity: 0.9; stroke: #ea0070"/>
    <path d="M 673.154053 281.857174 
L 673.154053 269.297523 
L 682.176691 269.297523 
L 682.176691 281.857174 
z
" clip-path="url(#pec4c02f26f)" style="fill: #70a800; fill-opacity: 0.9; stroke: #70a800"/>
    <path d="M 687.035034 269.589432 
L 687.035034 268.269987 
L 696.057672 268.269987 
L 696.057672 269.589432 
z
" clip-path="url(#pec4c02f26f)" style="fill: #70a800; fill-opacity: 0.9; stroke: #70a800"/>
    <path d="M 700.916015 268.444075 
L 700.916015 282.336389 
L 709.938652 282.336389 
L 709.938652 268.444075 
z
" clip-path="url(#pec4c02f26f)" style="fill: #ea0070; fill-opacity: 0.9; stroke: #ea0070"/>
    <path d="M 714.796995 282.329214 
L 714.796995 280.976537 
L 723.819633 280.976537 
L 723.819633 282.329214 
z
" clip-path="url(#pec4c02f26f)" style="fill: #70a800; fill-opacity: 0.9; stroke: #70a800"/>
    <path d="M 728.677976 280.455783 
L 728.677976 281.514285 
L 737.700614 281.514285 
L 737.700614 280.455783 
z
" clip-path="url(#pec4c02f26f)" style="fill: #ea0070; fill-opacity: 0.9; stroke: #ea0070"/>
    <path d="M 742.558957 281.23597 
L 742.558957 279.657092 
L 751.581594 279.657092 
L 751.581594 281.23597 
z
" clip-path="url(#pec4c02f26f)" style="fill: #70a800; fill-opacity: 0.9; stroke: #70a800"/>
    <path d="M 756.439938 278.768147 
L 756.439938 270.478377 
L 765.462575 270.478377 
L 765.462575 278.768147 
z
" clip-path="url(#pec4c02f26f)" style="fill: #70a800; fill-opacity: 0.9; stroke: #70a800"/>
    <path d="M 770.320918 270.513119 
L 770.320918 276.61678 
L 779.343556 276.61678 
L 779.343556 270.513119 
z
" clip-path="url(#pec4c02f26f)" style="fill: #ea0070; fill-opacity: 0.9; stroke: #ea0070"/>
    <path d="M 784.201899 275.807515 
L 784.201899 278.925242 
L 793.224536 278.925242 
L 793.224536 275.807515 
z
" clip-path="url(#pec4c02f26f)" style="fill: #ea0070; fill-opacity: 0.9; stroke: #ea0070"/>
    <path d="M 798.08288 278.632578 
L 798.08288 271.766856 
L 807.105517 271.766856 
L 807.105517 278.632578 
z
" clip-path="url(#pec4c02f26f)" style="fill: #70a800; fill-opacity: 0.9; stroke: #70a800"/>
    <path d="M 811.96386 270.985159 
L 811.96386 276.612248 
L 820.986498 276.612248 
L 820.986498 270.985159 
z
" clip-path="url(#pec4c02f26f)" style="fill: #ea0070; fill-opacity: 0.9; stroke: #ea0070"/>
    <path d="M 825.844841 276.262939 
L 825.844841 252.509151 
L 834.867478 252.509151 
L 834.867478 276.262939 
z
" clip-path="url(#pec4c02f26f)" style="fill: #70a800; fill-opacity: 0.9; stroke: #70a800"/>
    <path d="M 839.725822 253.66546 
L 839.725822 216.679081 
L 848.748459 216.679081 
L 848.748459 253.66546 
z
" clip-path="url(#pec4c02f26f)" style="fill: #70a800; fill-opacity: 0.9; stroke: #70a800"/>
    <path d="M 853.606802 215.413637 
L 853.606802 208.799041 
L 862.62944 208.799041 
L 862.62944 215.413637 
z
" clip-path="url(#pec4c02f26f)" style="fill: #70a800; fill-opacity: 0.9; stroke: #70a800"/>
    <path d="M 867.487783 208.695947 
L 867.487783 189.253958 
L 876.51042 189.253958 
L 876.51042 208.695947 
z
" clip-path="url(#pec4c02f26f)" style="fill: #70a800; fill-opacity: 0.9; stroke: #70a800"/>
    <path d="M 881.368764 189.57419 
L 881.368764 124.201238 
L 890.391401 124.201238 
L 890.391401 189.57419 
z
" clip-path="url(#pec4c02f26f)" style="fill: #70a800; fill-opacity: 0.9; stroke: #70a800"/>
    <path d="M 895.249744 119.628874 
L 895.249744 151.722657 
L 904.272382 151.722657 
L 904.272382 119.628874 
z
" clip-path="url(#pec4c02f26f)" style="fill: #ea0070; fill-opacity: 0.9; stroke: #ea0070"/>
    <path d="M 909.130725 150.167947 
L 909.130725 140.140316 
L 918.153362 140.140316 
L 918.153362 150.167947 
z
" clip-path="url(#pec4c02f26f)" style="fill: #70a800; fill-opacity: 0.9; stroke: #70a800"/>
    <path d="M 923.011706 139.919401 
L 923.011706 139.579911 
L 932.034343 139.579911 
L 932.034343 139.919401 
z
" clip-path="url(#pec4c02f26f)" style="fill: #70a800; fill-opacity: 0.9; stroke: #70a800"/>
    <path d="M 936.892686 141.299645 
L 936.892686 55.339725 
L 945.915324 55.339725 
L 945.915324 141.299645 
z
" clip-path="url(#pec4c02f26f)" style="fill: #70a800; fill-opacity: 0.9; stroke: #70a800"/>
   </g>
   <g id="LineCollection_2">
    <path d="M 622.141449 282.578451 
L 622.141449 282.356404 
" clip-path="url(#pec4c02f26f)" style="fill: none; stroke: #70a800"/>
    <path d="M 636.02243 282.581094 
L 636.02243 282.292584 
" clip-path="url(#pec4c02f26f)" style="fill: none; stroke: #70a800"/>
    <path d="M 649.903411 282.4527 
L 649.903411 282.255576 
" clip-path="url(#pec4c02f26f)" style="fill: none; stroke: #70a800"/>
    <path d="M 663.784391 282.322417 
L 663.784391 281.991989 
" clip-path="url(#pec4c02f26f)" style="fill: none; stroke: #ea0070"/>
    <path d="M 677.665372 282.193267 
L 677.665372 281.857174 
" clip-path="url(#pec4c02f26f)" style="fill: none; stroke: #70a800"/>
    <path d="M 691.546353 273.354042 
L 691.546353 269.589432 
" clip-path="url(#pec4c02f26f)" style="fill: none; stroke: #70a800"/>
    <path d="M 705.427334 282.56259 
L 705.427334 282.336389 
" clip-path="url(#pec4c02f26f)" style="fill: none; stroke: #ea0070"/>
    <path d="M 719.308314 282.537289 
L 719.308314 282.329214 
" clip-path="url(#pec4c02f26f)" style="fill: none; stroke: #70a800"/>
    <path d="M 733.189295 281.440647 
L 733.189295 281.514285 
" clip-path="url(#pec4c02f26f)" style="fill: none; stroke: #ea0070"/>
    <path d="M 747.070276 281.357945 
L 747.070276 281.23597 
" clip-path="url(#pec4c02f26f)" style="fill: none; stroke: #70a800"/>
    <path d="M 760.951256 279.504529 
L 760.951256 278.768147 
" clip-path="url(#pec4c02f26f)" style="fill: none; stroke: #70a800"/>
    <path d="M 774.832237 278.493609 
L 774.832237 276.61678 
" clip-path="url(#pec4c02f26f)" style="fill: none; stroke: #ea0070"/>
    <path d="M 788.713218 280.986733 
L 788.713218 278.925242 
" clip-path="url(#pec4c02f26f)" style="fill: none; stroke: #ea0070"/>
    <path d="M 802.594198 280.974272 
L 802.594198 278.632578 
" clip-path="url(#pec4c02f26f)" style="fill: none; stroke: #70a800"/>
    <path d="M 816.475179 281.291105 
L 816.475179 276.612248 
" clip-path="url(#pec4c02f26f)" style="fill: none; stroke: #ea0070"/>
    <path d="M 830.35616 279.050994 
L 830.35616 276.262939 
" clip-path="url(#pec4c02f26f)" style="fill: none; stroke: #70a800"/>
    <path d="M 844.23714 256.070218 
L 844.23714 253.66546 
" clip-path="url(#pec4c02f26f)" style="fill: none; stroke: #70a800"/>
    <path d="M 858.118121 223.514214 
L 858.118121 215.413637 
" clip-path="url(#pec4c02f26f)" style="fill: none; stroke: #70a800"/>
    <path d="M 871.999102 211.832556 
L 871.999102 208.695947 
" clip-path="url(#pec4c02f26f)" style="fill: none; stroke: #70a800"/>
    <path d="M 885.880082 196.366273 
L 885.880082 189.57419 
" clip-path="url(#pec4c02f26f)" style="fill: none; stroke: #70a800"/>
    <path d="M 899.761063 166.645905 
L 899.761063 151.722657 
" clip-path="url(#pec4c02f26f)" style="fill: none; stroke: #ea0070"/>
    <path d="M 913.642044 181.665072 
L 913.642044 150.167947 
" clip-path="url(#pec4c02f26f)" style="fill: none; stroke: #70a800"/>
    <path d="M 927.523024 148.357959 
L 927.523024 139.919401 
" clip-path="url(#pec4c02f26f)" style="fill: none; stroke: #70a800"/>
    <path d="M 941.404005 144.757618 
L 941.404005 141.299645 
" clip-path="url(#pec4c02f26f)" style="fill: none; stroke: #70a800"/>
    <path d="M 622.141449 282.062606 
L 622.141449 282.320151 
" clip-path="url(#pec4c02f26f)" style="fill: none; stroke: #70a800"/>
    <path d="M 636.02243 281.982171 
L 636.02243 282.290318 
" clip-path="url(#pec4c02f26f)" style="fill: none; stroke: #70a800"/>
    <path d="M 649.903411 281.178948 
L 649.903411 281.999542 
" clip-path="url(#pec4c02f26f)" style="fill: none; stroke: #70a800"/>
    <path d="M 663.784391 281.144961 
L 663.784391 281.804306 
" clip-path="url(#pec4c02f26f)" style="fill: none; stroke: #ea0070"/>
    <path d="M 677.665372 268.931975 
L 677.665372 269.297523 
" clip-path="url(#pec4c02f26f)" style="fill: none; stroke: #70a800"/>
    <path d="M 691.546353 255.773022 
L 691.546353 268.269987 
" clip-path="url(#pec4c02f26f)" style="fill: none; stroke: #70a800"/>
    <path d="M 705.427334 267.574012 
L 705.427334 268.444075 
" clip-path="url(#pec4c02f26f)" style="fill: none; stroke: #ea0070"/>
    <path d="M 719.308314 279.071008 
L 719.308314 280.976537 
" clip-path="url(#pec4c02f26f)" style="fill: none; stroke: #70a800"/>
    <path d="M 733.189295 273.514158 
L 733.189295 280.455783 
" clip-path="url(#pec4c02f26f)" style="fill: none; stroke: #ea0070"/>
    <path d="M 747.070276 275.796186 
L 747.070276 279.657092 
" clip-path="url(#pec4c02f26f)" style="fill: none; stroke: #70a800"/>
    <path d="M 760.951256 257.351522 
L 760.951256 270.478377 
" clip-path="url(#pec4c02f26f)" style="fill: none; stroke: #70a800"/>
    <path d="M 774.832237 257.673265 
L 774.832237 270.513119 
" clip-path="url(#pec4c02f26f)" style="fill: none; stroke: #ea0070"/>
    <path d="M 788.713218 271.246857 
L 788.713218 275.807515 
" clip-path="url(#pec4c02f26f)" style="fill: none; stroke: #ea0070"/>
    <path d="M 802.594198 266.208496 
L 802.594198 271.766856 
" clip-path="url(#pec4c02f26f)" style="fill: none; stroke: #70a800"/>
    <path d="M 816.475179 270.737055 
L 816.475179 270.985159 
" clip-path="url(#pec4c02f26f)" style="fill: none; stroke: #ea0070"/>
    <path d="M 830.35616 250.258844 
L 830.35616 252.509151 
" clip-path="url(#pec4c02f26f)" style="fill: none; stroke: #70a800"/>
    <path d="M 844.23714 213.256227 
L 844.23714 216.679081 
" clip-path="url(#pec4c02f26f)" style="fill: none; stroke: #70a800"/>
    <path d="M 858.118121 194.512857 
L 858.118121 208.799041 
" clip-path="url(#pec4c02f26f)" style="fill: none; stroke: #70a800"/>
    <path d="M 871.999102 187.014602 
L 871.999102 189.253958 
" clip-path="url(#pec4c02f26f)" style="fill: none; stroke: #70a800"/>
    <path d="M 885.880082 120.01217 
L 885.880082 124.201238 
" clip-path="url(#pec4c02f26f)" style="fill: none; stroke: #70a800"/>
    <path d="M 899.761063 99.116677 
L 899.761063 119.628874 
" clip-path="url(#pec4c02f26f)" style="fill: none; stroke: #ea0070"/>
    <path d="M 913.642044 133.443396 
L 913.642044 140.140316 
" clip-path="url(#pec4c02f26f)" style="fill: none; stroke: #70a800"/>
    <path d="M 927.523024 127.439808 
L 927.523024 139.579911 
" clip-path="url(#pec4c02f26f)" style="fill: none; stroke: #70a800"/>
    <path d="M 941.404005 43.2 
L 941.404005 55.339725 
" clip-path="url(#pec4c02f26f)" style="fill: none; stroke: #70a800"/>
   </g>
   <g id="patch_8">
    <path d="M 591.545455 320.4 
L 591.545455 43.2 
" style="fill: none; stroke: #000000; stroke-width: 0.8; stroke-linejoin: miter; stroke-linecap: square"/>
   </g>
   <g id="patch_9">
    <path d="M 972 320.4 
L 972 43.2 
" style="fill: none; stroke: #000000; stroke-width: 0.8; stroke-linejoin: miter; stroke-linecap: square"/>
   </g>
   <g id="patch_10">
    <path d="M 591.545455 320.4 
L 972 320.4 
" style="fill: none; stroke: #000000; stroke-width: 0.8; stroke-linejoin: miter; stroke-linecap: square"/>
   </g>
   <g id="patch_11">
    <path d="M 591.545455 43.2 
L 972 43.2 
" style="fill: none; stroke: #000000; stroke-width: 0.8; stroke-linejoin: miter; stroke-linecap: square"/>
   </g>
   <g id="text_24">
    <!-- Predicted -->
    <g transform="translate(753.608352 37.2) scale(0.12 -0.12)">
     <defs>
      <path id="DejaVuSans-64" d="M 2906 2969 
L 2906 4863 
L 3481 4863 
L 3481 0 
L 2906 0 
L 2906 525 
Q 2725 213 2448 61 
Q 2172 -91 1784 -91 
Q 1150 -91 751 415 
Q 353 922 353 1747 
Q 353 2572 751 3078 
Q 1150 3584 1784 3584 
Q 2172 3584 2448 3432 
Q 2725 3281 2906 2969 
z
M 947 1747 
Q 947 1113 1208 752 
Q 1469 391 1925 391 
Q 2381 391 2643 752 
Q 2906 1113 2906 1747 
Q 2906 2381 2643 2742 
Q 2381 3103 1925 3103 
Q 1469 3103 1208 2742 
Q 947 2381 947 1747 
z
" transform="scale(0.015625)"/>
     </defs>
     <use xlink:href="#DejaVuSans-50"/>
     <use xlink:href="#DejaVuSans-72" x="58.552734"/>
     <use xlink:href="#DejaVuSans-65" x="97.416016"/>
     <use xlink:href="#DejaVuSans-64" x="158.939453"/>
     <use xlink:href="#DejaVuSans-69" x="222.416016"/>
     <use xlink:href="#DejaVuSans-63" x="250.199219"/>
     <use xlink:href="#DejaVuSans-74" x="305.179688"/>
     <use xlink:href="#DejaVuSans-65" x="344.388672"/>
     <use xlink:href="#DejaVuSans-64" x="405.912109"/>
    </g>
   </g>
  </g>
  <g id="text_25">
   <!-- LSTM - BTC -->
   <g transform="translate(506.409375 16.318125) scale(0.12 -0.12)">
    <defs>
     <path id="DejaVuSans-4c" d="M 628 4666 
L 1259 4666 
L 1259 531 
L 3531 531 
L 3531 0 
L 628 0 
L 628 4666 
z
" transform="scale(0.015625)"/>
     <path id="DejaVuSans-53" d="M 3425 4513 
L 3425 3897 
Q 3066 4069 2747 4153 
Q 2428 4238 2131 4238 
Q 1616 4238 1336 4038 
Q 1056 3838 1056 3469 
Q 1056 3159 1242 3001 
Q 1428 2844 1947 2747 
L 2328 2669 
Q 3034 2534 3370 2195 
Q 3706 1856 3706 1288 
Q 3706 609 3251 259 
Q 2797 -91 1919 -91 
Q 1588 -91 1214 -16 
Q 841 59 441 206 
L 441 856 
Q 825 641 1194 531 
Q 1563 422 1919 422 
Q 2459 422 2753 634 
Q 3047 847 3047 1241 
Q 3047 1584 2836 1778 
Q 2625 1972 2144 2069 
L 1759 2144 
Q 1053 2284 737 2584 
Q 422 2884 422 3419 
Q 422 4038 858 4394 
Q 1294 4750 2059 4750 
Q 2388 4750 2728 4690 
Q 3069 4631 3425 4513 
z
" transform="scale(0.015625)"/>
     <path id="DejaVuSans-54" d="M -19 4666 
L 3928 4666 
L 3928 4134 
L 2272 4134 
L 2272 0 
L 1638 0 
L 1638 4134 
L -19 4134 
L -19 4666 
z
" transform="scale(0.015625)"/>
     <path id="DejaVuSans-4d" d="M 628 4666 
L 1569 4666 
L 2759 1491 
L 3956 4666 
L 4897 4666 
L 4897 0 
L 4281 0 
L 4281 4097 
L 3078 897 
L 2444 897 
L 1241 4097 
L 1241 0 
L 628 0 
L 628 4666 
z
" transform="scale(0.015625)"/>
     <path id="DejaVuSans-20" transform="scale(0.015625)"/>
     <path id="DejaVuSans-2d" d="M 313 2009 
L 1997 2009 
L 1997 1497 
L 313 1497 
L 313 2009 
z
" transform="scale(0.015625)"/>
     <path id="DejaVuSans-42" d="M 1259 2228 
L 1259 519 
L 2272 519 
Q 2781 519 3026 730 
Q 3272 941 3272 1375 
Q 3272 1813 3026 2020 
Q 2781 2228 2272 2228 
L 1259 2228 
z
M 1259 4147 
L 1259 2741 
L 2194 2741 
Q 2656 2741 2882 2914 
Q 3109 3088 3109 3444 
Q 3109 3797 2882 3972 
Q 2656 4147 2194 4147 
L 1259 4147 
z
M 628 4666 
L 2241 4666 
Q 2963 4666 3353 4366 
Q 3744 4066 3744 3513 
Q 3744 3084 3544 2831 
Q 3344 2578 2956 2516 
Q 3422 2416 3680 2098 
Q 3938 1781 3938 1306 
Q 3938 681 3513 340 
Q 3088 0 2303 0 
L 628 0 
L 628 4666 
z
" transform="scale(0.015625)"/>
     <path id="DejaVuSans-43" d="M 4122 4306 
L 4122 3641 
Q 3803 3938 3442 4084 
Q 3081 4231 2675 4231 
Q 1875 4231 1450 3742 
Q 1025 3253 1025 2328 
Q 1025 1406 1450 917 
Q 1875 428 2675 428 
Q 3081 428 3442 575 
Q 3803 722 4122 1019 
L 4122 359 
Q 3791 134 3420 21 
Q 3050 -91 2638 -91 
Q 1578 -91 968 557 
Q 359 1206 359 2328 
Q 359 3453 968 4101 
Q 1578 4750 2638 4750 
Q 3056 4750 3426 4639 
Q 3797 4528 4122 4306 
z
" transform="scale(0.015625)"/>
    </defs>
    <use xlink:href="#DejaVuSans-4c"/>
    <use xlink:href="#DejaVuSans-53" x="55.712891"/>
    <use xlink:href="#DejaVuSans-54" x="119.189453"/>
    <use xlink:href="#DejaVuSans-4d" x="180.273438"/>
    <use xlink:href="#DejaVuSans-20" x="266.552734"/>
    <use xlink:href="#DejaVuSans-2d" x="298.339844"/>
    <use xlink:href="#DejaVuSans-20" x="334.423828"/>
    <use xlink:href="#DejaVuSans-42" x="366.210938"/>
    <use xlink:href="#DejaVuSans-54" x="434.814453"/>
    <use xlink:href="#DejaVuSans-43" x="490.023438"/>
   </g>
  </g>
 </g>
 <defs>
  <clipPath id="pafd5ae3261">
   <rect x="135" y="43.2" width="380.454545" height="277.2"/>
  </clipPath>
  <clipPath id="pec4c02f26f">
   <rect x="591.545455" y="43.2" width="380.454545" height="277.2"/>
  </clipPath>
 </defs>
</svg>
