<?xml version="1.0" encoding="utf-8" standalone="no"?>
<!DOCTYPE svg PUBLIC "-//W3C//DTD SVG 1.1//EN"
  "http://www.w3.org/Graphics/SVG/1.1/DTD/svg11.dtd">
<svg xmlns:xlink="http://www.w3.org/1999/xlink" width="1080pt" height="360pt" viewBox="0 0 1080 360" xmlns="http://www.w3.org/2000/svg" version="1.1">
 <metadata>
  <rdf:RDF xmlns:dc="http://purl.org/dc/elements/1.1/" xmlns:cc="http://creativecommons.org/ns#" xmlns:rdf="http://www.w3.org/1999/02/22-rdf-syntax-ns#">
   <cc:Work>
    <dc:type rdf:resource="http://purl.org/dc/dcmitype/StillImage"/>
    <dc:date>2024-06-03T21:09:26.666229</dc:date>
    <dc:format>image/svg+xml</dc:format>
    <dc:creator>
     <cc:Agent>
      <dc:title>Matplotlib v3.9.0, https://matplotlib.org/</dc:title>
     </cc:Agent>
    </dc:creator>
   </cc:Work>
  </rdf:RDF>
 </metadata>
 <defs>
  <style type="text/css">*{stroke-linejoin: round; stroke-linecap: butt}</style>
 </defs>
 <g id="figure_1">
  <g id="patch_1">
   <path d="M 0 360 
L 1080 360 
L 1080 0 
L 0 0 
z
" style="fill: #ffffff"/>
  </g>
  <g id="axes_1">
   <g id="patch_2">
    <path d="M 135 320.4 
L 515.454545 320.4 
L 515.454545 43.2 
L 135 43.2 
z
" style="fill: #ffffff"/>
   </g>
   <g id="matplotlib.axis_1">
    <g id="xtick_1">
     <g id="line2d_1">
      <defs>
       <path id="m3fee2c7120" d="M 0 0 
L 0 3.5 
" style="stroke: #000000; stroke-width: 0.8"/>
      </defs>
      <g>
       <use xlink:href="#m3fee2c7120" x="165.595995" y="320.4" style="stroke: #000000; stroke-width: 0.8"/>
      </g>
     </g>
     <g id="text_1">
      <!-- 00:00 -->
      <g transform="translate(157.358201 353.15084) rotate(-45) scale(0.1 -0.1)">
       <defs>
        <path id="DejaVuSans-30" d="M 2034 4250 
Q 1547 4250 1301 3770 
Q 1056 3291 1056 2328 
Q 1056 1369 1301 889 
Q 1547 409 2034 409 
Q 2525 409 2770 889 
Q 3016 1369 3016 2328 
Q 3016 3291 2770 3770 
Q 2525 4250 2034 4250 
z
M 2034 4750 
Q 2819 4750 3233 4129 
Q 3647 3509 3647 2328 
Q 3647 1150 3233 529 
Q 2819 -91 2034 -91 
Q 1250 -91 836 529 
Q 422 1150 422 2328 
Q 422 3509 836 4129 
Q 1250 4750 2034 4750 
z
" transform="scale(0.015625)"/>
        <path id="DejaVuSans-3a" d="M 750 794 
L 1409 794 
L 1409 0 
L 750 0 
L 750 794 
z
M 750 3309 
L 1409 3309 
L 1409 2516 
L 750 2516 
L 750 3309 
z
" transform="scale(0.015625)"/>
       </defs>
       <use xlink:href="#DejaVuSans-30"/>
       <use xlink:href="#DejaVuSans-30" x="63.623047"/>
       <use xlink:href="#DejaVuSans-3a" x="127.246094"/>
       <use xlink:href="#DejaVuSans-30" x="160.9375"/>
       <use xlink:href="#DejaVuSans-30" x="224.560547"/>
      </g>
     </g>
    </g>
    <g id="xtick_2">
     <g id="line2d_2">
      <g>
       <use xlink:href="#m3fee2c7120" x="235.000898" y="320.4" style="stroke: #000000; stroke-width: 0.8"/>
      </g>
     </g>
     <g id="text_2">
      <!-- 05:00 -->
      <g transform="translate(226.763104 353.15084) rotate(-45) scale(0.1 -0.1)">
       <defs>
        <path id="DejaVuSans-35" d="M 691 4666 
L 3169 4666 
L 3169 4134 
L 1269 4134 
L 1269 2991 
Q 1406 3038 1543 3061 
Q 1681 3084 1819 3084 
Q 2600 3084 3056 2656 
Q 3513 2228 3513 1497 
Q 3513 744 3044 326 
Q 2575 -91 1722 -91 
Q 1428 -91 1123 -41 
Q 819 9 494 109 
L 494 744 
Q 775 591 1075 516 
Q 1375 441 1709 441 
Q 2250 441 2565 725 
Q 2881 1009 2881 1497 
Q 2881 1984 2565 2268 
Q 2250 2553 1709 2553 
Q 1456 2553 1204 2497 
Q 953 2441 691 2322 
L 691 4666 
z
" transform="scale(0.015625)"/>
       </defs>
       <use xlink:href="#DejaVuSans-30"/>
       <use xlink:href="#DejaVuSans-35" x="63.623047"/>
       <use xlink:href="#DejaVuSans-3a" x="127.246094"/>
       <use xlink:href="#DejaVuSans-30" x="160.9375"/>
       <use xlink:href="#DejaVuSans-30" x="224.560547"/>
      </g>
     </g>
    </g>
    <g id="xtick_3">
     <g id="line2d_3">
      <g>
       <use xlink:href="#m3fee2c7120" x="304.405802" y="320.4" style="stroke: #000000; stroke-width: 0.8"/>
      </g>
     </g>
     <g id="text_3">
      <!-- 10:00 -->
      <g transform="translate(296.168008 353.15084) rotate(-45) scale(0.1 -0.1)">
       <defs>
        <path id="DejaVuSans-31" d="M 794 531 
L 1825 531 
L 1825 4091 
L 703 3866 
L 703 4441 
L 1819 4666 
L 2450 4666 
L 2450 531 
L 3481 531 
L 3481 0 
L 794 0 
L 794 531 
z
" transform="scale(0.015625)"/>
       </defs>
       <use xlink:href="#DejaVuSans-31"/>
       <use xlink:href="#DejaVuSans-30" x="63.623047"/>
       <use xlink:href="#DejaVuSans-3a" x="127.246094"/>
       <use xlink:href="#DejaVuSans-30" x="160.9375"/>
       <use xlink:href="#DejaVuSans-30" x="224.560547"/>
      </g>
     </g>
    </g>
    <g id="xtick_4">
     <g id="line2d_4">
      <g>
       <use xlink:href="#m3fee2c7120" x="373.810705" y="320.4" style="stroke: #000000; stroke-width: 0.8"/>
      </g>
     </g>
     <g id="text_4">
      <!-- 15:00 -->
      <g transform="translate(365.572911 353.15084) rotate(-45) scale(0.1 -0.1)">
       <use xlink:href="#DejaVuSans-31"/>
       <use xlink:href="#DejaVuSans-35" x="63.623047"/>
       <use xlink:href="#DejaVuSans-3a" x="127.246094"/>
       <use xlink:href="#DejaVuSans-30" x="160.9375"/>
       <use xlink:href="#DejaVuSans-30" x="224.560547"/>
      </g>
     </g>
    </g>
    <g id="xtick_5">
     <g id="line2d_5">
      <g>
       <use xlink:href="#m3fee2c7120" x="443.215609" y="320.4" style="stroke: #000000; stroke-width: 0.8"/>
      </g>
     </g>
     <g id="text_5">
      <!-- 20:00 -->
      <g transform="translate(434.977815 353.15084) rotate(-45) scale(0.1 -0.1)">
       <defs>
        <path id="DejaVuSans-32" d="M 1228 531 
L 3431 531 
L 3431 0 
L 469 0 
L 469 531 
Q 828 903 1448 1529 
Q 2069 2156 2228 2338 
Q 2531 2678 2651 2914 
Q 2772 3150 2772 3378 
Q 2772 3750 2511 3984 
Q 2250 4219 1831 4219 
Q 1534 4219 1204 4116 
Q 875 4013 500 3803 
L 500 4441 
Q 881 4594 1212 4672 
Q 1544 4750 1819 4750 
Q 2544 4750 2975 4387 
Q 3406 4025 3406 3419 
Q 3406 3131 3298 2873 
Q 3191 2616 2906 2266 
Q 2828 2175 2409 1742 
Q 1991 1309 1228 531 
z
" transform="scale(0.015625)"/>
       </defs>
       <use xlink:href="#DejaVuSans-32"/>
       <use xlink:href="#DejaVuSans-30" x="63.623047"/>
       <use xlink:href="#DejaVuSans-3a" x="127.246094"/>
       <use xlink:href="#DejaVuSans-30" x="160.9375"/>
       <use xlink:href="#DejaVuSans-30" x="224.560547"/>
      </g>
     </g>
    </g>
    <g id="xtick_6">
     <g id="line2d_6">
      <g>
       <use xlink:href="#m3fee2c7120" x="512.620512" y="320.4" style="stroke: #000000; stroke-width: 0.8"/>
      </g>
     </g>
    </g>
   </g>
   <g id="matplotlib.axis_2">
    <g id="ytick_1">
     <g id="line2d_7">
      <defs>
       <path id="mc1a54ee8e0" d="M 0 0 
L -3.5 0 
" style="stroke: #000000; stroke-width: 0.8"/>
      </defs>
      <g>
       <use xlink:href="#mc1a54ee8e0" x="135" y="285.777742" style="stroke: #000000; stroke-width: 0.8"/>
      </g>
     </g>
     <g id="text_6">
      <!-- 0.1500 -->
      <g transform="translate(93.009375 289.576961) scale(0.1 -0.1)">
       <defs>
        <path id="DejaVuSans-2e" d="M 684 794 
L 1344 794 
L 1344 0 
L 684 0 
L 684 794 
z
" transform="scale(0.015625)"/>
       </defs>
       <use xlink:href="#DejaVuSans-30"/>
       <use xlink:href="#DejaVuSans-2e" x="63.623047"/>
       <use xlink:href="#DejaVuSans-31" x="95.410156"/>
       <use xlink:href="#DejaVuSans-35" x="159.033203"/>
       <use xlink:href="#DejaVuSans-30" x="222.65625"/>
       <use xlink:href="#DejaVuSans-30" x="286.279297"/>
      </g>
     </g>
    </g>
    <g id="ytick_2">
     <g id="line2d_8">
      <g>
       <use xlink:href="#mc1a54ee8e0" x="135" y="248.788151" style="stroke: #000000; stroke-width: 0.8"/>
      </g>
     </g>
     <g id="text_7">
      <!-- 0.1525 -->
      <g transform="translate(93.009375 252.587369) scale(0.1 -0.1)">
       <use xlink:href="#DejaVuSans-30"/>
       <use xlink:href="#DejaVuSans-2e" x="63.623047"/>
       <use xlink:href="#DejaVuSans-31" x="95.410156"/>
       <use xlink:href="#DejaVuSans-35" x="159.033203"/>
       <use xlink:href="#DejaVuSans-32" x="222.65625"/>
       <use xlink:href="#DejaVuSans-35" x="286.279297"/>
      </g>
     </g>
    </g>
    <g id="ytick_3">
     <g id="line2d_9">
      <g>
       <use xlink:href="#mc1a54ee8e0" x="135" y="211.798559" style="stroke: #000000; stroke-width: 0.8"/>
      </g>
     </g>
     <g id="text_8">
      <!-- 0.1550 -->
      <g transform="translate(93.009375 215.597778) scale(0.1 -0.1)">
       <use xlink:href="#DejaVuSans-30"/>
       <use xlink:href="#DejaVuSans-2e" x="63.623047"/>
       <use xlink:href="#DejaVuSans-31" x="95.410156"/>
       <use xlink:href="#DejaVuSans-35" x="159.033203"/>
       <use xlink:href="#DejaVuSans-35" x="222.65625"/>
       <use xlink:href="#DejaVuSans-30" x="286.279297"/>
      </g>
     </g>
    </g>
    <g id="ytick_4">
     <g id="line2d_10">
      <g>
       <use xlink:href="#mc1a54ee8e0" x="135" y="174.808967" style="stroke: #000000; stroke-width: 0.8"/>
      </g>
     </g>
     <g id="text_9">
      <!-- 0.1575 -->
      <g transform="translate(93.009375 178.608186) scale(0.1 -0.1)">
       <defs>
        <path id="DejaVuSans-37" d="M 525 4666 
L 3525 4666 
L 3525 4397 
L 1831 0 
L 1172 0 
L 2766 4134 
L 525 4134 
L 525 4666 
z
" transform="scale(0.015625)"/>
       </defs>
       <use xlink:href="#DejaVuSans-30"/>
       <use xlink:href="#DejaVuSans-2e" x="63.623047"/>
       <use xlink:href="#DejaVuSans-31" x="95.410156"/>
       <use xlink:href="#DejaVuSans-35" x="159.033203"/>
       <use xlink:href="#DejaVuSans-37" x="222.65625"/>
       <use xlink:href="#DejaVuSans-35" x="286.279297"/>
      </g>
     </g>
    </g>
    <g id="ytick_5">
     <g id="line2d_11">
      <g>
       <use xlink:href="#mc1a54ee8e0" x="135" y="137.819376" style="stroke: #000000; stroke-width: 0.8"/>
      </g>
     </g>
     <g id="text_10">
      <!-- 0.1600 -->
      <g transform="translate(93.009375 141.618594) scale(0.1 -0.1)">
       <defs>
        <path id="DejaVuSans-36" d="M 2113 2584 
Q 1688 2584 1439 2293 
Q 1191 2003 1191 1497 
Q 1191 994 1439 701 
Q 1688 409 2113 409 
Q 2538 409 2786 701 
Q 3034 994 3034 1497 
Q 3034 2003 2786 2293 
Q 2538 2584 2113 2584 
z
M 3366 4563 
L 3366 3988 
Q 3128 4100 2886 4159 
Q 2644 4219 2406 4219 
Q 1781 4219 1451 3797 
Q 1122 3375 1075 2522 
Q 1259 2794 1537 2939 
Q 1816 3084 2150 3084 
Q 2853 3084 3261 2657 
Q 3669 2231 3669 1497 
Q 3669 778 3244 343 
Q 2819 -91 2113 -91 
Q 1303 -91 875 529 
Q 447 1150 447 2328 
Q 447 3434 972 4092 
Q 1497 4750 2381 4750 
Q 2619 4750 2861 4703 
Q 3103 4656 3366 4563 
z
" transform="scale(0.015625)"/>
       </defs>
       <use xlink:href="#DejaVuSans-30"/>
       <use xlink:href="#DejaVuSans-2e" x="63.623047"/>
       <use xlink:href="#DejaVuSans-31" x="95.410156"/>
       <use xlink:href="#DejaVuSans-36" x="159.033203"/>
       <use xlink:href="#DejaVuSans-30" x="222.65625"/>
       <use xlink:href="#DejaVuSans-30" x="286.279297"/>
      </g>
     </g>
    </g>
    <g id="ytick_6">
     <g id="line2d_12">
      <g>
       <use xlink:href="#mc1a54ee8e0" x="135" y="100.829784" style="stroke: #000000; stroke-width: 0.8"/>
      </g>
     </g>
     <g id="text_11">
      <!-- 0.1625 -->
      <g transform="translate(93.009375 104.629003) scale(0.1 -0.1)">
       <use xlink:href="#DejaVuSans-30"/>
       <use xlink:href="#DejaVuSans-2e" x="63.623047"/>
       <use xlink:href="#DejaVuSans-31" x="95.410156"/>
       <use xlink:href="#DejaVuSans-36" x="159.033203"/>
       <use xlink:href="#DejaVuSans-32" x="222.65625"/>
       <use xlink:href="#DejaVuSans-35" x="286.279297"/>
      </g>
     </g>
    </g>
    <g id="ytick_7">
     <g id="line2d_13">
      <g>
       <use xlink:href="#mc1a54ee8e0" x="135" y="63.840192" style="stroke: #000000; stroke-width: 0.8"/>
      </g>
     </g>
     <g id="text_12">
      <!-- 0.1650 -->
      <g transform="translate(93.009375 67.639411) scale(0.1 -0.1)">
       <use xlink:href="#DejaVuSans-30"/>
       <use xlink:href="#DejaVuSans-2e" x="63.623047"/>
       <use xlink:href="#DejaVuSans-31" x="95.410156"/>
       <use xlink:href="#DejaVuSans-36" x="159.033203"/>
       <use xlink:href="#DejaVuSans-35" x="222.65625"/>
       <use xlink:href="#DejaVuSans-30" x="286.279297"/>
      </g>
     </g>
    </g>
    <g id="text_13">
     <!-- Price -->
     <g transform="translate(86.929688 193.997656) rotate(-90) scale(0.1 -0.1)">
      <defs>
       <path id="DejaVuSans-50" d="M 1259 4147 
L 1259 2394 
L 2053 2394 
Q 2494 2394 2734 2622 
Q 2975 2850 2975 3272 
Q 2975 3691 2734 3919 
Q 2494 4147 2053 4147 
L 1259 4147 
z
M 628 4666 
L 2053 4666 
Q 2838 4666 3239 4311 
Q 3641 3956 3641 3272 
Q 3641 2581 3239 2228 
Q 2838 1875 2053 1875 
L 1259 1875 
L 1259 0 
L 628 0 
L 628 4666 
z
" transform="scale(0.015625)"/>
       <path id="DejaVuSans-72" d="M 2631 2963 
Q 2534 3019 2420 3045 
Q 2306 3072 2169 3072 
Q 1681 3072 1420 2755 
Q 1159 2438 1159 1844 
L 1159 0 
L 581 0 
L 581 3500 
L 1159 3500 
L 1159 2956 
Q 1341 3275 1631 3429 
Q 1922 3584 2338 3584 
Q 2397 3584 2469 3576 
Q 2541 3569 2628 3553 
L 2631 2963 
z
" transform="scale(0.015625)"/>
       <path id="DejaVuSans-69" d="M 603 3500 
L 1178 3500 
L 1178 0 
L 603 0 
L 603 3500 
z
M 603 4863 
L 1178 4863 
L 1178 4134 
L 603 4134 
L 603 4863 
z
" transform="scale(0.015625)"/>
       <path id="DejaVuSans-63" d="M 3122 3366 
L 3122 2828 
Q 2878 2963 2633 3030 
Q 2388 3097 2138 3097 
Q 1578 3097 1268 2742 
Q 959 2388 959 1747 
Q 959 1106 1268 751 
Q 1578 397 2138 397 
Q 2388 397 2633 464 
Q 2878 531 3122 666 
L 3122 134 
Q 2881 22 2623 -34 
Q 2366 -91 2075 -91 
Q 1284 -91 818 406 
Q 353 903 353 1747 
Q 353 2603 823 3093 
Q 1294 3584 2113 3584 
Q 2378 3584 2631 3529 
Q 2884 3475 3122 3366 
z
" transform="scale(0.015625)"/>
       <path id="DejaVuSans-65" d="M 3597 1894 
L 3597 1613 
L 953 1613 
Q 991 1019 1311 708 
Q 1631 397 2203 397 
Q 2534 397 2845 478 
Q 3156 559 3463 722 
L 3463 178 
Q 3153 47 2828 -22 
Q 2503 -91 2169 -91 
Q 1331 -91 842 396 
Q 353 884 353 1716 
Q 353 2575 817 3079 
Q 1281 3584 2069 3584 
Q 2775 3584 3186 3129 
Q 3597 2675 3597 1894 
z
M 3022 2063 
Q 3016 2534 2758 2815 
Q 2500 3097 2075 3097 
Q 1594 3097 1305 2825 
Q 1016 2553 972 2059 
L 3022 2063 
z
" transform="scale(0.015625)"/>
      </defs>
      <use xlink:href="#DejaVuSans-50"/>
      <use xlink:href="#DejaVuSans-72" x="58.552734"/>
      <use xlink:href="#DejaVuSans-69" x="99.666016"/>
      <use xlink:href="#DejaVuSans-63" x="127.449219"/>
      <use xlink:href="#DejaVuSans-65" x="182.429688"/>
     </g>
    </g>
   </g>
   <g id="PolyCollection_1">
    <path d="M 161.084676 299.907766 
L 161.084676 291.030264 
L 170.107314 291.030264 
L 170.107314 299.907766 
z
" clip-path="url(#pff2ac990a2)" style="fill: #70a800; fill-opacity: 0.9; stroke: #70a800"/>
    <path d="M 174.965657 291.030264 
L 174.965657 288.071097 
L 183.988294 288.071097 
L 183.988294 291.030264 
z
" clip-path="url(#pff2ac990a2)" style="fill: #70a800; fill-opacity: 0.9; stroke: #70a800"/>
    <path d="M 188.846638 288.071097 
L 188.846638 267.948759 
L 197.869275 267.948759 
L 197.869275 288.071097 
z
" clip-path="url(#pff2ac990a2)" style="fill: #70a800; fill-opacity: 0.9; stroke: #70a800"/>
    <path d="M 202.727618 268.022738 
L 202.727618 272.683427 
L 211.750256 272.683427 
L 211.750256 268.022738 
z
" clip-path="url(#pff2ac990a2)" style="fill: #ea0070; fill-opacity: 0.9; stroke: #ea0070"/>
    <path d="M 216.608599 272.683427 
L 216.608599 249.158046 
L 225.631236 249.158046 
L 225.631236 272.683427 
z
" clip-path="url(#pff2ac990a2)" style="fill: #70a800; fill-opacity: 0.9; stroke: #70a800"/>
    <path d="M 230.48958 249.158046 
L 230.48958 253.300881 
L 239.512217 253.300881 
L 239.512217 249.158046 
z
" clip-path="url(#pff2ac990a2)" style="fill: #ea0070; fill-opacity: 0.9; stroke: #ea0070"/>
    <path d="M 244.37056 253.300881 
L 244.37056 293.101681 
L 253.393198 293.101681 
L 253.393198 253.300881 
z
" clip-path="url(#pff2ac990a2)" style="fill: #ea0070; fill-opacity: 0.9; stroke: #ea0070"/>
    <path d="M 258.251541 293.027702 
L 258.251541 271.055885 
L 267.274178 271.055885 
L 267.274178 293.027702 
z
" clip-path="url(#pff2ac990a2)" style="fill: #70a800; fill-opacity: 0.9; stroke: #70a800"/>
    <path d="M 272.132522 271.055885 
L 272.132522 264.101841 
L 281.155159 264.101841 
L 281.155159 271.055885 
z
" clip-path="url(#pff2ac990a2)" style="fill: #70a800; fill-opacity: 0.9; stroke: #70a800"/>
    <path d="M 286.013502 264.101841 
L 286.013502 268.096717 
L 295.03614 268.096717 
L 295.03614 264.101841 
z
" clip-path="url(#pff2ac990a2)" style="fill: #ea0070; fill-opacity: 0.9; stroke: #ea0070"/>
    <path d="M 299.894483 268.096717 
L 299.894483 257.147798 
L 308.91712 257.147798 
L 308.91712 268.096717 
z
" clip-path="url(#pff2ac990a2)" style="fill: #70a800; fill-opacity: 0.9; stroke: #70a800"/>
    <path d="M 313.775464 257.147798 
L 313.775464 274.16301 
L 322.798101 274.16301 
L 322.798101 257.147798 
z
" clip-path="url(#pff2ac990a2)" style="fill: #ea0070; fill-opacity: 0.9; stroke: #ea0070"/>
    <path d="M 327.656444 274.16301 
L 327.656444 269.132426 
L 336.679082 269.132426 
L 336.679082 274.16301 
z
" clip-path="url(#pff2ac990a2)" style="fill: #70a800; fill-opacity: 0.9; stroke: #70a800"/>
    <path d="M 341.537425 269.132426 
L 341.537425 257.443715 
L 350.560062 257.443715 
L 350.560062 269.132426 
z
" clip-path="url(#pff2ac990a2)" style="fill: #70a800; fill-opacity: 0.9; stroke: #70a800"/>
    <path d="M 355.418406 257.443715 
L 355.418406 263.953883 
L 364.441043 263.953883 
L 364.441043 257.443715 
z
" clip-path="url(#pff2ac990a2)" style="fill: #ea0070; fill-opacity: 0.9; stroke: #ea0070"/>
    <path d="M 369.299386 263.953883 
L 369.299386 251.081505 
L 378.322024 251.081505 
L 378.322024 263.953883 
z
" clip-path="url(#pff2ac990a2)" style="fill: #70a800; fill-opacity: 0.9; stroke: #70a800"/>
    <path d="M 383.180367 251.081505 
L 383.180367 250.933547 
L 392.203005 250.933547 
L 392.203005 251.081505 
z
" clip-path="url(#pff2ac990a2)" style="fill: #70a800; fill-opacity: 0.9; stroke: #70a800"/>
    <path d="M 397.061348 250.933547 
L 397.061348 237.617294 
L 406.083985 237.617294 
L 406.083985 250.933547 
z
" clip-path="url(#pff2ac990a2)" style="fill: #70a800; fill-opacity: 0.9; stroke: #70a800"/>
    <path d="M 410.942328 237.617294 
L 410.942328 237.173419 
L 419.964966 237.173419 
L 419.964966 237.617294 
z
" clip-path="url(#pff2ac990a2)" style="fill: #70a800; fill-opacity: 0.9; stroke: #70a800"/>
    <path d="M 424.823309 237.173419 
L 424.823309 172.367654 
L 433.845947 172.367654 
L 433.845947 237.173419 
z
" clip-path="url(#pff2ac990a2)" style="fill: #70a800; fill-opacity: 0.9; stroke: #70a800"/>
    <path d="M 438.70429 172.367654 
L 438.70429 164.821777 
L 447.726927 164.821777 
L 447.726927 172.367654 
z
" clip-path="url(#pff2ac990a2)" style="fill: #70a800; fill-opacity: 0.9; stroke: #70a800"/>
    <path d="M 452.58527 164.821777 
L 452.58527 137.745396 
L 461.607908 137.745396 
L 461.607908 164.821777 
z
" clip-path="url(#pff2ac990a2)" style="fill: #70a800; fill-opacity: 0.9; stroke: #70a800"/>
    <path d="M 466.466251 137.745396 
L 466.466251 106.378223 
L 475.488889 106.378223 
L 475.488889 137.745396 
z
" clip-path="url(#pff2ac990a2)" style="fill: #70a800; fill-opacity: 0.9; stroke: #70a800"/>
    <path d="M 480.347232 106.378223 
L 480.347232 51.633627 
L 489.369869 51.633627 
L 489.369869 106.378223 
z
" clip-path="url(#pff2ac990a2)" style="fill: #70a800; fill-opacity: 0.9; stroke: #70a800"/>
   </g>
   <g id="LineCollection_1">
    <path d="M 165.595995 310.116894 
L 165.595995 299.907766 
" clip-path="url(#pff2ac990a2)" style="fill: none; stroke: #70a800"/>
    <path d="M 179.476976 320.4 
L 179.476976 291.030264 
" clip-path="url(#pff2ac990a2)" style="fill: none; stroke: #70a800"/>
    <path d="M 193.357956 290.142514 
L 193.357956 288.071097 
" clip-path="url(#pff2ac990a2)" style="fill: none; stroke: #70a800"/>
    <path d="M 207.238937 274.384948 
L 207.238937 272.683427 
" clip-path="url(#pff2ac990a2)" style="fill: none; stroke: #ea0070"/>
    <path d="M 221.119918 275.938511 
L 221.119918 272.683427 
" clip-path="url(#pff2ac990a2)" style="fill: none; stroke: #70a800"/>
    <path d="M 235.000898 257.665653 
L 235.000898 253.300881 
" clip-path="url(#pff2ac990a2)" style="fill: none; stroke: #ea0070"/>
    <path d="M 248.881879 302.423058 
L 248.881879 293.101681 
" clip-path="url(#pff2ac990a2)" style="fill: none; stroke: #ea0070"/>
    <path d="M 262.76286 297.392474 
L 262.76286 293.027702 
" clip-path="url(#pff2ac990a2)" style="fill: none; stroke: #70a800"/>
    <path d="M 276.64384 271.055885 
L 276.64384 271.055885 
" clip-path="url(#pff2ac990a2)" style="fill: none; stroke: #70a800"/>
    <path d="M 290.524821 268.540592 
L 290.524821 268.096717 
" clip-path="url(#pff2ac990a2)" style="fill: none; stroke: #ea0070"/>
    <path d="M 304.405802 271.943635 
L 304.405802 268.096717 
" clip-path="url(#pff2ac990a2)" style="fill: none; stroke: #70a800"/>
    <path d="M 318.286782 275.938511 
L 318.286782 274.16301 
" clip-path="url(#pff2ac990a2)" style="fill: none; stroke: #ea0070"/>
    <path d="M 332.167763 279.489512 
L 332.167763 274.16301 
" clip-path="url(#pff2ac990a2)" style="fill: none; stroke: #70a800"/>
    <path d="M 346.048744 270.907926 
L 346.048744 269.132426 
" clip-path="url(#pff2ac990a2)" style="fill: none; stroke: #70a800"/>
    <path d="M 359.929724 275.346677 
L 359.929724 263.953883 
" clip-path="url(#pff2ac990a2)" style="fill: none; stroke: #ea0070"/>
    <path d="M 373.810705 267.061009 
L 373.810705 263.953883 
" clip-path="url(#pff2ac990a2)" style="fill: none; stroke: #70a800"/>
    <path d="M 387.691686 258.627382 
L 387.691686 251.081505 
" clip-path="url(#pff2ac990a2)" style="fill: none; stroke: #70a800"/>
    <path d="M 401.572666 260.402882 
L 401.572666 250.933547 
" clip-path="url(#pff2ac990a2)" style="fill: none; stroke: #70a800"/>
    <path d="M 415.453647 243.091753 
L 415.453647 237.617294 
" clip-path="url(#pff2ac990a2)" style="fill: none; stroke: #70a800"/>
    <path d="M 429.334628 244.27542 
L 429.334628 237.173419 
" clip-path="url(#pff2ac990a2)" style="fill: none; stroke: #70a800"/>
    <path d="M 443.215609 198.556285 
L 443.215609 172.367654 
" clip-path="url(#pff2ac990a2)" style="fill: none; stroke: #70a800"/>
    <path d="M 457.096589 190.566533 
L 457.096589 164.821777 
" clip-path="url(#pff2ac990a2)" style="fill: none; stroke: #70a800"/>
    <path d="M 470.97757 142.036189 
L 470.97757 137.745396 
" clip-path="url(#pff2ac990a2)" style="fill: none; stroke: #70a800"/>
    <path d="M 484.858551 112.888391 
L 484.858551 106.378223 
" clip-path="url(#pff2ac990a2)" style="fill: none; stroke: #70a800"/>
    <path d="M 165.595995 284.372138 
L 165.595995 291.030264 
" clip-path="url(#pff2ac990a2)" style="fill: none; stroke: #70a800"/>
    <path d="M 179.476976 287.035388 
L 179.476976 288.071097 
" clip-path="url(#pff2ac990a2)" style="fill: none; stroke: #70a800"/>
    <path d="M 193.357956 259.145236 
L 193.357956 267.948759 
" clip-path="url(#pff2ac990a2)" style="fill: none; stroke: #70a800"/>
    <path d="M 207.238937 262.622258 
L 207.238937 268.022738 
" clip-path="url(#pff2ac990a2)" style="fill: none; stroke: #ea0070"/>
    <path d="M 221.119918 244.867254 
L 221.119918 249.158046 
" clip-path="url(#pff2ac990a2)" style="fill: none; stroke: #70a800"/>
    <path d="M 235.000898 236.877502 
L 235.000898 249.158046 
" clip-path="url(#pff2ac990a2)" style="fill: none; stroke: #ea0070"/>
    <path d="M 248.881879 251.673339 
L 248.881879 253.300881 
" clip-path="url(#pff2ac990a2)" style="fill: none; stroke: #ea0070"/>
    <path d="M 262.76286 267.208967 
L 262.76286 271.055885 
" clip-path="url(#pff2ac990a2)" style="fill: none; stroke: #70a800"/>
    <path d="M 276.64384 258.479424 
L 276.64384 264.101841 
" clip-path="url(#pff2ac990a2)" style="fill: none; stroke: #70a800"/>
    <path d="M 290.524821 257.591673 
L 290.524821 264.101841 
" clip-path="url(#pff2ac990a2)" style="fill: none; stroke: #ea0070"/>
    <path d="M 304.405802 248.86213 
L 304.405802 257.147798 
" clip-path="url(#pff2ac990a2)" style="fill: none; stroke: #70a800"/>
    <path d="M 318.286782 249.74988 
L 318.286782 257.147798 
" clip-path="url(#pff2ac990a2)" style="fill: none; stroke: #ea0070"/>
    <path d="M 332.167763 260.032986 
L 332.167763 269.132426 
" clip-path="url(#pff2ac990a2)" style="fill: none; stroke: #70a800"/>
    <path d="M 346.048744 254.336589 
L 346.048744 257.443715 
" clip-path="url(#pff2ac990a2)" style="fill: none; stroke: #70a800"/>
    <path d="M 359.929724 256.99984 
L 359.929724 257.443715 
" clip-path="url(#pff2ac990a2)" style="fill: none; stroke: #ea0070"/>
    <path d="M 373.810705 239.392794 
L 373.810705 251.081505 
" clip-path="url(#pff2ac990a2)" style="fill: none; stroke: #70a800"/>
    <path d="M 387.691686 226.076541 
L 387.691686 250.933547 
" clip-path="url(#pff2ac990a2)" style="fill: none; stroke: #70a800"/>
    <path d="M 401.572666 227.556125 
L 401.572666 237.617294 
" clip-path="url(#pff2ac990a2)" style="fill: none; stroke: #70a800"/>
    <path d="M 415.453647 230.515292 
L 415.453647 237.173419 
" clip-path="url(#pff2ac990a2)" style="fill: none; stroke: #70a800"/>
    <path d="M 429.334628 170.00032 
L 429.334628 172.367654 
" clip-path="url(#pff2ac990a2)" style="fill: none; stroke: #70a800"/>
    <path d="M 443.215609 148.25044 
L 443.215609 164.821777 
" clip-path="url(#pff2ac990a2)" style="fill: none; stroke: #70a800"/>
    <path d="M 457.096589 136.265813 
L 457.096589 137.745396 
" clip-path="url(#pff2ac990a2)" style="fill: none; stroke: #70a800"/>
    <path d="M 470.97757 62.138671 
L 470.97757 106.378223 
" clip-path="url(#pff2ac990a2)" style="fill: none; stroke: #70a800"/>
    <path d="M 484.858551 43.2 
L 484.858551 51.633627 
" clip-path="url(#pff2ac990a2)" style="fill: none; stroke: #70a800"/>
   </g>
   <g id="patch_3">
    <path d="M 135 320.4 
L 135 43.2 
" style="fill: none; stroke: #000000; stroke-width: 0.8; stroke-linejoin: miter; stroke-linecap: square"/>
   </g>
   <g id="patch_4">
    <path d="M 515.454545 320.4 
L 515.454545 43.2 
" style="fill: none; stroke: #000000; stroke-width: 0.8; stroke-linejoin: miter; stroke-linecap: square"/>
   </g>
   <g id="patch_5">
    <path d="M 135 320.4 
L 515.454545 320.4 
" style="fill: none; stroke: #000000; stroke-width: 0.8; stroke-linejoin: miter; stroke-linecap: square"/>
   </g>
   <g id="patch_6">
    <path d="M 135 43.2 
L 515.454545 43.2 
" style="fill: none; stroke: #000000; stroke-width: 0.8; stroke-linejoin: miter; stroke-linecap: square"/>
   </g>
   <g id="text_14">
    <!-- Actual -->
    <g transform="translate(306.430398 37.2) scale(0.12 -0.12)">
     <defs>
      <path id="DejaVuSans-41" d="M 2188 4044 
L 1331 1722 
L 3047 1722 
L 2188 4044 
z
M 1831 4666 
L 2547 4666 
L 4325 0 
L 3669 0 
L 3244 1197 
L 1141 1197 
L 716 0 
L 50 0 
L 1831 4666 
z
" transform="scale(0.015625)"/>
      <path id="DejaVuSans-74" d="M 1172 4494 
L 1172 3500 
L 2356 3500 
L 2356 3053 
L 1172 3053 
L 1172 1153 
Q 1172 725 1289 603 
Q 1406 481 1766 481 
L 2356 481 
L 2356 0 
L 1766 0 
Q 1100 0 847 248 
Q 594 497 594 1153 
L 594 3053 
L 172 3053 
L 172 3500 
L 594 3500 
L 594 4494 
L 1172 4494 
z
" transform="scale(0.015625)"/>
      <path id="DejaVuSans-75" d="M 544 1381 
L 544 3500 
L 1119 3500 
L 1119 1403 
Q 1119 906 1312 657 
Q 1506 409 1894 409 
Q 2359 409 2629 706 
Q 2900 1003 2900 1516 
L 2900 3500 
L 3475 3500 
L 3475 0 
L 2900 0 
L 2900 538 
Q 2691 219 2414 64 
Q 2138 -91 1772 -91 
Q 1169 -91 856 284 
Q 544 659 544 1381 
z
M 1991 3584 
L 1991 3584 
z
" transform="scale(0.015625)"/>
      <path id="DejaVuSans-61" d="M 2194 1759 
Q 1497 1759 1228 1600 
Q 959 1441 959 1056 
Q 959 750 1161 570 
Q 1363 391 1709 391 
Q 2188 391 2477 730 
Q 2766 1069 2766 1631 
L 2766 1759 
L 2194 1759 
z
M 3341 1997 
L 3341 0 
L 2766 0 
L 2766 531 
Q 2569 213 2275 61 
Q 1981 -91 1556 -91 
Q 1019 -91 701 211 
Q 384 513 384 1019 
Q 384 1609 779 1909 
Q 1175 2209 1959 2209 
L 2766 2209 
L 2766 2266 
Q 2766 2663 2505 2880 
Q 2244 3097 1772 3097 
Q 1472 3097 1187 3025 
Q 903 2953 641 2809 
L 641 3341 
Q 956 3463 1253 3523 
Q 1550 3584 1831 3584 
Q 2591 3584 2966 3190 
Q 3341 2797 3341 1997 
z
" transform="scale(0.015625)"/>
      <path id="DejaVuSans-6c" d="M 603 4863 
L 1178 4863 
L 1178 0 
L 603 0 
L 603 4863 
z
" transform="scale(0.015625)"/>
     </defs>
     <use xlink:href="#DejaVuSans-41"/>
     <use xlink:href="#DejaVuSans-63" x="66.658203"/>
     <use xlink:href="#DejaVuSans-74" x="121.638672"/>
     <use xlink:href="#DejaVuSans-75" x="160.847656"/>
     <use xlink:href="#DejaVuSans-61" x="224.226562"/>
     <use xlink:href="#DejaVuSans-6c" x="285.505859"/>
    </g>
   </g>
  </g>
  <g id="axes_2">
   <g id="patch_7">
    <path d="M 591.545455 320.4 
L 972 320.4 
L 972 43.2 
L 591.545455 43.2 
z
" style="fill: #ffffff"/>
   </g>
   <g id="matplotlib.axis_3">
    <g id="xtick_7">
     <g id="line2d_14">
      <g>
       <use xlink:href="#m3fee2c7120" x="622.141449" y="320.4" style="stroke: #000000; stroke-width: 0.8"/>
      </g>
     </g>
     <g id="text_15">
      <!-- 00:00 -->
      <g transform="translate(613.903655 353.15084) rotate(-45) scale(0.1 -0.1)">
       <use xlink:href="#DejaVuSans-30"/>
       <use xlink:href="#DejaVuSans-30" x="63.623047"/>
       <use xlink:href="#DejaVuSans-3a" x="127.246094"/>
       <use xlink:href="#DejaVuSans-30" x="160.9375"/>
       <use xlink:href="#DejaVuSans-30" x="224.560547"/>
      </g>
     </g>
    </g>
    <g id="xtick_8">
     <g id="line2d_15">
      <g>
       <use xlink:href="#m3fee2c7120" x="691.546353" y="320.4" style="stroke: #000000; stroke-width: 0.8"/>
      </g>
     </g>
     <g id="text_16">
      <!-- 05:00 -->
      <g transform="translate(683.308559 353.15084) rotate(-45) scale(0.1 -0.1)">
       <use xlink:href="#DejaVuSans-30"/>
       <use xlink:href="#DejaVuSans-35" x="63.623047"/>
       <use xlink:href="#DejaVuSans-3a" x="127.246094"/>
       <use xlink:href="#DejaVuSans-30" x="160.9375"/>
       <use xlink:href="#DejaVuSans-30" x="224.560547"/>
      </g>
     </g>
    </g>
    <g id="xtick_9">
     <g id="line2d_16">
      <g>
       <use xlink:href="#m3fee2c7120" x="760.951256" y="320.4" style="stroke: #000000; stroke-width: 0.8"/>
      </g>
     </g>
     <g id="text_17">
      <!-- 10:00 -->
      <g transform="translate(752.713462 353.15084) rotate(-45) scale(0.1 -0.1)">
       <use xlink:href="#DejaVuSans-31"/>
       <use xlink:href="#DejaVuSans-30" x="63.623047"/>
       <use xlink:href="#DejaVuSans-3a" x="127.246094"/>
       <use xlink:href="#DejaVuSans-30" x="160.9375"/>
       <use xlink:href="#DejaVuSans-30" x="224.560547"/>
      </g>
     </g>
    </g>
    <g id="xtick_10">
     <g id="line2d_17">
      <g>
       <use xlink:href="#m3fee2c7120" x="830.35616" y="320.4" style="stroke: #000000; stroke-width: 0.8"/>
      </g>
     </g>
     <g id="text_18">
      <!-- 15:00 -->
      <g transform="translate(822.118366 353.15084) rotate(-45) scale(0.1 -0.1)">
       <use xlink:href="#DejaVuSans-31"/>
       <use xlink:href="#DejaVuSans-35" x="63.623047"/>
       <use xlink:href="#DejaVuSans-3a" x="127.246094"/>
       <use xlink:href="#DejaVuSans-30" x="160.9375"/>
       <use xlink:href="#DejaVuSans-30" x="224.560547"/>
      </g>
     </g>
    </g>
    <g id="xtick_11">
     <g id="line2d_18">
      <g>
       <use xlink:href="#m3fee2c7120" x="899.761063" y="320.4" style="stroke: #000000; stroke-width: 0.8"/>
      </g>
     </g>
     <g id="text_19">
      <!-- 20:00 -->
      <g transform="translate(891.523269 353.15084) rotate(-45) scale(0.1 -0.1)">
       <use xlink:href="#DejaVuSans-32"/>
       <use xlink:href="#DejaVuSans-30" x="63.623047"/>
       <use xlink:href="#DejaVuSans-3a" x="127.246094"/>
       <use xlink:href="#DejaVuSans-30" x="160.9375"/>
       <use xlink:href="#DejaVuSans-30" x="224.560547"/>
      </g>
     </g>
    </g>
    <g id="xtick_12">
     <g id="line2d_19">
      <g>
       <use xlink:href="#m3fee2c7120" x="969.165966" y="320.4" style="stroke: #000000; stroke-width: 0.8"/>
      </g>
     </g>
    </g>
   </g>
   <g id="matplotlib.axis_4">
    <g id="ytick_8">
     <g id="line2d_20">
      <g>
       <use xlink:href="#mc1a54ee8e0" x="591.545455" y="285.777742" style="stroke: #000000; stroke-width: 0.8"/>
      </g>
     </g>
     <g id="text_20">
      <!-- 0.1500 -->
      <g transform="translate(549.55483 289.576961) scale(0.1 -0.1)">
       <use xlink:href="#DejaVuSans-30"/>
       <use xlink:href="#DejaVuSans-2e" x="63.623047"/>
       <use xlink:href="#DejaVuSans-31" x="95.410156"/>
       <use xlink:href="#DejaVuSans-35" x="159.033203"/>
       <use xlink:href="#DejaVuSans-30" x="222.65625"/>
       <use xlink:href="#DejaVuSans-30" x="286.279297"/>
      </g>
     </g>
    </g>
    <g id="ytick_9">
     <g id="line2d_21">
      <g>
       <use xlink:href="#mc1a54ee8e0" x="591.545455" y="248.788151" style="stroke: #000000; stroke-width: 0.8"/>
      </g>
     </g>
     <g id="text_21">
      <!-- 0.1525 -->
      <g transform="translate(549.55483 252.587369) scale(0.1 -0.1)">
       <use xlink:href="#DejaVuSans-30"/>
       <use xlink:href="#DejaVuSans-2e" x="63.623047"/>
       <use xlink:href="#DejaVuSans-31" x="95.410156"/>
       <use xlink:href="#DejaVuSans-35" x="159.033203"/>
       <use xlink:href="#DejaVuSans-32" x="222.65625"/>
       <use xlink:href="#DejaVuSans-35" x="286.279297"/>
      </g>
     </g>
    </g>
    <g id="ytick_10">
     <g id="line2d_22">
      <g>
       <use xlink:href="#mc1a54ee8e0" x="591.545455" y="211.798559" style="stroke: #000000; stroke-width: 0.8"/>
      </g>
     </g>
     <g id="text_22">
      <!-- 0.1550 -->
      <g transform="translate(549.55483 215.597778) scale(0.1 -0.1)">
       <use xlink:href="#DejaVuSans-30"/>
       <use xlink:href="#DejaVuSans-2e" x="63.623047"/>
       <use xlink:href="#DejaVuSans-31" x="95.410156"/>
       <use xlink:href="#DejaVuSans-35" x="159.033203"/>
       <use xlink:href="#DejaVuSans-35" x="222.65625"/>
       <use xlink:href="#DejaVuSans-30" x="286.279297"/>
      </g>
     </g>
    </g>
    <g id="ytick_11">
     <g id="line2d_23">
      <g>
       <use xlink:href="#mc1a54ee8e0" x="591.545455" y="174.808967" style="stroke: #000000; stroke-width: 0.8"/>
      </g>
     </g>
     <g id="text_23">
      <!-- 0.1575 -->
      <g transform="translate(549.55483 178.608186) scale(0.1 -0.1)">
       <use xlink:href="#DejaVuSans-30"/>
       <use xlink:href="#DejaVuSans-2e" x="63.623047"/>
       <use xlink:href="#DejaVuSans-31" x="95.410156"/>
       <use xlink:href="#DejaVuSans-35" x="159.033203"/>
       <use xlink:href="#DejaVuSans-37" x="222.65625"/>
       <use xlink:href="#DejaVuSans-35" x="286.279297"/>
      </g>
     </g>
    </g>
    <g id="ytick_12">
     <g id="line2d_24">
      <g>
       <use xlink:href="#mc1a54ee8e0" x="591.545455" y="137.819376" style="stroke: #000000; stroke-width: 0.8"/>
      </g>
     </g>
     <g id="text_24">
      <!-- 0.1600 -->
      <g transform="translate(549.55483 141.618594) scale(0.1 -0.1)">
       <use xlink:href="#DejaVuSans-30"/>
       <use xlink:href="#DejaVuSans-2e" x="63.623047"/>
       <use xlink:href="#DejaVuSans-31" x="95.410156"/>
       <use xlink:href="#DejaVuSans-36" x="159.033203"/>
       <use xlink:href="#DejaVuSans-30" x="222.65625"/>
       <use xlink:href="#DejaVuSans-30" x="286.279297"/>
      </g>
     </g>
    </g>
    <g id="ytick_13">
     <g id="line2d_25">
      <g>
       <use xlink:href="#mc1a54ee8e0" x="591.545455" y="100.829784" style="stroke: #000000; stroke-width: 0.8"/>
      </g>
     </g>
     <g id="text_25">
      <!-- 0.1625 -->
      <g transform="translate(549.55483 104.629003) scale(0.1 -0.1)">
       <use xlink:href="#DejaVuSans-30"/>
       <use xlink:href="#DejaVuSans-2e" x="63.623047"/>
       <use xlink:href="#DejaVuSans-31" x="95.410156"/>
       <use xlink:href="#DejaVuSans-36" x="159.033203"/>
       <use xlink:href="#DejaVuSans-32" x="222.65625"/>
       <use xlink:href="#DejaVuSans-35" x="286.279297"/>
      </g>
     </g>
    </g>
    <g id="ytick_14">
     <g id="line2d_26">
      <g>
       <use xlink:href="#mc1a54ee8e0" x="591.545455" y="63.840192" style="stroke: #000000; stroke-width: 0.8"/>
      </g>
     </g>
     <g id="text_26">
      <!-- 0.1650 -->
      <g transform="translate(549.55483 67.639411) scale(0.1 -0.1)">
       <use xlink:href="#DejaVuSans-30"/>
       <use xlink:href="#DejaVuSans-2e" x="63.623047"/>
       <use xlink:href="#DejaVuSans-31" x="95.410156"/>
       <use xlink:href="#DejaVuSans-36" x="159.033203"/>
       <use xlink:href="#DejaVuSans-35" x="222.65625"/>
       <use xlink:href="#DejaVuSans-30" x="286.279297"/>
      </g>
     </g>
    </g>
    <g id="text_27">
     <!-- Price -->
     <g transform="translate(543.475142 193.997656) rotate(-90) scale(0.1 -0.1)">
      <use xlink:href="#DejaVuSans-50"/>
      <use xlink:href="#DejaVuSans-72" x="58.552734"/>
      <use xlink:href="#DejaVuSans-69" x="99.666016"/>
      <use xlink:href="#DejaVuSans-63" x="127.449219"/>
      <use xlink:href="#DejaVuSans-65" x="182.429688"/>
     </g>
    </g>
   </g>
   <g id="PolyCollection_2">
    <path d="M 617.630131 274.257607 
L 617.630131 274.237764 
L 626.652768 274.237764 
L 626.652768 274.257607 
z
" clip-path="url(#p69682bea82)" style="fill: #70a800; fill-opacity: 0.9; stroke: #70a800"/>
    <path d="M 631.511111 274.246804 
L 631.511111 274.225859 
L 640.533749 274.225859 
L 640.533749 274.246804 
z
" clip-path="url(#p69682bea82)" style="fill: #70a800; fill-opacity: 0.9; stroke: #70a800"/>
    <path d="M 645.392092 274.238646 
L 645.392092 271.522613 
L 654.41473 271.522613 
L 654.41473 274.238646 
z
" clip-path="url(#p69682bea82)" style="fill: #70a800; fill-opacity: 0.9; stroke: #70a800"/>
    <path d="M 659.273073 271.830396 
L 659.273073 273.302068 
L 668.29571 273.302068 
L 668.29571 271.830396 
z
" clip-path="url(#p69682bea82)" style="fill: #ea0070; fill-opacity: 0.9; stroke: #ea0070"/>
    <path d="M 673.154053 273.349911 
L 673.154053 249.965435 
L 682.176691 249.965435 
L 682.176691 273.349911 
z
" clip-path="url(#p69682bea82)" style="fill: #70a800; fill-opacity: 0.9; stroke: #70a800"/>
    <path d="M 687.035034 249.700203 
L 687.035034 255.584464 
L 696.057672 255.584464 
L 696.057672 249.700203 
z
" clip-path="url(#p69682bea82)" style="fill: #ea0070; fill-opacity: 0.9; stroke: #ea0070"/>
    <path d="M 700.916015 255.665599 
L 700.916015 274.241512 
L 709.938652 274.241512 
L 709.938652 255.665599 
z
" clip-path="url(#p69682bea82)" style="fill: #ea0070; fill-opacity: 0.9; stroke: #ea0070"/>
    <path d="M 714.796995 274.250993 
L 714.796995 272.874346 
L 723.819633 272.874346 
L 723.819633 274.250993 
z
" clip-path="url(#p69682bea82)" style="fill: #70a800; fill-opacity: 0.9; stroke: #70a800"/>
    <path d="M 728.677976 272.947323 
L 728.677976 232.650199 
L 737.700614 232.650199 
L 737.700614 272.947323 
z
" clip-path="url(#p69682bea82)" style="fill: #70a800; fill-opacity: 0.9; stroke: #70a800"/>
    <path d="M 742.558957 260.738512 
L 742.558957 271.815624 
L 751.581594 271.815624 
L 751.581594 260.738512 
z
" clip-path="url(#p69682bea82)" style="fill: #ea0070; fill-opacity: 0.9; stroke: #ea0070"/>
    <path d="M 756.439938 272.10114 
L 756.439938 261.581609 
L 765.462575 261.581609 
L 765.462575 272.10114 
z
" clip-path="url(#p69682bea82)" style="fill: #70a800; fill-opacity: 0.9; stroke: #70a800"/>
    <path d="M 770.320918 261.336882 
L 770.320918 273.488149 
L 779.343556 273.488149 
L 779.343556 261.336882 
z
" clip-path="url(#p69682bea82)" style="fill: #ea0070; fill-opacity: 0.9; stroke: #ea0070"/>
    <path d="M 784.201899 273.578323 
L 784.201899 271.781892 
L 793.224536 271.781892 
L 793.224536 273.578323 
z
" clip-path="url(#p69682bea82)" style="fill: #70a800; fill-opacity: 0.9; stroke: #70a800"/>
    <path d="M 798.08288 271.944161 
L 798.08288 261.784446 
L 807.105517 261.784446 
L 807.105517 271.944161 
z
" clip-path="url(#p69682bea82)" style="fill: #70a800; fill-opacity: 0.9; stroke: #70a800"/>
    <path d="M 811.96386 261.78621 
L 811.96386 269.092095 
L 820.986498 269.092095 
L 820.986498 261.78621 
z
" clip-path="url(#p69682bea82)" style="fill: #ea0070; fill-opacity: 0.9; stroke: #ea0070"/>
    <path d="M 825.844841 269.075559 
L 825.844841 253.067741 
L 834.867478 253.067741 
L 834.867478 269.075559 
z
" clip-path="url(#p69682bea82)" style="fill: #70a800; fill-opacity: 0.9; stroke: #70a800"/>
    <path d="M 839.725822 251.718212 
L 839.725822 248.670805 
L 848.748459 248.670805 
L 848.748459 251.718212 
z
" clip-path="url(#p69682bea82)" style="fill: #70a800; fill-opacity: 0.9; stroke: #70a800"/>
    <path d="M 853.606802 244.488832 
L 853.606802 236.114525 
L 862.62944 236.114525 
L 862.62944 244.488832 
z
" clip-path="url(#p69682bea82)" style="fill: #70a800; fill-opacity: 0.9; stroke: #70a800"/>
    <path d="M 867.487783 236.051469 
L 867.487783 235.052055 
L 876.51042 235.052055 
L 876.51042 236.051469 
z
" clip-path="url(#p69682bea82)" style="fill: #70a800; fill-opacity: 0.9; stroke: #70a800"/>
    <path d="M 881.368764 234.977314 
L 881.368764 171.997486 
L 890.391401 171.997486 
L 890.391401 234.977314 
z
" clip-path="url(#p69682bea82)" style="fill: #70a800; fill-opacity: 0.9; stroke: #70a800"/>
    <path d="M 895.249744 170.427703 
L 895.249744 164.195532 
L 904.272382 164.195532 
L 904.272382 170.427703 
z
" clip-path="url(#p69682bea82)" style="fill: #70a800; fill-opacity: 0.9; stroke: #70a800"/>
    <path d="M 909.130725 164.274903 
L 909.130725 140.25634 
L 918.153362 140.25634 
L 918.153362 164.274903 
z
" clip-path="url(#p69682bea82)" style="fill: #70a800; fill-opacity: 0.9; stroke: #70a800"/>
    <path d="M 923.011706 137.938265 
L 923.011706 116.265778 
L 932.034343 116.265778 
L 932.034343 137.938265 
z
" clip-path="url(#p69682bea82)" style="fill: #70a800; fill-opacity: 0.9; stroke: #70a800"/>
    <path d="M 936.892686 109.544373 
L 936.892686 92.092442 
L 945.915324 92.092442 
L 945.915324 109.544373 
z
" clip-path="url(#p69682bea82)" style="fill: #70a800; fill-opacity: 0.9; stroke: #70a800"/>
   </g>
   <g id="LineCollection_2">
    <path d="M 622.141449 274.612352 
L 622.141449 274.257607 
" clip-path="url(#p69682bea82)" style="fill: none; stroke: #70a800"/>
    <path d="M 636.02243 274.612572 
L 636.02243 274.246804 
" clip-path="url(#p69682bea82)" style="fill: none; stroke: #70a800"/>
    <path d="M 649.903411 274.588761 
L 649.903411 274.238646 
" clip-path="url(#p69682bea82)" style="fill: none; stroke: #70a800"/>
    <path d="M 663.784391 273.812909 
L 663.784391 273.302068 
" clip-path="url(#p69682bea82)" style="fill: none; stroke: #ea0070"/>
    <path d="M 677.665372 274.080786 
L 677.665372 273.349911 
" clip-path="url(#p69682bea82)" style="fill: none; stroke: #70a800"/>
    <path d="M 691.546353 262.413903 
L 691.546353 255.584464 
" clip-path="url(#p69682bea82)" style="fill: none; stroke: #ea0070"/>
    <path d="M 705.427334 274.611029 
L 705.427334 274.241512 
" clip-path="url(#p69682bea82)" style="fill: none; stroke: #ea0070"/>
    <path d="M 719.308314 274.605517 
L 719.308314 274.250993 
" clip-path="url(#p69682bea82)" style="fill: none; stroke: #70a800"/>
    <path d="M 733.189295 273.286635 
L 733.189295 272.947323 
" clip-path="url(#p69682bea82)" style="fill: none; stroke: #70a800"/>
    <path d="M 747.070276 273.688781 
L 747.070276 271.815624 
" clip-path="url(#p69682bea82)" style="fill: none; stroke: #ea0070"/>
    <path d="M 760.951256 273.511519 
L 760.951256 272.10114 
" clip-path="url(#p69682bea82)" style="fill: none; stroke: #70a800"/>
    <path d="M 774.832237 274.487563 
L 774.832237 273.488149 
" clip-path="url(#p69682bea82)" style="fill: none; stroke: #ea0070"/>
    <path d="M 788.713218 274.612572 
L 788.713218 273.578323 
" clip-path="url(#p69682bea82)" style="fill: none; stroke: #70a800"/>
    <path d="M 802.594198 273.031324 
L 802.594198 271.944161 
" clip-path="url(#p69682bea82)" style="fill: none; stroke: #70a800"/>
    <path d="M 816.475179 274.612572 
L 816.475179 269.092095 
" clip-path="url(#p69682bea82)" style="fill: none; stroke: #ea0070"/>
    <path d="M 830.35616 274.228504 
L 830.35616 269.075559 
" clip-path="url(#p69682bea82)" style="fill: none; stroke: #70a800"/>
    <path d="M 844.23714 274.142078 
L 844.23714 251.718212 
" clip-path="url(#p69682bea82)" style="fill: none; stroke: #70a800"/>
    <path d="M 858.118121 263.684721 
L 858.118121 244.488832 
" clip-path="url(#p69682bea82)" style="fill: none; stroke: #70a800"/>
    <path d="M 871.999102 243.062799 
L 871.999102 236.051469 
" clip-path="url(#p69682bea82)" style="fill: none; stroke: #70a800"/>
    <path d="M 885.880082 244.921845 
L 885.880082 234.977314 
" clip-path="url(#p69682bea82)" style="fill: none; stroke: #70a800"/>
    <path d="M 899.761063 199.163551 
L 899.761063 170.427703 
" clip-path="url(#p69682bea82)" style="fill: none; stroke: #70a800"/>
    <path d="M 913.642044 190.8243 
L 913.642044 164.274903 
" clip-path="url(#p69682bea82)" style="fill: none; stroke: #70a800"/>
    <path d="M 927.523024 144.101206 
L 927.523024 137.938265 
" clip-path="url(#p69682bea82)" style="fill: none; stroke: #70a800"/>
    <path d="M 941.404005 119.561661 
L 941.404005 109.544373 
" clip-path="url(#p69682bea82)" style="fill: none; stroke: #70a800"/>
    <path d="M 622.141449 273.821287 
L 622.141449 274.237764 
" clip-path="url(#p69682bea82)" style="fill: none; stroke: #70a800"/>
    <path d="M 636.02243 273.863398 
L 636.02243 274.225859 
" clip-path="url(#p69682bea82)" style="fill: none; stroke: #70a800"/>
    <path d="M 649.903411 263.307488 
L 649.903411 271.522613 
" clip-path="url(#p69682bea82)" style="fill: none; stroke: #70a800"/>
    <path d="M 663.784391 265.226063 
L 663.784391 271.830396 
" clip-path="url(#p69682bea82)" style="fill: none; stroke: #ea0070"/>
    <path d="M 677.665372 243.929046 
L 677.665372 249.965435 
" clip-path="url(#p69682bea82)" style="fill: none; stroke: #70a800"/>
    <path d="M 691.546353 235.210797 
L 691.546353 249.700203 
" clip-path="url(#p69682bea82)" style="fill: none; stroke: #ea0070"/>
    <path d="M 705.427334 252.658318 
L 705.427334 255.665599 
" clip-path="url(#p69682bea82)" style="fill: none; stroke: #ea0070"/>
    <path d="M 719.308314 254.752171 
L 719.308314 272.874346 
" clip-path="url(#p69682bea82)" style="fill: none; stroke: #70a800"/>
    <path d="M 733.189295 231.483665 
L 733.189295 232.650199 
" clip-path="url(#p69682bea82)" style="fill: none; stroke: #70a800"/>
    <path d="M 747.070276 259.37796 
L 747.070276 260.738512 
" clip-path="url(#p69682bea82)" style="fill: none; stroke: #ea0070"/>
    <path d="M 760.951256 247.195826 
L 760.951256 261.581609 
" clip-path="url(#p69682bea82)" style="fill: none; stroke: #70a800"/>
    <path d="M 774.832237 236.798218 
L 774.832237 261.336882 
" clip-path="url(#p69682bea82)" style="fill: none; stroke: #ea0070"/>
    <path d="M 788.713218 239.067128 
L 788.713218 271.781892 
" clip-path="url(#p69682bea82)" style="fill: none; stroke: #70a800"/>
    <path d="M 802.594198 238.92426 
L 802.594198 261.784446 
" clip-path="url(#p69682bea82)" style="fill: none; stroke: #70a800"/>
    <path d="M 816.475179 260.063858 
L 816.475179 261.78621 
" clip-path="url(#p69682bea82)" style="fill: none; stroke: #ea0070"/>
    <path d="M 830.35616 237.78286 
L 830.35616 253.067741 
" clip-path="url(#p69682bea82)" style="fill: none; stroke: #70a800"/>
    <path d="M 844.23714 224.077905 
L 844.23714 248.670805 
" clip-path="url(#p69682bea82)" style="fill: none; stroke: #70a800"/>
    <path d="M 858.118121 226.843765 
L 858.118121 236.114525 
" clip-path="url(#p69682bea82)" style="fill: none; stroke: #70a800"/>
    <path d="M 871.999102 228.375627 
L 871.999102 235.052055 
" clip-path="url(#p69682bea82)" style="fill: none; stroke: #70a800"/>
    <path d="M 885.880082 168.902235 
L 885.880082 171.997486 
" clip-path="url(#p69682bea82)" style="fill: none; stroke: #70a800"/>
    <path d="M 899.761063 147.458822 
L 899.761063 164.195532 
" clip-path="url(#p69682bea82)" style="fill: none; stroke: #70a800"/>
    <path d="M 913.642044 136.546846 
L 913.642044 140.25634 
" clip-path="url(#p69682bea82)" style="fill: none; stroke: #70a800"/>
    <path d="M 927.523024 69.966438 
L 927.523024 116.265778 
" clip-path="url(#p69682bea82)" style="fill: none; stroke: #70a800"/>
    <path d="M 941.404005 57.010657 
L 941.404005 92.092442 
" clip-path="url(#p69682bea82)" style="fill: none; stroke: #70a800"/>
   </g>
   <g id="patch_8">
    <path d="M 591.545455 320.4 
L 591.545455 43.2 
" style="fill: none; stroke: #000000; stroke-width: 0.8; stroke-linejoin: miter; stroke-linecap: square"/>
   </g>
   <g id="patch_9">
    <path d="M 972 320.4 
L 972 43.2 
" style="fill: none; stroke: #000000; stroke-width: 0.8; stroke-linejoin: miter; stroke-linecap: square"/>
   </g>
   <g id="patch_10">
    <path d="M 591.545455 320.4 
L 972 320.4 
" style="fill: none; stroke: #000000; stroke-width: 0.8; stroke-linejoin: miter; stroke-linecap: square"/>
   </g>
   <g id="patch_11">
    <path d="M 591.545455 43.2 
L 972 43.2 
" style="fill: none; stroke: #000000; stroke-width: 0.8; stroke-linejoin: miter; stroke-linecap: square"/>
   </g>
   <g id="text_28">
    <!-- Predicted -->
    <g transform="translate(753.608352 37.2) scale(0.12 -0.12)">
     <defs>
      <path id="DejaVuSans-64" d="M 2906 2969 
L 2906 4863 
L 3481 4863 
L 3481 0 
L 2906 0 
L 2906 525 
Q 2725 213 2448 61 
Q 2172 -91 1784 -91 
Q 1150 -91 751 415 
Q 353 922 353 1747 
Q 353 2572 751 3078 
Q 1150 3584 1784 3584 
Q 2172 3584 2448 3432 
Q 2725 3281 2906 2969 
z
M 947 1747 
Q 947 1113 1208 752 
Q 1469 391 1925 391 
Q 2381 391 2643 752 
Q 2906 1113 2906 1747 
Q 2906 2381 2643 2742 
Q 2381 3103 1925 3103 
Q 1469 3103 1208 2742 
Q 947 2381 947 1747 
z
" transform="scale(0.015625)"/>
     </defs>
     <use xlink:href="#DejaVuSans-50"/>
     <use xlink:href="#DejaVuSans-72" x="58.552734"/>
     <use xlink:href="#DejaVuSans-65" x="97.416016"/>
     <use xlink:href="#DejaVuSans-64" x="158.939453"/>
     <use xlink:href="#DejaVuSans-69" x="222.416016"/>
     <use xlink:href="#DejaVuSans-63" x="250.199219"/>
     <use xlink:href="#DejaVuSans-74" x="305.179688"/>
     <use xlink:href="#DejaVuSans-65" x="344.388672"/>
     <use xlink:href="#DejaVuSans-64" x="405.912109"/>
    </g>
   </g>
  </g>
  <g id="text_29">
   <!-- LSTM - DOGE -->
   <g transform="translate(500.244375 16.318125) scale(0.12 -0.12)">
    <defs>
     <path id="DejaVuSans-4c" d="M 628 4666 
L 1259 4666 
L 1259 531 
L 3531 531 
L 3531 0 
L 628 0 
L 628 4666 
z
" transform="scale(0.015625)"/>
     <path id="DejaVuSans-53" d="M 3425 4513 
L 3425 3897 
Q 3066 4069 2747 4153 
Q 2428 4238 2131 4238 
Q 1616 4238 1336 4038 
Q 1056 3838 1056 3469 
Q 1056 3159 1242 3001 
Q 1428 2844 1947 2747 
L 2328 2669 
Q 3034 2534 3370 2195 
Q 3706 1856 3706 1288 
Q 3706 609 3251 259 
Q 2797 -91 1919 -91 
Q 1588 -91 1214 -16 
Q 841 59 441 206 
L 441 856 
Q 825 641 1194 531 
Q 1563 422 1919 422 
Q 2459 422 2753 634 
Q 3047 847 3047 1241 
Q 3047 1584 2836 1778 
Q 2625 1972 2144 2069 
L 1759 2144 
Q 1053 2284 737 2584 
Q 422 2884 422 3419 
Q 422 4038 858 4394 
Q 1294 4750 2059 4750 
Q 2388 4750 2728 4690 
Q 3069 4631 3425 4513 
z
" transform="scale(0.015625)"/>
     <path id="DejaVuSans-54" d="M -19 4666 
L 3928 4666 
L 3928 4134 
L 2272 4134 
L 2272 0 
L 1638 0 
L 1638 4134 
L -19 4134 
L -19 4666 
z
" transform="scale(0.015625)"/>
     <path id="DejaVuSans-4d" d="M 628 4666 
L 1569 4666 
L 2759 1491 
L 3956 4666 
L 4897 4666 
L 4897 0 
L 4281 0 
L 4281 4097 
L 3078 897 
L 2444 897 
L 1241 4097 
L 1241 0 
L 628 0 
L 628 4666 
z
" transform="scale(0.015625)"/>
     <path id="DejaVuSans-20" transform="scale(0.015625)"/>
     <path id="DejaVuSans-2d" d="M 313 2009 
L 1997 2009 
L 1997 1497 
L 313 1497 
L 313 2009 
z
" transform="scale(0.015625)"/>
     <path id="DejaVuSans-44" d="M 1259 4147 
L 1259 519 
L 2022 519 
Q 2988 519 3436 956 
Q 3884 1394 3884 2338 
Q 3884 3275 3436 3711 
Q 2988 4147 2022 4147 
L 1259 4147 
z
M 628 4666 
L 1925 4666 
Q 3281 4666 3915 4102 
Q 4550 3538 4550 2338 
Q 4550 1131 3912 565 
Q 3275 0 1925 0 
L 628 0 
L 628 4666 
z
" transform="scale(0.015625)"/>
     <path id="DejaVuSans-4f" d="M 2522 4238 
Q 1834 4238 1429 3725 
Q 1025 3213 1025 2328 
Q 1025 1447 1429 934 
Q 1834 422 2522 422 
Q 3209 422 3611 934 
Q 4013 1447 4013 2328 
Q 4013 3213 3611 3725 
Q 3209 4238 2522 4238 
z
M 2522 4750 
Q 3503 4750 4090 4092 
Q 4678 3434 4678 2328 
Q 4678 1225 4090 567 
Q 3503 -91 2522 -91 
Q 1538 -91 948 565 
Q 359 1222 359 2328 
Q 359 3434 948 4092 
Q 1538 4750 2522 4750 
z
" transform="scale(0.015625)"/>
     <path id="DejaVuSans-47" d="M 3809 666 
L 3809 1919 
L 2778 1919 
L 2778 2438 
L 4434 2438 
L 4434 434 
Q 4069 175 3628 42 
Q 3188 -91 2688 -91 
Q 1594 -91 976 548 
Q 359 1188 359 2328 
Q 359 3472 976 4111 
Q 1594 4750 2688 4750 
Q 3144 4750 3555 4637 
Q 3966 4525 4313 4306 
L 4313 3634 
Q 3963 3931 3569 4081 
Q 3175 4231 2741 4231 
Q 1884 4231 1454 3753 
Q 1025 3275 1025 2328 
Q 1025 1384 1454 906 
Q 1884 428 2741 428 
Q 3075 428 3337 486 
Q 3600 544 3809 666 
z
" transform="scale(0.015625)"/>
     <path id="DejaVuSans-45" d="M 628 4666 
L 3578 4666 
L 3578 4134 
L 1259 4134 
L 1259 2753 
L 3481 2753 
L 3481 2222 
L 1259 2222 
L 1259 531 
L 3634 531 
L 3634 0 
L 628 0 
L 628 4666 
z
" transform="scale(0.015625)"/>
    </defs>
    <use xlink:href="#DejaVuSans-4c"/>
    <use xlink:href="#DejaVuSans-53" x="55.712891"/>
    <use xlink:href="#DejaVuSans-54" x="119.189453"/>
    <use xlink:href="#DejaVuSans-4d" x="180.273438"/>
    <use xlink:href="#DejaVuSans-20" x="266.552734"/>
    <use xlink:href="#DejaVuSans-2d" x="298.339844"/>
    <use xlink:href="#DejaVuSans-20" x="334.423828"/>
    <use xlink:href="#DejaVuSans-44" x="366.210938"/>
    <use xlink:href="#DejaVuSans-4f" x="443.212891"/>
    <use xlink:href="#DejaVuSans-47" x="521.923828"/>
    <use xlink:href="#DejaVuSans-45" x="599.414062"/>
   </g>
  </g>
 </g>
 <defs>
  <clipPath id="pff2ac990a2">
   <rect x="135" y="43.2" width="380.454545" height="277.2"/>
  </clipPath>
  <clipPath id="p69682bea82">
   <rect x="591.545455" y="43.2" width="380.454545" height="277.2"/>
  </clipPath>
 </defs>
</svg>
