<?xml version="1.0" encoding="utf-8" standalone="no"?>
<!DOCTYPE svg PUBLIC "-//W3C//DTD SVG 1.1//EN"
  "http://www.w3.org/Graphics/SVG/1.1/DTD/svg11.dtd">
<svg xmlns:xlink="http://www.w3.org/1999/xlink" width="1080pt" height="360pt" viewBox="0 0 1080 360" xmlns="http://www.w3.org/2000/svg" version="1.1">
 <metadata>
  <rdf:RDF xmlns:dc="http://purl.org/dc/elements/1.1/" xmlns:cc="http://creativecommons.org/ns#" xmlns:rdf="http://www.w3.org/1999/02/22-rdf-syntax-ns#">
   <cc:Work>
    <dc:type rdf:resource="http://purl.org/dc/dcmitype/StillImage"/>
    <dc:date>2024-06-04T11:57:02.771738</dc:date>
    <dc:format>image/svg+xml</dc:format>
    <dc:creator>
     <cc:Agent>
      <dc:title>Matplotlib v3.8.4, https://matplotlib.org/</dc:title>
     </cc:Agent>
    </dc:creator>
   </cc:Work>
  </rdf:RDF>
 </metadata>
 <defs>
  <style type="text/css">*{stroke-linejoin: round; stroke-linecap: butt}</style>
 </defs>
 <g id="figure_1">
  <g id="patch_1">
   <path d="M 0 360 
L 1080 360 
L 1080 0 
L 0 0 
z
" style="fill: #ffffff"/>
  </g>
  <g id="axes_1">
   <g id="patch_2">
    <path d="M 135 320.4 
L 515.454545 320.4 
L 515.454545 43.2 
L 135 43.2 
z
" style="fill: #ffffff"/>
   </g>
   <g id="matplotlib.axis_1">
    <g id="xtick_1">
     <g id="line2d_1">
      <defs>
       <path id="m0567d1ec48" d="M 0 0 
L 0 3.5 
" style="stroke: #000000; stroke-width: 0.8"/>
      </defs>
      <g>
       <use xlink:href="#m0567d1ec48" x="165.595995" y="320.4" style="stroke: #000000; stroke-width: 0.8"/>
      </g>
     </g>
     <g id="text_1">
      <!-- 00:00 -->
      <g transform="translate(157.358201 353.15084) rotate(-45) scale(0.1 -0.1)">
       <defs>
        <path id="DejaVuSans-30" d="M 2034 4250 
Q 1547 4250 1301 3770 
Q 1056 3291 1056 2328 
Q 1056 1369 1301 889 
Q 1547 409 2034 409 
Q 2525 409 2770 889 
Q 3016 1369 3016 2328 
Q 3016 3291 2770 3770 
Q 2525 4250 2034 4250 
z
M 2034 4750 
Q 2819 4750 3233 4129 
Q 3647 3509 3647 2328 
Q 3647 1150 3233 529 
Q 2819 -91 2034 -91 
Q 1250 -91 836 529 
Q 422 1150 422 2328 
Q 422 3509 836 4129 
Q 1250 4750 2034 4750 
z
" transform="scale(0.015625)"/>
        <path id="DejaVuSans-3a" d="M 750 794 
L 1409 794 
L 1409 0 
L 750 0 
L 750 794 
z
M 750 3309 
L 1409 3309 
L 1409 2516 
L 750 2516 
L 750 3309 
z
" transform="scale(0.015625)"/>
       </defs>
       <use xlink:href="#DejaVuSans-30"/>
       <use xlink:href="#DejaVuSans-30" x="63.623047"/>
       <use xlink:href="#DejaVuSans-3a" x="127.246094"/>
       <use xlink:href="#DejaVuSans-30" x="160.9375"/>
       <use xlink:href="#DejaVuSans-30" x="224.560547"/>
      </g>
     </g>
    </g>
    <g id="xtick_2">
     <g id="line2d_2">
      <g>
       <use xlink:href="#m0567d1ec48" x="235.000898" y="320.4" style="stroke: #000000; stroke-width: 0.8"/>
      </g>
     </g>
     <g id="text_2">
      <!-- 05:00 -->
      <g transform="translate(226.763104 353.15084) rotate(-45) scale(0.1 -0.1)">
       <defs>
        <path id="DejaVuSans-35" d="M 691 4666 
L 3169 4666 
L 3169 4134 
L 1269 4134 
L 1269 2991 
Q 1406 3038 1543 3061 
Q 1681 3084 1819 3084 
Q 2600 3084 3056 2656 
Q 3513 2228 3513 1497 
Q 3513 744 3044 326 
Q 2575 -91 1722 -91 
Q 1428 -91 1123 -41 
Q 819 9 494 109 
L 494 744 
Q 775 591 1075 516 
Q 1375 441 1709 441 
Q 2250 441 2565 725 
Q 2881 1009 2881 1497 
Q 2881 1984 2565 2268 
Q 2250 2553 1709 2553 
Q 1456 2553 1204 2497 
Q 953 2441 691 2322 
L 691 4666 
z
" transform="scale(0.015625)"/>
       </defs>
       <use xlink:href="#DejaVuSans-30"/>
       <use xlink:href="#DejaVuSans-35" x="63.623047"/>
       <use xlink:href="#DejaVuSans-3a" x="127.246094"/>
       <use xlink:href="#DejaVuSans-30" x="160.9375"/>
       <use xlink:href="#DejaVuSans-30" x="224.560547"/>
      </g>
     </g>
    </g>
    <g id="xtick_3">
     <g id="line2d_3">
      <g>
       <use xlink:href="#m0567d1ec48" x="304.405802" y="320.4" style="stroke: #000000; stroke-width: 0.8"/>
      </g>
     </g>
     <g id="text_3">
      <!-- 10:00 -->
      <g transform="translate(296.168008 353.15084) rotate(-45) scale(0.1 -0.1)">
       <defs>
        <path id="DejaVuSans-31" d="M 794 531 
L 1825 531 
L 1825 4091 
L 703 3866 
L 703 4441 
L 1819 4666 
L 2450 4666 
L 2450 531 
L 3481 531 
L 3481 0 
L 794 0 
L 794 531 
z
" transform="scale(0.015625)"/>
       </defs>
       <use xlink:href="#DejaVuSans-31"/>
       <use xlink:href="#DejaVuSans-30" x="63.623047"/>
       <use xlink:href="#DejaVuSans-3a" x="127.246094"/>
       <use xlink:href="#DejaVuSans-30" x="160.9375"/>
       <use xlink:href="#DejaVuSans-30" x="224.560547"/>
      </g>
     </g>
    </g>
    <g id="xtick_4">
     <g id="line2d_4">
      <g>
       <use xlink:href="#m0567d1ec48" x="373.810705" y="320.4" style="stroke: #000000; stroke-width: 0.8"/>
      </g>
     </g>
     <g id="text_4">
      <!-- 15:00 -->
      <g transform="translate(365.572911 353.15084) rotate(-45) scale(0.1 -0.1)">
       <use xlink:href="#DejaVuSans-31"/>
       <use xlink:href="#DejaVuSans-35" x="63.623047"/>
       <use xlink:href="#DejaVuSans-3a" x="127.246094"/>
       <use xlink:href="#DejaVuSans-30" x="160.9375"/>
       <use xlink:href="#DejaVuSans-30" x="224.560547"/>
      </g>
     </g>
    </g>
    <g id="xtick_5">
     <g id="line2d_5">
      <g>
       <use xlink:href="#m0567d1ec48" x="443.215609" y="320.4" style="stroke: #000000; stroke-width: 0.8"/>
      </g>
     </g>
     <g id="text_5">
      <!-- 20:00 -->
      <g transform="translate(434.977815 353.15084) rotate(-45) scale(0.1 -0.1)">
       <defs>
        <path id="DejaVuSans-32" d="M 1228 531 
L 3431 531 
L 3431 0 
L 469 0 
L 469 531 
Q 828 903 1448 1529 
Q 2069 2156 2228 2338 
Q 2531 2678 2651 2914 
Q 2772 3150 2772 3378 
Q 2772 3750 2511 3984 
Q 2250 4219 1831 4219 
Q 1534 4219 1204 4116 
Q 875 4013 500 3803 
L 500 4441 
Q 881 4594 1212 4672 
Q 1544 4750 1819 4750 
Q 2544 4750 2975 4387 
Q 3406 4025 3406 3419 
Q 3406 3131 3298 2873 
Q 3191 2616 2906 2266 
Q 2828 2175 2409 1742 
Q 1991 1309 1228 531 
z
" transform="scale(0.015625)"/>
       </defs>
       <use xlink:href="#DejaVuSans-32"/>
       <use xlink:href="#DejaVuSans-30" x="63.623047"/>
       <use xlink:href="#DejaVuSans-3a" x="127.246094"/>
       <use xlink:href="#DejaVuSans-30" x="160.9375"/>
       <use xlink:href="#DejaVuSans-30" x="224.560547"/>
      </g>
     </g>
    </g>
    <g id="xtick_6">
     <g id="line2d_6">
      <g>
       <use xlink:href="#m0567d1ec48" x="512.620512" y="320.4" style="stroke: #000000; stroke-width: 0.8"/>
      </g>
     </g>
    </g>
   </g>
   <g id="matplotlib.axis_2">
    <g id="ytick_1">
     <g id="line2d_7">
      <defs>
       <path id="mc0b8e07797" d="M 0 0 
L -3.5 0 
" style="stroke: #000000; stroke-width: 0.8"/>
      </defs>
      <g>
       <use xlink:href="#mc0b8e07797" x="135" y="279.652488" style="stroke: #000000; stroke-width: 0.8"/>
      </g>
     </g>
     <g id="text_6">
      <!-- 7.8 -->
      <g transform="translate(112.096875 283.451706) scale(0.1 -0.1)">
       <defs>
        <path id="DejaVuSans-37" d="M 525 4666 
L 3525 4666 
L 3525 4397 
L 1831 0 
L 1172 0 
L 2766 4134 
L 525 4134 
L 525 4666 
z
" transform="scale(0.015625)"/>
        <path id="DejaVuSans-2e" d="M 684 794 
L 1344 794 
L 1344 0 
L 684 0 
L 684 794 
z
" transform="scale(0.015625)"/>
        <path id="DejaVuSans-38" d="M 2034 2216 
Q 1584 2216 1326 1975 
Q 1069 1734 1069 1313 
Q 1069 891 1326 650 
Q 1584 409 2034 409 
Q 2484 409 2743 651 
Q 3003 894 3003 1313 
Q 3003 1734 2745 1975 
Q 2488 2216 2034 2216 
z
M 1403 2484 
Q 997 2584 770 2862 
Q 544 3141 544 3541 
Q 544 4100 942 4425 
Q 1341 4750 2034 4750 
Q 2731 4750 3128 4425 
Q 3525 4100 3525 3541 
Q 3525 3141 3298 2862 
Q 3072 2584 2669 2484 
Q 3125 2378 3379 2068 
Q 3634 1759 3634 1313 
Q 3634 634 3220 271 
Q 2806 -91 2034 -91 
Q 1263 -91 848 271 
Q 434 634 434 1313 
Q 434 1759 690 2068 
Q 947 2378 1403 2484 
z
M 1172 3481 
Q 1172 3119 1398 2916 
Q 1625 2713 2034 2713 
Q 2441 2713 2670 2916 
Q 2900 3119 2900 3481 
Q 2900 3844 2670 4047 
Q 2441 4250 2034 4250 
Q 1625 4250 1398 4047 
Q 1172 3844 1172 3481 
z
" transform="scale(0.015625)"/>
       </defs>
       <use xlink:href="#DejaVuSans-37"/>
       <use xlink:href="#DejaVuSans-2e" x="63.623047"/>
       <use xlink:href="#DejaVuSans-38" x="95.410156"/>
      </g>
     </g>
    </g>
    <g id="ytick_2">
     <g id="line2d_8">
      <g>
       <use xlink:href="#mc0b8e07797" x="135" y="234.875001" style="stroke: #000000; stroke-width: 0.8"/>
      </g>
     </g>
     <g id="text_7">
      <!-- 7.9 -->
      <g transform="translate(112.096875 238.67422) scale(0.1 -0.1)">
       <defs>
        <path id="DejaVuSans-39" d="M 703 97 
L 703 672 
Q 941 559 1184 500 
Q 1428 441 1663 441 
Q 2288 441 2617 861 
Q 2947 1281 2994 2138 
Q 2813 1869 2534 1725 
Q 2256 1581 1919 1581 
Q 1219 1581 811 2004 
Q 403 2428 403 3163 
Q 403 3881 828 4315 
Q 1253 4750 1959 4750 
Q 2769 4750 3195 4129 
Q 3622 3509 3622 2328 
Q 3622 1225 3098 567 
Q 2575 -91 1691 -91 
Q 1453 -91 1209 -44 
Q 966 3 703 97 
z
M 1959 2075 
Q 2384 2075 2632 2365 
Q 2881 2656 2881 3163 
Q 2881 3666 2632 3958 
Q 2384 4250 1959 4250 
Q 1534 4250 1286 3958 
Q 1038 3666 1038 3163 
Q 1038 2656 1286 2365 
Q 1534 2075 1959 2075 
z
" transform="scale(0.015625)"/>
       </defs>
       <use xlink:href="#DejaVuSans-37"/>
       <use xlink:href="#DejaVuSans-2e" x="63.623047"/>
       <use xlink:href="#DejaVuSans-39" x="95.410156"/>
      </g>
     </g>
    </g>
    <g id="ytick_3">
     <g id="line2d_9">
      <g>
       <use xlink:href="#mc0b8e07797" x="135" y="190.097515" style="stroke: #000000; stroke-width: 0.8"/>
      </g>
     </g>
     <g id="text_8">
      <!-- 8.0 -->
      <g transform="translate(112.096875 193.896734) scale(0.1 -0.1)">
       <use xlink:href="#DejaVuSans-38"/>
       <use xlink:href="#DejaVuSans-2e" x="63.623047"/>
       <use xlink:href="#DejaVuSans-30" x="95.410156"/>
      </g>
     </g>
    </g>
    <g id="ytick_4">
     <g id="line2d_10">
      <g>
       <use xlink:href="#mc0b8e07797" x="135" y="145.320029" style="stroke: #000000; stroke-width: 0.8"/>
      </g>
     </g>
     <g id="text_9">
      <!-- 8.1 -->
      <g transform="translate(112.096875 149.119248) scale(0.1 -0.1)">
       <use xlink:href="#DejaVuSans-38"/>
       <use xlink:href="#DejaVuSans-2e" x="63.623047"/>
       <use xlink:href="#DejaVuSans-31" x="95.410156"/>
      </g>
     </g>
    </g>
    <g id="ytick_5">
     <g id="line2d_11">
      <g>
       <use xlink:href="#mc0b8e07797" x="135" y="100.542543" style="stroke: #000000; stroke-width: 0.8"/>
      </g>
     </g>
     <g id="text_10">
      <!-- 8.2 -->
      <g transform="translate(112.096875 104.341762) scale(0.1 -0.1)">
       <use xlink:href="#DejaVuSans-38"/>
       <use xlink:href="#DejaVuSans-2e" x="63.623047"/>
       <use xlink:href="#DejaVuSans-32" x="95.410156"/>
      </g>
     </g>
    </g>
    <g id="ytick_6">
     <g id="line2d_12">
      <g>
       <use xlink:href="#mc0b8e07797" x="135" y="55.765057" style="stroke: #000000; stroke-width: 0.8"/>
      </g>
     </g>
     <g id="text_11">
      <!-- 8.3 -->
      <g transform="translate(112.096875 59.564276) scale(0.1 -0.1)">
       <defs>
        <path id="DejaVuSans-33" d="M 2597 2516 
Q 3050 2419 3304 2112 
Q 3559 1806 3559 1356 
Q 3559 666 3084 287 
Q 2609 -91 1734 -91 
Q 1441 -91 1130 -33 
Q 819 25 488 141 
L 488 750 
Q 750 597 1062 519 
Q 1375 441 1716 441 
Q 2309 441 2620 675 
Q 2931 909 2931 1356 
Q 2931 1769 2642 2001 
Q 2353 2234 1838 2234 
L 1294 2234 
L 1294 2753 
L 1863 2753 
Q 2328 2753 2575 2939 
Q 2822 3125 2822 3475 
Q 2822 3834 2567 4026 
Q 2313 4219 1838 4219 
Q 1578 4219 1281 4162 
Q 984 4106 628 3988 
L 628 4550 
Q 988 4650 1302 4700 
Q 1616 4750 1894 4750 
Q 2613 4750 3031 4423 
Q 3450 4097 3450 3541 
Q 3450 3153 3228 2886 
Q 3006 2619 2597 2516 
z
" transform="scale(0.015625)"/>
       </defs>
       <use xlink:href="#DejaVuSans-38"/>
       <use xlink:href="#DejaVuSans-2e" x="63.623047"/>
       <use xlink:href="#DejaVuSans-33" x="95.410156"/>
      </g>
     </g>
    </g>
    <g id="text_12">
     <!-- Price -->
     <g transform="translate(106.017187 193.997656) rotate(-90) scale(0.1 -0.1)">
      <defs>
       <path id="DejaVuSans-50" d="M 1259 4147 
L 1259 2394 
L 2053 2394 
Q 2494 2394 2734 2622 
Q 2975 2850 2975 3272 
Q 2975 3691 2734 3919 
Q 2494 4147 2053 4147 
L 1259 4147 
z
M 628 4666 
L 2053 4666 
Q 2838 4666 3239 4311 
Q 3641 3956 3641 3272 
Q 3641 2581 3239 2228 
Q 2838 1875 2053 1875 
L 1259 1875 
L 1259 0 
L 628 0 
L 628 4666 
z
" transform="scale(0.015625)"/>
       <path id="DejaVuSans-72" d="M 2631 2963 
Q 2534 3019 2420 3045 
Q 2306 3072 2169 3072 
Q 1681 3072 1420 2755 
Q 1159 2438 1159 1844 
L 1159 0 
L 581 0 
L 581 3500 
L 1159 3500 
L 1159 2956 
Q 1341 3275 1631 3429 
Q 1922 3584 2338 3584 
Q 2397 3584 2469 3576 
Q 2541 3569 2628 3553 
L 2631 2963 
z
" transform="scale(0.015625)"/>
       <path id="DejaVuSans-69" d="M 603 3500 
L 1178 3500 
L 1178 0 
L 603 0 
L 603 3500 
z
M 603 4863 
L 1178 4863 
L 1178 4134 
L 603 4134 
L 603 4863 
z
" transform="scale(0.015625)"/>
       <path id="DejaVuSans-63" d="M 3122 3366 
L 3122 2828 
Q 2878 2963 2633 3030 
Q 2388 3097 2138 3097 
Q 1578 3097 1268 2742 
Q 959 2388 959 1747 
Q 959 1106 1268 751 
Q 1578 397 2138 397 
Q 2388 397 2633 464 
Q 2878 531 3122 666 
L 3122 134 
Q 2881 22 2623 -34 
Q 2366 -91 2075 -91 
Q 1284 -91 818 406 
Q 353 903 353 1747 
Q 353 2603 823 3093 
Q 1294 3584 2113 3584 
Q 2378 3584 2631 3529 
Q 2884 3475 3122 3366 
z
" transform="scale(0.015625)"/>
       <path id="DejaVuSans-65" d="M 3597 1894 
L 3597 1613 
L 953 1613 
Q 991 1019 1311 708 
Q 1631 397 2203 397 
Q 2534 397 2845 478 
Q 3156 559 3463 722 
L 3463 178 
Q 3153 47 2828 -22 
Q 2503 -91 2169 -91 
Q 1331 -91 842 396 
Q 353 884 353 1716 
Q 353 2575 817 3079 
Q 1281 3584 2069 3584 
Q 2775 3584 3186 3129 
Q 3597 2675 3597 1894 
z
M 3022 2063 
Q 3016 2534 2758 2815 
Q 2500 3097 2075 3097 
Q 1594 3097 1305 2825 
Q 1016 2553 972 2059 
L 3022 2063 
z
" transform="scale(0.015625)"/>
      </defs>
      <use xlink:href="#DejaVuSans-50"/>
      <use xlink:href="#DejaVuSans-72" x="58.552734"/>
      <use xlink:href="#DejaVuSans-69" x="99.666016"/>
      <use xlink:href="#DejaVuSans-63" x="127.449219"/>
      <use xlink:href="#DejaVuSans-65" x="182.429688"/>
     </g>
    </g>
   </g>
   <g id="PolyCollection_1">
    <path d="M 161.084676 289.279647 
L 161.084676 282.786912 
L 170.107314 282.786912 
L 170.107314 289.279647 
z
" clip-path="url(#pa2b174a4d0)" style="fill: #70a800; fill-opacity: 0.9; stroke: #70a800"/>
    <path d="M 174.965657 282.786912 
L 174.965657 231.292803 
L 183.988294 231.292803 
L 183.988294 282.786912 
z
" clip-path="url(#pa2b174a4d0)" style="fill: #70a800; fill-opacity: 0.9; stroke: #70a800"/>
    <path d="M 188.846638 231.292803 
L 188.846638 213.605696 
L 197.869275 213.605696 
L 197.869275 231.292803 
z
" clip-path="url(#pa2b174a4d0)" style="fill: #70a800; fill-opacity: 0.9; stroke: #70a800"/>
    <path d="M 202.727618 213.605696 
L 202.727618 220.322318 
L 211.750256 220.322318 
L 211.750256 213.605696 
z
" clip-path="url(#pa2b174a4d0)" style="fill: #ea0070; fill-opacity: 0.9; stroke: #ea0070"/>
    <path d="M 216.608599 220.322318 
L 216.608599 174.201508 
L 225.631236 174.201508 
L 225.631236 220.322318 
z
" clip-path="url(#pa2b174a4d0)" style="fill: #70a800; fill-opacity: 0.9; stroke: #70a800"/>
    <path d="M 230.48958 174.425395 
L 230.48958 161.663812 
L 239.512217 161.663812 
L 239.512217 174.425395 
z
" clip-path="url(#pa2b174a4d0)" style="fill: #70a800; fill-opacity: 0.9; stroke: #70a800"/>
    <path d="M 244.37056 161.663812 
L 244.37056 220.770093 
L 253.393198 220.770093 
L 253.393198 161.663812 
z
" clip-path="url(#pa2b174a4d0)" style="fill: #ea0070; fill-opacity: 0.9; stroke: #ea0070"/>
    <path d="M 258.251541 220.770093 
L 258.251541 201.515774 
L 267.274178 201.515774 
L 267.274178 220.770093 
z
" clip-path="url(#pa2b174a4d0)" style="fill: #70a800; fill-opacity: 0.9; stroke: #70a800"/>
    <path d="M 272.132522 201.515774 
L 272.132522 239.128863 
L 281.155159 239.128863 
L 281.155159 201.515774 
z
" clip-path="url(#pa2b174a4d0)" style="fill: #ea0070; fill-opacity: 0.9; stroke: #ea0070"/>
    <path d="M 286.013502 239.576638 
L 286.013502 239.128863 
L 295.03614 239.128863 
L 295.03614 239.576638 
z
" clip-path="url(#pa2b174a4d0)" style="fill: #70a800; fill-opacity: 0.9; stroke: #70a800"/>
    <path d="M 299.894483 239.128863 
L 299.894483 227.038941 
L 308.91712 227.038941 
L 308.91712 239.128863 
z
" clip-path="url(#pa2b174a4d0)" style="fill: #70a800; fill-opacity: 0.9; stroke: #70a800"/>
    <path d="M 313.775464 227.038941 
L 313.775464 247.18881 
L 322.798101 247.18881 
L 322.798101 227.038941 
z
" clip-path="url(#pa2b174a4d0)" style="fill: #ea0070; fill-opacity: 0.9; stroke: #ea0070"/>
    <path d="M 327.656444 247.18881 
L 327.656444 262.86093 
L 336.679082 262.86093 
L 336.679082 247.18881 
z
" clip-path="url(#pa2b174a4d0)" style="fill: #ea0070; fill-opacity: 0.9; stroke: #ea0070"/>
    <path d="M 341.537425 262.86093 
L 341.537425 240.024412 
L 350.560062 240.024412 
L 350.560062 262.86093 
z
" clip-path="url(#pa2b174a4d0)" style="fill: #70a800; fill-opacity: 0.9; stroke: #70a800"/>
    <path d="M 355.418406 240.024412 
L 355.418406 273.38364 
L 364.441043 273.38364 
L 364.441043 240.024412 
z
" clip-path="url(#pa2b174a4d0)" style="fill: #ea0070; fill-opacity: 0.9; stroke: #ea0070"/>
    <path d="M 369.299386 273.38364 
L 369.299386 161.663812 
L 378.322024 161.663812 
L 378.322024 273.38364 
z
" clip-path="url(#pa2b174a4d0)" style="fill: #70a800; fill-opacity: 0.9; stroke: #70a800"/>
    <path d="M 383.180367 161.663812 
L 383.180367 120.468524 
L 392.203005 120.468524 
L 392.203005 161.663812 
z
" clip-path="url(#pa2b174a4d0)" style="fill: #70a800; fill-opacity: 0.9; stroke: #70a800"/>
    <path d="M 397.061348 120.468524 
L 397.061348 132.334558 
L 406.083985 132.334558 
L 406.083985 120.468524 
z
" clip-path="url(#pa2b174a4d0)" style="fill: #ea0070; fill-opacity: 0.9; stroke: #ea0070"/>
    <path d="M 410.942328 132.334558 
L 410.942328 126.513485 
L 419.964966 126.513485 
L 419.964966 132.334558 
z
" clip-path="url(#pa2b174a4d0)" style="fill: #70a800; fill-opacity: 0.9; stroke: #70a800"/>
    <path d="M 424.823309 126.513485 
L 424.823309 60.69058 
L 433.845947 60.69058 
L 433.845947 126.513485 
z
" clip-path="url(#pa2b174a4d0)" style="fill: #70a800; fill-opacity: 0.9; stroke: #70a800"/>
    <path d="M 438.70429 60.69058 
L 438.70429 144.424479 
L 447.726927 144.424479 
L 447.726927 60.69058 
z
" clip-path="url(#pa2b174a4d0)" style="fill: #ea0070; fill-opacity: 0.9; stroke: #ea0070"/>
    <path d="M 452.58527 145.096142 
L 452.58527 118.22965 
L 461.607908 118.22965 
L 461.607908 145.096142 
z
" clip-path="url(#pa2b174a4d0)" style="fill: #70a800; fill-opacity: 0.9; stroke: #70a800"/>
    <path d="M 466.466251 118.22965 
L 466.466251 94.497582 
L 475.488889 94.497582 
L 475.488889 118.22965 
z
" clip-path="url(#pa2b174a4d0)" style="fill: #70a800; fill-opacity: 0.9; stroke: #70a800"/>
    <path d="M 480.347232 94.497582 
L 480.347232 58.675593 
L 489.369869 58.675593 
L 489.369869 94.497582 
z
" clip-path="url(#pa2b174a4d0)" style="fill: #70a800; fill-opacity: 0.9; stroke: #70a800"/>
   </g>
   <g id="LineCollection_1">
    <path d="M 165.595995 320.4 
L 165.595995 289.279647 
" clip-path="url(#pa2b174a4d0)" style="fill: none; stroke: #70a800"/>
    <path d="M 179.476976 292.414071 
L 179.476976 282.786912 
" clip-path="url(#pa2b174a4d0)" style="fill: none; stroke: #70a800"/>
    <path d="M 193.357956 253.009883 
L 193.357956 231.292803 
" clip-path="url(#pa2b174a4d0)" style="fill: none; stroke: #70a800"/>
    <path d="M 207.238937 231.51669 
L 207.238937 220.322318 
" clip-path="url(#pa2b174a4d0)" style="fill: none; stroke: #ea0070"/>
    <path d="M 221.119918 224.57618 
L 221.119918 220.322318 
" clip-path="url(#pa2b174a4d0)" style="fill: none; stroke: #70a800"/>
    <path d="M 235.000898 180.918131 
L 235.000898 174.425395 
" clip-path="url(#pa2b174a4d0)" style="fill: none; stroke: #70a800"/>
    <path d="M 248.881879 239.128863 
L 248.881879 220.770093 
" clip-path="url(#pa2b174a4d0)" style="fill: none; stroke: #ea0070"/>
    <path d="M 262.76286 233.083902 
L 262.76286 220.770093 
" clip-path="url(#pa2b174a4d0)" style="fill: none; stroke: #70a800"/>
    <path d="M 276.64384 252.562108 
L 276.64384 239.128863 
" clip-path="url(#pa2b174a4d0)" style="fill: none; stroke: #ea0070"/>
    <path d="M 290.524821 246.741035 
L 290.524821 239.576638 
" clip-path="url(#pa2b174a4d0)" style="fill: none; stroke: #70a800"/>
    <path d="M 304.405802 248.308247 
L 304.405802 239.128863 
" clip-path="url(#pa2b174a4d0)" style="fill: none; stroke: #70a800"/>
    <path d="M 318.286782 259.278731 
L 318.286782 247.18881 
" clip-path="url(#pa2b174a4d0)" style="fill: none; stroke: #ea0070"/>
    <path d="M 332.167763 278.756938 
L 332.167763 262.86093 
" clip-path="url(#pa2b174a4d0)" style="fill: none; stroke: #ea0070"/>
    <path d="M 346.048744 271.368653 
L 346.048744 262.86093 
" clip-path="url(#pa2b174a4d0)" style="fill: none; stroke: #70a800"/>
    <path d="M 359.929724 295.99627 
L 359.929724 273.38364 
" clip-path="url(#pa2b174a4d0)" style="fill: none; stroke: #ea0070"/>
    <path d="M 373.810705 281.667474 
L 373.810705 273.38364 
" clip-path="url(#pa2b174a4d0)" style="fill: none; stroke: #70a800"/>
    <path d="M 387.691686 188.530303 
L 387.691686 161.663812 
" clip-path="url(#pa2b174a4d0)" style="fill: none; stroke: #70a800"/>
    <path d="M 401.572666 152.484427 
L 401.572666 132.334558 
" clip-path="url(#pa2b174a4d0)" style="fill: none; stroke: #ea0070"/>
    <path d="M 415.453647 166.589335 
L 415.453647 132.334558 
" clip-path="url(#pa2b174a4d0)" style="fill: none; stroke: #70a800"/>
    <path d="M 429.334628 137.483969 
L 429.334628 126.513485 
" clip-path="url(#pa2b174a4d0)" style="fill: none; stroke: #70a800"/>
    <path d="M 443.215609 156.290513 
L 443.215609 144.424479 
" clip-path="url(#pa2b174a4d0)" style="fill: none; stroke: #ea0070"/>
    <path d="M 457.096589 190.321403 
L 457.096589 145.096142 
" clip-path="url(#pa2b174a4d0)" style="fill: none; stroke: #70a800"/>
    <path d="M 470.97757 151.141102 
L 470.97757 118.22965 
" clip-path="url(#pa2b174a4d0)" style="fill: none; stroke: #70a800"/>
    <path d="M 484.858551 107.930828 
L 484.858551 94.497582 
" clip-path="url(#pa2b174a4d0)" style="fill: none; stroke: #70a800"/>
    <path d="M 165.595995 265.995354 
L 165.595995 282.786912 
" clip-path="url(#pa2b174a4d0)" style="fill: none; stroke: #70a800"/>
    <path d="M 179.476976 207.336847 
L 179.476976 231.292803 
" clip-path="url(#pa2b174a4d0)" style="fill: none; stroke: #70a800"/>
    <path d="M 193.357956 195.918589 
L 193.357956 213.605696 
" clip-path="url(#pa2b174a4d0)" style="fill: none; stroke: #70a800"/>
    <path d="M 207.238937 197.709688 
L 207.238937 213.605696 
" clip-path="url(#pa2b174a4d0)" style="fill: none; stroke: #ea0070"/>
    <path d="M 221.119918 162.783249 
L 221.119918 174.201508 
" clip-path="url(#pa2b174a4d0)" style="fill: none; stroke: #70a800"/>
    <path d="M 235.000898 137.036194 
L 235.000898 161.663812 
" clip-path="url(#pa2b174a4d0)" style="fill: none; stroke: #70a800"/>
    <path d="M 248.881879 146.215579 
L 248.881879 161.663812 
" clip-path="url(#pa2b174a4d0)" style="fill: none; stroke: #ea0070"/>
    <path d="M 262.76286 191.664727 
L 262.76286 201.515774 
" clip-path="url(#pa2b174a4d0)" style="fill: none; stroke: #70a800"/>
    <path d="M 276.64384 174.201508 
L 276.64384 201.515774 
" clip-path="url(#pa2b174a4d0)" style="fill: none; stroke: #ea0070"/>
    <path d="M 290.524821 220.770093 
L 290.524821 239.128863 
" clip-path="url(#pa2b174a4d0)" style="fill: none; stroke: #70a800"/>
    <path d="M 304.405802 207.11296 
L 304.405802 227.038941 
" clip-path="url(#pa2b174a4d0)" style="fill: none; stroke: #70a800"/>
    <path d="M 318.286782 184.948104 
L 318.286782 227.038941 
" clip-path="url(#pa2b174a4d0)" style="fill: none; stroke: #ea0070"/>
    <path d="M 332.167763 238.681088 
L 332.167763 247.18881 
" clip-path="url(#pa2b174a4d0)" style="fill: none; stroke: #ea0070"/>
    <path d="M 346.048744 233.531677 
L 346.048744 240.024412 
" clip-path="url(#pa2b174a4d0)" style="fill: none; stroke: #70a800"/>
    <path d="M 359.929724 240.024412 
L 359.929724 240.024412 
" clip-path="url(#pa2b174a4d0)" style="fill: none; stroke: #ea0070"/>
    <path d="M 373.810705 161.216037 
L 373.810705 161.663812 
" clip-path="url(#pa2b174a4d0)" style="fill: none; stroke: #70a800"/>
    <path d="M 387.691686 104.796404 
L 387.691686 120.468524 
" clip-path="url(#pa2b174a4d0)" style="fill: none; stroke: #70a800"/>
    <path d="M 401.572666 109.274153 
L 401.572666 120.468524 
" clip-path="url(#pa2b174a4d0)" style="fill: none; stroke: #ea0070"/>
    <path d="M 415.453647 122.259624 
L 415.453647 126.513485 
" clip-path="url(#pa2b174a4d0)" style="fill: none; stroke: #70a800"/>
    <path d="M 429.334628 51.958971 
L 429.334628 60.69058 
" clip-path="url(#pa2b174a4d0)" style="fill: none; stroke: #70a800"/>
    <path d="M 443.215609 44.794573 
L 443.215609 60.69058 
" clip-path="url(#pa2b174a4d0)" style="fill: none; stroke: #ea0070"/>
    <path d="M 457.096589 118.22965 
L 457.096589 118.22965 
" clip-path="url(#pa2b174a4d0)" style="fill: none; stroke: #70a800"/>
    <path d="M 470.97757 53.526183 
L 470.97757 94.497582 
" clip-path="url(#pa2b174a4d0)" style="fill: none; stroke: #70a800"/>
    <path d="M 484.858551 44.12291 
L 484.858551 58.675593 
" clip-path="url(#pa2b174a4d0)" style="fill: none; stroke: #70a800"/>
   </g>
   <g id="patch_3">
    <path d="M 135 320.4 
L 135 43.2 
" style="fill: none; stroke: #000000; stroke-width: 0.8; stroke-linejoin: miter; stroke-linecap: square"/>
   </g>
   <g id="patch_4">
    <path d="M 515.454545 320.4 
L 515.454545 43.2 
" style="fill: none; stroke: #000000; stroke-width: 0.8; stroke-linejoin: miter; stroke-linecap: square"/>
   </g>
   <g id="patch_5">
    <path d="M 135 320.4 
L 515.454545 320.4 
" style="fill: none; stroke: #000000; stroke-width: 0.8; stroke-linejoin: miter; stroke-linecap: square"/>
   </g>
   <g id="patch_6">
    <path d="M 135 43.2 
L 515.454545 43.2 
" style="fill: none; stroke: #000000; stroke-width: 0.8; stroke-linejoin: miter; stroke-linecap: square"/>
   </g>
   <g id="text_13">
    <!-- Actual -->
    <g transform="translate(306.430398 37.2) scale(0.12 -0.12)">
     <defs>
      <path id="DejaVuSans-41" d="M 2188 4044 
L 1331 1722 
L 3047 1722 
L 2188 4044 
z
M 1831 4666 
L 2547 4666 
L 4325 0 
L 3669 0 
L 3244 1197 
L 1141 1197 
L 716 0 
L 50 0 
L 1831 4666 
z
" transform="scale(0.015625)"/>
      <path id="DejaVuSans-74" d="M 1172 4494 
L 1172 3500 
L 2356 3500 
L 2356 3053 
L 1172 3053 
L 1172 1153 
Q 1172 725 1289 603 
Q 1406 481 1766 481 
L 2356 481 
L 2356 0 
L 1766 0 
Q 1100 0 847 248 
Q 594 497 594 1153 
L 594 3053 
L 172 3053 
L 172 3500 
L 594 3500 
L 594 4494 
L 1172 4494 
z
" transform="scale(0.015625)"/>
      <path id="DejaVuSans-75" d="M 544 1381 
L 544 3500 
L 1119 3500 
L 1119 1403 
Q 1119 906 1312 657 
Q 1506 409 1894 409 
Q 2359 409 2629 706 
Q 2900 1003 2900 1516 
L 2900 3500 
L 3475 3500 
L 3475 0 
L 2900 0 
L 2900 538 
Q 2691 219 2414 64 
Q 2138 -91 1772 -91 
Q 1169 -91 856 284 
Q 544 659 544 1381 
z
M 1991 3584 
L 1991 3584 
z
" transform="scale(0.015625)"/>
      <path id="DejaVuSans-61" d="M 2194 1759 
Q 1497 1759 1228 1600 
Q 959 1441 959 1056 
Q 959 750 1161 570 
Q 1363 391 1709 391 
Q 2188 391 2477 730 
Q 2766 1069 2766 1631 
L 2766 1759 
L 2194 1759 
z
M 3341 1997 
L 3341 0 
L 2766 0 
L 2766 531 
Q 2569 213 2275 61 
Q 1981 -91 1556 -91 
Q 1019 -91 701 211 
Q 384 513 384 1019 
Q 384 1609 779 1909 
Q 1175 2209 1959 2209 
L 2766 2209 
L 2766 2266 
Q 2766 2663 2505 2880 
Q 2244 3097 1772 3097 
Q 1472 3097 1187 3025 
Q 903 2953 641 2809 
L 641 3341 
Q 956 3463 1253 3523 
Q 1550 3584 1831 3584 
Q 2591 3584 2966 3190 
Q 3341 2797 3341 1997 
z
" transform="scale(0.015625)"/>
      <path id="DejaVuSans-6c" d="M 603 4863 
L 1178 4863 
L 1178 0 
L 603 0 
L 603 4863 
z
" transform="scale(0.015625)"/>
     </defs>
     <use xlink:href="#DejaVuSans-41"/>
     <use xlink:href="#DejaVuSans-63" x="66.658203"/>
     <use xlink:href="#DejaVuSans-74" x="121.638672"/>
     <use xlink:href="#DejaVuSans-75" x="160.847656"/>
     <use xlink:href="#DejaVuSans-61" x="224.226562"/>
     <use xlink:href="#DejaVuSans-6c" x="285.505859"/>
    </g>
   </g>
  </g>
  <g id="axes_2">
   <g id="patch_7">
    <path d="M 591.545455 320.4 
L 972 320.4 
L 972 43.2 
L 591.545455 43.2 
z
" style="fill: #ffffff"/>
   </g>
   <g id="matplotlib.axis_3">
    <g id="xtick_7">
     <g id="line2d_13">
      <g>
       <use xlink:href="#m0567d1ec48" x="622.141449" y="320.4" style="stroke: #000000; stroke-width: 0.8"/>
      </g>
     </g>
     <g id="text_14">
      <!-- 00:00 -->
      <g transform="translate(613.903655 353.15084) rotate(-45) scale(0.1 -0.1)">
       <use xlink:href="#DejaVuSans-30"/>
       <use xlink:href="#DejaVuSans-30" x="63.623047"/>
       <use xlink:href="#DejaVuSans-3a" x="127.246094"/>
       <use xlink:href="#DejaVuSans-30" x="160.9375"/>
       <use xlink:href="#DejaVuSans-30" x="224.560547"/>
      </g>
     </g>
    </g>
    <g id="xtick_8">
     <g id="line2d_14">
      <g>
       <use xlink:href="#m0567d1ec48" x="691.546353" y="320.4" style="stroke: #000000; stroke-width: 0.8"/>
      </g>
     </g>
     <g id="text_15">
      <!-- 05:00 -->
      <g transform="translate(683.308559 353.15084) rotate(-45) scale(0.1 -0.1)">
       <use xlink:href="#DejaVuSans-30"/>
       <use xlink:href="#DejaVuSans-35" x="63.623047"/>
       <use xlink:href="#DejaVuSans-3a" x="127.246094"/>
       <use xlink:href="#DejaVuSans-30" x="160.9375"/>
       <use xlink:href="#DejaVuSans-30" x="224.560547"/>
      </g>
     </g>
    </g>
    <g id="xtick_9">
     <g id="line2d_15">
      <g>
       <use xlink:href="#m0567d1ec48" x="760.951256" y="320.4" style="stroke: #000000; stroke-width: 0.8"/>
      </g>
     </g>
     <g id="text_16">
      <!-- 10:00 -->
      <g transform="translate(752.713462 353.15084) rotate(-45) scale(0.1 -0.1)">
       <use xlink:href="#DejaVuSans-31"/>
       <use xlink:href="#DejaVuSans-30" x="63.623047"/>
       <use xlink:href="#DejaVuSans-3a" x="127.246094"/>
       <use xlink:href="#DejaVuSans-30" x="160.9375"/>
       <use xlink:href="#DejaVuSans-30" x="224.560547"/>
      </g>
     </g>
    </g>
    <g id="xtick_10">
     <g id="line2d_16">
      <g>
       <use xlink:href="#m0567d1ec48" x="830.35616" y="320.4" style="stroke: #000000; stroke-width: 0.8"/>
      </g>
     </g>
     <g id="text_17">
      <!-- 15:00 -->
      <g transform="translate(822.118366 353.15084) rotate(-45) scale(0.1 -0.1)">
       <use xlink:href="#DejaVuSans-31"/>
       <use xlink:href="#DejaVuSans-35" x="63.623047"/>
       <use xlink:href="#DejaVuSans-3a" x="127.246094"/>
       <use xlink:href="#DejaVuSans-30" x="160.9375"/>
       <use xlink:href="#DejaVuSans-30" x="224.560547"/>
      </g>
     </g>
    </g>
    <g id="xtick_11">
     <g id="line2d_17">
      <g>
       <use xlink:href="#m0567d1ec48" x="899.761063" y="320.4" style="stroke: #000000; stroke-width: 0.8"/>
      </g>
     </g>
     <g id="text_18">
      <!-- 20:00 -->
      <g transform="translate(891.523269 353.15084) rotate(-45) scale(0.1 -0.1)">
       <use xlink:href="#DejaVuSans-32"/>
       <use xlink:href="#DejaVuSans-30" x="63.623047"/>
       <use xlink:href="#DejaVuSans-3a" x="127.246094"/>
       <use xlink:href="#DejaVuSans-30" x="160.9375"/>
       <use xlink:href="#DejaVuSans-30" x="224.560547"/>
      </g>
     </g>
    </g>
    <g id="xtick_12">
     <g id="line2d_18">
      <g>
       <use xlink:href="#m0567d1ec48" x="969.165966" y="320.4" style="stroke: #000000; stroke-width: 0.8"/>
      </g>
     </g>
    </g>
   </g>
   <g id="matplotlib.axis_4">
    <g id="ytick_7">
     <g id="line2d_19">
      <g>
       <use xlink:href="#mc0b8e07797" x="591.545455" y="279.652488" style="stroke: #000000; stroke-width: 0.8"/>
      </g>
     </g>
     <g id="text_19">
      <!-- 7.8 -->
      <g transform="translate(568.64233 283.451706) scale(0.1 -0.1)">
       <use xlink:href="#DejaVuSans-37"/>
       <use xlink:href="#DejaVuSans-2e" x="63.623047"/>
       <use xlink:href="#DejaVuSans-38" x="95.410156"/>
      </g>
     </g>
    </g>
    <g id="ytick_8">
     <g id="line2d_20">
      <g>
       <use xlink:href="#mc0b8e07797" x="591.545455" y="234.875001" style="stroke: #000000; stroke-width: 0.8"/>
      </g>
     </g>
     <g id="text_20">
      <!-- 7.9 -->
      <g transform="translate(568.64233 238.67422) scale(0.1 -0.1)">
       <use xlink:href="#DejaVuSans-37"/>
       <use xlink:href="#DejaVuSans-2e" x="63.623047"/>
       <use xlink:href="#DejaVuSans-39" x="95.410156"/>
      </g>
     </g>
    </g>
    <g id="ytick_9">
     <g id="line2d_21">
      <g>
       <use xlink:href="#mc0b8e07797" x="591.545455" y="190.097515" style="stroke: #000000; stroke-width: 0.8"/>
      </g>
     </g>
     <g id="text_21">
      <!-- 8.0 -->
      <g transform="translate(568.64233 193.896734) scale(0.1 -0.1)">
       <use xlink:href="#DejaVuSans-38"/>
       <use xlink:href="#DejaVuSans-2e" x="63.623047"/>
       <use xlink:href="#DejaVuSans-30" x="95.410156"/>
      </g>
     </g>
    </g>
    <g id="ytick_10">
     <g id="line2d_22">
      <g>
       <use xlink:href="#mc0b8e07797" x="591.545455" y="145.320029" style="stroke: #000000; stroke-width: 0.8"/>
      </g>
     </g>
     <g id="text_22">
      <!-- 8.1 -->
      <g transform="translate(568.64233 149.119248) scale(0.1 -0.1)">
       <use xlink:href="#DejaVuSans-38"/>
       <use xlink:href="#DejaVuSans-2e" x="63.623047"/>
       <use xlink:href="#DejaVuSans-31" x="95.410156"/>
      </g>
     </g>
    </g>
    <g id="ytick_11">
     <g id="line2d_23">
      <g>
       <use xlink:href="#mc0b8e07797" x="591.545455" y="100.542543" style="stroke: #000000; stroke-width: 0.8"/>
      </g>
     </g>
     <g id="text_23">
      <!-- 8.2 -->
      <g transform="translate(568.64233 104.341762) scale(0.1 -0.1)">
       <use xlink:href="#DejaVuSans-38"/>
       <use xlink:href="#DejaVuSans-2e" x="63.623047"/>
       <use xlink:href="#DejaVuSans-32" x="95.410156"/>
      </g>
     </g>
    </g>
    <g id="ytick_12">
     <g id="line2d_24">
      <g>
       <use xlink:href="#mc0b8e07797" x="591.545455" y="55.765057" style="stroke: #000000; stroke-width: 0.8"/>
      </g>
     </g>
     <g id="text_24">
      <!-- 8.3 -->
      <g transform="translate(568.64233 59.564276) scale(0.1 -0.1)">
       <use xlink:href="#DejaVuSans-38"/>
       <use xlink:href="#DejaVuSans-2e" x="63.623047"/>
       <use xlink:href="#DejaVuSans-33" x="95.410156"/>
      </g>
     </g>
    </g>
    <g id="text_25">
     <!-- Price -->
     <g transform="translate(562.562642 193.997656) rotate(-90) scale(0.1 -0.1)">
      <use xlink:href="#DejaVuSans-50"/>
      <use xlink:href="#DejaVuSans-72" x="58.552734"/>
      <use xlink:href="#DejaVuSans-69" x="99.666016"/>
      <use xlink:href="#DejaVuSans-63" x="127.449219"/>
      <use xlink:href="#DejaVuSans-65" x="182.429688"/>
     </g>
    </g>
   </g>
   <g id="PolyCollection_2">
    <path d="M 617.630131 230.889261 
L 617.630131 230.867696 
L 626.652768 230.867696 
L 626.652768 230.889261 
z
" clip-path="url(#p627402c315)" style="fill: #70a800; fill-opacity: 0.9; stroke: #70a800"/>
    <path d="M 631.511111 230.889261 
L 631.511111 229.146119 
L 640.533749 229.146119 
L 640.533749 230.889261 
z
" clip-path="url(#p627402c315)" style="fill: #70a800; fill-opacity: 0.9; stroke: #70a800"/>
    <path d="M 645.392092 230.038615 
L 645.392092 213.96067 
L 654.41473 213.96067 
L 654.41473 230.038615 
z
" clip-path="url(#p627402c315)" style="fill: #70a800; fill-opacity: 0.9; stroke: #70a800"/>
    <path d="M 659.273073 214.990242 
L 659.273073 221.763174 
L 668.29571 221.763174 
L 668.29571 214.990242 
z
" clip-path="url(#p627402c315)" style="fill: #ea0070; fill-opacity: 0.9; stroke: #ea0070"/>
    <path d="M 673.154053 222.164156 
L 673.154053 172.643889 
L 682.176691 172.643889 
L 682.176691 222.164156 
z
" clip-path="url(#p627402c315)" style="fill: #70a800; fill-opacity: 0.9; stroke: #70a800"/>
    <path d="M 687.035034 173.853668 
L 687.035034 159.883764 
L 696.057672 159.883764 
L 696.057672 173.853668 
z
" clip-path="url(#p627402c315)" style="fill: #70a800; fill-opacity: 0.9; stroke: #70a800"/>
    <path d="M 700.916015 161.441574 
L 700.916015 222.42614 
L 709.938652 222.42614 
L 709.938652 161.441574 
z
" clip-path="url(#p627402c315)" style="fill: #ea0070; fill-opacity: 0.9; stroke: #ea0070"/>
    <path d="M 714.796995 224.294829 
L 714.796995 200.829882 
L 723.819633 200.829882 
L 723.819633 224.294829 
z
" clip-path="url(#p627402c315)" style="fill: #70a800; fill-opacity: 0.9; stroke: #70a800"/>
    <path d="M 728.677976 200.861695 
L 728.677976 230.339245 
L 737.700614 230.339245 
L 737.700614 200.861695 
z
" clip-path="url(#p627402c315)" style="fill: #ea0070; fill-opacity: 0.9; stroke: #ea0070"/>
    <path d="M 742.558957 230.493403 
L 742.558957 230.393478 
L 751.581594 230.393478 
L 751.581594 230.493403 
z
" clip-path="url(#p627402c315)" style="fill: #70a800; fill-opacity: 0.9; stroke: #70a800"/>
    <path d="M 756.439938 230.542298 
L 756.439938 227.009681 
L 765.462575 227.009681 
L 765.462575 230.542298 
z
" clip-path="url(#p627402c315)" style="fill: #70a800; fill-opacity: 0.9; stroke: #70a800"/>
    <path d="M 770.320918 226.826485 
L 770.320918 230.763501 
L 779.343556 230.763501 
L 779.343556 226.826485 
z
" clip-path="url(#p627402c315)" style="fill: #ea0070; fill-opacity: 0.9; stroke: #ea0070"/>
    <path d="M 784.201899 230.831826 
L 784.201899 230.855526 
L 793.224536 230.855526 
L 793.224536 230.831826 
z
" clip-path="url(#p627402c315)" style="fill: #ea0070; fill-opacity: 0.9; stroke: #ea0070"/>
    <path d="M 798.08288 230.885632 
L 798.08288 230.4507 
L 807.105517 230.4507 
L 807.105517 230.885632 
z
" clip-path="url(#p627402c315)" style="fill: #70a800; fill-opacity: 0.9; stroke: #70a800"/>
    <path d="M 811.96386 230.579237 
L 811.96386 230.867269 
L 820.986498 230.867269 
L 820.986498 230.579237 
z
" clip-path="url(#p627402c315)" style="fill: #ea0070; fill-opacity: 0.9; stroke: #ea0070"/>
    <path d="M 825.844841 230.888834 
L 825.844841 161.729393 
L 834.867478 161.729393 
L 834.867478 230.888834 
z
" clip-path="url(#p627402c315)" style="fill: #70a800; fill-opacity: 0.9; stroke: #70a800"/>
    <path d="M 839.725822 160.743378 
L 839.725822 120.141661 
L 848.748459 120.141661 
L 848.748459 160.743378 
z
" clip-path="url(#p627402c315)" style="fill: #70a800; fill-opacity: 0.9; stroke: #70a800"/>
    <path d="M 853.606802 118.730749 
L 853.606802 131.847872 
L 862.62944 131.847872 
L 862.62944 118.730749 
z
" clip-path="url(#p627402c315)" style="fill: #ea0070; fill-opacity: 0.9; stroke: #ea0070"/>
    <path d="M 867.487783 132.109215 
L 867.487783 125.785735 
L 876.51042 125.785735 
L 876.51042 132.109215 
z
" clip-path="url(#p627402c315)" style="fill: #70a800; fill-opacity: 0.9; stroke: #70a800"/>
    <path d="M 881.368764 126.112414 
L 881.368764 61.150691 
L 890.391401 61.150691 
L 890.391401 126.112414 
z
" clip-path="url(#p627402c315)" style="fill: #70a800; fill-opacity: 0.9; stroke: #70a800"/>
    <path d="M 895.249744 55.992579 
L 895.249744 144.95133 
L 904.272382 144.95133 
L 904.272382 55.992579 
z
" clip-path="url(#p627402c315)" style="fill: #ea0070; fill-opacity: 0.9; stroke: #ea0070"/>
    <path d="M 909.130725 145.48213 
L 909.130725 119.099277 
L 918.153362 119.099277 
L 918.153362 145.48213 
z
" clip-path="url(#p627402c315)" style="fill: #70a800; fill-opacity: 0.9; stroke: #70a800"/>
    <path d="M 923.011706 119.120629 
L 923.011706 94.427966 
L 932.034343 94.427966 
L 932.034343 119.120629 
z
" clip-path="url(#p627402c315)" style="fill: #70a800; fill-opacity: 0.9; stroke: #70a800"/>
    <path d="M 936.892686 94.150396 
L 936.892686 60.782163 
L 945.915324 60.782163 
L 945.915324 94.150396 
z
" clip-path="url(#p627402c315)" style="fill: #70a800; fill-opacity: 0.9; stroke: #70a800"/>
   </g>
   <g id="LineCollection_2">
    <path d="M 622.141449 231.768946 
L 622.141449 230.889261 
" clip-path="url(#p627402c315)" style="fill: none; stroke: #70a800"/>
    <path d="M 636.02243 231.768946 
L 636.02243 230.889261 
" clip-path="url(#p627402c315)" style="fill: none; stroke: #70a800"/>
    <path d="M 649.903411 231.71877 
L 649.903411 230.038615 
" clip-path="url(#p627402c315)" style="fill: none; stroke: #70a800"/>
    <path d="M 663.784391 229.990787 
L 663.784391 221.763174 
" clip-path="url(#p627402c315)" style="fill: none; stroke: #ea0070"/>
    <path d="M 677.665372 225.359205 
L 677.665372 222.164156 
" clip-path="url(#p627402c315)" style="fill: none; stroke: #70a800"/>
    <path d="M 691.546353 181.131137 
L 691.546353 173.853668 
" clip-path="url(#p627402c315)" style="fill: none; stroke: #70a800"/>
    <path d="M 705.427334 231.138648 
L 705.427334 222.42614 
" clip-path="url(#p627402c315)" style="fill: none; stroke: #ea0070"/>
    <path d="M 719.308314 230.477817 
L 719.308314 224.294829 
" clip-path="url(#p627402c315)" style="fill: none; stroke: #70a800"/>
    <path d="M 733.189295 231.715994 
L 733.189295 230.339245 
" clip-path="url(#p627402c315)" style="fill: none; stroke: #ea0070"/>
    <path d="M 747.070276 231.628666 
L 747.070276 230.493403 
" clip-path="url(#p627402c315)" style="fill: none; stroke: #70a800"/>
    <path d="M 760.951256 231.656423 
L 760.951256 230.542298 
" clip-path="url(#p627402c315)" style="fill: none; stroke: #70a800"/>
    <path d="M 774.832237 231.753573 
L 774.832237 230.763501 
" clip-path="url(#p627402c315)" style="fill: none; stroke: #ea0070"/>
    <path d="M 788.713218 231.768519 
L 788.713218 230.855526 
" clip-path="url(#p627402c315)" style="fill: none; stroke: #ea0070"/>
    <path d="M 802.594198 231.767451 
L 802.594198 230.885632 
" clip-path="url(#p627402c315)" style="fill: none; stroke: #70a800"/>
    <path d="M 816.475179 231.768946 
L 816.475179 230.867269 
" clip-path="url(#p627402c315)" style="fill: none; stroke: #ea0070"/>
    <path d="M 830.35616 231.768732 
L 830.35616 230.888834 
" clip-path="url(#p627402c315)" style="fill: none; stroke: #70a800"/>
    <path d="M 844.23714 187.261173 
L 844.23714 160.743378 
" clip-path="url(#p627402c315)" style="fill: none; stroke: #70a800"/>
    <path d="M 858.118121 152.676328 
L 858.118121 131.847872 
" clip-path="url(#p627402c315)" style="fill: none; stroke: #ea0070"/>
    <path d="M 871.999102 167.378165 
L 871.999102 132.109215 
" clip-path="url(#p627402c315)" style="fill: none; stroke: #70a800"/>
    <path d="M 885.880082 137.949297 
L 885.880082 126.112414 
" clip-path="url(#p627402c315)" style="fill: none; stroke: #70a800"/>
    <path d="M 899.761063 156.911625 
L 899.761063 144.95133 
" clip-path="url(#p627402c315)" style="fill: none; stroke: #ea0070"/>
    <path d="M 913.642044 188.972715 
L 913.642044 145.48213 
" clip-path="url(#p627402c315)" style="fill: none; stroke: #70a800"/>
    <path d="M 927.523024 151.09375 
L 927.523024 119.120629 
" clip-path="url(#p627402c315)" style="fill: none; stroke: #70a800"/>
    <path d="M 941.404005 108.627614 
L 941.404005 94.150396 
" clip-path="url(#p627402c315)" style="fill: none; stroke: #70a800"/>
    <path d="M 622.141449 230.000395 
L 622.141449 230.867696 
" clip-path="url(#p627402c315)" style="fill: none; stroke: #70a800"/>
    <path d="M 636.02243 207.635694 
L 636.02243 229.146119 
" clip-path="url(#p627402c315)" style="fill: none; stroke: #70a800"/>
    <path d="M 649.903411 195.590847 
L 649.903411 213.96067 
" clip-path="url(#p627402c315)" style="fill: none; stroke: #70a800"/>
    <path d="M 663.784391 196.370179 
L 663.784391 214.990242 
" clip-path="url(#p627402c315)" style="fill: none; stroke: #ea0070"/>
    <path d="M 677.665372 163.106997 
L 677.665372 172.643889 
" clip-path="url(#p627402c315)" style="fill: none; stroke: #70a800"/>
    <path d="M 691.546353 135.853854 
L 691.546353 159.883764 
" clip-path="url(#p627402c315)" style="fill: none; stroke: #70a800"/>
    <path d="M 705.427334 145.629883 
L 705.427334 161.441574 
" clip-path="url(#p627402c315)" style="fill: none; stroke: #ea0070"/>
    <path d="M 719.308314 190.979122 
L 719.308314 200.829882 
" clip-path="url(#p627402c315)" style="fill: none; stroke: #70a800"/>
    <path d="M 733.189295 173.697802 
L 733.189295 200.861695 
" clip-path="url(#p627402c315)" style="fill: none; stroke: #ea0070"/>
    <path d="M 747.070276 221.66154 
L 747.070276 230.393478 
" clip-path="url(#p627402c315)" style="fill: none; stroke: #70a800"/>
    <path d="M 760.951256 207.711919 
L 760.951256 227.009681 
" clip-path="url(#p627402c315)" style="fill: none; stroke: #70a800"/>
    <path d="M 774.832237 185.707633 
L 774.832237 226.826485 
" clip-path="url(#p627402c315)" style="fill: none; stroke: #ea0070"/>
    <path d="M 788.713218 229.420914 
L 788.713218 230.831826 
" clip-path="url(#p627402c315)" style="fill: none; stroke: #ea0070"/>
    <path d="M 802.594198 228.669552 
L 802.594198 230.4507 
" clip-path="url(#p627402c315)" style="fill: none; stroke: #70a800"/>
    <path d="M 816.475179 229.598559 
L 816.475179 230.579237 
" clip-path="url(#p627402c315)" style="fill: none; stroke: #ea0070"/>
    <path d="M 830.35616 160.963299 
L 830.35616 161.729393 
" clip-path="url(#p627402c315)" style="fill: none; stroke: #70a800"/>
    <path d="M 844.23714 103.521599 
L 844.23714 120.141661 
" clip-path="url(#p627402c315)" style="fill: none; stroke: #70a800"/>
    <path d="M 858.118121 108.238588 
L 858.118121 118.730749 
" clip-path="url(#p627402c315)" style="fill: none; stroke: #ea0070"/>
    <path d="M 871.999102 121.820748 
L 871.999102 125.785735 
" clip-path="url(#p627402c315)" style="fill: none; stroke: #70a800"/>
    <path d="M 885.880082 52.932472 
L 885.880082 61.150691 
" clip-path="url(#p627402c315)" style="fill: none; stroke: #70a800"/>
    <path d="M 899.761063 44.140323 
L 899.761063 55.992579 
" clip-path="url(#p627402c315)" style="fill: none; stroke: #ea0070"/>
    <path d="M 913.642044 117.298059 
L 913.642044 119.099277 
" clip-path="url(#p627402c315)" style="fill: none; stroke: #70a800"/>
    <path d="M 927.523024 53.388542 
L 927.523024 94.427966 
" clip-path="url(#p627402c315)" style="fill: none; stroke: #70a800"/>
    <path d="M 941.404005 43.2 
L 941.404005 60.782163 
" clip-path="url(#p627402c315)" style="fill: none; stroke: #70a800"/>
   </g>
   <g id="patch_8">
    <path d="M 591.545455 320.4 
L 591.545455 43.2 
" style="fill: none; stroke: #000000; stroke-width: 0.8; stroke-linejoin: miter; stroke-linecap: square"/>
   </g>
   <g id="patch_9">
    <path d="M 972 320.4 
L 972 43.2 
" style="fill: none; stroke: #000000; stroke-width: 0.8; stroke-linejoin: miter; stroke-linecap: square"/>
   </g>
   <g id="patch_10">
    <path d="M 591.545455 320.4 
L 972 320.4 
" style="fill: none; stroke: #000000; stroke-width: 0.8; stroke-linejoin: miter; stroke-linecap: square"/>
   </g>
   <g id="patch_11">
    <path d="M 591.545455 43.2 
L 972 43.2 
" style="fill: none; stroke: #000000; stroke-width: 0.8; stroke-linejoin: miter; stroke-linecap: square"/>
   </g>
   <g id="text_26">
    <!-- Predicted -->
    <g transform="translate(753.608352 37.2) scale(0.12 -0.12)">
     <defs>
      <path id="DejaVuSans-64" d="M 2906 2969 
L 2906 4863 
L 3481 4863 
L 3481 0 
L 2906 0 
L 2906 525 
Q 2725 213 2448 61 
Q 2172 -91 1784 -91 
Q 1150 -91 751 415 
Q 353 922 353 1747 
Q 353 2572 751 3078 
Q 1150 3584 1784 3584 
Q 2172 3584 2448 3432 
Q 2725 3281 2906 2969 
z
M 947 1747 
Q 947 1113 1208 752 
Q 1469 391 1925 391 
Q 2381 391 2643 752 
Q 2906 1113 2906 1747 
Q 2906 2381 2643 2742 
Q 2381 3103 1925 3103 
Q 1469 3103 1208 2742 
Q 947 2381 947 1747 
z
" transform="scale(0.015625)"/>
     </defs>
     <use xlink:href="#DejaVuSans-50"/>
     <use xlink:href="#DejaVuSans-72" x="58.552734"/>
     <use xlink:href="#DejaVuSans-65" x="97.416016"/>
     <use xlink:href="#DejaVuSans-64" x="158.939453"/>
     <use xlink:href="#DejaVuSans-69" x="222.416016"/>
     <use xlink:href="#DejaVuSans-63" x="250.199219"/>
     <use xlink:href="#DejaVuSans-74" x="305.179688"/>
     <use xlink:href="#DejaVuSans-65" x="344.388672"/>
     <use xlink:href="#DejaVuSans-64" x="405.912109"/>
    </g>
   </g>
  </g>
  <g id="text_27">
   <!-- LSTM - NEAR -->
   <g transform="translate(501.474375 16.318125) scale(0.12 -0.12)">
    <defs>
     <path id="DejaVuSans-4c" d="M 628 4666 
L 1259 4666 
L 1259 531 
L 3531 531 
L 3531 0 
L 628 0 
L 628 4666 
z
" transform="scale(0.015625)"/>
     <path id="DejaVuSans-53" d="M 3425 4513 
L 3425 3897 
Q 3066 4069 2747 4153 
Q 2428 4238 2131 4238 
Q 1616 4238 1336 4038 
Q 1056 3838 1056 3469 
Q 1056 3159 1242 3001 
Q 1428 2844 1947 2747 
L 2328 2669 
Q 3034 2534 3370 2195 
Q 3706 1856 3706 1288 
Q 3706 609 3251 259 
Q 2797 -91 1919 -91 
Q 1588 -91 1214 -16 
Q 841 59 441 206 
L 441 856 
Q 825 641 1194 531 
Q 1563 422 1919 422 
Q 2459 422 2753 634 
Q 3047 847 3047 1241 
Q 3047 1584 2836 1778 
Q 2625 1972 2144 2069 
L 1759 2144 
Q 1053 2284 737 2584 
Q 422 2884 422 3419 
Q 422 4038 858 4394 
Q 1294 4750 2059 4750 
Q 2388 4750 2728 4690 
Q 3069 4631 3425 4513 
z
" transform="scale(0.015625)"/>
     <path id="DejaVuSans-54" d="M -19 4666 
L 3928 4666 
L 3928 4134 
L 2272 4134 
L 2272 0 
L 1638 0 
L 1638 4134 
L -19 4134 
L -19 4666 
z
" transform="scale(0.015625)"/>
     <path id="DejaVuSans-4d" d="M 628 4666 
L 1569 4666 
L 2759 1491 
L 3956 4666 
L 4897 4666 
L 4897 0 
L 4281 0 
L 4281 4097 
L 3078 897 
L 2444 897 
L 1241 4097 
L 1241 0 
L 628 0 
L 628 4666 
z
" transform="scale(0.015625)"/>
     <path id="DejaVuSans-20" transform="scale(0.015625)"/>
     <path id="DejaVuSans-2d" d="M 313 2009 
L 1997 2009 
L 1997 1497 
L 313 1497 
L 313 2009 
z
" transform="scale(0.015625)"/>
     <path id="DejaVuSans-4e" d="M 628 4666 
L 1478 4666 
L 3547 763 
L 3547 4666 
L 4159 4666 
L 4159 0 
L 3309 0 
L 1241 3903 
L 1241 0 
L 628 0 
L 628 4666 
z
" transform="scale(0.015625)"/>
     <path id="DejaVuSans-45" d="M 628 4666 
L 3578 4666 
L 3578 4134 
L 1259 4134 
L 1259 2753 
L 3481 2753 
L 3481 2222 
L 1259 2222 
L 1259 531 
L 3634 531 
L 3634 0 
L 628 0 
L 628 4666 
z
" transform="scale(0.015625)"/>
     <path id="DejaVuSans-52" d="M 2841 2188 
Q 3044 2119 3236 1894 
Q 3428 1669 3622 1275 
L 4263 0 
L 3584 0 
L 2988 1197 
Q 2756 1666 2539 1819 
Q 2322 1972 1947 1972 
L 1259 1972 
L 1259 0 
L 628 0 
L 628 4666 
L 2053 4666 
Q 2853 4666 3247 4331 
Q 3641 3997 3641 3322 
Q 3641 2881 3436 2590 
Q 3231 2300 2841 2188 
z
M 1259 4147 
L 1259 2491 
L 2053 2491 
Q 2509 2491 2742 2702 
Q 2975 2913 2975 3322 
Q 2975 3731 2742 3939 
Q 2509 4147 2053 4147 
L 1259 4147 
z
" transform="scale(0.015625)"/>
    </defs>
    <use xlink:href="#DejaVuSans-4c"/>
    <use xlink:href="#DejaVuSans-53" x="55.712891"/>
    <use xlink:href="#DejaVuSans-54" x="119.189453"/>
    <use xlink:href="#DejaVuSans-4d" x="180.273438"/>
    <use xlink:href="#DejaVuSans-20" x="266.552734"/>
    <use xlink:href="#DejaVuSans-2d" x="298.339844"/>
    <use xlink:href="#DejaVuSans-20" x="334.423828"/>
    <use xlink:href="#DejaVuSans-4e" x="366.210938"/>
    <use xlink:href="#DejaVuSans-45" x="441.015625"/>
    <use xlink:href="#DejaVuSans-41" x="504.199219"/>
    <use xlink:href="#DejaVuSans-52" x="572.607422"/>
   </g>
  </g>
 </g>
 <defs>
  <clipPath id="pa2b174a4d0">
   <rect x="135" y="43.2" width="380.454545" height="277.2"/>
  </clipPath>
  <clipPath id="p627402c315">
   <rect x="591.545455" y="43.2" width="380.454545" height="277.2"/>
  </clipPath>
 </defs>
</svg>
