<?xml version="1.0" encoding="utf-8" standalone="no"?>
<!DOCTYPE svg PUBLIC "-//W3C//DTD SVG 1.1//EN"
  "http://www.w3.org/Graphics/SVG/1.1/DTD/svg11.dtd">
<svg xmlns:xlink="http://www.w3.org/1999/xlink" width="1080pt" height="360pt" viewBox="0 0 1080 360" xmlns="http://www.w3.org/2000/svg" version="1.1">
 <metadata>
  <rdf:RDF xmlns:dc="http://purl.org/dc/elements/1.1/" xmlns:cc="http://creativecommons.org/ns#" xmlns:rdf="http://www.w3.org/1999/02/22-rdf-syntax-ns#">
   <cc:Work>
    <dc:type rdf:resource="http://purl.org/dc/dcmitype/StillImage"/>
    <dc:date>2024-06-03T20:42:46.352439</dc:date>
    <dc:format>image/svg+xml</dc:format>
    <dc:creator>
     <cc:Agent>
      <dc:title>Matplotlib v3.9.0, https://matplotlib.org/</dc:title>
     </cc:Agent>
    </dc:creator>
   </cc:Work>
  </rdf:RDF>
 </metadata>
 <defs>
  <style type="text/css">*{stroke-linejoin: round; stroke-linecap: butt}</style>
 </defs>
 <g id="figure_1">
  <g id="patch_1">
   <path d="M 0 360 
L 1080 360 
L 1080 0 
L 0 0 
z
" style="fill: #ffffff"/>
  </g>
  <g id="axes_1">
   <g id="patch_2">
    <path d="M 135 320.4 
L 515.454545 320.4 
L 515.454545 43.2 
L 135 43.2 
z
" style="fill: #ffffff"/>
   </g>
   <g id="matplotlib.axis_1">
    <g id="xtick_1">
     <g id="line2d_1">
      <path d="M 165.595995 320.4 
L 165.595995 43.2 
" clip-path="url(#p5b03689bdf)" style="fill: none; stroke-dasharray: 2.96,1.28; stroke-dashoffset: 0; stroke: #d0d0d0; stroke-width: 0.8"/>
     </g>
     <g id="line2d_2"/>
     <g id="text_1">
      <!-- 00:00 -->
      <g style="fill: #262626" transform="translate(157.17369 351.20537) rotate(-45) scale(0.12 -0.12)">
       <defs>
        <path id="ArialMT-30" d="M 266 2259 
Q 266 3072 433 3567 
Q 600 4063 929 4331 
Q 1259 4600 1759 4600 
Q 2128 4600 2406 4451 
Q 2684 4303 2865 4023 
Q 3047 3744 3150 3342 
Q 3253 2941 3253 2259 
Q 3253 1453 3087 958 
Q 2922 463 2592 192 
Q 2263 -78 1759 -78 
Q 1097 -78 719 397 
Q 266 969 266 2259 
z
M 844 2259 
Q 844 1131 1108 757 
Q 1372 384 1759 384 
Q 2147 384 2411 759 
Q 2675 1134 2675 2259 
Q 2675 3391 2411 3762 
Q 2147 4134 1753 4134 
Q 1366 4134 1134 3806 
Q 844 3388 844 2259 
z
" transform="scale(0.015625)"/>
        <path id="ArialMT-3a" d="M 578 2678 
L 578 3319 
L 1219 3319 
L 1219 2678 
L 578 2678 
z
M 578 0 
L 578 641 
L 1219 641 
L 1219 0 
L 578 0 
z
" transform="scale(0.015625)"/>
       </defs>
       <use xlink:href="#ArialMT-30"/>
       <use xlink:href="#ArialMT-30" x="55.615234"/>
       <use xlink:href="#ArialMT-3a" x="111.230469"/>
       <use xlink:href="#ArialMT-30" x="139.013672"/>
       <use xlink:href="#ArialMT-30" x="194.628906"/>
      </g>
     </g>
    </g>
    <g id="xtick_2">
     <g id="line2d_3">
      <path d="M 235.000898 320.4 
L 235.000898 43.2 
" clip-path="url(#p5b03689bdf)" style="fill: none; stroke-dasharray: 2.96,1.28; stroke-dashoffset: 0; stroke: #d0d0d0; stroke-width: 0.8"/>
     </g>
     <g id="line2d_4"/>
     <g id="text_2">
      <!-- 05:00 -->
      <g style="fill: #262626" transform="translate(226.578594 351.20537) rotate(-45) scale(0.12 -0.12)">
       <defs>
        <path id="ArialMT-35" d="M 266 1200 
L 856 1250 
Q 922 819 1161 601 
Q 1400 384 1738 384 
Q 2144 384 2425 690 
Q 2706 997 2706 1503 
Q 2706 1984 2436 2262 
Q 2166 2541 1728 2541 
Q 1456 2541 1237 2417 
Q 1019 2294 894 2097 
L 366 2166 
L 809 4519 
L 3088 4519 
L 3088 3981 
L 1259 3981 
L 1013 2750 
Q 1425 3038 1878 3038 
Q 2478 3038 2890 2622 
Q 3303 2206 3303 1553 
Q 3303 931 2941 478 
Q 2500 -78 1738 -78 
Q 1113 -78 717 272 
Q 322 622 266 1200 
z
" transform="scale(0.015625)"/>
       </defs>
       <use xlink:href="#ArialMT-30"/>
       <use xlink:href="#ArialMT-35" x="55.615234"/>
       <use xlink:href="#ArialMT-3a" x="111.230469"/>
       <use xlink:href="#ArialMT-30" x="139.013672"/>
       <use xlink:href="#ArialMT-30" x="194.628906"/>
      </g>
     </g>
    </g>
    <g id="xtick_3">
     <g id="line2d_5">
      <path d="M 304.405802 320.4 
L 304.405802 43.2 
" clip-path="url(#p5b03689bdf)" style="fill: none; stroke-dasharray: 2.96,1.28; stroke-dashoffset: 0; stroke: #d0d0d0; stroke-width: 0.8"/>
     </g>
     <g id="line2d_6"/>
     <g id="text_3">
      <!-- 10:00 -->
      <g style="fill: #262626" transform="translate(295.983497 351.20537) rotate(-45) scale(0.12 -0.12)">
       <defs>
        <path id="ArialMT-31" d="M 2384 0 
L 1822 0 
L 1822 3584 
Q 1619 3391 1289 3197 
Q 959 3003 697 2906 
L 697 3450 
Q 1169 3672 1522 3987 
Q 1875 4303 2022 4600 
L 2384 4600 
L 2384 0 
z
" transform="scale(0.015625)"/>
       </defs>
       <use xlink:href="#ArialMT-31"/>
       <use xlink:href="#ArialMT-30" x="55.615234"/>
       <use xlink:href="#ArialMT-3a" x="111.230469"/>
       <use xlink:href="#ArialMT-30" x="139.013672"/>
       <use xlink:href="#ArialMT-30" x="194.628906"/>
      </g>
     </g>
    </g>
    <g id="xtick_4">
     <g id="line2d_7">
      <path d="M 373.810705 320.4 
L 373.810705 43.2 
" clip-path="url(#p5b03689bdf)" style="fill: none; stroke-dasharray: 2.96,1.28; stroke-dashoffset: 0; stroke: #d0d0d0; stroke-width: 0.8"/>
     </g>
     <g id="line2d_8"/>
     <g id="text_4">
      <!-- 15:00 -->
      <g style="fill: #262626" transform="translate(365.3884 351.20537) rotate(-45) scale(0.12 -0.12)">
       <use xlink:href="#ArialMT-31"/>
       <use xlink:href="#ArialMT-35" x="55.615234"/>
       <use xlink:href="#ArialMT-3a" x="111.230469"/>
       <use xlink:href="#ArialMT-30" x="139.013672"/>
       <use xlink:href="#ArialMT-30" x="194.628906"/>
      </g>
     </g>
    </g>
    <g id="xtick_5">
     <g id="line2d_9">
      <path d="M 443.215609 320.4 
L 443.215609 43.2 
" clip-path="url(#p5b03689bdf)" style="fill: none; stroke-dasharray: 2.96,1.28; stroke-dashoffset: 0; stroke: #d0d0d0; stroke-width: 0.8"/>
     </g>
     <g id="line2d_10"/>
     <g id="text_5">
      <!-- 20:00 -->
      <g style="fill: #262626" transform="translate(434.793304 351.20537) rotate(-45) scale(0.12 -0.12)">
       <defs>
        <path id="ArialMT-32" d="M 3222 541 
L 3222 0 
L 194 0 
Q 188 203 259 391 
Q 375 700 629 1000 
Q 884 1300 1366 1694 
Q 2113 2306 2375 2664 
Q 2638 3022 2638 3341 
Q 2638 3675 2398 3904 
Q 2159 4134 1775 4134 
Q 1369 4134 1125 3890 
Q 881 3647 878 3216 
L 300 3275 
Q 359 3922 746 4261 
Q 1134 4600 1788 4600 
Q 2447 4600 2831 4234 
Q 3216 3869 3216 3328 
Q 3216 3053 3103 2787 
Q 2991 2522 2730 2228 
Q 2469 1934 1863 1422 
Q 1356 997 1212 845 
Q 1069 694 975 541 
L 3222 541 
z
" transform="scale(0.015625)"/>
       </defs>
       <use xlink:href="#ArialMT-32"/>
       <use xlink:href="#ArialMT-30" x="55.615234"/>
       <use xlink:href="#ArialMT-3a" x="111.230469"/>
       <use xlink:href="#ArialMT-30" x="139.013672"/>
       <use xlink:href="#ArialMT-30" x="194.628906"/>
      </g>
     </g>
    </g>
    <g id="xtick_6">
     <g id="line2d_11">
      <path d="M 512.620512 320.4 
L 512.620512 43.2 
" clip-path="url(#p5b03689bdf)" style="fill: none; stroke-dasharray: 2.96,1.28; stroke-dashoffset: 0; stroke: #d0d0d0; stroke-width: 0.8"/>
     </g>
     <g id="line2d_12"/>
    </g>
   </g>
   <g id="matplotlib.axis_2">
    <g id="ytick_1">
     <g id="line2d_13">
      <path d="M 135 311.129617 
L 515.454545 311.129617 
" clip-path="url(#p5b03689bdf)" style="fill: none; stroke-dasharray: 2.96,1.28; stroke-dashoffset: 0; stroke: #d0d0d0; stroke-width: 0.8"/>
     </g>
     <g id="line2d_14"/>
     <g id="text_6">
      <!-- −0.5 -->
      <g style="fill: #262626" transform="translate(107.81125 315.424305) scale(0.12 -0.12)">
       <defs>
        <path id="ArialMT-2212" d="M 3381 1997 
L 356 1997 
L 356 2522 
L 3381 2522 
L 3381 1997 
z
" transform="scale(0.015625)"/>
        <path id="ArialMT-2e" d="M 581 0 
L 581 641 
L 1222 641 
L 1222 0 
L 581 0 
z
" transform="scale(0.015625)"/>
       </defs>
       <use xlink:href="#ArialMT-2212"/>
       <use xlink:href="#ArialMT-30" x="58.398438"/>
       <use xlink:href="#ArialMT-2e" x="114.013672"/>
       <use xlink:href="#ArialMT-35" x="141.796875"/>
      </g>
     </g>
    </g>
    <g id="ytick_2">
     <g id="line2d_15">
      <path d="M 135 276.04657 
L 515.454545 276.04657 
" clip-path="url(#p5b03689bdf)" style="fill: none; stroke-dasharray: 2.96,1.28; stroke-dashoffset: 0; stroke: #d0d0d0; stroke-width: 0.8"/>
     </g>
     <g id="line2d_16"/>
     <g id="text_7">
      <!-- 0.0 -->
      <g style="fill: #262626" transform="translate(114.82 280.341258) scale(0.12 -0.12)">
       <use xlink:href="#ArialMT-30"/>
       <use xlink:href="#ArialMT-2e" x="55.615234"/>
       <use xlink:href="#ArialMT-30" x="83.398438"/>
      </g>
     </g>
    </g>
    <g id="ytick_3">
     <g id="line2d_17">
      <path d="M 135 240.963523 
L 515.454545 240.963523 
" clip-path="url(#p5b03689bdf)" style="fill: none; stroke-dasharray: 2.96,1.28; stroke-dashoffset: 0; stroke: #d0d0d0; stroke-width: 0.8"/>
     </g>
     <g id="line2d_18"/>
     <g id="text_8">
      <!-- 0.5 -->
      <g style="fill: #262626" transform="translate(114.82 245.258211) scale(0.12 -0.12)">
       <use xlink:href="#ArialMT-30"/>
       <use xlink:href="#ArialMT-2e" x="55.615234"/>
       <use xlink:href="#ArialMT-35" x="83.398438"/>
      </g>
     </g>
    </g>
    <g id="ytick_4">
     <g id="line2d_19">
      <path d="M 135 205.880476 
L 515.454545 205.880476 
" clip-path="url(#p5b03689bdf)" style="fill: none; stroke-dasharray: 2.96,1.28; stroke-dashoffset: 0; stroke: #d0d0d0; stroke-width: 0.8"/>
     </g>
     <g id="line2d_20"/>
     <g id="text_9">
      <!-- 1.0 -->
      <g style="fill: #262626" transform="translate(114.82 210.175164) scale(0.12 -0.12)">
       <use xlink:href="#ArialMT-31"/>
       <use xlink:href="#ArialMT-2e" x="55.615234"/>
       <use xlink:href="#ArialMT-30" x="83.398438"/>
      </g>
     </g>
    </g>
    <g id="ytick_5">
     <g id="line2d_21">
      <path d="M 135 170.797429 
L 515.454545 170.797429 
" clip-path="url(#p5b03689bdf)" style="fill: none; stroke-dasharray: 2.96,1.28; stroke-dashoffset: 0; stroke: #d0d0d0; stroke-width: 0.8"/>
     </g>
     <g id="line2d_22"/>
     <g id="text_10">
      <!-- 1.5 -->
      <g style="fill: #262626" transform="translate(114.82 175.092117) scale(0.12 -0.12)">
       <use xlink:href="#ArialMT-31"/>
       <use xlink:href="#ArialMT-2e" x="55.615234"/>
       <use xlink:href="#ArialMT-35" x="83.398438"/>
      </g>
     </g>
    </g>
    <g id="ytick_6">
     <g id="line2d_23">
      <path d="M 135 135.714382 
L 515.454545 135.714382 
" clip-path="url(#p5b03689bdf)" style="fill: none; stroke-dasharray: 2.96,1.28; stroke-dashoffset: 0; stroke: #d0d0d0; stroke-width: 0.8"/>
     </g>
     <g id="line2d_24"/>
     <g id="text_11">
      <!-- 2.0 -->
      <g style="fill: #262626" transform="translate(114.82 140.00907) scale(0.12 -0.12)">
       <use xlink:href="#ArialMT-32"/>
       <use xlink:href="#ArialMT-2e" x="55.615234"/>
       <use xlink:href="#ArialMT-30" x="83.398438"/>
      </g>
     </g>
    </g>
    <g id="ytick_7">
     <g id="line2d_25">
      <path d="M 135 100.631336 
L 515.454545 100.631336 
" clip-path="url(#p5b03689bdf)" style="fill: none; stroke-dasharray: 2.96,1.28; stroke-dashoffset: 0; stroke: #d0d0d0; stroke-width: 0.8"/>
     </g>
     <g id="line2d_26"/>
     <g id="text_12">
      <!-- 2.5 -->
      <g style="fill: #262626" transform="translate(114.82 104.926023) scale(0.12 -0.12)">
       <use xlink:href="#ArialMT-32"/>
       <use xlink:href="#ArialMT-2e" x="55.615234"/>
       <use xlink:href="#ArialMT-35" x="83.398438"/>
      </g>
     </g>
    </g>
    <g id="ytick_8">
     <g id="line2d_27">
      <path d="M 135 65.548289 
L 515.454545 65.548289 
" clip-path="url(#p5b03689bdf)" style="fill: none; stroke-dasharray: 2.96,1.28; stroke-dashoffset: 0; stroke: #d0d0d0; stroke-width: 0.8"/>
     </g>
     <g id="line2d_28"/>
     <g id="text_13">
      <!-- 3.0 -->
      <g style="fill: #262626" transform="translate(114.82 69.842976) scale(0.12 -0.12)">
       <defs>
        <path id="ArialMT-33" d="M 269 1209 
L 831 1284 
Q 928 806 1161 595 
Q 1394 384 1728 384 
Q 2125 384 2398 659 
Q 2672 934 2672 1341 
Q 2672 1728 2419 1979 
Q 2166 2231 1775 2231 
Q 1616 2231 1378 2169 
L 1441 2663 
Q 1497 2656 1531 2656 
Q 1891 2656 2178 2843 
Q 2466 3031 2466 3422 
Q 2466 3731 2256 3934 
Q 2047 4138 1716 4138 
Q 1388 4138 1169 3931 
Q 950 3725 888 3313 
L 325 3413 
Q 428 3978 793 4289 
Q 1159 4600 1703 4600 
Q 2078 4600 2393 4439 
Q 2709 4278 2876 4000 
Q 3044 3722 3044 3409 
Q 3044 3113 2884 2869 
Q 2725 2625 2413 2481 
Q 2819 2388 3044 2092 
Q 3269 1797 3269 1353 
Q 3269 753 2831 336 
Q 2394 -81 1725 -81 
Q 1122 -81 723 278 
Q 325 638 269 1209 
z
" transform="scale(0.015625)"/>
       </defs>
       <use xlink:href="#ArialMT-33"/>
       <use xlink:href="#ArialMT-2e" x="55.615234"/>
       <use xlink:href="#ArialMT-30" x="83.398438"/>
      </g>
     </g>
    </g>
    <g id="text_14">
     <!-- Price -->
     <g style="fill: #262626" transform="translate(101.443125 196.4775) rotate(-90) scale(0.12 -0.12)">
      <defs>
       <path id="Arial-BoldMT-50" d="M 466 0 
L 466 4581 
L 1950 4581 
Q 2794 4581 3050 4513 
Q 3444 4409 3709 4064 
Q 3975 3719 3975 3172 
Q 3975 2750 3822 2462 
Q 3669 2175 3433 2011 
Q 3197 1847 2953 1794 
Q 2622 1728 1994 1728 
L 1391 1728 
L 1391 0 
L 466 0 
z
M 1391 3806 
L 1391 2506 
L 1897 2506 
Q 2444 2506 2628 2578 
Q 2813 2650 2917 2803 
Q 3022 2956 3022 3159 
Q 3022 3409 2875 3571 
Q 2728 3734 2503 3775 
Q 2338 3806 1838 3806 
L 1391 3806 
z
" transform="scale(0.015625)"/>
       <path id="Arial-BoldMT-72" d="M 1300 0 
L 422 0 
L 422 3319 
L 1238 3319 
L 1238 2847 
Q 1447 3181 1614 3287 
Q 1781 3394 1994 3394 
Q 2294 3394 2572 3228 
L 2300 2463 
Q 2078 2606 1888 2606 
Q 1703 2606 1575 2504 
Q 1447 2403 1373 2137 
Q 1300 1872 1300 1025 
L 1300 0 
z
" transform="scale(0.015625)"/>
       <path id="Arial-BoldMT-69" d="M 459 3769 
L 459 4581 
L 1338 4581 
L 1338 3769 
L 459 3769 
z
M 459 0 
L 459 3319 
L 1338 3319 
L 1338 0 
L 459 0 
z
" transform="scale(0.015625)"/>
       <path id="Arial-BoldMT-63" d="M 3353 2338 
L 2488 2181 
Q 2444 2441 2289 2572 
Q 2134 2703 1888 2703 
Q 1559 2703 1364 2476 
Q 1169 2250 1169 1719 
Q 1169 1128 1367 884 
Q 1566 641 1900 641 
Q 2150 641 2309 783 
Q 2469 925 2534 1272 
L 3397 1125 
Q 3263 531 2881 228 
Q 2500 -75 1859 -75 
Q 1131 -75 698 384 
Q 266 844 266 1656 
Q 266 2478 700 2936 
Q 1134 3394 1875 3394 
Q 2481 3394 2839 3133 
Q 3197 2872 3353 2338 
z
" transform="scale(0.015625)"/>
       <path id="Arial-BoldMT-65" d="M 2381 1056 
L 3256 909 
Q 3088 428 2723 176 
Q 2359 -75 1813 -75 
Q 947 -75 531 491 
Q 203 944 203 1634 
Q 203 2459 634 2926 
Q 1066 3394 1725 3394 
Q 2466 3394 2894 2905 
Q 3322 2416 3303 1406 
L 1103 1406 
Q 1113 1016 1316 798 
Q 1519 581 1822 581 
Q 2028 581 2168 693 
Q 2309 806 2381 1056 
z
M 2431 1944 
Q 2422 2325 2234 2523 
Q 2047 2722 1778 2722 
Q 1491 2722 1303 2513 
Q 1116 2303 1119 1944 
L 2431 1944 
z
" transform="scale(0.015625)"/>
      </defs>
      <use xlink:href="#Arial-BoldMT-50"/>
      <use xlink:href="#Arial-BoldMT-72" x="66.699219"/>
      <use xlink:href="#Arial-BoldMT-69" x="105.615234"/>
      <use xlink:href="#Arial-BoldMT-63" x="133.398438"/>
      <use xlink:href="#Arial-BoldMT-65" x="189.013672"/>
     </g>
    </g>
   </g>
   <g id="PolyCollection_1">
    <path d="M 161.084676 265.588665 
L 161.084676 265.546565 
L 170.107314 265.546565 
L 170.107314 265.588665 
z
" clip-path="url(#p5b03689bdf)" style="fill: #70a800; fill-opacity: 0.9; stroke: #70a800"/>
    <path d="M 174.965657 265.546565 
L 174.965657 265.532532 
L 183.988294 265.532532 
L 183.988294 265.546565 
z
" clip-path="url(#p5b03689bdf)" style="fill: #70a800; fill-opacity: 0.9; stroke: #70a800"/>
    <path d="M 188.846638 265.532532 
L 188.846638 265.437106 
L 197.869275 265.437106 
L 197.869275 265.532532 
z
" clip-path="url(#p5b03689bdf)" style="fill: #70a800; fill-opacity: 0.9; stroke: #70a800"/>
    <path d="M 202.727618 265.437457 
L 202.727618 265.459559 
L 211.750256 265.459559 
L 211.750256 265.437457 
z
" clip-path="url(#p5b03689bdf)" style="fill: #ea0070; fill-opacity: 0.9; stroke: #ea0070"/>
    <path d="M 216.608599 265.459559 
L 216.608599 265.347995 
L 225.631236 265.347995 
L 225.631236 265.459559 
z
" clip-path="url(#p5b03689bdf)" style="fill: #70a800; fill-opacity: 0.9; stroke: #70a800"/>
    <path d="M 230.48958 265.347995 
L 230.48958 265.367642 
L 239.512217 265.367642 
L 239.512217 265.347995 
z
" clip-path="url(#p5b03689bdf)" style="fill: #ea0070; fill-opacity: 0.9; stroke: #ea0070"/>
    <path d="M 244.37056 265.367642 
L 244.37056 265.556388 
L 253.393198 265.556388 
L 253.393198 265.367642 
z
" clip-path="url(#p5b03689bdf)" style="fill: #ea0070; fill-opacity: 0.9; stroke: #ea0070"/>
    <path d="M 258.251541 265.556037 
L 258.251541 265.451841 
L 267.274178 265.451841 
L 267.274178 265.556037 
z
" clip-path="url(#p5b03689bdf)" style="fill: #70a800; fill-opacity: 0.9; stroke: #70a800"/>
    <path d="M 272.132522 265.451841 
L 272.132522 265.418863 
L 281.155159 265.418863 
L 281.155159 265.451841 
z
" clip-path="url(#p5b03689bdf)" style="fill: #70a800; fill-opacity: 0.9; stroke: #70a800"/>
    <path d="M 286.013502 265.418863 
L 286.013502 265.437808 
L 295.03614 265.437808 
L 295.03614 265.418863 
z
" clip-path="url(#p5b03689bdf)" style="fill: #ea0070; fill-opacity: 0.9; stroke: #ea0070"/>
    <path d="M 299.894483 265.437808 
L 299.894483 265.385885 
L 308.91712 265.385885 
L 308.91712 265.437808 
z
" clip-path="url(#p5b03689bdf)" style="fill: #70a800; fill-opacity: 0.9; stroke: #70a800"/>
    <path d="M 313.775464 265.385885 
L 313.775464 265.466576 
L 322.798101 265.466576 
L 322.798101 265.385885 
z
" clip-path="url(#p5b03689bdf)" style="fill: #ea0070; fill-opacity: 0.9; stroke: #ea0070"/>
    <path d="M 327.656444 265.466576 
L 327.656444 265.442719 
L 336.679082 265.442719 
L 336.679082 265.466576 
z
" clip-path="url(#p5b03689bdf)" style="fill: #70a800; fill-opacity: 0.9; stroke: #70a800"/>
    <path d="M 341.537425 265.442719 
L 341.537425 265.387288 
L 350.560062 265.387288 
L 350.560062 265.442719 
z
" clip-path="url(#p5b03689bdf)" style="fill: #70a800; fill-opacity: 0.9; stroke: #70a800"/>
    <path d="M 355.418406 265.387288 
L 355.418406 265.418161 
L 364.441043 265.418161 
L 364.441043 265.387288 
z
" clip-path="url(#p5b03689bdf)" style="fill: #ea0070; fill-opacity: 0.9; stroke: #ea0070"/>
    <path d="M 369.299386 265.418161 
L 369.299386 265.357117 
L 378.322024 265.357117 
L 378.322024 265.418161 
z
" clip-path="url(#p5b03689bdf)" style="fill: #70a800; fill-opacity: 0.9; stroke: #70a800"/>
    <path d="M 383.180367 265.357117 
L 383.180367 265.356415 
L 392.203005 265.356415 
L 392.203005 265.357117 
z
" clip-path="url(#p5b03689bdf)" style="fill: #70a800; fill-opacity: 0.9; stroke: #70a800"/>
    <path d="M 397.061348 265.356415 
L 397.061348 265.293265 
L 406.083985 265.293265 
L 406.083985 265.356415 
z
" clip-path="url(#p5b03689bdf)" style="fill: #70a800; fill-opacity: 0.9; stroke: #70a800"/>
    <path d="M 410.942328 265.293265 
L 410.942328 265.29116 
L 419.964966 265.29116 
L 419.964966 265.293265 
z
" clip-path="url(#p5b03689bdf)" style="fill: #70a800; fill-opacity: 0.9; stroke: #70a800"/>
    <path d="M 424.823309 265.29116 
L 424.823309 264.983833 
L 433.845947 264.983833 
L 433.845947 265.29116 
z
" clip-path="url(#p5b03689bdf)" style="fill: #70a800; fill-opacity: 0.9; stroke: #70a800"/>
    <path d="M 438.70429 264.983833 
L 438.70429 264.948048 
L 447.726927 264.948048 
L 447.726927 264.983833 
z
" clip-path="url(#p5b03689bdf)" style="fill: #70a800; fill-opacity: 0.9; stroke: #70a800"/>
    <path d="M 452.58527 264.948048 
L 452.58527 264.819644 
L 461.607908 264.819644 
L 461.607908 264.948048 
z
" clip-path="url(#p5b03689bdf)" style="fill: #70a800; fill-opacity: 0.9; stroke: #70a800"/>
    <path d="M 466.466251 264.819644 
L 466.466251 264.670892 
L 475.488889 264.670892 
L 475.488889 264.819644 
z
" clip-path="url(#p5b03689bdf)" style="fill: #70a800; fill-opacity: 0.9; stroke: #70a800"/>
    <path d="M 480.347232 264.670892 
L 480.347232 264.411278 
L 489.369869 264.411278 
L 489.369869 264.670892 
z
" clip-path="url(#p5b03689bdf)" style="fill: #70a800; fill-opacity: 0.9; stroke: #70a800"/>
   </g>
   <g id="LineCollection_1">
    <path d="M 165.595995 265.637079 
L 165.595995 265.588665 
" clip-path="url(#p5b03689bdf)" style="fill: none; stroke: #70a800"/>
    <path d="M 179.476976 265.685845 
L 179.476976 265.546565 
" clip-path="url(#p5b03689bdf)" style="fill: none; stroke: #70a800"/>
    <path d="M 193.357956 265.542355 
L 193.357956 265.532532 
" clip-path="url(#p5b03689bdf)" style="fill: none; stroke: #70a800"/>
    <path d="M 207.238937 265.467628 
L 207.238937 265.459559 
" clip-path="url(#p5b03689bdf)" style="fill: none; stroke: #ea0070"/>
    <path d="M 221.119918 265.474996 
L 221.119918 265.459559 
" clip-path="url(#p5b03689bdf)" style="fill: none; stroke: #70a800"/>
    <path d="M 235.000898 265.388341 
L 235.000898 265.367642 
" clip-path="url(#p5b03689bdf)" style="fill: none; stroke: #ea0070"/>
    <path d="M 248.881879 265.600593 
L 248.881879 265.556388 
" clip-path="url(#p5b03689bdf)" style="fill: none; stroke: #ea0070"/>
    <path d="M 262.76286 265.576736 
L 262.76286 265.556037 
" clip-path="url(#p5b03689bdf)" style="fill: none; stroke: #70a800"/>
    <path d="M 276.64384 265.451841 
L 276.64384 265.451841 
" clip-path="url(#p5b03689bdf)" style="fill: none; stroke: #70a800"/>
    <path d="M 290.524821 265.439913 
L 290.524821 265.437808 
" clip-path="url(#p5b03689bdf)" style="fill: none; stroke: #ea0070"/>
    <path d="M 304.405802 265.456051 
L 304.405802 265.437808 
" clip-path="url(#p5b03689bdf)" style="fill: none; stroke: #70a800"/>
    <path d="M 318.286782 265.474996 
L 318.286782 265.466576 
" clip-path="url(#p5b03689bdf)" style="fill: none; stroke: #ea0070"/>
    <path d="M 332.167763 265.491836 
L 332.167763 265.466576 
" clip-path="url(#p5b03689bdf)" style="fill: none; stroke: #70a800"/>
    <path d="M 346.048744 265.451139 
L 346.048744 265.442719 
" clip-path="url(#p5b03689bdf)" style="fill: none; stroke: #70a800"/>
    <path d="M 359.929724 265.472189 
L 359.929724 265.418161 
" clip-path="url(#p5b03689bdf)" style="fill: none; stroke: #ea0070"/>
    <path d="M 373.810705 265.432896 
L 373.810705 265.418161 
" clip-path="url(#p5b03689bdf)" style="fill: none; stroke: #70a800"/>
    <path d="M 387.691686 265.392901 
L 387.691686 265.357117 
" clip-path="url(#p5b03689bdf)" style="fill: none; stroke: #70a800"/>
    <path d="M 401.572666 265.401321 
L 401.572666 265.356415 
" clip-path="url(#p5b03689bdf)" style="fill: none; stroke: #70a800"/>
    <path d="M 415.453647 265.319227 
L 415.453647 265.293265 
" clip-path="url(#p5b03689bdf)" style="fill: none; stroke: #70a800"/>
    <path d="M 429.334628 265.32484 
L 429.334628 265.29116 
" clip-path="url(#p5b03689bdf)" style="fill: none; stroke: #70a800"/>
    <path d="M 443.215609 265.108027 
L 443.215609 264.983833 
" clip-path="url(#p5b03689bdf)" style="fill: none; stroke: #70a800"/>
    <path d="M 457.096589 265.070137 
L 457.096589 264.948048 
" clip-path="url(#p5b03689bdf)" style="fill: none; stroke: #70a800"/>
    <path d="M 470.97757 264.839993 
L 470.97757 264.819644 
" clip-path="url(#p5b03689bdf)" style="fill: none; stroke: #70a800"/>
    <path d="M 484.858551 264.701765 
L 484.858551 264.670892 
" clip-path="url(#p5b03689bdf)" style="fill: none; stroke: #70a800"/>
    <path d="M 165.595995 265.51499 
L 165.595995 265.546565 
" clip-path="url(#p5b03689bdf)" style="fill: none; stroke: #70a800"/>
    <path d="M 179.476976 265.52762 
L 179.476976 265.532532 
" clip-path="url(#p5b03689bdf)" style="fill: none; stroke: #70a800"/>
    <path d="M 193.357956 265.395357 
L 193.357956 265.437106 
" clip-path="url(#p5b03689bdf)" style="fill: none; stroke: #70a800"/>
    <path d="M 207.238937 265.411846 
L 207.238937 265.437457 
" clip-path="url(#p5b03689bdf)" style="fill: none; stroke: #ea0070"/>
    <path d="M 221.119918 265.327647 
L 221.119918 265.347995 
" clip-path="url(#p5b03689bdf)" style="fill: none; stroke: #70a800"/>
    <path d="M 235.000898 265.289757 
L 235.000898 265.347995 
" clip-path="url(#p5b03689bdf)" style="fill: none; stroke: #ea0070"/>
    <path d="M 248.881879 265.359923 
L 248.881879 265.367642 
" clip-path="url(#p5b03689bdf)" style="fill: none; stroke: #ea0070"/>
    <path d="M 262.76286 265.433598 
L 262.76286 265.451841 
" clip-path="url(#p5b03689bdf)" style="fill: none; stroke: #70a800"/>
    <path d="M 276.64384 265.3922 
L 276.64384 265.418863 
" clip-path="url(#p5b03689bdf)" style="fill: none; stroke: #70a800"/>
    <path d="M 290.524821 265.38799 
L 290.524821 265.418863 
" clip-path="url(#p5b03689bdf)" style="fill: none; stroke: #ea0070"/>
    <path d="M 304.405802 265.346592 
L 304.405802 265.385885 
" clip-path="url(#p5b03689bdf)" style="fill: none; stroke: #70a800"/>
    <path d="M 318.286782 265.350802 
L 318.286782 265.385885 
" clip-path="url(#p5b03689bdf)" style="fill: none; stroke: #ea0070"/>
    <path d="M 332.167763 265.399567 
L 332.167763 265.442719 
" clip-path="url(#p5b03689bdf)" style="fill: none; stroke: #70a800"/>
    <path d="M 346.048744 265.372553 
L 346.048744 265.387288 
" clip-path="url(#p5b03689bdf)" style="fill: none; stroke: #70a800"/>
    <path d="M 359.929724 265.385183 
L 359.929724 265.387288 
" clip-path="url(#p5b03689bdf)" style="fill: none; stroke: #ea0070"/>
    <path d="M 373.810705 265.301685 
L 373.810705 265.357117 
" clip-path="url(#p5b03689bdf)" style="fill: none; stroke: #70a800"/>
    <path d="M 387.691686 265.238536 
L 387.691686 265.356415 
" clip-path="url(#p5b03689bdf)" style="fill: none; stroke: #70a800"/>
    <path d="M 401.572666 265.245553 
L 401.572666 265.293265 
" clip-path="url(#p5b03689bdf)" style="fill: none; stroke: #70a800"/>
    <path d="M 415.453647 265.259586 
L 415.453647 265.29116 
" clip-path="url(#p5b03689bdf)" style="fill: none; stroke: #70a800"/>
    <path d="M 429.334628 264.972606 
L 429.334628 264.983833 
" clip-path="url(#p5b03689bdf)" style="fill: none; stroke: #70a800"/>
    <path d="M 443.215609 264.869462 
L 443.215609 264.948048 
" clip-path="url(#p5b03689bdf)" style="fill: none; stroke: #70a800"/>
    <path d="M 457.096589 264.812628 
L 457.096589 264.819644 
" clip-path="url(#p5b03689bdf)" style="fill: none; stroke: #70a800"/>
    <path d="M 470.97757 264.461096 
L 470.97757 264.670892 
" clip-path="url(#p5b03689bdf)" style="fill: none; stroke: #70a800"/>
    <path d="M 484.858551 264.371283 
L 484.858551 264.411278 
" clip-path="url(#p5b03689bdf)" style="fill: none; stroke: #70a800"/>
   </g>
   <g id="patch_3">
    <path d="M 135 320.4 
L 135 43.2 
" style="fill: none; stroke: #e6e6e6; stroke-width: 1.5; stroke-linejoin: miter; stroke-linecap: square"/>
   </g>
   <g id="patch_4">
    <path d="M 515.454545 320.4 
L 515.454545 43.2 
" style="fill: none; stroke: #e6e6e6; stroke-width: 1.5; stroke-linejoin: miter; stroke-linecap: square"/>
   </g>
   <g id="patch_5">
    <path d="M 135 320.4 
L 515.454545 320.4 
" style="fill: none; stroke: #e6e6e6; stroke-width: 1.5; stroke-linejoin: miter; stroke-linecap: square"/>
   </g>
   <g id="patch_6">
    <path d="M 135 43.2 
L 515.454545 43.2 
" style="fill: none; stroke: #e6e6e6; stroke-width: 1.5; stroke-linejoin: miter; stroke-linecap: square"/>
   </g>
   <g id="text_15">
    <!-- Actual -->
    <g style="fill: #262626" transform="translate(305.216898 37.2) scale(0.144 -0.144)">
     <defs>
      <path id="ArialMT-41" d="M -9 0 
L 1750 4581 
L 2403 4581 
L 4278 0 
L 3588 0 
L 3053 1388 
L 1138 1388 
L 634 0 
L -9 0 
z
M 1313 1881 
L 2866 1881 
L 2388 3150 
Q 2169 3728 2063 4100 
Q 1975 3659 1816 3225 
L 1313 1881 
z
" transform="scale(0.015625)"/>
      <path id="ArialMT-63" d="M 2588 1216 
L 3141 1144 
Q 3050 572 2676 248 
Q 2303 -75 1759 -75 
Q 1078 -75 664 370 
Q 250 816 250 1647 
Q 250 2184 428 2587 
Q 606 2991 970 3192 
Q 1334 3394 1763 3394 
Q 2303 3394 2647 3120 
Q 2991 2847 3088 2344 
L 2541 2259 
Q 2463 2594 2264 2762 
Q 2066 2931 1784 2931 
Q 1359 2931 1093 2626 
Q 828 2322 828 1663 
Q 828 994 1084 691 
Q 1341 388 1753 388 
Q 2084 388 2306 591 
Q 2528 794 2588 1216 
z
" transform="scale(0.015625)"/>
      <path id="ArialMT-74" d="M 1650 503 
L 1731 6 
Q 1494 -44 1306 -44 
Q 1000 -44 831 53 
Q 663 150 594 308 
Q 525 466 525 972 
L 525 2881 
L 113 2881 
L 113 3319 
L 525 3319 
L 525 4141 
L 1084 4478 
L 1084 3319 
L 1650 3319 
L 1650 2881 
L 1084 2881 
L 1084 941 
Q 1084 700 1114 631 
Q 1144 563 1211 522 
Q 1278 481 1403 481 
Q 1497 481 1650 503 
z
" transform="scale(0.015625)"/>
      <path id="ArialMT-75" d="M 2597 0 
L 2597 488 
Q 2209 -75 1544 -75 
Q 1250 -75 995 37 
Q 741 150 617 320 
Q 494 491 444 738 
Q 409 903 409 1263 
L 409 3319 
L 972 3319 
L 972 1478 
Q 972 1038 1006 884 
Q 1059 663 1231 536 
Q 1403 409 1656 409 
Q 1909 409 2131 539 
Q 2353 669 2445 892 
Q 2538 1116 2538 1541 
L 2538 3319 
L 3100 3319 
L 3100 0 
L 2597 0 
z
" transform="scale(0.015625)"/>
      <path id="ArialMT-61" d="M 2588 409 
Q 2275 144 1986 34 
Q 1697 -75 1366 -75 
Q 819 -75 525 192 
Q 231 459 231 875 
Q 231 1119 342 1320 
Q 453 1522 633 1644 
Q 813 1766 1038 1828 
Q 1203 1872 1538 1913 
Q 2219 1994 2541 2106 
Q 2544 2222 2544 2253 
Q 2544 2597 2384 2738 
Q 2169 2928 1744 2928 
Q 1347 2928 1158 2789 
Q 969 2650 878 2297 
L 328 2372 
Q 403 2725 575 2942 
Q 747 3159 1072 3276 
Q 1397 3394 1825 3394 
Q 2250 3394 2515 3294 
Q 2781 3194 2906 3042 
Q 3031 2891 3081 2659 
Q 3109 2516 3109 2141 
L 3109 1391 
Q 3109 606 3145 398 
Q 3181 191 3288 0 
L 2700 0 
Q 2613 175 2588 409 
z
M 2541 1666 
Q 2234 1541 1622 1453 
Q 1275 1403 1131 1340 
Q 988 1278 909 1158 
Q 831 1038 831 891 
Q 831 666 1001 516 
Q 1172 366 1500 366 
Q 1825 366 2078 508 
Q 2331 650 2450 897 
Q 2541 1088 2541 1459 
L 2541 1666 
z
" transform="scale(0.015625)"/>
      <path id="ArialMT-6c" d="M 409 0 
L 409 4581 
L 972 4581 
L 972 0 
L 409 0 
z
" transform="scale(0.015625)"/>
     </defs>
     <use xlink:href="#ArialMT-41"/>
     <use xlink:href="#ArialMT-63" x="66.699219"/>
     <use xlink:href="#ArialMT-74" x="116.699219"/>
     <use xlink:href="#ArialMT-75" x="144.482422"/>
     <use xlink:href="#ArialMT-61" x="200.097656"/>
     <use xlink:href="#ArialMT-6c" x="255.712891"/>
    </g>
   </g>
  </g>
  <g id="axes_2">
   <g id="patch_7">
    <path d="M 591.545455 320.4 
L 972 320.4 
L 972 43.2 
L 591.545455 43.2 
z
" style="fill: #ffffff"/>
   </g>
   <g id="matplotlib.axis_3">
    <g id="xtick_7">
     <g id="line2d_29">
      <path d="M 622.141449 320.4 
L 622.141449 43.2 
" clip-path="url(#p4ae4129222)" style="fill: none; stroke-dasharray: 2.96,1.28; stroke-dashoffset: 0; stroke: #d0d0d0; stroke-width: 0.8"/>
     </g>
     <g id="line2d_30"/>
     <g id="text_16">
      <!-- 00:00 -->
      <g style="fill: #262626" transform="translate(613.719145 351.20537) rotate(-45) scale(0.12 -0.12)">
       <use xlink:href="#ArialMT-30"/>
       <use xlink:href="#ArialMT-30" x="55.615234"/>
       <use xlink:href="#ArialMT-3a" x="111.230469"/>
       <use xlink:href="#ArialMT-30" x="139.013672"/>
       <use xlink:href="#ArialMT-30" x="194.628906"/>
      </g>
     </g>
    </g>
    <g id="xtick_8">
     <g id="line2d_31">
      <path d="M 691.546353 320.4 
L 691.546353 43.2 
" clip-path="url(#p4ae4129222)" style="fill: none; stroke-dasharray: 2.96,1.28; stroke-dashoffset: 0; stroke: #d0d0d0; stroke-width: 0.8"/>
     </g>
     <g id="line2d_32"/>
     <g id="text_17">
      <!-- 05:00 -->
      <g style="fill: #262626" transform="translate(683.124048 351.20537) rotate(-45) scale(0.12 -0.12)">
       <use xlink:href="#ArialMT-30"/>
       <use xlink:href="#ArialMT-35" x="55.615234"/>
       <use xlink:href="#ArialMT-3a" x="111.230469"/>
       <use xlink:href="#ArialMT-30" x="139.013672"/>
       <use xlink:href="#ArialMT-30" x="194.628906"/>
      </g>
     </g>
    </g>
    <g id="xtick_9">
     <g id="line2d_33">
      <path d="M 760.951256 320.4 
L 760.951256 43.2 
" clip-path="url(#p4ae4129222)" style="fill: none; stroke-dasharray: 2.96,1.28; stroke-dashoffset: 0; stroke: #d0d0d0; stroke-width: 0.8"/>
     </g>
     <g id="line2d_34"/>
     <g id="text_18">
      <!-- 10:00 -->
      <g style="fill: #262626" transform="translate(752.528952 351.20537) rotate(-45) scale(0.12 -0.12)">
       <use xlink:href="#ArialMT-31"/>
       <use xlink:href="#ArialMT-30" x="55.615234"/>
       <use xlink:href="#ArialMT-3a" x="111.230469"/>
       <use xlink:href="#ArialMT-30" x="139.013672"/>
       <use xlink:href="#ArialMT-30" x="194.628906"/>
      </g>
     </g>
    </g>
    <g id="xtick_10">
     <g id="line2d_35">
      <path d="M 830.35616 320.4 
L 830.35616 43.2 
" clip-path="url(#p4ae4129222)" style="fill: none; stroke-dasharray: 2.96,1.28; stroke-dashoffset: 0; stroke: #d0d0d0; stroke-width: 0.8"/>
     </g>
     <g id="line2d_36"/>
     <g id="text_19">
      <!-- 15:00 -->
      <g style="fill: #262626" transform="translate(821.933855 351.20537) rotate(-45) scale(0.12 -0.12)">
       <use xlink:href="#ArialMT-31"/>
       <use xlink:href="#ArialMT-35" x="55.615234"/>
       <use xlink:href="#ArialMT-3a" x="111.230469"/>
       <use xlink:href="#ArialMT-30" x="139.013672"/>
       <use xlink:href="#ArialMT-30" x="194.628906"/>
      </g>
     </g>
    </g>
    <g id="xtick_11">
     <g id="line2d_37">
      <path d="M 899.761063 320.4 
L 899.761063 43.2 
" clip-path="url(#p4ae4129222)" style="fill: none; stroke-dasharray: 2.96,1.28; stroke-dashoffset: 0; stroke: #d0d0d0; stroke-width: 0.8"/>
     </g>
     <g id="line2d_38"/>
     <g id="text_20">
      <!-- 20:00 -->
      <g style="fill: #262626" transform="translate(891.338758 351.20537) rotate(-45) scale(0.12 -0.12)">
       <use xlink:href="#ArialMT-32"/>
       <use xlink:href="#ArialMT-30" x="55.615234"/>
       <use xlink:href="#ArialMT-3a" x="111.230469"/>
       <use xlink:href="#ArialMT-30" x="139.013672"/>
       <use xlink:href="#ArialMT-30" x="194.628906"/>
      </g>
     </g>
    </g>
    <g id="xtick_12">
     <g id="line2d_39">
      <path d="M 969.165966 320.4 
L 969.165966 43.2 
" clip-path="url(#p4ae4129222)" style="fill: none; stroke-dasharray: 2.96,1.28; stroke-dashoffset: 0; stroke: #d0d0d0; stroke-width: 0.8"/>
     </g>
     <g id="line2d_40"/>
    </g>
   </g>
   <g id="matplotlib.axis_4">
    <g id="ytick_9">
     <g id="line2d_41">
      <path d="M 591.545455 311.129617 
L 972 311.129617 
" clip-path="url(#p4ae4129222)" style="fill: none; stroke-dasharray: 2.96,1.28; stroke-dashoffset: 0; stroke: #d0d0d0; stroke-width: 0.8"/>
     </g>
     <g id="line2d_42"/>
     <g id="text_21">
      <!-- −0.5 -->
      <g style="fill: #262626" transform="translate(564.356705 315.424305) scale(0.12 -0.12)">
       <use xlink:href="#ArialMT-2212"/>
       <use xlink:href="#ArialMT-30" x="58.398438"/>
       <use xlink:href="#ArialMT-2e" x="114.013672"/>
       <use xlink:href="#ArialMT-35" x="141.796875"/>
      </g>
     </g>
    </g>
    <g id="ytick_10">
     <g id="line2d_43">
      <path d="M 591.545455 276.04657 
L 972 276.04657 
" clip-path="url(#p4ae4129222)" style="fill: none; stroke-dasharray: 2.96,1.28; stroke-dashoffset: 0; stroke: #d0d0d0; stroke-width: 0.8"/>
     </g>
     <g id="line2d_44"/>
     <g id="text_22">
      <!-- 0.0 -->
      <g style="fill: #262626" transform="translate(571.365455 280.341258) scale(0.12 -0.12)">
       <use xlink:href="#ArialMT-30"/>
       <use xlink:href="#ArialMT-2e" x="55.615234"/>
       <use xlink:href="#ArialMT-30" x="83.398438"/>
      </g>
     </g>
    </g>
    <g id="ytick_11">
     <g id="line2d_45">
      <path d="M 591.545455 240.963523 
L 972 240.963523 
" clip-path="url(#p4ae4129222)" style="fill: none; stroke-dasharray: 2.96,1.28; stroke-dashoffset: 0; stroke: #d0d0d0; stroke-width: 0.8"/>
     </g>
     <g id="line2d_46"/>
     <g id="text_23">
      <!-- 0.5 -->
      <g style="fill: #262626" transform="translate(571.365455 245.258211) scale(0.12 -0.12)">
       <use xlink:href="#ArialMT-30"/>
       <use xlink:href="#ArialMT-2e" x="55.615234"/>
       <use xlink:href="#ArialMT-35" x="83.398438"/>
      </g>
     </g>
    </g>
    <g id="ytick_12">
     <g id="line2d_47">
      <path d="M 591.545455 205.880476 
L 972 205.880476 
" clip-path="url(#p4ae4129222)" style="fill: none; stroke-dasharray: 2.96,1.28; stroke-dashoffset: 0; stroke: #d0d0d0; stroke-width: 0.8"/>
     </g>
     <g id="line2d_48"/>
     <g id="text_24">
      <!-- 1.0 -->
      <g style="fill: #262626" transform="translate(571.365455 210.175164) scale(0.12 -0.12)">
       <use xlink:href="#ArialMT-31"/>
       <use xlink:href="#ArialMT-2e" x="55.615234"/>
       <use xlink:href="#ArialMT-30" x="83.398438"/>
      </g>
     </g>
    </g>
    <g id="ytick_13">
     <g id="line2d_49">
      <path d="M 591.545455 170.797429 
L 972 170.797429 
" clip-path="url(#p4ae4129222)" style="fill: none; stroke-dasharray: 2.96,1.28; stroke-dashoffset: 0; stroke: #d0d0d0; stroke-width: 0.8"/>
     </g>
     <g id="line2d_50"/>
     <g id="text_25">
      <!-- 1.5 -->
      <g style="fill: #262626" transform="translate(571.365455 175.092117) scale(0.12 -0.12)">
       <use xlink:href="#ArialMT-31"/>
       <use xlink:href="#ArialMT-2e" x="55.615234"/>
       <use xlink:href="#ArialMT-35" x="83.398438"/>
      </g>
     </g>
    </g>
    <g id="ytick_14">
     <g id="line2d_51">
      <path d="M 591.545455 135.714382 
L 972 135.714382 
" clip-path="url(#p4ae4129222)" style="fill: none; stroke-dasharray: 2.96,1.28; stroke-dashoffset: 0; stroke: #d0d0d0; stroke-width: 0.8"/>
     </g>
     <g id="line2d_52"/>
     <g id="text_26">
      <!-- 2.0 -->
      <g style="fill: #262626" transform="translate(571.365455 140.00907) scale(0.12 -0.12)">
       <use xlink:href="#ArialMT-32"/>
       <use xlink:href="#ArialMT-2e" x="55.615234"/>
       <use xlink:href="#ArialMT-30" x="83.398438"/>
      </g>
     </g>
    </g>
    <g id="ytick_15">
     <g id="line2d_53">
      <path d="M 591.545455 100.631336 
L 972 100.631336 
" clip-path="url(#p4ae4129222)" style="fill: none; stroke-dasharray: 2.96,1.28; stroke-dashoffset: 0; stroke: #d0d0d0; stroke-width: 0.8"/>
     </g>
     <g id="line2d_54"/>
     <g id="text_27">
      <!-- 2.5 -->
      <g style="fill: #262626" transform="translate(571.365455 104.926023) scale(0.12 -0.12)">
       <use xlink:href="#ArialMT-32"/>
       <use xlink:href="#ArialMT-2e" x="55.615234"/>
       <use xlink:href="#ArialMT-35" x="83.398438"/>
      </g>
     </g>
    </g>
    <g id="ytick_16">
     <g id="line2d_55">
      <path d="M 591.545455 65.548289 
L 972 65.548289 
" clip-path="url(#p4ae4129222)" style="fill: none; stroke-dasharray: 2.96,1.28; stroke-dashoffset: 0; stroke: #d0d0d0; stroke-width: 0.8"/>
     </g>
     <g id="line2d_56"/>
     <g id="text_28">
      <!-- 3.0 -->
      <g style="fill: #262626" transform="translate(571.365455 69.842976) scale(0.12 -0.12)">
       <use xlink:href="#ArialMT-33"/>
       <use xlink:href="#ArialMT-2e" x="55.615234"/>
       <use xlink:href="#ArialMT-30" x="83.398438"/>
      </g>
     </g>
    </g>
    <g id="text_29">
     <!-- Price -->
     <g style="fill: #262626" transform="translate(557.98858 196.4775) rotate(-90) scale(0.12 -0.12)">
      <use xlink:href="#Arial-BoldMT-50"/>
      <use xlink:href="#Arial-BoldMT-72" x="66.699219"/>
      <use xlink:href="#Arial-BoldMT-69" x="105.615234"/>
      <use xlink:href="#Arial-BoldMT-63" x="133.398438"/>
      <use xlink:href="#Arial-BoldMT-65" x="189.013672"/>
     </g>
    </g>
   </g>
   <g id="PolyCollection_2">
    <path d="M 617.630131 320.398277 
L 617.630131 320.382995 
L 626.652768 320.382995 
L 626.652768 320.398277 
z
" clip-path="url(#p4ae4129222)" style="fill: #70a800; fill-opacity: 0.9; stroke: #70a800"/>
    <path d="M 631.511111 320.384517 
L 631.511111 320.367625 
L 640.533749 320.367625 
L 640.533749 320.384517 
z
" clip-path="url(#p4ae4129222)" style="fill: #70a800; fill-opacity: 0.9; stroke: #70a800"/>
    <path d="M 645.392092 320.37392 
L 645.392092 316.897441 
L 654.41473 316.897441 
L 654.41473 320.37392 
z
" clip-path="url(#p4ae4129222)" style="fill: #70a800; fill-opacity: 0.9; stroke: #70a800"/>
    <path d="M 659.273073 317.280616 
L 659.273073 319.181994 
L 668.29571 319.181994 
L 668.29571 317.280616 
z
" clip-path="url(#p4ae4129222)" style="fill: #ea0070; fill-opacity: 0.9; stroke: #ea0070"/>
    <path d="M 673.154053 319.232327 
L 673.154053 289.223886 
L 682.176691 289.223886 
L 682.176691 319.232327 
z
" clip-path="url(#p4ae4129222)" style="fill: #70a800; fill-opacity: 0.9; stroke: #70a800"/>
    <path d="M 687.035034 288.854233 
L 687.035034 296.437308 
L 696.057672 296.437308 
L 696.057672 288.854233 
z
" clip-path="url(#p4ae4129222)" style="fill: #ea0070; fill-opacity: 0.9; stroke: #ea0070"/>
    <path d="M 700.916015 296.516996 
L 700.916015 320.387964 
L 709.938652 320.387964 
L 709.938652 296.516996 
z
" clip-path="url(#p4ae4129222)" style="fill: #ea0070; fill-opacity: 0.9; stroke: #ea0070"/>
    <path d="M 714.796995 320.389691 
L 714.796995 318.632901 
L 723.819633 318.632901 
L 723.819633 320.389691 
z
" clip-path="url(#p4ae4129222)" style="fill: #70a800; fill-opacity: 0.9; stroke: #70a800"/>
    <path d="M 728.677976 318.715237 
L 728.677976 266.995777 
L 737.700614 266.995777 
L 737.700614 318.715237 
z
" clip-path="url(#p4ae4129222)" style="fill: #70a800; fill-opacity: 0.9; stroke: #70a800"/>
    <path d="M 742.558957 303.033137 
L 742.558957 317.273661 
L 751.581594 317.273661 
L 751.581594 303.033137 
z
" clip-path="url(#p4ae4129222)" style="fill: #ea0070; fill-opacity: 0.9; stroke: #ea0070"/>
    <path d="M 756.439938 317.628381 
L 756.439938 304.135918 
L 765.462575 304.135918 
L 765.462575 317.628381 
z
" clip-path="url(#p4ae4129222)" style="fill: #70a800; fill-opacity: 0.9; stroke: #70a800"/>
    <path d="M 770.320918 303.801581 
L 770.320918 319.420874 
L 779.343556 319.420874 
L 779.343556 303.801581 
z
" clip-path="url(#p4ae4129222)" style="fill: #ea0070; fill-opacity: 0.9; stroke: #ea0070"/>
    <path d="M 784.201899 319.525635 
L 784.201899 317.230287 
L 793.224536 317.230287 
L 793.224536 319.525635 
z
" clip-path="url(#p4ae4129222)" style="fill: #70a800; fill-opacity: 0.9; stroke: #70a800"/>
    <path d="M 798.08288 317.426802 
L 798.08288 304.396379 
L 807.105517 304.396379 
L 807.105517 317.426802 
z
" clip-path="url(#p4ae4129222)" style="fill: #70a800; fill-opacity: 0.9; stroke: #70a800"/>
    <path d="M 811.96386 304.37868 
L 811.96386 313.777417 
L 820.986498 313.777417 
L 820.986498 304.37868 
z
" clip-path="url(#p4ae4129222)" style="fill: #ea0070; fill-opacity: 0.9; stroke: #ea0070"/>
    <path d="M 825.844841 313.742031 
L 825.844841 293.206352 
L 834.867478 293.206352 
L 834.867478 313.742031 
z
" clip-path="url(#p4ae4129222)" style="fill: #70a800; fill-opacity: 0.9; stroke: #70a800"/>
    <path d="M 839.725822 291.446346 
L 839.725822 287.561896 
L 848.748459 287.561896 
L 848.748459 291.446346 
z
" clip-path="url(#p4ae4129222)" style="fill: #70a800; fill-opacity: 0.9; stroke: #70a800"/>
    <path d="M 853.606802 282.160212 
L 853.606802 271.443184 
L 862.62944 271.443184 
L 862.62944 282.160212 
z
" clip-path="url(#p4ae4129222)" style="fill: #70a800; fill-opacity: 0.9; stroke: #70a800"/>
    <path d="M 867.487783 271.322562 
L 867.487783 270.079252 
L 876.51042 270.079252 
L 876.51042 271.322562 
z
" clip-path="url(#p4ae4129222)" style="fill: #70a800; fill-opacity: 0.9; stroke: #70a800"/>
    <path d="M 881.368764 269.942701 
L 881.368764 189.134136 
L 890.391401 189.134136 
L 890.391401 269.942701 
z
" clip-path="url(#p4ae4129222)" style="fill: #70a800; fill-opacity: 0.9; stroke: #70a800"/>
    <path d="M 895.249744 187.028862 
L 895.249744 179.118518 
L 904.272382 179.118518 
L 904.272382 187.028862 
z
" clip-path="url(#p4ae4129222)" style="fill: #70a800; fill-opacity: 0.9; stroke: #70a800"/>
    <path d="M 909.130725 179.125603 
L 909.130725 148.387068 
L 918.153362 148.387068 
L 918.153362 179.125603 
z
" clip-path="url(#p4ae4129222)" style="fill: #70a800; fill-opacity: 0.9; stroke: #70a800"/>
    <path d="M 923.011706 145.296145 
L 923.011706 117.589455 
L 932.034343 117.589455 
L 932.034343 145.296145 
z
" clip-path="url(#p4ae4129222)" style="fill: #70a800; fill-opacity: 0.9; stroke: #70a800"/>
    <path d="M 936.892686 108.824298 
L 936.892686 86.557345 
L 945.915324 86.557345 
L 945.915324 108.824298 
z
" clip-path="url(#p4ae4129222)" style="fill: #70a800; fill-opacity: 0.9; stroke: #70a800"/>
   </g>
   <g id="LineCollection_2">
    <path d="M 622.141449 320.399741 
L 622.141449 320.398277 
" clip-path="url(#p4ae4129222)" style="fill: none; stroke: #70a800"/>
    <path d="M 636.02243 320.399979 
L 636.02243 320.384517 
" clip-path="url(#p4ae4129222)" style="fill: none; stroke: #70a800"/>
    <path d="M 649.903411 320.36929 
L 649.903411 320.37392 
" clip-path="url(#p4ae4129222)" style="fill: none; stroke: #70a800"/>
    <path d="M 663.784391 319.368617 
L 663.784391 319.181994 
" clip-path="url(#p4ae4129222)" style="fill: none; stroke: #ea0070"/>
    <path d="M 677.665372 319.714149 
L 677.665372 319.232327 
" clip-path="url(#p4ae4129222)" style="fill: none; stroke: #70a800"/>
    <path d="M 691.546353 304.665539 
L 691.546353 296.437308 
" clip-path="url(#p4ae4129222)" style="fill: none; stroke: #ea0070"/>
    <path d="M 705.427334 320.398039 
L 705.427334 320.387964 
" clip-path="url(#p4ae4129222)" style="fill: none; stroke: #ea0070"/>
    <path d="M 719.308314 320.391008 
L 719.308314 320.389691 
" clip-path="url(#p4ae4129222)" style="fill: none; stroke: #70a800"/>
    <path d="M 733.189295 318.689742 
L 733.189295 318.715237 
" clip-path="url(#p4ae4129222)" style="fill: none; stroke: #70a800"/>
    <path d="M 747.070276 319.208589 
L 747.070276 317.273661 
" clip-path="url(#p4ae4129222)" style="fill: none; stroke: #ea0070"/>
    <path d="M 760.951256 318.979946 
L 760.951256 317.628381 
" clip-path="url(#p4ae4129222)" style="fill: none; stroke: #70a800"/>
    <path d="M 774.832237 320.238901 
L 774.832237 319.420874 
" clip-path="url(#p4ae4129222)" style="fill: none; stroke: #ea0070"/>
    <path d="M 788.713218 320.4 
L 788.713218 319.525635 
" clip-path="url(#p4ae4129222)" style="fill: none; stroke: #70a800"/>
    <path d="M 802.594198 318.360412 
L 802.594198 317.426802 
" clip-path="url(#p4ae4129222)" style="fill: none; stroke: #70a800"/>
    <path d="M 816.475179 320.4 
L 816.475179 313.777417 
" clip-path="url(#p4ae4129222)" style="fill: none; stroke: #ea0070"/>
    <path d="M 830.35616 319.904695 
L 830.35616 313.742031 
" clip-path="url(#p4ae4129222)" style="fill: none; stroke: #70a800"/>
    <path d="M 844.23714 319.793234 
L 844.23714 291.446346 
" clip-path="url(#p4ae4129222)" style="fill: none; stroke: #70a800"/>
    <path d="M 858.118121 306.304693 
L 858.118121 282.160212 
" clip-path="url(#p4ae4129222)" style="fill: none; stroke: #70a800"/>
    <path d="M 871.999102 279.705108 
L 871.999102 271.322562 
" clip-path="url(#p4ae4129222)" style="fill: none; stroke: #70a800"/>
    <path d="M 885.880082 282.103142 
L 885.880082 269.942701 
" clip-path="url(#p4ae4129222)" style="fill: none; stroke: #70a800"/>
    <path d="M 899.761063 223.081328 
L 899.761063 187.028862 
" clip-path="url(#p4ae4129222)" style="fill: none; stroke: #70a800"/>
    <path d="M 913.642044 212.324758 
L 913.642044 179.125603 
" clip-path="url(#p4ae4129222)" style="fill: none; stroke: #70a800"/>
    <path d="M 927.523024 152.058476 
L 927.523024 145.296145 
" clip-path="url(#p4ae4129222)" style="fill: none; stroke: #70a800"/>
    <path d="M 941.404005 120.405849 
L 941.404005 108.824298 
" clip-path="url(#p4ae4129222)" style="fill: none; stroke: #70a800"/>
    <path d="M 622.141449 320.303654 
L 622.141449 320.382995 
" clip-path="url(#p4ae4129222)" style="fill: none; stroke: #70a800"/>
    <path d="M 636.02243 320.357412 
L 636.02243 320.367625 
" clip-path="url(#p4ae4129222)" style="fill: none; stroke: #70a800"/>
    <path d="M 649.903411 306.866085 
L 649.903411 316.897441 
" clip-path="url(#p4ae4129222)" style="fill: none; stroke: #70a800"/>
    <path d="M 663.784391 309.318268 
L 663.784391 317.280616 
" clip-path="url(#p4ae4129222)" style="fill: none; stroke: #ea0070"/>
    <path d="M 677.665372 282.098834 
L 677.665372 289.223886 
" clip-path="url(#p4ae4129222)" style="fill: none; stroke: #70a800"/>
    <path d="M 691.546353 270.956062 
L 691.546353 288.854233 
" clip-path="url(#p4ae4129222)" style="fill: none; stroke: #ea0070"/>
    <path d="M 705.427334 293.255622 
L 705.427334 296.516996 
" clip-path="url(#p4ae4129222)" style="fill: none; stroke: #ea0070"/>
    <path d="M 719.308314 295.931649 
L 719.308314 318.632901 
" clip-path="url(#p4ae4129222)" style="fill: none; stroke: #70a800"/>
    <path d="M 733.189295 266.192474 
L 733.189295 266.995777 
" clip-path="url(#p4ae4129222)" style="fill: none; stroke: #70a800"/>
    <path d="M 747.070276 301.843848 
L 747.070276 303.033137 
" clip-path="url(#p4ae4129222)" style="fill: none; stroke: #ea0070"/>
    <path d="M 760.951256 286.274107 
L 760.951256 304.135918 
" clip-path="url(#p4ae4129222)" style="fill: none; stroke: #70a800"/>
    <path d="M 774.832237 272.984987 
L 774.832237 303.801581 
" clip-path="url(#p4ae4129222)" style="fill: none; stroke: #ea0070"/>
    <path d="M 788.713218 275.884716 
L 788.713218 317.230287 
" clip-path="url(#p4ae4129222)" style="fill: none; stroke: #70a800"/>
    <path d="M 802.594198 275.702111 
L 802.594198 304.396379 
" clip-path="url(#p4ae4129222)" style="fill: none; stroke: #70a800"/>
    <path d="M 816.475179 302.720444 
L 816.475179 304.37868 
" clip-path="url(#p4ae4129222)" style="fill: none; stroke: #ea0070"/>
    <path d="M 830.35616 274.243217 
L 830.35616 293.206352 
" clip-path="url(#p4ae4129222)" style="fill: none; stroke: #70a800"/>
    <path d="M 844.23714 256.727233 
L 844.23714 287.561896 
" clip-path="url(#p4ae4129222)" style="fill: none; stroke: #70a800"/>
    <path d="M 858.118121 260.262183 
L 858.118121 271.443184 
" clip-path="url(#p4ae4129222)" style="fill: none; stroke: #70a800"/>
    <path d="M 871.999102 262.220158 
L 871.999102 270.079252 
" clip-path="url(#p4ae4129222)" style="fill: none; stroke: #70a800"/>
    <path d="M 885.880082 186.207607 
L 885.880082 189.134136 
" clip-path="url(#p4ae4129222)" style="fill: none; stroke: #70a800"/>
    <path d="M 899.761063 158.801068 
L 899.761063 179.118518 
" clip-path="url(#p4ae4129222)" style="fill: none; stroke: #70a800"/>
    <path d="M 913.642044 144.854443 
L 913.642044 148.387068 
" clip-path="url(#p4ae4129222)" style="fill: none; stroke: #70a800"/>
    <path d="M 927.523024 59.758617 
L 927.523024 117.589455 
" clip-path="url(#p4ae4129222)" style="fill: none; stroke: #70a800"/>
    <path d="M 941.404005 43.2 
L 941.404005 86.557345 
" clip-path="url(#p4ae4129222)" style="fill: none; stroke: #70a800"/>
   </g>
   <g id="patch_8">
    <path d="M 591.545455 320.4 
L 591.545455 43.2 
" style="fill: none; stroke: #e6e6e6; stroke-width: 1.5; stroke-linejoin: miter; stroke-linecap: square"/>
   </g>
   <g id="patch_9">
    <path d="M 972 320.4 
L 972 43.2 
" style="fill: none; stroke: #e6e6e6; stroke-width: 1.5; stroke-linejoin: miter; stroke-linecap: square"/>
   </g>
   <g id="patch_10">
    <path d="M 591.545455 320.4 
L 972 320.4 
" style="fill: none; stroke: #e6e6e6; stroke-width: 1.5; stroke-linejoin: miter; stroke-linecap: square"/>
   </g>
   <g id="patch_11">
    <path d="M 591.545455 43.2 
L 972 43.2 
" style="fill: none; stroke: #e6e6e6; stroke-width: 1.5; stroke-linejoin: miter; stroke-linecap: square"/>
   </g>
   <g id="text_30">
    <!-- Predicted -->
    <g style="fill: #262626" transform="translate(751.357227 37.2) scale(0.144 -0.144)">
     <defs>
      <path id="ArialMT-50" d="M 494 0 
L 494 4581 
L 2222 4581 
Q 2678 4581 2919 4538 
Q 3256 4481 3484 4323 
Q 3713 4166 3852 3881 
Q 3991 3597 3991 3256 
Q 3991 2672 3619 2267 
Q 3247 1863 2275 1863 
L 1100 1863 
L 1100 0 
L 494 0 
z
M 1100 2403 
L 2284 2403 
Q 2872 2403 3119 2622 
Q 3366 2841 3366 3238 
Q 3366 3525 3220 3729 
Q 3075 3934 2838 4000 
Q 2684 4041 2272 4041 
L 1100 4041 
L 1100 2403 
z
" transform="scale(0.015625)"/>
      <path id="ArialMT-72" d="M 416 0 
L 416 3319 
L 922 3319 
L 922 2816 
Q 1116 3169 1280 3281 
Q 1444 3394 1641 3394 
Q 1925 3394 2219 3213 
L 2025 2691 
Q 1819 2813 1613 2813 
Q 1428 2813 1281 2702 
Q 1134 2591 1072 2394 
Q 978 2094 978 1738 
L 978 0 
L 416 0 
z
" transform="scale(0.015625)"/>
      <path id="ArialMT-65" d="M 2694 1069 
L 3275 997 
Q 3138 488 2766 206 
Q 2394 -75 1816 -75 
Q 1088 -75 661 373 
Q 234 822 234 1631 
Q 234 2469 665 2931 
Q 1097 3394 1784 3394 
Q 2450 3394 2872 2941 
Q 3294 2488 3294 1666 
Q 3294 1616 3291 1516 
L 816 1516 
Q 847 969 1125 678 
Q 1403 388 1819 388 
Q 2128 388 2347 550 
Q 2566 713 2694 1069 
z
M 847 1978 
L 2700 1978 
Q 2663 2397 2488 2606 
Q 2219 2931 1791 2931 
Q 1403 2931 1139 2672 
Q 875 2413 847 1978 
z
" transform="scale(0.015625)"/>
      <path id="ArialMT-64" d="M 2575 0 
L 2575 419 
Q 2259 -75 1647 -75 
Q 1250 -75 917 144 
Q 584 363 401 755 
Q 219 1147 219 1656 
Q 219 2153 384 2558 
Q 550 2963 881 3178 
Q 1213 3394 1622 3394 
Q 1922 3394 2156 3267 
Q 2391 3141 2538 2938 
L 2538 4581 
L 3097 4581 
L 3097 0 
L 2575 0 
z
M 797 1656 
Q 797 1019 1065 703 
Q 1334 388 1700 388 
Q 2069 388 2326 689 
Q 2584 991 2584 1609 
Q 2584 2291 2321 2609 
Q 2059 2928 1675 2928 
Q 1300 2928 1048 2622 
Q 797 2316 797 1656 
z
" transform="scale(0.015625)"/>
      <path id="ArialMT-69" d="M 425 3934 
L 425 4581 
L 988 4581 
L 988 3934 
L 425 3934 
z
M 425 0 
L 425 3319 
L 988 3319 
L 988 0 
L 425 0 
z
" transform="scale(0.015625)"/>
     </defs>
     <use xlink:href="#ArialMT-50"/>
     <use xlink:href="#ArialMT-72" x="66.699219"/>
     <use xlink:href="#ArialMT-65" x="100"/>
     <use xlink:href="#ArialMT-64" x="155.615234"/>
     <use xlink:href="#ArialMT-69" x="211.230469"/>
     <use xlink:href="#ArialMT-63" x="233.447266"/>
     <use xlink:href="#ArialMT-74" x="283.447266"/>
     <use xlink:href="#ArialMT-65" x="311.230469"/>
     <use xlink:href="#ArialMT-64" x="366.845703"/>
    </g>
   </g>
  </g>
  <g id="text_31">
   <!-- LSTM - DOGE -->
   <g style="fill: #262626" transform="translate(483.3648 19.5687) scale(0.1728 -0.1728)">
    <defs>
     <path id="Arial-BoldMT-4c" d="M 491 0 
L 491 4544 
L 1416 4544 
L 1416 772 
L 3716 772 
L 3716 0 
L 491 0 
z
" transform="scale(0.015625)"/>
     <path id="Arial-BoldMT-53" d="M 231 1491 
L 1131 1578 
Q 1213 1125 1461 912 
Q 1709 700 2131 700 
Q 2578 700 2804 889 
Q 3031 1078 3031 1331 
Q 3031 1494 2936 1608 
Q 2841 1722 2603 1806 
Q 2441 1863 1863 2006 
Q 1119 2191 819 2459 
Q 397 2838 397 3381 
Q 397 3731 595 4036 
Q 794 4341 1167 4500 
Q 1541 4659 2069 4659 
Q 2931 4659 3367 4281 
Q 3803 3903 3825 3272 
L 2900 3231 
Q 2841 3584 2645 3739 
Q 2450 3894 2059 3894 
Q 1656 3894 1428 3728 
Q 1281 3622 1281 3444 
Q 1281 3281 1419 3166 
Q 1594 3019 2269 2859 
Q 2944 2700 3267 2529 
Q 3591 2359 3773 2064 
Q 3956 1769 3956 1334 
Q 3956 941 3737 597 
Q 3519 253 3119 86 
Q 2719 -81 2122 -81 
Q 1253 -81 787 320 
Q 322 722 231 1491 
z
" transform="scale(0.015625)"/>
     <path id="Arial-BoldMT-54" d="M 1497 0 
L 1497 3806 
L 138 3806 
L 138 4581 
L 3778 4581 
L 3778 3806 
L 2422 3806 
L 2422 0 
L 1497 0 
z
" transform="scale(0.015625)"/>
     <path id="Arial-BoldMT-4d" d="M 453 0 
L 453 4581 
L 1838 4581 
L 2669 1456 
L 3491 4581 
L 4878 4581 
L 4878 0 
L 4019 0 
L 4019 3606 
L 3109 0 
L 2219 0 
L 1313 3606 
L 1313 0 
L 453 0 
z
" transform="scale(0.015625)"/>
     <path id="Arial-BoldMT-20" transform="scale(0.015625)"/>
     <path id="Arial-BoldMT-2d" d="M 359 1222 
L 359 2100 
L 2084 2100 
L 2084 1222 
L 359 1222 
z
" transform="scale(0.015625)"/>
     <path id="Arial-BoldMT-44" d="M 463 4581 
L 2153 4581 
Q 2725 4581 3025 4494 
Q 3428 4375 3715 4072 
Q 4003 3769 4153 3330 
Q 4303 2891 4303 2247 
Q 4303 1681 4163 1272 
Q 3991 772 3672 463 
Q 3431 228 3022 97 
Q 2716 0 2203 0 
L 463 0 
L 463 4581 
z
M 1388 3806 
L 1388 772 
L 2078 772 
Q 2466 772 2638 816 
Q 2863 872 3011 1006 
Q 3159 1141 3253 1448 
Q 3347 1756 3347 2288 
Q 3347 2819 3253 3103 
Q 3159 3388 2990 3547 
Q 2822 3706 2563 3763 
Q 2369 3806 1803 3806 
L 1388 3806 
z
" transform="scale(0.015625)"/>
     <path id="Arial-BoldMT-4f" d="M 278 2263 
Q 278 2963 488 3438 
Q 644 3788 914 4066 
Q 1184 4344 1506 4478 
Q 1934 4659 2494 4659 
Q 3506 4659 4114 4031 
Q 4722 3403 4722 2284 
Q 4722 1175 4119 548 
Q 3516 -78 2506 -78 
Q 1484 -78 881 545 
Q 278 1169 278 2263 
z
M 1231 2294 
Q 1231 1516 1590 1114 
Q 1950 713 2503 713 
Q 3056 713 3411 1111 
Q 3766 1509 3766 2306 
Q 3766 3094 3420 3481 
Q 3075 3869 2503 3869 
Q 1931 3869 1581 3476 
Q 1231 3084 1231 2294 
z
" transform="scale(0.015625)"/>
     <path id="Arial-BoldMT-47" d="M 2597 1684 
L 2597 2456 
L 4591 2456 
L 4591 631 
Q 4300 350 3748 136 
Q 3197 -78 2631 -78 
Q 1913 -78 1378 223 
Q 844 525 575 1086 
Q 306 1647 306 2306 
Q 306 3022 606 3578 
Q 906 4134 1484 4431 
Q 1925 4659 2581 4659 
Q 3434 4659 3914 4301 
Q 4394 3944 4531 3313 
L 3613 3141 
Q 3516 3478 3248 3673 
Q 2981 3869 2581 3869 
Q 1975 3869 1617 3484 
Q 1259 3100 1259 2344 
Q 1259 1528 1621 1120 
Q 1984 713 2572 713 
Q 2863 713 3155 827 
Q 3447 941 3656 1103 
L 3656 1684 
L 2597 1684 
z
" transform="scale(0.015625)"/>
     <path id="Arial-BoldMT-45" d="M 466 0 
L 466 4581 
L 3863 4581 
L 3863 3806 
L 1391 3806 
L 1391 2791 
L 3691 2791 
L 3691 2019 
L 1391 2019 
L 1391 772 
L 3950 772 
L 3950 0 
L 466 0 
z
" transform="scale(0.015625)"/>
    </defs>
    <use xlink:href="#Arial-BoldMT-4c"/>
    <use xlink:href="#Arial-BoldMT-53" x="61.083984"/>
    <use xlink:href="#Arial-BoldMT-54" x="127.783203"/>
    <use xlink:href="#Arial-BoldMT-4d" x="188.867188"/>
    <use xlink:href="#Arial-BoldMT-20" x="272.167969"/>
    <use xlink:href="#Arial-BoldMT-2d" x="299.951172"/>
    <use xlink:href="#Arial-BoldMT-20" x="333.251953"/>
    <use xlink:href="#Arial-BoldMT-44" x="361.035156"/>
    <use xlink:href="#Arial-BoldMT-4f" x="433.251953"/>
    <use xlink:href="#Arial-BoldMT-47" x="511.035156"/>
    <use xlink:href="#Arial-BoldMT-45" x="588.818359"/>
   </g>
  </g>
 </g>
 <defs>
  <clipPath id="p5b03689bdf">
   <rect x="135" y="43.2" width="380.454545" height="277.2"/>
  </clipPath>
  <clipPath id="p4ae4129222">
   <rect x="591.545455" y="43.2" width="380.454545" height="277.2"/>
  </clipPath>
 </defs>
</svg>
