<?xml version="1.0" encoding="utf-8" standalone="no"?>
<!DOCTYPE svg PUBLIC "-//W3C//DTD SVG 1.1//EN"
  "http://www.w3.org/Graphics/SVG/1.1/DTD/svg11.dtd">
<svg xmlns:xlink="http://www.w3.org/1999/xlink" width="1080pt" height="360pt" viewBox="0 0 1080 360" xmlns="http://www.w3.org/2000/svg" version="1.1">
 <metadata>
  <rdf:RDF xmlns:dc="http://purl.org/dc/elements/1.1/" xmlns:cc="http://creativecommons.org/ns#" xmlns:rdf="http://www.w3.org/1999/02/22-rdf-syntax-ns#">
   <cc:Work>
    <dc:type rdf:resource="http://purl.org/dc/dcmitype/StillImage"/>
    <dc:date>2024-06-03T20:42:45.790569</dc:date>
    <dc:format>image/svg+xml</dc:format>
    <dc:creator>
     <cc:Agent>
      <dc:title>Matplotlib v3.9.0, https://matplotlib.org/</dc:title>
     </cc:Agent>
    </dc:creator>
   </cc:Work>
  </rdf:RDF>
 </metadata>
 <defs>
  <style type="text/css">*{stroke-linejoin: round; stroke-linecap: butt}</style>
 </defs>
 <g id="figure_1">
  <g id="patch_1">
   <path d="M 0 360 
L 1080 360 
L 1080 0 
L 0 0 
z
" style="fill: #ffffff"/>
  </g>
  <g id="axes_1">
   <g id="patch_2">
    <path d="M 135 320.4 
L 515.454545 320.4 
L 515.454545 43.2 
L 135 43.2 
z
" style="fill: #ffffff"/>
   </g>
   <g id="matplotlib.axis_1">
    <g id="xtick_1">
     <g id="line2d_1">
      <path d="M 165.595995 320.4 
L 165.595995 43.2 
" clip-path="url(#pa23c01721b)" style="fill: none; stroke-dasharray: 2.96,1.28; stroke-dashoffset: 0; stroke: #d0d0d0; stroke-width: 0.8"/>
     </g>
     <g id="line2d_2"/>
     <g id="text_1">
      <!-- 00:00 -->
      <g style="fill: #262626" transform="translate(157.17369 351.20537) rotate(-45) scale(0.12 -0.12)">
       <defs>
        <path id="ArialMT-30" d="M 266 2259 
Q 266 3072 433 3567 
Q 600 4063 929 4331 
Q 1259 4600 1759 4600 
Q 2128 4600 2406 4451 
Q 2684 4303 2865 4023 
Q 3047 3744 3150 3342 
Q 3253 2941 3253 2259 
Q 3253 1453 3087 958 
Q 2922 463 2592 192 
Q 2263 -78 1759 -78 
Q 1097 -78 719 397 
Q 266 969 266 2259 
z
M 844 2259 
Q 844 1131 1108 757 
Q 1372 384 1759 384 
Q 2147 384 2411 759 
Q 2675 1134 2675 2259 
Q 2675 3391 2411 3762 
Q 2147 4134 1753 4134 
Q 1366 4134 1134 3806 
Q 844 3388 844 2259 
z
" transform="scale(0.015625)"/>
        <path id="ArialMT-3a" d="M 578 2678 
L 578 3319 
L 1219 3319 
L 1219 2678 
L 578 2678 
z
M 578 0 
L 578 641 
L 1219 641 
L 1219 0 
L 578 0 
z
" transform="scale(0.015625)"/>
       </defs>
       <use xlink:href="#ArialMT-30"/>
       <use xlink:href="#ArialMT-30" x="55.615234"/>
       <use xlink:href="#ArialMT-3a" x="111.230469"/>
       <use xlink:href="#ArialMT-30" x="139.013672"/>
       <use xlink:href="#ArialMT-30" x="194.628906"/>
      </g>
     </g>
    </g>
    <g id="xtick_2">
     <g id="line2d_3">
      <path d="M 235.000898 320.4 
L 235.000898 43.2 
" clip-path="url(#pa23c01721b)" style="fill: none; stroke-dasharray: 2.96,1.28; stroke-dashoffset: 0; stroke: #d0d0d0; stroke-width: 0.8"/>
     </g>
     <g id="line2d_4"/>
     <g id="text_2">
      <!-- 05:00 -->
      <g style="fill: #262626" transform="translate(226.578594 351.20537) rotate(-45) scale(0.12 -0.12)">
       <defs>
        <path id="ArialMT-35" d="M 266 1200 
L 856 1250 
Q 922 819 1161 601 
Q 1400 384 1738 384 
Q 2144 384 2425 690 
Q 2706 997 2706 1503 
Q 2706 1984 2436 2262 
Q 2166 2541 1728 2541 
Q 1456 2541 1237 2417 
Q 1019 2294 894 2097 
L 366 2166 
L 809 4519 
L 3088 4519 
L 3088 3981 
L 1259 3981 
L 1013 2750 
Q 1425 3038 1878 3038 
Q 2478 3038 2890 2622 
Q 3303 2206 3303 1553 
Q 3303 931 2941 478 
Q 2500 -78 1738 -78 
Q 1113 -78 717 272 
Q 322 622 266 1200 
z
" transform="scale(0.015625)"/>
       </defs>
       <use xlink:href="#ArialMT-30"/>
       <use xlink:href="#ArialMT-35" x="55.615234"/>
       <use xlink:href="#ArialMT-3a" x="111.230469"/>
       <use xlink:href="#ArialMT-30" x="139.013672"/>
       <use xlink:href="#ArialMT-30" x="194.628906"/>
      </g>
     </g>
    </g>
    <g id="xtick_3">
     <g id="line2d_5">
      <path d="M 304.405802 320.4 
L 304.405802 43.2 
" clip-path="url(#pa23c01721b)" style="fill: none; stroke-dasharray: 2.96,1.28; stroke-dashoffset: 0; stroke: #d0d0d0; stroke-width: 0.8"/>
     </g>
     <g id="line2d_6"/>
     <g id="text_3">
      <!-- 10:00 -->
      <g style="fill: #262626" transform="translate(295.983497 351.20537) rotate(-45) scale(0.12 -0.12)">
       <defs>
        <path id="ArialMT-31" d="M 2384 0 
L 1822 0 
L 1822 3584 
Q 1619 3391 1289 3197 
Q 959 3003 697 2906 
L 697 3450 
Q 1169 3672 1522 3987 
Q 1875 4303 2022 4600 
L 2384 4600 
L 2384 0 
z
" transform="scale(0.015625)"/>
       </defs>
       <use xlink:href="#ArialMT-31"/>
       <use xlink:href="#ArialMT-30" x="55.615234"/>
       <use xlink:href="#ArialMT-3a" x="111.230469"/>
       <use xlink:href="#ArialMT-30" x="139.013672"/>
       <use xlink:href="#ArialMT-30" x="194.628906"/>
      </g>
     </g>
    </g>
    <g id="xtick_4">
     <g id="line2d_7">
      <path d="M 373.810705 320.4 
L 373.810705 43.2 
" clip-path="url(#pa23c01721b)" style="fill: none; stroke-dasharray: 2.96,1.28; stroke-dashoffset: 0; stroke: #d0d0d0; stroke-width: 0.8"/>
     </g>
     <g id="line2d_8"/>
     <g id="text_4">
      <!-- 15:00 -->
      <g style="fill: #262626" transform="translate(365.3884 351.20537) rotate(-45) scale(0.12 -0.12)">
       <use xlink:href="#ArialMT-31"/>
       <use xlink:href="#ArialMT-35" x="55.615234"/>
       <use xlink:href="#ArialMT-3a" x="111.230469"/>
       <use xlink:href="#ArialMT-30" x="139.013672"/>
       <use xlink:href="#ArialMT-30" x="194.628906"/>
      </g>
     </g>
    </g>
    <g id="xtick_5">
     <g id="line2d_9">
      <path d="M 443.215609 320.4 
L 443.215609 43.2 
" clip-path="url(#pa23c01721b)" style="fill: none; stroke-dasharray: 2.96,1.28; stroke-dashoffset: 0; stroke: #d0d0d0; stroke-width: 0.8"/>
     </g>
     <g id="line2d_10"/>
     <g id="text_5">
      <!-- 20:00 -->
      <g style="fill: #262626" transform="translate(434.793304 351.20537) rotate(-45) scale(0.12 -0.12)">
       <defs>
        <path id="ArialMT-32" d="M 3222 541 
L 3222 0 
L 194 0 
Q 188 203 259 391 
Q 375 700 629 1000 
Q 884 1300 1366 1694 
Q 2113 2306 2375 2664 
Q 2638 3022 2638 3341 
Q 2638 3675 2398 3904 
Q 2159 4134 1775 4134 
Q 1369 4134 1125 3890 
Q 881 3647 878 3216 
L 300 3275 
Q 359 3922 746 4261 
Q 1134 4600 1788 4600 
Q 2447 4600 2831 4234 
Q 3216 3869 3216 3328 
Q 3216 3053 3103 2787 
Q 2991 2522 2730 2228 
Q 2469 1934 1863 1422 
Q 1356 997 1212 845 
Q 1069 694 975 541 
L 3222 541 
z
" transform="scale(0.015625)"/>
       </defs>
       <use xlink:href="#ArialMT-32"/>
       <use xlink:href="#ArialMT-30" x="55.615234"/>
       <use xlink:href="#ArialMT-3a" x="111.230469"/>
       <use xlink:href="#ArialMT-30" x="139.013672"/>
       <use xlink:href="#ArialMT-30" x="194.628906"/>
      </g>
     </g>
    </g>
    <g id="xtick_6">
     <g id="line2d_11">
      <path d="M 512.620512 320.4 
L 512.620512 43.2 
" clip-path="url(#pa23c01721b)" style="fill: none; stroke-dasharray: 2.96,1.28; stroke-dashoffset: 0; stroke: #d0d0d0; stroke-width: 0.8"/>
     </g>
     <g id="line2d_12"/>
    </g>
   </g>
   <g id="matplotlib.axis_2">
    <g id="ytick_1">
     <g id="line2d_13">
      <path d="M 135 299.837735 
L 515.454545 299.837735 
" clip-path="url(#pa23c01721b)" style="fill: none; stroke-dasharray: 2.96,1.28; stroke-dashoffset: 0; stroke: #d0d0d0; stroke-width: 0.8"/>
     </g>
     <g id="line2d_14"/>
     <g id="text_6">
      <!-- 0 -->
      <g style="fill: #262626" transform="translate(124.826875 304.132423) scale(0.12 -0.12)">
       <use xlink:href="#ArialMT-30"/>
      </g>
     </g>
    </g>
    <g id="ytick_2">
     <g id="line2d_15">
      <path d="M 135 267.308711 
L 515.454545 267.308711 
" clip-path="url(#pa23c01721b)" style="fill: none; stroke-dasharray: 2.96,1.28; stroke-dashoffset: 0; stroke: #d0d0d0; stroke-width: 0.8"/>
     </g>
     <g id="line2d_16"/>
     <g id="text_7">
      <!-- 1 -->
      <g style="fill: #262626" transform="translate(124.826875 271.603399) scale(0.12 -0.12)">
       <use xlink:href="#ArialMT-31"/>
      </g>
     </g>
    </g>
    <g id="ytick_3">
     <g id="line2d_17">
      <path d="M 135 234.779687 
L 515.454545 234.779687 
" clip-path="url(#pa23c01721b)" style="fill: none; stroke-dasharray: 2.96,1.28; stroke-dashoffset: 0; stroke: #d0d0d0; stroke-width: 0.8"/>
     </g>
     <g id="line2d_18"/>
     <g id="text_8">
      <!-- 2 -->
      <g style="fill: #262626" transform="translate(124.826875 239.074375) scale(0.12 -0.12)">
       <use xlink:href="#ArialMT-32"/>
      </g>
     </g>
    </g>
    <g id="ytick_4">
     <g id="line2d_19">
      <path d="M 135 202.250663 
L 515.454545 202.250663 
" clip-path="url(#pa23c01721b)" style="fill: none; stroke-dasharray: 2.96,1.28; stroke-dashoffset: 0; stroke: #d0d0d0; stroke-width: 0.8"/>
     </g>
     <g id="line2d_20"/>
     <g id="text_9">
      <!-- 3 -->
      <g style="fill: #262626" transform="translate(124.826875 206.545351) scale(0.12 -0.12)">
       <defs>
        <path id="ArialMT-33" d="M 269 1209 
L 831 1284 
Q 928 806 1161 595 
Q 1394 384 1728 384 
Q 2125 384 2398 659 
Q 2672 934 2672 1341 
Q 2672 1728 2419 1979 
Q 2166 2231 1775 2231 
Q 1616 2231 1378 2169 
L 1441 2663 
Q 1497 2656 1531 2656 
Q 1891 2656 2178 2843 
Q 2466 3031 2466 3422 
Q 2466 3731 2256 3934 
Q 2047 4138 1716 4138 
Q 1388 4138 1169 3931 
Q 950 3725 888 3313 
L 325 3413 
Q 428 3978 793 4289 
Q 1159 4600 1703 4600 
Q 2078 4600 2393 4439 
Q 2709 4278 2876 4000 
Q 3044 3722 3044 3409 
Q 3044 3113 2884 2869 
Q 2725 2625 2413 2481 
Q 2819 2388 3044 2092 
Q 3269 1797 3269 1353 
Q 3269 753 2831 336 
Q 2394 -81 1725 -81 
Q 1122 -81 723 278 
Q 325 638 269 1209 
z
" transform="scale(0.015625)"/>
       </defs>
       <use xlink:href="#ArialMT-33"/>
      </g>
     </g>
    </g>
    <g id="ytick_5">
     <g id="line2d_21">
      <path d="M 135 169.721639 
L 515.454545 169.721639 
" clip-path="url(#pa23c01721b)" style="fill: none; stroke-dasharray: 2.96,1.28; stroke-dashoffset: 0; stroke: #d0d0d0; stroke-width: 0.8"/>
     </g>
     <g id="line2d_22"/>
     <g id="text_10">
      <!-- 4 -->
      <g style="fill: #262626" transform="translate(124.826875 174.016327) scale(0.12 -0.12)">
       <defs>
        <path id="ArialMT-34" d="M 2069 0 
L 2069 1097 
L 81 1097 
L 81 1613 
L 2172 4581 
L 2631 4581 
L 2631 1613 
L 3250 1613 
L 3250 1097 
L 2631 1097 
L 2631 0 
L 2069 0 
z
M 2069 1613 
L 2069 3678 
L 634 1613 
L 2069 1613 
z
" transform="scale(0.015625)"/>
       </defs>
       <use xlink:href="#ArialMT-34"/>
      </g>
     </g>
    </g>
    <g id="ytick_6">
     <g id="line2d_23">
      <path d="M 135 137.192615 
L 515.454545 137.192615 
" clip-path="url(#pa23c01721b)" style="fill: none; stroke-dasharray: 2.96,1.28; stroke-dashoffset: 0; stroke: #d0d0d0; stroke-width: 0.8"/>
     </g>
     <g id="line2d_24"/>
     <g id="text_11">
      <!-- 5 -->
      <g style="fill: #262626" transform="translate(124.826875 141.487303) scale(0.12 -0.12)">
       <use xlink:href="#ArialMT-35"/>
      </g>
     </g>
    </g>
    <g id="ytick_7">
     <g id="line2d_25">
      <path d="M 135 104.663591 
L 515.454545 104.663591 
" clip-path="url(#pa23c01721b)" style="fill: none; stroke-dasharray: 2.96,1.28; stroke-dashoffset: 0; stroke: #d0d0d0; stroke-width: 0.8"/>
     </g>
     <g id="line2d_26"/>
     <g id="text_12">
      <!-- 6 -->
      <g style="fill: #262626" transform="translate(124.826875 108.958278) scale(0.12 -0.12)">
       <defs>
        <path id="ArialMT-36" d="M 3184 3459 
L 2625 3416 
Q 2550 3747 2413 3897 
Q 2184 4138 1850 4138 
Q 1581 4138 1378 3988 
Q 1113 3794 959 3422 
Q 806 3050 800 2363 
Q 1003 2672 1297 2822 
Q 1591 2972 1913 2972 
Q 2475 2972 2870 2558 
Q 3266 2144 3266 1488 
Q 3266 1056 3080 686 
Q 2894 316 2569 119 
Q 2244 -78 1831 -78 
Q 1128 -78 684 439 
Q 241 956 241 2144 
Q 241 3472 731 4075 
Q 1159 4600 1884 4600 
Q 2425 4600 2770 4297 
Q 3116 3994 3184 3459 
z
M 888 1484 
Q 888 1194 1011 928 
Q 1134 663 1356 523 
Q 1578 384 1822 384 
Q 2178 384 2434 671 
Q 2691 959 2691 1453 
Q 2691 1928 2437 2201 
Q 2184 2475 1800 2475 
Q 1419 2475 1153 2201 
Q 888 1928 888 1484 
z
" transform="scale(0.015625)"/>
       </defs>
       <use xlink:href="#ArialMT-36"/>
      </g>
     </g>
    </g>
    <g id="ytick_8">
     <g id="line2d_27">
      <path d="M 135 72.134567 
L 515.454545 72.134567 
" clip-path="url(#pa23c01721b)" style="fill: none; stroke-dasharray: 2.96,1.28; stroke-dashoffset: 0; stroke: #d0d0d0; stroke-width: 0.8"/>
     </g>
     <g id="line2d_28"/>
     <g id="text_13">
      <!-- 7 -->
      <g style="fill: #262626" transform="translate(124.826875 76.429254) scale(0.12 -0.12)">
       <defs>
        <path id="ArialMT-37" d="M 303 3981 
L 303 4522 
L 3269 4522 
L 3269 4084 
Q 2831 3619 2401 2847 
Q 1972 2075 1738 1259 
Q 1569 684 1522 0 
L 944 0 
Q 953 541 1156 1306 
Q 1359 2072 1739 2783 
Q 2119 3494 2547 3981 
L 303 3981 
z
" transform="scale(0.015625)"/>
       </defs>
       <use xlink:href="#ArialMT-37"/>
      </g>
     </g>
    </g>
    <g id="text_14">
     <!-- Price -->
     <g style="fill: #262626" transform="translate(118.45875 196.4775) rotate(-90) scale(0.12 -0.12)">
      <defs>
       <path id="Arial-BoldMT-50" d="M 466 0 
L 466 4581 
L 1950 4581 
Q 2794 4581 3050 4513 
Q 3444 4409 3709 4064 
Q 3975 3719 3975 3172 
Q 3975 2750 3822 2462 
Q 3669 2175 3433 2011 
Q 3197 1847 2953 1794 
Q 2622 1728 1994 1728 
L 1391 1728 
L 1391 0 
L 466 0 
z
M 1391 3806 
L 1391 2506 
L 1897 2506 
Q 2444 2506 2628 2578 
Q 2813 2650 2917 2803 
Q 3022 2956 3022 3159 
Q 3022 3409 2875 3571 
Q 2728 3734 2503 3775 
Q 2338 3806 1838 3806 
L 1391 3806 
z
" transform="scale(0.015625)"/>
       <path id="Arial-BoldMT-72" d="M 1300 0 
L 422 0 
L 422 3319 
L 1238 3319 
L 1238 2847 
Q 1447 3181 1614 3287 
Q 1781 3394 1994 3394 
Q 2294 3394 2572 3228 
L 2300 2463 
Q 2078 2606 1888 2606 
Q 1703 2606 1575 2504 
Q 1447 2403 1373 2137 
Q 1300 1872 1300 1025 
L 1300 0 
z
" transform="scale(0.015625)"/>
       <path id="Arial-BoldMT-69" d="M 459 3769 
L 459 4581 
L 1338 4581 
L 1338 3769 
L 459 3769 
z
M 459 0 
L 459 3319 
L 1338 3319 
L 1338 0 
L 459 0 
z
" transform="scale(0.015625)"/>
       <path id="Arial-BoldMT-63" d="M 3353 2338 
L 2488 2181 
Q 2444 2441 2289 2572 
Q 2134 2703 1888 2703 
Q 1559 2703 1364 2476 
Q 1169 2250 1169 1719 
Q 1169 1128 1367 884 
Q 1566 641 1900 641 
Q 2150 641 2309 783 
Q 2469 925 2534 1272 
L 3397 1125 
Q 3263 531 2881 228 
Q 2500 -75 1859 -75 
Q 1131 -75 698 384 
Q 266 844 266 1656 
Q 266 2478 700 2936 
Q 1134 3394 1875 3394 
Q 2481 3394 2839 3133 
Q 3197 2872 3353 2338 
z
" transform="scale(0.015625)"/>
       <path id="Arial-BoldMT-65" d="M 2381 1056 
L 3256 909 
Q 3088 428 2723 176 
Q 2359 -75 1813 -75 
Q 947 -75 531 491 
Q 203 944 203 1634 
Q 203 2459 634 2926 
Q 1066 3394 1725 3394 
Q 2466 3394 2894 2905 
Q 3322 2416 3303 1406 
L 1103 1406 
Q 1113 1016 1316 798 
Q 1519 581 1822 581 
Q 2028 581 2168 693 
Q 2309 806 2381 1056 
z
M 2431 1944 
Q 2422 2325 2234 2523 
Q 2047 2722 1778 2722 
Q 1491 2722 1303 2513 
Q 1116 2303 1119 1944 
L 2431 1944 
z
" transform="scale(0.015625)"/>
      </defs>
      <use xlink:href="#Arial-BoldMT-50"/>
      <use xlink:href="#Arial-BoldMT-72" x="66.699219"/>
      <use xlink:href="#Arial-BoldMT-69" x="105.615234"/>
      <use xlink:href="#Arial-BoldMT-63" x="133.398438"/>
      <use xlink:href="#Arial-BoldMT-65" x="189.013672"/>
     </g>
    </g>
   </g>
   <g id="PolyCollection_1">
    <path d="M 161.084676 69.841271 
L 161.084676 70.491851 
L 170.107314 70.491851 
L 170.107314 69.841271 
z
" clip-path="url(#pa23c01721b)" style="fill: #ea0070; fill-opacity: 0.9; stroke: #ea0070"/>
    <path d="M 174.965657 70.491851 
L 174.965657 70.947258 
L 183.988294 70.947258 
L 183.988294 70.491851 
z
" clip-path="url(#pa23c01721b)" style="fill: #ea0070; fill-opacity: 0.9; stroke: #ea0070"/>
    <path d="M 188.846638 70.947258 
L 188.846638 68.702755 
L 197.869275 68.702755 
L 197.869275 70.947258 
z
" clip-path="url(#pa23c01721b)" style="fill: #70a800; fill-opacity: 0.9; stroke: #70a800"/>
    <path d="M 202.727618 68.702755 
L 202.727618 69.255748 
L 211.750256 69.255748 
L 211.750256 68.702755 
z
" clip-path="url(#pa23c01721b)" style="fill: #ea0070; fill-opacity: 0.9; stroke: #ea0070"/>
    <path d="M 216.608599 69.255748 
L 216.608599 65.921523 
L 225.631236 65.921523 
L 225.631236 69.255748 
z
" clip-path="url(#pa23c01721b)" style="fill: #70a800; fill-opacity: 0.9; stroke: #70a800"/>
    <path d="M 230.48958 65.921523 
L 230.48958 62.001776 
L 239.512217 62.001776 
L 239.512217 65.921523 
z
" clip-path="url(#pa23c01721b)" style="fill: #70a800; fill-opacity: 0.9; stroke: #70a800"/>
    <path d="M 244.37056 62.001776 
L 244.37056 67.759413 
L 253.393198 67.759413 
L 253.393198 62.001776 
z
" clip-path="url(#pa23c01721b)" style="fill: #ea0070; fill-opacity: 0.9; stroke: #ea0070"/>
    <path d="M 258.251541 67.759413 
L 258.251541 65.010711 
L 267.274178 65.010711 
L 267.274178 67.759413 
z
" clip-path="url(#pa23c01721b)" style="fill: #70a800; fill-opacity: 0.9; stroke: #70a800"/>
    <path d="M 272.132522 65.010711 
L 272.132522 64.734214 
L 281.155159 64.734214 
L 281.155159 65.010711 
z
" clip-path="url(#pa23c01721b)" style="fill: #70a800; fill-opacity: 0.9; stroke: #70a800"/>
    <path d="M 286.013502 64.734214 
L 286.013502 65.937788 
L 295.03614 65.937788 
L 295.03614 64.734214 
z
" clip-path="url(#pa23c01721b)" style="fill: #ea0070; fill-opacity: 0.9; stroke: #ea0070"/>
    <path d="M 299.894483 65.921523 
L 299.894483 66.067904 
L 308.91712 66.067904 
L 308.91712 65.921523 
z
" clip-path="url(#pa23c01721b)" style="fill: #ea0070; fill-opacity: 0.9; stroke: #ea0070"/>
    <path d="M 313.775464 66.051639 
L 313.775464 66.100433 
L 322.798101 66.100433 
L 322.798101 66.051639 
z
" clip-path="url(#pa23c01721b)" style="fill: #ea0070; fill-opacity: 0.9; stroke: #ea0070"/>
    <path d="M 327.656444 66.084168 
L 327.656444 67.173891 
L 336.679082 67.173891 
L 336.679082 66.084168 
z
" clip-path="url(#pa23c01721b)" style="fill: #ea0070; fill-opacity: 0.9; stroke: #ea0070"/>
    <path d="M 341.537425 67.173891 
L 341.537425 66.246814 
L 350.560062 66.246814 
L 350.560062 67.173891 
z
" clip-path="url(#pa23c01721b)" style="fill: #70a800; fill-opacity: 0.9; stroke: #70a800"/>
    <path d="M 355.418406 66.246814 
L 355.418406 66.994981 
L 364.441043 66.994981 
L 364.441043 66.246814 
z
" clip-path="url(#pa23c01721b)" style="fill: #ea0070; fill-opacity: 0.9; stroke: #ea0070"/>
    <path d="M 369.299386 66.994981 
L 369.299386 65.287207 
L 378.322024 65.287207 
L 378.322024 66.994981 
z
" clip-path="url(#pa23c01721b)" style="fill: #70a800; fill-opacity: 0.9; stroke: #70a800"/>
    <path d="M 383.180367 65.287207 
L 383.180367 63.498111 
L 392.203005 63.498111 
L 392.203005 65.287207 
z
" clip-path="url(#pa23c01721b)" style="fill: #70a800; fill-opacity: 0.9; stroke: #70a800"/>
    <path d="M 397.061348 63.498111 
L 397.061348 62.213215 
L 406.083985 62.213215 
L 406.083985 63.498111 
z
" clip-path="url(#pa23c01721b)" style="fill: #70a800; fill-opacity: 0.9; stroke: #70a800"/>
    <path d="M 410.942328 62.213215 
L 410.942328 62.815002 
L 419.964966 62.815002 
L 419.964966 62.213215 
z
" clip-path="url(#pa23c01721b)" style="fill: #ea0070; fill-opacity: 0.9; stroke: #ea0070"/>
    <path d="M 424.823309 62.815002 
L 424.823309 49.575689 
L 433.845947 49.575689 
L 433.845947 62.815002 
z
" clip-path="url(#pa23c01721b)" style="fill: #70a800; fill-opacity: 0.9; stroke: #70a800"/>
    <path d="M 438.70429 49.575689 
L 438.70429 46.501696 
L 447.726927 46.501696 
L 447.726927 49.575689 
z
" clip-path="url(#pa23c01721b)" style="fill: #70a800; fill-opacity: 0.9; stroke: #70a800"/>
    <path d="M 452.58527 46.501696 
L 452.58527 45.216799 
L 461.607908 45.216799 
L 461.607908 46.501696 
z
" clip-path="url(#pa23c01721b)" style="fill: #70a800; fill-opacity: 0.9; stroke: #70a800"/>
    <path d="M 466.466251 45.216799 
L 466.466251 45.005361 
L 475.488889 45.005361 
L 475.488889 45.216799 
z
" clip-path="url(#pa23c01721b)" style="fill: #70a800; fill-opacity: 0.9; stroke: #70a800"/>
    <path d="M 480.347232 45.005361 
L 480.347232 44.371045 
L 489.369869 44.371045 
L 489.369869 45.005361 
z
" clip-path="url(#pa23c01721b)" style="fill: #70a800; fill-opacity: 0.9; stroke: #70a800"/>
   </g>
   <g id="LineCollection_1">
    <path d="M 165.595995 71.662896 
L 165.595995 70.491851 
" clip-path="url(#pa23c01721b)" style="fill: none; stroke: #ea0070"/>
    <path d="M 179.476976 73.744754 
L 179.476976 70.947258 
" clip-path="url(#pa23c01721b)" style="fill: none; stroke: #ea0070"/>
    <path d="M 193.357956 70.996051 
L 193.357956 70.947258 
" clip-path="url(#pa23c01721b)" style="fill: none; stroke: #70a800"/>
    <path d="M 207.238937 69.255748 
L 207.238937 69.255748 
" clip-path="url(#pa23c01721b)" style="fill: none; stroke: #ea0070"/>
    <path d="M 221.119918 69.434658 
L 221.119918 69.255748 
" clip-path="url(#pa23c01721b)" style="fill: none; stroke: #70a800"/>
    <path d="M 235.000898 66.067904 
L 235.000898 65.921523 
" clip-path="url(#pa23c01721b)" style="fill: none; stroke: #70a800"/>
    <path d="M 248.881879 68.556374 
L 248.881879 67.759413 
" clip-path="url(#pa23c01721b)" style="fill: none; stroke: #ea0070"/>
    <path d="M 262.76286 68.068439 
L 262.76286 67.759413 
" clip-path="url(#pa23c01721b)" style="fill: none; stroke: #70a800"/>
    <path d="M 276.64384 65.775143 
L 276.64384 65.010711 
" clip-path="url(#pa23c01721b)" style="fill: none; stroke: #70a800"/>
    <path d="M 290.524821 66.263078 
L 290.524821 65.937788 
" clip-path="url(#pa23c01721b)" style="fill: none; stroke: #ea0070"/>
    <path d="M 304.405802 66.295607 
L 304.405802 66.067904 
" clip-path="url(#pa23c01721b)" style="fill: none; stroke: #ea0070"/>
    <path d="M 318.286782 66.978717 
L 318.286782 66.100433 
" clip-path="url(#pa23c01721b)" style="fill: none; stroke: #ea0070"/>
    <path d="M 332.167763 67.369065 
L 332.167763 67.173891 
" clip-path="url(#pa23c01721b)" style="fill: none; stroke: #ea0070"/>
    <path d="M 346.048744 67.304007 
L 346.048744 67.173891 
" clip-path="url(#pa23c01721b)" style="fill: none; stroke: #70a800"/>
    <path d="M 359.929724 68.019645 
L 359.929724 66.994981 
" clip-path="url(#pa23c01721b)" style="fill: none; stroke: #ea0070"/>
    <path d="M 373.810705 67.417858 
L 373.810705 66.994981 
" clip-path="url(#pa23c01721b)" style="fill: none; stroke: #70a800"/>
    <path d="M 387.691686 66.084168 
L 387.691686 65.287207 
" clip-path="url(#pa23c01721b)" style="fill: none; stroke: #70a800"/>
    <path d="M 401.572666 64.831801 
L 401.572666 63.498111 
" clip-path="url(#pa23c01721b)" style="fill: none; stroke: #70a800"/>
    <path d="M 415.453647 63.140292 
L 415.453647 62.815002 
" clip-path="url(#pa23c01721b)" style="fill: none; stroke: #ea0070"/>
    <path d="M 429.334628 64.246279 
L 429.334628 62.815002 
" clip-path="url(#pa23c01721b)" style="fill: none; stroke: #70a800"/>
    <path d="M 443.215609 49.591953 
L 443.215609 49.575689 
" clip-path="url(#pa23c01721b)" style="fill: none; stroke: #70a800"/>
    <path d="M 457.096589 49.445573 
L 457.096589 46.501696 
" clip-path="url(#pa23c01721b)" style="fill: none; stroke: #70a800"/>
    <path d="M 470.97757 46.664341 
L 470.97757 45.216799 
" clip-path="url(#pa23c01721b)" style="fill: none; stroke: #70a800"/>
    <path d="M 484.858551 45.964967 
L 484.858551 45.005361 
" clip-path="url(#pa23c01721b)" style="fill: none; stroke: #70a800"/>
    <path d="M 165.595995 69.337071 
L 165.595995 69.841271 
" clip-path="url(#pa23c01721b)" style="fill: none; stroke: #ea0070"/>
    <path d="M 179.476976 70.02018 
L 179.476976 70.491851 
" clip-path="url(#pa23c01721b)" style="fill: none; stroke: #ea0070"/>
    <path d="M 193.357956 68.263613 
L 193.357956 68.702755 
" clip-path="url(#pa23c01721b)" style="fill: none; stroke: #70a800"/>
    <path d="M 207.238937 68.166026 
L 207.238937 68.702755 
" clip-path="url(#pa23c01721b)" style="fill: none; stroke: #ea0070"/>
    <path d="M 221.119918 65.287207 
L 221.119918 65.921523 
" clip-path="url(#pa23c01721b)" style="fill: none; stroke: #70a800"/>
    <path d="M 235.000898 60.21268 
L 235.000898 62.001776 
" clip-path="url(#pa23c01721b)" style="fill: none; stroke: #70a800"/>
    <path d="M 248.881879 62.001776 
L 248.881879 62.001776 
" clip-path="url(#pa23c01721b)" style="fill: none; stroke: #ea0070"/>
    <path d="M 262.76286 64.03484 
L 262.76286 65.010711 
" clip-path="url(#pa23c01721b)" style="fill: none; stroke: #70a800"/>
    <path d="M 276.64384 64.278808 
L 276.64384 64.734214 
" clip-path="url(#pa23c01721b)" style="fill: none; stroke: #70a800"/>
    <path d="M 290.524821 64.571569 
L 290.524821 64.734214 
" clip-path="url(#pa23c01721b)" style="fill: none; stroke: #ea0070"/>
    <path d="M 304.405802 64.929388 
L 304.405802 65.921523 
" clip-path="url(#pa23c01721b)" style="fill: none; stroke: #ea0070"/>
    <path d="M 318.286782 64.604098 
L 318.286782 66.051639 
" clip-path="url(#pa23c01721b)" style="fill: none; stroke: #ea0070"/>
    <path d="M 332.167763 65.222149 
L 332.167763 66.084168 
" clip-path="url(#pa23c01721b)" style="fill: none; stroke: #ea0070"/>
    <path d="M 346.048744 65.742614 
L 346.048744 66.246814 
" clip-path="url(#pa23c01721b)" style="fill: none; stroke: #70a800"/>
    <path d="M 359.929724 66.149226 
L 359.929724 66.246814 
" clip-path="url(#pa23c01721b)" style="fill: none; stroke: #ea0070"/>
    <path d="M 373.810705 64.880595 
L 373.810705 65.287207 
" clip-path="url(#pa23c01721b)" style="fill: none; stroke: #70a800"/>
    <path d="M 387.691686 62.782472 
L 387.691686 63.498111 
" clip-path="url(#pa23c01721b)" style="fill: none; stroke: #70a800"/>
    <path d="M 401.572666 62.213215 
L 401.572666 62.213215 
" clip-path="url(#pa23c01721b)" style="fill: none; stroke: #70a800"/>
    <path d="M 415.453647 61.497576 
L 415.453647 62.213215 
" clip-path="url(#pa23c01721b)" style="fill: none; stroke: #ea0070"/>
    <path d="M 429.334628 48.20947 
L 429.334628 49.575689 
" clip-path="url(#pa23c01721b)" style="fill: none; stroke: #70a800"/>
    <path d="M 443.215609 43.2 
L 443.215609 46.501696 
" clip-path="url(#pa23c01721b)" style="fill: none; stroke: #70a800"/>
    <path d="M 457.096589 45.216799 
L 457.096589 45.216799 
" clip-path="url(#pa23c01721b)" style="fill: none; stroke: #70a800"/>
    <path d="M 470.97757 44.2084 
L 470.97757 45.005361 
" clip-path="url(#pa23c01721b)" style="fill: none; stroke: #70a800"/>
    <path d="M 484.858551 43.720464 
L 484.858551 44.371045 
" clip-path="url(#pa23c01721b)" style="fill: none; stroke: #70a800"/>
   </g>
   <g id="patch_3">
    <path d="M 135 320.4 
L 135 43.2 
" style="fill: none; stroke: #e6e6e6; stroke-width: 1.5; stroke-linejoin: miter; stroke-linecap: square"/>
   </g>
   <g id="patch_4">
    <path d="M 515.454545 320.4 
L 515.454545 43.2 
" style="fill: none; stroke: #e6e6e6; stroke-width: 1.5; stroke-linejoin: miter; stroke-linecap: square"/>
   </g>
   <g id="patch_5">
    <path d="M 135 320.4 
L 515.454545 320.4 
" style="fill: none; stroke: #e6e6e6; stroke-width: 1.5; stroke-linejoin: miter; stroke-linecap: square"/>
   </g>
   <g id="patch_6">
    <path d="M 135 43.2 
L 515.454545 43.2 
" style="fill: none; stroke: #e6e6e6; stroke-width: 1.5; stroke-linejoin: miter; stroke-linecap: square"/>
   </g>
   <g id="text_15">
    <!-- Actual -->
    <g style="fill: #262626" transform="translate(305.216898 37.2) scale(0.144 -0.144)">
     <defs>
      <path id="ArialMT-41" d="M -9 0 
L 1750 4581 
L 2403 4581 
L 4278 0 
L 3588 0 
L 3053 1388 
L 1138 1388 
L 634 0 
L -9 0 
z
M 1313 1881 
L 2866 1881 
L 2388 3150 
Q 2169 3728 2063 4100 
Q 1975 3659 1816 3225 
L 1313 1881 
z
" transform="scale(0.015625)"/>
      <path id="ArialMT-63" d="M 2588 1216 
L 3141 1144 
Q 3050 572 2676 248 
Q 2303 -75 1759 -75 
Q 1078 -75 664 370 
Q 250 816 250 1647 
Q 250 2184 428 2587 
Q 606 2991 970 3192 
Q 1334 3394 1763 3394 
Q 2303 3394 2647 3120 
Q 2991 2847 3088 2344 
L 2541 2259 
Q 2463 2594 2264 2762 
Q 2066 2931 1784 2931 
Q 1359 2931 1093 2626 
Q 828 2322 828 1663 
Q 828 994 1084 691 
Q 1341 388 1753 388 
Q 2084 388 2306 591 
Q 2528 794 2588 1216 
z
" transform="scale(0.015625)"/>
      <path id="ArialMT-74" d="M 1650 503 
L 1731 6 
Q 1494 -44 1306 -44 
Q 1000 -44 831 53 
Q 663 150 594 308 
Q 525 466 525 972 
L 525 2881 
L 113 2881 
L 113 3319 
L 525 3319 
L 525 4141 
L 1084 4478 
L 1084 3319 
L 1650 3319 
L 1650 2881 
L 1084 2881 
L 1084 941 
Q 1084 700 1114 631 
Q 1144 563 1211 522 
Q 1278 481 1403 481 
Q 1497 481 1650 503 
z
" transform="scale(0.015625)"/>
      <path id="ArialMT-75" d="M 2597 0 
L 2597 488 
Q 2209 -75 1544 -75 
Q 1250 -75 995 37 
Q 741 150 617 320 
Q 494 491 444 738 
Q 409 903 409 1263 
L 409 3319 
L 972 3319 
L 972 1478 
Q 972 1038 1006 884 
Q 1059 663 1231 536 
Q 1403 409 1656 409 
Q 1909 409 2131 539 
Q 2353 669 2445 892 
Q 2538 1116 2538 1541 
L 2538 3319 
L 3100 3319 
L 3100 0 
L 2597 0 
z
" transform="scale(0.015625)"/>
      <path id="ArialMT-61" d="M 2588 409 
Q 2275 144 1986 34 
Q 1697 -75 1366 -75 
Q 819 -75 525 192 
Q 231 459 231 875 
Q 231 1119 342 1320 
Q 453 1522 633 1644 
Q 813 1766 1038 1828 
Q 1203 1872 1538 1913 
Q 2219 1994 2541 2106 
Q 2544 2222 2544 2253 
Q 2544 2597 2384 2738 
Q 2169 2928 1744 2928 
Q 1347 2928 1158 2789 
Q 969 2650 878 2297 
L 328 2372 
Q 403 2725 575 2942 
Q 747 3159 1072 3276 
Q 1397 3394 1825 3394 
Q 2250 3394 2515 3294 
Q 2781 3194 2906 3042 
Q 3031 2891 3081 2659 
Q 3109 2516 3109 2141 
L 3109 1391 
Q 3109 606 3145 398 
Q 3181 191 3288 0 
L 2700 0 
Q 2613 175 2588 409 
z
M 2541 1666 
Q 2234 1541 1622 1453 
Q 1275 1403 1131 1340 
Q 988 1278 909 1158 
Q 831 1038 831 891 
Q 831 666 1001 516 
Q 1172 366 1500 366 
Q 1825 366 2078 508 
Q 2331 650 2450 897 
Q 2541 1088 2541 1459 
L 2541 1666 
z
" transform="scale(0.015625)"/>
      <path id="ArialMT-6c" d="M 409 0 
L 409 4581 
L 972 4581 
L 972 0 
L 409 0 
z
" transform="scale(0.015625)"/>
     </defs>
     <use xlink:href="#ArialMT-41"/>
     <use xlink:href="#ArialMT-63" x="66.699219"/>
     <use xlink:href="#ArialMT-74" x="116.699219"/>
     <use xlink:href="#ArialMT-75" x="144.482422"/>
     <use xlink:href="#ArialMT-61" x="200.097656"/>
     <use xlink:href="#ArialMT-6c" x="255.712891"/>
    </g>
   </g>
  </g>
  <g id="axes_2">
   <g id="patch_7">
    <path d="M 591.545455 320.4 
L 972 320.4 
L 972 43.2 
L 591.545455 43.2 
z
" style="fill: #ffffff"/>
   </g>
   <g id="matplotlib.axis_3">
    <g id="xtick_7">
     <g id="line2d_29">
      <path d="M 622.141449 320.4 
L 622.141449 43.2 
" clip-path="url(#p0f25b235fb)" style="fill: none; stroke-dasharray: 2.96,1.28; stroke-dashoffset: 0; stroke: #d0d0d0; stroke-width: 0.8"/>
     </g>
     <g id="line2d_30"/>
     <g id="text_16">
      <!-- 00:00 -->
      <g style="fill: #262626" transform="translate(613.719145 351.20537) rotate(-45) scale(0.12 -0.12)">
       <use xlink:href="#ArialMT-30"/>
       <use xlink:href="#ArialMT-30" x="55.615234"/>
       <use xlink:href="#ArialMT-3a" x="111.230469"/>
       <use xlink:href="#ArialMT-30" x="139.013672"/>
       <use xlink:href="#ArialMT-30" x="194.628906"/>
      </g>
     </g>
    </g>
    <g id="xtick_8">
     <g id="line2d_31">
      <path d="M 691.546353 320.4 
L 691.546353 43.2 
" clip-path="url(#p0f25b235fb)" style="fill: none; stroke-dasharray: 2.96,1.28; stroke-dashoffset: 0; stroke: #d0d0d0; stroke-width: 0.8"/>
     </g>
     <g id="line2d_32"/>
     <g id="text_17">
      <!-- 05:00 -->
      <g style="fill: #262626" transform="translate(683.124048 351.20537) rotate(-45) scale(0.12 -0.12)">
       <use xlink:href="#ArialMT-30"/>
       <use xlink:href="#ArialMT-35" x="55.615234"/>
       <use xlink:href="#ArialMT-3a" x="111.230469"/>
       <use xlink:href="#ArialMT-30" x="139.013672"/>
       <use xlink:href="#ArialMT-30" x="194.628906"/>
      </g>
     </g>
    </g>
    <g id="xtick_9">
     <g id="line2d_33">
      <path d="M 760.951256 320.4 
L 760.951256 43.2 
" clip-path="url(#p0f25b235fb)" style="fill: none; stroke-dasharray: 2.96,1.28; stroke-dashoffset: 0; stroke: #d0d0d0; stroke-width: 0.8"/>
     </g>
     <g id="line2d_34"/>
     <g id="text_18">
      <!-- 10:00 -->
      <g style="fill: #262626" transform="translate(752.528952 351.20537) rotate(-45) scale(0.12 -0.12)">
       <use xlink:href="#ArialMT-31"/>
       <use xlink:href="#ArialMT-30" x="55.615234"/>
       <use xlink:href="#ArialMT-3a" x="111.230469"/>
       <use xlink:href="#ArialMT-30" x="139.013672"/>
       <use xlink:href="#ArialMT-30" x="194.628906"/>
      </g>
     </g>
    </g>
    <g id="xtick_10">
     <g id="line2d_35">
      <path d="M 830.35616 320.4 
L 830.35616 43.2 
" clip-path="url(#p0f25b235fb)" style="fill: none; stroke-dasharray: 2.96,1.28; stroke-dashoffset: 0; stroke: #d0d0d0; stroke-width: 0.8"/>
     </g>
     <g id="line2d_36"/>
     <g id="text_19">
      <!-- 15:00 -->
      <g style="fill: #262626" transform="translate(821.933855 351.20537) rotate(-45) scale(0.12 -0.12)">
       <use xlink:href="#ArialMT-31"/>
       <use xlink:href="#ArialMT-35" x="55.615234"/>
       <use xlink:href="#ArialMT-3a" x="111.230469"/>
       <use xlink:href="#ArialMT-30" x="139.013672"/>
       <use xlink:href="#ArialMT-30" x="194.628906"/>
      </g>
     </g>
    </g>
    <g id="xtick_11">
     <g id="line2d_37">
      <path d="M 899.761063 320.4 
L 899.761063 43.2 
" clip-path="url(#p0f25b235fb)" style="fill: none; stroke-dasharray: 2.96,1.28; stroke-dashoffset: 0; stroke: #d0d0d0; stroke-width: 0.8"/>
     </g>
     <g id="line2d_38"/>
     <g id="text_20">
      <!-- 20:00 -->
      <g style="fill: #262626" transform="translate(891.338758 351.20537) rotate(-45) scale(0.12 -0.12)">
       <use xlink:href="#ArialMT-32"/>
       <use xlink:href="#ArialMT-30" x="55.615234"/>
       <use xlink:href="#ArialMT-3a" x="111.230469"/>
       <use xlink:href="#ArialMT-30" x="139.013672"/>
       <use xlink:href="#ArialMT-30" x="194.628906"/>
      </g>
     </g>
    </g>
    <g id="xtick_12">
     <g id="line2d_39">
      <path d="M 969.165966 320.4 
L 969.165966 43.2 
" clip-path="url(#p0f25b235fb)" style="fill: none; stroke-dasharray: 2.96,1.28; stroke-dashoffset: 0; stroke: #d0d0d0; stroke-width: 0.8"/>
     </g>
     <g id="line2d_40"/>
    </g>
   </g>
   <g id="matplotlib.axis_4">
    <g id="ytick_9">
     <g id="line2d_41">
      <path d="M 591.545455 299.837735 
L 972 299.837735 
" clip-path="url(#p0f25b235fb)" style="fill: none; stroke-dasharray: 2.96,1.28; stroke-dashoffset: 0; stroke: #d0d0d0; stroke-width: 0.8"/>
     </g>
     <g id="line2d_42"/>
     <g id="text_21">
      <!-- 0 -->
      <g style="fill: #262626" transform="translate(581.37233 304.132423) scale(0.12 -0.12)">
       <use xlink:href="#ArialMT-30"/>
      </g>
     </g>
    </g>
    <g id="ytick_10">
     <g id="line2d_43">
      <path d="M 591.545455 267.308711 
L 972 267.308711 
" clip-path="url(#p0f25b235fb)" style="fill: none; stroke-dasharray: 2.96,1.28; stroke-dashoffset: 0; stroke: #d0d0d0; stroke-width: 0.8"/>
     </g>
     <g id="line2d_44"/>
     <g id="text_22">
      <!-- 1 -->
      <g style="fill: #262626" transform="translate(581.37233 271.603399) scale(0.12 -0.12)">
       <use xlink:href="#ArialMT-31"/>
      </g>
     </g>
    </g>
    <g id="ytick_11">
     <g id="line2d_45">
      <path d="M 591.545455 234.779687 
L 972 234.779687 
" clip-path="url(#p0f25b235fb)" style="fill: none; stroke-dasharray: 2.96,1.28; stroke-dashoffset: 0; stroke: #d0d0d0; stroke-width: 0.8"/>
     </g>
     <g id="line2d_46"/>
     <g id="text_23">
      <!-- 2 -->
      <g style="fill: #262626" transform="translate(581.37233 239.074375) scale(0.12 -0.12)">
       <use xlink:href="#ArialMT-32"/>
      </g>
     </g>
    </g>
    <g id="ytick_12">
     <g id="line2d_47">
      <path d="M 591.545455 202.250663 
L 972 202.250663 
" clip-path="url(#p0f25b235fb)" style="fill: none; stroke-dasharray: 2.96,1.28; stroke-dashoffset: 0; stroke: #d0d0d0; stroke-width: 0.8"/>
     </g>
     <g id="line2d_48"/>
     <g id="text_24">
      <!-- 3 -->
      <g style="fill: #262626" transform="translate(581.37233 206.545351) scale(0.12 -0.12)">
       <use xlink:href="#ArialMT-33"/>
      </g>
     </g>
    </g>
    <g id="ytick_13">
     <g id="line2d_49">
      <path d="M 591.545455 169.721639 
L 972 169.721639 
" clip-path="url(#p0f25b235fb)" style="fill: none; stroke-dasharray: 2.96,1.28; stroke-dashoffset: 0; stroke: #d0d0d0; stroke-width: 0.8"/>
     </g>
     <g id="line2d_50"/>
     <g id="text_25">
      <!-- 4 -->
      <g style="fill: #262626" transform="translate(581.37233 174.016327) scale(0.12 -0.12)">
       <use xlink:href="#ArialMT-34"/>
      </g>
     </g>
    </g>
    <g id="ytick_14">
     <g id="line2d_51">
      <path d="M 591.545455 137.192615 
L 972 137.192615 
" clip-path="url(#p0f25b235fb)" style="fill: none; stroke-dasharray: 2.96,1.28; stroke-dashoffset: 0; stroke: #d0d0d0; stroke-width: 0.8"/>
     </g>
     <g id="line2d_52"/>
     <g id="text_26">
      <!-- 5 -->
      <g style="fill: #262626" transform="translate(581.37233 141.487303) scale(0.12 -0.12)">
       <use xlink:href="#ArialMT-35"/>
      </g>
     </g>
    </g>
    <g id="ytick_15">
     <g id="line2d_53">
      <path d="M 591.545455 104.663591 
L 972 104.663591 
" clip-path="url(#p0f25b235fb)" style="fill: none; stroke-dasharray: 2.96,1.28; stroke-dashoffset: 0; stroke: #d0d0d0; stroke-width: 0.8"/>
     </g>
     <g id="line2d_54"/>
     <g id="text_27">
      <!-- 6 -->
      <g style="fill: #262626" transform="translate(581.37233 108.958278) scale(0.12 -0.12)">
       <use xlink:href="#ArialMT-36"/>
      </g>
     </g>
    </g>
    <g id="ytick_16">
     <g id="line2d_55">
      <path d="M 591.545455 72.134567 
L 972 72.134567 
" clip-path="url(#p0f25b235fb)" style="fill: none; stroke-dasharray: 2.96,1.28; stroke-dashoffset: 0; stroke: #d0d0d0; stroke-width: 0.8"/>
     </g>
     <g id="line2d_56"/>
     <g id="text_28">
      <!-- 7 -->
      <g style="fill: #262626" transform="translate(581.37233 76.429254) scale(0.12 -0.12)">
       <use xlink:href="#ArialMT-37"/>
      </g>
     </g>
    </g>
    <g id="text_29">
     <!-- Price -->
     <g style="fill: #262626" transform="translate(575.004205 196.4775) rotate(-90) scale(0.12 -0.12)">
      <use xlink:href="#Arial-BoldMT-50"/>
      <use xlink:href="#Arial-BoldMT-72" x="66.699219"/>
      <use xlink:href="#Arial-BoldMT-69" x="105.615234"/>
      <use xlink:href="#Arial-BoldMT-63" x="133.398438"/>
      <use xlink:href="#Arial-BoldMT-65" x="189.013672"/>
     </g>
    </g>
   </g>
   <g id="PolyCollection_2">
    <path d="M 617.630131 320.365796 
L 617.630131 320.376324 
L 626.652768 320.376324 
L 626.652768 320.365796 
z
" clip-path="url(#p0f25b235fb)" style="fill: #ea0070; fill-opacity: 0.9; stroke: #ea0070"/>
    <path d="M 631.511111 320.387882 
L 631.511111 320.387742 
L 640.533749 320.387742 
L 640.533749 320.387882 
z
" clip-path="url(#p0f25b235fb)" style="fill: #70a800; fill-opacity: 0.9; stroke: #70a800"/>
    <path d="M 645.392092 320.391514 
L 645.392092 320.131684 
L 654.41473 320.131684 
L 654.41473 320.391514 
z
" clip-path="url(#p0f25b235fb)" style="fill: #70a800; fill-opacity: 0.9; stroke: #70a800"/>
    <path d="M 659.273073 320.216894 
L 659.273073 320.275027 
L 668.29571 320.275027 
L 668.29571 320.216894 
z
" clip-path="url(#p0f25b235fb)" style="fill: #ea0070; fill-opacity: 0.9; stroke: #ea0070"/>
    <path d="M 673.154053 320.329175 
L 673.154053 314.049671 
L 682.176691 314.049671 
L 682.176691 320.329175 
z
" clip-path="url(#p0f25b235fb)" style="fill: #70a800; fill-opacity: 0.9; stroke: #70a800"/>
    <path d="M 687.035034 313.733555 
L 687.035034 297.353246 
L 696.057672 297.353246 
L 696.057672 313.733555 
z
" clip-path="url(#p0f25b235fb)" style="fill: #70a800; fill-opacity: 0.9; stroke: #70a800"/>
    <path d="M 700.916015 297.341505 
L 700.916015 319.684824 
L 709.938652 319.684824 
L 709.938652 297.341505 
z
" clip-path="url(#p0f25b235fb)" style="fill: #ea0070; fill-opacity: 0.9; stroke: #ea0070"/>
    <path d="M 714.796995 319.759909 
L 714.796995 310.867451 
L 723.819633 310.867451 
L 723.819633 319.759909 
z
" clip-path="url(#p0f25b235fb)" style="fill: #70a800; fill-opacity: 0.9; stroke: #70a800"/>
    <path d="M 728.677976 310.599529 
L 728.677976 307.473353 
L 737.700614 307.473353 
L 737.700614 310.599529 
z
" clip-path="url(#p0f25b235fb)" style="fill: #70a800; fill-opacity: 0.9; stroke: #70a800"/>
    <path d="M 742.558957 308.667994 
L 742.558957 314.799976 
L 751.581594 314.799976 
L 751.581594 308.667994 
z
" clip-path="url(#p0f25b235fb)" style="fill: #ea0070; fill-opacity: 0.9; stroke: #ea0070"/>
    <path d="M 756.439938 315.014309 
L 756.439938 316.044041 
L 765.462575 316.044041 
L 765.462575 315.014309 
z
" clip-path="url(#p0f25b235fb)" style="fill: #ea0070; fill-opacity: 0.9; stroke: #ea0070"/>
    <path d="M 770.320918 315.508426 
L 770.320918 315.274851 
L 779.343556 315.274851 
L 779.343556 315.508426 
z
" clip-path="url(#p0f25b235fb)" style="fill: #70a800; fill-opacity: 0.9; stroke: #70a800"/>
    <path d="M 784.201899 316.10376 
L 784.201899 318.854698 
L 793.224536 318.854698 
L 793.224536 316.10376 
z
" clip-path="url(#p0f25b235fb)" style="fill: #ea0070; fill-opacity: 0.9; stroke: #ea0070"/>
    <path d="M 798.08288 319.221653 
L 798.08288 316.474577 
L 807.105517 316.474577 
L 807.105517 319.221653 
z
" clip-path="url(#p0f25b235fb)" style="fill: #70a800; fill-opacity: 0.9; stroke: #70a800"/>
    <path d="M 811.96386 316.467787 
L 811.96386 318.664618 
L 820.986498 318.664618 
L 820.986498 316.467787 
z
" clip-path="url(#p0f25b235fb)" style="fill: #ea0070; fill-opacity: 0.9; stroke: #ea0070"/>
    <path d="M 825.844841 318.790446 
L 825.844841 311.28194 
L 834.867478 311.28194 
L 834.867478 318.790446 
z
" clip-path="url(#p0f25b235fb)" style="fill: #70a800; fill-opacity: 0.9; stroke: #70a800"/>
    <path d="M 839.725822 311.8761 
L 839.725822 302.544121 
L 848.748459 302.544121 
L 848.748459 311.8761 
z
" clip-path="url(#p0f25b235fb)" style="fill: #70a800; fill-opacity: 0.9; stroke: #70a800"/>
    <path d="M 853.606802 303.159586 
L 853.606802 298.442207 
L 862.62944 298.442207 
L 862.62944 303.159586 
z
" clip-path="url(#p0f25b235fb)" style="fill: #70a800; fill-opacity: 0.9; stroke: #70a800"/>
    <path d="M 867.487783 298.092453 
L 867.487783 301.307882 
L 876.51042 301.307882 
L 876.51042 298.092453 
z
" clip-path="url(#p0f25b235fb)" style="fill: #ea0070; fill-opacity: 0.9; stroke: #ea0070"/>
    <path d="M 881.368764 301.174229 
L 881.368764 247.888872 
L 890.391401 247.888872 
L 890.391401 301.174229 
z
" clip-path="url(#p0f25b235fb)" style="fill: #70a800; fill-opacity: 0.9; stroke: #70a800"/>
    <path d="M 895.249744 245.522328 
L 895.249744 235.689298 
L 904.272382 235.689298 
L 904.272382 245.522328 
z
" clip-path="url(#p0f25b235fb)" style="fill: #70a800; fill-opacity: 0.9; stroke: #70a800"/>
    <path d="M 909.130725 237.647684 
L 909.130725 230.878302 
L 918.153362 230.878302 
L 918.153362 237.647684 
z
" clip-path="url(#p0f25b235fb)" style="fill: #70a800; fill-opacity: 0.9; stroke: #70a800"/>
    <path d="M 923.011706 232.824597 
L 923.011706 229.238172 
L 932.034343 229.238172 
L 932.034343 232.824597 
z
" clip-path="url(#p0f25b235fb)" style="fill: #70a800; fill-opacity: 0.9; stroke: #70a800"/>
    <path d="M 936.892686 232.77103 
L 936.892686 227.013608 
L 945.915324 227.013608 
L 945.915324 232.77103 
z
" clip-path="url(#p0f25b235fb)" style="fill: #70a800; fill-opacity: 0.9; stroke: #70a800"/>
   </g>
   <g id="LineCollection_2">
    <path d="M 622.141449 320.399802 
L 622.141449 320.376324 
" clip-path="url(#p0f25b235fb)" style="fill: none; stroke: #ea0070"/>
    <path d="M 636.02243 320.4 
L 636.02243 320.387882 
" clip-path="url(#p0f25b235fb)" style="fill: none; stroke: #70a800"/>
    <path d="M 649.903411 320.399029 
L 649.903411 320.391514 
" clip-path="url(#p0f25b235fb)" style="fill: none; stroke: #70a800"/>
    <path d="M 663.784391 320.359677 
L 663.784391 320.275027 
" clip-path="url(#p0f25b235fb)" style="fill: none; stroke: #ea0070"/>
    <path d="M 677.665372 320.369928 
L 677.665372 320.329175 
" clip-path="url(#p0f25b235fb)" style="fill: none; stroke: #70a800"/>
    <path d="M 691.546353 314.96559 
L 691.546353 313.733555 
" clip-path="url(#p0f25b235fb)" style="fill: none; stroke: #70a800"/>
    <path d="M 705.427334 320.231393 
L 705.427334 319.684824 
" clip-path="url(#p0f25b235fb)" style="fill: none; stroke: #ea0070"/>
    <path d="M 719.308314 319.891036 
L 719.308314 319.759909 
" clip-path="url(#p0f25b235fb)" style="fill: none; stroke: #70a800"/>
    <path d="M 733.189295 314.042586 
L 733.189295 310.599529 
" clip-path="url(#p0f25b235fb)" style="fill: none; stroke: #70a800"/>
    <path d="M 747.070276 316.209146 
L 747.070276 314.799976 
" clip-path="url(#p0f25b235fb)" style="fill: none; stroke: #ea0070"/>
    <path d="M 760.951256 316.526663 
L 760.951256 316.044041 
" clip-path="url(#p0f25b235fb)" style="fill: none; stroke: #ea0070"/>
    <path d="M 774.832237 318.577989 
L 774.832237 315.508426 
" clip-path="url(#p0f25b235fb)" style="fill: none; stroke: #70a800"/>
    <path d="M 788.713218 319.363843 
L 788.713218 318.854698 
" clip-path="url(#p0f25b235fb)" style="fill: none; stroke: #ea0070"/>
    <path d="M 802.594198 319.287175 
L 802.594198 319.221653 
" clip-path="url(#p0f25b235fb)" style="fill: none; stroke: #70a800"/>
    <path d="M 816.475179 320.005616 
L 816.475179 318.664618 
" clip-path="url(#p0f25b235fb)" style="fill: none; stroke: #ea0070"/>
    <path d="M 830.35616 319.378696 
L 830.35616 318.790446 
" clip-path="url(#p0f25b235fb)" style="fill: none; stroke: #70a800"/>
    <path d="M 844.23714 315.873951 
L 844.23714 311.8761 
" clip-path="url(#p0f25b235fb)" style="fill: none; stroke: #70a800"/>
    <path d="M 858.118121 309.486191 
L 858.118121 303.159586 
" clip-path="url(#p0f25b235fb)" style="fill: none; stroke: #70a800"/>
    <path d="M 871.999102 302.55437 
L 871.999102 301.307882 
" clip-path="url(#p0f25b235fb)" style="fill: none; stroke: #ea0070"/>
    <path d="M 885.880082 307.097387 
L 885.880082 301.174229 
" clip-path="url(#p0f25b235fb)" style="fill: none; stroke: #70a800"/>
    <path d="M 899.761063 245.252626 
L 899.761063 245.522328 
" clip-path="url(#p0f25b235fb)" style="fill: none; stroke: #70a800"/>
    <path d="M 913.642044 246.873566 
L 913.642044 237.647684 
" clip-path="url(#p0f25b235fb)" style="fill: none; stroke: #70a800"/>
    <path d="M 927.523024 236.782214 
L 927.523024 232.824597 
" clip-path="url(#p0f25b235fb)" style="fill: none; stroke: #70a800"/>
    <path d="M 941.404005 232.0917 
L 941.404005 232.77103 
" clip-path="url(#p0f25b235fb)" style="fill: none; stroke: #70a800"/>
    <path d="M 622.141449 317.037507 
L 622.141449 320.365796 
" clip-path="url(#p0f25b235fb)" style="fill: none; stroke: #ea0070"/>
    <path d="M 636.02243 320.367504 
L 636.02243 320.387742 
" clip-path="url(#p0f25b235fb)" style="fill: none; stroke: #70a800"/>
    <path d="M 649.903411 319.628473 
L 649.903411 320.131684 
" clip-path="url(#p0f25b235fb)" style="fill: none; stroke: #70a800"/>
    <path d="M 663.784391 318.919255 
L 663.784391 320.216894 
" clip-path="url(#p0f25b235fb)" style="fill: none; stroke: #ea0070"/>
    <path d="M 677.665372 312.797286 
L 677.665372 314.049671 
" clip-path="url(#p0f25b235fb)" style="fill: none; stroke: #70a800"/>
    <path d="M 691.546353 260.370372 
L 691.546353 297.353246 
" clip-path="url(#p0f25b235fb)" style="fill: none; stroke: #70a800"/>
    <path d="M 705.427334 296.480943 
L 705.427334 297.341505 
" clip-path="url(#p0f25b235fb)" style="fill: none; stroke: #ea0070"/>
    <path d="M 719.308314 306.641412 
L 719.308314 310.867451 
" clip-path="url(#p0f25b235fb)" style="fill: none; stroke: #70a800"/>
    <path d="M 733.189295 306.056459 
L 733.189295 307.473353 
" clip-path="url(#p0f25b235fb)" style="fill: none; stroke: #70a800"/>
    <path d="M 747.070276 304.597549 
L 747.070276 308.667994 
" clip-path="url(#p0f25b235fb)" style="fill: none; stroke: #ea0070"/>
    <path d="M 760.951256 309.914806 
L 760.951256 315.014309 
" clip-path="url(#p0f25b235fb)" style="fill: none; stroke: #ea0070"/>
    <path d="M 774.832237 308.1527 
L 774.832237 315.274851 
" clip-path="url(#p0f25b235fb)" style="fill: none; stroke: #70a800"/>
    <path d="M 788.713218 311.225616 
L 788.713218 316.10376 
" clip-path="url(#p0f25b235fb)" style="fill: none; stroke: #ea0070"/>
    <path d="M 802.594198 313.368904 
L 802.594198 316.474577 
" clip-path="url(#p0f25b235fb)" style="fill: none; stroke: #70a800"/>
    <path d="M 816.475179 313.567101 
L 816.475179 316.467787 
" clip-path="url(#p0f25b235fb)" style="fill: none; stroke: #ea0070"/>
    <path d="M 830.35616 310.38973 
L 830.35616 311.28194 
" clip-path="url(#p0f25b235fb)" style="fill: none; stroke: #70a800"/>
    <path d="M 844.23714 300.512515 
L 844.23714 302.544121 
" clip-path="url(#p0f25b235fb)" style="fill: none; stroke: #70a800"/>
    <path d="M 858.118121 298.2086 
L 858.118121 298.442207 
" clip-path="url(#p0f25b235fb)" style="fill: none; stroke: #70a800"/>
    <path d="M 871.999102 295.29275 
L 871.999102 298.092453 
" clip-path="url(#p0f25b235fb)" style="fill: none; stroke: #ea0070"/>
    <path d="M 885.880082 243.606004 
L 885.880082 247.888872 
" clip-path="url(#p0f25b235fb)" style="fill: none; stroke: #70a800"/>
    <path d="M 899.761063 225.358688 
L 899.761063 235.689298 
" clip-path="url(#p0f25b235fb)" style="fill: none; stroke: #70a800"/>
    <path d="M 913.642044 232.418487 
L 913.642044 230.878302 
" clip-path="url(#p0f25b235fb)" style="fill: none; stroke: #70a800"/>
    <path d="M 927.523024 228.895153 
L 927.523024 229.238172 
" clip-path="url(#p0f25b235fb)" style="fill: none; stroke: #70a800"/>
    <path d="M 941.404005 226.688132 
L 941.404005 227.013608 
" clip-path="url(#p0f25b235fb)" style="fill: none; stroke: #70a800"/>
   </g>
   <g id="patch_8">
    <path d="M 591.545455 320.4 
L 591.545455 43.2 
" style="fill: none; stroke: #e6e6e6; stroke-width: 1.5; stroke-linejoin: miter; stroke-linecap: square"/>
   </g>
   <g id="patch_9">
    <path d="M 972 320.4 
L 972 43.2 
" style="fill: none; stroke: #e6e6e6; stroke-width: 1.5; stroke-linejoin: miter; stroke-linecap: square"/>
   </g>
   <g id="patch_10">
    <path d="M 591.545455 320.4 
L 972 320.4 
" style="fill: none; stroke: #e6e6e6; stroke-width: 1.5; stroke-linejoin: miter; stroke-linecap: square"/>
   </g>
   <g id="patch_11">
    <path d="M 591.545455 43.2 
L 972 43.2 
" style="fill: none; stroke: #e6e6e6; stroke-width: 1.5; stroke-linejoin: miter; stroke-linecap: square"/>
   </g>
   <g id="text_30">
    <!-- Predicted -->
    <g style="fill: #262626" transform="translate(751.357227 37.2) scale(0.144 -0.144)">
     <defs>
      <path id="ArialMT-50" d="M 494 0 
L 494 4581 
L 2222 4581 
Q 2678 4581 2919 4538 
Q 3256 4481 3484 4323 
Q 3713 4166 3852 3881 
Q 3991 3597 3991 3256 
Q 3991 2672 3619 2267 
Q 3247 1863 2275 1863 
L 1100 1863 
L 1100 0 
L 494 0 
z
M 1100 2403 
L 2284 2403 
Q 2872 2403 3119 2622 
Q 3366 2841 3366 3238 
Q 3366 3525 3220 3729 
Q 3075 3934 2838 4000 
Q 2684 4041 2272 4041 
L 1100 4041 
L 1100 2403 
z
" transform="scale(0.015625)"/>
      <path id="ArialMT-72" d="M 416 0 
L 416 3319 
L 922 3319 
L 922 2816 
Q 1116 3169 1280 3281 
Q 1444 3394 1641 3394 
Q 1925 3394 2219 3213 
L 2025 2691 
Q 1819 2813 1613 2813 
Q 1428 2813 1281 2702 
Q 1134 2591 1072 2394 
Q 978 2094 978 1738 
L 978 0 
L 416 0 
z
" transform="scale(0.015625)"/>
      <path id="ArialMT-65" d="M 2694 1069 
L 3275 997 
Q 3138 488 2766 206 
Q 2394 -75 1816 -75 
Q 1088 -75 661 373 
Q 234 822 234 1631 
Q 234 2469 665 2931 
Q 1097 3394 1784 3394 
Q 2450 3394 2872 2941 
Q 3294 2488 3294 1666 
Q 3294 1616 3291 1516 
L 816 1516 
Q 847 969 1125 678 
Q 1403 388 1819 388 
Q 2128 388 2347 550 
Q 2566 713 2694 1069 
z
M 847 1978 
L 2700 1978 
Q 2663 2397 2488 2606 
Q 2219 2931 1791 2931 
Q 1403 2931 1139 2672 
Q 875 2413 847 1978 
z
" transform="scale(0.015625)"/>
      <path id="ArialMT-64" d="M 2575 0 
L 2575 419 
Q 2259 -75 1647 -75 
Q 1250 -75 917 144 
Q 584 363 401 755 
Q 219 1147 219 1656 
Q 219 2153 384 2558 
Q 550 2963 881 3178 
Q 1213 3394 1622 3394 
Q 1922 3394 2156 3267 
Q 2391 3141 2538 2938 
L 2538 4581 
L 3097 4581 
L 3097 0 
L 2575 0 
z
M 797 1656 
Q 797 1019 1065 703 
Q 1334 388 1700 388 
Q 2069 388 2326 689 
Q 2584 991 2584 1609 
Q 2584 2291 2321 2609 
Q 2059 2928 1675 2928 
Q 1300 2928 1048 2622 
Q 797 2316 797 1656 
z
" transform="scale(0.015625)"/>
      <path id="ArialMT-69" d="M 425 3934 
L 425 4581 
L 988 4581 
L 988 3934 
L 425 3934 
z
M 425 0 
L 425 3319 
L 988 3319 
L 988 0 
L 425 0 
z
" transform="scale(0.015625)"/>
     </defs>
     <use xlink:href="#ArialMT-50"/>
     <use xlink:href="#ArialMT-72" x="66.699219"/>
     <use xlink:href="#ArialMT-65" x="100"/>
     <use xlink:href="#ArialMT-64" x="155.615234"/>
     <use xlink:href="#ArialMT-69" x="211.230469"/>
     <use xlink:href="#ArialMT-63" x="233.447266"/>
     <use xlink:href="#ArialMT-74" x="283.447266"/>
     <use xlink:href="#ArialMT-65" x="311.230469"/>
     <use xlink:href="#ArialMT-64" x="366.845703"/>
    </g>
   </g>
  </g>
  <g id="text_31">
   <!-- LSTM - AXS -->
   <g style="fill: #262626" transform="translate(491.36625 19.5687) scale(0.1728 -0.1728)">
    <defs>
     <path id="Arial-BoldMT-4c" d="M 491 0 
L 491 4544 
L 1416 4544 
L 1416 772 
L 3716 772 
L 3716 0 
L 491 0 
z
" transform="scale(0.015625)"/>
     <path id="Arial-BoldMT-53" d="M 231 1491 
L 1131 1578 
Q 1213 1125 1461 912 
Q 1709 700 2131 700 
Q 2578 700 2804 889 
Q 3031 1078 3031 1331 
Q 3031 1494 2936 1608 
Q 2841 1722 2603 1806 
Q 2441 1863 1863 2006 
Q 1119 2191 819 2459 
Q 397 2838 397 3381 
Q 397 3731 595 4036 
Q 794 4341 1167 4500 
Q 1541 4659 2069 4659 
Q 2931 4659 3367 4281 
Q 3803 3903 3825 3272 
L 2900 3231 
Q 2841 3584 2645 3739 
Q 2450 3894 2059 3894 
Q 1656 3894 1428 3728 
Q 1281 3622 1281 3444 
Q 1281 3281 1419 3166 
Q 1594 3019 2269 2859 
Q 2944 2700 3267 2529 
Q 3591 2359 3773 2064 
Q 3956 1769 3956 1334 
Q 3956 941 3737 597 
Q 3519 253 3119 86 
Q 2719 -81 2122 -81 
Q 1253 -81 787 320 
Q 322 722 231 1491 
z
" transform="scale(0.015625)"/>
     <path id="Arial-BoldMT-54" d="M 1497 0 
L 1497 3806 
L 138 3806 
L 138 4581 
L 3778 4581 
L 3778 3806 
L 2422 3806 
L 2422 0 
L 1497 0 
z
" transform="scale(0.015625)"/>
     <path id="Arial-BoldMT-4d" d="M 453 0 
L 453 4581 
L 1838 4581 
L 2669 1456 
L 3491 4581 
L 4878 4581 
L 4878 0 
L 4019 0 
L 4019 3606 
L 3109 0 
L 2219 0 
L 1313 3606 
L 1313 0 
L 453 0 
z
" transform="scale(0.015625)"/>
     <path id="Arial-BoldMT-20" transform="scale(0.015625)"/>
     <path id="Arial-BoldMT-2d" d="M 359 1222 
L 359 2100 
L 2084 2100 
L 2084 1222 
L 359 1222 
z
" transform="scale(0.015625)"/>
     <path id="Arial-BoldMT-41" d="M 4597 0 
L 3591 0 
L 3191 1041 
L 1359 1041 
L 981 0 
L 0 0 
L 1784 4581 
L 2763 4581 
L 4597 0 
z
M 2894 1813 
L 2263 3513 
L 1644 1813 
L 2894 1813 
z
" transform="scale(0.015625)"/>
     <path id="Arial-BoldMT-58" d="M 0 0 
L 1566 2391 
L 147 4581 
L 1228 4581 
L 2147 3109 
L 3047 4581 
L 4119 4581 
L 2694 2356 
L 4259 0 
L 3144 0 
L 2128 1584 
L 1109 0 
L 0 0 
z
" transform="scale(0.015625)"/>
    </defs>
    <use xlink:href="#Arial-BoldMT-4c"/>
    <use xlink:href="#Arial-BoldMT-53" x="61.083984"/>
    <use xlink:href="#Arial-BoldMT-54" x="127.783203"/>
    <use xlink:href="#Arial-BoldMT-4d" x="188.867188"/>
    <use xlink:href="#Arial-BoldMT-20" x="272.167969"/>
    <use xlink:href="#Arial-BoldMT-2d" x="299.951172"/>
    <use xlink:href="#Arial-BoldMT-20" x="333.251953"/>
    <use xlink:href="#Arial-BoldMT-41" x="357.285156"/>
    <use xlink:href="#Arial-BoldMT-58" x="429.501953"/>
    <use xlink:href="#Arial-BoldMT-53" x="496.201172"/>
   </g>
  </g>
 </g>
 <defs>
  <clipPath id="pa23c01721b">
   <rect x="135" y="43.2" width="380.454545" height="277.2"/>
  </clipPath>
  <clipPath id="p0f25b235fb">
   <rect x="591.545455" y="43.2" width="380.454545" height="277.2"/>
  </clipPath>
 </defs>
</svg>
