<?xml version="1.0" encoding="utf-8" standalone="no"?>
<!DOCTYPE svg PUBLIC "-//W3C//DTD SVG 1.1//EN"
  "http://www.w3.org/Graphics/SVG/1.1/DTD/svg11.dtd">
<svg xmlns:xlink="http://www.w3.org/1999/xlink" width="1080pt" height="360pt" viewBox="0 0 1080 360" xmlns="http://www.w3.org/2000/svg" version="1.1">
 <metadata>
  <rdf:RDF xmlns:dc="http://purl.org/dc/elements/1.1/" xmlns:cc="http://creativecommons.org/ns#" xmlns:rdf="http://www.w3.org/1999/02/22-rdf-syntax-ns#">
   <cc:Work>
    <dc:type rdf:resource="http://purl.org/dc/dcmitype/StillImage"/>
    <dc:date>2024-06-03T21:09:26.175531</dc:date>
    <dc:format>image/svg+xml</dc:format>
    <dc:creator>
     <cc:Agent>
      <dc:title>Matplotlib v3.9.0, https://matplotlib.org/</dc:title>
     </cc:Agent>
    </dc:creator>
   </cc:Work>
  </rdf:RDF>
 </metadata>
 <defs>
  <style type="text/css">*{stroke-linejoin: round; stroke-linecap: butt}</style>
 </defs>
 <g id="figure_1">
  <g id="patch_1">
   <path d="M 0 360 
L 1080 360 
L 1080 0 
L 0 0 
z
" style="fill: #ffffff"/>
  </g>
  <g id="axes_1">
   <g id="patch_2">
    <path d="M 135 320.4 
L 515.454545 320.4 
L 515.454545 43.2 
L 135 43.2 
z
" style="fill: #ffffff"/>
   </g>
   <g id="matplotlib.axis_1">
    <g id="xtick_1">
     <g id="line2d_1">
      <defs>
       <path id="m0e1858c63b" d="M 0 0 
L 0 3.5 
" style="stroke: #000000; stroke-width: 0.8"/>
      </defs>
      <g>
       <use xlink:href="#m0e1858c63b" x="165.595995" y="320.4" style="stroke: #000000; stroke-width: 0.8"/>
      </g>
     </g>
     <g id="text_1">
      <!-- 00:00 -->
      <g transform="translate(157.358201 353.15084) rotate(-45) scale(0.1 -0.1)">
       <defs>
        <path id="DejaVuSans-30" d="M 2034 4250 
Q 1547 4250 1301 3770 
Q 1056 3291 1056 2328 
Q 1056 1369 1301 889 
Q 1547 409 2034 409 
Q 2525 409 2770 889 
Q 3016 1369 3016 2328 
Q 3016 3291 2770 3770 
Q 2525 4250 2034 4250 
z
M 2034 4750 
Q 2819 4750 3233 4129 
Q 3647 3509 3647 2328 
Q 3647 1150 3233 529 
Q 2819 -91 2034 -91 
Q 1250 -91 836 529 
Q 422 1150 422 2328 
Q 422 3509 836 4129 
Q 1250 4750 2034 4750 
z
" transform="scale(0.015625)"/>
        <path id="DejaVuSans-3a" d="M 750 794 
L 1409 794 
L 1409 0 
L 750 0 
L 750 794 
z
M 750 3309 
L 1409 3309 
L 1409 2516 
L 750 2516 
L 750 3309 
z
" transform="scale(0.015625)"/>
       </defs>
       <use xlink:href="#DejaVuSans-30"/>
       <use xlink:href="#DejaVuSans-30" x="63.623047"/>
       <use xlink:href="#DejaVuSans-3a" x="127.246094"/>
       <use xlink:href="#DejaVuSans-30" x="160.9375"/>
       <use xlink:href="#DejaVuSans-30" x="224.560547"/>
      </g>
     </g>
    </g>
    <g id="xtick_2">
     <g id="line2d_2">
      <g>
       <use xlink:href="#m0e1858c63b" x="235.000898" y="320.4" style="stroke: #000000; stroke-width: 0.8"/>
      </g>
     </g>
     <g id="text_2">
      <!-- 05:00 -->
      <g transform="translate(226.763104 353.15084) rotate(-45) scale(0.1 -0.1)">
       <defs>
        <path id="DejaVuSans-35" d="M 691 4666 
L 3169 4666 
L 3169 4134 
L 1269 4134 
L 1269 2991 
Q 1406 3038 1543 3061 
Q 1681 3084 1819 3084 
Q 2600 3084 3056 2656 
Q 3513 2228 3513 1497 
Q 3513 744 3044 326 
Q 2575 -91 1722 -91 
Q 1428 -91 1123 -41 
Q 819 9 494 109 
L 494 744 
Q 775 591 1075 516 
Q 1375 441 1709 441 
Q 2250 441 2565 725 
Q 2881 1009 2881 1497 
Q 2881 1984 2565 2268 
Q 2250 2553 1709 2553 
Q 1456 2553 1204 2497 
Q 953 2441 691 2322 
L 691 4666 
z
" transform="scale(0.015625)"/>
       </defs>
       <use xlink:href="#DejaVuSans-30"/>
       <use xlink:href="#DejaVuSans-35" x="63.623047"/>
       <use xlink:href="#DejaVuSans-3a" x="127.246094"/>
       <use xlink:href="#DejaVuSans-30" x="160.9375"/>
       <use xlink:href="#DejaVuSans-30" x="224.560547"/>
      </g>
     </g>
    </g>
    <g id="xtick_3">
     <g id="line2d_3">
      <g>
       <use xlink:href="#m0e1858c63b" x="304.405802" y="320.4" style="stroke: #000000; stroke-width: 0.8"/>
      </g>
     </g>
     <g id="text_3">
      <!-- 10:00 -->
      <g transform="translate(296.168008 353.15084) rotate(-45) scale(0.1 -0.1)">
       <defs>
        <path id="DejaVuSans-31" d="M 794 531 
L 1825 531 
L 1825 4091 
L 703 3866 
L 703 4441 
L 1819 4666 
L 2450 4666 
L 2450 531 
L 3481 531 
L 3481 0 
L 794 0 
L 794 531 
z
" transform="scale(0.015625)"/>
       </defs>
       <use xlink:href="#DejaVuSans-31"/>
       <use xlink:href="#DejaVuSans-30" x="63.623047"/>
       <use xlink:href="#DejaVuSans-3a" x="127.246094"/>
       <use xlink:href="#DejaVuSans-30" x="160.9375"/>
       <use xlink:href="#DejaVuSans-30" x="224.560547"/>
      </g>
     </g>
    </g>
    <g id="xtick_4">
     <g id="line2d_4">
      <g>
       <use xlink:href="#m0e1858c63b" x="373.810705" y="320.4" style="stroke: #000000; stroke-width: 0.8"/>
      </g>
     </g>
     <g id="text_4">
      <!-- 15:00 -->
      <g transform="translate(365.572911 353.15084) rotate(-45) scale(0.1 -0.1)">
       <use xlink:href="#DejaVuSans-31"/>
       <use xlink:href="#DejaVuSans-35" x="63.623047"/>
       <use xlink:href="#DejaVuSans-3a" x="127.246094"/>
       <use xlink:href="#DejaVuSans-30" x="160.9375"/>
       <use xlink:href="#DejaVuSans-30" x="224.560547"/>
      </g>
     </g>
    </g>
    <g id="xtick_5">
     <g id="line2d_5">
      <g>
       <use xlink:href="#m0e1858c63b" x="443.215609" y="320.4" style="stroke: #000000; stroke-width: 0.8"/>
      </g>
     </g>
     <g id="text_5">
      <!-- 20:00 -->
      <g transform="translate(434.977815 353.15084) rotate(-45) scale(0.1 -0.1)">
       <defs>
        <path id="DejaVuSans-32" d="M 1228 531 
L 3431 531 
L 3431 0 
L 469 0 
L 469 531 
Q 828 903 1448 1529 
Q 2069 2156 2228 2338 
Q 2531 2678 2651 2914 
Q 2772 3150 2772 3378 
Q 2772 3750 2511 3984 
Q 2250 4219 1831 4219 
Q 1534 4219 1204 4116 
Q 875 4013 500 3803 
L 500 4441 
Q 881 4594 1212 4672 
Q 1544 4750 1819 4750 
Q 2544 4750 2975 4387 
Q 3406 4025 3406 3419 
Q 3406 3131 3298 2873 
Q 3191 2616 2906 2266 
Q 2828 2175 2409 1742 
Q 1991 1309 1228 531 
z
" transform="scale(0.015625)"/>
       </defs>
       <use xlink:href="#DejaVuSans-32"/>
       <use xlink:href="#DejaVuSans-30" x="63.623047"/>
       <use xlink:href="#DejaVuSans-3a" x="127.246094"/>
       <use xlink:href="#DejaVuSans-30" x="160.9375"/>
       <use xlink:href="#DejaVuSans-30" x="224.560547"/>
      </g>
     </g>
    </g>
    <g id="xtick_6">
     <g id="line2d_6">
      <g>
       <use xlink:href="#m0e1858c63b" x="512.620512" y="320.4" style="stroke: #000000; stroke-width: 0.8"/>
      </g>
     </g>
    </g>
   </g>
   <g id="matplotlib.axis_2">
    <g id="ytick_1">
     <g id="line2d_7">
      <defs>
       <path id="m1ab641732f" d="M 0 0 
L -3.5 0 
" style="stroke: #000000; stroke-width: 0.8"/>
      </defs>
      <g>
       <use xlink:href="#m1ab641732f" x="135" y="305.78722" style="stroke: #000000; stroke-width: 0.8"/>
      </g>
     </g>
     <g id="text_6">
      <!-- 7.0 -->
      <g transform="translate(112.096875 309.586439) scale(0.1 -0.1)">
       <defs>
        <path id="DejaVuSans-37" d="M 525 4666 
L 3525 4666 
L 3525 4397 
L 1831 0 
L 1172 0 
L 2766 4134 
L 525 4134 
L 525 4666 
z
" transform="scale(0.015625)"/>
        <path id="DejaVuSans-2e" d="M 684 794 
L 1344 794 
L 1344 0 
L 684 0 
L 684 794 
z
" transform="scale(0.015625)"/>
       </defs>
       <use xlink:href="#DejaVuSans-37"/>
       <use xlink:href="#DejaVuSans-2e" x="63.623047"/>
       <use xlink:href="#DejaVuSans-30" x="95.410156"/>
      </g>
     </g>
    </g>
    <g id="ytick_2">
     <g id="line2d_8">
      <g>
       <use xlink:href="#m1ab641732f" x="135" y="246.745687" style="stroke: #000000; stroke-width: 0.8"/>
      </g>
     </g>
     <g id="text_7">
      <!-- 7.2 -->
      <g transform="translate(112.096875 250.544906) scale(0.1 -0.1)">
       <use xlink:href="#DejaVuSans-37"/>
       <use xlink:href="#DejaVuSans-2e" x="63.623047"/>
       <use xlink:href="#DejaVuSans-32" x="95.410156"/>
      </g>
     </g>
    </g>
    <g id="ytick_3">
     <g id="line2d_9">
      <g>
       <use xlink:href="#m1ab641732f" x="135" y="187.704153" style="stroke: #000000; stroke-width: 0.8"/>
      </g>
     </g>
     <g id="text_8">
      <!-- 7.4 -->
      <g transform="translate(112.096875 191.503372) scale(0.1 -0.1)">
       <defs>
        <path id="DejaVuSans-34" d="M 2419 4116 
L 825 1625 
L 2419 1625 
L 2419 4116 
z
M 2253 4666 
L 3047 4666 
L 3047 1625 
L 3713 1625 
L 3713 1100 
L 3047 1100 
L 3047 0 
L 2419 0 
L 2419 1100 
L 313 1100 
L 313 1709 
L 2253 4666 
z
" transform="scale(0.015625)"/>
       </defs>
       <use xlink:href="#DejaVuSans-37"/>
       <use xlink:href="#DejaVuSans-2e" x="63.623047"/>
       <use xlink:href="#DejaVuSans-34" x="95.410156"/>
      </g>
     </g>
    </g>
    <g id="ytick_4">
     <g id="line2d_10">
      <g>
       <use xlink:href="#m1ab641732f" x="135" y="128.66262" style="stroke: #000000; stroke-width: 0.8"/>
      </g>
     </g>
     <g id="text_9">
      <!-- 7.6 -->
      <g transform="translate(112.096875 132.461839) scale(0.1 -0.1)">
       <defs>
        <path id="DejaVuSans-36" d="M 2113 2584 
Q 1688 2584 1439 2293 
Q 1191 2003 1191 1497 
Q 1191 994 1439 701 
Q 1688 409 2113 409 
Q 2538 409 2786 701 
Q 3034 994 3034 1497 
Q 3034 2003 2786 2293 
Q 2538 2584 2113 2584 
z
M 3366 4563 
L 3366 3988 
Q 3128 4100 2886 4159 
Q 2644 4219 2406 4219 
Q 1781 4219 1451 3797 
Q 1122 3375 1075 2522 
Q 1259 2794 1537 2939 
Q 1816 3084 2150 3084 
Q 2853 3084 3261 2657 
Q 3669 2231 3669 1497 
Q 3669 778 3244 343 
Q 2819 -91 2113 -91 
Q 1303 -91 875 529 
Q 447 1150 447 2328 
Q 447 3434 972 4092 
Q 1497 4750 2381 4750 
Q 2619 4750 2861 4703 
Q 3103 4656 3366 4563 
z
" transform="scale(0.015625)"/>
       </defs>
       <use xlink:href="#DejaVuSans-37"/>
       <use xlink:href="#DejaVuSans-2e" x="63.623047"/>
       <use xlink:href="#DejaVuSans-36" x="95.410156"/>
      </g>
     </g>
    </g>
    <g id="ytick_5">
     <g id="line2d_11">
      <g>
       <use xlink:href="#m1ab641732f" x="135" y="69.621086" style="stroke: #000000; stroke-width: 0.8"/>
      </g>
     </g>
     <g id="text_10">
      <!-- 7.8 -->
      <g transform="translate(112.096875 73.420305) scale(0.1 -0.1)">
       <defs>
        <path id="DejaVuSans-38" d="M 2034 2216 
Q 1584 2216 1326 1975 
Q 1069 1734 1069 1313 
Q 1069 891 1326 650 
Q 1584 409 2034 409 
Q 2484 409 2743 651 
Q 3003 894 3003 1313 
Q 3003 1734 2745 1975 
Q 2488 2216 2034 2216 
z
M 1403 2484 
Q 997 2584 770 2862 
Q 544 3141 544 3541 
Q 544 4100 942 4425 
Q 1341 4750 2034 4750 
Q 2731 4750 3128 4425 
Q 3525 4100 3525 3541 
Q 3525 3141 3298 2862 
Q 3072 2584 2669 2484 
Q 3125 2378 3379 2068 
Q 3634 1759 3634 1313 
Q 3634 634 3220 271 
Q 2806 -91 2034 -91 
Q 1263 -91 848 271 
Q 434 634 434 1313 
Q 434 1759 690 2068 
Q 947 2378 1403 2484 
z
M 1172 3481 
Q 1172 3119 1398 2916 
Q 1625 2713 2034 2713 
Q 2441 2713 2670 2916 
Q 2900 3119 2900 3481 
Q 2900 3844 2670 4047 
Q 2441 4250 2034 4250 
Q 1625 4250 1398 4047 
Q 1172 3844 1172 3481 
z
" transform="scale(0.015625)"/>
       </defs>
       <use xlink:href="#DejaVuSans-37"/>
       <use xlink:href="#DejaVuSans-2e" x="63.623047"/>
       <use xlink:href="#DejaVuSans-38" x="95.410156"/>
      </g>
     </g>
    </g>
    <g id="text_11">
     <!-- Price -->
     <g transform="translate(106.017187 193.997656) rotate(-90) scale(0.1 -0.1)">
      <defs>
       <path id="DejaVuSans-50" d="M 1259 4147 
L 1259 2394 
L 2053 2394 
Q 2494 2394 2734 2622 
Q 2975 2850 2975 3272 
Q 2975 3691 2734 3919 
Q 2494 4147 2053 4147 
L 1259 4147 
z
M 628 4666 
L 2053 4666 
Q 2838 4666 3239 4311 
Q 3641 3956 3641 3272 
Q 3641 2581 3239 2228 
Q 2838 1875 2053 1875 
L 1259 1875 
L 1259 0 
L 628 0 
L 628 4666 
z
" transform="scale(0.015625)"/>
       <path id="DejaVuSans-72" d="M 2631 2963 
Q 2534 3019 2420 3045 
Q 2306 3072 2169 3072 
Q 1681 3072 1420 2755 
Q 1159 2438 1159 1844 
L 1159 0 
L 581 0 
L 581 3500 
L 1159 3500 
L 1159 2956 
Q 1341 3275 1631 3429 
Q 1922 3584 2338 3584 
Q 2397 3584 2469 3576 
Q 2541 3569 2628 3553 
L 2631 2963 
z
" transform="scale(0.015625)"/>
       <path id="DejaVuSans-69" d="M 603 3500 
L 1178 3500 
L 1178 0 
L 603 0 
L 603 3500 
z
M 603 4863 
L 1178 4863 
L 1178 4134 
L 603 4134 
L 603 4863 
z
" transform="scale(0.015625)"/>
       <path id="DejaVuSans-63" d="M 3122 3366 
L 3122 2828 
Q 2878 2963 2633 3030 
Q 2388 3097 2138 3097 
Q 1578 3097 1268 2742 
Q 959 2388 959 1747 
Q 959 1106 1268 751 
Q 1578 397 2138 397 
Q 2388 397 2633 464 
Q 2878 531 3122 666 
L 3122 134 
Q 2881 22 2623 -34 
Q 2366 -91 2075 -91 
Q 1284 -91 818 406 
Q 353 903 353 1747 
Q 353 2603 823 3093 
Q 1294 3584 2113 3584 
Q 2378 3584 2631 3529 
Q 2884 3475 3122 3366 
z
" transform="scale(0.015625)"/>
       <path id="DejaVuSans-65" d="M 3597 1894 
L 3597 1613 
L 953 1613 
Q 991 1019 1311 708 
Q 1631 397 2203 397 
Q 2534 397 2845 478 
Q 3156 559 3463 722 
L 3463 178 
Q 3153 47 2828 -22 
Q 2503 -91 2169 -91 
Q 1331 -91 842 396 
Q 353 884 353 1716 
Q 353 2575 817 3079 
Q 1281 3584 2069 3584 
Q 2775 3584 3186 3129 
Q 3597 2675 3597 1894 
z
M 3022 2063 
Q 3016 2534 2758 2815 
Q 2500 3097 2075 3097 
Q 1594 3097 1305 2825 
Q 1016 2553 972 2059 
L 3022 2063 
z
" transform="scale(0.015625)"/>
      </defs>
      <use xlink:href="#DejaVuSans-50"/>
      <use xlink:href="#DejaVuSans-72" x="58.552734"/>
      <use xlink:href="#DejaVuSans-69" x="99.666016"/>
      <use xlink:href="#DejaVuSans-63" x="127.449219"/>
      <use xlink:href="#DejaVuSans-65" x="182.429688"/>
     </g>
    </g>
   </g>
   <g id="PolyCollection_1">
    <path d="M 161.084676 284.97508 
L 161.084676 290.879233 
L 170.107314 290.879233 
L 170.107314 284.97508 
z
" clip-path="url(#pcfe3a5af95)" style="fill: #ea0070; fill-opacity: 0.9; stroke: #ea0070"/>
    <path d="M 174.965657 290.879233 
L 174.965657 295.012141 
L 183.988294 295.012141 
L 183.988294 290.879233 
z
" clip-path="url(#pcfe3a5af95)" style="fill: #ea0070; fill-opacity: 0.9; stroke: #ea0070"/>
    <path d="M 188.846638 295.012141 
L 188.846638 274.642812 
L 197.869275 274.642812 
L 197.869275 295.012141 
z
" clip-path="url(#pcfe3a5af95)" style="fill: #70a800; fill-opacity: 0.9; stroke: #70a800"/>
    <path d="M 202.727618 274.642812 
L 202.727618 279.661342 
L 211.750256 279.661342 
L 211.750256 274.642812 
z
" clip-path="url(#pcfe3a5af95)" style="fill: #ea0070; fill-opacity: 0.9; stroke: #ea0070"/>
    <path d="M 216.608599 279.661342 
L 216.608599 249.402556 
L 225.631236 249.402556 
L 225.631236 279.661342 
z
" clip-path="url(#pcfe3a5af95)" style="fill: #70a800; fill-opacity: 0.9; stroke: #70a800"/>
    <path d="M 230.48958 249.402556 
L 230.48958 213.830032 
L 239.512217 213.830032 
L 239.512217 249.402556 
z
" clip-path="url(#pcfe3a5af95)" style="fill: #70a800; fill-opacity: 0.9; stroke: #70a800"/>
    <path d="M 244.37056 213.830032 
L 244.37056 266.081789 
L 253.393198 266.081789 
L 253.393198 213.830032 
z
" clip-path="url(#pcfe3a5af95)" style="fill: #ea0070; fill-opacity: 0.9; stroke: #ea0070"/>
    <path d="M 258.251541 266.081789 
L 258.251541 241.136741 
L 267.274178 241.136741 
L 267.274178 266.081789 
z
" clip-path="url(#pcfe3a5af95)" style="fill: #70a800; fill-opacity: 0.9; stroke: #70a800"/>
    <path d="M 272.132522 241.136741 
L 272.132522 238.627476 
L 281.155159 238.627476 
L 281.155159 241.136741 
z
" clip-path="url(#pcfe3a5af95)" style="fill: #70a800; fill-opacity: 0.9; stroke: #70a800"/>
    <path d="M 286.013502 238.627476 
L 286.013502 249.55016 
L 295.03614 249.55016 
L 295.03614 238.627476 
z
" clip-path="url(#pcfe3a5af95)" style="fill: #ea0070; fill-opacity: 0.9; stroke: #ea0070"/>
    <path d="M 299.894483 249.402556 
L 299.894483 250.73099 
L 308.91712 250.73099 
L 308.91712 249.402556 
z
" clip-path="url(#pcfe3a5af95)" style="fill: #ea0070; fill-opacity: 0.9; stroke: #ea0070"/>
    <path d="M 313.775464 250.583387 
L 313.775464 251.026198 
L 322.798101 251.026198 
L 322.798101 250.583387 
z
" clip-path="url(#pcfe3a5af95)" style="fill: #ea0070; fill-opacity: 0.9; stroke: #ea0070"/>
    <path d="M 327.656444 250.878594 
L 327.656444 260.768051 
L 336.679082 260.768051 
L 336.679082 250.878594 
z
" clip-path="url(#pcfe3a5af95)" style="fill: #ea0070; fill-opacity: 0.9; stroke: #ea0070"/>
    <path d="M 341.537425 260.768051 
L 341.537425 252.354633 
L 350.560062 252.354633 
L 350.560062 260.768051 
z
" clip-path="url(#pcfe3a5af95)" style="fill: #70a800; fill-opacity: 0.9; stroke: #70a800"/>
    <path d="M 355.418406 252.354633 
L 355.418406 259.144409 
L 364.441043 259.144409 
L 364.441043 252.354633 
z
" clip-path="url(#pcfe3a5af95)" style="fill: #ea0070; fill-opacity: 0.9; stroke: #ea0070"/>
    <path d="M 369.299386 259.144409 
L 369.299386 243.646006 
L 378.322024 243.646006 
L 378.322024 259.144409 
z
" clip-path="url(#pcfe3a5af95)" style="fill: #70a800; fill-opacity: 0.9; stroke: #70a800"/>
    <path d="M 383.180367 243.646006 
L 383.180367 227.409585 
L 392.203005 227.409585 
L 392.203005 243.646006 
z
" clip-path="url(#pcfe3a5af95)" style="fill: #70a800; fill-opacity: 0.9; stroke: #70a800"/>
    <path d="M 397.061348 227.409585 
L 397.061348 215.748882 
L 406.083985 215.748882 
L 406.083985 227.409585 
z
" clip-path="url(#pcfe3a5af95)" style="fill: #70a800; fill-opacity: 0.9; stroke: #70a800"/>
    <path d="M 410.942328 215.748882 
L 410.942328 221.210224 
L 419.964966 221.210224 
L 419.964966 215.748882 
z
" clip-path="url(#pcfe3a5af95)" style="fill: #ea0070; fill-opacity: 0.9; stroke: #ea0070"/>
    <path d="M 424.823309 221.210224 
L 424.823309 101.060703 
L 433.845947 101.060703 
L 433.845947 221.210224 
z
" clip-path="url(#pcfe3a5af95)" style="fill: #70a800; fill-opacity: 0.9; stroke: #70a800"/>
    <path d="M 438.70429 101.060703 
L 438.70429 73.163578 
L 447.726927 73.163578 
L 447.726927 101.060703 
z
" clip-path="url(#pcfe3a5af95)" style="fill: #70a800; fill-opacity: 0.9; stroke: #70a800"/>
    <path d="M 452.58527 73.163578 
L 452.58527 61.502875 
L 461.607908 61.502875 
L 461.607908 73.163578 
z
" clip-path="url(#pcfe3a5af95)" style="fill: #70a800; fill-opacity: 0.9; stroke: #70a800"/>
    <path d="M 466.466251 61.502875 
L 466.466251 59.584026 
L 475.488889 59.584026 
L 475.488889 61.502875 
z
" clip-path="url(#pcfe3a5af95)" style="fill: #70a800; fill-opacity: 0.9; stroke: #70a800"/>
    <path d="M 480.347232 59.584026 
L 480.347232 53.827476 
L 489.369869 53.827476 
L 489.369869 59.584026 
z
" clip-path="url(#pcfe3a5af95)" style="fill: #70a800; fill-opacity: 0.9; stroke: #70a800"/>
   </g>
   <g id="LineCollection_1">
    <path d="M 165.595995 301.506709 
L 165.595995 290.879233 
" clip-path="url(#pcfe3a5af95)" style="fill: none; stroke: #ea0070"/>
    <path d="M 179.476976 320.4 
L 179.476976 295.012141 
" clip-path="url(#pcfe3a5af95)" style="fill: none; stroke: #ea0070"/>
    <path d="M 193.357956 295.454952 
L 193.357956 295.012141 
" clip-path="url(#pcfe3a5af95)" style="fill: none; stroke: #70a800"/>
    <path d="M 207.238937 279.661342 
L 207.238937 279.661342 
" clip-path="url(#pcfe3a5af95)" style="fill: none; stroke: #ea0070"/>
    <path d="M 221.119918 281.284984 
L 221.119918 279.661342 
" clip-path="url(#pcfe3a5af95)" style="fill: none; stroke: #70a800"/>
    <path d="M 235.000898 250.73099 
L 235.000898 249.402556 
" clip-path="url(#pcfe3a5af95)" style="fill: none; stroke: #70a800"/>
    <path d="M 248.881879 273.314377 
L 248.881879 266.081789 
" clip-path="url(#pcfe3a5af95)" style="fill: none; stroke: #ea0070"/>
    <path d="M 262.76286 268.886262 
L 262.76286 266.081789 
" clip-path="url(#pcfe3a5af95)" style="fill: none; stroke: #70a800"/>
    <path d="M 276.64384 248.074121 
L 276.64384 241.136741 
" clip-path="url(#pcfe3a5af95)" style="fill: none; stroke: #70a800"/>
    <path d="M 290.524821 252.502236 
L 290.524821 249.55016 
" clip-path="url(#pcfe3a5af95)" style="fill: none; stroke: #ea0070"/>
    <path d="M 304.405802 252.797444 
L 304.405802 250.73099 
" clip-path="url(#pcfe3a5af95)" style="fill: none; stroke: #ea0070"/>
    <path d="M 318.286782 258.996805 
L 318.286782 251.026198 
" clip-path="url(#pcfe3a5af95)" style="fill: none; stroke: #ea0070"/>
    <path d="M 332.167763 262.539297 
L 332.167763 260.768051 
" clip-path="url(#pcfe3a5af95)" style="fill: none; stroke: #ea0070"/>
    <path d="M 346.048744 261.948882 
L 346.048744 260.768051 
" clip-path="url(#pcfe3a5af95)" style="fill: none; stroke: #70a800"/>
    <path d="M 359.929724 268.44345 
L 359.929724 259.144409 
" clip-path="url(#pcfe3a5af95)" style="fill: none; stroke: #ea0070"/>
    <path d="M 373.810705 262.982109 
L 373.810705 259.144409 
" clip-path="url(#pcfe3a5af95)" style="fill: none; stroke: #70a800"/>
    <path d="M 387.691686 250.878594 
L 387.691686 243.646006 
" clip-path="url(#pcfe3a5af95)" style="fill: none; stroke: #70a800"/>
    <path d="M 401.572666 239.513099 
L 401.572666 227.409585 
" clip-path="url(#pcfe3a5af95)" style="fill: none; stroke: #70a800"/>
    <path d="M 415.453647 224.1623 
L 415.453647 221.210224 
" clip-path="url(#pcfe3a5af95)" style="fill: none; stroke: #ea0070"/>
    <path d="M 429.334628 234.199361 
L 429.334628 221.210224 
" clip-path="url(#pcfe3a5af95)" style="fill: none; stroke: #70a800"/>
    <path d="M 443.215609 101.208307 
L 443.215609 101.060703 
" clip-path="url(#pcfe3a5af95)" style="fill: none; stroke: #70a800"/>
    <path d="M 457.096589 99.879872 
L 457.096589 73.163578 
" clip-path="url(#pcfe3a5af95)" style="fill: none; stroke: #70a800"/>
    <path d="M 470.97757 74.639617 
L 470.97757 61.502875 
" clip-path="url(#pcfe3a5af95)" style="fill: none; stroke: #70a800"/>
    <path d="M 484.858551 68.292652 
L 484.858551 59.584026 
" clip-path="url(#pcfe3a5af95)" style="fill: none; stroke: #70a800"/>
    <path d="M 165.595995 280.399361 
L 165.595995 284.97508 
" clip-path="url(#pcfe3a5af95)" style="fill: none; stroke: #ea0070"/>
    <path d="M 179.476976 286.598722 
L 179.476976 290.879233 
" clip-path="url(#pcfe3a5af95)" style="fill: none; stroke: #ea0070"/>
    <path d="M 193.357956 270.657508 
L 193.357956 274.642812 
" clip-path="url(#pcfe3a5af95)" style="fill: none; stroke: #70a800"/>
    <path d="M 207.238937 269.771885 
L 207.238937 274.642812 
" clip-path="url(#pcfe3a5af95)" style="fill: none; stroke: #ea0070"/>
    <path d="M 221.119918 243.646006 
L 221.119918 249.402556 
" clip-path="url(#pcfe3a5af95)" style="fill: none; stroke: #70a800"/>
    <path d="M 235.000898 197.59361 
L 235.000898 213.830032 
" clip-path="url(#pcfe3a5af95)" style="fill: none; stroke: #70a800"/>
    <path d="M 248.881879 213.830032 
L 248.881879 213.830032 
" clip-path="url(#pcfe3a5af95)" style="fill: none; stroke: #ea0070"/>
    <path d="M 262.76286 232.280511 
L 262.76286 241.136741 
" clip-path="url(#pcfe3a5af95)" style="fill: none; stroke: #70a800"/>
    <path d="M 276.64384 234.494569 
L 276.64384 238.627476 
" clip-path="url(#pcfe3a5af95)" style="fill: none; stroke: #70a800"/>
    <path d="M 290.524821 237.151438 
L 290.524821 238.627476 
" clip-path="url(#pcfe3a5af95)" style="fill: none; stroke: #ea0070"/>
    <path d="M 304.405802 240.398722 
L 304.405802 249.402556 
" clip-path="url(#pcfe3a5af95)" style="fill: none; stroke: #ea0070"/>
    <path d="M 318.286782 237.446645 
L 318.286782 250.583387 
" clip-path="url(#pcfe3a5af95)" style="fill: none; stroke: #ea0070"/>
    <path d="M 332.167763 243.055591 
L 332.167763 250.878594 
" clip-path="url(#pcfe3a5af95)" style="fill: none; stroke: #ea0070"/>
    <path d="M 346.048744 247.778914 
L 346.048744 252.354633 
" clip-path="url(#pcfe3a5af95)" style="fill: none; stroke: #70a800"/>
    <path d="M 359.929724 251.46901 
L 359.929724 252.354633 
" clip-path="url(#pcfe3a5af95)" style="fill: none; stroke: #ea0070"/>
    <path d="M 373.810705 239.955911 
L 373.810705 243.646006 
" clip-path="url(#pcfe3a5af95)" style="fill: none; stroke: #70a800"/>
    <path d="M 387.691686 220.915016 
L 387.691686 227.409585 
" clip-path="url(#pcfe3a5af95)" style="fill: none; stroke: #70a800"/>
    <path d="M 401.572666 215.748882 
L 401.572666 215.748882 
" clip-path="url(#pcfe3a5af95)" style="fill: none; stroke: #70a800"/>
    <path d="M 415.453647 209.254313 
L 415.453647 215.748882 
" clip-path="url(#pcfe3a5af95)" style="fill: none; stroke: #ea0070"/>
    <path d="M 429.334628 88.661981 
L 429.334628 101.060703 
" clip-path="url(#pcfe3a5af95)" style="fill: none; stroke: #70a800"/>
    <path d="M 443.215609 43.2 
L 443.215609 73.163578 
" clip-path="url(#pcfe3a5af95)" style="fill: none; stroke: #70a800"/>
    <path d="M 457.096589 61.502875 
L 457.096589 61.502875 
" clip-path="url(#pcfe3a5af95)" style="fill: none; stroke: #70a800"/>
    <path d="M 470.97757 52.351438 
L 470.97757 59.584026 
" clip-path="url(#pcfe3a5af95)" style="fill: none; stroke: #70a800"/>
    <path d="M 484.858551 47.923323 
L 484.858551 53.827476 
" clip-path="url(#pcfe3a5af95)" style="fill: none; stroke: #70a800"/>
   </g>
   <g id="patch_3">
    <path d="M 135 320.4 
L 135 43.2 
" style="fill: none; stroke: #000000; stroke-width: 0.8; stroke-linejoin: miter; stroke-linecap: square"/>
   </g>
   <g id="patch_4">
    <path d="M 515.454545 320.4 
L 515.454545 43.2 
" style="fill: none; stroke: #000000; stroke-width: 0.8; stroke-linejoin: miter; stroke-linecap: square"/>
   </g>
   <g id="patch_5">
    <path d="M 135 320.4 
L 515.454545 320.4 
" style="fill: none; stroke: #000000; stroke-width: 0.8; stroke-linejoin: miter; stroke-linecap: square"/>
   </g>
   <g id="patch_6">
    <path d="M 135 43.2 
L 515.454545 43.2 
" style="fill: none; stroke: #000000; stroke-width: 0.8; stroke-linejoin: miter; stroke-linecap: square"/>
   </g>
   <g id="text_12">
    <!-- Actual -->
    <g transform="translate(306.430398 37.2) scale(0.12 -0.12)">
     <defs>
      <path id="DejaVuSans-41" d="M 2188 4044 
L 1331 1722 
L 3047 1722 
L 2188 4044 
z
M 1831 4666 
L 2547 4666 
L 4325 0 
L 3669 0 
L 3244 1197 
L 1141 1197 
L 716 0 
L 50 0 
L 1831 4666 
z
" transform="scale(0.015625)"/>
      <path id="DejaVuSans-74" d="M 1172 4494 
L 1172 3500 
L 2356 3500 
L 2356 3053 
L 1172 3053 
L 1172 1153 
Q 1172 725 1289 603 
Q 1406 481 1766 481 
L 2356 481 
L 2356 0 
L 1766 0 
Q 1100 0 847 248 
Q 594 497 594 1153 
L 594 3053 
L 172 3053 
L 172 3500 
L 594 3500 
L 594 4494 
L 1172 4494 
z
" transform="scale(0.015625)"/>
      <path id="DejaVuSans-75" d="M 544 1381 
L 544 3500 
L 1119 3500 
L 1119 1403 
Q 1119 906 1312 657 
Q 1506 409 1894 409 
Q 2359 409 2629 706 
Q 2900 1003 2900 1516 
L 2900 3500 
L 3475 3500 
L 3475 0 
L 2900 0 
L 2900 538 
Q 2691 219 2414 64 
Q 2138 -91 1772 -91 
Q 1169 -91 856 284 
Q 544 659 544 1381 
z
M 1991 3584 
L 1991 3584 
z
" transform="scale(0.015625)"/>
      <path id="DejaVuSans-61" d="M 2194 1759 
Q 1497 1759 1228 1600 
Q 959 1441 959 1056 
Q 959 750 1161 570 
Q 1363 391 1709 391 
Q 2188 391 2477 730 
Q 2766 1069 2766 1631 
L 2766 1759 
L 2194 1759 
z
M 3341 1997 
L 3341 0 
L 2766 0 
L 2766 531 
Q 2569 213 2275 61 
Q 1981 -91 1556 -91 
Q 1019 -91 701 211 
Q 384 513 384 1019 
Q 384 1609 779 1909 
Q 1175 2209 1959 2209 
L 2766 2209 
L 2766 2266 
Q 2766 2663 2505 2880 
Q 2244 3097 1772 3097 
Q 1472 3097 1187 3025 
Q 903 2953 641 2809 
L 641 3341 
Q 956 3463 1253 3523 
Q 1550 3584 1831 3584 
Q 2591 3584 2966 3190 
Q 3341 2797 3341 1997 
z
" transform="scale(0.015625)"/>
      <path id="DejaVuSans-6c" d="M 603 4863 
L 1178 4863 
L 1178 0 
L 603 0 
L 603 4863 
z
" transform="scale(0.015625)"/>
     </defs>
     <use xlink:href="#DejaVuSans-41"/>
     <use xlink:href="#DejaVuSans-63" x="66.658203"/>
     <use xlink:href="#DejaVuSans-74" x="121.638672"/>
     <use xlink:href="#DejaVuSans-75" x="160.847656"/>
     <use xlink:href="#DejaVuSans-61" x="224.226562"/>
     <use xlink:href="#DejaVuSans-6c" x="285.505859"/>
    </g>
   </g>
  </g>
  <g id="axes_2">
   <g id="patch_7">
    <path d="M 591.545455 320.4 
L 972 320.4 
L 972 43.2 
L 591.545455 43.2 
z
" style="fill: #ffffff"/>
   </g>
   <g id="matplotlib.axis_3">
    <g id="xtick_7">
     <g id="line2d_12">
      <g>
       <use xlink:href="#m0e1858c63b" x="622.141449" y="320.4" style="stroke: #000000; stroke-width: 0.8"/>
      </g>
     </g>
     <g id="text_13">
      <!-- 00:00 -->
      <g transform="translate(613.903655 353.15084) rotate(-45) scale(0.1 -0.1)">
       <use xlink:href="#DejaVuSans-30"/>
       <use xlink:href="#DejaVuSans-30" x="63.623047"/>
       <use xlink:href="#DejaVuSans-3a" x="127.246094"/>
       <use xlink:href="#DejaVuSans-30" x="160.9375"/>
       <use xlink:href="#DejaVuSans-30" x="224.560547"/>
      </g>
     </g>
    </g>
    <g id="xtick_8">
     <g id="line2d_13">
      <g>
       <use xlink:href="#m0e1858c63b" x="691.546353" y="320.4" style="stroke: #000000; stroke-width: 0.8"/>
      </g>
     </g>
     <g id="text_14">
      <!-- 05:00 -->
      <g transform="translate(683.308559 353.15084) rotate(-45) scale(0.1 -0.1)">
       <use xlink:href="#DejaVuSans-30"/>
       <use xlink:href="#DejaVuSans-35" x="63.623047"/>
       <use xlink:href="#DejaVuSans-3a" x="127.246094"/>
       <use xlink:href="#DejaVuSans-30" x="160.9375"/>
       <use xlink:href="#DejaVuSans-30" x="224.560547"/>
      </g>
     </g>
    </g>
    <g id="xtick_9">
     <g id="line2d_14">
      <g>
       <use xlink:href="#m0e1858c63b" x="760.951256" y="320.4" style="stroke: #000000; stroke-width: 0.8"/>
      </g>
     </g>
     <g id="text_15">
      <!-- 10:00 -->
      <g transform="translate(752.713462 353.15084) rotate(-45) scale(0.1 -0.1)">
       <use xlink:href="#DejaVuSans-31"/>
       <use xlink:href="#DejaVuSans-30" x="63.623047"/>
       <use xlink:href="#DejaVuSans-3a" x="127.246094"/>
       <use xlink:href="#DejaVuSans-30" x="160.9375"/>
       <use xlink:href="#DejaVuSans-30" x="224.560547"/>
      </g>
     </g>
    </g>
    <g id="xtick_10">
     <g id="line2d_15">
      <g>
       <use xlink:href="#m0e1858c63b" x="830.35616" y="320.4" style="stroke: #000000; stroke-width: 0.8"/>
      </g>
     </g>
     <g id="text_16">
      <!-- 15:00 -->
      <g transform="translate(822.118366 353.15084) rotate(-45) scale(0.1 -0.1)">
       <use xlink:href="#DejaVuSans-31"/>
       <use xlink:href="#DejaVuSans-35" x="63.623047"/>
       <use xlink:href="#DejaVuSans-3a" x="127.246094"/>
       <use xlink:href="#DejaVuSans-30" x="160.9375"/>
       <use xlink:href="#DejaVuSans-30" x="224.560547"/>
      </g>
     </g>
    </g>
    <g id="xtick_11">
     <g id="line2d_16">
      <g>
       <use xlink:href="#m0e1858c63b" x="899.761063" y="320.4" style="stroke: #000000; stroke-width: 0.8"/>
      </g>
     </g>
     <g id="text_17">
      <!-- 20:00 -->
      <g transform="translate(891.523269 353.15084) rotate(-45) scale(0.1 -0.1)">
       <use xlink:href="#DejaVuSans-32"/>
       <use xlink:href="#DejaVuSans-30" x="63.623047"/>
       <use xlink:href="#DejaVuSans-3a" x="127.246094"/>
       <use xlink:href="#DejaVuSans-30" x="160.9375"/>
       <use xlink:href="#DejaVuSans-30" x="224.560547"/>
      </g>
     </g>
    </g>
    <g id="xtick_12">
     <g id="line2d_17">
      <g>
       <use xlink:href="#m0e1858c63b" x="969.165966" y="320.4" style="stroke: #000000; stroke-width: 0.8"/>
      </g>
     </g>
    </g>
   </g>
   <g id="matplotlib.axis_4">
    <g id="ytick_6">
     <g id="line2d_18">
      <g>
       <use xlink:href="#m1ab641732f" x="591.545455" y="305.78722" style="stroke: #000000; stroke-width: 0.8"/>
      </g>
     </g>
     <g id="text_18">
      <!-- 7.0 -->
      <g transform="translate(568.64233 309.586439) scale(0.1 -0.1)">
       <use xlink:href="#DejaVuSans-37"/>
       <use xlink:href="#DejaVuSans-2e" x="63.623047"/>
       <use xlink:href="#DejaVuSans-30" x="95.410156"/>
      </g>
     </g>
    </g>
    <g id="ytick_7">
     <g id="line2d_19">
      <g>
       <use xlink:href="#m1ab641732f" x="591.545455" y="246.745687" style="stroke: #000000; stroke-width: 0.8"/>
      </g>
     </g>
     <g id="text_19">
      <!-- 7.2 -->
      <g transform="translate(568.64233 250.544906) scale(0.1 -0.1)">
       <use xlink:href="#DejaVuSans-37"/>
       <use xlink:href="#DejaVuSans-2e" x="63.623047"/>
       <use xlink:href="#DejaVuSans-32" x="95.410156"/>
      </g>
     </g>
    </g>
    <g id="ytick_8">
     <g id="line2d_20">
      <g>
       <use xlink:href="#m1ab641732f" x="591.545455" y="187.704153" style="stroke: #000000; stroke-width: 0.8"/>
      </g>
     </g>
     <g id="text_20">
      <!-- 7.4 -->
      <g transform="translate(568.64233 191.503372) scale(0.1 -0.1)">
       <use xlink:href="#DejaVuSans-37"/>
       <use xlink:href="#DejaVuSans-2e" x="63.623047"/>
       <use xlink:href="#DejaVuSans-34" x="95.410156"/>
      </g>
     </g>
    </g>
    <g id="ytick_9">
     <g id="line2d_21">
      <g>
       <use xlink:href="#m1ab641732f" x="591.545455" y="128.66262" style="stroke: #000000; stroke-width: 0.8"/>
      </g>
     </g>
     <g id="text_21">
      <!-- 7.6 -->
      <g transform="translate(568.64233 132.461839) scale(0.1 -0.1)">
       <use xlink:href="#DejaVuSans-37"/>
       <use xlink:href="#DejaVuSans-2e" x="63.623047"/>
       <use xlink:href="#DejaVuSans-36" x="95.410156"/>
      </g>
     </g>
    </g>
    <g id="ytick_10">
     <g id="line2d_22">
      <g>
       <use xlink:href="#m1ab641732f" x="591.545455" y="69.621086" style="stroke: #000000; stroke-width: 0.8"/>
      </g>
     </g>
     <g id="text_22">
      <!-- 7.8 -->
      <g transform="translate(568.64233 73.420305) scale(0.1 -0.1)">
       <use xlink:href="#DejaVuSans-37"/>
       <use xlink:href="#DejaVuSans-2e" x="63.623047"/>
       <use xlink:href="#DejaVuSans-38" x="95.410156"/>
      </g>
     </g>
    </g>
    <g id="text_23">
     <!-- Price -->
     <g transform="translate(562.562642 193.997656) rotate(-90) scale(0.1 -0.1)">
      <use xlink:href="#DejaVuSans-50"/>
      <use xlink:href="#DejaVuSans-72" x="58.552734"/>
      <use xlink:href="#DejaVuSans-69" x="99.666016"/>
      <use xlink:href="#DejaVuSans-63" x="127.449219"/>
      <use xlink:href="#DejaVuSans-65" x="182.429688"/>
     </g>
    </g>
   </g>
   <g id="PolyCollection_2">
    <path d="M 617.630131 263.845291 
L 617.630131 263.853878 
L 626.652768 263.853878 
L 626.652768 263.845291 
z
" clip-path="url(#pfd584ebc77)" style="fill: #ea0070; fill-opacity: 0.9; stroke: #ea0070"/>
    <path d="M 631.511111 263.894559 
L 631.511111 263.879357 
L 640.533749 263.879357 
L 640.533749 263.894559 
z
" clip-path="url(#pfd584ebc77)" style="fill: #70a800; fill-opacity: 0.9; stroke: #70a800"/>
    <path d="M 645.392092 263.902583 
L 645.392092 263.308551 
L 654.41473 263.308551 
L 654.41473 263.902583 
z
" clip-path="url(#pfd584ebc77)" style="fill: #70a800; fill-opacity: 0.9; stroke: #70a800"/>
    <path d="M 659.273073 263.513506 
L 659.273073 263.628089 
L 668.29571 263.628089 
L 668.29571 263.513506 
z
" clip-path="url(#pfd584ebc77)" style="fill: #ea0070; fill-opacity: 0.9; stroke: #ea0070"/>
    <path d="M 673.154053 263.763647 
L 673.154053 249.752645 
L 682.176691 249.752645 
L 682.176691 263.763647 
z
" clip-path="url(#pfd584ebc77)" style="fill: #70a800; fill-opacity: 0.9; stroke: #70a800"/>
    <path d="M 687.035034 249.067115 
L 687.035034 212.538623 
L 696.057672 212.538623 
L 696.057672 249.067115 
z
" clip-path="url(#pfd584ebc77)" style="fill: #70a800; fill-opacity: 0.9; stroke: #70a800"/>
    <path d="M 700.916015 212.541579 
L 700.916015 262.312631 
L 709.938652 262.312631 
L 709.938652 212.541579 
z
" clip-path="url(#pfd584ebc77)" style="fill: #ea0070; fill-opacity: 0.9; stroke: #ea0070"/>
    <path d="M 714.796995 262.495205 
L 714.796995 242.65987 
L 723.819633 242.65987 
L 723.819633 262.495205 
z
" clip-path="url(#pfd584ebc77)" style="fill: #70a800; fill-opacity: 0.9; stroke: #70a800"/>
    <path d="M 728.677976 242.083715 
L 728.677976 235.094965 
L 737.700614 235.094965 
L 737.700614 242.083715 
z
" clip-path="url(#pfd584ebc77)" style="fill: #70a800; fill-opacity: 0.9; stroke: #70a800"/>
    <path d="M 742.558957 237.779795 
L 742.558957 251.424945 
L 751.581594 251.424945 
L 751.581594 237.779795 
z
" clip-path="url(#pfd584ebc77)" style="fill: #ea0070; fill-opacity: 0.9; stroke: #ea0070"/>
    <path d="M 756.439938 251.920864 
L 756.439938 254.197754 
L 765.462575 254.197754 
L 765.462575 251.920864 
z
" clip-path="url(#pfd584ebc77)" style="fill: #ea0070; fill-opacity: 0.9; stroke: #ea0070"/>
    <path d="M 770.320918 253.021935 
L 770.320918 252.483365 
L 779.343556 252.483365 
L 779.343556 253.021935 
z
" clip-path="url(#pfd584ebc77)" style="fill: #70a800; fill-opacity: 0.9; stroke: #70a800"/>
    <path d="M 784.201899 254.348514 
L 784.201899 260.462403 
L 793.224536 260.462403 
L 793.224536 254.348514 
z
" clip-path="url(#pfd584ebc77)" style="fill: #ea0070; fill-opacity: 0.9; stroke: #ea0070"/>
    <path d="M 798.08288 261.295879 
L 798.08288 255.157355 
L 807.105517 255.157355 
L 807.105517 261.295879 
z
" clip-path="url(#pfd584ebc77)" style="fill: #70a800; fill-opacity: 0.9; stroke: #70a800"/>
    <path d="M 811.96386 255.159608 
L 811.96386 260.038698 
L 820.986498 260.038698 
L 820.986498 255.159608 
z
" clip-path="url(#pfd584ebc77)" style="fill: #ea0070; fill-opacity: 0.9; stroke: #ea0070"/>
    <path d="M 825.844841 260.33501 
L 825.844841 243.583717 
L 834.867478 243.583717 
L 834.867478 260.33501 
z
" clip-path="url(#pfd584ebc77)" style="fill: #70a800; fill-opacity: 0.9; stroke: #70a800"/>
    <path d="M 839.725822 244.928173 
L 839.725822 224.108321 
L 848.748459 224.108321 
L 848.748459 244.928173 
z
" clip-path="url(#pfd584ebc77)" style="fill: #70a800; fill-opacity: 0.9; stroke: #70a800"/>
    <path d="M 853.606802 225.505564 
L 853.606802 214.965851 
L 862.62944 214.965851 
L 862.62944 225.505564 
z
" clip-path="url(#pfd584ebc77)" style="fill: #70a800; fill-opacity: 0.9; stroke: #70a800"/>
    <path d="M 867.487783 214.214865 
L 867.487783 221.352967 
L 876.51042 221.352967 
L 876.51042 214.214865 
z
" clip-path="url(#pfd584ebc77)" style="fill: #ea0070; fill-opacity: 0.9; stroke: #ea0070"/>
    <path d="M 881.368764 221.081711 
L 881.368764 102.289578 
L 890.391401 102.289578 
L 890.391401 221.081711 
z
" clip-path="url(#pfd584ebc77)" style="fill: #70a800; fill-opacity: 0.9; stroke: #70a800"/>
    <path d="M 895.249744 97.075605 
L 895.249744 75.098516 
L 904.272382 75.098516 
L 904.272382 97.075605 
z
" clip-path="url(#pfd584ebc77)" style="fill: #70a800; fill-opacity: 0.9; stroke: #70a800"/>
    <path d="M 909.130725 79.528985 
L 909.130725 64.375386 
L 918.153362 64.375386 
L 918.153362 79.528985 
z
" clip-path="url(#pfd584ebc77)" style="fill: #70a800; fill-opacity: 0.9; stroke: #70a800"/>
    <path d="M 923.011706 68.781924 
L 923.011706 60.719834 
L 932.034343 60.719834 
L 932.034343 68.781924 
z
" clip-path="url(#pfd584ebc77)" style="fill: #70a800; fill-opacity: 0.9; stroke: #70a800"/>
    <path d="M 936.892686 68.662554 
L 936.892686 55.761633 
L 945.915324 55.761633 
L 945.915324 68.662554 
z
" clip-path="url(#pfd584ebc77)" style="fill: #70a800; fill-opacity: 0.9; stroke: #70a800"/>
   </g>
   <g id="LineCollection_2">
    <path d="M 622.141449 264.23648 
L 622.141449 263.853878 
" clip-path="url(#pfd584ebc77)" style="fill: none; stroke: #ea0070"/>
    <path d="M 636.02243 264.236902 
L 636.02243 263.894559 
" clip-path="url(#pfd584ebc77)" style="fill: none; stroke: #70a800"/>
    <path d="M 649.903411 264.234791 
L 649.903411 263.902583 
" clip-path="url(#pfd584ebc77)" style="fill: none; stroke: #70a800"/>
    <path d="M 663.784391 264.147234 
L 663.784391 263.628089 
" clip-path="url(#pfd584ebc77)" style="fill: none; stroke: #ea0070"/>
    <path d="M 677.665372 264.170038 
L 677.665372 263.763647 
" clip-path="url(#pfd584ebc77)" style="fill: none; stroke: #70a800"/>
    <path d="M 691.546353 252.152424 
L 691.546353 249.067115 
" clip-path="url(#pfd584ebc77)" style="fill: none; stroke: #70a800"/>
    <path d="M 705.427334 263.861902 
L 705.427334 262.312631 
" clip-path="url(#pfd584ebc77)" style="fill: none; stroke: #ea0070"/>
    <path d="M 719.308314 263.105144 
L 719.308314 262.495205 
" clip-path="url(#pfd584ebc77)" style="fill: none; stroke: #70a800"/>
    <path d="M 733.189295 250.099915 
L 733.189295 242.083715 
" clip-path="url(#pfd584ebc77)" style="fill: none; stroke: #70a800"/>
    <path d="M 747.070276 254.917772 
L 747.070276 251.424945 
" clip-path="url(#pfd584ebc77)" style="fill: none; stroke: #ea0070"/>
    <path d="M 760.951256 255.623713 
L 760.951256 254.197754 
" clip-path="url(#pfd584ebc77)" style="fill: none; stroke: #ea0070"/>
    <path d="M 774.832237 260.185235 
L 774.832237 253.021935 
" clip-path="url(#pfd584ebc77)" style="fill: none; stroke: #70a800"/>
    <path d="M 788.713218 261.932845 
L 788.713218 260.462403 
" clip-path="url(#pfd584ebc77)" style="fill: none; stroke: #ea0070"/>
    <path d="M 802.594198 261.762377 
L 802.594198 261.295879 
" clip-path="url(#pfd584ebc77)" style="fill: none; stroke: #70a800"/>
    <path d="M 816.475179 263.35993 
L 816.475179 260.038698 
" clip-path="url(#pfd584ebc77)" style="fill: none; stroke: #ea0070"/>
    <path d="M 830.35616 261.965784 
L 830.35616 260.33501 
" clip-path="url(#pfd584ebc77)" style="fill: none; stroke: #70a800"/>
    <path d="M 844.23714 254.172275 
L 844.23714 244.928173 
" clip-path="url(#pfd584ebc77)" style="fill: none; stroke: #70a800"/>
    <path d="M 858.118121 239.967861 
L 858.118121 225.505564 
" clip-path="url(#pfd584ebc77)" style="fill: none; stroke: #70a800"/>
    <path d="M 871.999102 224.553704 
L 871.999102 221.352967 
" clip-path="url(#pfd584ebc77)" style="fill: none; stroke: #ea0070"/>
    <path d="M 885.880082 234.655916 
L 885.880082 221.081711 
" clip-path="url(#pfd584ebc77)" style="fill: none; stroke: #70a800"/>
    <path d="M 899.761063 97.132053 
L 899.761063 97.075605 
" clip-path="url(#pfd584ebc77)" style="fill: none; stroke: #70a800"/>
    <path d="M 913.642044 100.736506 
L 913.642044 79.528985 
" clip-path="url(#pfd584ebc77)" style="fill: none; stroke: #70a800"/>
    <path d="M 927.523024 78.296438 
L 927.523024 68.781924 
" clip-path="url(#pfd584ebc77)" style="fill: none; stroke: #70a800"/>
    <path d="M 941.404005 67.8661 
L 941.404005 68.662554 
" clip-path="url(#pfd584ebc77)" style="fill: none; stroke: #70a800"/>
    <path d="M 622.141449 256.087115 
L 622.141449 263.845291 
" clip-path="url(#pfd584ebc77)" style="fill: none; stroke: #ea0070"/>
    <path d="M 636.02243 263.52533 
L 636.02243 263.879357 
" clip-path="url(#pfd584ebc77)" style="fill: none; stroke: #70a800"/>
    <path d="M 649.903411 261.874567 
L 649.903411 263.308551 
" clip-path="url(#pfd584ebc77)" style="fill: none; stroke: #70a800"/>
    <path d="M 663.784391 260.290387 
L 663.784391 263.513506 
" clip-path="url(#pfd584ebc77)" style="fill: none; stroke: #ea0070"/>
    <path d="M 677.665372 246.615816 
L 677.665372 249.752645 
" clip-path="url(#pfd584ebc77)" style="fill: none; stroke: #70a800"/>
    <path d="M 691.546353 129.509778 
L 691.546353 212.538623 
" clip-path="url(#pfd584ebc77)" style="fill: none; stroke: #70a800"/>
    <path d="M 705.427334 210.169954 
L 705.427334 212.541579 
" clip-path="url(#pfd584ebc77)" style="fill: none; stroke: #ea0070"/>
    <path d="M 719.308314 232.865372 
L 719.308314 242.65987 
" clip-path="url(#pfd584ebc77)" style="fill: none; stroke: #70a800"/>
    <path d="M 733.189295 231.558783 
L 733.189295 235.094965 
" clip-path="url(#pfd584ebc77)" style="fill: none; stroke: #70a800"/>
    <path d="M 747.070276 228.30005 
L 747.070276 237.779795 
" clip-path="url(#pfd584ebc77)" style="fill: none; stroke: #ea0070"/>
    <path d="M 760.951256 240.17718 
L 760.951256 251.920864 
" clip-path="url(#pfd584ebc77)" style="fill: none; stroke: #ea0070"/>
    <path d="M 774.832237 236.241082 
L 774.832237 252.483365 
" clip-path="url(#pfd584ebc77)" style="fill: none; stroke: #70a800"/>
    <path d="M 788.713218 243.105113 
L 788.713218 254.348514 
" clip-path="url(#pfd584ebc77)" style="fill: none; stroke: #ea0070"/>
    <path d="M 802.594198 247.892564 
L 802.594198 255.157355 
" clip-path="url(#pfd584ebc77)" style="fill: none; stroke: #70a800"/>
    <path d="M 816.475179 248.335273 
L 816.475179 255.159608 
" clip-path="url(#pfd584ebc77)" style="fill: none; stroke: #ea0070"/>
    <path d="M 830.35616 241.237992 
L 830.35616 243.583717 
" clip-path="url(#pfd584ebc77)" style="fill: none; stroke: #70a800"/>
    <path d="M 844.23714 219.175177 
L 844.23714 224.108321 
" clip-path="url(#pfd584ebc77)" style="fill: none; stroke: #70a800"/>
    <path d="M 858.118121 214.029054 
L 858.118121 214.965851 
" clip-path="url(#pfd584ebc77)" style="fill: none; stroke: #70a800"/>
    <path d="M 871.999102 207.515812 
L 871.999102 214.214865 
" clip-path="url(#pfd584ebc77)" style="fill: none; stroke: #ea0070"/>
    <path d="M 885.880082 92.063069 
L 885.880082 102.289578 
" clip-path="url(#pfd584ebc77)" style="fill: none; stroke: #70a800"/>
    <path d="M 899.761063 51.304138 
L 899.761063 75.098516 
" clip-path="url(#pfd584ebc77)" style="fill: none; stroke: #70a800"/>
    <path d="M 913.642044 67.073588 
L 913.642044 64.375386 
" clip-path="url(#pfd584ebc77)" style="fill: none; stroke: #70a800"/>
    <path d="M 927.523024 59.203502 
L 927.523024 60.719834 
" clip-path="url(#pfd584ebc77)" style="fill: none; stroke: #70a800"/>
    <path d="M 941.404005 54.273596 
L 941.404005 55.761633 
" clip-path="url(#pfd584ebc77)" style="fill: none; stroke: #70a800"/>
   </g>
   <g id="patch_8">
    <path d="M 591.545455 320.4 
L 591.545455 43.2 
" style="fill: none; stroke: #000000; stroke-width: 0.8; stroke-linejoin: miter; stroke-linecap: square"/>
   </g>
   <g id="patch_9">
    <path d="M 972 320.4 
L 972 43.2 
" style="fill: none; stroke: #000000; stroke-width: 0.8; stroke-linejoin: miter; stroke-linecap: square"/>
   </g>
   <g id="patch_10">
    <path d="M 591.545455 320.4 
L 972 320.4 
" style="fill: none; stroke: #000000; stroke-width: 0.8; stroke-linejoin: miter; stroke-linecap: square"/>
   </g>
   <g id="patch_11">
    <path d="M 591.545455 43.2 
L 972 43.2 
" style="fill: none; stroke: #000000; stroke-width: 0.8; stroke-linejoin: miter; stroke-linecap: square"/>
   </g>
   <g id="text_24">
    <!-- Predicted -->
    <g transform="translate(753.608352 37.2) scale(0.12 -0.12)">
     <defs>
      <path id="DejaVuSans-64" d="M 2906 2969 
L 2906 4863 
L 3481 4863 
L 3481 0 
L 2906 0 
L 2906 525 
Q 2725 213 2448 61 
Q 2172 -91 1784 -91 
Q 1150 -91 751 415 
Q 353 922 353 1747 
Q 353 2572 751 3078 
Q 1150 3584 1784 3584 
Q 2172 3584 2448 3432 
Q 2725 3281 2906 2969 
z
M 947 1747 
Q 947 1113 1208 752 
Q 1469 391 1925 391 
Q 2381 391 2643 752 
Q 2906 1113 2906 1747 
Q 2906 2381 2643 2742 
Q 2381 3103 1925 3103 
Q 1469 3103 1208 2742 
Q 947 2381 947 1747 
z
" transform="scale(0.015625)"/>
     </defs>
     <use xlink:href="#DejaVuSans-50"/>
     <use xlink:href="#DejaVuSans-72" x="58.552734"/>
     <use xlink:href="#DejaVuSans-65" x="97.416016"/>
     <use xlink:href="#DejaVuSans-64" x="158.939453"/>
     <use xlink:href="#DejaVuSans-69" x="222.416016"/>
     <use xlink:href="#DejaVuSans-63" x="250.199219"/>
     <use xlink:href="#DejaVuSans-74" x="305.179688"/>
     <use xlink:href="#DejaVuSans-65" x="344.388672"/>
     <use xlink:href="#DejaVuSans-64" x="405.912109"/>
    </g>
   </g>
  </g>
  <g id="text_25">
   <!-- LSTM - AXS -->
   <g transform="translate(506.004375 16.318125) scale(0.12 -0.12)">
    <defs>
     <path id="DejaVuSans-4c" d="M 628 4666 
L 1259 4666 
L 1259 531 
L 3531 531 
L 3531 0 
L 628 0 
L 628 4666 
z
" transform="scale(0.015625)"/>
     <path id="DejaVuSans-53" d="M 3425 4513 
L 3425 3897 
Q 3066 4069 2747 4153 
Q 2428 4238 2131 4238 
Q 1616 4238 1336 4038 
Q 1056 3838 1056 3469 
Q 1056 3159 1242 3001 
Q 1428 2844 1947 2747 
L 2328 2669 
Q 3034 2534 3370 2195 
Q 3706 1856 3706 1288 
Q 3706 609 3251 259 
Q 2797 -91 1919 -91 
Q 1588 -91 1214 -16 
Q 841 59 441 206 
L 441 856 
Q 825 641 1194 531 
Q 1563 422 1919 422 
Q 2459 422 2753 634 
Q 3047 847 3047 1241 
Q 3047 1584 2836 1778 
Q 2625 1972 2144 2069 
L 1759 2144 
Q 1053 2284 737 2584 
Q 422 2884 422 3419 
Q 422 4038 858 4394 
Q 1294 4750 2059 4750 
Q 2388 4750 2728 4690 
Q 3069 4631 3425 4513 
z
" transform="scale(0.015625)"/>
     <path id="DejaVuSans-54" d="M -19 4666 
L 3928 4666 
L 3928 4134 
L 2272 4134 
L 2272 0 
L 1638 0 
L 1638 4134 
L -19 4134 
L -19 4666 
z
" transform="scale(0.015625)"/>
     <path id="DejaVuSans-4d" d="M 628 4666 
L 1569 4666 
L 2759 1491 
L 3956 4666 
L 4897 4666 
L 4897 0 
L 4281 0 
L 4281 4097 
L 3078 897 
L 2444 897 
L 1241 4097 
L 1241 0 
L 628 0 
L 628 4666 
z
" transform="scale(0.015625)"/>
     <path id="DejaVuSans-20" transform="scale(0.015625)"/>
     <path id="DejaVuSans-2d" d="M 313 2009 
L 1997 2009 
L 1997 1497 
L 313 1497 
L 313 2009 
z
" transform="scale(0.015625)"/>
     <path id="DejaVuSans-58" d="M 403 4666 
L 1081 4666 
L 2241 2931 
L 3406 4666 
L 4084 4666 
L 2584 2425 
L 4184 0 
L 3506 0 
L 2194 1984 
L 872 0 
L 191 0 
L 1856 2491 
L 403 4666 
z
" transform="scale(0.015625)"/>
    </defs>
    <use xlink:href="#DejaVuSans-4c"/>
    <use xlink:href="#DejaVuSans-53" x="55.712891"/>
    <use xlink:href="#DejaVuSans-54" x="119.189453"/>
    <use xlink:href="#DejaVuSans-4d" x="180.273438"/>
    <use xlink:href="#DejaVuSans-20" x="266.552734"/>
    <use xlink:href="#DejaVuSans-2d" x="298.339844"/>
    <use xlink:href="#DejaVuSans-20" x="334.423828"/>
    <use xlink:href="#DejaVuSans-41" x="366.210938"/>
    <use xlink:href="#DejaVuSans-58" x="434.619141"/>
    <use xlink:href="#DejaVuSans-53" x="503.125"/>
   </g>
  </g>
 </g>
 <defs>
  <clipPath id="pcfe3a5af95">
   <rect x="135" y="43.2" width="380.454545" height="277.2"/>
  </clipPath>
  <clipPath id="pfd584ebc77">
   <rect x="591.545455" y="43.2" width="380.454545" height="277.2"/>
  </clipPath>
 </defs>
</svg>
