<?xml version="1.0" encoding="utf-8" standalone="no"?>
<!DOCTYPE svg PUBLIC "-//W3C//DTD SVG 1.1//EN"
  "http://www.w3.org/Graphics/SVG/1.1/DTD/svg11.dtd">
<svg xmlns:xlink="http://www.w3.org/1999/xlink" width="1080pt" height="360pt" viewBox="0 0 1080 360" xmlns="http://www.w3.org/2000/svg" version="1.1">
 <metadata>
  <rdf:RDF xmlns:dc="http://purl.org/dc/elements/1.1/" xmlns:cc="http://creativecommons.org/ns#" xmlns:rdf="http://www.w3.org/1999/02/22-rdf-syntax-ns#">
   <cc:Work>
    <dc:type rdf:resource="http://purl.org/dc/dcmitype/StillImage"/>
    <dc:date>2024-06-04T11:57:33.885140</dc:date>
    <dc:format>image/svg+xml</dc:format>
    <dc:creator>
     <cc:Agent>
      <dc:title>Matplotlib v3.8.4, https://matplotlib.org/</dc:title>
     </cc:Agent>
    </dc:creator>
   </cc:Work>
  </rdf:RDF>
 </metadata>
 <defs>
  <style type="text/css">*{stroke-linejoin: round; stroke-linecap: butt}</style>
 </defs>
 <g id="figure_1">
  <g id="patch_1">
   <path d="M 0 360 
L 1080 360 
L 1080 0 
L 0 0 
z
" style="fill: #ffffff"/>
  </g>
  <g id="axes_1">
   <g id="patch_2">
    <path d="M 135 320.4 
L 515.454545 320.4 
L 515.454545 43.2 
L 135 43.2 
z
" style="fill: #ffffff"/>
   </g>
   <g id="matplotlib.axis_1">
    <g id="xtick_1">
     <g id="line2d_1">
      <defs>
       <path id="mcc5df5843e" d="M 0 0 
L 0 3.5 
" style="stroke: #000000; stroke-width: 0.8"/>
      </defs>
      <g>
       <use xlink:href="#mcc5df5843e" x="165.595995" y="320.4" style="stroke: #000000; stroke-width: 0.8"/>
      </g>
     </g>
     <g id="text_1">
      <!-- 00:00 -->
      <g transform="translate(157.358201 353.15084) rotate(-45) scale(0.1 -0.1)">
       <defs>
        <path id="DejaVuSans-30" d="M 2034 4250 
Q 1547 4250 1301 3770 
Q 1056 3291 1056 2328 
Q 1056 1369 1301 889 
Q 1547 409 2034 409 
Q 2525 409 2770 889 
Q 3016 1369 3016 2328 
Q 3016 3291 2770 3770 
Q 2525 4250 2034 4250 
z
M 2034 4750 
Q 2819 4750 3233 4129 
Q 3647 3509 3647 2328 
Q 3647 1150 3233 529 
Q 2819 -91 2034 -91 
Q 1250 -91 836 529 
Q 422 1150 422 2328 
Q 422 3509 836 4129 
Q 1250 4750 2034 4750 
z
" transform="scale(0.015625)"/>
        <path id="DejaVuSans-3a" d="M 750 794 
L 1409 794 
L 1409 0 
L 750 0 
L 750 794 
z
M 750 3309 
L 1409 3309 
L 1409 2516 
L 750 2516 
L 750 3309 
z
" transform="scale(0.015625)"/>
       </defs>
       <use xlink:href="#DejaVuSans-30"/>
       <use xlink:href="#DejaVuSans-30" x="63.623047"/>
       <use xlink:href="#DejaVuSans-3a" x="127.246094"/>
       <use xlink:href="#DejaVuSans-30" x="160.9375"/>
       <use xlink:href="#DejaVuSans-30" x="224.560547"/>
      </g>
     </g>
    </g>
    <g id="xtick_2">
     <g id="line2d_2">
      <g>
       <use xlink:href="#mcc5df5843e" x="235.000898" y="320.4" style="stroke: #000000; stroke-width: 0.8"/>
      </g>
     </g>
     <g id="text_2">
      <!-- 05:00 -->
      <g transform="translate(226.763104 353.15084) rotate(-45) scale(0.1 -0.1)">
       <defs>
        <path id="DejaVuSans-35" d="M 691 4666 
L 3169 4666 
L 3169 4134 
L 1269 4134 
L 1269 2991 
Q 1406 3038 1543 3061 
Q 1681 3084 1819 3084 
Q 2600 3084 3056 2656 
Q 3513 2228 3513 1497 
Q 3513 744 3044 326 
Q 2575 -91 1722 -91 
Q 1428 -91 1123 -41 
Q 819 9 494 109 
L 494 744 
Q 775 591 1075 516 
Q 1375 441 1709 441 
Q 2250 441 2565 725 
Q 2881 1009 2881 1497 
Q 2881 1984 2565 2268 
Q 2250 2553 1709 2553 
Q 1456 2553 1204 2497 
Q 953 2441 691 2322 
L 691 4666 
z
" transform="scale(0.015625)"/>
       </defs>
       <use xlink:href="#DejaVuSans-30"/>
       <use xlink:href="#DejaVuSans-35" x="63.623047"/>
       <use xlink:href="#DejaVuSans-3a" x="127.246094"/>
       <use xlink:href="#DejaVuSans-30" x="160.9375"/>
       <use xlink:href="#DejaVuSans-30" x="224.560547"/>
      </g>
     </g>
    </g>
    <g id="xtick_3">
     <g id="line2d_3">
      <g>
       <use xlink:href="#mcc5df5843e" x="304.405802" y="320.4" style="stroke: #000000; stroke-width: 0.8"/>
      </g>
     </g>
     <g id="text_3">
      <!-- 10:00 -->
      <g transform="translate(296.168008 353.15084) rotate(-45) scale(0.1 -0.1)">
       <defs>
        <path id="DejaVuSans-31" d="M 794 531 
L 1825 531 
L 1825 4091 
L 703 3866 
L 703 4441 
L 1819 4666 
L 2450 4666 
L 2450 531 
L 3481 531 
L 3481 0 
L 794 0 
L 794 531 
z
" transform="scale(0.015625)"/>
       </defs>
       <use xlink:href="#DejaVuSans-31"/>
       <use xlink:href="#DejaVuSans-30" x="63.623047"/>
       <use xlink:href="#DejaVuSans-3a" x="127.246094"/>
       <use xlink:href="#DejaVuSans-30" x="160.9375"/>
       <use xlink:href="#DejaVuSans-30" x="224.560547"/>
      </g>
     </g>
    </g>
    <g id="xtick_4">
     <g id="line2d_4">
      <g>
       <use xlink:href="#mcc5df5843e" x="373.810705" y="320.4" style="stroke: #000000; stroke-width: 0.8"/>
      </g>
     </g>
     <g id="text_4">
      <!-- 15:00 -->
      <g transform="translate(365.572911 353.15084) rotate(-45) scale(0.1 -0.1)">
       <use xlink:href="#DejaVuSans-31"/>
       <use xlink:href="#DejaVuSans-35" x="63.623047"/>
       <use xlink:href="#DejaVuSans-3a" x="127.246094"/>
       <use xlink:href="#DejaVuSans-30" x="160.9375"/>
       <use xlink:href="#DejaVuSans-30" x="224.560547"/>
      </g>
     </g>
    </g>
    <g id="xtick_5">
     <g id="line2d_5">
      <g>
       <use xlink:href="#mcc5df5843e" x="443.215609" y="320.4" style="stroke: #000000; stroke-width: 0.8"/>
      </g>
     </g>
     <g id="text_5">
      <!-- 20:00 -->
      <g transform="translate(434.977815 353.15084) rotate(-45) scale(0.1 -0.1)">
       <defs>
        <path id="DejaVuSans-32" d="M 1228 531 
L 3431 531 
L 3431 0 
L 469 0 
L 469 531 
Q 828 903 1448 1529 
Q 2069 2156 2228 2338 
Q 2531 2678 2651 2914 
Q 2772 3150 2772 3378 
Q 2772 3750 2511 3984 
Q 2250 4219 1831 4219 
Q 1534 4219 1204 4116 
Q 875 4013 500 3803 
L 500 4441 
Q 881 4594 1212 4672 
Q 1544 4750 1819 4750 
Q 2544 4750 2975 4387 
Q 3406 4025 3406 3419 
Q 3406 3131 3298 2873 
Q 3191 2616 2906 2266 
Q 2828 2175 2409 1742 
Q 1991 1309 1228 531 
z
" transform="scale(0.015625)"/>
       </defs>
       <use xlink:href="#DejaVuSans-32"/>
       <use xlink:href="#DejaVuSans-30" x="63.623047"/>
       <use xlink:href="#DejaVuSans-3a" x="127.246094"/>
       <use xlink:href="#DejaVuSans-30" x="160.9375"/>
       <use xlink:href="#DejaVuSans-30" x="224.560547"/>
      </g>
     </g>
    </g>
    <g id="xtick_6">
     <g id="line2d_6">
      <g>
       <use xlink:href="#mcc5df5843e" x="512.620512" y="320.4" style="stroke: #000000; stroke-width: 0.8"/>
      </g>
     </g>
    </g>
   </g>
   <g id="matplotlib.axis_2">
    <g id="ytick_1">
     <g id="line2d_7">
      <defs>
       <path id="m1bd2fc0ed1" d="M 0 0 
L -3.5 0 
" style="stroke: #000000; stroke-width: 0.8"/>
      </defs>
      <g>
       <use xlink:href="#m1bd2fc0ed1" x="135" y="290.525982" style="stroke: #000000; stroke-width: 0.8"/>
      </g>
     </g>
     <g id="text_6">
      <!-- 0.465 -->
      <g transform="translate(99.371875 294.3252) scale(0.1 -0.1)">
       <defs>
        <path id="DejaVuSans-2e" d="M 684 794 
L 1344 794 
L 1344 0 
L 684 0 
L 684 794 
z
" transform="scale(0.015625)"/>
        <path id="DejaVuSans-34" d="M 2419 4116 
L 825 1625 
L 2419 1625 
L 2419 4116 
z
M 2253 4666 
L 3047 4666 
L 3047 1625 
L 3713 1625 
L 3713 1100 
L 3047 1100 
L 3047 0 
L 2419 0 
L 2419 1100 
L 313 1100 
L 313 1709 
L 2253 4666 
z
" transform="scale(0.015625)"/>
        <path id="DejaVuSans-36" d="M 2113 2584 
Q 1688 2584 1439 2293 
Q 1191 2003 1191 1497 
Q 1191 994 1439 701 
Q 1688 409 2113 409 
Q 2538 409 2786 701 
Q 3034 994 3034 1497 
Q 3034 2003 2786 2293 
Q 2538 2584 2113 2584 
z
M 3366 4563 
L 3366 3988 
Q 3128 4100 2886 4159 
Q 2644 4219 2406 4219 
Q 1781 4219 1451 3797 
Q 1122 3375 1075 2522 
Q 1259 2794 1537 2939 
Q 1816 3084 2150 3084 
Q 2853 3084 3261 2657 
Q 3669 2231 3669 1497 
Q 3669 778 3244 343 
Q 2819 -91 2113 -91 
Q 1303 -91 875 529 
Q 447 1150 447 2328 
Q 447 3434 972 4092 
Q 1497 4750 2381 4750 
Q 2619 4750 2861 4703 
Q 3103 4656 3366 4563 
z
" transform="scale(0.015625)"/>
       </defs>
       <use xlink:href="#DejaVuSans-30"/>
       <use xlink:href="#DejaVuSans-2e" x="63.623047"/>
       <use xlink:href="#DejaVuSans-34" x="95.410156"/>
       <use xlink:href="#DejaVuSans-36" x="159.033203"/>
       <use xlink:href="#DejaVuSans-35" x="222.65625"/>
      </g>
     </g>
    </g>
    <g id="ytick_2">
     <g id="line2d_8">
      <g>
       <use xlink:href="#m1bd2fc0ed1" x="135" y="258.432542" style="stroke: #000000; stroke-width: 0.8"/>
      </g>
     </g>
     <g id="text_7">
      <!-- 0.470 -->
      <g transform="translate(99.371875 262.231761) scale(0.1 -0.1)">
       <defs>
        <path id="DejaVuSans-37" d="M 525 4666 
L 3525 4666 
L 3525 4397 
L 1831 0 
L 1172 0 
L 2766 4134 
L 525 4134 
L 525 4666 
z
" transform="scale(0.015625)"/>
       </defs>
       <use xlink:href="#DejaVuSans-30"/>
       <use xlink:href="#DejaVuSans-2e" x="63.623047"/>
       <use xlink:href="#DejaVuSans-34" x="95.410156"/>
       <use xlink:href="#DejaVuSans-37" x="159.033203"/>
       <use xlink:href="#DejaVuSans-30" x="222.65625"/>
      </g>
     </g>
    </g>
    <g id="ytick_3">
     <g id="line2d_9">
      <g>
       <use xlink:href="#m1bd2fc0ed1" x="135" y="226.339103" style="stroke: #000000; stroke-width: 0.8"/>
      </g>
     </g>
     <g id="text_8">
      <!-- 0.475 -->
      <g transform="translate(99.371875 230.138321) scale(0.1 -0.1)">
       <use xlink:href="#DejaVuSans-30"/>
       <use xlink:href="#DejaVuSans-2e" x="63.623047"/>
       <use xlink:href="#DejaVuSans-34" x="95.410156"/>
       <use xlink:href="#DejaVuSans-37" x="159.033203"/>
       <use xlink:href="#DejaVuSans-35" x="222.65625"/>
      </g>
     </g>
    </g>
    <g id="ytick_4">
     <g id="line2d_10">
      <g>
       <use xlink:href="#m1bd2fc0ed1" x="135" y="194.245663" style="stroke: #000000; stroke-width: 0.8"/>
      </g>
     </g>
     <g id="text_9">
      <!-- 0.480 -->
      <g transform="translate(99.371875 198.044882) scale(0.1 -0.1)">
       <defs>
        <path id="DejaVuSans-38" d="M 2034 2216 
Q 1584 2216 1326 1975 
Q 1069 1734 1069 1313 
Q 1069 891 1326 650 
Q 1584 409 2034 409 
Q 2484 409 2743 651 
Q 3003 894 3003 1313 
Q 3003 1734 2745 1975 
Q 2488 2216 2034 2216 
z
M 1403 2484 
Q 997 2584 770 2862 
Q 544 3141 544 3541 
Q 544 4100 942 4425 
Q 1341 4750 2034 4750 
Q 2731 4750 3128 4425 
Q 3525 4100 3525 3541 
Q 3525 3141 3298 2862 
Q 3072 2584 2669 2484 
Q 3125 2378 3379 2068 
Q 3634 1759 3634 1313 
Q 3634 634 3220 271 
Q 2806 -91 2034 -91 
Q 1263 -91 848 271 
Q 434 634 434 1313 
Q 434 1759 690 2068 
Q 947 2378 1403 2484 
z
M 1172 3481 
Q 1172 3119 1398 2916 
Q 1625 2713 2034 2713 
Q 2441 2713 2670 2916 
Q 2900 3119 2900 3481 
Q 2900 3844 2670 4047 
Q 2441 4250 2034 4250 
Q 1625 4250 1398 4047 
Q 1172 3844 1172 3481 
z
" transform="scale(0.015625)"/>
       </defs>
       <use xlink:href="#DejaVuSans-30"/>
       <use xlink:href="#DejaVuSans-2e" x="63.623047"/>
       <use xlink:href="#DejaVuSans-34" x="95.410156"/>
       <use xlink:href="#DejaVuSans-38" x="159.033203"/>
       <use xlink:href="#DejaVuSans-30" x="222.65625"/>
      </g>
     </g>
    </g>
    <g id="ytick_5">
     <g id="line2d_11">
      <g>
       <use xlink:href="#m1bd2fc0ed1" x="135" y="162.152223" style="stroke: #000000; stroke-width: 0.8"/>
      </g>
     </g>
     <g id="text_10">
      <!-- 0.485 -->
      <g transform="translate(99.371875 165.951442) scale(0.1 -0.1)">
       <use xlink:href="#DejaVuSans-30"/>
       <use xlink:href="#DejaVuSans-2e" x="63.623047"/>
       <use xlink:href="#DejaVuSans-34" x="95.410156"/>
       <use xlink:href="#DejaVuSans-38" x="159.033203"/>
       <use xlink:href="#DejaVuSans-35" x="222.65625"/>
      </g>
     </g>
    </g>
    <g id="ytick_6">
     <g id="line2d_12">
      <g>
       <use xlink:href="#m1bd2fc0ed1" x="135" y="130.058784" style="stroke: #000000; stroke-width: 0.8"/>
      </g>
     </g>
     <g id="text_11">
      <!-- 0.490 -->
      <g transform="translate(99.371875 133.858003) scale(0.1 -0.1)">
       <defs>
        <path id="DejaVuSans-39" d="M 703 97 
L 703 672 
Q 941 559 1184 500 
Q 1428 441 1663 441 
Q 2288 441 2617 861 
Q 2947 1281 2994 2138 
Q 2813 1869 2534 1725 
Q 2256 1581 1919 1581 
Q 1219 1581 811 2004 
Q 403 2428 403 3163 
Q 403 3881 828 4315 
Q 1253 4750 1959 4750 
Q 2769 4750 3195 4129 
Q 3622 3509 3622 2328 
Q 3622 1225 3098 567 
Q 2575 -91 1691 -91 
Q 1453 -91 1209 -44 
Q 966 3 703 97 
z
M 1959 2075 
Q 2384 2075 2632 2365 
Q 2881 2656 2881 3163 
Q 2881 3666 2632 3958 
Q 2384 4250 1959 4250 
Q 1534 4250 1286 3958 
Q 1038 3666 1038 3163 
Q 1038 2656 1286 2365 
Q 1534 2075 1959 2075 
z
" transform="scale(0.015625)"/>
       </defs>
       <use xlink:href="#DejaVuSans-30"/>
       <use xlink:href="#DejaVuSans-2e" x="63.623047"/>
       <use xlink:href="#DejaVuSans-34" x="95.410156"/>
       <use xlink:href="#DejaVuSans-39" x="159.033203"/>
       <use xlink:href="#DejaVuSans-30" x="222.65625"/>
      </g>
     </g>
    </g>
    <g id="ytick_7">
     <g id="line2d_13">
      <g>
       <use xlink:href="#m1bd2fc0ed1" x="135" y="97.965344" style="stroke: #000000; stroke-width: 0.8"/>
      </g>
     </g>
     <g id="text_12">
      <!-- 0.495 -->
      <g transform="translate(99.371875 101.764563) scale(0.1 -0.1)">
       <use xlink:href="#DejaVuSans-30"/>
       <use xlink:href="#DejaVuSans-2e" x="63.623047"/>
       <use xlink:href="#DejaVuSans-34" x="95.410156"/>
       <use xlink:href="#DejaVuSans-39" x="159.033203"/>
       <use xlink:href="#DejaVuSans-35" x="222.65625"/>
      </g>
     </g>
    </g>
    <g id="ytick_8">
     <g id="line2d_14">
      <g>
       <use xlink:href="#m1bd2fc0ed1" x="135" y="65.871905" style="stroke: #000000; stroke-width: 0.8"/>
      </g>
     </g>
     <g id="text_13">
      <!-- 0.500 -->
      <g transform="translate(99.371875 69.671124) scale(0.1 -0.1)">
       <use xlink:href="#DejaVuSans-30"/>
       <use xlink:href="#DejaVuSans-2e" x="63.623047"/>
       <use xlink:href="#DejaVuSans-35" x="95.410156"/>
       <use xlink:href="#DejaVuSans-30" x="159.033203"/>
       <use xlink:href="#DejaVuSans-30" x="222.65625"/>
      </g>
     </g>
    </g>
    <g id="text_14">
     <!-- Price -->
     <g transform="translate(93.292187 193.997656) rotate(-90) scale(0.1 -0.1)">
      <defs>
       <path id="DejaVuSans-50" d="M 1259 4147 
L 1259 2394 
L 2053 2394 
Q 2494 2394 2734 2622 
Q 2975 2850 2975 3272 
Q 2975 3691 2734 3919 
Q 2494 4147 2053 4147 
L 1259 4147 
z
M 628 4666 
L 2053 4666 
Q 2838 4666 3239 4311 
Q 3641 3956 3641 3272 
Q 3641 2581 3239 2228 
Q 2838 1875 2053 1875 
L 1259 1875 
L 1259 0 
L 628 0 
L 628 4666 
z
" transform="scale(0.015625)"/>
       <path id="DejaVuSans-72" d="M 2631 2963 
Q 2534 3019 2420 3045 
Q 2306 3072 2169 3072 
Q 1681 3072 1420 2755 
Q 1159 2438 1159 1844 
L 1159 0 
L 581 0 
L 581 3500 
L 1159 3500 
L 1159 2956 
Q 1341 3275 1631 3429 
Q 1922 3584 2338 3584 
Q 2397 3584 2469 3576 
Q 2541 3569 2628 3553 
L 2631 2963 
z
" transform="scale(0.015625)"/>
       <path id="DejaVuSans-69" d="M 603 3500 
L 1178 3500 
L 1178 0 
L 603 0 
L 603 3500 
z
M 603 4863 
L 1178 4863 
L 1178 4134 
L 603 4134 
L 603 4863 
z
" transform="scale(0.015625)"/>
       <path id="DejaVuSans-63" d="M 3122 3366 
L 3122 2828 
Q 2878 2963 2633 3030 
Q 2388 3097 2138 3097 
Q 1578 3097 1268 2742 
Q 959 2388 959 1747 
Q 959 1106 1268 751 
Q 1578 397 2138 397 
Q 2388 397 2633 464 
Q 2878 531 3122 666 
L 3122 134 
Q 2881 22 2623 -34 
Q 2366 -91 2075 -91 
Q 1284 -91 818 406 
Q 353 903 353 1747 
Q 353 2603 823 3093 
Q 1294 3584 2113 3584 
Q 2378 3584 2631 3529 
Q 2884 3475 3122 3366 
z
" transform="scale(0.015625)"/>
       <path id="DejaVuSans-65" d="M 3597 1894 
L 3597 1613 
L 953 1613 
Q 991 1019 1311 708 
Q 1631 397 2203 397 
Q 2534 397 2845 478 
Q 3156 559 3463 722 
L 3463 178 
Q 3153 47 2828 -22 
Q 2503 -91 2169 -91 
Q 1331 -91 842 396 
Q 353 884 353 1716 
Q 353 2575 817 3079 
Q 1281 3584 2069 3584 
Q 2775 3584 3186 3129 
Q 3597 2675 3597 1894 
z
M 3022 2063 
Q 3016 2534 2758 2815 
Q 2500 3097 2075 3097 
Q 1594 3097 1305 2825 
Q 1016 2553 972 2059 
L 3022 2063 
z
" transform="scale(0.015625)"/>
      </defs>
      <use xlink:href="#DejaVuSans-50"/>
      <use xlink:href="#DejaVuSans-72" x="58.552734"/>
      <use xlink:href="#DejaVuSans-69" x="99.666016"/>
      <use xlink:href="#DejaVuSans-63" x="127.449219"/>
      <use xlink:href="#DejaVuSans-65" x="182.429688"/>
     </g>
    </g>
   </g>
   <g id="PolyCollection_1">
    <path d="M 161.084676 276.725803 
L 161.084676 279.935147 
L 170.107314 279.935147 
L 170.107314 276.725803 
z
" clip-path="url(#pa0d9e33137)" style="fill: #ea0070; fill-opacity: 0.9; stroke: #ea0070"/>
    <path d="M 174.965657 279.935147 
L 174.965657 287.637572 
L 183.988294 287.637572 
L 183.988294 279.935147 
z
" clip-path="url(#pa0d9e33137)" style="fill: #ea0070; fill-opacity: 0.9; stroke: #ea0070"/>
    <path d="M 188.846638 287.637572 
L 188.846638 265.172164 
L 197.869275 265.172164 
L 197.869275 287.637572 
z
" clip-path="url(#pa0d9e33137)" style="fill: #70a800; fill-opacity: 0.9; stroke: #70a800"/>
    <path d="M 202.727618 265.172164 
L 202.727618 257.469739 
L 211.750256 257.469739 
L 211.750256 265.172164 
z
" clip-path="url(#pa0d9e33137)" style="fill: #70a800; fill-opacity: 0.9; stroke: #70a800"/>
    <path d="M 216.608599 257.469739 
L 216.608599 220.883218 
L 225.631236 220.883218 
L 225.631236 257.469739 
z
" clip-path="url(#pa0d9e33137)" style="fill: #70a800; fill-opacity: 0.9; stroke: #70a800"/>
    <path d="M 230.48958 220.883218 
L 230.48958 227.943774 
L 239.512217 227.943774 
L 239.512217 220.883218 
z
" clip-path="url(#pa0d9e33137)" style="fill: #ea0070; fill-opacity: 0.9; stroke: #ea0070"/>
    <path d="M 244.37056 227.943774 
L 244.37056 308.819242 
L 253.393198 308.819242 
L 253.393198 227.943774 
z
" clip-path="url(#pa0d9e33137)" style="fill: #ea0070; fill-opacity: 0.9; stroke: #ea0070"/>
    <path d="M 258.251541 308.819242 
L 258.251541 277.367671 
L 267.274178 277.367671 
L 267.274178 308.819242 
z
" clip-path="url(#pa0d9e33137)" style="fill: #70a800; fill-opacity: 0.9; stroke: #70a800"/>
    <path d="M 272.132522 277.367671 
L 272.132522 267.73964 
L 281.155159 267.73964 
L 281.155159 277.367671 
z
" clip-path="url(#pa0d9e33137)" style="fill: #70a800; fill-opacity: 0.9; stroke: #70a800"/>
    <path d="M 286.013502 267.73964 
L 286.013502 280.577015 
L 295.03614 280.577015 
L 295.03614 267.73964 
z
" clip-path="url(#pa0d9e33137)" style="fill: #ea0070; fill-opacity: 0.9; stroke: #ea0070"/>
    <path d="M 299.894483 280.577015 
L 299.894483 269.023377 
L 308.91712 269.023377 
L 308.91712 280.577015 
z
" clip-path="url(#pa0d9e33137)" style="fill: #70a800; fill-opacity: 0.9; stroke: #70a800"/>
    <path d="M 313.775464 269.023377 
L 313.775464 278.00954 
L 322.798101 278.00954 
L 322.798101 269.023377 
z
" clip-path="url(#pa0d9e33137)" style="fill: #ea0070; fill-opacity: 0.9; stroke: #ea0070"/>
    <path d="M 327.656444 278.00954 
L 327.656444 287.637572 
L 336.679082 287.637572 
L 336.679082 278.00954 
z
" clip-path="url(#pa0d9e33137)" style="fill: #ea0070; fill-opacity: 0.9; stroke: #ea0070"/>
    <path d="M 341.537425 287.637572 
L 341.537425 272.232721 
L 350.560062 272.232721 
L 350.560062 287.637572 
z
" clip-path="url(#pa0d9e33137)" style="fill: #70a800; fill-opacity: 0.9; stroke: #70a800"/>
    <path d="M 355.418406 272.232721 
L 355.418406 286.995703 
L 364.441043 286.995703 
L 364.441043 272.232721 
z
" clip-path="url(#pa0d9e33137)" style="fill: #ea0070; fill-opacity: 0.9; stroke: #ea0070"/>
    <path d="M 369.299386 286.995703 
L 369.299386 269.023377 
L 378.322024 269.023377 
L 378.322024 286.995703 
z
" clip-path="url(#pa0d9e33137)" style="fill: #70a800; fill-opacity: 0.9; stroke: #70a800"/>
    <path d="M 383.180367 269.023377 
L 383.180367 242.064888 
L 392.203005 242.064888 
L 392.203005 269.023377 
z
" clip-path="url(#pa0d9e33137)" style="fill: #70a800; fill-opacity: 0.9; stroke: #70a800"/>
    <path d="M 397.061348 242.064888 
L 397.061348 265.814033 
L 406.083985 265.814033 
L 406.083985 242.064888 
z
" clip-path="url(#pa0d9e33137)" style="fill: #ea0070; fill-opacity: 0.9; stroke: #ea0070"/>
    <path d="M 410.942328 265.814033 
L 410.942328 258.111608 
L 419.964966 258.111608 
L 419.964966 265.814033 
z
" clip-path="url(#pa0d9e33137)" style="fill: #70a800; fill-opacity: 0.9; stroke: #70a800"/>
    <path d="M 424.823309 258.111608 
L 424.823309 132.947193 
L 433.845947 132.947193 
L 433.845947 258.111608 
z
" clip-path="url(#pa0d9e33137)" style="fill: #70a800; fill-opacity: 0.9; stroke: #70a800"/>
    <path d="M 438.70429 132.947193 
L 438.70429 136.156537 
L 447.726927 136.156537 
L 447.726927 132.947193 
z
" clip-path="url(#pa0d9e33137)" style="fill: #ea0070; fill-opacity: 0.9; stroke: #ea0070"/>
    <path d="M 452.58527 136.156537 
L 452.58527 83.523297 
L 461.607908 83.523297 
L 461.607908 136.156537 
z
" clip-path="url(#pa0d9e33137)" style="fill: #70a800; fill-opacity: 0.9; stroke: #70a800"/>
    <path d="M 466.466251 83.523297 
L 466.466251 83.523297 
L 475.488889 83.523297 
L 475.488889 83.523297 
z
" clip-path="url(#pa0d9e33137)" style="fill: #ea0070; fill-opacity: 0.9; stroke: #ea0070"/>
    <path d="M 480.347232 83.523297 
L 480.347232 51.429857 
L 489.369869 51.429857 
L 489.369869 83.523297 
z
" clip-path="url(#pa0d9e33137)" style="fill: #70a800; fill-opacity: 0.9; stroke: #70a800"/>
   </g>
   <g id="LineCollection_1">
    <path d="M 165.595995 290.205047 
L 165.595995 279.935147 
" clip-path="url(#pa0d9e33137)" style="fill: none; stroke: #ea0070"/>
    <path d="M 179.476976 316.521668 
L 179.476976 287.637572 
" clip-path="url(#pa0d9e33137)" style="fill: none; stroke: #ea0070"/>
    <path d="M 193.357956 288.92131 
L 193.357956 287.637572 
" clip-path="url(#pa0d9e33137)" style="fill: none; stroke: #70a800"/>
    <path d="M 207.238937 267.097771 
L 207.238937 265.172164 
" clip-path="url(#pa0d9e33137)" style="fill: none; stroke: #70a800"/>
    <path d="M 221.119918 257.469739 
L 221.119918 257.469739 
" clip-path="url(#pa0d9e33137)" style="fill: none; stroke: #70a800"/>
    <path d="M 235.000898 227.943774 
L 235.000898 227.943774 
" clip-path="url(#pa0d9e33137)" style="fill: none; stroke: #ea0070"/>
    <path d="M 248.881879 319.731012 
L 248.881879 308.819242 
" clip-path="url(#pa0d9e33137)" style="fill: none; stroke: #ea0070"/>
    <path d="M 262.76286 314.596061 
L 262.76286 308.819242 
" clip-path="url(#pa0d9e33137)" style="fill: none; stroke: #70a800"/>
    <path d="M 276.64384 281.218884 
L 276.64384 277.367671 
" clip-path="url(#pa0d9e33137)" style="fill: none; stroke: #70a800"/>
    <path d="M 290.524821 281.218884 
L 290.524821 280.577015 
" clip-path="url(#pa0d9e33137)" style="fill: none; stroke: #ea0070"/>
    <path d="M 304.405802 283.14449 
L 304.405802 280.577015 
" clip-path="url(#pa0d9e33137)" style="fill: none; stroke: #70a800"/>
    <path d="M 318.286782 281.218884 
L 318.286782 278.00954 
" clip-path="url(#pa0d9e33137)" style="fill: none; stroke: #ea0070"/>
    <path d="M 332.167763 292.772522 
L 332.167763 287.637572 
" clip-path="url(#pa0d9e33137)" style="fill: none; stroke: #ea0070"/>
    <path d="M 346.048744 293.414391 
L 346.048744 287.637572 
" clip-path="url(#pa0d9e33137)" style="fill: none; stroke: #70a800"/>
    <path d="M 359.929724 297.907473 
L 359.929724 286.995703 
" clip-path="url(#pa0d9e33137)" style="fill: none; stroke: #ea0070"/>
    <path d="M 373.810705 292.772522 
L 373.810705 286.995703 
" clip-path="url(#pa0d9e33137)" style="fill: none; stroke: #70a800"/>
    <path d="M 387.691686 272.232721 
L 387.691686 269.023377 
" clip-path="url(#pa0d9e33137)" style="fill: none; stroke: #70a800"/>
    <path d="M 401.572666 270.948983 
L 401.572666 265.814033 
" clip-path="url(#pa0d9e33137)" style="fill: none; stroke: #ea0070"/>
    <path d="M 415.453647 271.590852 
L 415.453647 265.814033 
" clip-path="url(#pa0d9e33137)" style="fill: none; stroke: #70a800"/>
    <path d="M 429.334628 263.888427 
L 429.334628 258.111608 
" clip-path="url(#pa0d9e33137)" style="fill: none; stroke: #70a800"/>
    <path d="M 443.215609 175.310534 
L 443.215609 136.156537 
" clip-path="url(#pa0d9e33137)" style="fill: none; stroke: #ea0070"/>
    <path d="M 457.096589 161.831289 
L 457.096589 136.156537 
" clip-path="url(#pa0d9e33137)" style="fill: none; stroke: #70a800"/>
    <path d="M 470.97757 103.421229 
L 470.97757 83.523297 
" clip-path="url(#pa0d9e33137)" style="fill: none; stroke: #ea0070"/>
    <path d="M 484.858551 95.718804 
L 484.858551 83.523297 
" clip-path="url(#pa0d9e33137)" style="fill: none; stroke: #70a800"/>
    <path d="M 165.595995 267.097771 
L 165.595995 276.725803 
" clip-path="url(#pa0d9e33137)" style="fill: none; stroke: #ea0070"/>
    <path d="M 179.476976 271.590852 
L 179.476976 279.935147 
" clip-path="url(#pa0d9e33137)" style="fill: none; stroke: #ea0070"/>
    <path d="M 193.357956 258.111608 
L 193.357956 265.172164 
" clip-path="url(#pa0d9e33137)" style="fill: none; stroke: #70a800"/>
    <path d="M 207.238937 247.199838 
L 207.238937 257.469739 
" clip-path="url(#pa0d9e33137)" style="fill: none; stroke: #70a800"/>
    <path d="M 221.119918 214.46453 
L 221.119918 220.883218 
" clip-path="url(#pa0d9e33137)" style="fill: none; stroke: #70a800"/>
    <path d="M 235.000898 208.687711 
L 235.000898 220.883218 
" clip-path="url(#pa0d9e33137)" style="fill: none; stroke: #ea0070"/>
    <path d="M 248.881879 149.314848 
L 248.881879 227.943774 
" clip-path="url(#pa0d9e33137)" style="fill: none; stroke: #ea0070"/>
    <path d="M 262.76286 275.442065 
L 262.76286 277.367671 
" clip-path="url(#pa0d9e33137)" style="fill: none; stroke: #70a800"/>
    <path d="M 276.64384 263.888427 
L 276.64384 267.73964 
" clip-path="url(#pa0d9e33137)" style="fill: none; stroke: #70a800"/>
    <path d="M 290.524821 261.96282 
L 290.524821 267.73964 
" clip-path="url(#pa0d9e33137)" style="fill: none; stroke: #ea0070"/>
    <path d="M 304.405802 259.395345 
L 304.405802 269.023377 
" clip-path="url(#pa0d9e33137)" style="fill: none; stroke: #70a800"/>
    <path d="M 318.286782 264.530296 
L 318.286782 269.023377 
" clip-path="url(#pa0d9e33137)" style="fill: none; stroke: #ea0070"/>
    <path d="M 332.167763 274.800196 
L 332.167763 278.00954 
" clip-path="url(#pa0d9e33137)" style="fill: none; stroke: #ea0070"/>
    <path d="M 346.048744 267.73964 
L 346.048744 272.232721 
" clip-path="url(#pa0d9e33137)" style="fill: none; stroke: #70a800"/>
    <path d="M 359.929724 271.590852 
L 359.929724 272.232721 
" clip-path="url(#pa0d9e33137)" style="fill: none; stroke: #ea0070"/>
    <path d="M 373.810705 268.381508 
L 373.810705 269.023377 
" clip-path="url(#pa0d9e33137)" style="fill: none; stroke: #70a800"/>
    <path d="M 387.691686 233.720594 
L 387.691686 242.064888 
" clip-path="url(#pa0d9e33137)" style="fill: none; stroke: #70a800"/>
    <path d="M 401.572666 221.525087 
L 401.572666 242.064888 
" clip-path="url(#pa0d9e33137)" style="fill: none; stroke: #ea0070"/>
    <path d="M 415.453647 252.976657 
L 415.453647 258.111608 
" clip-path="url(#pa0d9e33137)" style="fill: none; stroke: #70a800"/>
    <path d="M 429.334628 126.528506 
L 429.334628 132.947193 
" clip-path="url(#pa0d9e33137)" style="fill: none; stroke: #70a800"/>
    <path d="M 443.215609 113.69113 
L 443.215609 132.947193 
" clip-path="url(#pa0d9e33137)" style="fill: none; stroke: #ea0070"/>
    <path d="M 457.096589 82.881428 
L 457.096589 83.523297 
" clip-path="url(#pa0d9e33137)" style="fill: none; stroke: #70a800"/>
    <path d="M 470.97757 68.760314 
L 470.97757 83.523297 
" clip-path="url(#pa0d9e33137)" style="fill: none; stroke: #ea0070"/>
    <path d="M 484.858551 44.3693 
L 484.858551 51.429857 
" clip-path="url(#pa0d9e33137)" style="fill: none; stroke: #70a800"/>
   </g>
   <g id="patch_3">
    <path d="M 135 320.4 
L 135 43.2 
" style="fill: none; stroke: #000000; stroke-width: 0.8; stroke-linejoin: miter; stroke-linecap: square"/>
   </g>
   <g id="patch_4">
    <path d="M 515.454545 320.4 
L 515.454545 43.2 
" style="fill: none; stroke: #000000; stroke-width: 0.8; stroke-linejoin: miter; stroke-linecap: square"/>
   </g>
   <g id="patch_5">
    <path d="M 135 320.4 
L 515.454545 320.4 
" style="fill: none; stroke: #000000; stroke-width: 0.8; stroke-linejoin: miter; stroke-linecap: square"/>
   </g>
   <g id="patch_6">
    <path d="M 135 43.2 
L 515.454545 43.2 
" style="fill: none; stroke: #000000; stroke-width: 0.8; stroke-linejoin: miter; stroke-linecap: square"/>
   </g>
   <g id="text_15">
    <!-- Actual -->
    <g transform="translate(306.430398 37.2) scale(0.12 -0.12)">
     <defs>
      <path id="DejaVuSans-41" d="M 2188 4044 
L 1331 1722 
L 3047 1722 
L 2188 4044 
z
M 1831 4666 
L 2547 4666 
L 4325 0 
L 3669 0 
L 3244 1197 
L 1141 1197 
L 716 0 
L 50 0 
L 1831 4666 
z
" transform="scale(0.015625)"/>
      <path id="DejaVuSans-74" d="M 1172 4494 
L 1172 3500 
L 2356 3500 
L 2356 3053 
L 1172 3053 
L 1172 1153 
Q 1172 725 1289 603 
Q 1406 481 1766 481 
L 2356 481 
L 2356 0 
L 1766 0 
Q 1100 0 847 248 
Q 594 497 594 1153 
L 594 3053 
L 172 3053 
L 172 3500 
L 594 3500 
L 594 4494 
L 1172 4494 
z
" transform="scale(0.015625)"/>
      <path id="DejaVuSans-75" d="M 544 1381 
L 544 3500 
L 1119 3500 
L 1119 1403 
Q 1119 906 1312 657 
Q 1506 409 1894 409 
Q 2359 409 2629 706 
Q 2900 1003 2900 1516 
L 2900 3500 
L 3475 3500 
L 3475 0 
L 2900 0 
L 2900 538 
Q 2691 219 2414 64 
Q 2138 -91 1772 -91 
Q 1169 -91 856 284 
Q 544 659 544 1381 
z
M 1991 3584 
L 1991 3584 
z
" transform="scale(0.015625)"/>
      <path id="DejaVuSans-61" d="M 2194 1759 
Q 1497 1759 1228 1600 
Q 959 1441 959 1056 
Q 959 750 1161 570 
Q 1363 391 1709 391 
Q 2188 391 2477 730 
Q 2766 1069 2766 1631 
L 2766 1759 
L 2194 1759 
z
M 3341 1997 
L 3341 0 
L 2766 0 
L 2766 531 
Q 2569 213 2275 61 
Q 1981 -91 1556 -91 
Q 1019 -91 701 211 
Q 384 513 384 1019 
Q 384 1609 779 1909 
Q 1175 2209 1959 2209 
L 2766 2209 
L 2766 2266 
Q 2766 2663 2505 2880 
Q 2244 3097 1772 3097 
Q 1472 3097 1187 3025 
Q 903 2953 641 2809 
L 641 3341 
Q 956 3463 1253 3523 
Q 1550 3584 1831 3584 
Q 2591 3584 2966 3190 
Q 3341 2797 3341 1997 
z
" transform="scale(0.015625)"/>
      <path id="DejaVuSans-6c" d="M 603 4863 
L 1178 4863 
L 1178 0 
L 603 0 
L 603 4863 
z
" transform="scale(0.015625)"/>
     </defs>
     <use xlink:href="#DejaVuSans-41"/>
     <use xlink:href="#DejaVuSans-63" x="66.658203"/>
     <use xlink:href="#DejaVuSans-74" x="121.638672"/>
     <use xlink:href="#DejaVuSans-75" x="160.847656"/>
     <use xlink:href="#DejaVuSans-61" x="224.226562"/>
     <use xlink:href="#DejaVuSans-6c" x="285.505859"/>
    </g>
   </g>
  </g>
  <g id="axes_2">
   <g id="patch_7">
    <path d="M 591.545455 320.4 
L 972 320.4 
L 972 43.2 
L 591.545455 43.2 
z
" style="fill: #ffffff"/>
   </g>
   <g id="matplotlib.axis_3">
    <g id="xtick_7">
     <g id="line2d_15">
      <g>
       <use xlink:href="#mcc5df5843e" x="622.141449" y="320.4" style="stroke: #000000; stroke-width: 0.8"/>
      </g>
     </g>
     <g id="text_16">
      <!-- 00:00 -->
      <g transform="translate(613.903655 353.15084) rotate(-45) scale(0.1 -0.1)">
       <use xlink:href="#DejaVuSans-30"/>
       <use xlink:href="#DejaVuSans-30" x="63.623047"/>
       <use xlink:href="#DejaVuSans-3a" x="127.246094"/>
       <use xlink:href="#DejaVuSans-30" x="160.9375"/>
       <use xlink:href="#DejaVuSans-30" x="224.560547"/>
      </g>
     </g>
    </g>
    <g id="xtick_8">
     <g id="line2d_16">
      <g>
       <use xlink:href="#mcc5df5843e" x="691.546353" y="320.4" style="stroke: #000000; stroke-width: 0.8"/>
      </g>
     </g>
     <g id="text_17">
      <!-- 05:00 -->
      <g transform="translate(683.308559 353.15084) rotate(-45) scale(0.1 -0.1)">
       <use xlink:href="#DejaVuSans-30"/>
       <use xlink:href="#DejaVuSans-35" x="63.623047"/>
       <use xlink:href="#DejaVuSans-3a" x="127.246094"/>
       <use xlink:href="#DejaVuSans-30" x="160.9375"/>
       <use xlink:href="#DejaVuSans-30" x="224.560547"/>
      </g>
     </g>
    </g>
    <g id="xtick_9">
     <g id="line2d_17">
      <g>
       <use xlink:href="#mcc5df5843e" x="760.951256" y="320.4" style="stroke: #000000; stroke-width: 0.8"/>
      </g>
     </g>
     <g id="text_18">
      <!-- 10:00 -->
      <g transform="translate(752.713462 353.15084) rotate(-45) scale(0.1 -0.1)">
       <use xlink:href="#DejaVuSans-31"/>
       <use xlink:href="#DejaVuSans-30" x="63.623047"/>
       <use xlink:href="#DejaVuSans-3a" x="127.246094"/>
       <use xlink:href="#DejaVuSans-30" x="160.9375"/>
       <use xlink:href="#DejaVuSans-30" x="224.560547"/>
      </g>
     </g>
    </g>
    <g id="xtick_10">
     <g id="line2d_18">
      <g>
       <use xlink:href="#mcc5df5843e" x="830.35616" y="320.4" style="stroke: #000000; stroke-width: 0.8"/>
      </g>
     </g>
     <g id="text_19">
      <!-- 15:00 -->
      <g transform="translate(822.118366 353.15084) rotate(-45) scale(0.1 -0.1)">
       <use xlink:href="#DejaVuSans-31"/>
       <use xlink:href="#DejaVuSans-35" x="63.623047"/>
       <use xlink:href="#DejaVuSans-3a" x="127.246094"/>
       <use xlink:href="#DejaVuSans-30" x="160.9375"/>
       <use xlink:href="#DejaVuSans-30" x="224.560547"/>
      </g>
     </g>
    </g>
    <g id="xtick_11">
     <g id="line2d_19">
      <g>
       <use xlink:href="#mcc5df5843e" x="899.761063" y="320.4" style="stroke: #000000; stroke-width: 0.8"/>
      </g>
     </g>
     <g id="text_20">
      <!-- 20:00 -->
      <g transform="translate(891.523269 353.15084) rotate(-45) scale(0.1 -0.1)">
       <use xlink:href="#DejaVuSans-32"/>
       <use xlink:href="#DejaVuSans-30" x="63.623047"/>
       <use xlink:href="#DejaVuSans-3a" x="127.246094"/>
       <use xlink:href="#DejaVuSans-30" x="160.9375"/>
       <use xlink:href="#DejaVuSans-30" x="224.560547"/>
      </g>
     </g>
    </g>
    <g id="xtick_12">
     <g id="line2d_20">
      <g>
       <use xlink:href="#mcc5df5843e" x="969.165966" y="320.4" style="stroke: #000000; stroke-width: 0.8"/>
      </g>
     </g>
    </g>
   </g>
   <g id="matplotlib.axis_4">
    <g id="ytick_9">
     <g id="line2d_21">
      <g>
       <use xlink:href="#m1bd2fc0ed1" x="591.545455" y="290.525982" style="stroke: #000000; stroke-width: 0.8"/>
      </g>
     </g>
     <g id="text_21">
      <!-- 0.465 -->
      <g transform="translate(555.91733 294.3252) scale(0.1 -0.1)">
       <use xlink:href="#DejaVuSans-30"/>
       <use xlink:href="#DejaVuSans-2e" x="63.623047"/>
       <use xlink:href="#DejaVuSans-34" x="95.410156"/>
       <use xlink:href="#DejaVuSans-36" x="159.033203"/>
       <use xlink:href="#DejaVuSans-35" x="222.65625"/>
      </g>
     </g>
    </g>
    <g id="ytick_10">
     <g id="line2d_22">
      <g>
       <use xlink:href="#m1bd2fc0ed1" x="591.545455" y="258.432542" style="stroke: #000000; stroke-width: 0.8"/>
      </g>
     </g>
     <g id="text_22">
      <!-- 0.470 -->
      <g transform="translate(555.91733 262.231761) scale(0.1 -0.1)">
       <use xlink:href="#DejaVuSans-30"/>
       <use xlink:href="#DejaVuSans-2e" x="63.623047"/>
       <use xlink:href="#DejaVuSans-34" x="95.410156"/>
       <use xlink:href="#DejaVuSans-37" x="159.033203"/>
       <use xlink:href="#DejaVuSans-30" x="222.65625"/>
      </g>
     </g>
    </g>
    <g id="ytick_11">
     <g id="line2d_23">
      <g>
       <use xlink:href="#m1bd2fc0ed1" x="591.545455" y="226.339103" style="stroke: #000000; stroke-width: 0.8"/>
      </g>
     </g>
     <g id="text_23">
      <!-- 0.475 -->
      <g transform="translate(555.91733 230.138321) scale(0.1 -0.1)">
       <use xlink:href="#DejaVuSans-30"/>
       <use xlink:href="#DejaVuSans-2e" x="63.623047"/>
       <use xlink:href="#DejaVuSans-34" x="95.410156"/>
       <use xlink:href="#DejaVuSans-37" x="159.033203"/>
       <use xlink:href="#DejaVuSans-35" x="222.65625"/>
      </g>
     </g>
    </g>
    <g id="ytick_12">
     <g id="line2d_24">
      <g>
       <use xlink:href="#m1bd2fc0ed1" x="591.545455" y="194.245663" style="stroke: #000000; stroke-width: 0.8"/>
      </g>
     </g>
     <g id="text_24">
      <!-- 0.480 -->
      <g transform="translate(555.91733 198.044882) scale(0.1 -0.1)">
       <use xlink:href="#DejaVuSans-30"/>
       <use xlink:href="#DejaVuSans-2e" x="63.623047"/>
       <use xlink:href="#DejaVuSans-34" x="95.410156"/>
       <use xlink:href="#DejaVuSans-38" x="159.033203"/>
       <use xlink:href="#DejaVuSans-30" x="222.65625"/>
      </g>
     </g>
    </g>
    <g id="ytick_13">
     <g id="line2d_25">
      <g>
       <use xlink:href="#m1bd2fc0ed1" x="591.545455" y="162.152223" style="stroke: #000000; stroke-width: 0.8"/>
      </g>
     </g>
     <g id="text_25">
      <!-- 0.485 -->
      <g transform="translate(555.91733 165.951442) scale(0.1 -0.1)">
       <use xlink:href="#DejaVuSans-30"/>
       <use xlink:href="#DejaVuSans-2e" x="63.623047"/>
       <use xlink:href="#DejaVuSans-34" x="95.410156"/>
       <use xlink:href="#DejaVuSans-38" x="159.033203"/>
       <use xlink:href="#DejaVuSans-35" x="222.65625"/>
      </g>
     </g>
    </g>
    <g id="ytick_14">
     <g id="line2d_26">
      <g>
       <use xlink:href="#m1bd2fc0ed1" x="591.545455" y="130.058784" style="stroke: #000000; stroke-width: 0.8"/>
      </g>
     </g>
     <g id="text_26">
      <!-- 0.490 -->
      <g transform="translate(555.91733 133.858003) scale(0.1 -0.1)">
       <use xlink:href="#DejaVuSans-30"/>
       <use xlink:href="#DejaVuSans-2e" x="63.623047"/>
       <use xlink:href="#DejaVuSans-34" x="95.410156"/>
       <use xlink:href="#DejaVuSans-39" x="159.033203"/>
       <use xlink:href="#DejaVuSans-30" x="222.65625"/>
      </g>
     </g>
    </g>
    <g id="ytick_15">
     <g id="line2d_27">
      <g>
       <use xlink:href="#m1bd2fc0ed1" x="591.545455" y="97.965344" style="stroke: #000000; stroke-width: 0.8"/>
      </g>
     </g>
     <g id="text_27">
      <!-- 0.495 -->
      <g transform="translate(555.91733 101.764563) scale(0.1 -0.1)">
       <use xlink:href="#DejaVuSans-30"/>
       <use xlink:href="#DejaVuSans-2e" x="63.623047"/>
       <use xlink:href="#DejaVuSans-34" x="95.410156"/>
       <use xlink:href="#DejaVuSans-39" x="159.033203"/>
       <use xlink:href="#DejaVuSans-35" x="222.65625"/>
      </g>
     </g>
    </g>
    <g id="ytick_16">
     <g id="line2d_28">
      <g>
       <use xlink:href="#m1bd2fc0ed1" x="591.545455" y="65.871905" style="stroke: #000000; stroke-width: 0.8"/>
      </g>
     </g>
     <g id="text_28">
      <!-- 0.500 -->
      <g transform="translate(555.91733 69.671124) scale(0.1 -0.1)">
       <use xlink:href="#DejaVuSans-30"/>
       <use xlink:href="#DejaVuSans-2e" x="63.623047"/>
       <use xlink:href="#DejaVuSans-35" x="95.410156"/>
       <use xlink:href="#DejaVuSans-30" x="159.033203"/>
       <use xlink:href="#DejaVuSans-30" x="222.65625"/>
      </g>
     </g>
    </g>
    <g id="text_29">
     <!-- Price -->
     <g transform="translate(549.837642 193.997656) rotate(-90) scale(0.1 -0.1)">
      <use xlink:href="#DejaVuSans-50"/>
      <use xlink:href="#DejaVuSans-72" x="58.552734"/>
      <use xlink:href="#DejaVuSans-69" x="99.666016"/>
      <use xlink:href="#DejaVuSans-63" x="127.449219"/>
      <use xlink:href="#DejaVuSans-65" x="182.429688"/>
     </g>
    </g>
   </g>
   <g id="PolyCollection_2">
    <path d="M 617.630131 277.007175 
L 617.630131 279.776316 
L 626.652768 279.776316 
L 626.652768 277.007175 
z
" clip-path="url(#p1eaa93289d)" style="fill: #ea0070; fill-opacity: 0.9; stroke: #ea0070"/>
    <path d="M 631.511111 280.390171 
L 631.511111 287.843091 
L 640.533749 287.843091 
L 640.533749 280.390171 
z
" clip-path="url(#p1eaa93289d)" style="fill: #ea0070; fill-opacity: 0.9; stroke: #ea0070"/>
    <path d="M 645.392092 288.280193 
L 645.392092 265.657259 
L 654.41473 265.657259 
L 654.41473 288.280193 
z
" clip-path="url(#p1eaa93289d)" style="fill: #70a800; fill-opacity: 0.9; stroke: #70a800"/>
    <path d="M 659.273073 264.750727 
L 659.273073 258.105058 
L 668.29571 258.105058 
L 668.29571 264.750727 
z
" clip-path="url(#p1eaa93289d)" style="fill: #70a800; fill-opacity: 0.9; stroke: #70a800"/>
    <path d="M 673.154053 255.953599 
L 673.154053 220.872212 
L 682.176691 220.872212 
L 682.176691 255.953599 
z
" clip-path="url(#p1eaa93289d)" style="fill: #70a800; fill-opacity: 0.9; stroke: #70a800"/>
    <path d="M 687.035034 221.088372 
L 687.035034 227.929158 
L 696.057672 227.929158 
L 696.057672 221.088372 
z
" clip-path="url(#p1eaa93289d)" style="fill: #ea0070; fill-opacity: 0.9; stroke: #ea0070"/>
    <path d="M 700.916015 228.63866 
L 700.916015 309.33396 
L 709.938652 309.33396 
L 709.938652 228.63866 
z
" clip-path="url(#p1eaa93289d)" style="fill: #ea0070; fill-opacity: 0.9; stroke: #ea0070"/>
    <path d="M 714.796995 308.342112 
L 714.796995 277.397411 
L 723.819633 277.397411 
L 723.819633 308.342112 
z
" clip-path="url(#p1eaa93289d)" style="fill: #70a800; fill-opacity: 0.9; stroke: #70a800"/>
    <path d="M 728.677976 277.337154 
L 728.677976 266.840398 
L 737.700614 266.840398 
L 737.700614 277.337154 
z
" clip-path="url(#p1eaa93289d)" style="fill: #70a800; fill-opacity: 0.9; stroke: #70a800"/>
    <path d="M 742.558957 267.162725 
L 742.558957 280.430916 
L 751.581594 280.430916 
L 751.581594 267.162725 
z
" clip-path="url(#p1eaa93289d)" style="fill: #ea0070; fill-opacity: 0.9; stroke: #ea0070"/>
    <path d="M 756.439938 279.977937 
L 756.439938 271.535273 
L 765.462575 271.535273 
L 765.462575 279.977937 
z
" clip-path="url(#p1eaa93289d)" style="fill: #70a800; fill-opacity: 0.9; stroke: #70a800"/>
    <path d="M 770.320918 266.6778 
L 770.320918 278.935971 
L 779.343556 278.935971 
L 779.343556 266.6778 
z
" clip-path="url(#p1eaa93289d)" style="fill: #ea0070; fill-opacity: 0.9; stroke: #ea0070"/>
    <path d="M 784.201899 276.47481 
L 784.201899 290.976451 
L 793.224536 290.976451 
L 793.224536 276.47481 
z
" clip-path="url(#p1eaa93289d)" style="fill: #ea0070; fill-opacity: 0.9; stroke: #ea0070"/>
    <path d="M 798.08288 284.853965 
L 798.08288 271.646414 
L 807.105517 271.646414 
L 807.105517 284.853965 
z
" clip-path="url(#p1eaa93289d)" style="fill: #70a800; fill-opacity: 0.9; stroke: #70a800"/>
    <path d="M 811.96386 272.143007 
L 811.96386 287.455343 
L 820.986498 287.455343 
L 820.986498 272.143007 
z
" clip-path="url(#p1eaa93289d)" style="fill: #ea0070; fill-opacity: 0.9; stroke: #ea0070"/>
    <path d="M 825.844841 286.658803 
L 825.844841 268.19857 
L 834.867478 268.19857 
L 834.867478 286.658803 
z
" clip-path="url(#p1eaa93289d)" style="fill: #70a800; fill-opacity: 0.9; stroke: #70a800"/>
    <path d="M 839.725822 268.680817 
L 839.725822 243.317628 
L 848.748459 243.317628 
L 848.748459 268.680817 
z
" clip-path="url(#p1eaa93289d)" style="fill: #70a800; fill-opacity: 0.9; stroke: #70a800"/>
    <path d="M 853.606802 242.793679 
L 853.606802 266.125924 
L 862.62944 266.125924 
L 862.62944 242.793679 
z
" clip-path="url(#p1eaa93289d)" style="fill: #ea0070; fill-opacity: 0.9; stroke: #ea0070"/>
    <path d="M 867.487783 266.072936 
L 867.487783 257.101924 
L 876.51042 257.101924 
L 876.51042 266.072936 
z
" clip-path="url(#p1eaa93289d)" style="fill: #70a800; fill-opacity: 0.9; stroke: #70a800"/>
    <path d="M 881.368764 258.441158 
L 881.368764 133.652139 
L 890.391401 133.652139 
L 890.391401 258.441158 
z
" clip-path="url(#p1eaa93289d)" style="fill: #70a800; fill-opacity: 0.9; stroke: #70a800"/>
    <path d="M 895.249744 132.805482 
L 895.249744 136.347823 
L 904.272382 136.347823 
L 904.272382 132.805482 
z
" clip-path="url(#p1eaa93289d)" style="fill: #ea0070; fill-opacity: 0.9; stroke: #ea0070"/>
    <path d="M 909.130725 135.875524 
L 909.130725 85.990829 
L 918.153362 85.990829 
L 918.153362 135.875524 
z
" clip-path="url(#p1eaa93289d)" style="fill: #70a800; fill-opacity: 0.9; stroke: #70a800"/>
    <path d="M 923.011706 86.268011 
L 923.011706 86.526829 
L 932.034343 86.526829 
L 932.034343 86.268011 
z
" clip-path="url(#p1eaa93289d)" style="fill: #ea0070; fill-opacity: 0.9; stroke: #ea0070"/>
    <path d="M 936.892686 86.862737 
L 936.892686 57.044171 
L 945.915324 57.044171 
L 945.915324 86.862737 
z
" clip-path="url(#p1eaa93289d)" style="fill: #70a800; fill-opacity: 0.9; stroke: #70a800"/>
   </g>
   <g id="LineCollection_2">
    <path d="M 622.141449 290.761821 
L 622.141449 279.776316 
" clip-path="url(#p1eaa93289d)" style="fill: none; stroke: #ea0070"/>
    <path d="M 636.02243 316.909498 
L 636.02243 287.843091 
" clip-path="url(#p1eaa93289d)" style="fill: none; stroke: #ea0070"/>
    <path d="M 649.903411 289.838456 
L 649.903411 288.280193 
" clip-path="url(#p1eaa93289d)" style="fill: none; stroke: #70a800"/>
    <path d="M 663.784391 268.269157 
L 663.784391 264.750727 
" clip-path="url(#p1eaa93289d)" style="fill: none; stroke: #70a800"/>
    <path d="M 677.665372 259.013885 
L 677.665372 255.953599 
" clip-path="url(#p1eaa93289d)" style="fill: none; stroke: #70a800"/>
    <path d="M 691.546353 230.327766 
L 691.546353 227.929158 
" clip-path="url(#p1eaa93289d)" style="fill: none; stroke: #ea0070"/>
    <path d="M 705.427334 320.4 
L 705.427334 309.33396 
" clip-path="url(#p1eaa93289d)" style="fill: none; stroke: #ea0070"/>
    <path d="M 719.308314 314.447955 
L 719.308314 308.342112 
" clip-path="url(#p1eaa93289d)" style="fill: none; stroke: #70a800"/>
    <path d="M 733.189295 280.750373 
L 733.189295 277.337154 
" clip-path="url(#p1eaa93289d)" style="fill: none; stroke: #70a800"/>
    <path d="M 747.070276 281.237402 
L 747.070276 280.430916 
" clip-path="url(#p1eaa93289d)" style="fill: none; stroke: #ea0070"/>
    <path d="M 760.951256 283.444336 
L 760.951256 279.977937 
" clip-path="url(#p1eaa93289d)" style="fill: none; stroke: #70a800"/>
    <path d="M 774.832237 282.292377 
L 774.832237 278.935971 
" clip-path="url(#p1eaa93289d)" style="fill: none; stroke: #ea0070"/>
    <path d="M 788.713218 293.993314 
L 788.713218 290.976451 
" clip-path="url(#p1eaa93289d)" style="fill: none; stroke: #ea0070"/>
    <path d="M 802.594198 294.47097 
L 802.594198 284.853965 
" clip-path="url(#p1eaa93289d)" style="fill: none; stroke: #70a800"/>
    <path d="M 816.475179 298.300058 
L 816.475179 287.455343 
" clip-path="url(#p1eaa93289d)" style="fill: none; stroke: #ea0070"/>
    <path d="M 830.35616 294.263035 
L 830.35616 286.658803 
" clip-path="url(#p1eaa93289d)" style="fill: none; stroke: #70a800"/>
    <path d="M 844.23714 272.501679 
L 844.23714 268.680817 
" clip-path="url(#p1eaa93289d)" style="fill: none; stroke: #70a800"/>
    <path d="M 858.118121 280.441437 
L 858.118121 266.125924 
" clip-path="url(#p1eaa93289d)" style="fill: none; stroke: #ea0070"/>
    <path d="M 871.999102 271.505814 
L 871.999102 266.072936 
" clip-path="url(#p1eaa93289d)" style="fill: none; stroke: #70a800"/>
    <path d="M 885.880082 263.998185 
L 885.880082 258.441158 
" clip-path="url(#p1eaa93289d)" style="fill: none; stroke: #70a800"/>
    <path d="M 899.761063 174.915121 
L 899.761063 136.347823 
" clip-path="url(#p1eaa93289d)" style="fill: none; stroke: #ea0070"/>
    <path d="M 913.642044 165.336758 
L 913.642044 135.875524 
" clip-path="url(#p1eaa93289d)" style="fill: none; stroke: #70a800"/>
    <path d="M 927.523024 107.609099 
L 927.523024 86.526829 
" clip-path="url(#p1eaa93289d)" style="fill: none; stroke: #ea0070"/>
    <path d="M 941.404005 147.553124 
L 941.404005 86.862737 
" clip-path="url(#p1eaa93289d)" style="fill: none; stroke: #70a800"/>
    <path d="M 622.141449 266.75776 
L 622.141449 277.007175 
" clip-path="url(#p1eaa93289d)" style="fill: none; stroke: #ea0070"/>
    <path d="M 636.02243 271.014194 
L 636.02243 280.390171 
" clip-path="url(#p1eaa93289d)" style="fill: none; stroke: #ea0070"/>
    <path d="M 649.903411 258.165315 
L 649.903411 265.657259 
" clip-path="url(#p1eaa93289d)" style="fill: none; stroke: #70a800"/>
    <path d="M 663.784391 246.679581 
L 663.784391 258.105058 
" clip-path="url(#p1eaa93289d)" style="fill: none; stroke: #70a800"/>
    <path d="M 677.665372 215.070906 
L 677.665372 220.872212 
" clip-path="url(#p1eaa93289d)" style="fill: none; stroke: #70a800"/>
    <path d="M 691.546353 208.44934 
L 691.546353 221.088372 
" clip-path="url(#p1eaa93289d)" style="fill: none; stroke: #ea0070"/>
    <path d="M 705.427334 191.106633 
L 705.427334 228.63866 
" clip-path="url(#p1eaa93289d)" style="fill: none; stroke: #ea0070"/>
    <path d="M 719.308314 274.51866 
L 719.308314 277.397411 
" clip-path="url(#p1eaa93289d)" style="fill: none; stroke: #70a800"/>
    <path d="M 733.189295 263.801919 
L 733.189295 266.840398 
" clip-path="url(#p1eaa93289d)" style="fill: none; stroke: #70a800"/>
    <path d="M 747.070276 262.574209 
L 747.070276 267.162725 
" clip-path="url(#p1eaa93289d)" style="fill: none; stroke: #ea0070"/>
    <path d="M 760.951256 259.009486 
L 760.951256 271.535273 
" clip-path="url(#p1eaa93289d)" style="fill: none; stroke: #70a800"/>
    <path d="M 774.832237 262.292436 
L 774.832237 266.6778 
" clip-path="url(#p1eaa93289d)" style="fill: none; stroke: #ea0070"/>
    <path d="M 788.713218 273.928716 
L 788.713218 276.47481 
" clip-path="url(#p1eaa93289d)" style="fill: none; stroke: #ea0070"/>
    <path d="M 802.594198 268.191492 
L 802.594198 271.646414 
" clip-path="url(#p1eaa93289d)" style="fill: none; stroke: #70a800"/>
    <path d="M 816.475179 271.470234 
L 816.475179 272.143007 
" clip-path="url(#p1eaa93289d)" style="fill: none; stroke: #ea0070"/>
    <path d="M 830.35616 267.936883 
L 830.35616 268.19857 
" clip-path="url(#p1eaa93289d)" style="fill: none; stroke: #70a800"/>
    <path d="M 844.23714 234.166993 
L 844.23714 243.317628 
" clip-path="url(#p1eaa93289d)" style="fill: none; stroke: #70a800"/>
    <path d="M 858.118121 221.969653 
L 858.118121 242.793679 
" clip-path="url(#p1eaa93289d)" style="fill: none; stroke: #ea0070"/>
    <path d="M 871.999102 252.70183 
L 871.999102 257.101924 
" clip-path="url(#p1eaa93289d)" style="fill: none; stroke: #70a800"/>
    <path d="M 885.880082 124.826892 
L 885.880082 133.652139 
" clip-path="url(#p1eaa93289d)" style="fill: none; stroke: #70a800"/>
    <path d="M 899.761063 112.491631 
L 899.761063 132.805482 
" clip-path="url(#p1eaa93289d)" style="fill: none; stroke: #ea0070"/>
    <path d="M 913.642044 81.223837 
L 913.642044 85.990829 
" clip-path="url(#p1eaa93289d)" style="fill: none; stroke: #70a800"/>
    <path d="M 927.523024 66.625403 
L 927.523024 86.268011 
" clip-path="url(#p1eaa93289d)" style="fill: none; stroke: #ea0070"/>
    <path d="M 941.404005 43.2 
L 941.404005 57.044171 
" clip-path="url(#p1eaa93289d)" style="fill: none; stroke: #70a800"/>
   </g>
   <g id="patch_8">
    <path d="M 591.545455 320.4 
L 591.545455 43.2 
" style="fill: none; stroke: #000000; stroke-width: 0.8; stroke-linejoin: miter; stroke-linecap: square"/>
   </g>
   <g id="patch_9">
    <path d="M 972 320.4 
L 972 43.2 
" style="fill: none; stroke: #000000; stroke-width: 0.8; stroke-linejoin: miter; stroke-linecap: square"/>
   </g>
   <g id="patch_10">
    <path d="M 591.545455 320.4 
L 972 320.4 
" style="fill: none; stroke: #000000; stroke-width: 0.8; stroke-linejoin: miter; stroke-linecap: square"/>
   </g>
   <g id="patch_11">
    <path d="M 591.545455 43.2 
L 972 43.2 
" style="fill: none; stroke: #000000; stroke-width: 0.8; stroke-linejoin: miter; stroke-linecap: square"/>
   </g>
   <g id="text_30">
    <!-- Predicted -->
    <g transform="translate(753.608352 37.2) scale(0.12 -0.12)">
     <defs>
      <path id="DejaVuSans-64" d="M 2906 2969 
L 2906 4863 
L 3481 4863 
L 3481 0 
L 2906 0 
L 2906 525 
Q 2725 213 2448 61 
Q 2172 -91 1784 -91 
Q 1150 -91 751 415 
Q 353 922 353 1747 
Q 353 2572 751 3078 
Q 1150 3584 1784 3584 
Q 2172 3584 2448 3432 
Q 2725 3281 2906 2969 
z
M 947 1747 
Q 947 1113 1208 752 
Q 1469 391 1925 391 
Q 2381 391 2643 752 
Q 2906 1113 2906 1747 
Q 2906 2381 2643 2742 
Q 2381 3103 1925 3103 
Q 1469 3103 1208 2742 
Q 947 2381 947 1747 
z
" transform="scale(0.015625)"/>
     </defs>
     <use xlink:href="#DejaVuSans-50"/>
     <use xlink:href="#DejaVuSans-72" x="58.552734"/>
     <use xlink:href="#DejaVuSans-65" x="97.416016"/>
     <use xlink:href="#DejaVuSans-64" x="158.939453"/>
     <use xlink:href="#DejaVuSans-69" x="222.416016"/>
     <use xlink:href="#DejaVuSans-63" x="250.199219"/>
     <use xlink:href="#DejaVuSans-74" x="305.179688"/>
     <use xlink:href="#DejaVuSans-65" x="344.388672"/>
     <use xlink:href="#DejaVuSans-64" x="405.912109"/>
    </g>
   </g>
  </g>
  <g id="text_31">
   <!-- MLP - ADA -->
   <g transform="translate(509.16 16.318125) scale(0.12 -0.12)">
    <defs>
     <path id="DejaVuSans-4d" d="M 628 4666 
L 1569 4666 
L 2759 1491 
L 3956 4666 
L 4897 4666 
L 4897 0 
L 4281 0 
L 4281 4097 
L 3078 897 
L 2444 897 
L 1241 4097 
L 1241 0 
L 628 0 
L 628 4666 
z
" transform="scale(0.015625)"/>
     <path id="DejaVuSans-4c" d="M 628 4666 
L 1259 4666 
L 1259 531 
L 3531 531 
L 3531 0 
L 628 0 
L 628 4666 
z
" transform="scale(0.015625)"/>
     <path id="DejaVuSans-20" transform="scale(0.015625)"/>
     <path id="DejaVuSans-2d" d="M 313 2009 
L 1997 2009 
L 1997 1497 
L 313 1497 
L 313 2009 
z
" transform="scale(0.015625)"/>
     <path id="DejaVuSans-44" d="M 1259 4147 
L 1259 519 
L 2022 519 
Q 2988 519 3436 956 
Q 3884 1394 3884 2338 
Q 3884 3275 3436 3711 
Q 2988 4147 2022 4147 
L 1259 4147 
z
M 628 4666 
L 1925 4666 
Q 3281 4666 3915 4102 
Q 4550 3538 4550 2338 
Q 4550 1131 3912 565 
Q 3275 0 1925 0 
L 628 0 
L 628 4666 
z
" transform="scale(0.015625)"/>
    </defs>
    <use xlink:href="#DejaVuSans-4d"/>
    <use xlink:href="#DejaVuSans-4c" x="86.279297"/>
    <use xlink:href="#DejaVuSans-50" x="141.992188"/>
    <use xlink:href="#DejaVuSans-20" x="202.294922"/>
    <use xlink:href="#DejaVuSans-2d" x="234.082031"/>
    <use xlink:href="#DejaVuSans-20" x="270.166016"/>
    <use xlink:href="#DejaVuSans-41" x="301.953125"/>
    <use xlink:href="#DejaVuSans-44" x="370.361328"/>
    <use xlink:href="#DejaVuSans-41" x="445.613281"/>
   </g>
  </g>
 </g>
 <defs>
  <clipPath id="pa0d9e33137">
   <rect x="135" y="43.2" width="380.454545" height="277.2"/>
  </clipPath>
  <clipPath id="p1eaa93289d">
   <rect x="591.545455" y="43.2" width="380.454545" height="277.2"/>
  </clipPath>
 </defs>
</svg>
