<?xml version="1.0" encoding="utf-8" standalone="no"?>
<!DOCTYPE svg PUBLIC "-//W3C//DTD SVG 1.1//EN"
  "http://www.w3.org/Graphics/SVG/1.1/DTD/svg11.dtd">
<svg xmlns:xlink="http://www.w3.org/1999/xlink" width="1080pt" height="360pt" viewBox="0 0 1080 360" xmlns="http://www.w3.org/2000/svg" version="1.1">
 <metadata>
  <rdf:RDF xmlns:dc="http://purl.org/dc/elements/1.1/" xmlns:cc="http://creativecommons.org/ns#" xmlns:rdf="http://www.w3.org/1999/02/22-rdf-syntax-ns#">
   <cc:Work>
    <dc:type rdf:resource="http://purl.org/dc/dcmitype/StillImage"/>
    <dc:date>2024-06-03T20:17:58.044264</dc:date>
    <dc:format>image/svg+xml</dc:format>
    <dc:creator>
     <cc:Agent>
      <dc:title>Matplotlib v3.9.0, https://matplotlib.org/</dc:title>
     </cc:Agent>
    </dc:creator>
   </cc:Work>
  </rdf:RDF>
 </metadata>
 <defs>
  <style type="text/css">*{stroke-linejoin: round; stroke-linecap: butt}</style>
 </defs>
 <g id="figure_1">
  <g id="patch_1">
   <path d="M 0 360 
L 1080 360 
L 1080 0 
L 0 0 
z
" style="fill: #ffffff"/>
  </g>
  <g id="axes_1">
   <g id="patch_2">
    <path d="M 135 320.4 
L 515.454545 320.4 
L 515.454545 43.2 
L 135 43.2 
z
" style="fill: #ffffff"/>
   </g>
   <g id="matplotlib.axis_1">
    <g id="xtick_1">
     <g id="line2d_1">
      <path d="M 165.595995 320.4 
L 165.595995 43.2 
" clip-path="url(#p68367c9b50)" style="fill: none; stroke-dasharray: 2.96,1.28; stroke-dashoffset: 0; stroke: #d0d0d0; stroke-width: 0.8"/>
     </g>
     <g id="line2d_2"/>
     <g id="text_1">
      <!-- 00:00 -->
      <g style="fill: #262626" transform="translate(157.17369 351.20537) rotate(-45) scale(0.12 -0.12)">
       <defs>
        <path id="ArialMT-30" d="M 266 2259 
Q 266 3072 433 3567 
Q 600 4063 929 4331 
Q 1259 4600 1759 4600 
Q 2128 4600 2406 4451 
Q 2684 4303 2865 4023 
Q 3047 3744 3150 3342 
Q 3253 2941 3253 2259 
Q 3253 1453 3087 958 
Q 2922 463 2592 192 
Q 2263 -78 1759 -78 
Q 1097 -78 719 397 
Q 266 969 266 2259 
z
M 844 2259 
Q 844 1131 1108 757 
Q 1372 384 1759 384 
Q 2147 384 2411 759 
Q 2675 1134 2675 2259 
Q 2675 3391 2411 3762 
Q 2147 4134 1753 4134 
Q 1366 4134 1134 3806 
Q 844 3388 844 2259 
z
" transform="scale(0.015625)"/>
        <path id="ArialMT-3a" d="M 578 2678 
L 578 3319 
L 1219 3319 
L 1219 2678 
L 578 2678 
z
M 578 0 
L 578 641 
L 1219 641 
L 1219 0 
L 578 0 
z
" transform="scale(0.015625)"/>
       </defs>
       <use xlink:href="#ArialMT-30"/>
       <use xlink:href="#ArialMT-30" x="55.615234"/>
       <use xlink:href="#ArialMT-3a" x="111.230469"/>
       <use xlink:href="#ArialMT-30" x="139.013672"/>
       <use xlink:href="#ArialMT-30" x="194.628906"/>
      </g>
     </g>
    </g>
    <g id="xtick_2">
     <g id="line2d_3">
      <path d="M 235.000898 320.4 
L 235.000898 43.2 
" clip-path="url(#p68367c9b50)" style="fill: none; stroke-dasharray: 2.96,1.28; stroke-dashoffset: 0; stroke: #d0d0d0; stroke-width: 0.8"/>
     </g>
     <g id="line2d_4"/>
     <g id="text_2">
      <!-- 05:00 -->
      <g style="fill: #262626" transform="translate(226.578594 351.20537) rotate(-45) scale(0.12 -0.12)">
       <defs>
        <path id="ArialMT-35" d="M 266 1200 
L 856 1250 
Q 922 819 1161 601 
Q 1400 384 1738 384 
Q 2144 384 2425 690 
Q 2706 997 2706 1503 
Q 2706 1984 2436 2262 
Q 2166 2541 1728 2541 
Q 1456 2541 1237 2417 
Q 1019 2294 894 2097 
L 366 2166 
L 809 4519 
L 3088 4519 
L 3088 3981 
L 1259 3981 
L 1013 2750 
Q 1425 3038 1878 3038 
Q 2478 3038 2890 2622 
Q 3303 2206 3303 1553 
Q 3303 931 2941 478 
Q 2500 -78 1738 -78 
Q 1113 -78 717 272 
Q 322 622 266 1200 
z
" transform="scale(0.015625)"/>
       </defs>
       <use xlink:href="#ArialMT-30"/>
       <use xlink:href="#ArialMT-35" x="55.615234"/>
       <use xlink:href="#ArialMT-3a" x="111.230469"/>
       <use xlink:href="#ArialMT-30" x="139.013672"/>
       <use xlink:href="#ArialMT-30" x="194.628906"/>
      </g>
     </g>
    </g>
    <g id="xtick_3">
     <g id="line2d_5">
      <path d="M 304.405802 320.4 
L 304.405802 43.2 
" clip-path="url(#p68367c9b50)" style="fill: none; stroke-dasharray: 2.96,1.28; stroke-dashoffset: 0; stroke: #d0d0d0; stroke-width: 0.8"/>
     </g>
     <g id="line2d_6"/>
     <g id="text_3">
      <!-- 10:00 -->
      <g style="fill: #262626" transform="translate(295.983497 351.20537) rotate(-45) scale(0.12 -0.12)">
       <defs>
        <path id="ArialMT-31" d="M 2384 0 
L 1822 0 
L 1822 3584 
Q 1619 3391 1289 3197 
Q 959 3003 697 2906 
L 697 3450 
Q 1169 3672 1522 3987 
Q 1875 4303 2022 4600 
L 2384 4600 
L 2384 0 
z
" transform="scale(0.015625)"/>
       </defs>
       <use xlink:href="#ArialMT-31"/>
       <use xlink:href="#ArialMT-30" x="55.615234"/>
       <use xlink:href="#ArialMT-3a" x="111.230469"/>
       <use xlink:href="#ArialMT-30" x="139.013672"/>
       <use xlink:href="#ArialMT-30" x="194.628906"/>
      </g>
     </g>
    </g>
    <g id="xtick_4">
     <g id="line2d_7">
      <path d="M 373.810705 320.4 
L 373.810705 43.2 
" clip-path="url(#p68367c9b50)" style="fill: none; stroke-dasharray: 2.96,1.28; stroke-dashoffset: 0; stroke: #d0d0d0; stroke-width: 0.8"/>
     </g>
     <g id="line2d_8"/>
     <g id="text_4">
      <!-- 15:00 -->
      <g style="fill: #262626" transform="translate(365.3884 351.20537) rotate(-45) scale(0.12 -0.12)">
       <use xlink:href="#ArialMT-31"/>
       <use xlink:href="#ArialMT-35" x="55.615234"/>
       <use xlink:href="#ArialMT-3a" x="111.230469"/>
       <use xlink:href="#ArialMT-30" x="139.013672"/>
       <use xlink:href="#ArialMT-30" x="194.628906"/>
      </g>
     </g>
    </g>
    <g id="xtick_5">
     <g id="line2d_9">
      <path d="M 443.215609 320.4 
L 443.215609 43.2 
" clip-path="url(#p68367c9b50)" style="fill: none; stroke-dasharray: 2.96,1.28; stroke-dashoffset: 0; stroke: #d0d0d0; stroke-width: 0.8"/>
     </g>
     <g id="line2d_10"/>
     <g id="text_5">
      <!-- 20:00 -->
      <g style="fill: #262626" transform="translate(434.793304 351.20537) rotate(-45) scale(0.12 -0.12)">
       <defs>
        <path id="ArialMT-32" d="M 3222 541 
L 3222 0 
L 194 0 
Q 188 203 259 391 
Q 375 700 629 1000 
Q 884 1300 1366 1694 
Q 2113 2306 2375 2664 
Q 2638 3022 2638 3341 
Q 2638 3675 2398 3904 
Q 2159 4134 1775 4134 
Q 1369 4134 1125 3890 
Q 881 3647 878 3216 
L 300 3275 
Q 359 3922 746 4261 
Q 1134 4600 1788 4600 
Q 2447 4600 2831 4234 
Q 3216 3869 3216 3328 
Q 3216 3053 3103 2787 
Q 2991 2522 2730 2228 
Q 2469 1934 1863 1422 
Q 1356 997 1212 845 
Q 1069 694 975 541 
L 3222 541 
z
" transform="scale(0.015625)"/>
       </defs>
       <use xlink:href="#ArialMT-32"/>
       <use xlink:href="#ArialMT-30" x="55.615234"/>
       <use xlink:href="#ArialMT-3a" x="111.230469"/>
       <use xlink:href="#ArialMT-30" x="139.013672"/>
       <use xlink:href="#ArialMT-30" x="194.628906"/>
      </g>
     </g>
    </g>
    <g id="xtick_6">
     <g id="line2d_11">
      <path d="M 512.620512 320.4 
L 512.620512 43.2 
" clip-path="url(#p68367c9b50)" style="fill: none; stroke-dasharray: 2.96,1.28; stroke-dashoffset: 0; stroke: #d0d0d0; stroke-width: 0.8"/>
     </g>
     <g id="line2d_12"/>
    </g>
   </g>
   <g id="matplotlib.axis_2">
    <g id="ytick_1">
     <g id="line2d_13">
      <path d="M 135 306.494414 
L 515.454545 306.494414 
" clip-path="url(#p68367c9b50)" style="fill: none; stroke-dasharray: 2.96,1.28; stroke-dashoffset: 0; stroke: #d0d0d0; stroke-width: 0.8"/>
     </g>
     <g id="line2d_14"/>
     <g id="text_6">
      <!-- 60000 -->
      <g style="fill: #262626" transform="translate(98.134375 310.789102) scale(0.12 -0.12)">
       <defs>
        <path id="ArialMT-36" d="M 3184 3459 
L 2625 3416 
Q 2550 3747 2413 3897 
Q 2184 4138 1850 4138 
Q 1581 4138 1378 3988 
Q 1113 3794 959 3422 
Q 806 3050 800 2363 
Q 1003 2672 1297 2822 
Q 1591 2972 1913 2972 
Q 2475 2972 2870 2558 
Q 3266 2144 3266 1488 
Q 3266 1056 3080 686 
Q 2894 316 2569 119 
Q 2244 -78 1831 -78 
Q 1128 -78 684 439 
Q 241 956 241 2144 
Q 241 3472 731 4075 
Q 1159 4600 1884 4600 
Q 2425 4600 2770 4297 
Q 3116 3994 3184 3459 
z
M 888 1484 
Q 888 1194 1011 928 
Q 1134 663 1356 523 
Q 1578 384 1822 384 
Q 2178 384 2434 671 
Q 2691 959 2691 1453 
Q 2691 1928 2437 2201 
Q 2184 2475 1800 2475 
Q 1419 2475 1153 2201 
Q 888 1928 888 1484 
z
" transform="scale(0.015625)"/>
       </defs>
       <use xlink:href="#ArialMT-36"/>
       <use xlink:href="#ArialMT-30" x="55.615234"/>
       <use xlink:href="#ArialMT-30" x="111.230469"/>
       <use xlink:href="#ArialMT-30" x="166.845703"/>
       <use xlink:href="#ArialMT-30" x="222.460938"/>
      </g>
     </g>
    </g>
    <g id="ytick_2">
     <g id="line2d_15">
      <path d="M 135 257.388569 
L 515.454545 257.388569 
" clip-path="url(#p68367c9b50)" style="fill: none; stroke-dasharray: 2.96,1.28; stroke-dashoffset: 0; stroke: #d0d0d0; stroke-width: 0.8"/>
     </g>
     <g id="line2d_16"/>
     <g id="text_7">
      <!-- 65000 -->
      <g style="fill: #262626" transform="translate(98.134375 261.683257) scale(0.12 -0.12)">
       <use xlink:href="#ArialMT-36"/>
       <use xlink:href="#ArialMT-35" x="55.615234"/>
       <use xlink:href="#ArialMT-30" x="111.230469"/>
       <use xlink:href="#ArialMT-30" x="166.845703"/>
       <use xlink:href="#ArialMT-30" x="222.460938"/>
      </g>
     </g>
    </g>
    <g id="ytick_3">
     <g id="line2d_17">
      <path d="M 135 208.282725 
L 515.454545 208.282725 
" clip-path="url(#p68367c9b50)" style="fill: none; stroke-dasharray: 2.96,1.28; stroke-dashoffset: 0; stroke: #d0d0d0; stroke-width: 0.8"/>
     </g>
     <g id="line2d_18"/>
     <g id="text_8">
      <!-- 70000 -->
      <g style="fill: #262626" transform="translate(98.134375 212.577412) scale(0.12 -0.12)">
       <defs>
        <path id="ArialMT-37" d="M 303 3981 
L 303 4522 
L 3269 4522 
L 3269 4084 
Q 2831 3619 2401 2847 
Q 1972 2075 1738 1259 
Q 1569 684 1522 0 
L 944 0 
Q 953 541 1156 1306 
Q 1359 2072 1739 2783 
Q 2119 3494 2547 3981 
L 303 3981 
z
" transform="scale(0.015625)"/>
       </defs>
       <use xlink:href="#ArialMT-37"/>
       <use xlink:href="#ArialMT-30" x="55.615234"/>
       <use xlink:href="#ArialMT-30" x="111.230469"/>
       <use xlink:href="#ArialMT-30" x="166.845703"/>
       <use xlink:href="#ArialMT-30" x="222.460938"/>
      </g>
     </g>
    </g>
    <g id="ytick_4">
     <g id="line2d_19">
      <path d="M 135 159.17688 
L 515.454545 159.17688 
" clip-path="url(#p68367c9b50)" style="fill: none; stroke-dasharray: 2.96,1.28; stroke-dashoffset: 0; stroke: #d0d0d0; stroke-width: 0.8"/>
     </g>
     <g id="line2d_20"/>
     <g id="text_9">
      <!-- 75000 -->
      <g style="fill: #262626" transform="translate(98.134375 163.471567) scale(0.12 -0.12)">
       <use xlink:href="#ArialMT-37"/>
       <use xlink:href="#ArialMT-35" x="55.615234"/>
       <use xlink:href="#ArialMT-30" x="111.230469"/>
       <use xlink:href="#ArialMT-30" x="166.845703"/>
       <use xlink:href="#ArialMT-30" x="222.460938"/>
      </g>
     </g>
    </g>
    <g id="ytick_5">
     <g id="line2d_21">
      <path d="M 135 110.071035 
L 515.454545 110.071035 
" clip-path="url(#p68367c9b50)" style="fill: none; stroke-dasharray: 2.96,1.28; stroke-dashoffset: 0; stroke: #d0d0d0; stroke-width: 0.8"/>
     </g>
     <g id="line2d_22"/>
     <g id="text_10">
      <!-- 80000 -->
      <g style="fill: #262626" transform="translate(98.134375 114.365723) scale(0.12 -0.12)">
       <defs>
        <path id="ArialMT-38" d="M 1131 2484 
Q 781 2613 612 2850 
Q 444 3088 444 3419 
Q 444 3919 803 4259 
Q 1163 4600 1759 4600 
Q 2359 4600 2725 4251 
Q 3091 3903 3091 3403 
Q 3091 3084 2923 2848 
Q 2756 2613 2416 2484 
Q 2838 2347 3058 2040 
Q 3278 1734 3278 1309 
Q 3278 722 2862 322 
Q 2447 -78 1769 -78 
Q 1091 -78 675 323 
Q 259 725 259 1325 
Q 259 1772 486 2073 
Q 713 2375 1131 2484 
z
M 1019 3438 
Q 1019 3113 1228 2906 
Q 1438 2700 1772 2700 
Q 2097 2700 2305 2904 
Q 2513 3109 2513 3406 
Q 2513 3716 2298 3927 
Q 2084 4138 1766 4138 
Q 1444 4138 1231 3931 
Q 1019 3725 1019 3438 
z
M 838 1322 
Q 838 1081 952 856 
Q 1066 631 1291 507 
Q 1516 384 1775 384 
Q 2178 384 2440 643 
Q 2703 903 2703 1303 
Q 2703 1709 2433 1975 
Q 2163 2241 1756 2241 
Q 1359 2241 1098 1978 
Q 838 1716 838 1322 
z
" transform="scale(0.015625)"/>
       </defs>
       <use xlink:href="#ArialMT-38"/>
       <use xlink:href="#ArialMT-30" x="55.615234"/>
       <use xlink:href="#ArialMT-30" x="111.230469"/>
       <use xlink:href="#ArialMT-30" x="166.845703"/>
       <use xlink:href="#ArialMT-30" x="222.460938"/>
      </g>
     </g>
    </g>
    <g id="ytick_6">
     <g id="line2d_23">
      <path d="M 135 60.96519 
L 515.454545 60.96519 
" clip-path="url(#p68367c9b50)" style="fill: none; stroke-dasharray: 2.96,1.28; stroke-dashoffset: 0; stroke: #d0d0d0; stroke-width: 0.8"/>
     </g>
     <g id="line2d_24"/>
     <g id="text_11">
      <!-- 85000 -->
      <g style="fill: #262626" transform="translate(98.134375 65.259878) scale(0.12 -0.12)">
       <use xlink:href="#ArialMT-38"/>
       <use xlink:href="#ArialMT-35" x="55.615234"/>
       <use xlink:href="#ArialMT-30" x="111.230469"/>
       <use xlink:href="#ArialMT-30" x="166.845703"/>
       <use xlink:href="#ArialMT-30" x="222.460938"/>
      </g>
     </g>
    </g>
    <g id="text_12">
     <!-- Price -->
     <g style="fill: #262626" transform="translate(91.76625 196.4775) rotate(-90) scale(0.12 -0.12)">
      <defs>
       <path id="Arial-BoldMT-50" d="M 466 0 
L 466 4581 
L 1950 4581 
Q 2794 4581 3050 4513 
Q 3444 4409 3709 4064 
Q 3975 3719 3975 3172 
Q 3975 2750 3822 2462 
Q 3669 2175 3433 2011 
Q 3197 1847 2953 1794 
Q 2622 1728 1994 1728 
L 1391 1728 
L 1391 0 
L 466 0 
z
M 1391 3806 
L 1391 2506 
L 1897 2506 
Q 2444 2506 2628 2578 
Q 2813 2650 2917 2803 
Q 3022 2956 3022 3159 
Q 3022 3409 2875 3571 
Q 2728 3734 2503 3775 
Q 2338 3806 1838 3806 
L 1391 3806 
z
" transform="scale(0.015625)"/>
       <path id="Arial-BoldMT-72" d="M 1300 0 
L 422 0 
L 422 3319 
L 1238 3319 
L 1238 2847 
Q 1447 3181 1614 3287 
Q 1781 3394 1994 3394 
Q 2294 3394 2572 3228 
L 2300 2463 
Q 2078 2606 1888 2606 
Q 1703 2606 1575 2504 
Q 1447 2403 1373 2137 
Q 1300 1872 1300 1025 
L 1300 0 
z
" transform="scale(0.015625)"/>
       <path id="Arial-BoldMT-69" d="M 459 3769 
L 459 4581 
L 1338 4581 
L 1338 3769 
L 459 3769 
z
M 459 0 
L 459 3319 
L 1338 3319 
L 1338 0 
L 459 0 
z
" transform="scale(0.015625)"/>
       <path id="Arial-BoldMT-63" d="M 3353 2338 
L 2488 2181 
Q 2444 2441 2289 2572 
Q 2134 2703 1888 2703 
Q 1559 2703 1364 2476 
Q 1169 2250 1169 1719 
Q 1169 1128 1367 884 
Q 1566 641 1900 641 
Q 2150 641 2309 783 
Q 2469 925 2534 1272 
L 3397 1125 
Q 3263 531 2881 228 
Q 2500 -75 1859 -75 
Q 1131 -75 698 384 
Q 266 844 266 1656 
Q 266 2478 700 2936 
Q 1134 3394 1875 3394 
Q 2481 3394 2839 3133 
Q 3197 2872 3353 2338 
z
" transform="scale(0.015625)"/>
       <path id="Arial-BoldMT-65" d="M 2381 1056 
L 3256 909 
Q 3088 428 2723 176 
Q 2359 -75 1813 -75 
Q 947 -75 531 491 
Q 203 944 203 1634 
Q 203 2459 634 2926 
Q 1066 3394 1725 3394 
Q 2466 3394 2894 2905 
Q 3322 2416 3303 1406 
L 1103 1406 
Q 1113 1016 1316 798 
Q 1519 581 1822 581 
Q 2028 581 2168 693 
Q 2309 806 2381 1056 
z
M 2431 1944 
Q 2422 2325 2234 2523 
Q 2047 2722 1778 2722 
Q 1491 2722 1303 2513 
Q 1116 2303 1119 1944 
L 2431 1944 
z
" transform="scale(0.015625)"/>
      </defs>
      <use xlink:href="#Arial-BoldMT-50"/>
      <use xlink:href="#Arial-BoldMT-72" x="66.699219"/>
      <use xlink:href="#Arial-BoldMT-69" x="105.615234"/>
      <use xlink:href="#Arial-BoldMT-63" x="133.398438"/>
      <use xlink:href="#Arial-BoldMT-65" x="189.013672"/>
     </g>
    </g>
   </g>
   <g id="PolyCollection_1">
    <path d="M 161.084676 245.255988 
L 161.084676 243.359521 
L 170.107314 243.359521 
L 170.107314 245.255988 
z
" clip-path="url(#p68367c9b50)" style="fill: #70a800; fill-opacity: 0.9; stroke: #70a800"/>
    <path d="M 174.965657 243.359521 
L 174.965657 242.842927 
L 183.988294 242.842927 
L 183.988294 243.359521 
z
" clip-path="url(#p68367c9b50)" style="fill: #70a800; fill-opacity: 0.9; stroke: #70a800"/>
    <path d="M 188.846638 242.842927 
L 188.846638 241.196899 
L 197.869275 241.196899 
L 197.869275 242.842927 
z
" clip-path="url(#p68367c9b50)" style="fill: #70a800; fill-opacity: 0.9; stroke: #70a800"/>
    <path d="M 202.727618 241.196899 
L 202.727618 241.189042 
L 211.750256 241.189042 
L 211.750256 241.196899 
z
" clip-path="url(#p68367c9b50)" style="fill: #70a800; fill-opacity: 0.9; stroke: #70a800"/>
    <path d="M 216.608599 241.189042 
L 216.608599 236.559343 
L 225.631236 236.559343 
L 225.631236 241.189042 
z
" clip-path="url(#p68367c9b50)" style="fill: #70a800; fill-opacity: 0.9; stroke: #70a800"/>
    <path d="M 230.48958 236.559343 
L 230.48958 236.481756 
L 239.512217 236.481756 
L 239.512217 236.559343 
z
" clip-path="url(#p68367c9b50)" style="fill: #70a800; fill-opacity: 0.9; stroke: #70a800"/>
    <path d="M 244.37056 236.481756 
L 244.37056 243.814241 
L 253.393198 243.814241 
L 253.393198 236.481756 
z
" clip-path="url(#p68367c9b50)" style="fill: #ea0070; fill-opacity: 0.9; stroke: #ea0070"/>
    <path d="M 258.251541 243.814241 
L 258.251541 239.74042 
L 267.274178 239.74042 
L 267.274178 243.814241 
z
" clip-path="url(#p68367c9b50)" style="fill: #70a800; fill-opacity: 0.9; stroke: #70a800"/>
    <path d="M 272.132522 239.74042 
L 272.132522 240.323797 
L 281.155159 240.323797 
L 281.155159 239.74042 
z
" clip-path="url(#p68367c9b50)" style="fill: #ea0070; fill-opacity: 0.9; stroke: #ea0070"/>
    <path d="M 286.013502 240.323797 
L 286.013502 238.90562 
L 295.03614 238.90562 
L 295.03614 240.323797 
z
" clip-path="url(#p68367c9b50)" style="fill: #70a800; fill-opacity: 0.9; stroke: #70a800"/>
    <path d="M 299.894483 238.90562 
L 299.894483 236.828443 
L 308.91712 236.828443 
L 308.91712 238.90562 
z
" clip-path="url(#p68367c9b50)" style="fill: #70a800; fill-opacity: 0.9; stroke: #70a800"/>
    <path d="M 313.775464 236.828443 
L 313.775464 237.962788 
L 322.798101 237.962788 
L 322.798101 236.828443 
z
" clip-path="url(#p68367c9b50)" style="fill: #ea0070; fill-opacity: 0.9; stroke: #ea0070"/>
    <path d="M 327.656444 237.962788 
L 327.656444 238.665002 
L 336.679082 238.665002 
L 336.679082 237.962788 
z
" clip-path="url(#p68367c9b50)" style="fill: #ea0070; fill-opacity: 0.9; stroke: #ea0070"/>
    <path d="M 341.537425 238.665002 
L 341.537425 236.967904 
L 350.560062 236.967904 
L 350.560062 238.665002 
z
" clip-path="url(#p68367c9b50)" style="fill: #70a800; fill-opacity: 0.9; stroke: #70a800"/>
    <path d="M 355.418406 236.967904 
L 355.418406 237.961806 
L 364.441043 237.961806 
L 364.441043 236.967904 
z
" clip-path="url(#p68367c9b50)" style="fill: #ea0070; fill-opacity: 0.9; stroke: #ea0070"/>
    <path d="M 369.299386 237.961806 
L 369.299386 233.754417 
L 378.322024 233.754417 
L 378.322024 237.961806 
z
" clip-path="url(#p68367c9b50)" style="fill: #70a800; fill-opacity: 0.9; stroke: #70a800"/>
    <path d="M 383.180367 233.754417 
L 383.180367 226.059531 
L 392.203005 226.059531 
L 392.203005 233.754417 
z
" clip-path="url(#p68367c9b50)" style="fill: #70a800; fill-opacity: 0.9; stroke: #70a800"/>
    <path d="M 397.061348 226.059531 
L 397.061348 224.581445 
L 406.083985 224.581445 
L 406.083985 226.059531 
z
" clip-path="url(#p68367c9b50)" style="fill: #70a800; fill-opacity: 0.9; stroke: #70a800"/>
    <path d="M 410.942328 224.581445 
L 410.942328 220.701102 
L 419.964966 220.701102 
L 419.964966 224.581445 
z
" clip-path="url(#p68367c9b50)" style="fill: #70a800; fill-opacity: 0.9; stroke: #70a800"/>
    <path d="M 424.823309 220.701102 
L 424.823309 207.674303 
L 433.845947 207.674303 
L 433.845947 220.701102 
z
" clip-path="url(#p68367c9b50)" style="fill: #70a800; fill-opacity: 0.9; stroke: #70a800"/>
    <path d="M 438.70429 207.674303 
L 438.70429 212.798989 
L 447.726927 212.798989 
L 447.726927 207.674303 
z
" clip-path="url(#p68367c9b50)" style="fill: #ea0070; fill-opacity: 0.9; stroke: #ea0070"/>
    <path d="M 452.58527 212.798989 
L 452.58527 210.490032 
L 461.607908 210.490032 
L 461.607908 212.798989 
z
" clip-path="url(#p68367c9b50)" style="fill: #70a800; fill-opacity: 0.9; stroke: #70a800"/>
    <path d="M 466.466251 210.490032 
L 466.466251 211.228584 
L 475.488889 211.228584 
L 475.488889 210.490032 
z
" clip-path="url(#p68367c9b50)" style="fill: #ea0070; fill-opacity: 0.9; stroke: #ea0070"/>
    <path d="M 480.347232 211.228584 
L 480.347232 193.572087 
L 489.369869 193.572087 
L 489.369869 211.228584 
z
" clip-path="url(#p68367c9b50)" style="fill: #70a800; fill-opacity: 0.9; stroke: #70a800"/>
   </g>
   <g id="LineCollection_1">
    <path d="M 165.595995 246.445332 
L 165.595995 245.255988 
" clip-path="url(#p68367c9b50)" style="fill: none; stroke: #70a800"/>
    <path d="M 179.476976 247.228079 
L 179.476976 243.359521 
" clip-path="url(#p68367c9b50)" style="fill: none; stroke: #70a800"/>
    <path d="M 193.357956 242.972566 
L 193.357956 242.842927 
" clip-path="url(#p68367c9b50)" style="fill: none; stroke: #70a800"/>
    <path d="M 207.238937 242.204551 
L 207.238937 241.196899 
" clip-path="url(#p68367c9b50)" style="fill: none; stroke: #70a800"/>
    <path d="M 221.119918 241.764563 
L 221.119918 241.189042 
" clip-path="url(#p68367c9b50)" style="fill: none; stroke: #70a800"/>
    <path d="M 235.000898 237.401508 
L 235.000898 236.559343 
" clip-path="url(#p68367c9b50)" style="fill: none; stroke: #70a800"/>
    <path d="M 248.881879 245.017334 
L 248.881879 243.814241 
" clip-path="url(#p68367c9b50)" style="fill: none; stroke: #ea0070"/>
    <path d="M 262.76286 244.392707 
L 262.76286 243.814241 
" clip-path="url(#p68367c9b50)" style="fill: none; stroke: #70a800"/>
    <path d="M 276.64384 240.508926 
L 276.64384 240.323797 
" clip-path="url(#p68367c9b50)" style="fill: none; stroke: #ea0070"/>
    <path d="M 290.524821 240.422991 
L 290.524821 240.323797 
" clip-path="url(#p68367c9b50)" style="fill: none; stroke: #70a800"/>
    <path d="M 304.405802 239.218916 
L 304.405802 238.90562 
" clip-path="url(#p68367c9b50)" style="fill: none; stroke: #70a800"/>
    <path d="M 318.286782 238.844729 
L 318.286782 237.962788 
" clip-path="url(#p68367c9b50)" style="fill: none; stroke: #ea0070"/>
    <path d="M 332.167763 240.038001 
L 332.167763 238.665002 
" clip-path="url(#p68367c9b50)" style="fill: none; stroke: #ea0070"/>
    <path d="M 346.048744 240.201033 
L 346.048744 238.665002 
" clip-path="url(#p68367c9b50)" style="fill: none; stroke: #70a800"/>
    <path d="M 359.929724 240.360136 
L 359.929724 237.961806 
" clip-path="url(#p68367c9b50)" style="fill: none; stroke: #ea0070"/>
    <path d="M 373.810705 239.010707 
L 373.810705 237.961806 
" clip-path="url(#p68367c9b50)" style="fill: none; stroke: #70a800"/>
    <path d="M 387.691686 234.28918 
L 387.691686 233.754417 
" clip-path="url(#p68367c9b50)" style="fill: none; stroke: #70a800"/>
    <path d="M 401.572666 227.433513 
L 401.572666 226.059531 
" clip-path="url(#p68367c9b50)" style="fill: none; stroke: #70a800"/>
    <path d="M 415.453647 225.118663 
L 415.453647 224.581445 
" clip-path="url(#p68367c9b50)" style="fill: none; stroke: #70a800"/>
    <path d="M 429.334628 221.968032 
L 429.334628 220.701102 
" clip-path="url(#p68367c9b50)" style="fill: none; stroke: #70a800"/>
    <path d="M 443.215609 215.870069 
L 443.215609 212.798989 
" clip-path="url(#p68367c9b50)" style="fill: none; stroke: #ea0070"/>
    <path d="M 457.096589 218.751109 
L 457.096589 212.798989 
" clip-path="url(#p68367c9b50)" style="fill: none; stroke: #70a800"/>
    <path d="M 470.97757 212.179273 
L 470.97757 211.228584 
" clip-path="url(#p68367c9b50)" style="fill: none; stroke: #ea0070"/>
    <path d="M 484.858551 211.228584 
L 484.858551 211.228584 
" clip-path="url(#p68367c9b50)" style="fill: none; stroke: #70a800"/>
    <path d="M 165.595995 243.010869 
L 165.595995 243.359521 
" clip-path="url(#p68367c9b50)" style="fill: none; stroke: #70a800"/>
    <path d="M 179.476976 242.166248 
L 179.476976 242.842927 
" clip-path="url(#p68367c9b50)" style="fill: none; stroke: #70a800"/>
    <path d="M 193.357956 240.34835 
L 193.357956 241.196899 
" clip-path="url(#p68367c9b50)" style="fill: none; stroke: #70a800"/>
    <path d="M 207.238937 240.32969 
L 207.238937 241.189042 
" clip-path="url(#p68367c9b50)" style="fill: none; stroke: #70a800"/>
    <path d="M 221.119918 236.393365 
L 221.119918 236.559343 
" clip-path="url(#p68367c9b50)" style="fill: none; stroke: #70a800"/>
    <path d="M 235.000898 234.922154 
L 235.000898 236.481756 
" clip-path="url(#p68367c9b50)" style="fill: none; stroke: #70a800"/>
    <path d="M 248.881879 236.271583 
L 248.881879 236.481756 
" clip-path="url(#p68367c9b50)" style="fill: none; stroke: #ea0070"/>
    <path d="M 262.76286 239.013653 
L 262.76286 239.74042 
" clip-path="url(#p68367c9b50)" style="fill: none; stroke: #70a800"/>
    <path d="M 276.64384 237.375482 
L 276.64384 239.74042 
" clip-path="url(#p68367c9b50)" style="fill: none; stroke: #ea0070"/>
    <path d="M 290.524821 237.957878 
L 290.524821 238.90562 
" clip-path="url(#p68367c9b50)" style="fill: none; stroke: #70a800"/>
    <path d="M 304.405802 234.354982 
L 304.405802 236.828443 
" clip-path="url(#p68367c9b50)" style="fill: none; stroke: #70a800"/>
    <path d="M 318.286782 234.809211 
L 318.286782 236.828443 
" clip-path="url(#p68367c9b50)" style="fill: none; stroke: #ea0070"/>
    <path d="M 332.167763 237.000314 
L 332.167763 237.962788 
" clip-path="url(#p68367c9b50)" style="fill: none; stroke: #ea0070"/>
    <path d="M 346.048744 235.981367 
L 346.048744 236.967904 
" clip-path="url(#p68367c9b50)" style="fill: none; stroke: #70a800"/>
    <path d="M 359.929724 236.823533 
L 359.929724 236.967904 
" clip-path="url(#p68367c9b50)" style="fill: none; stroke: #ea0070"/>
    <path d="M 373.810705 233.027651 
L 373.810705 233.754417 
" clip-path="url(#p68367c9b50)" style="fill: none; stroke: #70a800"/>
    <path d="M 387.691686 225.484011 
L 387.691686 226.059531 
" clip-path="url(#p68367c9b50)" style="fill: none; stroke: #70a800"/>
    <path d="M 401.572666 221.763752 
L 401.572666 224.581445 
" clip-path="url(#p68367c9b50)" style="fill: none; stroke: #70a800"/>
    <path d="M 415.453647 220.318076 
L 415.453647 220.701102 
" clip-path="url(#p68367c9b50)" style="fill: none; stroke: #70a800"/>
    <path d="M 429.334628 207.104675 
L 429.334628 207.674303 
" clip-path="url(#p68367c9b50)" style="fill: none; stroke: #70a800"/>
    <path d="M 443.215609 203.592625 
L 443.215609 207.674303 
" clip-path="url(#p68367c9b50)" style="fill: none; stroke: #ea0070"/>
    <path d="M 457.096589 210.005849 
L 457.096589 210.490032 
" clip-path="url(#p68367c9b50)" style="fill: none; stroke: #70a800"/>
    <path d="M 470.97757 208.030812 
L 470.97757 210.490032 
" clip-path="url(#p68367c9b50)" style="fill: none; stroke: #ea0070"/>
    <path d="M 484.858551 191.594103 
L 484.858551 193.572087 
" clip-path="url(#p68367c9b50)" style="fill: none; stroke: #70a800"/>
   </g>
   <g id="patch_3">
    <path d="M 135 320.4 
L 135 43.2 
" style="fill: none; stroke: #e6e6e6; stroke-width: 1.5; stroke-linejoin: miter; stroke-linecap: square"/>
   </g>
   <g id="patch_4">
    <path d="M 515.454545 320.4 
L 515.454545 43.2 
" style="fill: none; stroke: #e6e6e6; stroke-width: 1.5; stroke-linejoin: miter; stroke-linecap: square"/>
   </g>
   <g id="patch_5">
    <path d="M 135 320.4 
L 515.454545 320.4 
" style="fill: none; stroke: #e6e6e6; stroke-width: 1.5; stroke-linejoin: miter; stroke-linecap: square"/>
   </g>
   <g id="patch_6">
    <path d="M 135 43.2 
L 515.454545 43.2 
" style="fill: none; stroke: #e6e6e6; stroke-width: 1.5; stroke-linejoin: miter; stroke-linecap: square"/>
   </g>
   <g id="text_13">
    <!-- Actual -->
    <g style="fill: #262626" transform="translate(305.216898 37.2) scale(0.144 -0.144)">
     <defs>
      <path id="ArialMT-41" d="M -9 0 
L 1750 4581 
L 2403 4581 
L 4278 0 
L 3588 0 
L 3053 1388 
L 1138 1388 
L 634 0 
L -9 0 
z
M 1313 1881 
L 2866 1881 
L 2388 3150 
Q 2169 3728 2063 4100 
Q 1975 3659 1816 3225 
L 1313 1881 
z
" transform="scale(0.015625)"/>
      <path id="ArialMT-63" d="M 2588 1216 
L 3141 1144 
Q 3050 572 2676 248 
Q 2303 -75 1759 -75 
Q 1078 -75 664 370 
Q 250 816 250 1647 
Q 250 2184 428 2587 
Q 606 2991 970 3192 
Q 1334 3394 1763 3394 
Q 2303 3394 2647 3120 
Q 2991 2847 3088 2344 
L 2541 2259 
Q 2463 2594 2264 2762 
Q 2066 2931 1784 2931 
Q 1359 2931 1093 2626 
Q 828 2322 828 1663 
Q 828 994 1084 691 
Q 1341 388 1753 388 
Q 2084 388 2306 591 
Q 2528 794 2588 1216 
z
" transform="scale(0.015625)"/>
      <path id="ArialMT-74" d="M 1650 503 
L 1731 6 
Q 1494 -44 1306 -44 
Q 1000 -44 831 53 
Q 663 150 594 308 
Q 525 466 525 972 
L 525 2881 
L 113 2881 
L 113 3319 
L 525 3319 
L 525 4141 
L 1084 4478 
L 1084 3319 
L 1650 3319 
L 1650 2881 
L 1084 2881 
L 1084 941 
Q 1084 700 1114 631 
Q 1144 563 1211 522 
Q 1278 481 1403 481 
Q 1497 481 1650 503 
z
" transform="scale(0.015625)"/>
      <path id="ArialMT-75" d="M 2597 0 
L 2597 488 
Q 2209 -75 1544 -75 
Q 1250 -75 995 37 
Q 741 150 617 320 
Q 494 491 444 738 
Q 409 903 409 1263 
L 409 3319 
L 972 3319 
L 972 1478 
Q 972 1038 1006 884 
Q 1059 663 1231 536 
Q 1403 409 1656 409 
Q 1909 409 2131 539 
Q 2353 669 2445 892 
Q 2538 1116 2538 1541 
L 2538 3319 
L 3100 3319 
L 3100 0 
L 2597 0 
z
" transform="scale(0.015625)"/>
      <path id="ArialMT-61" d="M 2588 409 
Q 2275 144 1986 34 
Q 1697 -75 1366 -75 
Q 819 -75 525 192 
Q 231 459 231 875 
Q 231 1119 342 1320 
Q 453 1522 633 1644 
Q 813 1766 1038 1828 
Q 1203 1872 1538 1913 
Q 2219 1994 2541 2106 
Q 2544 2222 2544 2253 
Q 2544 2597 2384 2738 
Q 2169 2928 1744 2928 
Q 1347 2928 1158 2789 
Q 969 2650 878 2297 
L 328 2372 
Q 403 2725 575 2942 
Q 747 3159 1072 3276 
Q 1397 3394 1825 3394 
Q 2250 3394 2515 3294 
Q 2781 3194 2906 3042 
Q 3031 2891 3081 2659 
Q 3109 2516 3109 2141 
L 3109 1391 
Q 3109 606 3145 398 
Q 3181 191 3288 0 
L 2700 0 
Q 2613 175 2588 409 
z
M 2541 1666 
Q 2234 1541 1622 1453 
Q 1275 1403 1131 1340 
Q 988 1278 909 1158 
Q 831 1038 831 891 
Q 831 666 1001 516 
Q 1172 366 1500 366 
Q 1825 366 2078 508 
Q 2331 650 2450 897 
Q 2541 1088 2541 1459 
L 2541 1666 
z
" transform="scale(0.015625)"/>
      <path id="ArialMT-6c" d="M 409 0 
L 409 4581 
L 972 4581 
L 972 0 
L 409 0 
z
" transform="scale(0.015625)"/>
     </defs>
     <use xlink:href="#ArialMT-41"/>
     <use xlink:href="#ArialMT-63" x="66.699219"/>
     <use xlink:href="#ArialMT-74" x="116.699219"/>
     <use xlink:href="#ArialMT-75" x="144.482422"/>
     <use xlink:href="#ArialMT-61" x="200.097656"/>
     <use xlink:href="#ArialMT-6c" x="255.712891"/>
    </g>
   </g>
  </g>
  <g id="axes_2">
   <g id="patch_7">
    <path d="M 591.545455 320.4 
L 972 320.4 
L 972 43.2 
L 591.545455 43.2 
z
" style="fill: #ffffff"/>
   </g>
   <g id="matplotlib.axis_3">
    <g id="xtick_7">
     <g id="line2d_25">
      <path d="M 622.141449 320.4 
L 622.141449 43.2 
" clip-path="url(#pfcf61b4b96)" style="fill: none; stroke-dasharray: 2.96,1.28; stroke-dashoffset: 0; stroke: #d0d0d0; stroke-width: 0.8"/>
     </g>
     <g id="line2d_26"/>
     <g id="text_14">
      <!-- 00:00 -->
      <g style="fill: #262626" transform="translate(613.719145 351.20537) rotate(-45) scale(0.12 -0.12)">
       <use xlink:href="#ArialMT-30"/>
       <use xlink:href="#ArialMT-30" x="55.615234"/>
       <use xlink:href="#ArialMT-3a" x="111.230469"/>
       <use xlink:href="#ArialMT-30" x="139.013672"/>
       <use xlink:href="#ArialMT-30" x="194.628906"/>
      </g>
     </g>
    </g>
    <g id="xtick_8">
     <g id="line2d_27">
      <path d="M 691.546353 320.4 
L 691.546353 43.2 
" clip-path="url(#pfcf61b4b96)" style="fill: none; stroke-dasharray: 2.96,1.28; stroke-dashoffset: 0; stroke: #d0d0d0; stroke-width: 0.8"/>
     </g>
     <g id="line2d_28"/>
     <g id="text_15">
      <!-- 05:00 -->
      <g style="fill: #262626" transform="translate(683.124048 351.20537) rotate(-45) scale(0.12 -0.12)">
       <use xlink:href="#ArialMT-30"/>
       <use xlink:href="#ArialMT-35" x="55.615234"/>
       <use xlink:href="#ArialMT-3a" x="111.230469"/>
       <use xlink:href="#ArialMT-30" x="139.013672"/>
       <use xlink:href="#ArialMT-30" x="194.628906"/>
      </g>
     </g>
    </g>
    <g id="xtick_9">
     <g id="line2d_29">
      <path d="M 760.951256 320.4 
L 760.951256 43.2 
" clip-path="url(#pfcf61b4b96)" style="fill: none; stroke-dasharray: 2.96,1.28; stroke-dashoffset: 0; stroke: #d0d0d0; stroke-width: 0.8"/>
     </g>
     <g id="line2d_30"/>
     <g id="text_16">
      <!-- 10:00 -->
      <g style="fill: #262626" transform="translate(752.528952 351.20537) rotate(-45) scale(0.12 -0.12)">
       <use xlink:href="#ArialMT-31"/>
       <use xlink:href="#ArialMT-30" x="55.615234"/>
       <use xlink:href="#ArialMT-3a" x="111.230469"/>
       <use xlink:href="#ArialMT-30" x="139.013672"/>
       <use xlink:href="#ArialMT-30" x="194.628906"/>
      </g>
     </g>
    </g>
    <g id="xtick_10">
     <g id="line2d_31">
      <path d="M 830.35616 320.4 
L 830.35616 43.2 
" clip-path="url(#pfcf61b4b96)" style="fill: none; stroke-dasharray: 2.96,1.28; stroke-dashoffset: 0; stroke: #d0d0d0; stroke-width: 0.8"/>
     </g>
     <g id="line2d_32"/>
     <g id="text_17">
      <!-- 15:00 -->
      <g style="fill: #262626" transform="translate(821.933855 351.20537) rotate(-45) scale(0.12 -0.12)">
       <use xlink:href="#ArialMT-31"/>
       <use xlink:href="#ArialMT-35" x="55.615234"/>
       <use xlink:href="#ArialMT-3a" x="111.230469"/>
       <use xlink:href="#ArialMT-30" x="139.013672"/>
       <use xlink:href="#ArialMT-30" x="194.628906"/>
      </g>
     </g>
    </g>
    <g id="xtick_11">
     <g id="line2d_33">
      <path d="M 899.761063 320.4 
L 899.761063 43.2 
" clip-path="url(#pfcf61b4b96)" style="fill: none; stroke-dasharray: 2.96,1.28; stroke-dashoffset: 0; stroke: #d0d0d0; stroke-width: 0.8"/>
     </g>
     <g id="line2d_34"/>
     <g id="text_18">
      <!-- 20:00 -->
      <g style="fill: #262626" transform="translate(891.338758 351.20537) rotate(-45) scale(0.12 -0.12)">
       <use xlink:href="#ArialMT-32"/>
       <use xlink:href="#ArialMT-30" x="55.615234"/>
       <use xlink:href="#ArialMT-3a" x="111.230469"/>
       <use xlink:href="#ArialMT-30" x="139.013672"/>
       <use xlink:href="#ArialMT-30" x="194.628906"/>
      </g>
     </g>
    </g>
    <g id="xtick_12">
     <g id="line2d_35">
      <path d="M 969.165966 320.4 
L 969.165966 43.2 
" clip-path="url(#pfcf61b4b96)" style="fill: none; stroke-dasharray: 2.96,1.28; stroke-dashoffset: 0; stroke: #d0d0d0; stroke-width: 0.8"/>
     </g>
     <g id="line2d_36"/>
    </g>
   </g>
   <g id="matplotlib.axis_4">
    <g id="ytick_7">
     <g id="line2d_37">
      <path d="M 591.545455 306.494414 
L 972 306.494414 
" clip-path="url(#pfcf61b4b96)" style="fill: none; stroke-dasharray: 2.96,1.28; stroke-dashoffset: 0; stroke: #d0d0d0; stroke-width: 0.8"/>
     </g>
     <g id="line2d_38"/>
     <g id="text_19">
      <!-- 60000 -->
      <g style="fill: #262626" transform="translate(554.67983 310.789102) scale(0.12 -0.12)">
       <use xlink:href="#ArialMT-36"/>
       <use xlink:href="#ArialMT-30" x="55.615234"/>
       <use xlink:href="#ArialMT-30" x="111.230469"/>
       <use xlink:href="#ArialMT-30" x="166.845703"/>
       <use xlink:href="#ArialMT-30" x="222.460938"/>
      </g>
     </g>
    </g>
    <g id="ytick_8">
     <g id="line2d_39">
      <path d="M 591.545455 257.388569 
L 972 257.388569 
" clip-path="url(#pfcf61b4b96)" style="fill: none; stroke-dasharray: 2.96,1.28; stroke-dashoffset: 0; stroke: #d0d0d0; stroke-width: 0.8"/>
     </g>
     <g id="line2d_40"/>
     <g id="text_20">
      <!-- 65000 -->
      <g style="fill: #262626" transform="translate(554.67983 261.683257) scale(0.12 -0.12)">
       <use xlink:href="#ArialMT-36"/>
       <use xlink:href="#ArialMT-35" x="55.615234"/>
       <use xlink:href="#ArialMT-30" x="111.230469"/>
       <use xlink:href="#ArialMT-30" x="166.845703"/>
       <use xlink:href="#ArialMT-30" x="222.460938"/>
      </g>
     </g>
    </g>
    <g id="ytick_9">
     <g id="line2d_41">
      <path d="M 591.545455 208.282725 
L 972 208.282725 
" clip-path="url(#pfcf61b4b96)" style="fill: none; stroke-dasharray: 2.96,1.28; stroke-dashoffset: 0; stroke: #d0d0d0; stroke-width: 0.8"/>
     </g>
     <g id="line2d_42"/>
     <g id="text_21">
      <!-- 70000 -->
      <g style="fill: #262626" transform="translate(554.67983 212.577412) scale(0.12 -0.12)">
       <use xlink:href="#ArialMT-37"/>
       <use xlink:href="#ArialMT-30" x="55.615234"/>
       <use xlink:href="#ArialMT-30" x="111.230469"/>
       <use xlink:href="#ArialMT-30" x="166.845703"/>
       <use xlink:href="#ArialMT-30" x="222.460938"/>
      </g>
     </g>
    </g>
    <g id="ytick_10">
     <g id="line2d_43">
      <path d="M 591.545455 159.17688 
L 972 159.17688 
" clip-path="url(#pfcf61b4b96)" style="fill: none; stroke-dasharray: 2.96,1.28; stroke-dashoffset: 0; stroke: #d0d0d0; stroke-width: 0.8"/>
     </g>
     <g id="line2d_44"/>
     <g id="text_22">
      <!-- 75000 -->
      <g style="fill: #262626" transform="translate(554.67983 163.471567) scale(0.12 -0.12)">
       <use xlink:href="#ArialMT-37"/>
       <use xlink:href="#ArialMT-35" x="55.615234"/>
       <use xlink:href="#ArialMT-30" x="111.230469"/>
       <use xlink:href="#ArialMT-30" x="166.845703"/>
       <use xlink:href="#ArialMT-30" x="222.460938"/>
      </g>
     </g>
    </g>
    <g id="ytick_11">
     <g id="line2d_45">
      <path d="M 591.545455 110.071035 
L 972 110.071035 
" clip-path="url(#pfcf61b4b96)" style="fill: none; stroke-dasharray: 2.96,1.28; stroke-dashoffset: 0; stroke: #d0d0d0; stroke-width: 0.8"/>
     </g>
     <g id="line2d_46"/>
     <g id="text_23">
      <!-- 80000 -->
      <g style="fill: #262626" transform="translate(554.67983 114.365723) scale(0.12 -0.12)">
       <use xlink:href="#ArialMT-38"/>
       <use xlink:href="#ArialMT-30" x="55.615234"/>
       <use xlink:href="#ArialMT-30" x="111.230469"/>
       <use xlink:href="#ArialMT-30" x="166.845703"/>
       <use xlink:href="#ArialMT-30" x="222.460938"/>
      </g>
     </g>
    </g>
    <g id="ytick_12">
     <g id="line2d_47">
      <path d="M 591.545455 60.96519 
L 972 60.96519 
" clip-path="url(#pfcf61b4b96)" style="fill: none; stroke-dasharray: 2.96,1.28; stroke-dashoffset: 0; stroke: #d0d0d0; stroke-width: 0.8"/>
     </g>
     <g id="line2d_48"/>
     <g id="text_24">
      <!-- 85000 -->
      <g style="fill: #262626" transform="translate(554.67983 65.259878) scale(0.12 -0.12)">
       <use xlink:href="#ArialMT-38"/>
       <use xlink:href="#ArialMT-35" x="55.615234"/>
       <use xlink:href="#ArialMT-30" x="111.230469"/>
       <use xlink:href="#ArialMT-30" x="166.845703"/>
       <use xlink:href="#ArialMT-30" x="222.460938"/>
      </g>
     </g>
    </g>
    <g id="text_25">
     <!-- Price -->
     <g style="fill: #262626" transform="translate(548.311705 196.4775) rotate(-90) scale(0.12 -0.12)">
      <use xlink:href="#Arial-BoldMT-50"/>
      <use xlink:href="#Arial-BoldMT-72" x="66.699219"/>
      <use xlink:href="#Arial-BoldMT-69" x="105.615234"/>
      <use xlink:href="#Arial-BoldMT-63" x="133.398438"/>
      <use xlink:href="#Arial-BoldMT-65" x="189.013672"/>
     </g>
    </g>
   </g>
   <g id="PolyCollection_2">
    <path d="M 617.630131 245.143106 
L 617.630131 243.233272 
L 626.652768 243.233272 
L 626.652768 245.143106 
z
" clip-path="url(#pfcf61b4b96)" style="fill: #70a800; fill-opacity: 0.9; stroke: #70a800"/>
    <path d="M 631.511111 243.227441 
L 631.511111 242.899429 
L 640.533749 242.899429 
L 640.533749 243.227441 
z
" clip-path="url(#pfcf61b4b96)" style="fill: #70a800; fill-opacity: 0.9; stroke: #70a800"/>
    <path d="M 645.392092 242.527529 
L 645.392092 241.274026 
L 654.41473 241.274026 
L 654.41473 242.527529 
z
" clip-path="url(#pfcf61b4b96)" style="fill: #70a800; fill-opacity: 0.9; stroke: #70a800"/>
    <path d="M 659.273073 241.33817 
L 659.273073 241.218935 
L 668.29571 241.218935 
L 668.29571 241.33817 
z
" clip-path="url(#pfcf61b4b96)" style="fill: #70a800; fill-opacity: 0.9; stroke: #70a800"/>
    <path d="M 673.154053 241.372238 
L 673.154053 236.548432 
L 682.176691 236.548432 
L 682.176691 241.372238 
z
" clip-path="url(#pfcf61b4b96)" style="fill: #70a800; fill-opacity: 0.9; stroke: #70a800"/>
    <path d="M 687.035034 236.55764 
L 687.035034 236.364976 
L 696.057672 236.364976 
L 696.057672 236.55764 
z
" clip-path="url(#pfcf61b4b96)" style="fill: #70a800; fill-opacity: 0.9; stroke: #70a800"/>
    <path d="M 700.916015 236.418762 
L 700.916015 243.685583 
L 709.938652 243.685583 
L 709.938652 236.418762 
z
" clip-path="url(#pfcf61b4b96)" style="fill: #ea0070; fill-opacity: 0.9; stroke: #ea0070"/>
    <path d="M 714.796995 243.931266 
L 714.796995 239.936659 
L 723.819633 239.936659 
L 723.819633 243.931266 
z
" clip-path="url(#pfcf61b4b96)" style="fill: #70a800; fill-opacity: 0.9; stroke: #70a800"/>
    <path d="M 728.677976 239.785812 
L 728.677976 239.585399 
L 737.700614 239.585399 
L 737.700614 239.785812 
z
" clip-path="url(#pfcf61b4b96)" style="fill: #70a800; fill-opacity: 0.9; stroke: #70a800"/>
    <path d="M 742.558957 240.366105 
L 742.558957 239.233371 
L 751.581594 239.233371 
L 751.581594 240.366105 
z
" clip-path="url(#pfcf61b4b96)" style="fill: #70a800; fill-opacity: 0.9; stroke: #70a800"/>
    <path d="M 756.439938 238.623768 
L 756.439938 236.597078 
L 765.462575 236.597078 
L 765.462575 238.623768 
z
" clip-path="url(#pfcf61b4b96)" style="fill: #70a800; fill-opacity: 0.9; stroke: #70a800"/>
    <path d="M 770.320918 236.607053 
L 770.320918 238.00772 
L 779.343556 238.00772 
L 779.343556 236.607053 
z
" clip-path="url(#pfcf61b4b96)" style="fill: #ea0070; fill-opacity: 0.9; stroke: #ea0070"/>
    <path d="M 784.201899 237.910276 
L 784.201899 238.652004 
L 793.224536 238.652004 
L 793.224536 237.910276 
z
" clip-path="url(#pfcf61b4b96)" style="fill: #ea0070; fill-opacity: 0.9; stroke: #ea0070"/>
    <path d="M 798.08288 238.383687 
L 798.08288 236.931688 
L 807.105517 236.931688 
L 807.105517 238.383687 
z
" clip-path="url(#pfcf61b4b96)" style="fill: #70a800; fill-opacity: 0.9; stroke: #70a800"/>
    <path d="M 811.96386 237.042176 
L 811.96386 237.938818 
L 820.986498 237.938818 
L 820.986498 237.042176 
z
" clip-path="url(#pfcf61b4b96)" style="fill: #ea0070; fill-opacity: 0.9; stroke: #ea0070"/>
    <path d="M 825.844841 237.839379 
L 825.844841 233.887893 
L 834.867478 233.887893 
L 834.867478 237.839379 
z
" clip-path="url(#pfcf61b4b96)" style="fill: #70a800; fill-opacity: 0.9; stroke: #70a800"/>
    <path d="M 839.725822 233.490366 
L 839.725822 226.260374 
L 848.748459 226.260374 
L 848.748459 233.490366 
z
" clip-path="url(#pfcf61b4b96)" style="fill: #70a800; fill-opacity: 0.9; stroke: #70a800"/>
    <path d="M 853.606802 225.48995 
L 853.606802 224.59607 
L 862.62944 224.59607 
L 862.62944 225.48995 
z
" clip-path="url(#pfcf61b4b96)" style="fill: #70a800; fill-opacity: 0.9; stroke: #70a800"/>
    <path d="M 867.487783 224.359594 
L 867.487783 220.897939 
L 876.51042 220.897939 
L 876.51042 224.359594 
z
" clip-path="url(#pfcf61b4b96)" style="fill: #70a800; fill-opacity: 0.9; stroke: #70a800"/>
    <path d="M 881.368764 220.411638 
L 881.368764 207.262704 
L 890.391401 207.262704 
L 890.391401 220.411638 
z
" clip-path="url(#pfcf61b4b96)" style="fill: #70a800; fill-opacity: 0.9; stroke: #70a800"/>
    <path d="M 895.249744 205.782777 
L 895.249744 212.988829 
L 904.272382 212.988829 
L 904.272382 205.782777 
z
" clip-path="url(#pfcf61b4b96)" style="fill: #ea0070; fill-opacity: 0.9; stroke: #ea0070"/>
    <path d="M 909.130725 212.181422 
L 909.130725 210.574049 
L 918.153362 210.574049 
L 918.153362 212.181422 
z
" clip-path="url(#pfcf61b4b96)" style="fill: #70a800; fill-opacity: 0.9; stroke: #70a800"/>
    <path d="M 923.011706 210.715612 
L 923.011706 195.701423 
L 932.034343 195.701423 
L 932.034343 210.715612 
z
" clip-path="url(#pfcf61b4b96)" style="fill: #70a800; fill-opacity: 0.9; stroke: #70a800"/>
    <path d="M 936.892686 177.329546 
L 936.892686 193.661613 
L 945.915324 193.661613 
L 945.915324 177.329546 
z
" clip-path="url(#pfcf61b4b96)" style="fill: #ea0070; fill-opacity: 0.9; stroke: #ea0070"/>
   </g>
   <g id="LineCollection_2">
    <path d="M 622.141449 246.594184 
L 622.141449 245.143106 
" clip-path="url(#pfcf61b4b96)" style="fill: none; stroke: #70a800"/>
    <path d="M 636.02243 247.243762 
L 636.02243 243.227441 
" clip-path="url(#pfcf61b4b96)" style="fill: none; stroke: #70a800"/>
    <path d="M 649.903411 243.180407 
L 649.903411 242.527529 
" clip-path="url(#pfcf61b4b96)" style="fill: none; stroke: #70a800"/>
    <path d="M 663.784391 242.400315 
L 663.784391 241.33817 
" clip-path="url(#pfcf61b4b96)" style="fill: none; stroke: #70a800"/>
    <path d="M 677.665372 241.901353 
L 677.665372 241.372238 
" clip-path="url(#pfcf61b4b96)" style="fill: none; stroke: #70a800"/>
    <path d="M 691.546353 237.526253 
L 691.546353 236.55764 
" clip-path="url(#pfcf61b4b96)" style="fill: none; stroke: #70a800"/>
    <path d="M 705.427334 245.279145 
L 705.427334 243.685583 
" clip-path="url(#pfcf61b4b96)" style="fill: none; stroke: #ea0070"/>
    <path d="M 719.308314 244.339458 
L 719.308314 243.931266 
" clip-path="url(#pfcf61b4b96)" style="fill: none; stroke: #70a800"/>
    <path d="M 733.189295 240.581096 
L 733.189295 239.785812 
" clip-path="url(#pfcf61b4b96)" style="fill: none; stroke: #70a800"/>
    <path d="M 747.070276 240.6068 
L 747.070276 240.366105 
" clip-path="url(#pfcf61b4b96)" style="fill: none; stroke: #70a800"/>
    <path d="M 760.951256 239.917017 
L 760.951256 238.623768 
" clip-path="url(#pfcf61b4b96)" style="fill: none; stroke: #70a800"/>
    <path d="M 774.832237 238.975412 
L 774.832237 238.00772 
" clip-path="url(#pfcf61b4b96)" style="fill: none; stroke: #ea0070"/>
    <path d="M 788.713218 240.179273 
L 788.713218 238.652004 
" clip-path="url(#pfcf61b4b96)" style="fill: none; stroke: #ea0070"/>
    <path d="M 802.594198 240.124412 
L 802.594198 238.383687 
" clip-path="url(#pfcf61b4b96)" style="fill: none; stroke: #70a800"/>
    <path d="M 816.475179 240.378918 
L 816.475179 237.938818 
" clip-path="url(#pfcf61b4b96)" style="fill: none; stroke: #ea0070"/>
    <path d="M 830.35616 239.069404 
L 830.35616 237.839379 
" clip-path="url(#pfcf61b4b96)" style="fill: none; stroke: #70a800"/>
    <path d="M 844.23714 234.052474 
L 844.23714 233.490366 
" clip-path="url(#pfcf61b4b96)" style="fill: none; stroke: #70a800"/>
    <path d="M 858.118121 227.655671 
L 858.118121 225.48995 
" clip-path="url(#pfcf61b4b96)" style="fill: none; stroke: #70a800"/>
    <path d="M 871.999102 225.240277 
L 871.999102 224.359594 
" clip-path="url(#pfcf61b4b96)" style="fill: none; stroke: #70a800"/>
    <path d="M 885.880082 222.077093 
L 885.880082 220.411638 
" clip-path="url(#pfcf61b4b96)" style="fill: none; stroke: #70a800"/>
    <path d="M 899.761063 215.871726 
L 899.761063 212.988829 
" clip-path="url(#pfcf61b4b96)" style="fill: none; stroke: #ea0070"/>
    <path d="M 913.642044 320.4 
L 913.642044 212.181422 
" clip-path="url(#pfcf61b4b96)" style="fill: none; stroke: #70a800"/>
    <path d="M 927.523024 319.007657 
L 927.523024 210.715612 
" clip-path="url(#pfcf61b4b96)" style="fill: none; stroke: #70a800"/>
    <path d="M 941.404005 241.274026 
L 941.404005 193.661613 
" clip-path="url(#pfcf61b4b96)" style="fill: none; stroke: #ea0070"/>
    <path d="M 622.141449 242.642007 
L 622.141449 243.233272 
" clip-path="url(#pfcf61b4b96)" style="fill: none; stroke: #70a800"/>
    <path d="M 636.02243 242.197906 
L 636.02243 242.899429 
" clip-path="url(#pfcf61b4b96)" style="fill: none; stroke: #70a800"/>
    <path d="M 649.903411 239.946097 
L 649.903411 241.274026 
" clip-path="url(#pfcf61b4b96)" style="fill: none; stroke: #70a800"/>
    <path d="M 663.784391 240.030497 
L 663.784391 241.218935 
" clip-path="url(#pfcf61b4b96)" style="fill: none; stroke: #70a800"/>
    <path d="M 677.665372 236.144537 
L 677.665372 236.548432 
" clip-path="url(#pfcf61b4b96)" style="fill: none; stroke: #70a800"/>
    <path d="M 691.546353 234.012346 
L 691.546353 236.364976 
" clip-path="url(#pfcf61b4b96)" style="fill: none; stroke: #70a800"/>
    <path d="M 705.427334 235.976733 
L 705.427334 236.418762 
" clip-path="url(#pfcf61b4b96)" style="fill: none; stroke: #ea0070"/>
    <path d="M 719.308314 238.679856 
L 719.308314 239.936659 
" clip-path="url(#pfcf61b4b96)" style="fill: none; stroke: #70a800"/>
    <path d="M 733.189295 237.046627 
L 733.189295 239.585399 
" clip-path="url(#pfcf61b4b96)" style="fill: none; stroke: #70a800"/>
    <path d="M 747.070276 237.600218 
L 747.070276 239.233371 
" clip-path="url(#pfcf61b4b96)" style="fill: none; stroke: #70a800"/>
    <path d="M 760.951256 234.237696 
L 760.951256 236.597078 
" clip-path="url(#pfcf61b4b96)" style="fill: none; stroke: #70a800"/>
    <path d="M 774.832237 234.396215 
L 774.832237 236.607053 
" clip-path="url(#pfcf61b4b96)" style="fill: none; stroke: #ea0070"/>
    <path d="M 788.713218 236.694215 
L 788.713218 237.910276 
" clip-path="url(#pfcf61b4b96)" style="fill: none; stroke: #ea0070"/>
    <path d="M 802.594198 219.875464 
L 802.594198 236.931688 
" clip-path="url(#pfcf61b4b96)" style="fill: none; stroke: #70a800"/>
    <path d="M 816.475179 236.355922 
L 816.475179 237.042176 
" clip-path="url(#pfcf61b4b96)" style="fill: none; stroke: #ea0070"/>
    <path d="M 830.35616 232.916902 
L 830.35616 233.887893 
" clip-path="url(#pfcf61b4b96)" style="fill: none; stroke: #70a800"/>
    <path d="M 844.23714 224.808836 
L 844.23714 226.260374 
" clip-path="url(#pfcf61b4b96)" style="fill: none; stroke: #70a800"/>
    <path d="M 858.118121 221.351171 
L 858.118121 224.59607 
" clip-path="url(#pfcf61b4b96)" style="fill: none; stroke: #70a800"/>
    <path d="M 871.999102 220.078179 
L 871.999102 220.897939 
" clip-path="url(#pfcf61b4b96)" style="fill: none; stroke: #70a800"/>
    <path d="M 885.880082 207.708109 
L 885.880082 207.262704 
" clip-path="url(#pfcf61b4b96)" style="fill: none; stroke: #70a800"/>
    <path d="M 899.761063 202.943308 
L 899.761063 205.782777 
" clip-path="url(#pfcf61b4b96)" style="fill: none; stroke: #ea0070"/>
    <path d="M 913.642044 103.861064 
L 913.642044 210.574049 
" clip-path="url(#pfcf61b4b96)" style="fill: none; stroke: #70a800"/>
    <path d="M 927.523024 43.2 
L 927.523024 195.701423 
" clip-path="url(#pfcf61b4b96)" style="fill: none; stroke: #70a800"/>
    <path d="M 941.404005 190.785621 
L 941.404005 177.329546 
" clip-path="url(#pfcf61b4b96)" style="fill: none; stroke: #ea0070"/>
   </g>
   <g id="patch_8">
    <path d="M 591.545455 320.4 
L 591.545455 43.2 
" style="fill: none; stroke: #e6e6e6; stroke-width: 1.5; stroke-linejoin: miter; stroke-linecap: square"/>
   </g>
   <g id="patch_9">
    <path d="M 972 320.4 
L 972 43.2 
" style="fill: none; stroke: #e6e6e6; stroke-width: 1.5; stroke-linejoin: miter; stroke-linecap: square"/>
   </g>
   <g id="patch_10">
    <path d="M 591.545455 320.4 
L 972 320.4 
" style="fill: none; stroke: #e6e6e6; stroke-width: 1.5; stroke-linejoin: miter; stroke-linecap: square"/>
   </g>
   <g id="patch_11">
    <path d="M 591.545455 43.2 
L 972 43.2 
" style="fill: none; stroke: #e6e6e6; stroke-width: 1.5; stroke-linejoin: miter; stroke-linecap: square"/>
   </g>
   <g id="text_26">
    <!-- Predicted -->
    <g style="fill: #262626" transform="translate(751.357227 37.2) scale(0.144 -0.144)">
     <defs>
      <path id="ArialMT-50" d="M 494 0 
L 494 4581 
L 2222 4581 
Q 2678 4581 2919 4538 
Q 3256 4481 3484 4323 
Q 3713 4166 3852 3881 
Q 3991 3597 3991 3256 
Q 3991 2672 3619 2267 
Q 3247 1863 2275 1863 
L 1100 1863 
L 1100 0 
L 494 0 
z
M 1100 2403 
L 2284 2403 
Q 2872 2403 3119 2622 
Q 3366 2841 3366 3238 
Q 3366 3525 3220 3729 
Q 3075 3934 2838 4000 
Q 2684 4041 2272 4041 
L 1100 4041 
L 1100 2403 
z
" transform="scale(0.015625)"/>
      <path id="ArialMT-72" d="M 416 0 
L 416 3319 
L 922 3319 
L 922 2816 
Q 1116 3169 1280 3281 
Q 1444 3394 1641 3394 
Q 1925 3394 2219 3213 
L 2025 2691 
Q 1819 2813 1613 2813 
Q 1428 2813 1281 2702 
Q 1134 2591 1072 2394 
Q 978 2094 978 1738 
L 978 0 
L 416 0 
z
" transform="scale(0.015625)"/>
      <path id="ArialMT-65" d="M 2694 1069 
L 3275 997 
Q 3138 488 2766 206 
Q 2394 -75 1816 -75 
Q 1088 -75 661 373 
Q 234 822 234 1631 
Q 234 2469 665 2931 
Q 1097 3394 1784 3394 
Q 2450 3394 2872 2941 
Q 3294 2488 3294 1666 
Q 3294 1616 3291 1516 
L 816 1516 
Q 847 969 1125 678 
Q 1403 388 1819 388 
Q 2128 388 2347 550 
Q 2566 713 2694 1069 
z
M 847 1978 
L 2700 1978 
Q 2663 2397 2488 2606 
Q 2219 2931 1791 2931 
Q 1403 2931 1139 2672 
Q 875 2413 847 1978 
z
" transform="scale(0.015625)"/>
      <path id="ArialMT-64" d="M 2575 0 
L 2575 419 
Q 2259 -75 1647 -75 
Q 1250 -75 917 144 
Q 584 363 401 755 
Q 219 1147 219 1656 
Q 219 2153 384 2558 
Q 550 2963 881 3178 
Q 1213 3394 1622 3394 
Q 1922 3394 2156 3267 
Q 2391 3141 2538 2938 
L 2538 4581 
L 3097 4581 
L 3097 0 
L 2575 0 
z
M 797 1656 
Q 797 1019 1065 703 
Q 1334 388 1700 388 
Q 2069 388 2326 689 
Q 2584 991 2584 1609 
Q 2584 2291 2321 2609 
Q 2059 2928 1675 2928 
Q 1300 2928 1048 2622 
Q 797 2316 797 1656 
z
" transform="scale(0.015625)"/>
      <path id="ArialMT-69" d="M 425 3934 
L 425 4581 
L 988 4581 
L 988 3934 
L 425 3934 
z
M 425 0 
L 425 3319 
L 988 3319 
L 988 0 
L 425 0 
z
" transform="scale(0.015625)"/>
     </defs>
     <use xlink:href="#ArialMT-50"/>
     <use xlink:href="#ArialMT-72" x="66.699219"/>
     <use xlink:href="#ArialMT-65" x="100"/>
     <use xlink:href="#ArialMT-64" x="155.615234"/>
     <use xlink:href="#ArialMT-69" x="211.230469"/>
     <use xlink:href="#ArialMT-63" x="233.447266"/>
     <use xlink:href="#ArialMT-74" x="283.447266"/>
     <use xlink:href="#ArialMT-65" x="311.230469"/>
     <use xlink:href="#ArialMT-64" x="366.845703"/>
    </g>
   </g>
  </g>
  <g id="text_27">
   <!-- MLP - BTC -->
   <g style="fill: #262626" transform="translate(496.48005 19.5687) scale(0.1728 -0.1728)">
    <defs>
     <path id="Arial-BoldMT-4d" d="M 453 0 
L 453 4581 
L 1838 4581 
L 2669 1456 
L 3491 4581 
L 4878 4581 
L 4878 0 
L 4019 0 
L 4019 3606 
L 3109 0 
L 2219 0 
L 1313 3606 
L 1313 0 
L 453 0 
z
" transform="scale(0.015625)"/>
     <path id="Arial-BoldMT-4c" d="M 491 0 
L 491 4544 
L 1416 4544 
L 1416 772 
L 3716 772 
L 3716 0 
L 491 0 
z
" transform="scale(0.015625)"/>
     <path id="Arial-BoldMT-20" transform="scale(0.015625)"/>
     <path id="Arial-BoldMT-2d" d="M 359 1222 
L 359 2100 
L 2084 2100 
L 2084 1222 
L 359 1222 
z
" transform="scale(0.015625)"/>
     <path id="Arial-BoldMT-42" d="M 469 4581 
L 2300 4581 
Q 2844 4581 3111 4536 
Q 3378 4491 3589 4347 
Q 3800 4203 3940 3964 
Q 4081 3725 4081 3428 
Q 4081 3106 3907 2837 
Q 3734 2569 3438 2434 
Q 3856 2313 4081 2019 
Q 4306 1725 4306 1328 
Q 4306 1016 4161 720 
Q 4016 425 3764 248 
Q 3513 72 3144 31 
Q 2913 6 2028 0 
L 469 0 
L 469 4581 
z
M 1394 3819 
L 1394 2759 
L 2000 2759 
Q 2541 2759 2672 2775 
Q 2909 2803 3045 2939 
Q 3181 3075 3181 3297 
Q 3181 3509 3064 3642 
Q 2947 3775 2716 3803 
Q 2578 3819 1925 3819 
L 1394 3819 
z
M 1394 1997 
L 1394 772 
L 2250 772 
Q 2750 772 2884 800 
Q 3091 838 3220 983 
Q 3350 1128 3350 1372 
Q 3350 1578 3250 1722 
Q 3150 1866 2961 1931 
Q 2772 1997 2141 1997 
L 1394 1997 
z
" transform="scale(0.015625)"/>
     <path id="Arial-BoldMT-54" d="M 1497 0 
L 1497 3806 
L 138 3806 
L 138 4581 
L 3778 4581 
L 3778 3806 
L 2422 3806 
L 2422 0 
L 1497 0 
z
" transform="scale(0.015625)"/>
     <path id="Arial-BoldMT-43" d="M 3397 1684 
L 4294 1400 
Q 4088 650 3608 286 
Q 3128 -78 2391 -78 
Q 1478 -78 890 545 
Q 303 1169 303 2250 
Q 303 3394 893 4026 
Q 1484 4659 2447 4659 
Q 3288 4659 3813 4163 
Q 4125 3869 4281 3319 
L 3366 3100 
Q 3284 3456 3026 3662 
Q 2769 3869 2400 3869 
Q 1891 3869 1573 3503 
Q 1256 3138 1256 2319 
Q 1256 1450 1568 1081 
Q 1881 713 2381 713 
Q 2750 713 3015 947 
Q 3281 1181 3397 1684 
z
" transform="scale(0.015625)"/>
    </defs>
    <use xlink:href="#Arial-BoldMT-4d"/>
    <use xlink:href="#Arial-BoldMT-4c" x="83.300781"/>
    <use xlink:href="#Arial-BoldMT-50" x="144.384766"/>
    <use xlink:href="#Arial-BoldMT-20" x="209.333984"/>
    <use xlink:href="#Arial-BoldMT-2d" x="237.117188"/>
    <use xlink:href="#Arial-BoldMT-20" x="270.417969"/>
    <use xlink:href="#Arial-BoldMT-42" x="298.201172"/>
    <use xlink:href="#Arial-BoldMT-54" x="370.417969"/>
    <use xlink:href="#Arial-BoldMT-43" x="431.501953"/>
   </g>
  </g>
 </g>
 <defs>
  <clipPath id="p68367c9b50">
   <rect x="135" y="43.2" width="380.454545" height="277.2"/>
  </clipPath>
  <clipPath id="pfcf61b4b96">
   <rect x="591.545455" y="43.2" width="380.454545" height="277.2"/>
  </clipPath>
 </defs>
</svg>
