<?xml version="1.0" encoding="utf-8" standalone="no"?>
<!DOCTYPE svg PUBLIC "-//W3C//DTD SVG 1.1//EN"
  "http://www.w3.org/Graphics/SVG/1.1/DTD/svg11.dtd">
<svg xmlns:xlink="http://www.w3.org/1999/xlink" width="1080pt" height="360pt" viewBox="0 0 1080 360" xmlns="http://www.w3.org/2000/svg" version="1.1">
 <metadata>
  <rdf:RDF xmlns:dc="http://purl.org/dc/elements/1.1/" xmlns:cc="http://creativecommons.org/ns#" xmlns:rdf="http://www.w3.org/1999/02/22-rdf-syntax-ns#">
   <cc:Work>
    <dc:type rdf:resource="http://purl.org/dc/dcmitype/StillImage"/>
    <dc:date>2024-06-04T11:57:34.107342</dc:date>
    <dc:format>image/svg+xml</dc:format>
    <dc:creator>
     <cc:Agent>
      <dc:title>Matplotlib v3.8.4, https://matplotlib.org/</dc:title>
     </cc:Agent>
    </dc:creator>
   </cc:Work>
  </rdf:RDF>
 </metadata>
 <defs>
  <style type="text/css">*{stroke-linejoin: round; stroke-linecap: butt}</style>
 </defs>
 <g id="figure_1">
  <g id="patch_1">
   <path d="M 0 360 
L 1080 360 
L 1080 0 
L 0 0 
z
" style="fill: #ffffff"/>
  </g>
  <g id="axes_1">
   <g id="patch_2">
    <path d="M 135 320.4 
L 515.454545 320.4 
L 515.454545 43.2 
L 135 43.2 
z
" style="fill: #ffffff"/>
   </g>
   <g id="matplotlib.axis_1">
    <g id="xtick_1">
     <g id="line2d_1">
      <defs>
       <path id="m3d66d3e1ba" d="M 0 0 
L 0 3.5 
" style="stroke: #000000; stroke-width: 0.8"/>
      </defs>
      <g>
       <use xlink:href="#m3d66d3e1ba" x="165.595995" y="320.4" style="stroke: #000000; stroke-width: 0.8"/>
      </g>
     </g>
     <g id="text_1">
      <!-- 00:00 -->
      <g transform="translate(157.358201 353.15084) rotate(-45) scale(0.1 -0.1)">
       <defs>
        <path id="DejaVuSans-30" d="M 2034 4250 
Q 1547 4250 1301 3770 
Q 1056 3291 1056 2328 
Q 1056 1369 1301 889 
Q 1547 409 2034 409 
Q 2525 409 2770 889 
Q 3016 1369 3016 2328 
Q 3016 3291 2770 3770 
Q 2525 4250 2034 4250 
z
M 2034 4750 
Q 2819 4750 3233 4129 
Q 3647 3509 3647 2328 
Q 3647 1150 3233 529 
Q 2819 -91 2034 -91 
Q 1250 -91 836 529 
Q 422 1150 422 2328 
Q 422 3509 836 4129 
Q 1250 4750 2034 4750 
z
" transform="scale(0.015625)"/>
        <path id="DejaVuSans-3a" d="M 750 794 
L 1409 794 
L 1409 0 
L 750 0 
L 750 794 
z
M 750 3309 
L 1409 3309 
L 1409 2516 
L 750 2516 
L 750 3309 
z
" transform="scale(0.015625)"/>
       </defs>
       <use xlink:href="#DejaVuSans-30"/>
       <use xlink:href="#DejaVuSans-30" x="63.623047"/>
       <use xlink:href="#DejaVuSans-3a" x="127.246094"/>
       <use xlink:href="#DejaVuSans-30" x="160.9375"/>
       <use xlink:href="#DejaVuSans-30" x="224.560547"/>
      </g>
     </g>
    </g>
    <g id="xtick_2">
     <g id="line2d_2">
      <g>
       <use xlink:href="#m3d66d3e1ba" x="235.000898" y="320.4" style="stroke: #000000; stroke-width: 0.8"/>
      </g>
     </g>
     <g id="text_2">
      <!-- 05:00 -->
      <g transform="translate(226.763104 353.15084) rotate(-45) scale(0.1 -0.1)">
       <defs>
        <path id="DejaVuSans-35" d="M 691 4666 
L 3169 4666 
L 3169 4134 
L 1269 4134 
L 1269 2991 
Q 1406 3038 1543 3061 
Q 1681 3084 1819 3084 
Q 2600 3084 3056 2656 
Q 3513 2228 3513 1497 
Q 3513 744 3044 326 
Q 2575 -91 1722 -91 
Q 1428 -91 1123 -41 
Q 819 9 494 109 
L 494 744 
Q 775 591 1075 516 
Q 1375 441 1709 441 
Q 2250 441 2565 725 
Q 2881 1009 2881 1497 
Q 2881 1984 2565 2268 
Q 2250 2553 1709 2553 
Q 1456 2553 1204 2497 
Q 953 2441 691 2322 
L 691 4666 
z
" transform="scale(0.015625)"/>
       </defs>
       <use xlink:href="#DejaVuSans-30"/>
       <use xlink:href="#DejaVuSans-35" x="63.623047"/>
       <use xlink:href="#DejaVuSans-3a" x="127.246094"/>
       <use xlink:href="#DejaVuSans-30" x="160.9375"/>
       <use xlink:href="#DejaVuSans-30" x="224.560547"/>
      </g>
     </g>
    </g>
    <g id="xtick_3">
     <g id="line2d_3">
      <g>
       <use xlink:href="#m3d66d3e1ba" x="304.405802" y="320.4" style="stroke: #000000; stroke-width: 0.8"/>
      </g>
     </g>
     <g id="text_3">
      <!-- 10:00 -->
      <g transform="translate(296.168008 353.15084) rotate(-45) scale(0.1 -0.1)">
       <defs>
        <path id="DejaVuSans-31" d="M 794 531 
L 1825 531 
L 1825 4091 
L 703 3866 
L 703 4441 
L 1819 4666 
L 2450 4666 
L 2450 531 
L 3481 531 
L 3481 0 
L 794 0 
L 794 531 
z
" transform="scale(0.015625)"/>
       </defs>
       <use xlink:href="#DejaVuSans-31"/>
       <use xlink:href="#DejaVuSans-30" x="63.623047"/>
       <use xlink:href="#DejaVuSans-3a" x="127.246094"/>
       <use xlink:href="#DejaVuSans-30" x="160.9375"/>
       <use xlink:href="#DejaVuSans-30" x="224.560547"/>
      </g>
     </g>
    </g>
    <g id="xtick_4">
     <g id="line2d_4">
      <g>
       <use xlink:href="#m3d66d3e1ba" x="373.810705" y="320.4" style="stroke: #000000; stroke-width: 0.8"/>
      </g>
     </g>
     <g id="text_4">
      <!-- 15:00 -->
      <g transform="translate(365.572911 353.15084) rotate(-45) scale(0.1 -0.1)">
       <use xlink:href="#DejaVuSans-31"/>
       <use xlink:href="#DejaVuSans-35" x="63.623047"/>
       <use xlink:href="#DejaVuSans-3a" x="127.246094"/>
       <use xlink:href="#DejaVuSans-30" x="160.9375"/>
       <use xlink:href="#DejaVuSans-30" x="224.560547"/>
      </g>
     </g>
    </g>
    <g id="xtick_5">
     <g id="line2d_5">
      <g>
       <use xlink:href="#m3d66d3e1ba" x="443.215609" y="320.4" style="stroke: #000000; stroke-width: 0.8"/>
      </g>
     </g>
     <g id="text_5">
      <!-- 20:00 -->
      <g transform="translate(434.977815 353.15084) rotate(-45) scale(0.1 -0.1)">
       <defs>
        <path id="DejaVuSans-32" d="M 1228 531 
L 3431 531 
L 3431 0 
L 469 0 
L 469 531 
Q 828 903 1448 1529 
Q 2069 2156 2228 2338 
Q 2531 2678 2651 2914 
Q 2772 3150 2772 3378 
Q 2772 3750 2511 3984 
Q 2250 4219 1831 4219 
Q 1534 4219 1204 4116 
Q 875 4013 500 3803 
L 500 4441 
Q 881 4594 1212 4672 
Q 1544 4750 1819 4750 
Q 2544 4750 2975 4387 
Q 3406 4025 3406 3419 
Q 3406 3131 3298 2873 
Q 3191 2616 2906 2266 
Q 2828 2175 2409 1742 
Q 1991 1309 1228 531 
z
" transform="scale(0.015625)"/>
       </defs>
       <use xlink:href="#DejaVuSans-32"/>
       <use xlink:href="#DejaVuSans-30" x="63.623047"/>
       <use xlink:href="#DejaVuSans-3a" x="127.246094"/>
       <use xlink:href="#DejaVuSans-30" x="160.9375"/>
       <use xlink:href="#DejaVuSans-30" x="224.560547"/>
      </g>
     </g>
    </g>
    <g id="xtick_6">
     <g id="line2d_6">
      <g>
       <use xlink:href="#m3d66d3e1ba" x="512.620512" y="320.4" style="stroke: #000000; stroke-width: 0.8"/>
      </g>
     </g>
    </g>
   </g>
   <g id="matplotlib.axis_2">
    <g id="ytick_1">
     <g id="line2d_7">
      <defs>
       <path id="m4001c0b9c8" d="M 0 0 
L -3.5 0 
" style="stroke: #000000; stroke-width: 0.8"/>
      </defs>
      <g>
       <use xlink:href="#m4001c0b9c8" x="135" y="303.642424" style="stroke: #000000; stroke-width: 0.8"/>
      </g>
     </g>
     <g id="text_6">
      <!-- 7.0 -->
      <g transform="translate(112.096875 307.441643) scale(0.1 -0.1)">
       <defs>
        <path id="DejaVuSans-37" d="M 525 4666 
L 3525 4666 
L 3525 4397 
L 1831 0 
L 1172 0 
L 2766 4134 
L 525 4134 
L 525 4666 
z
" transform="scale(0.015625)"/>
        <path id="DejaVuSans-2e" d="M 684 794 
L 1344 794 
L 1344 0 
L 684 0 
L 684 794 
z
" transform="scale(0.015625)"/>
       </defs>
       <use xlink:href="#DejaVuSans-37"/>
       <use xlink:href="#DejaVuSans-2e" x="63.623047"/>
       <use xlink:href="#DejaVuSans-30" x="95.410156"/>
      </g>
     </g>
    </g>
    <g id="ytick_2">
     <g id="line2d_8">
      <g>
       <use xlink:href="#m4001c0b9c8" x="135" y="245.083138" style="stroke: #000000; stroke-width: 0.8"/>
      </g>
     </g>
     <g id="text_7">
      <!-- 7.2 -->
      <g transform="translate(112.096875 248.882357) scale(0.1 -0.1)">
       <use xlink:href="#DejaVuSans-37"/>
       <use xlink:href="#DejaVuSans-2e" x="63.623047"/>
       <use xlink:href="#DejaVuSans-32" x="95.410156"/>
      </g>
     </g>
    </g>
    <g id="ytick_3">
     <g id="line2d_9">
      <g>
       <use xlink:href="#m4001c0b9c8" x="135" y="186.523852" style="stroke: #000000; stroke-width: 0.8"/>
      </g>
     </g>
     <g id="text_8">
      <!-- 7.4 -->
      <g transform="translate(112.096875 190.323071) scale(0.1 -0.1)">
       <defs>
        <path id="DejaVuSans-34" d="M 2419 4116 
L 825 1625 
L 2419 1625 
L 2419 4116 
z
M 2253 4666 
L 3047 4666 
L 3047 1625 
L 3713 1625 
L 3713 1100 
L 3047 1100 
L 3047 0 
L 2419 0 
L 2419 1100 
L 313 1100 
L 313 1709 
L 2253 4666 
z
" transform="scale(0.015625)"/>
       </defs>
       <use xlink:href="#DejaVuSans-37"/>
       <use xlink:href="#DejaVuSans-2e" x="63.623047"/>
       <use xlink:href="#DejaVuSans-34" x="95.410156"/>
      </g>
     </g>
    </g>
    <g id="ytick_4">
     <g id="line2d_10">
      <g>
       <use xlink:href="#m4001c0b9c8" x="135" y="127.964566" style="stroke: #000000; stroke-width: 0.8"/>
      </g>
     </g>
     <g id="text_9">
      <!-- 7.6 -->
      <g transform="translate(112.096875 131.763785) scale(0.1 -0.1)">
       <defs>
        <path id="DejaVuSans-36" d="M 2113 2584 
Q 1688 2584 1439 2293 
Q 1191 2003 1191 1497 
Q 1191 994 1439 701 
Q 1688 409 2113 409 
Q 2538 409 2786 701 
Q 3034 994 3034 1497 
Q 3034 2003 2786 2293 
Q 2538 2584 2113 2584 
z
M 3366 4563 
L 3366 3988 
Q 3128 4100 2886 4159 
Q 2644 4219 2406 4219 
Q 1781 4219 1451 3797 
Q 1122 3375 1075 2522 
Q 1259 2794 1537 2939 
Q 1816 3084 2150 3084 
Q 2853 3084 3261 2657 
Q 3669 2231 3669 1497 
Q 3669 778 3244 343 
Q 2819 -91 2113 -91 
Q 1303 -91 875 529 
Q 447 1150 447 2328 
Q 447 3434 972 4092 
Q 1497 4750 2381 4750 
Q 2619 4750 2861 4703 
Q 3103 4656 3366 4563 
z
" transform="scale(0.015625)"/>
       </defs>
       <use xlink:href="#DejaVuSans-37"/>
       <use xlink:href="#DejaVuSans-2e" x="63.623047"/>
       <use xlink:href="#DejaVuSans-36" x="95.410156"/>
      </g>
     </g>
    </g>
    <g id="ytick_5">
     <g id="line2d_11">
      <g>
       <use xlink:href="#m4001c0b9c8" x="135" y="69.40528" style="stroke: #000000; stroke-width: 0.8"/>
      </g>
     </g>
     <g id="text_10">
      <!-- 7.8 -->
      <g transform="translate(112.096875 73.204499) scale(0.1 -0.1)">
       <defs>
        <path id="DejaVuSans-38" d="M 2034 2216 
Q 1584 2216 1326 1975 
Q 1069 1734 1069 1313 
Q 1069 891 1326 650 
Q 1584 409 2034 409 
Q 2484 409 2743 651 
Q 3003 894 3003 1313 
Q 3003 1734 2745 1975 
Q 2488 2216 2034 2216 
z
M 1403 2484 
Q 997 2584 770 2862 
Q 544 3141 544 3541 
Q 544 4100 942 4425 
Q 1341 4750 2034 4750 
Q 2731 4750 3128 4425 
Q 3525 4100 3525 3541 
Q 3525 3141 3298 2862 
Q 3072 2584 2669 2484 
Q 3125 2378 3379 2068 
Q 3634 1759 3634 1313 
Q 3634 634 3220 271 
Q 2806 -91 2034 -91 
Q 1263 -91 848 271 
Q 434 634 434 1313 
Q 434 1759 690 2068 
Q 947 2378 1403 2484 
z
M 1172 3481 
Q 1172 3119 1398 2916 
Q 1625 2713 2034 2713 
Q 2441 2713 2670 2916 
Q 2900 3119 2900 3481 
Q 2900 3844 2670 4047 
Q 2441 4250 2034 4250 
Q 1625 4250 1398 4047 
Q 1172 3844 1172 3481 
z
" transform="scale(0.015625)"/>
       </defs>
       <use xlink:href="#DejaVuSans-37"/>
       <use xlink:href="#DejaVuSans-2e" x="63.623047"/>
       <use xlink:href="#DejaVuSans-38" x="95.410156"/>
      </g>
     </g>
    </g>
    <g id="text_11">
     <!-- Price -->
     <g transform="translate(106.017187 193.997656) rotate(-90) scale(0.1 -0.1)">
      <defs>
       <path id="DejaVuSans-50" d="M 1259 4147 
L 1259 2394 
L 2053 2394 
Q 2494 2394 2734 2622 
Q 2975 2850 2975 3272 
Q 2975 3691 2734 3919 
Q 2494 4147 2053 4147 
L 1259 4147 
z
M 628 4666 
L 2053 4666 
Q 2838 4666 3239 4311 
Q 3641 3956 3641 3272 
Q 3641 2581 3239 2228 
Q 2838 1875 2053 1875 
L 1259 1875 
L 1259 0 
L 628 0 
L 628 4666 
z
" transform="scale(0.015625)"/>
       <path id="DejaVuSans-72" d="M 2631 2963 
Q 2534 3019 2420 3045 
Q 2306 3072 2169 3072 
Q 1681 3072 1420 2755 
Q 1159 2438 1159 1844 
L 1159 0 
L 581 0 
L 581 3500 
L 1159 3500 
L 1159 2956 
Q 1341 3275 1631 3429 
Q 1922 3584 2338 3584 
Q 2397 3584 2469 3576 
Q 2541 3569 2628 3553 
L 2631 2963 
z
" transform="scale(0.015625)"/>
       <path id="DejaVuSans-69" d="M 603 3500 
L 1178 3500 
L 1178 0 
L 603 0 
L 603 3500 
z
M 603 4863 
L 1178 4863 
L 1178 4134 
L 603 4134 
L 603 4863 
z
" transform="scale(0.015625)"/>
       <path id="DejaVuSans-63" d="M 3122 3366 
L 3122 2828 
Q 2878 2963 2633 3030 
Q 2388 3097 2138 3097 
Q 1578 3097 1268 2742 
Q 959 2388 959 1747 
Q 959 1106 1268 751 
Q 1578 397 2138 397 
Q 2388 397 2633 464 
Q 2878 531 3122 666 
L 3122 134 
Q 2881 22 2623 -34 
Q 2366 -91 2075 -91 
Q 1284 -91 818 406 
Q 353 903 353 1747 
Q 353 2603 823 3093 
Q 1294 3584 2113 3584 
Q 2378 3584 2631 3529 
Q 2884 3475 3122 3366 
z
" transform="scale(0.015625)"/>
       <path id="DejaVuSans-65" d="M 3597 1894 
L 3597 1613 
L 953 1613 
Q 991 1019 1311 708 
Q 1631 397 2203 397 
Q 2534 397 2845 478 
Q 3156 559 3463 722 
L 3463 178 
Q 3153 47 2828 -22 
Q 2503 -91 2169 -91 
Q 1331 -91 842 396 
Q 353 884 353 1716 
Q 353 2575 817 3079 
Q 1281 3584 2069 3584 
Q 2775 3584 3186 3129 
Q 3597 2675 3597 1894 
z
M 3022 2063 
Q 3016 2534 2758 2815 
Q 2500 3097 2075 3097 
Q 1594 3097 1305 2825 
Q 1016 2553 972 2059 
L 3022 2063 
z
" transform="scale(0.015625)"/>
      </defs>
      <use xlink:href="#DejaVuSans-50"/>
      <use xlink:href="#DejaVuSans-72" x="58.552734"/>
      <use xlink:href="#DejaVuSans-69" x="99.666016"/>
      <use xlink:href="#DejaVuSans-63" x="127.449219"/>
      <use xlink:href="#DejaVuSans-65" x="182.429688"/>
     </g>
    </g>
   </g>
   <g id="PolyCollection_1">
    <path d="M 161.084676 283.000276 
L 161.084676 288.856204 
L 170.107314 288.856204 
L 170.107314 283.000276 
z
" clip-path="url(#p96c3241fff)" style="fill: #ea0070; fill-opacity: 0.9; stroke: #ea0070"/>
    <path d="M 174.965657 288.856204 
L 174.965657 292.955354 
L 183.988294 292.955354 
L 183.988294 288.856204 
z
" clip-path="url(#p96c3241fff)" style="fill: #ea0070; fill-opacity: 0.9; stroke: #ea0070"/>
    <path d="M 188.846638 292.955354 
L 188.846638 272.752401 
L 197.869275 272.752401 
L 197.869275 292.955354 
z
" clip-path="url(#p96c3241fff)" style="fill: #70a800; fill-opacity: 0.9; stroke: #70a800"/>
    <path d="M 202.727618 272.752401 
L 202.727618 277.72994 
L 211.750256 277.72994 
L 211.750256 272.752401 
z
" clip-path="url(#p96c3241fff)" style="fill: #ea0070; fill-opacity: 0.9; stroke: #ea0070"/>
    <path d="M 216.608599 277.72994 
L 216.608599 247.718306 
L 225.631236 247.718306 
L 225.631236 277.72994 
z
" clip-path="url(#p96c3241fff)" style="fill: #70a800; fill-opacity: 0.9; stroke: #70a800"/>
    <path d="M 230.48958 247.718306 
L 230.48958 212.436336 
L 239.512217 212.436336 
L 239.512217 247.718306 
z
" clip-path="url(#p96c3241fff)" style="fill: #70a800; fill-opacity: 0.9; stroke: #70a800"/>
    <path d="M 244.37056 212.436336 
L 244.37056 264.261304 
L 253.393198 264.261304 
L 253.393198 212.436336 
z
" clip-path="url(#p96c3241fff)" style="fill: #ea0070; fill-opacity: 0.9; stroke: #ea0070"/>
    <path d="M 258.251541 264.261304 
L 258.251541 239.520006 
L 267.274178 239.520006 
L 267.274178 264.261304 
z
" clip-path="url(#p96c3241fff)" style="fill: #70a800; fill-opacity: 0.9; stroke: #70a800"/>
    <path d="M 272.132522 239.520006 
L 272.132522 237.031236 
L 281.155159 237.031236 
L 281.155159 239.520006 
z
" clip-path="url(#p96c3241fff)" style="fill: #70a800; fill-opacity: 0.9; stroke: #70a800"/>
    <path d="M 286.013502 237.031236 
L 286.013502 247.864704 
L 295.03614 247.864704 
L 295.03614 237.031236 
z
" clip-path="url(#p96c3241fff)" style="fill: #ea0070; fill-opacity: 0.9; stroke: #ea0070"/>
    <path d="M 299.894483 247.718306 
L 299.894483 249.03589 
L 308.91712 249.03589 
L 308.91712 247.718306 
z
" clip-path="url(#p96c3241fff)" style="fill: #ea0070; fill-opacity: 0.9; stroke: #ea0070"/>
    <path d="M 313.775464 248.889492 
L 313.775464 249.328686 
L 322.798101 249.328686 
L 322.798101 248.889492 
z
" clip-path="url(#p96c3241fff)" style="fill: #ea0070; fill-opacity: 0.9; stroke: #ea0070"/>
    <path d="M 327.656444 249.182288 
L 327.656444 258.990968 
L 336.679082 258.990968 
L 336.679082 249.182288 
z
" clip-path="url(#p96c3241fff)" style="fill: #ea0070; fill-opacity: 0.9; stroke: #ea0070"/>
    <path d="M 341.537425 258.990968 
L 341.537425 250.64627 
L 350.560062 250.64627 
L 350.560062 258.990968 
z
" clip-path="url(#p96c3241fff)" style="fill: #70a800; fill-opacity: 0.9; stroke: #70a800"/>
    <path d="M 355.418406 250.64627 
L 355.418406 257.380588 
L 364.441043 257.380588 
L 364.441043 250.64627 
z
" clip-path="url(#p96c3241fff)" style="fill: #ea0070; fill-opacity: 0.9; stroke: #ea0070"/>
    <path d="M 369.299386 257.380588 
L 369.299386 242.008776 
L 378.322024 242.008776 
L 378.322024 257.380588 
z
" clip-path="url(#p96c3241fff)" style="fill: #70a800; fill-opacity: 0.9; stroke: #70a800"/>
    <path d="M 383.180367 242.008776 
L 383.180367 225.904972 
L 392.203005 225.904972 
L 392.203005 242.008776 
z
" clip-path="url(#p96c3241fff)" style="fill: #70a800; fill-opacity: 0.9; stroke: #70a800"/>
    <path d="M 397.061348 225.904972 
L 397.061348 214.339513 
L 406.083985 214.339513 
L 406.083985 225.904972 
z
" clip-path="url(#p96c3241fff)" style="fill: #70a800; fill-opacity: 0.9; stroke: #70a800"/>
    <path d="M 410.942328 214.339513 
L 410.942328 219.756247 
L 419.964966 219.756247 
L 419.964966 214.339513 
z
" clip-path="url(#p96c3241fff)" style="fill: #ea0070; fill-opacity: 0.9; stroke: #ea0070"/>
    <path d="M 424.823309 219.756247 
L 424.823309 100.5881 
L 433.845947 100.5881 
L 433.845947 219.756247 
z
" clip-path="url(#p96c3241fff)" style="fill: #70a800; fill-opacity: 0.9; stroke: #70a800"/>
    <path d="M 438.70429 100.5881 
L 438.70429 72.918838 
L 447.726927 72.918838 
L 447.726927 100.5881 
z
" clip-path="url(#p96c3241fff)" style="fill: #70a800; fill-opacity: 0.9; stroke: #70a800"/>
    <path d="M 452.58527 72.918838 
L 452.58527 61.353379 
L 461.607908 61.353379 
L 461.607908 72.918838 
z
" clip-path="url(#p96c3241fff)" style="fill: #70a800; fill-opacity: 0.9; stroke: #70a800"/>
    <path d="M 466.466251 61.353379 
L 466.466251 59.450202 
L 475.488889 59.450202 
L 475.488889 61.353379 
z
" clip-path="url(#p96c3241fff)" style="fill: #70a800; fill-opacity: 0.9; stroke: #70a800"/>
    <path d="M 480.347232 59.450202 
L 480.347232 53.740671 
L 489.369869 53.740671 
L 489.369869 59.450202 
z
" clip-path="url(#p96c3241fff)" style="fill: #70a800; fill-opacity: 0.9; stroke: #70a800"/>
   </g>
   <g id="LineCollection_1">
    <path d="M 165.595995 299.396876 
L 165.595995 288.856204 
" clip-path="url(#p96c3241fff)" style="fill: none; stroke: #ea0070"/>
    <path d="M 179.476976 318.135847 
L 179.476976 292.955354 
" clip-path="url(#p96c3241fff)" style="fill: none; stroke: #ea0070"/>
    <path d="M 193.357956 293.394549 
L 193.357956 292.955354 
" clip-path="url(#p96c3241fff)" style="fill: none; stroke: #70a800"/>
    <path d="M 207.238937 277.72994 
L 207.238937 277.72994 
" clip-path="url(#p96c3241fff)" style="fill: none; stroke: #ea0070"/>
    <path d="M 221.119918 279.34032 
L 221.119918 277.72994 
" clip-path="url(#p96c3241fff)" style="fill: none; stroke: #70a800"/>
    <path d="M 235.000898 249.03589 
L 235.000898 247.718306 
" clip-path="url(#p96c3241fff)" style="fill: none; stroke: #70a800"/>
    <path d="M 248.881879 271.434817 
L 248.881879 264.261304 
" clip-path="url(#p96c3241fff)" style="fill: none; stroke: #ea0070"/>
    <path d="M 262.76286 267.04287 
L 262.76286 264.261304 
" clip-path="url(#p96c3241fff)" style="fill: none; stroke: #70a800"/>
    <path d="M 276.64384 246.400722 
L 276.64384 239.520006 
" clip-path="url(#p96c3241fff)" style="fill: none; stroke: #70a800"/>
    <path d="M 290.524821 250.792668 
L 290.524821 247.864704 
" clip-path="url(#p96c3241fff)" style="fill: none; stroke: #ea0070"/>
    <path d="M 304.405802 251.085465 
L 304.405802 249.03589 
" clip-path="url(#p96c3241fff)" style="fill: none; stroke: #ea0070"/>
    <path d="M 318.286782 257.23419 
L 318.286782 249.328686 
" clip-path="url(#p96c3241fff)" style="fill: none; stroke: #ea0070"/>
    <path d="M 332.167763 260.747747 
L 332.167763 258.990968 
" clip-path="url(#p96c3241fff)" style="fill: none; stroke: #ea0070"/>
    <path d="M 346.048744 260.162154 
L 346.048744 258.990968 
" clip-path="url(#p96c3241fff)" style="fill: none; stroke: #70a800"/>
    <path d="M 359.929724 266.603676 
L 359.929724 257.380588 
" clip-path="url(#p96c3241fff)" style="fill: none; stroke: #ea0070"/>
    <path d="M 373.810705 261.186942 
L 373.810705 257.380588 
" clip-path="url(#p96c3241fff)" style="fill: none; stroke: #70a800"/>
    <path d="M 387.691686 249.182288 
L 387.691686 242.008776 
" clip-path="url(#p96c3241fff)" style="fill: none; stroke: #70a800"/>
    <path d="M 401.572666 237.909626 
L 401.572666 225.904972 
" clip-path="url(#p96c3241fff)" style="fill: none; stroke: #70a800"/>
    <path d="M 415.453647 222.684211 
L 415.453647 219.756247 
" clip-path="url(#p96c3241fff)" style="fill: none; stroke: #ea0070"/>
    <path d="M 429.334628 232.63929 
L 429.334628 219.756247 
" clip-path="url(#p96c3241fff)" style="fill: none; stroke: #70a800"/>
    <path d="M 443.215609 100.734498 
L 443.215609 100.5881 
" clip-path="url(#p96c3241fff)" style="fill: none; stroke: #70a800"/>
    <path d="M 457.096589 99.416914 
L 457.096589 72.918838 
" clip-path="url(#p96c3241fff)" style="fill: none; stroke: #70a800"/>
    <path d="M 470.97757 74.38282 
L 470.97757 61.353379 
" clip-path="url(#p96c3241fff)" style="fill: none; stroke: #70a800"/>
    <path d="M 484.858551 68.087696 
L 484.858551 59.450202 
" clip-path="url(#p96c3241fff)" style="fill: none; stroke: #70a800"/>
    <path d="M 165.595995 278.461931 
L 165.595995 283.000276 
" clip-path="url(#p96c3241fff)" style="fill: none; stroke: #ea0070"/>
    <path d="M 179.476976 284.610656 
L 179.476976 288.856204 
" clip-path="url(#p96c3241fff)" style="fill: none; stroke: #ea0070"/>
    <path d="M 193.357956 268.799649 
L 193.357956 272.752401 
" clip-path="url(#p96c3241fff)" style="fill: none; stroke: #70a800"/>
    <path d="M 207.238937 267.92126 
L 207.238937 272.752401 
" clip-path="url(#p96c3241fff)" style="fill: none; stroke: #ea0070"/>
    <path d="M 221.119918 242.008776 
L 221.119918 247.718306 
" clip-path="url(#p96c3241fff)" style="fill: none; stroke: #70a800"/>
    <path d="M 235.000898 196.332533 
L 235.000898 212.436336 
" clip-path="url(#p96c3241fff)" style="fill: none; stroke: #70a800"/>
    <path d="M 248.881879 212.436336 
L 248.881879 212.436336 
" clip-path="url(#p96c3241fff)" style="fill: none; stroke: #ea0070"/>
    <path d="M 262.76286 230.736113 
L 262.76286 239.520006 
" clip-path="url(#p96c3241fff)" style="fill: none; stroke: #70a800"/>
    <path d="M 276.64384 232.932086 
L 276.64384 237.031236 
" clip-path="url(#p96c3241fff)" style="fill: none; stroke: #70a800"/>
    <path d="M 290.524821 235.567254 
L 290.524821 237.031236 
" clip-path="url(#p96c3241fff)" style="fill: none; stroke: #ea0070"/>
    <path d="M 304.405802 238.788015 
L 304.405802 247.718306 
" clip-path="url(#p96c3241fff)" style="fill: none; stroke: #ea0070"/>
    <path d="M 318.286782 235.860051 
L 318.286782 248.889492 
" clip-path="url(#p96c3241fff)" style="fill: none; stroke: #ea0070"/>
    <path d="M 332.167763 241.423183 
L 332.167763 249.182288 
" clip-path="url(#p96c3241fff)" style="fill: none; stroke: #ea0070"/>
    <path d="M 346.048744 246.107926 
L 346.048744 250.64627 
" clip-path="url(#p96c3241fff)" style="fill: none; stroke: #70a800"/>
    <path d="M 359.929724 249.767881 
L 359.929724 250.64627 
" clip-path="url(#p96c3241fff)" style="fill: none; stroke: #ea0070"/>
    <path d="M 373.810705 238.34882 
L 373.810705 242.008776 
" clip-path="url(#p96c3241fff)" style="fill: none; stroke: #70a800"/>
    <path d="M 387.691686 219.46345 
L 387.691686 225.904972 
" clip-path="url(#p96c3241fff)" style="fill: none; stroke: #70a800"/>
    <path d="M 401.572666 214.339513 
L 401.572666 214.339513 
" clip-path="url(#p96c3241fff)" style="fill: none; stroke: #70a800"/>
    <path d="M 415.453647 207.897992 
L 415.453647 214.339513 
" clip-path="url(#p96c3241fff)" style="fill: none; stroke: #ea0070"/>
    <path d="M 429.334628 88.29065 
L 429.334628 100.5881 
" clip-path="url(#p96c3241fff)" style="fill: none; stroke: #70a800"/>
    <path d="M 443.215609 43.2 
L 443.215609 72.918838 
" clip-path="url(#p96c3241fff)" style="fill: none; stroke: #70a800"/>
    <path d="M 457.096589 61.353379 
L 457.096589 61.353379 
" clip-path="url(#p96c3241fff)" style="fill: none; stroke: #70a800"/>
    <path d="M 470.97757 52.276689 
L 470.97757 59.450202 
" clip-path="url(#p96c3241fff)" style="fill: none; stroke: #70a800"/>
    <path d="M 484.858551 47.884743 
L 484.858551 53.740671 
" clip-path="url(#p96c3241fff)" style="fill: none; stroke: #70a800"/>
   </g>
   <g id="patch_3">
    <path d="M 135 320.4 
L 135 43.2 
" style="fill: none; stroke: #000000; stroke-width: 0.8; stroke-linejoin: miter; stroke-linecap: square"/>
   </g>
   <g id="patch_4">
    <path d="M 515.454545 320.4 
L 515.454545 43.2 
" style="fill: none; stroke: #000000; stroke-width: 0.8; stroke-linejoin: miter; stroke-linecap: square"/>
   </g>
   <g id="patch_5">
    <path d="M 135 320.4 
L 515.454545 320.4 
" style="fill: none; stroke: #000000; stroke-width: 0.8; stroke-linejoin: miter; stroke-linecap: square"/>
   </g>
   <g id="patch_6">
    <path d="M 135 43.2 
L 515.454545 43.2 
" style="fill: none; stroke: #000000; stroke-width: 0.8; stroke-linejoin: miter; stroke-linecap: square"/>
   </g>
   <g id="text_12">
    <!-- Actual -->
    <g transform="translate(306.430398 37.2) scale(0.12 -0.12)">
     <defs>
      <path id="DejaVuSans-41" d="M 2188 4044 
L 1331 1722 
L 3047 1722 
L 2188 4044 
z
M 1831 4666 
L 2547 4666 
L 4325 0 
L 3669 0 
L 3244 1197 
L 1141 1197 
L 716 0 
L 50 0 
L 1831 4666 
z
" transform="scale(0.015625)"/>
      <path id="DejaVuSans-74" d="M 1172 4494 
L 1172 3500 
L 2356 3500 
L 2356 3053 
L 1172 3053 
L 1172 1153 
Q 1172 725 1289 603 
Q 1406 481 1766 481 
L 2356 481 
L 2356 0 
L 1766 0 
Q 1100 0 847 248 
Q 594 497 594 1153 
L 594 3053 
L 172 3053 
L 172 3500 
L 594 3500 
L 594 4494 
L 1172 4494 
z
" transform="scale(0.015625)"/>
      <path id="DejaVuSans-75" d="M 544 1381 
L 544 3500 
L 1119 3500 
L 1119 1403 
Q 1119 906 1312 657 
Q 1506 409 1894 409 
Q 2359 409 2629 706 
Q 2900 1003 2900 1516 
L 2900 3500 
L 3475 3500 
L 3475 0 
L 2900 0 
L 2900 538 
Q 2691 219 2414 64 
Q 2138 -91 1772 -91 
Q 1169 -91 856 284 
Q 544 659 544 1381 
z
M 1991 3584 
L 1991 3584 
z
" transform="scale(0.015625)"/>
      <path id="DejaVuSans-61" d="M 2194 1759 
Q 1497 1759 1228 1600 
Q 959 1441 959 1056 
Q 959 750 1161 570 
Q 1363 391 1709 391 
Q 2188 391 2477 730 
Q 2766 1069 2766 1631 
L 2766 1759 
L 2194 1759 
z
M 3341 1997 
L 3341 0 
L 2766 0 
L 2766 531 
Q 2569 213 2275 61 
Q 1981 -91 1556 -91 
Q 1019 -91 701 211 
Q 384 513 384 1019 
Q 384 1609 779 1909 
Q 1175 2209 1959 2209 
L 2766 2209 
L 2766 2266 
Q 2766 2663 2505 2880 
Q 2244 3097 1772 3097 
Q 1472 3097 1187 3025 
Q 903 2953 641 2809 
L 641 3341 
Q 956 3463 1253 3523 
Q 1550 3584 1831 3584 
Q 2591 3584 2966 3190 
Q 3341 2797 3341 1997 
z
" transform="scale(0.015625)"/>
      <path id="DejaVuSans-6c" d="M 603 4863 
L 1178 4863 
L 1178 0 
L 603 0 
L 603 4863 
z
" transform="scale(0.015625)"/>
     </defs>
     <use xlink:href="#DejaVuSans-41"/>
     <use xlink:href="#DejaVuSans-63" x="66.658203"/>
     <use xlink:href="#DejaVuSans-74" x="121.638672"/>
     <use xlink:href="#DejaVuSans-75" x="160.847656"/>
     <use xlink:href="#DejaVuSans-61" x="224.226562"/>
     <use xlink:href="#DejaVuSans-6c" x="285.505859"/>
    </g>
   </g>
  </g>
  <g id="axes_2">
   <g id="patch_7">
    <path d="M 591.545455 320.4 
L 972 320.4 
L 972 43.2 
L 591.545455 43.2 
z
" style="fill: #ffffff"/>
   </g>
   <g id="matplotlib.axis_3">
    <g id="xtick_7">
     <g id="line2d_12">
      <g>
       <use xlink:href="#m3d66d3e1ba" x="622.141449" y="320.4" style="stroke: #000000; stroke-width: 0.8"/>
      </g>
     </g>
     <g id="text_13">
      <!-- 00:00 -->
      <g transform="translate(613.903655 353.15084) rotate(-45) scale(0.1 -0.1)">
       <use xlink:href="#DejaVuSans-30"/>
       <use xlink:href="#DejaVuSans-30" x="63.623047"/>
       <use xlink:href="#DejaVuSans-3a" x="127.246094"/>
       <use xlink:href="#DejaVuSans-30" x="160.9375"/>
       <use xlink:href="#DejaVuSans-30" x="224.560547"/>
      </g>
     </g>
    </g>
    <g id="xtick_8">
     <g id="line2d_13">
      <g>
       <use xlink:href="#m3d66d3e1ba" x="691.546353" y="320.4" style="stroke: #000000; stroke-width: 0.8"/>
      </g>
     </g>
     <g id="text_14">
      <!-- 05:00 -->
      <g transform="translate(683.308559 353.15084) rotate(-45) scale(0.1 -0.1)">
       <use xlink:href="#DejaVuSans-30"/>
       <use xlink:href="#DejaVuSans-35" x="63.623047"/>
       <use xlink:href="#DejaVuSans-3a" x="127.246094"/>
       <use xlink:href="#DejaVuSans-30" x="160.9375"/>
       <use xlink:href="#DejaVuSans-30" x="224.560547"/>
      </g>
     </g>
    </g>
    <g id="xtick_9">
     <g id="line2d_14">
      <g>
       <use xlink:href="#m3d66d3e1ba" x="760.951256" y="320.4" style="stroke: #000000; stroke-width: 0.8"/>
      </g>
     </g>
     <g id="text_15">
      <!-- 10:00 -->
      <g transform="translate(752.713462 353.15084) rotate(-45) scale(0.1 -0.1)">
       <use xlink:href="#DejaVuSans-31"/>
       <use xlink:href="#DejaVuSans-30" x="63.623047"/>
       <use xlink:href="#DejaVuSans-3a" x="127.246094"/>
       <use xlink:href="#DejaVuSans-30" x="160.9375"/>
       <use xlink:href="#DejaVuSans-30" x="224.560547"/>
      </g>
     </g>
    </g>
    <g id="xtick_10">
     <g id="line2d_15">
      <g>
       <use xlink:href="#m3d66d3e1ba" x="830.35616" y="320.4" style="stroke: #000000; stroke-width: 0.8"/>
      </g>
     </g>
     <g id="text_16">
      <!-- 15:00 -->
      <g transform="translate(822.118366 353.15084) rotate(-45) scale(0.1 -0.1)">
       <use xlink:href="#DejaVuSans-31"/>
       <use xlink:href="#DejaVuSans-35" x="63.623047"/>
       <use xlink:href="#DejaVuSans-3a" x="127.246094"/>
       <use xlink:href="#DejaVuSans-30" x="160.9375"/>
       <use xlink:href="#DejaVuSans-30" x="224.560547"/>
      </g>
     </g>
    </g>
    <g id="xtick_11">
     <g id="line2d_16">
      <g>
       <use xlink:href="#m3d66d3e1ba" x="899.761063" y="320.4" style="stroke: #000000; stroke-width: 0.8"/>
      </g>
     </g>
     <g id="text_17">
      <!-- 20:00 -->
      <g transform="translate(891.523269 353.15084) rotate(-45) scale(0.1 -0.1)">
       <use xlink:href="#DejaVuSans-32"/>
       <use xlink:href="#DejaVuSans-30" x="63.623047"/>
       <use xlink:href="#DejaVuSans-3a" x="127.246094"/>
       <use xlink:href="#DejaVuSans-30" x="160.9375"/>
       <use xlink:href="#DejaVuSans-30" x="224.560547"/>
      </g>
     </g>
    </g>
    <g id="xtick_12">
     <g id="line2d_17">
      <g>
       <use xlink:href="#m3d66d3e1ba" x="969.165966" y="320.4" style="stroke: #000000; stroke-width: 0.8"/>
      </g>
     </g>
    </g>
   </g>
   <g id="matplotlib.axis_4">
    <g id="ytick_6">
     <g id="line2d_18">
      <g>
       <use xlink:href="#m4001c0b9c8" x="591.545455" y="303.642424" style="stroke: #000000; stroke-width: 0.8"/>
      </g>
     </g>
     <g id="text_18">
      <!-- 7.0 -->
      <g transform="translate(568.64233 307.441643) scale(0.1 -0.1)">
       <use xlink:href="#DejaVuSans-37"/>
       <use xlink:href="#DejaVuSans-2e" x="63.623047"/>
       <use xlink:href="#DejaVuSans-30" x="95.410156"/>
      </g>
     </g>
    </g>
    <g id="ytick_7">
     <g id="line2d_19">
      <g>
       <use xlink:href="#m4001c0b9c8" x="591.545455" y="245.083138" style="stroke: #000000; stroke-width: 0.8"/>
      </g>
     </g>
     <g id="text_19">
      <!-- 7.2 -->
      <g transform="translate(568.64233 248.882357) scale(0.1 -0.1)">
       <use xlink:href="#DejaVuSans-37"/>
       <use xlink:href="#DejaVuSans-2e" x="63.623047"/>
       <use xlink:href="#DejaVuSans-32" x="95.410156"/>
      </g>
     </g>
    </g>
    <g id="ytick_8">
     <g id="line2d_20">
      <g>
       <use xlink:href="#m4001c0b9c8" x="591.545455" y="186.523852" style="stroke: #000000; stroke-width: 0.8"/>
      </g>
     </g>
     <g id="text_20">
      <!-- 7.4 -->
      <g transform="translate(568.64233 190.323071) scale(0.1 -0.1)">
       <use xlink:href="#DejaVuSans-37"/>
       <use xlink:href="#DejaVuSans-2e" x="63.623047"/>
       <use xlink:href="#DejaVuSans-34" x="95.410156"/>
      </g>
     </g>
    </g>
    <g id="ytick_9">
     <g id="line2d_21">
      <g>
       <use xlink:href="#m4001c0b9c8" x="591.545455" y="127.964566" style="stroke: #000000; stroke-width: 0.8"/>
      </g>
     </g>
     <g id="text_21">
      <!-- 7.6 -->
      <g transform="translate(568.64233 131.763785) scale(0.1 -0.1)">
       <use xlink:href="#DejaVuSans-37"/>
       <use xlink:href="#DejaVuSans-2e" x="63.623047"/>
       <use xlink:href="#DejaVuSans-36" x="95.410156"/>
      </g>
     </g>
    </g>
    <g id="ytick_10">
     <g id="line2d_22">
      <g>
       <use xlink:href="#m4001c0b9c8" x="591.545455" y="69.40528" style="stroke: #000000; stroke-width: 0.8"/>
      </g>
     </g>
     <g id="text_22">
      <!-- 7.8 -->
      <g transform="translate(568.64233 73.204499) scale(0.1 -0.1)">
       <use xlink:href="#DejaVuSans-37"/>
       <use xlink:href="#DejaVuSans-2e" x="63.623047"/>
       <use xlink:href="#DejaVuSans-38" x="95.410156"/>
      </g>
     </g>
    </g>
    <g id="text_23">
     <!-- Price -->
     <g transform="translate(562.562642 193.997656) rotate(-90) scale(0.1 -0.1)">
      <use xlink:href="#DejaVuSans-50"/>
      <use xlink:href="#DejaVuSans-72" x="58.552734"/>
      <use xlink:href="#DejaVuSans-69" x="99.666016"/>
      <use xlink:href="#DejaVuSans-63" x="127.449219"/>
      <use xlink:href="#DejaVuSans-65" x="182.429688"/>
     </g>
    </g>
   </g>
   <g id="PolyCollection_2">
    <path d="M 617.630131 284.747324 
L 617.630131 289.182093 
L 626.652768 289.182093 
L 626.652768 284.747324 
z
" clip-path="url(#p1c92e26ff1)" style="fill: #ea0070; fill-opacity: 0.9; stroke: #ea0070"/>
    <path d="M 631.511111 290.883317 
L 631.511111 292.136791 
L 640.533749 292.136791 
L 640.533749 290.883317 
z
" clip-path="url(#p1c92e26ff1)" style="fill: #ea0070; fill-opacity: 0.9; stroke: #ea0070"/>
    <path d="M 645.392092 293.396827 
L 645.392092 273.066752 
L 654.41473 273.066752 
L 654.41473 293.396827 
z
" clip-path="url(#p1c92e26ff1)" style="fill: #70a800; fill-opacity: 0.9; stroke: #70a800"/>
    <path d="M 659.273073 273.494536 
L 659.273073 277.85461 
L 668.29571 277.85461 
L 668.29571 273.494536 
z
" clip-path="url(#p1c92e26ff1)" style="fill: #ea0070; fill-opacity: 0.9; stroke: #ea0070"/>
    <path d="M 673.154053 279.899011 
L 673.154053 249.409761 
L 682.176691 249.409761 
L 682.176691 279.899011 
z
" clip-path="url(#p1c92e26ff1)" style="fill: #70a800; fill-opacity: 0.9; stroke: #70a800"/>
    <path d="M 687.035034 246.604033 
L 687.035034 212.891883 
L 696.057672 212.891883 
L 696.057672 246.604033 
z
" clip-path="url(#p1c92e26ff1)" style="fill: #70a800; fill-opacity: 0.9; stroke: #70a800"/>
    <path d="M 700.916015 212.365111 
L 700.916015 264.341855 
L 709.938652 264.341855 
L 709.938652 212.365111 
z
" clip-path="url(#p1c92e26ff1)" style="fill: #ea0070; fill-opacity: 0.9; stroke: #ea0070"/>
    <path d="M 714.796995 265.984021 
L 714.796995 238.686817 
L 723.819633 238.686817 
L 723.819633 265.984021 
z
" clip-path="url(#p1c92e26ff1)" style="fill: #70a800; fill-opacity: 0.9; stroke: #70a800"/>
    <path d="M 728.677976 240.683747 
L 728.677976 236.548734 
L 737.700614 236.548734 
L 737.700614 240.683747 
z
" clip-path="url(#p1c92e26ff1)" style="fill: #70a800; fill-opacity: 0.9; stroke: #70a800"/>
    <path d="M 742.558957 237.586361 
L 742.558957 248.106164 
L 751.581594 248.106164 
L 751.581594 237.586361 
z
" clip-path="url(#p1c92e26ff1)" style="fill: #ea0070; fill-opacity: 0.9; stroke: #ea0070"/>
    <path d="M 756.439938 249.011296 
L 756.439938 249.003478 
L 765.462575 249.003478 
L 765.462575 249.011296 
z
" clip-path="url(#p1c92e26ff1)" style="fill: #70a800; fill-opacity: 0.9; stroke: #70a800"/>
    <path d="M 770.320918 250.706935 
L 770.320918 250.410949 
L 779.343556 250.410949 
L 779.343556 250.706935 
z
" clip-path="url(#p1c92e26ff1)" style="fill: #70a800; fill-opacity: 0.9; stroke: #70a800"/>
    <path d="M 784.201899 248.281243 
L 784.201899 258.935356 
L 793.224536 258.935356 
L 793.224536 248.281243 
z
" clip-path="url(#p1c92e26ff1)" style="fill: #ea0070; fill-opacity: 0.9; stroke: #ea0070"/>
    <path d="M 798.08288 261.4659 
L 798.08288 250.499047 
L 807.105517 250.499047 
L 807.105517 261.4659 
z
" clip-path="url(#p1c92e26ff1)" style="fill: #70a800; fill-opacity: 0.9; stroke: #70a800"/>
    <path d="M 811.96386 252.388612 
L 811.96386 257.281742 
L 820.986498 257.281742 
L 820.986498 252.388612 
z
" clip-path="url(#p1c92e26ff1)" style="fill: #ea0070; fill-opacity: 0.9; stroke: #ea0070"/>
    <path d="M 825.844841 259.464502 
L 825.844841 244.328289 
L 834.867478 244.328289 
L 834.867478 259.464502 
z
" clip-path="url(#p1c92e26ff1)" style="fill: #70a800; fill-opacity: 0.9; stroke: #70a800"/>
    <path d="M 839.725822 241.156767 
L 839.725822 225.902718 
L 848.748459 225.902718 
L 848.748459 241.156767 
z
" clip-path="url(#p1c92e26ff1)" style="fill: #70a800; fill-opacity: 0.9; stroke: #70a800"/>
    <path d="M 853.606802 226.025161 
L 853.606802 213.546683 
L 862.62944 213.546683 
L 862.62944 226.025161 
z
" clip-path="url(#p1c92e26ff1)" style="fill: #70a800; fill-opacity: 0.9; stroke: #70a800"/>
    <path d="M 867.487783 214.640995 
L 867.487783 217.461103 
L 876.51042 217.461103 
L 876.51042 214.640995 
z
" clip-path="url(#p1c92e26ff1)" style="fill: #ea0070; fill-opacity: 0.9; stroke: #ea0070"/>
    <path d="M 881.368764 219.198906 
L 881.368764 102.799888 
L 890.391401 102.799888 
L 890.391401 219.198906 
z
" clip-path="url(#p1c92e26ff1)" style="fill: #70a800; fill-opacity: 0.9; stroke: #70a800"/>
    <path d="M 895.249744 98.323373 
L 895.249744 75.76586 
L 904.272382 75.76586 
L 904.272382 98.323373 
z
" clip-path="url(#p1c92e26ff1)" style="fill: #70a800; fill-opacity: 0.9; stroke: #70a800"/>
    <path d="M 909.130725 75.567186 
L 909.130725 64.5248 
L 918.153362 64.5248 
L 918.153362 75.567186 
z
" clip-path="url(#p1c92e26ff1)" style="fill: #70a800; fill-opacity: 0.9; stroke: #70a800"/>
    <path d="M 923.011706 63.139528 
L 923.011706 59.991601 
L 932.034343 59.991601 
L 932.034343 63.139528 
z
" clip-path="url(#p1c92e26ff1)" style="fill: #70a800; fill-opacity: 0.9; stroke: #70a800"/>
    <path d="M 936.892686 62.149789 
L 936.892686 56.138054 
L 945.915324 56.138054 
L 945.915324 62.149789 
z
" clip-path="url(#p1c92e26ff1)" style="fill: #70a800; fill-opacity: 0.9; stroke: #70a800"/>
   </g>
   <g id="LineCollection_2">
    <path d="M 622.141449 299.985875 
L 622.141449 289.182093 
" clip-path="url(#p1c92e26ff1)" style="fill: none; stroke: #ea0070"/>
    <path d="M 636.02243 320.4 
L 636.02243 292.136791 
" clip-path="url(#p1c92e26ff1)" style="fill: none; stroke: #ea0070"/>
    <path d="M 649.903411 294.657283 
L 649.903411 293.396827 
" clip-path="url(#p1c92e26ff1)" style="fill: none; stroke: #70a800"/>
    <path d="M 663.784391 280.037929 
L 663.784391 277.85461 
" clip-path="url(#p1c92e26ff1)" style="fill: none; stroke: #ea0070"/>
    <path d="M 677.665372 281.671718 
L 677.665372 279.899011 
" clip-path="url(#p1c92e26ff1)" style="fill: none; stroke: #70a800"/>
    <path d="M 691.546353 251.844947 
L 691.546353 246.604033 
" clip-path="url(#p1c92e26ff1)" style="fill: none; stroke: #70a800"/>
    <path d="M 705.427334 272.19778 
L 705.427334 264.341855 
" clip-path="url(#p1c92e26ff1)" style="fill: none; stroke: #ea0070"/>
    <path d="M 719.308314 267.769293 
L 719.308314 265.984021 
" clip-path="url(#p1c92e26ff1)" style="fill: none; stroke: #70a800"/>
    <path d="M 733.189295 246.68543 
L 733.189295 240.683747 
" clip-path="url(#p1c92e26ff1)" style="fill: none; stroke: #70a800"/>
    <path d="M 747.070276 257.172841 
L 747.070276 248.106164 
" clip-path="url(#p1c92e26ff1)" style="fill: none; stroke: #ea0070"/>
    <path d="M 760.951256 253.523692 
L 760.951256 249.011296 
" clip-path="url(#p1c92e26ff1)" style="fill: none; stroke: #70a800"/>
    <path d="M 774.832237 259.142966 
L 774.832237 250.706935 
" clip-path="url(#p1c92e26ff1)" style="fill: none; stroke: #70a800"/>
    <path d="M 788.713218 262.211032 
L 788.713218 258.935356 
" clip-path="url(#p1c92e26ff1)" style="fill: none; stroke: #ea0070"/>
    <path d="M 802.594198 262.715605 
L 802.594198 261.4659 
" clip-path="url(#p1c92e26ff1)" style="fill: none; stroke: #70a800"/>
    <path d="M 816.475179 268.175856 
L 816.475179 257.281742 
" clip-path="url(#p1c92e26ff1)" style="fill: none; stroke: #ea0070"/>
    <path d="M 830.35616 262.486216 
L 830.35616 259.464502 
" clip-path="url(#p1c92e26ff1)" style="fill: none; stroke: #70a800"/>
    <path d="M 844.23714 251.208297 
L 844.23714 241.156767 
" clip-path="url(#p1c92e26ff1)" style="fill: none; stroke: #70a800"/>
    <path d="M 858.118121 238.669783 
L 858.118121 226.025161 
" clip-path="url(#p1c92e26ff1)" style="fill: none; stroke: #70a800"/>
    <path d="M 871.999102 222.331335 
L 871.999102 217.461103 
" clip-path="url(#p1c92e26ff1)" style="fill: none; stroke: #ea0070"/>
    <path d="M 885.880082 232.120805 
L 885.880082 219.198906 
" clip-path="url(#p1c92e26ff1)" style="fill: none; stroke: #70a800"/>
    <path d="M 899.761063 100.004771 
L 899.761063 98.323373 
" clip-path="url(#p1c92e26ff1)" style="fill: none; stroke: #70a800"/>
    <path d="M 913.642044 99.9654 
L 913.642044 75.567186 
" clip-path="url(#p1c92e26ff1)" style="fill: none; stroke: #70a800"/>
    <path d="M 927.523024 87.137741 
L 927.523024 63.139528 
" clip-path="url(#p1c92e26ff1)" style="fill: none; stroke: #70a800"/>
    <path d="M 941.404005 71.412208 
L 941.404005 62.149789 
" clip-path="url(#p1c92e26ff1)" style="fill: none; stroke: #70a800"/>
    <path d="M 622.141449 170.029006 
L 622.141449 284.747324 
" clip-path="url(#p1c92e26ff1)" style="fill: none; stroke: #ea0070"/>
    <path d="M 636.02243 284.819924 
L 636.02243 290.883317 
" clip-path="url(#p1c92e26ff1)" style="fill: none; stroke: #ea0070"/>
    <path d="M 649.903411 268.366153 
L 649.903411 273.066752 
" clip-path="url(#p1c92e26ff1)" style="fill: none; stroke: #70a800"/>
    <path d="M 663.784391 263.326007 
L 663.784391 273.494536 
" clip-path="url(#p1c92e26ff1)" style="fill: none; stroke: #ea0070"/>
    <path d="M 677.665372 240.589925 
L 677.665372 249.409761 
" clip-path="url(#p1c92e26ff1)" style="fill: none; stroke: #70a800"/>
    <path d="M 691.546353 195.926697 
L 691.546353 212.891883 
" clip-path="url(#p1c92e26ff1)" style="fill: none; stroke: #70a800"/>
    <path d="M 705.427334 212.797781 
L 705.427334 212.365111 
" clip-path="url(#p1c92e26ff1)" style="fill: none; stroke: #ea0070"/>
    <path d="M 719.308314 230.571624 
L 719.308314 238.686817 
" clip-path="url(#p1c92e26ff1)" style="fill: none; stroke: #70a800"/>
    <path d="M 733.189295 232.495535 
L 733.189295 236.548734 
" clip-path="url(#p1c92e26ff1)" style="fill: none; stroke: #70a800"/>
    <path d="M 747.070276 234.261262 
L 747.070276 237.586361 
" clip-path="url(#p1c92e26ff1)" style="fill: none; stroke: #ea0070"/>
    <path d="M 760.951256 238.887585 
L 760.951256 249.003478 
" clip-path="url(#p1c92e26ff1)" style="fill: none; stroke: #70a800"/>
    <path d="M 774.832237 235.627127 
L 774.832237 250.410949 
" clip-path="url(#p1c92e26ff1)" style="fill: none; stroke: #70a800"/>
    <path d="M 788.713218 239.432926 
L 788.713218 248.281243 
" clip-path="url(#p1c92e26ff1)" style="fill: none; stroke: #ea0070"/>
    <path d="M 802.594198 245.388535 
L 802.594198 250.499047 
" clip-path="url(#p1c92e26ff1)" style="fill: none; stroke: #70a800"/>
    <path d="M 816.475179 249.098417 
L 816.475179 252.388612 
" clip-path="url(#p1c92e26ff1)" style="fill: none; stroke: #ea0070"/>
    <path d="M 830.35616 237.366606 
L 830.35616 244.328289 
" clip-path="url(#p1c92e26ff1)" style="fill: none; stroke: #70a800"/>
    <path d="M 844.23714 218.305501 
L 844.23714 225.902718 
" clip-path="url(#p1c92e26ff1)" style="fill: none; stroke: #70a800"/>
    <path d="M 858.118121 214.917714 
L 858.118121 213.546683 
" clip-path="url(#p1c92e26ff1)" style="fill: none; stroke: #70a800"/>
    <path d="M 871.999102 208.491598 
L 871.999102 214.640995 
" clip-path="url(#p1c92e26ff1)" style="fill: none; stroke: #ea0070"/>
    <path d="M 885.880082 89.514009 
L 885.880082 102.799888 
" clip-path="url(#p1c92e26ff1)" style="fill: none; stroke: #70a800"/>
    <path d="M 899.761063 46.614971 
L 899.761063 75.76586 
" clip-path="url(#p1c92e26ff1)" style="fill: none; stroke: #70a800"/>
    <path d="M 913.642044 62.429021 
L 913.642044 64.5248 
" clip-path="url(#p1c92e26ff1)" style="fill: none; stroke: #70a800"/>
    <path d="M 927.523024 53.645625 
L 927.523024 59.991601 
" clip-path="url(#p1c92e26ff1)" style="fill: none; stroke: #70a800"/>
    <path d="M 941.404005 48.893089 
L 941.404005 56.138054 
" clip-path="url(#p1c92e26ff1)" style="fill: none; stroke: #70a800"/>
   </g>
   <g id="patch_8">
    <path d="M 591.545455 320.4 
L 591.545455 43.2 
" style="fill: none; stroke: #000000; stroke-width: 0.8; stroke-linejoin: miter; stroke-linecap: square"/>
   </g>
   <g id="patch_9">
    <path d="M 972 320.4 
L 972 43.2 
" style="fill: none; stroke: #000000; stroke-width: 0.8; stroke-linejoin: miter; stroke-linecap: square"/>
   </g>
   <g id="patch_10">
    <path d="M 591.545455 320.4 
L 972 320.4 
" style="fill: none; stroke: #000000; stroke-width: 0.8; stroke-linejoin: miter; stroke-linecap: square"/>
   </g>
   <g id="patch_11">
    <path d="M 591.545455 43.2 
L 972 43.2 
" style="fill: none; stroke: #000000; stroke-width: 0.8; stroke-linejoin: miter; stroke-linecap: square"/>
   </g>
   <g id="text_24">
    <!-- Predicted -->
    <g transform="translate(753.608352 37.2) scale(0.12 -0.12)">
     <defs>
      <path id="DejaVuSans-64" d="M 2906 2969 
L 2906 4863 
L 3481 4863 
L 3481 0 
L 2906 0 
L 2906 525 
Q 2725 213 2448 61 
Q 2172 -91 1784 -91 
Q 1150 -91 751 415 
Q 353 922 353 1747 
Q 353 2572 751 3078 
Q 1150 3584 1784 3584 
Q 2172 3584 2448 3432 
Q 2725 3281 2906 2969 
z
M 947 1747 
Q 947 1113 1208 752 
Q 1469 391 1925 391 
Q 2381 391 2643 752 
Q 2906 1113 2906 1747 
Q 2906 2381 2643 2742 
Q 2381 3103 1925 3103 
Q 1469 3103 1208 2742 
Q 947 2381 947 1747 
z
" transform="scale(0.015625)"/>
     </defs>
     <use xlink:href="#DejaVuSans-50"/>
     <use xlink:href="#DejaVuSans-72" x="58.552734"/>
     <use xlink:href="#DejaVuSans-65" x="97.416016"/>
     <use xlink:href="#DejaVuSans-64" x="158.939453"/>
     <use xlink:href="#DejaVuSans-69" x="222.416016"/>
     <use xlink:href="#DejaVuSans-63" x="250.199219"/>
     <use xlink:href="#DejaVuSans-74" x="305.179688"/>
     <use xlink:href="#DejaVuSans-65" x="344.388672"/>
     <use xlink:href="#DejaVuSans-64" x="405.912109"/>
    </g>
   </g>
  </g>
  <g id="text_25">
   <!-- MLP - AXS -->
   <g transform="translate(509.860313 16.318125) scale(0.12 -0.12)">
    <defs>
     <path id="DejaVuSans-4d" d="M 628 4666 
L 1569 4666 
L 2759 1491 
L 3956 4666 
L 4897 4666 
L 4897 0 
L 4281 0 
L 4281 4097 
L 3078 897 
L 2444 897 
L 1241 4097 
L 1241 0 
L 628 0 
L 628 4666 
z
" transform="scale(0.015625)"/>
     <path id="DejaVuSans-4c" d="M 628 4666 
L 1259 4666 
L 1259 531 
L 3531 531 
L 3531 0 
L 628 0 
L 628 4666 
z
" transform="scale(0.015625)"/>
     <path id="DejaVuSans-20" transform="scale(0.015625)"/>
     <path id="DejaVuSans-2d" d="M 313 2009 
L 1997 2009 
L 1997 1497 
L 313 1497 
L 313 2009 
z
" transform="scale(0.015625)"/>
     <path id="DejaVuSans-58" d="M 403 4666 
L 1081 4666 
L 2241 2931 
L 3406 4666 
L 4084 4666 
L 2584 2425 
L 4184 0 
L 3506 0 
L 2194 1984 
L 872 0 
L 191 0 
L 1856 2491 
L 403 4666 
z
" transform="scale(0.015625)"/>
     <path id="DejaVuSans-53" d="M 3425 4513 
L 3425 3897 
Q 3066 4069 2747 4153 
Q 2428 4238 2131 4238 
Q 1616 4238 1336 4038 
Q 1056 3838 1056 3469 
Q 1056 3159 1242 3001 
Q 1428 2844 1947 2747 
L 2328 2669 
Q 3034 2534 3370 2195 
Q 3706 1856 3706 1288 
Q 3706 609 3251 259 
Q 2797 -91 1919 -91 
Q 1588 -91 1214 -16 
Q 841 59 441 206 
L 441 856 
Q 825 641 1194 531 
Q 1563 422 1919 422 
Q 2459 422 2753 634 
Q 3047 847 3047 1241 
Q 3047 1584 2836 1778 
Q 2625 1972 2144 2069 
L 1759 2144 
Q 1053 2284 737 2584 
Q 422 2884 422 3419 
Q 422 4038 858 4394 
Q 1294 4750 2059 4750 
Q 2388 4750 2728 4690 
Q 3069 4631 3425 4513 
z
" transform="scale(0.015625)"/>
    </defs>
    <use xlink:href="#DejaVuSans-4d"/>
    <use xlink:href="#DejaVuSans-4c" x="86.279297"/>
    <use xlink:href="#DejaVuSans-50" x="141.992188"/>
    <use xlink:href="#DejaVuSans-20" x="202.294922"/>
    <use xlink:href="#DejaVuSans-2d" x="234.082031"/>
    <use xlink:href="#DejaVuSans-20" x="270.166016"/>
    <use xlink:href="#DejaVuSans-41" x="301.953125"/>
    <use xlink:href="#DejaVuSans-58" x="370.361328"/>
    <use xlink:href="#DejaVuSans-53" x="438.867188"/>
   </g>
  </g>
 </g>
 <defs>
  <clipPath id="p96c3241fff">
   <rect x="135" y="43.2" width="380.454545" height="277.2"/>
  </clipPath>
  <clipPath id="p1c92e26ff1">
   <rect x="591.545455" y="43.2" width="380.454545" height="277.2"/>
  </clipPath>
 </defs>
</svg>
