<?xml version="1.0" encoding="utf-8" standalone="no"?>
<!DOCTYPE svg PUBLIC "-//W3C//DTD SVG 1.1//EN"
  "http://www.w3.org/Graphics/SVG/1.1/DTD/svg11.dtd">
<svg xmlns:xlink="http://www.w3.org/1999/xlink" width="1080pt" height="360pt" viewBox="0 0 1080 360" xmlns="http://www.w3.org/2000/svg" version="1.1">
 <metadata>
  <rdf:RDF xmlns:dc="http://purl.org/dc/elements/1.1/" xmlns:cc="http://creativecommons.org/ns#" xmlns:rdf="http://www.w3.org/1999/02/22-rdf-syntax-ns#">
   <cc:Work>
    <dc:type rdf:resource="http://purl.org/dc/dcmitype/StillImage"/>
    <dc:date>2024-06-03T20:17:57.854089</dc:date>
    <dc:format>image/svg+xml</dc:format>
    <dc:creator>
     <cc:Agent>
      <dc:title>Matplotlib v3.9.0, https://matplotlib.org/</dc:title>
     </cc:Agent>
    </dc:creator>
   </cc:Work>
  </rdf:RDF>
 </metadata>
 <defs>
  <style type="text/css">*{stroke-linejoin: round; stroke-linecap: butt}</style>
 </defs>
 <g id="figure_1">
  <g id="patch_1">
   <path d="M 0 360 
L 1080 360 
L 1080 0 
L 0 0 
z
" style="fill: #ffffff"/>
  </g>
  <g id="axes_1">
   <g id="patch_2">
    <path d="M 135 320.4 
L 515.454545 320.4 
L 515.454545 43.2 
L 135 43.2 
z
" style="fill: #ffffff"/>
   </g>
   <g id="matplotlib.axis_1">
    <g id="xtick_1">
     <g id="line2d_1">
      <path d="M 165.595995 320.4 
L 165.595995 43.2 
" clip-path="url(#p8910b8d7c2)" style="fill: none; stroke-dasharray: 2.96,1.28; stroke-dashoffset: 0; stroke: #d0d0d0; stroke-width: 0.8"/>
     </g>
     <g id="line2d_2"/>
     <g id="text_1">
      <!-- 00:00 -->
      <g style="fill: #262626" transform="translate(157.17369 351.20537) rotate(-45) scale(0.12 -0.12)">
       <defs>
        <path id="ArialMT-30" d="M 266 2259 
Q 266 3072 433 3567 
Q 600 4063 929 4331 
Q 1259 4600 1759 4600 
Q 2128 4600 2406 4451 
Q 2684 4303 2865 4023 
Q 3047 3744 3150 3342 
Q 3253 2941 3253 2259 
Q 3253 1453 3087 958 
Q 2922 463 2592 192 
Q 2263 -78 1759 -78 
Q 1097 -78 719 397 
Q 266 969 266 2259 
z
M 844 2259 
Q 844 1131 1108 757 
Q 1372 384 1759 384 
Q 2147 384 2411 759 
Q 2675 1134 2675 2259 
Q 2675 3391 2411 3762 
Q 2147 4134 1753 4134 
Q 1366 4134 1134 3806 
Q 844 3388 844 2259 
z
" transform="scale(0.015625)"/>
        <path id="ArialMT-3a" d="M 578 2678 
L 578 3319 
L 1219 3319 
L 1219 2678 
L 578 2678 
z
M 578 0 
L 578 641 
L 1219 641 
L 1219 0 
L 578 0 
z
" transform="scale(0.015625)"/>
       </defs>
       <use xlink:href="#ArialMT-30"/>
       <use xlink:href="#ArialMT-30" x="55.615234"/>
       <use xlink:href="#ArialMT-3a" x="111.230469"/>
       <use xlink:href="#ArialMT-30" x="139.013672"/>
       <use xlink:href="#ArialMT-30" x="194.628906"/>
      </g>
     </g>
    </g>
    <g id="xtick_2">
     <g id="line2d_3">
      <path d="M 235.000898 320.4 
L 235.000898 43.2 
" clip-path="url(#p8910b8d7c2)" style="fill: none; stroke-dasharray: 2.96,1.28; stroke-dashoffset: 0; stroke: #d0d0d0; stroke-width: 0.8"/>
     </g>
     <g id="line2d_4"/>
     <g id="text_2">
      <!-- 05:00 -->
      <g style="fill: #262626" transform="translate(226.578594 351.20537) rotate(-45) scale(0.12 -0.12)">
       <defs>
        <path id="ArialMT-35" d="M 266 1200 
L 856 1250 
Q 922 819 1161 601 
Q 1400 384 1738 384 
Q 2144 384 2425 690 
Q 2706 997 2706 1503 
Q 2706 1984 2436 2262 
Q 2166 2541 1728 2541 
Q 1456 2541 1237 2417 
Q 1019 2294 894 2097 
L 366 2166 
L 809 4519 
L 3088 4519 
L 3088 3981 
L 1259 3981 
L 1013 2750 
Q 1425 3038 1878 3038 
Q 2478 3038 2890 2622 
Q 3303 2206 3303 1553 
Q 3303 931 2941 478 
Q 2500 -78 1738 -78 
Q 1113 -78 717 272 
Q 322 622 266 1200 
z
" transform="scale(0.015625)"/>
       </defs>
       <use xlink:href="#ArialMT-30"/>
       <use xlink:href="#ArialMT-35" x="55.615234"/>
       <use xlink:href="#ArialMT-3a" x="111.230469"/>
       <use xlink:href="#ArialMT-30" x="139.013672"/>
       <use xlink:href="#ArialMT-30" x="194.628906"/>
      </g>
     </g>
    </g>
    <g id="xtick_3">
     <g id="line2d_5">
      <path d="M 304.405802 320.4 
L 304.405802 43.2 
" clip-path="url(#p8910b8d7c2)" style="fill: none; stroke-dasharray: 2.96,1.28; stroke-dashoffset: 0; stroke: #d0d0d0; stroke-width: 0.8"/>
     </g>
     <g id="line2d_6"/>
     <g id="text_3">
      <!-- 10:00 -->
      <g style="fill: #262626" transform="translate(295.983497 351.20537) rotate(-45) scale(0.12 -0.12)">
       <defs>
        <path id="ArialMT-31" d="M 2384 0 
L 1822 0 
L 1822 3584 
Q 1619 3391 1289 3197 
Q 959 3003 697 2906 
L 697 3450 
Q 1169 3672 1522 3987 
Q 1875 4303 2022 4600 
L 2384 4600 
L 2384 0 
z
" transform="scale(0.015625)"/>
       </defs>
       <use xlink:href="#ArialMT-31"/>
       <use xlink:href="#ArialMT-30" x="55.615234"/>
       <use xlink:href="#ArialMT-3a" x="111.230469"/>
       <use xlink:href="#ArialMT-30" x="139.013672"/>
       <use xlink:href="#ArialMT-30" x="194.628906"/>
      </g>
     </g>
    </g>
    <g id="xtick_4">
     <g id="line2d_7">
      <path d="M 373.810705 320.4 
L 373.810705 43.2 
" clip-path="url(#p8910b8d7c2)" style="fill: none; stroke-dasharray: 2.96,1.28; stroke-dashoffset: 0; stroke: #d0d0d0; stroke-width: 0.8"/>
     </g>
     <g id="line2d_8"/>
     <g id="text_4">
      <!-- 15:00 -->
      <g style="fill: #262626" transform="translate(365.3884 351.20537) rotate(-45) scale(0.12 -0.12)">
       <use xlink:href="#ArialMT-31"/>
       <use xlink:href="#ArialMT-35" x="55.615234"/>
       <use xlink:href="#ArialMT-3a" x="111.230469"/>
       <use xlink:href="#ArialMT-30" x="139.013672"/>
       <use xlink:href="#ArialMT-30" x="194.628906"/>
      </g>
     </g>
    </g>
    <g id="xtick_5">
     <g id="line2d_9">
      <path d="M 443.215609 320.4 
L 443.215609 43.2 
" clip-path="url(#p8910b8d7c2)" style="fill: none; stroke-dasharray: 2.96,1.28; stroke-dashoffset: 0; stroke: #d0d0d0; stroke-width: 0.8"/>
     </g>
     <g id="line2d_10"/>
     <g id="text_5">
      <!-- 20:00 -->
      <g style="fill: #262626" transform="translate(434.793304 351.20537) rotate(-45) scale(0.12 -0.12)">
       <defs>
        <path id="ArialMT-32" d="M 3222 541 
L 3222 0 
L 194 0 
Q 188 203 259 391 
Q 375 700 629 1000 
Q 884 1300 1366 1694 
Q 2113 2306 2375 2664 
Q 2638 3022 2638 3341 
Q 2638 3675 2398 3904 
Q 2159 4134 1775 4134 
Q 1369 4134 1125 3890 
Q 881 3647 878 3216 
L 300 3275 
Q 359 3922 746 4261 
Q 1134 4600 1788 4600 
Q 2447 4600 2831 4234 
Q 3216 3869 3216 3328 
Q 3216 3053 3103 2787 
Q 2991 2522 2730 2228 
Q 2469 1934 1863 1422 
Q 1356 997 1212 845 
Q 1069 694 975 541 
L 3222 541 
z
" transform="scale(0.015625)"/>
       </defs>
       <use xlink:href="#ArialMT-32"/>
       <use xlink:href="#ArialMT-30" x="55.615234"/>
       <use xlink:href="#ArialMT-3a" x="111.230469"/>
       <use xlink:href="#ArialMT-30" x="139.013672"/>
       <use xlink:href="#ArialMT-30" x="194.628906"/>
      </g>
     </g>
    </g>
    <g id="xtick_6">
     <g id="line2d_11">
      <path d="M 512.620512 320.4 
L 512.620512 43.2 
" clip-path="url(#p8910b8d7c2)" style="fill: none; stroke-dasharray: 2.96,1.28; stroke-dashoffset: 0; stroke: #d0d0d0; stroke-width: 0.8"/>
     </g>
     <g id="line2d_12"/>
    </g>
   </g>
   <g id="matplotlib.axis_2">
    <g id="ytick_1">
     <g id="line2d_13">
      <path d="M 135 278.297056 
L 515.454545 278.297056 
" clip-path="url(#p8910b8d7c2)" style="fill: none; stroke-dasharray: 2.96,1.28; stroke-dashoffset: 0; stroke: #d0d0d0; stroke-width: 0.8"/>
     </g>
     <g id="line2d_14"/>
     <g id="text_6">
      <!-- 5 -->
      <g style="fill: #262626" transform="translate(124.826875 282.591743) scale(0.12 -0.12)">
       <use xlink:href="#ArialMT-35"/>
      </g>
     </g>
    </g>
    <g id="ytick_2">
     <g id="line2d_15">
      <path d="M 135 219.208414 
L 515.454545 219.208414 
" clip-path="url(#p8910b8d7c2)" style="fill: none; stroke-dasharray: 2.96,1.28; stroke-dashoffset: 0; stroke: #d0d0d0; stroke-width: 0.8"/>
     </g>
     <g id="line2d_16"/>
     <g id="text_7">
      <!-- 10 -->
      <g style="fill: #262626" transform="translate(118.15375 223.503101) scale(0.12 -0.12)">
       <use xlink:href="#ArialMT-31"/>
       <use xlink:href="#ArialMT-30" x="55.615234"/>
      </g>
     </g>
    </g>
    <g id="ytick_3">
     <g id="line2d_17">
      <path d="M 135 160.119771 
L 515.454545 160.119771 
" clip-path="url(#p8910b8d7c2)" style="fill: none; stroke-dasharray: 2.96,1.28; stroke-dashoffset: 0; stroke: #d0d0d0; stroke-width: 0.8"/>
     </g>
     <g id="line2d_18"/>
     <g id="text_8">
      <!-- 15 -->
      <g style="fill: #262626" transform="translate(118.15375 164.414459) scale(0.12 -0.12)">
       <use xlink:href="#ArialMT-31"/>
       <use xlink:href="#ArialMT-35" x="55.615234"/>
      </g>
     </g>
    </g>
    <g id="ytick_4">
     <g id="line2d_19">
      <path d="M 135 101.031129 
L 515.454545 101.031129 
" clip-path="url(#p8910b8d7c2)" style="fill: none; stroke-dasharray: 2.96,1.28; stroke-dashoffset: 0; stroke: #d0d0d0; stroke-width: 0.8"/>
     </g>
     <g id="line2d_20"/>
     <g id="text_9">
      <!-- 20 -->
      <g style="fill: #262626" transform="translate(118.15375 105.325816) scale(0.12 -0.12)">
       <use xlink:href="#ArialMT-32"/>
       <use xlink:href="#ArialMT-30" x="55.615234"/>
      </g>
     </g>
    </g>
    <g id="text_10">
     <!-- Price -->
     <g style="fill: #262626" transform="translate(111.785625 196.4775) rotate(-90) scale(0.12 -0.12)">
      <defs>
       <path id="Arial-BoldMT-50" d="M 466 0 
L 466 4581 
L 1950 4581 
Q 2794 4581 3050 4513 
Q 3444 4409 3709 4064 
Q 3975 3719 3975 3172 
Q 3975 2750 3822 2462 
Q 3669 2175 3433 2011 
Q 3197 1847 2953 1794 
Q 2622 1728 1994 1728 
L 1391 1728 
L 1391 0 
L 466 0 
z
M 1391 3806 
L 1391 2506 
L 1897 2506 
Q 2444 2506 2628 2578 
Q 2813 2650 2917 2803 
Q 3022 2956 3022 3159 
Q 3022 3409 2875 3571 
Q 2728 3734 2503 3775 
Q 2338 3806 1838 3806 
L 1391 3806 
z
" transform="scale(0.015625)"/>
       <path id="Arial-BoldMT-72" d="M 1300 0 
L 422 0 
L 422 3319 
L 1238 3319 
L 1238 2847 
Q 1447 3181 1614 3287 
Q 1781 3394 1994 3394 
Q 2294 3394 2572 3228 
L 2300 2463 
Q 2078 2606 1888 2606 
Q 1703 2606 1575 2504 
Q 1447 2403 1373 2137 
Q 1300 1872 1300 1025 
L 1300 0 
z
" transform="scale(0.015625)"/>
       <path id="Arial-BoldMT-69" d="M 459 3769 
L 459 4581 
L 1338 4581 
L 1338 3769 
L 459 3769 
z
M 459 0 
L 459 3319 
L 1338 3319 
L 1338 0 
L 459 0 
z
" transform="scale(0.015625)"/>
       <path id="Arial-BoldMT-63" d="M 3353 2338 
L 2488 2181 
Q 2444 2441 2289 2572 
Q 2134 2703 1888 2703 
Q 1559 2703 1364 2476 
Q 1169 2250 1169 1719 
Q 1169 1128 1367 884 
Q 1566 641 1900 641 
Q 2150 641 2309 783 
Q 2469 925 2534 1272 
L 3397 1125 
Q 3263 531 2881 228 
Q 2500 -75 1859 -75 
Q 1131 -75 698 384 
Q 266 844 266 1656 
Q 266 2478 700 2936 
Q 1134 3394 1875 3394 
Q 2481 3394 2839 3133 
Q 3197 2872 3353 2338 
z
" transform="scale(0.015625)"/>
       <path id="Arial-BoldMT-65" d="M 2381 1056 
L 3256 909 
Q 3088 428 2723 176 
Q 2359 -75 1813 -75 
Q 947 -75 531 491 
Q 203 944 203 1634 
Q 203 2459 634 2926 
Q 1066 3394 1725 3394 
Q 2466 3394 2894 2905 
Q 3322 2416 3303 1406 
L 1103 1406 
Q 1113 1016 1316 798 
Q 1519 581 1822 581 
Q 2028 581 2168 693 
Q 2309 806 2381 1056 
z
M 2431 1944 
Q 2422 2325 2234 2523 
Q 2047 2722 1778 2722 
Q 1491 2722 1303 2513 
Q 1116 2303 1119 1944 
L 2431 1944 
z
" transform="scale(0.015625)"/>
      </defs>
      <use xlink:href="#Arial-BoldMT-50"/>
      <use xlink:href="#Arial-BoldMT-72" x="66.699219"/>
      <use xlink:href="#Arial-BoldMT-69" x="105.615234"/>
      <use xlink:href="#Arial-BoldMT-63" x="133.398438"/>
      <use xlink:href="#Arial-BoldMT-65" x="189.013672"/>
     </g>
    </g>
   </g>
   <g id="PolyCollection_1">
    <path d="M 161.084676 253.828449 
L 161.084676 254.064804 
L 170.107314 254.064804 
L 170.107314 253.828449 
z
" clip-path="url(#p8910b8d7c2)" style="fill: #ea0070; fill-opacity: 0.9; stroke: #ea0070"/>
    <path d="M 174.965657 254.064804 
L 174.965657 254.230252 
L 183.988294 254.230252 
L 183.988294 254.064804 
z
" clip-path="url(#p8910b8d7c2)" style="fill: #ea0070; fill-opacity: 0.9; stroke: #ea0070"/>
    <path d="M 188.846638 254.230252 
L 188.846638 253.414829 
L 197.869275 253.414829 
L 197.869275 254.230252 
z
" clip-path="url(#p8910b8d7c2)" style="fill: #70a800; fill-opacity: 0.9; stroke: #70a800"/>
    <path d="M 202.727618 253.414829 
L 202.727618 253.61573 
L 211.750256 253.61573 
L 211.750256 253.414829 
z
" clip-path="url(#p8910b8d7c2)" style="fill: #ea0070; fill-opacity: 0.9; stroke: #ea0070"/>
    <path d="M 216.608599 253.61573 
L 216.608599 252.404413 
L 225.631236 252.404413 
L 225.631236 253.61573 
z
" clip-path="url(#p8910b8d7c2)" style="fill: #70a800; fill-opacity: 0.9; stroke: #70a800"/>
    <path d="M 230.48958 252.404413 
L 230.48958 250.980377 
L 239.512217 250.980377 
L 239.512217 252.404413 
z
" clip-path="url(#p8910b8d7c2)" style="fill: #70a800; fill-opacity: 0.9; stroke: #70a800"/>
    <path d="M 244.37056 250.980377 
L 244.37056 253.072114 
L 253.393198 253.072114 
L 253.393198 250.980377 
z
" clip-path="url(#p8910b8d7c2)" style="fill: #ea0070; fill-opacity: 0.9; stroke: #ea0070"/>
    <path d="M 258.251541 253.072114 
L 258.251541 252.073516 
L 267.274178 252.073516 
L 267.274178 253.072114 
z
" clip-path="url(#p8910b8d7c2)" style="fill: #70a800; fill-opacity: 0.9; stroke: #70a800"/>
    <path d="M 272.132522 252.073516 
L 272.132522 251.973066 
L 281.155159 251.973066 
L 281.155159 252.073516 
z
" clip-path="url(#p8910b8d7c2)" style="fill: #70a800; fill-opacity: 0.9; stroke: #70a800"/>
    <path d="M 286.013502 251.973066 
L 286.013502 252.410322 
L 295.03614 252.410322 
L 295.03614 251.973066 
z
" clip-path="url(#p8910b8d7c2)" style="fill: #ea0070; fill-opacity: 0.9; stroke: #ea0070"/>
    <path d="M 299.894483 252.404413 
L 299.894483 252.457593 
L 308.91712 252.457593 
L 308.91712 252.404413 
z
" clip-path="url(#p8910b8d7c2)" style="fill: #ea0070; fill-opacity: 0.9; stroke: #ea0070"/>
    <path d="M 313.775464 252.451684 
L 313.775464 252.46941 
L 322.798101 252.46941 
L 322.798101 252.451684 
z
" clip-path="url(#p8910b8d7c2)" style="fill: #ea0070; fill-opacity: 0.9; stroke: #ea0070"/>
    <path d="M 327.656444 252.463501 
L 327.656444 252.859395 
L 336.679082 252.859395 
L 336.679082 252.463501 
z
" clip-path="url(#p8910b8d7c2)" style="fill: #ea0070; fill-opacity: 0.9; stroke: #ea0070"/>
    <path d="M 341.537425 252.859395 
L 341.537425 252.52259 
L 350.560062 252.52259 
L 350.560062 252.859395 
z
" clip-path="url(#p8910b8d7c2)" style="fill: #70a800; fill-opacity: 0.9; stroke: #70a800"/>
    <path d="M 355.418406 252.52259 
L 355.418406 252.794398 
L 364.441043 252.794398 
L 364.441043 252.52259 
z
" clip-path="url(#p8910b8d7c2)" style="fill: #ea0070; fill-opacity: 0.9; stroke: #ea0070"/>
    <path d="M 369.299386 252.794398 
L 369.299386 252.173967 
L 378.322024 252.173967 
L 378.322024 252.794398 
z
" clip-path="url(#p8910b8d7c2)" style="fill: #70a800; fill-opacity: 0.9; stroke: #70a800"/>
    <path d="M 383.180367 252.173967 
L 383.180367 251.523992 
L 392.203005 251.523992 
L 392.203005 252.173967 
z
" clip-path="url(#p8910b8d7c2)" style="fill: #70a800; fill-opacity: 0.9; stroke: #70a800"/>
    <path d="M 397.061348 251.523992 
L 397.061348 251.057192 
L 406.083985 251.057192 
L 406.083985 251.523992 
z
" clip-path="url(#p8910b8d7c2)" style="fill: #70a800; fill-opacity: 0.9; stroke: #70a800"/>
    <path d="M 410.942328 251.057192 
L 410.942328 251.27582 
L 419.964966 251.27582 
L 419.964966 251.057192 
z
" clip-path="url(#p8910b8d7c2)" style="fill: #ea0070; fill-opacity: 0.9; stroke: #ea0070"/>
    <path d="M 424.823309 251.27582 
L 424.823309 246.466004 
L 433.845947 246.466004 
L 433.845947 251.27582 
z
" clip-path="url(#p8910b8d7c2)" style="fill: #70a800; fill-opacity: 0.9; stroke: #70a800"/>
    <path d="M 438.70429 246.466004 
L 438.70429 245.349229 
L 447.726927 245.349229 
L 447.726927 246.466004 
z
" clip-path="url(#p8910b8d7c2)" style="fill: #70a800; fill-opacity: 0.9; stroke: #70a800"/>
    <path d="M 452.58527 245.349229 
L 452.58527 244.882429 
L 461.607908 244.882429 
L 461.607908 245.349229 
z
" clip-path="url(#p8910b8d7c2)" style="fill: #70a800; fill-opacity: 0.9; stroke: #70a800"/>
    <path d="M 466.466251 244.882429 
L 466.466251 244.805613 
L 475.488889 244.805613 
L 475.488889 244.882429 
z
" clip-path="url(#p8910b8d7c2)" style="fill: #70a800; fill-opacity: 0.9; stroke: #70a800"/>
    <path d="M 480.347232 244.805613 
L 480.347232 244.575168 
L 489.369869 244.575168 
L 489.369869 244.805613 
z
" clip-path="url(#p8910b8d7c2)" style="fill: #70a800; fill-opacity: 0.9; stroke: #70a800"/>
   </g>
   <g id="LineCollection_1">
    <path d="M 165.595995 254.490242 
L 165.595995 254.064804 
" clip-path="url(#p8910b8d7c2)" style="fill: none; stroke: #ea0070"/>
    <path d="M 179.476976 255.246576 
L 179.476976 254.230252 
" clip-path="url(#p8910b8d7c2)" style="fill: none; stroke: #ea0070"/>
    <path d="M 193.357956 254.247978 
L 193.357956 254.230252 
" clip-path="url(#p8910b8d7c2)" style="fill: none; stroke: #70a800"/>
    <path d="M 207.238937 253.61573 
L 207.238937 253.61573 
" clip-path="url(#p8910b8d7c2)" style="fill: none; stroke: #ea0070"/>
    <path d="M 221.119918 253.680727 
L 221.119918 253.61573 
" clip-path="url(#p8910b8d7c2)" style="fill: none; stroke: #70a800"/>
    <path d="M 235.000898 252.457593 
L 235.000898 252.404413 
" clip-path="url(#p8910b8d7c2)" style="fill: none; stroke: #70a800"/>
    <path d="M 248.881879 253.361649 
L 248.881879 253.072114 
" clip-path="url(#p8910b8d7c2)" style="fill: none; stroke: #ea0070"/>
    <path d="M 262.76286 253.184383 
L 262.76286 253.072114 
" clip-path="url(#p8910b8d7c2)" style="fill: none; stroke: #70a800"/>
    <path d="M 276.64384 252.351233 
L 276.64384 252.073516 
" clip-path="url(#p8910b8d7c2)" style="fill: none; stroke: #70a800"/>
    <path d="M 290.524821 252.528499 
L 290.524821 252.410322 
" clip-path="url(#p8910b8d7c2)" style="fill: none; stroke: #ea0070"/>
    <path d="M 304.405802 252.540317 
L 304.405802 252.457593 
" clip-path="url(#p8910b8d7c2)" style="fill: none; stroke: #ea0070"/>
    <path d="M 318.286782 252.788489 
L 318.286782 252.46941 
" clip-path="url(#p8910b8d7c2)" style="fill: none; stroke: #ea0070"/>
    <path d="M 332.167763 252.930302 
L 332.167763 252.859395 
" clip-path="url(#p8910b8d7c2)" style="fill: none; stroke: #ea0070"/>
    <path d="M 346.048744 252.906666 
L 346.048744 252.859395 
" clip-path="url(#p8910b8d7c2)" style="fill: none; stroke: #70a800"/>
    <path d="M 359.929724 253.166656 
L 359.929724 252.794398 
" clip-path="url(#p8910b8d7c2)" style="fill: none; stroke: #ea0070"/>
    <path d="M 373.810705 252.948028 
L 373.810705 252.794398 
" clip-path="url(#p8910b8d7c2)" style="fill: none; stroke: #70a800"/>
    <path d="M 387.691686 252.463501 
L 387.691686 252.173967 
" clip-path="url(#p8910b8d7c2)" style="fill: none; stroke: #70a800"/>
    <path d="M 401.572666 252.008519 
L 401.572666 251.523992 
" clip-path="url(#p8910b8d7c2)" style="fill: none; stroke: #70a800"/>
    <path d="M 415.453647 251.393997 
L 415.453647 251.27582 
" clip-path="url(#p8910b8d7c2)" style="fill: none; stroke: #ea0070"/>
    <path d="M 429.334628 251.7958 
L 429.334628 251.27582 
" clip-path="url(#p8910b8d7c2)" style="fill: none; stroke: #70a800"/>
    <path d="M 443.215609 246.471913 
L 443.215609 246.466004 
" clip-path="url(#p8910b8d7c2)" style="fill: none; stroke: #70a800"/>
    <path d="M 457.096589 246.418733 
L 457.096589 245.349229 
" clip-path="url(#p8910b8d7c2)" style="fill: none; stroke: #70a800"/>
    <path d="M 470.97757 245.408318 
L 470.97757 244.882429 
" clip-path="url(#p8910b8d7c2)" style="fill: none; stroke: #70a800"/>
    <path d="M 484.858551 245.154236 
L 484.858551 244.805613 
" clip-path="url(#p8910b8d7c2)" style="fill: none; stroke: #70a800"/>
    <path d="M 165.595995 253.645274 
L 165.595995 253.828449 
" clip-path="url(#p8910b8d7c2)" style="fill: none; stroke: #ea0070"/>
    <path d="M 179.476976 253.893447 
L 179.476976 254.064804 
" clip-path="url(#p8910b8d7c2)" style="fill: none; stroke: #ea0070"/>
    <path d="M 193.357956 253.255289 
L 193.357956 253.414829 
" clip-path="url(#p8910b8d7c2)" style="fill: none; stroke: #70a800"/>
    <path d="M 207.238937 253.219836 
L 207.238937 253.414829 
" clip-path="url(#p8910b8d7c2)" style="fill: none; stroke: #ea0070"/>
    <path d="M 221.119918 252.173967 
L 221.119918 252.404413 
" clip-path="url(#p8910b8d7c2)" style="fill: none; stroke: #70a800"/>
    <path d="M 235.000898 250.330401 
L 235.000898 250.980377 
" clip-path="url(#p8910b8d7c2)" style="fill: none; stroke: #70a800"/>
    <path d="M 248.881879 250.980377 
L 248.881879 250.980377 
" clip-path="url(#p8910b8d7c2)" style="fill: none; stroke: #ea0070"/>
    <path d="M 262.76286 251.718985 
L 262.76286 252.073516 
" clip-path="url(#p8910b8d7c2)" style="fill: none; stroke: #70a800"/>
    <path d="M 276.64384 251.807618 
L 276.64384 251.973066 
" clip-path="url(#p8910b8d7c2)" style="fill: none; stroke: #70a800"/>
    <path d="M 290.524821 251.913977 
L 290.524821 251.973066 
" clip-path="url(#p8910b8d7c2)" style="fill: none; stroke: #ea0070"/>
    <path d="M 304.405802 252.043972 
L 304.405802 252.404413 
" clip-path="url(#p8910b8d7c2)" style="fill: none; stroke: #ea0070"/>
    <path d="M 318.286782 251.925795 
L 318.286782 252.451684 
" clip-path="url(#p8910b8d7c2)" style="fill: none; stroke: #ea0070"/>
    <path d="M 332.167763 252.150332 
L 332.167763 252.463501 
" clip-path="url(#p8910b8d7c2)" style="fill: none; stroke: #ea0070"/>
    <path d="M 346.048744 252.339415 
L 346.048744 252.52259 
" clip-path="url(#p8910b8d7c2)" style="fill: none; stroke: #70a800"/>
    <path d="M 359.929724 252.487137 
L 359.929724 252.52259 
" clip-path="url(#p8910b8d7c2)" style="fill: none; stroke: #ea0070"/>
    <path d="M 373.810705 252.026245 
L 373.810705 252.173967 
" clip-path="url(#p8910b8d7c2)" style="fill: none; stroke: #70a800"/>
    <path d="M 387.691686 251.264002 
L 387.691686 251.523992 
" clip-path="url(#p8910b8d7c2)" style="fill: none; stroke: #70a800"/>
    <path d="M 401.572666 251.057192 
L 401.572666 251.057192 
" clip-path="url(#p8910b8d7c2)" style="fill: none; stroke: #70a800"/>
    <path d="M 415.453647 250.797202 
L 415.453647 251.057192 
" clip-path="url(#p8910b8d7c2)" style="fill: none; stroke: #ea0070"/>
    <path d="M 429.334628 245.96966 
L 429.334628 246.466004 
" clip-path="url(#p8910b8d7c2)" style="fill: none; stroke: #70a800"/>
    <path d="M 443.215609 244.149729 
L 443.215609 245.349229 
" clip-path="url(#p8910b8d7c2)" style="fill: none; stroke: #70a800"/>
    <path d="M 457.096589 244.882429 
L 457.096589 244.882429 
" clip-path="url(#p8910b8d7c2)" style="fill: none; stroke: #70a800"/>
    <path d="M 470.97757 244.516079 
L 470.97757 244.805613 
" clip-path="url(#p8910b8d7c2)" style="fill: none; stroke: #70a800"/>
    <path d="M 484.858551 244.338813 
L 484.858551 244.575168 
" clip-path="url(#p8910b8d7c2)" style="fill: none; stroke: #70a800"/>
   </g>
   <g id="patch_3">
    <path d="M 135 320.4 
L 135 43.2 
" style="fill: none; stroke: #e6e6e6; stroke-width: 1.5; stroke-linejoin: miter; stroke-linecap: square"/>
   </g>
   <g id="patch_4">
    <path d="M 515.454545 320.4 
L 515.454545 43.2 
" style="fill: none; stroke: #e6e6e6; stroke-width: 1.5; stroke-linejoin: miter; stroke-linecap: square"/>
   </g>
   <g id="patch_5">
    <path d="M 135 320.4 
L 515.454545 320.4 
" style="fill: none; stroke: #e6e6e6; stroke-width: 1.5; stroke-linejoin: miter; stroke-linecap: square"/>
   </g>
   <g id="patch_6">
    <path d="M 135 43.2 
L 515.454545 43.2 
" style="fill: none; stroke: #e6e6e6; stroke-width: 1.5; stroke-linejoin: miter; stroke-linecap: square"/>
   </g>
   <g id="text_11">
    <!-- Actual -->
    <g style="fill: #262626" transform="translate(305.216898 37.2) scale(0.144 -0.144)">
     <defs>
      <path id="ArialMT-41" d="M -9 0 
L 1750 4581 
L 2403 4581 
L 4278 0 
L 3588 0 
L 3053 1388 
L 1138 1388 
L 634 0 
L -9 0 
z
M 1313 1881 
L 2866 1881 
L 2388 3150 
Q 2169 3728 2063 4100 
Q 1975 3659 1816 3225 
L 1313 1881 
z
" transform="scale(0.015625)"/>
      <path id="ArialMT-63" d="M 2588 1216 
L 3141 1144 
Q 3050 572 2676 248 
Q 2303 -75 1759 -75 
Q 1078 -75 664 370 
Q 250 816 250 1647 
Q 250 2184 428 2587 
Q 606 2991 970 3192 
Q 1334 3394 1763 3394 
Q 2303 3394 2647 3120 
Q 2991 2847 3088 2344 
L 2541 2259 
Q 2463 2594 2264 2762 
Q 2066 2931 1784 2931 
Q 1359 2931 1093 2626 
Q 828 2322 828 1663 
Q 828 994 1084 691 
Q 1341 388 1753 388 
Q 2084 388 2306 591 
Q 2528 794 2588 1216 
z
" transform="scale(0.015625)"/>
      <path id="ArialMT-74" d="M 1650 503 
L 1731 6 
Q 1494 -44 1306 -44 
Q 1000 -44 831 53 
Q 663 150 594 308 
Q 525 466 525 972 
L 525 2881 
L 113 2881 
L 113 3319 
L 525 3319 
L 525 4141 
L 1084 4478 
L 1084 3319 
L 1650 3319 
L 1650 2881 
L 1084 2881 
L 1084 941 
Q 1084 700 1114 631 
Q 1144 563 1211 522 
Q 1278 481 1403 481 
Q 1497 481 1650 503 
z
" transform="scale(0.015625)"/>
      <path id="ArialMT-75" d="M 2597 0 
L 2597 488 
Q 2209 -75 1544 -75 
Q 1250 -75 995 37 
Q 741 150 617 320 
Q 494 491 444 738 
Q 409 903 409 1263 
L 409 3319 
L 972 3319 
L 972 1478 
Q 972 1038 1006 884 
Q 1059 663 1231 536 
Q 1403 409 1656 409 
Q 1909 409 2131 539 
Q 2353 669 2445 892 
Q 2538 1116 2538 1541 
L 2538 3319 
L 3100 3319 
L 3100 0 
L 2597 0 
z
" transform="scale(0.015625)"/>
      <path id="ArialMT-61" d="M 2588 409 
Q 2275 144 1986 34 
Q 1697 -75 1366 -75 
Q 819 -75 525 192 
Q 231 459 231 875 
Q 231 1119 342 1320 
Q 453 1522 633 1644 
Q 813 1766 1038 1828 
Q 1203 1872 1538 1913 
Q 2219 1994 2541 2106 
Q 2544 2222 2544 2253 
Q 2544 2597 2384 2738 
Q 2169 2928 1744 2928 
Q 1347 2928 1158 2789 
Q 969 2650 878 2297 
L 328 2372 
Q 403 2725 575 2942 
Q 747 3159 1072 3276 
Q 1397 3394 1825 3394 
Q 2250 3394 2515 3294 
Q 2781 3194 2906 3042 
Q 3031 2891 3081 2659 
Q 3109 2516 3109 2141 
L 3109 1391 
Q 3109 606 3145 398 
Q 3181 191 3288 0 
L 2700 0 
Q 2613 175 2588 409 
z
M 2541 1666 
Q 2234 1541 1622 1453 
Q 1275 1403 1131 1340 
Q 988 1278 909 1158 
Q 831 1038 831 891 
Q 831 666 1001 516 
Q 1172 366 1500 366 
Q 1825 366 2078 508 
Q 2331 650 2450 897 
Q 2541 1088 2541 1459 
L 2541 1666 
z
" transform="scale(0.015625)"/>
      <path id="ArialMT-6c" d="M 409 0 
L 409 4581 
L 972 4581 
L 972 0 
L 409 0 
z
" transform="scale(0.015625)"/>
     </defs>
     <use xlink:href="#ArialMT-41"/>
     <use xlink:href="#ArialMT-63" x="66.699219"/>
     <use xlink:href="#ArialMT-74" x="116.699219"/>
     <use xlink:href="#ArialMT-75" x="144.482422"/>
     <use xlink:href="#ArialMT-61" x="200.097656"/>
     <use xlink:href="#ArialMT-6c" x="255.712891"/>
    </g>
   </g>
  </g>
  <g id="axes_2">
   <g id="patch_7">
    <path d="M 591.545455 320.4 
L 972 320.4 
L 972 43.2 
L 591.545455 43.2 
z
" style="fill: #ffffff"/>
   </g>
   <g id="matplotlib.axis_3">
    <g id="xtick_7">
     <g id="line2d_21">
      <path d="M 622.141449 320.4 
L 622.141449 43.2 
" clip-path="url(#p7a7397c535)" style="fill: none; stroke-dasharray: 2.96,1.28; stroke-dashoffset: 0; stroke: #d0d0d0; stroke-width: 0.8"/>
     </g>
     <g id="line2d_22"/>
     <g id="text_12">
      <!-- 00:00 -->
      <g style="fill: #262626" transform="translate(613.719145 351.20537) rotate(-45) scale(0.12 -0.12)">
       <use xlink:href="#ArialMT-30"/>
       <use xlink:href="#ArialMT-30" x="55.615234"/>
       <use xlink:href="#ArialMT-3a" x="111.230469"/>
       <use xlink:href="#ArialMT-30" x="139.013672"/>
       <use xlink:href="#ArialMT-30" x="194.628906"/>
      </g>
     </g>
    </g>
    <g id="xtick_8">
     <g id="line2d_23">
      <path d="M 691.546353 320.4 
L 691.546353 43.2 
" clip-path="url(#p7a7397c535)" style="fill: none; stroke-dasharray: 2.96,1.28; stroke-dashoffset: 0; stroke: #d0d0d0; stroke-width: 0.8"/>
     </g>
     <g id="line2d_24"/>
     <g id="text_13">
      <!-- 05:00 -->
      <g style="fill: #262626" transform="translate(683.124048 351.20537) rotate(-45) scale(0.12 -0.12)">
       <use xlink:href="#ArialMT-30"/>
       <use xlink:href="#ArialMT-35" x="55.615234"/>
       <use xlink:href="#ArialMT-3a" x="111.230469"/>
       <use xlink:href="#ArialMT-30" x="139.013672"/>
       <use xlink:href="#ArialMT-30" x="194.628906"/>
      </g>
     </g>
    </g>
    <g id="xtick_9">
     <g id="line2d_25">
      <path d="M 760.951256 320.4 
L 760.951256 43.2 
" clip-path="url(#p7a7397c535)" style="fill: none; stroke-dasharray: 2.96,1.28; stroke-dashoffset: 0; stroke: #d0d0d0; stroke-width: 0.8"/>
     </g>
     <g id="line2d_26"/>
     <g id="text_14">
      <!-- 10:00 -->
      <g style="fill: #262626" transform="translate(752.528952 351.20537) rotate(-45) scale(0.12 -0.12)">
       <use xlink:href="#ArialMT-31"/>
       <use xlink:href="#ArialMT-30" x="55.615234"/>
       <use xlink:href="#ArialMT-3a" x="111.230469"/>
       <use xlink:href="#ArialMT-30" x="139.013672"/>
       <use xlink:href="#ArialMT-30" x="194.628906"/>
      </g>
     </g>
    </g>
    <g id="xtick_10">
     <g id="line2d_27">
      <path d="M 830.35616 320.4 
L 830.35616 43.2 
" clip-path="url(#p7a7397c535)" style="fill: none; stroke-dasharray: 2.96,1.28; stroke-dashoffset: 0; stroke: #d0d0d0; stroke-width: 0.8"/>
     </g>
     <g id="line2d_28"/>
     <g id="text_15">
      <!-- 15:00 -->
      <g style="fill: #262626" transform="translate(821.933855 351.20537) rotate(-45) scale(0.12 -0.12)">
       <use xlink:href="#ArialMT-31"/>
       <use xlink:href="#ArialMT-35" x="55.615234"/>
       <use xlink:href="#ArialMT-3a" x="111.230469"/>
       <use xlink:href="#ArialMT-30" x="139.013672"/>
       <use xlink:href="#ArialMT-30" x="194.628906"/>
      </g>
     </g>
    </g>
    <g id="xtick_11">
     <g id="line2d_29">
      <path d="M 899.761063 320.4 
L 899.761063 43.2 
" clip-path="url(#p7a7397c535)" style="fill: none; stroke-dasharray: 2.96,1.28; stroke-dashoffset: 0; stroke: #d0d0d0; stroke-width: 0.8"/>
     </g>
     <g id="line2d_30"/>
     <g id="text_16">
      <!-- 20:00 -->
      <g style="fill: #262626" transform="translate(891.338758 351.20537) rotate(-45) scale(0.12 -0.12)">
       <use xlink:href="#ArialMT-32"/>
       <use xlink:href="#ArialMT-30" x="55.615234"/>
       <use xlink:href="#ArialMT-3a" x="111.230469"/>
       <use xlink:href="#ArialMT-30" x="139.013672"/>
       <use xlink:href="#ArialMT-30" x="194.628906"/>
      </g>
     </g>
    </g>
    <g id="xtick_12">
     <g id="line2d_31">
      <path d="M 969.165966 320.4 
L 969.165966 43.2 
" clip-path="url(#p7a7397c535)" style="fill: none; stroke-dasharray: 2.96,1.28; stroke-dashoffset: 0; stroke: #d0d0d0; stroke-width: 0.8"/>
     </g>
     <g id="line2d_32"/>
    </g>
   </g>
   <g id="matplotlib.axis_4">
    <g id="ytick_5">
     <g id="line2d_33">
      <path d="M 591.545455 278.297056 
L 972 278.297056 
" clip-path="url(#p7a7397c535)" style="fill: none; stroke-dasharray: 2.96,1.28; stroke-dashoffset: 0; stroke: #d0d0d0; stroke-width: 0.8"/>
     </g>
     <g id="line2d_34"/>
     <g id="text_17">
      <!-- 5 -->
      <g style="fill: #262626" transform="translate(581.37233 282.591743) scale(0.12 -0.12)">
       <use xlink:href="#ArialMT-35"/>
      </g>
     </g>
    </g>
    <g id="ytick_6">
     <g id="line2d_35">
      <path d="M 591.545455 219.208414 
L 972 219.208414 
" clip-path="url(#p7a7397c535)" style="fill: none; stroke-dasharray: 2.96,1.28; stroke-dashoffset: 0; stroke: #d0d0d0; stroke-width: 0.8"/>
     </g>
     <g id="line2d_36"/>
     <g id="text_18">
      <!-- 10 -->
      <g style="fill: #262626" transform="translate(574.699205 223.503101) scale(0.12 -0.12)">
       <use xlink:href="#ArialMT-31"/>
       <use xlink:href="#ArialMT-30" x="55.615234"/>
      </g>
     </g>
    </g>
    <g id="ytick_7">
     <g id="line2d_37">
      <path d="M 591.545455 160.119771 
L 972 160.119771 
" clip-path="url(#p7a7397c535)" style="fill: none; stroke-dasharray: 2.96,1.28; stroke-dashoffset: 0; stroke: #d0d0d0; stroke-width: 0.8"/>
     </g>
     <g id="line2d_38"/>
     <g id="text_19">
      <!-- 15 -->
      <g style="fill: #262626" transform="translate(574.699205 164.414459) scale(0.12 -0.12)">
       <use xlink:href="#ArialMT-31"/>
       <use xlink:href="#ArialMT-35" x="55.615234"/>
      </g>
     </g>
    </g>
    <g id="ytick_8">
     <g id="line2d_39">
      <path d="M 591.545455 101.031129 
L 972 101.031129 
" clip-path="url(#p7a7397c535)" style="fill: none; stroke-dasharray: 2.96,1.28; stroke-dashoffset: 0; stroke: #d0d0d0; stroke-width: 0.8"/>
     </g>
     <g id="line2d_40"/>
     <g id="text_20">
      <!-- 20 -->
      <g style="fill: #262626" transform="translate(574.699205 105.325816) scale(0.12 -0.12)">
       <use xlink:href="#ArialMT-32"/>
       <use xlink:href="#ArialMT-30" x="55.615234"/>
      </g>
     </g>
    </g>
    <g id="text_21">
     <!-- Price -->
     <g style="fill: #262626" transform="translate(568.33108 196.4775) rotate(-90) scale(0.12 -0.12)">
      <use xlink:href="#Arial-BoldMT-50"/>
      <use xlink:href="#Arial-BoldMT-72" x="66.699219"/>
      <use xlink:href="#Arial-BoldMT-69" x="105.615234"/>
      <use xlink:href="#Arial-BoldMT-63" x="133.398438"/>
      <use xlink:href="#Arial-BoldMT-65" x="189.013672"/>
     </g>
    </g>
   </g>
   <g id="PolyCollection_2">
    <path d="M 617.630131 259.813349 
L 617.630131 253.694334 
L 626.652768 253.694334 
L 626.652768 259.813349 
z
" clip-path="url(#p7a7397c535)" style="fill: #70a800; fill-opacity: 0.9; stroke: #70a800"/>
    <path d="M 631.511111 249.173944 
L 631.511111 251.896958 
L 640.533749 251.896958 
L 640.533749 249.173944 
z
" clip-path="url(#p7a7397c535)" style="fill: #ea0070; fill-opacity: 0.9; stroke: #ea0070"/>
    <path d="M 645.392092 258.741553 
L 645.392092 264.288957 
L 654.41473 264.288957 
L 654.41473 258.741553 
z
" clip-path="url(#p7a7397c535)" style="fill: #ea0070; fill-opacity: 0.9; stroke: #ea0070"/>
    <path d="M 659.273073 265.933892 
L 659.273073 253.810238 
L 668.29571 253.810238 
L 668.29571 265.933892 
z
" clip-path="url(#p7a7397c535)" style="fill: #70a800; fill-opacity: 0.9; stroke: #70a800"/>
    <path d="M 673.154053 260.431721 
L 673.154053 260.10761 
L 682.176691 260.10761 
L 682.176691 260.431721 
z
" clip-path="url(#p7a7397c535)" style="fill: #70a800; fill-opacity: 0.9; stroke: #70a800"/>
    <path d="M 687.035034 288.507047 
L 687.035034 251.48667 
L 696.057672 251.48667 
L 696.057672 288.507047 
z
" clip-path="url(#p7a7397c535)" style="fill: #70a800; fill-opacity: 0.9; stroke: #70a800"/>
    <path d="M 700.916015 256.422268 
L 700.916015 251.932826 
L 709.938652 251.932826 
L 709.938652 256.422268 
z
" clip-path="url(#p7a7397c535)" style="fill: #70a800; fill-opacity: 0.9; stroke: #70a800"/>
    <path d="M 714.796995 256.768547 
L 714.796995 248.89949 
L 723.819633 248.89949 
L 723.819633 256.768547 
z
" clip-path="url(#p7a7397c535)" style="fill: #70a800; fill-opacity: 0.9; stroke: #70a800"/>
    <path d="M 728.677976 251.532021 
L 728.677976 254.296324 
L 737.700614 254.296324 
L 737.700614 251.532021 
z
" clip-path="url(#p7a7397c535)" style="fill: #ea0070; fill-opacity: 0.9; stroke: #ea0070"/>
    <path d="M 742.558957 255.764377 
L 742.558957 256.665108 
L 751.581594 256.665108 
L 751.581594 255.764377 
z
" clip-path="url(#p7a7397c535)" style="fill: #ea0070; fill-opacity: 0.9; stroke: #ea0070"/>
    <path d="M 756.439938 249.216061 
L 756.439938 250.187146 
L 765.462575 250.187146 
L 765.462575 249.216061 
z
" clip-path="url(#p7a7397c535)" style="fill: #ea0070; fill-opacity: 0.9; stroke: #ea0070"/>
    <path d="M 770.320918 265.134419 
L 770.320918 258.900847 
L 779.343556 258.900847 
L 779.343556 265.134419 
z
" clip-path="url(#p7a7397c535)" style="fill: #70a800; fill-opacity: 0.9; stroke: #70a800"/>
    <path d="M 784.201899 261.458295 
L 784.201899 251.048516 
L 793.224536 251.048516 
L 793.224536 261.458295 
z
" clip-path="url(#p7a7397c535)" style="fill: #70a800; fill-opacity: 0.9; stroke: #70a800"/>
    <path d="M 798.08288 253.352208 
L 798.08288 255.842379 
L 807.105517 255.842379 
L 807.105517 253.352208 
z
" clip-path="url(#p7a7397c535)" style="fill: #ea0070; fill-opacity: 0.9; stroke: #ea0070"/>
    <path d="M 811.96386 259.997928 
L 811.96386 247.72563 
L 820.986498 247.72563 
L 820.986498 259.997928 
z
" clip-path="url(#p7a7397c535)" style="fill: #70a800; fill-opacity: 0.9; stroke: #70a800"/>
    <path d="M 825.844841 252.675198 
L 825.844841 252.391954 
L 834.867478 252.391954 
L 834.867478 252.675198 
z
" clip-path="url(#p7a7397c535)" style="fill: #70a800; fill-opacity: 0.9; stroke: #70a800"/>
    <path d="M 839.725822 245.981608 
L 839.725822 254.748329 
L 848.748459 254.748329 
L 848.748459 245.981608 
z
" clip-path="url(#p7a7397c535)" style="fill: #ea0070; fill-opacity: 0.9; stroke: #ea0070"/>
    <path d="M 853.606802 259.77347 
L 853.606802 250.700253 
L 862.62944 250.700253 
L 862.62944 259.77347 
z
" clip-path="url(#p7a7397c535)" style="fill: #70a800; fill-opacity: 0.9; stroke: #70a800"/>
    <path d="M 867.487783 250.989369 
L 867.487783 247.848921 
L 876.51042 247.848921 
L 876.51042 250.989369 
z
" clip-path="url(#p7a7397c535)" style="fill: #70a800; fill-opacity: 0.9; stroke: #70a800"/>
    <path d="M 881.368764 249.84799 
L 881.368764 258.7087 
L 890.391401 258.7087 
L 890.391401 249.84799 
z
" clip-path="url(#p7a7397c535)" style="fill: #ea0070; fill-opacity: 0.9; stroke: #ea0070"/>
    <path d="M 895.249744 248.960254 
L 895.249744 251.888133 
L 904.272382 251.888133 
L 904.272382 248.960254 
z
" clip-path="url(#p7a7397c535)" style="fill: #ea0070; fill-opacity: 0.9; stroke: #ea0070"/>
    <path d="M 909.130725 261.004509 
L 909.130725 255.541226 
L 918.153362 255.541226 
L 918.153362 261.004509 
z
" clip-path="url(#p7a7397c535)" style="fill: #70a800; fill-opacity: 0.9; stroke: #70a800"/>
    <path d="M 923.011706 259.089612 
L 923.011706 246.509986 
L 932.034343 246.509986 
L 932.034343 259.089612 
z
" clip-path="url(#p7a7397c535)" style="fill: #70a800; fill-opacity: 0.9; stroke: #70a800"/>
    <path d="M 936.892686 245.405872 
L 936.892686 251.232108 
L 945.915324 251.232108 
L 945.915324 245.405872 
z
" clip-path="url(#p7a7397c535)" style="fill: #ea0070; fill-opacity: 0.9; stroke: #ea0070"/>
   </g>
   <g id="LineCollection_2">
    <path d="M 622.141449 307.711028 
L 622.141449 259.813349 
" clip-path="url(#p7a7397c535)" style="fill: none; stroke: #70a800"/>
    <path d="M 636.02243 267.046802 
L 636.02243 251.896958 
" clip-path="url(#p7a7397c535)" style="fill: none; stroke: #ea0070"/>
    <path d="M 649.903411 270.67505 
L 649.903411 264.288957 
" clip-path="url(#p7a7397c535)" style="fill: none; stroke: #ea0070"/>
    <path d="M 663.784391 274.236566 
L 663.784391 265.933892 
" clip-path="url(#p7a7397c535)" style="fill: none; stroke: #70a800"/>
    <path d="M 677.665372 269.741218 
L 677.665372 260.431721 
" clip-path="url(#p7a7397c535)" style="fill: none; stroke: #70a800"/>
    <path d="M 691.546353 320.371737 
L 691.546353 288.507047 
" clip-path="url(#p7a7397c535)" style="fill: none; stroke: #70a800"/>
    <path d="M 705.427334 297.728563 
L 705.427334 256.422268 
" clip-path="url(#p7a7397c535)" style="fill: none; stroke: #70a800"/>
    <path d="M 719.308314 270.764034 
L 719.308314 256.768547 
" clip-path="url(#p7a7397c535)" style="fill: none; stroke: #70a800"/>
    <path d="M 733.189295 275.357422 
L 733.189295 254.296324 
" clip-path="url(#p7a7397c535)" style="fill: none; stroke: #ea0070"/>
    <path d="M 747.070276 268.186744 
L 747.070276 256.665108 
" clip-path="url(#p7a7397c535)" style="fill: none; stroke: #ea0070"/>
    <path d="M 760.951256 266.303607 
L 760.951256 250.187146 
" clip-path="url(#p7a7397c535)" style="fill: none; stroke: #ea0070"/>
    <path d="M 774.832237 265.179184 
L 774.832237 265.134419 
" clip-path="url(#p7a7397c535)" style="fill: none; stroke: #70a800"/>
    <path d="M 788.713218 287.237463 
L 788.713218 261.458295 
" clip-path="url(#p7a7397c535)" style="fill: none; stroke: #70a800"/>
    <path d="M 802.594198 275.194087 
L 802.594198 255.842379 
" clip-path="url(#p7a7397c535)" style="fill: none; stroke: #ea0070"/>
    <path d="M 816.475179 320.371799 
L 816.475179 259.997928 
" clip-path="url(#p7a7397c535)" style="fill: none; stroke: #70a800"/>
    <path d="M 830.35616 267.887654 
L 830.35616 252.675198 
" clip-path="url(#p7a7397c535)" style="fill: none; stroke: #70a800"/>
    <path d="M 844.23714 268.603158 
L 844.23714 254.748329 
" clip-path="url(#p7a7397c535)" style="fill: none; stroke: #ea0070"/>
    <path d="M 858.118121 320.371737 
L 858.118121 259.77347 
" clip-path="url(#p7a7397c535)" style="fill: none; stroke: #70a800"/>
    <path d="M 871.999102 261.3434 
L 871.999102 250.989369 
" clip-path="url(#p7a7397c535)" style="fill: none; stroke: #70a800"/>
    <path d="M 885.880082 265.428933 
L 885.880082 258.7087 
" clip-path="url(#p7a7397c535)" style="fill: none; stroke: #ea0070"/>
    <path d="M 899.761063 274.831399 
L 899.761063 251.888133 
" clip-path="url(#p7a7397c535)" style="fill: none; stroke: #ea0070"/>
    <path d="M 913.642044 265.604344 
L 913.642044 261.004509 
" clip-path="url(#p7a7397c535)" style="fill: none; stroke: #70a800"/>
    <path d="M 927.523024 320.4 
L 927.523024 259.089612 
" clip-path="url(#p7a7397c535)" style="fill: none; stroke: #70a800"/>
    <path d="M 941.404005 257.425451 
L 941.404005 251.232108 
" clip-path="url(#p7a7397c535)" style="fill: none; stroke: #ea0070"/>
    <path d="M 622.141449 43.2 
L 622.141449 253.694334 
" clip-path="url(#p7a7397c535)" style="fill: none; stroke: #70a800"/>
    <path d="M 636.02243 230.997099 
L 636.02243 249.173944 
" clip-path="url(#p7a7397c535)" style="fill: none; stroke: #ea0070"/>
    <path d="M 649.903411 207.492219 
L 649.903411 258.741553 
" clip-path="url(#p7a7397c535)" style="fill: none; stroke: #ea0070"/>
    <path d="M 663.784391 239.171286 
L 663.784391 253.810238 
" clip-path="url(#p7a7397c535)" style="fill: none; stroke: #70a800"/>
    <path d="M 677.665372 238.044192 
L 677.665372 260.10761 
" clip-path="url(#p7a7397c535)" style="fill: none; stroke: #70a800"/>
    <path d="M 691.546353 239.116422 
L 691.546353 251.48667 
" clip-path="url(#p7a7397c535)" style="fill: none; stroke: #70a800"/>
    <path d="M 705.427334 241.891544 
L 705.427334 251.932826 
" clip-path="url(#p7a7397c535)" style="fill: none; stroke: #70a800"/>
    <path d="M 719.308314 240.61619 
L 719.308314 248.89949 
" clip-path="url(#p7a7397c535)" style="fill: none; stroke: #70a800"/>
    <path d="M 733.189295 241.064634 
L 733.189295 251.532021 
" clip-path="url(#p7a7397c535)" style="fill: none; stroke: #ea0070"/>
    <path d="M 747.070276 222.967588 
L 747.070276 255.764377 
" clip-path="url(#p7a7397c535)" style="fill: none; stroke: #ea0070"/>
    <path d="M 760.951256 243.479823 
L 760.951256 249.216061 
" clip-path="url(#p7a7397c535)" style="fill: none; stroke: #ea0070"/>
    <path d="M 774.832237 209.764146 
L 774.832237 258.900847 
" clip-path="url(#p7a7397c535)" style="fill: none; stroke: #70a800"/>
    <path d="M 788.713218 223.570896 
L 788.713218 251.048516 
" clip-path="url(#p7a7397c535)" style="fill: none; stroke: #70a800"/>
    <path d="M 802.594198 240.474771 
L 802.594198 253.352208 
" clip-path="url(#p7a7397c535)" style="fill: none; stroke: #ea0070"/>
    <path d="M 816.475179 228.836735 
L 816.475179 247.72563 
" clip-path="url(#p7a7397c535)" style="fill: none; stroke: #70a800"/>
    <path d="M 830.35616 217.83813 
L 830.35616 252.391954 
" clip-path="url(#p7a7397c535)" style="fill: none; stroke: #70a800"/>
    <path d="M 844.23714 206.17734 
L 844.23714 245.981608 
" clip-path="url(#p7a7397c535)" style="fill: none; stroke: #ea0070"/>
    <path d="M 858.118121 207.284553 
L 858.118121 250.700253 
" clip-path="url(#p7a7397c535)" style="fill: none; stroke: #70a800"/>
    <path d="M 871.999102 232.920425 
L 871.999102 247.848921 
" clip-path="url(#p7a7397c535)" style="fill: none; stroke: #70a800"/>
    <path d="M 885.880082 238.445481 
L 885.880082 249.84799 
" clip-path="url(#p7a7397c535)" style="fill: none; stroke: #ea0070"/>
    <path d="M 899.761063 231.065441 
L 899.761063 248.960254 
" clip-path="url(#p7a7397c535)" style="fill: none; stroke: #ea0070"/>
    <path d="M 913.642044 233.261565 
L 913.642044 255.541226 
" clip-path="url(#p7a7397c535)" style="fill: none; stroke: #70a800"/>
    <path d="M 927.523024 242.043727 
L 927.523024 246.509986 
" clip-path="url(#p7a7397c535)" style="fill: none; stroke: #70a800"/>
    <path d="M 941.404005 219.534902 
L 941.404005 245.405872 
" clip-path="url(#p7a7397c535)" style="fill: none; stroke: #ea0070"/>
   </g>
   <g id="patch_8">
    <path d="M 591.545455 320.4 
L 591.545455 43.2 
" style="fill: none; stroke: #e6e6e6; stroke-width: 1.5; stroke-linejoin: miter; stroke-linecap: square"/>
   </g>
   <g id="patch_9">
    <path d="M 972 320.4 
L 972 43.2 
" style="fill: none; stroke: #e6e6e6; stroke-width: 1.5; stroke-linejoin: miter; stroke-linecap: square"/>
   </g>
   <g id="patch_10">
    <path d="M 591.545455 320.4 
L 972 320.4 
" style="fill: none; stroke: #e6e6e6; stroke-width: 1.5; stroke-linejoin: miter; stroke-linecap: square"/>
   </g>
   <g id="patch_11">
    <path d="M 591.545455 43.2 
L 972 43.2 
" style="fill: none; stroke: #e6e6e6; stroke-width: 1.5; stroke-linejoin: miter; stroke-linecap: square"/>
   </g>
   <g id="text_22">
    <!-- Predicted -->
    <g style="fill: #262626" transform="translate(751.357227 37.2) scale(0.144 -0.144)">
     <defs>
      <path id="ArialMT-50" d="M 494 0 
L 494 4581 
L 2222 4581 
Q 2678 4581 2919 4538 
Q 3256 4481 3484 4323 
Q 3713 4166 3852 3881 
Q 3991 3597 3991 3256 
Q 3991 2672 3619 2267 
Q 3247 1863 2275 1863 
L 1100 1863 
L 1100 0 
L 494 0 
z
M 1100 2403 
L 2284 2403 
Q 2872 2403 3119 2622 
Q 3366 2841 3366 3238 
Q 3366 3525 3220 3729 
Q 3075 3934 2838 4000 
Q 2684 4041 2272 4041 
L 1100 4041 
L 1100 2403 
z
" transform="scale(0.015625)"/>
      <path id="ArialMT-72" d="M 416 0 
L 416 3319 
L 922 3319 
L 922 2816 
Q 1116 3169 1280 3281 
Q 1444 3394 1641 3394 
Q 1925 3394 2219 3213 
L 2025 2691 
Q 1819 2813 1613 2813 
Q 1428 2813 1281 2702 
Q 1134 2591 1072 2394 
Q 978 2094 978 1738 
L 978 0 
L 416 0 
z
" transform="scale(0.015625)"/>
      <path id="ArialMT-65" d="M 2694 1069 
L 3275 997 
Q 3138 488 2766 206 
Q 2394 -75 1816 -75 
Q 1088 -75 661 373 
Q 234 822 234 1631 
Q 234 2469 665 2931 
Q 1097 3394 1784 3394 
Q 2450 3394 2872 2941 
Q 3294 2488 3294 1666 
Q 3294 1616 3291 1516 
L 816 1516 
Q 847 969 1125 678 
Q 1403 388 1819 388 
Q 2128 388 2347 550 
Q 2566 713 2694 1069 
z
M 847 1978 
L 2700 1978 
Q 2663 2397 2488 2606 
Q 2219 2931 1791 2931 
Q 1403 2931 1139 2672 
Q 875 2413 847 1978 
z
" transform="scale(0.015625)"/>
      <path id="ArialMT-64" d="M 2575 0 
L 2575 419 
Q 2259 -75 1647 -75 
Q 1250 -75 917 144 
Q 584 363 401 755 
Q 219 1147 219 1656 
Q 219 2153 384 2558 
Q 550 2963 881 3178 
Q 1213 3394 1622 3394 
Q 1922 3394 2156 3267 
Q 2391 3141 2538 2938 
L 2538 4581 
L 3097 4581 
L 3097 0 
L 2575 0 
z
M 797 1656 
Q 797 1019 1065 703 
Q 1334 388 1700 388 
Q 2069 388 2326 689 
Q 2584 991 2584 1609 
Q 2584 2291 2321 2609 
Q 2059 2928 1675 2928 
Q 1300 2928 1048 2622 
Q 797 2316 797 1656 
z
" transform="scale(0.015625)"/>
      <path id="ArialMT-69" d="M 425 3934 
L 425 4581 
L 988 4581 
L 988 3934 
L 425 3934 
z
M 425 0 
L 425 3319 
L 988 3319 
L 988 0 
L 425 0 
z
" transform="scale(0.015625)"/>
     </defs>
     <use xlink:href="#ArialMT-50"/>
     <use xlink:href="#ArialMT-72" x="66.699219"/>
     <use xlink:href="#ArialMT-65" x="100"/>
     <use xlink:href="#ArialMT-64" x="155.615234"/>
     <use xlink:href="#ArialMT-69" x="211.230469"/>
     <use xlink:href="#ArialMT-63" x="233.447266"/>
     <use xlink:href="#ArialMT-74" x="283.447266"/>
     <use xlink:href="#ArialMT-65" x="311.230469"/>
     <use xlink:href="#ArialMT-64" x="366.845703"/>
    </g>
   </g>
  </g>
  <g id="text_23">
   <!-- MLP - AXS -->
   <g style="fill: #262626" transform="translate(496.7946 19.5687) scale(0.1728 -0.1728)">
    <defs>
     <path id="Arial-BoldMT-4d" d="M 453 0 
L 453 4581 
L 1838 4581 
L 2669 1456 
L 3491 4581 
L 4878 4581 
L 4878 0 
L 4019 0 
L 4019 3606 
L 3109 0 
L 2219 0 
L 1313 3606 
L 1313 0 
L 453 0 
z
" transform="scale(0.015625)"/>
     <path id="Arial-BoldMT-4c" d="M 491 0 
L 491 4544 
L 1416 4544 
L 1416 772 
L 3716 772 
L 3716 0 
L 491 0 
z
" transform="scale(0.015625)"/>
     <path id="Arial-BoldMT-20" transform="scale(0.015625)"/>
     <path id="Arial-BoldMT-2d" d="M 359 1222 
L 359 2100 
L 2084 2100 
L 2084 1222 
L 359 1222 
z
" transform="scale(0.015625)"/>
     <path id="Arial-BoldMT-41" d="M 4597 0 
L 3591 0 
L 3191 1041 
L 1359 1041 
L 981 0 
L 0 0 
L 1784 4581 
L 2763 4581 
L 4597 0 
z
M 2894 1813 
L 2263 3513 
L 1644 1813 
L 2894 1813 
z
" transform="scale(0.015625)"/>
     <path id="Arial-BoldMT-58" d="M 0 0 
L 1566 2391 
L 147 4581 
L 1228 4581 
L 2147 3109 
L 3047 4581 
L 4119 4581 
L 2694 2356 
L 4259 0 
L 3144 0 
L 2128 1584 
L 1109 0 
L 0 0 
z
" transform="scale(0.015625)"/>
     <path id="Arial-BoldMT-53" d="M 231 1491 
L 1131 1578 
Q 1213 1125 1461 912 
Q 1709 700 2131 700 
Q 2578 700 2804 889 
Q 3031 1078 3031 1331 
Q 3031 1494 2936 1608 
Q 2841 1722 2603 1806 
Q 2441 1863 1863 2006 
Q 1119 2191 819 2459 
Q 397 2838 397 3381 
Q 397 3731 595 4036 
Q 794 4341 1167 4500 
Q 1541 4659 2069 4659 
Q 2931 4659 3367 4281 
Q 3803 3903 3825 3272 
L 2900 3231 
Q 2841 3584 2645 3739 
Q 2450 3894 2059 3894 
Q 1656 3894 1428 3728 
Q 1281 3622 1281 3444 
Q 1281 3281 1419 3166 
Q 1594 3019 2269 2859 
Q 2944 2700 3267 2529 
Q 3591 2359 3773 2064 
Q 3956 1769 3956 1334 
Q 3956 941 3737 597 
Q 3519 253 3119 86 
Q 2719 -81 2122 -81 
Q 1253 -81 787 320 
Q 322 722 231 1491 
z
" transform="scale(0.015625)"/>
    </defs>
    <use xlink:href="#Arial-BoldMT-4d"/>
    <use xlink:href="#Arial-BoldMT-4c" x="83.300781"/>
    <use xlink:href="#Arial-BoldMT-50" x="144.384766"/>
    <use xlink:href="#Arial-BoldMT-20" x="209.333984"/>
    <use xlink:href="#Arial-BoldMT-2d" x="237.117188"/>
    <use xlink:href="#Arial-BoldMT-20" x="270.417969"/>
    <use xlink:href="#Arial-BoldMT-41" x="294.451172"/>
    <use xlink:href="#Arial-BoldMT-58" x="366.667969"/>
    <use xlink:href="#Arial-BoldMT-53" x="433.367188"/>
   </g>
  </g>
 </g>
 <defs>
  <clipPath id="p8910b8d7c2">
   <rect x="135" y="43.2" width="380.454545" height="277.2"/>
  </clipPath>
  <clipPath id="p7a7397c535">
   <rect x="591.545455" y="43.2" width="380.454545" height="277.2"/>
  </clipPath>
 </defs>
</svg>
