<?xml version="1.0" encoding="utf-8" standalone="no"?>
<!DOCTYPE svg PUBLIC "-//W3C//DTD SVG 1.1//EN"
  "http://www.w3.org/Graphics/SVG/1.1/DTD/svg11.dtd">
<svg xmlns:xlink="http://www.w3.org/1999/xlink" width="576pt" height="414pt" viewBox="0 0 576 414" xmlns="http://www.w3.org/2000/svg" version="1.1">
 <metadata>
  <rdf:RDF xmlns:dc="http://purl.org/dc/elements/1.1/" xmlns:cc="http://creativecommons.org/ns#" xmlns:rdf="http://www.w3.org/1999/02/22-rdf-syntax-ns#">
   <cc:Work>
    <dc:type rdf:resource="http://purl.org/dc/dcmitype/StillImage"/>
    <dc:date>2024-06-01T01:02:10.747285</dc:date>
    <dc:format>image/svg+xml</dc:format>
    <dc:creator>
     <cc:Agent>
      <dc:title>Matplotlib v3.9.0, https://matplotlib.org/</dc:title>
     </cc:Agent>
    </dc:creator>
   </cc:Work>
  </rdf:RDF>
 </metadata>
 <defs>
  <style type="text/css">*{stroke-linejoin: round; stroke-linecap: butt}</style>
 </defs>
 <g id="figure_1">
  <g id="patch_1">
   <path d="M 0 414 
L 576 414 
L 576 0 
L 0 0 
z
"/>
  </g>
  <g id="axes_1">
   <g id="patch_2">
    <path d="M 103.68 256.68 
L 518.4 256.68 
L 518.4 49.68 
L 103.68 49.68 
z
"/>
   </g>
   <g id="matplotlib.axis_1">
    <g id="xtick_1">
     <g id="line2d_1">
      <path d="M 137.031608 256.68 
L 137.031608 49.68 
" clip-path="url(#p870ad534b7)" style="fill: none; stroke-dasharray: 2.96,1.28; stroke-dashoffset: 0; stroke: #ffffff; stroke-width: 0.8"/>
     </g>
     <g id="line2d_2">
      <defs>
       <path id="m14d82b7005" d="M 0 0 
L 0 3.5 
" style="stroke: #ffffff; stroke-width: 0.8"/>
      </defs>
      <g>
       <use xlink:href="#m14d82b7005" x="137.031608" y="256.68" style="fill: #ffffff; stroke: #ffffff; stroke-width: 0.8"/>
      </g>
     </g>
    </g>
    <g id="xtick_2">
     <g id="line2d_3">
      <path d="M 212.687431 256.68 
L 212.687431 49.68 
" clip-path="url(#p870ad534b7)" style="fill: none; stroke-dasharray: 2.96,1.28; stroke-dashoffset: 0; stroke: #ffffff; stroke-width: 0.8"/>
     </g>
     <g id="line2d_4">
      <g>
       <use xlink:href="#m14d82b7005" x="212.687431" y="256.68" style="fill: #ffffff; stroke: #ffffff; stroke-width: 0.8"/>
      </g>
     </g>
    </g>
    <g id="xtick_3">
     <g id="line2d_5">
      <path d="M 288.343253 256.68 
L 288.343253 49.68 
" clip-path="url(#p870ad534b7)" style="fill: none; stroke-dasharray: 2.96,1.28; stroke-dashoffset: 0; stroke: #ffffff; stroke-width: 0.8"/>
     </g>
     <g id="line2d_6">
      <g>
       <use xlink:href="#m14d82b7005" x="288.343253" y="256.68" style="fill: #ffffff; stroke: #ffffff; stroke-width: 0.8"/>
      </g>
     </g>
    </g>
    <g id="xtick_4">
     <g id="line2d_7">
      <path d="M 363.999076 256.68 
L 363.999076 49.68 
" clip-path="url(#p870ad534b7)" style="fill: none; stroke-dasharray: 2.96,1.28; stroke-dashoffset: 0; stroke: #ffffff; stroke-width: 0.8"/>
     </g>
     <g id="line2d_8">
      <g>
       <use xlink:href="#m14d82b7005" x="363.999076" y="256.68" style="fill: #ffffff; stroke: #ffffff; stroke-width: 0.8"/>
      </g>
     </g>
    </g>
    <g id="xtick_5">
     <g id="line2d_9">
      <path d="M 439.654898 256.68 
L 439.654898 49.68 
" clip-path="url(#p870ad534b7)" style="fill: none; stroke-dasharray: 2.96,1.28; stroke-dashoffset: 0; stroke: #ffffff; stroke-width: 0.8"/>
     </g>
     <g id="line2d_10">
      <g>
       <use xlink:href="#m14d82b7005" x="439.654898" y="256.68" style="fill: #ffffff; stroke: #ffffff; stroke-width: 0.8"/>
      </g>
     </g>
    </g>
    <g id="xtick_6">
     <g id="line2d_11">
      <path d="M 515.310721 256.68 
L 515.310721 49.68 
" clip-path="url(#p870ad534b7)" style="fill: none; stroke-dasharray: 2.96,1.28; stroke-dashoffset: 0; stroke: #ffffff; stroke-width: 0.8"/>
     </g>
     <g id="line2d_12">
      <g>
       <use xlink:href="#m14d82b7005" x="515.310721" y="256.68" style="fill: #ffffff; stroke: #ffffff; stroke-width: 0.8"/>
      </g>
     </g>
    </g>
   </g>
   <g id="matplotlib.axis_2">
    <g id="ytick_1">
     <g id="line2d_13">
      <path d="M 103.68 229.718782 
L 518.4 229.718782 
" clip-path="url(#p870ad534b7)" style="fill: none; stroke-dasharray: 2.96,1.28; stroke-dashoffset: 0; stroke: #ffffff; stroke-width: 0.8"/>
     </g>
     <g id="line2d_14">
      <defs>
       <path id="ma4496fae06" d="M 0 0 
L 3.5 0 
" style="stroke: #ffffff; stroke-width: 0.8"/>
      </defs>
      <g>
       <use xlink:href="#ma4496fae06" x="518.4" y="229.718782" style="fill: #ffffff; stroke: #ffffff; stroke-width: 0.8"/>
      </g>
     </g>
     <g id="text_1">
      <!-- 7.70 -->
      <g style="fill: #ffffff" transform="translate(525.4 233.518001) scale(0.1 -0.1)">
       <defs>
        <path id="DejaVuSans-37" d="M 525 4666 
L 3525 4666 
L 3525 4397 
L 1831 0 
L 1172 0 
L 2766 4134 
L 525 4134 
L 525 4666 
z
" transform="scale(0.015625)"/>
        <path id="DejaVuSans-2e" d="M 684 794 
L 1344 794 
L 1344 0 
L 684 0 
L 684 794 
z
" transform="scale(0.015625)"/>
        <path id="DejaVuSans-30" d="M 2034 4250 
Q 1547 4250 1301 3770 
Q 1056 3291 1056 2328 
Q 1056 1369 1301 889 
Q 1547 409 2034 409 
Q 2525 409 2770 889 
Q 3016 1369 3016 2328 
Q 3016 3291 2770 3770 
Q 2525 4250 2034 4250 
z
M 2034 4750 
Q 2819 4750 3233 4129 
Q 3647 3509 3647 2328 
Q 3647 1150 3233 529 
Q 2819 -91 2034 -91 
Q 1250 -91 836 529 
Q 422 1150 422 2328 
Q 422 3509 836 4129 
Q 1250 4750 2034 4750 
z
" transform="scale(0.015625)"/>
       </defs>
       <use xlink:href="#DejaVuSans-37"/>
       <use xlink:href="#DejaVuSans-2e" x="63.623047"/>
       <use xlink:href="#DejaVuSans-37" x="95.410156"/>
       <use xlink:href="#DejaVuSans-30" x="159.033203"/>
      </g>
     </g>
    </g>
    <g id="ytick_2">
     <g id="line2d_15">
      <path d="M 103.68 200.944804 
L 518.4 200.944804 
" clip-path="url(#p870ad534b7)" style="fill: none; stroke-dasharray: 2.96,1.28; stroke-dashoffset: 0; stroke: #ffffff; stroke-width: 0.8"/>
     </g>
     <g id="line2d_16">
      <g>
       <use xlink:href="#ma4496fae06" x="518.4" y="200.944804" style="fill: #ffffff; stroke: #ffffff; stroke-width: 0.8"/>
      </g>
     </g>
     <g id="text_2">
      <!-- 7.75 -->
      <g style="fill: #ffffff" transform="translate(525.4 204.744023) scale(0.1 -0.1)">
       <defs>
        <path id="DejaVuSans-35" d="M 691 4666 
L 3169 4666 
L 3169 4134 
L 1269 4134 
L 1269 2991 
Q 1406 3038 1543 3061 
Q 1681 3084 1819 3084 
Q 2600 3084 3056 2656 
Q 3513 2228 3513 1497 
Q 3513 744 3044 326 
Q 2575 -91 1722 -91 
Q 1428 -91 1123 -41 
Q 819 9 494 109 
L 494 744 
Q 775 591 1075 516 
Q 1375 441 1709 441 
Q 2250 441 2565 725 
Q 2881 1009 2881 1497 
Q 2881 1984 2565 2268 
Q 2250 2553 1709 2553 
Q 1456 2553 1204 2497 
Q 953 2441 691 2322 
L 691 4666 
z
" transform="scale(0.015625)"/>
       </defs>
       <use xlink:href="#DejaVuSans-37"/>
       <use xlink:href="#DejaVuSans-2e" x="63.623047"/>
       <use xlink:href="#DejaVuSans-37" x="95.410156"/>
       <use xlink:href="#DejaVuSans-35" x="159.033203"/>
      </g>
     </g>
    </g>
    <g id="ytick_3">
     <g id="line2d_17">
      <path d="M 103.68 172.170826 
L 518.4 172.170826 
" clip-path="url(#p870ad534b7)" style="fill: none; stroke-dasharray: 2.96,1.28; stroke-dashoffset: 0; stroke: #ffffff; stroke-width: 0.8"/>
     </g>
     <g id="line2d_18">
      <g>
       <use xlink:href="#ma4496fae06" x="518.4" y="172.170826" style="fill: #ffffff; stroke: #ffffff; stroke-width: 0.8"/>
      </g>
     </g>
     <g id="text_3">
      <!-- 7.80 -->
      <g style="fill: #ffffff" transform="translate(525.4 175.970044) scale(0.1 -0.1)">
       <defs>
        <path id="DejaVuSans-38" d="M 2034 2216 
Q 1584 2216 1326 1975 
Q 1069 1734 1069 1313 
Q 1069 891 1326 650 
Q 1584 409 2034 409 
Q 2484 409 2743 651 
Q 3003 894 3003 1313 
Q 3003 1734 2745 1975 
Q 2488 2216 2034 2216 
z
M 1403 2484 
Q 997 2584 770 2862 
Q 544 3141 544 3541 
Q 544 4100 942 4425 
Q 1341 4750 2034 4750 
Q 2731 4750 3128 4425 
Q 3525 4100 3525 3541 
Q 3525 3141 3298 2862 
Q 3072 2584 2669 2484 
Q 3125 2378 3379 2068 
Q 3634 1759 3634 1313 
Q 3634 634 3220 271 
Q 2806 -91 2034 -91 
Q 1263 -91 848 271 
Q 434 634 434 1313 
Q 434 1759 690 2068 
Q 947 2378 1403 2484 
z
M 1172 3481 
Q 1172 3119 1398 2916 
Q 1625 2713 2034 2713 
Q 2441 2713 2670 2916 
Q 2900 3119 2900 3481 
Q 2900 3844 2670 4047 
Q 2441 4250 2034 4250 
Q 1625 4250 1398 4047 
Q 1172 3844 1172 3481 
z
" transform="scale(0.015625)"/>
       </defs>
       <use xlink:href="#DejaVuSans-37"/>
       <use xlink:href="#DejaVuSans-2e" x="63.623047"/>
       <use xlink:href="#DejaVuSans-38" x="95.410156"/>
       <use xlink:href="#DejaVuSans-30" x="159.033203"/>
      </g>
     </g>
    </g>
    <g id="ytick_4">
     <g id="line2d_19">
      <path d="M 103.68 143.396847 
L 518.4 143.396847 
" clip-path="url(#p870ad534b7)" style="fill: none; stroke-dasharray: 2.96,1.28; stroke-dashoffset: 0; stroke: #ffffff; stroke-width: 0.8"/>
     </g>
     <g id="line2d_20">
      <g>
       <use xlink:href="#ma4496fae06" x="518.4" y="143.396847" style="fill: #ffffff; stroke: #ffffff; stroke-width: 0.8"/>
      </g>
     </g>
     <g id="text_4">
      <!-- 7.85 -->
      <g style="fill: #ffffff" transform="translate(525.4 147.196066) scale(0.1 -0.1)">
       <use xlink:href="#DejaVuSans-37"/>
       <use xlink:href="#DejaVuSans-2e" x="63.623047"/>
       <use xlink:href="#DejaVuSans-38" x="95.410156"/>
       <use xlink:href="#DejaVuSans-35" x="159.033203"/>
      </g>
     </g>
    </g>
    <g id="ytick_5">
     <g id="line2d_21">
      <path d="M 103.68 114.622869 
L 518.4 114.622869 
" clip-path="url(#p870ad534b7)" style="fill: none; stroke-dasharray: 2.96,1.28; stroke-dashoffset: 0; stroke: #ffffff; stroke-width: 0.8"/>
     </g>
     <g id="line2d_22">
      <g>
       <use xlink:href="#ma4496fae06" x="518.4" y="114.622869" style="fill: #ffffff; stroke: #ffffff; stroke-width: 0.8"/>
      </g>
     </g>
     <g id="text_5">
      <!-- 7.90 -->
      <g style="fill: #ffffff" transform="translate(525.4 118.422088) scale(0.1 -0.1)">
       <defs>
        <path id="DejaVuSans-39" d="M 703 97 
L 703 672 
Q 941 559 1184 500 
Q 1428 441 1663 441 
Q 2288 441 2617 861 
Q 2947 1281 2994 2138 
Q 2813 1869 2534 1725 
Q 2256 1581 1919 1581 
Q 1219 1581 811 2004 
Q 403 2428 403 3163 
Q 403 3881 828 4315 
Q 1253 4750 1959 4750 
Q 2769 4750 3195 4129 
Q 3622 3509 3622 2328 
Q 3622 1225 3098 567 
Q 2575 -91 1691 -91 
Q 1453 -91 1209 -44 
Q 966 3 703 97 
z
M 1959 2075 
Q 2384 2075 2632 2365 
Q 2881 2656 2881 3163 
Q 2881 3666 2632 3958 
Q 2384 4250 1959 4250 
Q 1534 4250 1286 3958 
Q 1038 3666 1038 3163 
Q 1038 2656 1286 2365 
Q 1534 2075 1959 2075 
z
" transform="scale(0.015625)"/>
       </defs>
       <use xlink:href="#DejaVuSans-37"/>
       <use xlink:href="#DejaVuSans-2e" x="63.623047"/>
       <use xlink:href="#DejaVuSans-39" x="95.410156"/>
       <use xlink:href="#DejaVuSans-30" x="159.033203"/>
      </g>
     </g>
    </g>
    <g id="ytick_6">
     <g id="line2d_23">
      <path d="M 103.68 85.848891 
L 518.4 85.848891 
" clip-path="url(#p870ad534b7)" style="fill: none; stroke-dasharray: 2.96,1.28; stroke-dashoffset: 0; stroke: #ffffff; stroke-width: 0.8"/>
     </g>
     <g id="line2d_24">
      <g>
       <use xlink:href="#ma4496fae06" x="518.4" y="85.848891" style="fill: #ffffff; stroke: #ffffff; stroke-width: 0.8"/>
      </g>
     </g>
     <g id="text_6">
      <!-- 7.95 -->
      <g style="fill: #ffffff" transform="translate(525.4 89.648109) scale(0.1 -0.1)">
       <use xlink:href="#DejaVuSans-37"/>
       <use xlink:href="#DejaVuSans-2e" x="63.623047"/>
       <use xlink:href="#DejaVuSans-39" x="95.410156"/>
       <use xlink:href="#DejaVuSans-35" x="159.033203"/>
      </g>
     </g>
    </g>
    <g id="ytick_7">
     <g id="line2d_25">
      <path d="M 103.68 57.074912 
L 518.4 57.074912 
" clip-path="url(#p870ad534b7)" style="fill: none; stroke-dasharray: 2.96,1.28; stroke-dashoffset: 0; stroke: #ffffff; stroke-width: 0.8"/>
     </g>
     <g id="line2d_26">
      <g>
       <use xlink:href="#ma4496fae06" x="518.4" y="57.074912" style="fill: #ffffff; stroke: #ffffff; stroke-width: 0.8"/>
      </g>
     </g>
     <g id="text_7">
      <!-- 8.00 -->
      <g style="fill: #ffffff" transform="translate(525.4 60.874131) scale(0.1 -0.1)">
       <use xlink:href="#DejaVuSans-38"/>
       <use xlink:href="#DejaVuSans-2e" x="63.623047"/>
       <use xlink:href="#DejaVuSans-30" x="95.410156"/>
       <use xlink:href="#DejaVuSans-30" x="159.033203"/>
      </g>
     </g>
    </g>
    <g id="text_8">
     <!-- Price -->
     <g style="fill: #ffffff" transform="translate(559.264063 165.377656) rotate(-90) scale(0.1 -0.1)">
      <defs>
       <path id="DejaVuSans-50" d="M 1259 4147 
L 1259 2394 
L 2053 2394 
Q 2494 2394 2734 2622 
Q 2975 2850 2975 3272 
Q 2975 3691 2734 3919 
Q 2494 4147 2053 4147 
L 1259 4147 
z
M 628 4666 
L 2053 4666 
Q 2838 4666 3239 4311 
Q 3641 3956 3641 3272 
Q 3641 2581 3239 2228 
Q 2838 1875 2053 1875 
L 1259 1875 
L 1259 0 
L 628 0 
L 628 4666 
z
" transform="scale(0.015625)"/>
       <path id="DejaVuSans-72" d="M 2631 2963 
Q 2534 3019 2420 3045 
Q 2306 3072 2169 3072 
Q 1681 3072 1420 2755 
Q 1159 2438 1159 1844 
L 1159 0 
L 581 0 
L 581 3500 
L 1159 3500 
L 1159 2956 
Q 1341 3275 1631 3429 
Q 1922 3584 2338 3584 
Q 2397 3584 2469 3576 
Q 2541 3569 2628 3553 
L 2631 2963 
z
" transform="scale(0.015625)"/>
       <path id="DejaVuSans-69" d="M 603 3500 
L 1178 3500 
L 1178 0 
L 603 0 
L 603 3500 
z
M 603 4863 
L 1178 4863 
L 1178 4134 
L 603 4134 
L 603 4863 
z
" transform="scale(0.015625)"/>
       <path id="DejaVuSans-63" d="M 3122 3366 
L 3122 2828 
Q 2878 2963 2633 3030 
Q 2388 3097 2138 3097 
Q 1578 3097 1268 2742 
Q 959 2388 959 1747 
Q 959 1106 1268 751 
Q 1578 397 2138 397 
Q 2388 397 2633 464 
Q 2878 531 3122 666 
L 3122 134 
Q 2881 22 2623 -34 
Q 2366 -91 2075 -91 
Q 1284 -91 818 406 
Q 353 903 353 1747 
Q 353 2603 823 3093 
Q 1294 3584 2113 3584 
Q 2378 3584 2631 3529 
Q 2884 3475 3122 3366 
z
" transform="scale(0.015625)"/>
       <path id="DejaVuSans-65" d="M 3597 1894 
L 3597 1613 
L 953 1613 
Q 991 1019 1311 708 
Q 1631 397 2203 397 
Q 2534 397 2845 478 
Q 3156 559 3463 722 
L 3463 178 
Q 3153 47 2828 -22 
Q 2503 -91 2169 -91 
Q 1331 -91 842 396 
Q 353 884 353 1716 
Q 353 2575 817 3079 
Q 1281 3584 2069 3584 
Q 2775 3584 3186 3129 
Q 3597 2675 3597 1894 
z
M 3022 2063 
Q 3016 2534 2758 2815 
Q 2500 3097 2075 3097 
Q 1594 3097 1305 2825 
Q 1016 2553 972 2059 
L 3022 2063 
z
" transform="scale(0.015625)"/>
      </defs>
      <use xlink:href="#DejaVuSans-50"/>
      <use xlink:href="#DejaVuSans-72" x="58.552734"/>
      <use xlink:href="#DejaVuSans-69" x="99.666016"/>
      <use xlink:href="#DejaVuSans-63" x="127.449219"/>
      <use xlink:href="#DejaVuSans-65" x="182.429688"/>
     </g>
    </g>
   </g>
   <g id="PolyCollection_1">
    <path d="M 132.11398 101.099099 
L 132.11398 109.731293 
L 141.949237 109.731293 
L 141.949237 101.099099 
z
" clip-path="url(#p870ad534b7)" style="fill: #ef4f60; stroke: #ef4f60"/>
    <path d="M 147.245144 109.731293 
L 147.245144 103.976497 
L 157.080401 103.976497 
L 157.080401 109.731293 
z
" clip-path="url(#p870ad534b7)" style="fill: #3dc985; stroke: #3dc985"/>
    <path d="M 162.376309 103.976497 
L 162.376309 70.023203 
L 172.211566 70.023203 
L 172.211566 103.976497 
z
" clip-path="url(#p870ad534b7)" style="fill: #3dc985; stroke: #3dc985"/>
    <path d="M 177.507473 70.023203 
L 177.507473 91.891426 
L 187.34273 91.891426 
L 187.34273 70.023203 
z
" clip-path="url(#p870ad534b7)" style="fill: #ef4f60; stroke: #ef4f60"/>
    <path d="M 192.638638 91.891426 
L 192.638638 118.363486 
L 202.473895 118.363486 
L 202.473895 91.891426 
z
" clip-path="url(#p870ad534b7)" style="fill: #ef4f60; stroke: #ef4f60"/>
    <path d="M 207.769802 118.363486 
L 207.769802 98.797181 
L 217.605059 98.797181 
L 217.605059 118.363486 
z
" clip-path="url(#p870ad534b7)" style="fill: #3dc985; stroke: #3dc985"/>
    <path d="M 222.900967 98.797181 
L 222.900967 106.853895 
L 232.736224 106.853895 
L 232.736224 98.797181 
z
" clip-path="url(#p870ad534b7)" style="fill: #ef4f60; stroke: #ef4f60"/>
    <path d="M 238.032131 106.853895 
L 238.032131 84.122452 
L 247.867388 84.122452 
L 247.867388 106.853895 
z
" clip-path="url(#p870ad534b7)" style="fill: #3dc985; stroke: #3dc985"/>
    <path d="M 253.163296 84.122452 
L 253.163296 111.457731 
L 262.998553 111.457731 
L 262.998553 84.122452 
z
" clip-path="url(#p870ad534b7)" style="fill: #ef4f60; stroke: #ef4f60"/>
    <path d="M 268.29446 111.457731 
L 268.29446 117.788007 
L 278.129717 117.788007 
L 278.129717 111.457731 
z
" clip-path="url(#p870ad534b7)" style="fill: #ef4f60; stroke: #ef4f60"/>
    <path d="M 283.425625 117.788007 
L 283.425625 144.260067 
L 293.260882 144.260067 
L 293.260882 117.788007 
z
" clip-path="url(#p870ad534b7)" style="fill: #ef4f60; stroke: #ef4f60"/>
    <path d="M 298.556789 144.260067 
L 298.556789 192.312611 
L 308.392046 192.312611 
L 308.392046 144.260067 
z
" clip-path="url(#p870ad534b7)" style="fill: #ef4f60; stroke: #ef4f60"/>
    <path d="M 313.687954 192.312611 
L 313.687954 216.195013 
L 323.523211 216.195013 
L 323.523211 192.312611 
z
" clip-path="url(#p870ad534b7)" style="fill: #ef4f60; stroke: #ef4f60"/>
    <path d="M 328.819118 216.195013 
L 328.819118 164.401852 
L 338.654375 164.401852 
L 338.654375 216.195013 
z
" clip-path="url(#p870ad534b7)" style="fill: #3dc985; stroke: #3dc985"/>
    <path d="M 343.950283 164.401852 
L 343.950283 100.52362 
L 353.78554 100.52362 
L 353.78554 164.401852 
z
" clip-path="url(#p870ad534b7)" style="fill: #3dc985; stroke: #3dc985"/>
    <path d="M 359.081447 100.52362 
L 359.081447 148.576163 
L 368.916704 148.576163 
L 368.916704 100.52362 
z
" clip-path="url(#p870ad534b7)" style="fill: #ef4f60; stroke: #ef4f60"/>
    <path d="M 374.212612 148.576163 
L 374.212612 209.576997 
L 384.047869 209.576997 
L 384.047869 148.576163 
z
" clip-path="url(#p870ad534b7)" style="fill: #ef4f60; stroke: #ef4f60"/>
    <path d="M 389.343776 209.576997 
L 389.343776 167.854729 
L 399.179033 167.854729 
L 399.179033 209.576997 
z
" clip-path="url(#p870ad534b7)" style="fill: #3dc985; stroke: #3dc985"/>
    <path d="M 404.474941 167.854729 
L 404.474941 175.335963 
L 414.310198 175.335963 
L 414.310198 167.854729 
z
" clip-path="url(#p870ad534b7)" style="fill: #ef4f60; stroke: #ef4f60"/>
    <path d="M 419.606105 175.335963 
L 419.606105 135.340133 
L 429.441362 135.340133 
L 429.441362 175.335963 
z
" clip-path="url(#p870ad534b7)" style="fill: #3dc985; stroke: #3dc985"/>
    <path d="M 434.73727 135.627873 
L 434.73727 126.70794 
L 444.572527 126.70794 
L 444.572527 135.627873 
z
" clip-path="url(#p870ad534b7)" style="fill: #3dc985; stroke: #3dc985"/>
    <path d="M 449.868434 126.70794 
L 449.868434 135.627873 
L 459.703691 135.627873 
L 459.703691 126.70794 
z
" clip-path="url(#p870ad534b7)" style="fill: #ef4f60; stroke: #ef4f60"/>
    <path d="M 464.999599 135.627873 
L 464.999599 143.109108 
L 474.834856 143.109108 
L 474.834856 135.627873 
z
" clip-path="url(#p870ad534b7)" style="fill: #ef4f60; stroke: #ef4f60"/>
    <path d="M 480.130763 143.109108 
L 480.130763 184.543636 
L 489.96602 184.543636 
L 489.96602 143.109108 
z
" clip-path="url(#p870ad534b7)" style="fill: #ef4f60; stroke: #ef4f60"/>
   </g>
   <g id="LineCollection_1">
    <path d="M 137.031608 137.354312 
L 137.031608 109.731293 
" clip-path="url(#p870ad534b7)" style="fill: none; stroke: #ef4f60"/>
    <path d="M 152.162773 109.731293 
L 152.162773 109.731293 
" clip-path="url(#p870ad534b7)" style="fill: none; stroke: #3dc985"/>
    <path d="M 167.293937 111.457731 
L 167.293937 103.976497 
" clip-path="url(#p870ad534b7)" style="fill: none; stroke: #3dc985"/>
    <path d="M 182.425102 97.070742 
L 182.425102 91.891426 
" clip-path="url(#p870ad534b7)" style="fill: none; stroke: #ef4f60"/>
    <path d="M 197.556266 118.938966 
L 197.556266 118.363486 
" clip-path="url(#p870ad534b7)" style="fill: none; stroke: #ef4f60"/>
    <path d="M 212.687431 121.240884 
L 212.687431 118.363486 
" clip-path="url(#p870ad534b7)" style="fill: none; stroke: #3dc985"/>
    <path d="M 227.818595 126.99568 
L 227.818595 106.853895 
" clip-path="url(#p870ad534b7)" style="fill: none; stroke: #ef4f60"/>
    <path d="M 242.94976 124.118282 
L 242.94976 106.853895 
" clip-path="url(#p870ad534b7)" style="fill: none; stroke: #3dc985"/>
    <path d="M 258.080924 118.938966 
L 258.080924 111.457731 
" clip-path="url(#p870ad534b7)" style="fill: none; stroke: #ef4f60"/>
    <path d="M 273.212089 144.260067 
L 273.212089 117.788007 
" clip-path="url(#p870ad534b7)" style="fill: none; stroke: #ef4f60"/>
    <path d="M 288.343253 156.920617 
L 288.343253 144.260067 
" clip-path="url(#p870ad534b7)" style="fill: none; stroke: #ef4f60"/>
    <path d="M 303.474418 222.525288 
L 303.474418 192.312611 
" clip-path="url(#p870ad534b7)" style="fill: none; stroke: #ef4f60"/>
    <path d="M 318.605582 247.270909 
L 318.605582 216.195013 
" clip-path="url(#p870ad534b7)" style="fill: none; stroke: #ef4f60"/>
    <path d="M 333.736747 244.105771 
L 333.736747 216.195013 
" clip-path="url(#p870ad534b7)" style="fill: none; stroke: #3dc985"/>
    <path d="M 348.867911 164.401852 
L 348.867911 164.401852 
" clip-path="url(#p870ad534b7)" style="fill: none; stroke: #3dc985"/>
    <path d="M 363.999076 181.090759 
L 363.999076 148.576163 
" clip-path="url(#p870ad534b7)" style="fill: none; stroke: #ef4f60"/>
    <path d="M 379.13024 216.770492 
L 379.13024 209.576997 
" clip-path="url(#p870ad534b7)" style="fill: none; stroke: #ef4f60"/>
    <path d="M 394.261405 218.496931 
L 394.261405 209.576997 
" clip-path="url(#p870ad534b7)" style="fill: none; stroke: #3dc985"/>
    <path d="M 409.392569 196.053228 
L 409.392569 175.335963 
" clip-path="url(#p870ad534b7)" style="fill: none; stroke: #ef4f60"/>
    <path d="M 424.523734 194.326789 
L 424.523734 175.335963 
" clip-path="url(#p870ad534b7)" style="fill: none; stroke: #3dc985"/>
    <path d="M 439.654898 154.618699 
L 439.654898 135.627873 
" clip-path="url(#p870ad534b7)" style="fill: none; stroke: #3dc985"/>
    <path d="M 454.786063 170.156647 
L 454.786063 135.627873 
" clip-path="url(#p870ad534b7)" style="fill: none; stroke: #ef4f60"/>
    <path d="M 469.917227 153.46774 
L 469.917227 143.109108 
" clip-path="url(#p870ad534b7)" style="fill: none; stroke: #ef4f60"/>
    <path d="M 485.048392 184.543636 
L 485.048392 184.543636 
" clip-path="url(#p870ad534b7)" style="fill: none; stroke: #ef4f60"/>
    <path d="M 137.031608 87.28759 
L 137.031608 101.099099 
" clip-path="url(#p870ad534b7)" style="fill: none; stroke: #ef4f60"/>
    <path d="M 152.162773 70.598682 
L 152.162773 103.976497 
" clip-path="url(#p870ad534b7)" style="fill: none; stroke: #3dc985"/>
    <path d="M 167.293937 70.023203 
L 167.293937 70.023203 
" clip-path="url(#p870ad534b7)" style="fill: none; stroke: #3dc985"/>
    <path d="M 182.425102 59.089091 
L 182.425102 70.023203 
" clip-path="url(#p870ad534b7)" style="fill: none; stroke: #ef4f60"/>
    <path d="M 197.556266 90.740467 
L 197.556266 91.891426 
" clip-path="url(#p870ad534b7)" style="fill: none; stroke: #ef4f60"/>
    <path d="M 212.687431 90.740467 
L 212.687431 98.797181 
" clip-path="url(#p870ad534b7)" style="fill: none; stroke: #3dc985"/>
    <path d="M 227.818595 87.863069 
L 227.818595 98.797181 
" clip-path="url(#p870ad534b7)" style="fill: none; stroke: #ef4f60"/>
    <path d="M 242.94976 64.843887 
L 242.94976 84.122452 
" clip-path="url(#p870ad534b7)" style="fill: none; stroke: #3dc985"/>
    <path d="M 258.080924 83.834712 
L 258.080924 84.122452 
" clip-path="url(#p870ad534b7)" style="fill: none; stroke: #ef4f60"/>
    <path d="M 273.212089 105.415196 
L 273.212089 111.457731 
" clip-path="url(#p870ad534b7)" style="fill: none; stroke: #ef4f60"/>
    <path d="M 288.343253 99.372661 
L 288.343253 117.788007 
" clip-path="url(#p870ad534b7)" style="fill: none; stroke: #ef4f60"/>
    <path d="M 303.474418 140.807189 
L 303.474418 144.260067 
" clip-path="url(#p870ad534b7)" style="fill: none; stroke: #ef4f60"/>
    <path d="M 318.605582 186.557815 
L 318.605582 192.312611 
" clip-path="url(#p870ad534b7)" style="fill: none; stroke: #ef4f60"/>
    <path d="M 333.736747 150.014862 
L 333.736747 164.401852 
" clip-path="url(#p870ad534b7)" style="fill: none; stroke: #3dc985"/>
    <path d="M 348.867911 90.164987 
L 348.867911 100.52362 
" clip-path="url(#p870ad534b7)" style="fill: none; stroke: #3dc985"/>
    <path d="M 363.999076 99.6604 
L 363.999076 100.52362 
" clip-path="url(#p870ad534b7)" style="fill: none; stroke: #ef4f60"/>
    <path d="M 379.13024 134.764654 
L 379.13024 148.576163 
" clip-path="url(#p870ad534b7)" style="fill: none; stroke: #ef4f60"/>
    <path d="M 394.261405 155.194178 
L 394.261405 167.854729 
" clip-path="url(#p870ad534b7)" style="fill: none; stroke: #3dc985"/>
    <path d="M 409.392569 147.712944 
L 409.392569 167.854729 
" clip-path="url(#p870ad534b7)" style="fill: none; stroke: #ef4f60"/>
    <path d="M 424.523734 128.722118 
L 424.523734 135.340133 
" clip-path="url(#p870ad534b7)" style="fill: none; stroke: #3dc985"/>
    <path d="M 439.654898 115.486088 
L 439.654898 126.70794 
" clip-path="url(#p870ad534b7)" style="fill: none; stroke: #3dc985"/>
    <path d="M 454.786063 118.938966 
L 454.786063 126.70794 
" clip-path="url(#p870ad534b7)" style="fill: none; stroke: #ef4f60"/>
    <path d="M 469.917227 84.410192 
L 469.917227 135.627873 
" clip-path="url(#p870ad534b7)" style="fill: none; stroke: #ef4f60"/>
    <path d="M 485.048392 126.99568 
L 485.048392 143.109108 
" clip-path="url(#p870ad534b7)" style="fill: none; stroke: #ef4f60"/>
   </g>
   <g id="patch_3">
    <path d="M 103.68 256.68 
L 103.68 49.68 
" style="fill: none; stroke: #474d56; stroke-width: 0.8; stroke-linejoin: miter; stroke-linecap: square"/>
   </g>
   <g id="patch_4">
    <path d="M 518.4 256.68 
L 518.4 49.68 
" style="fill: none; stroke: #474d56; stroke-width: 0.8; stroke-linejoin: miter; stroke-linecap: square"/>
   </g>
   <g id="patch_5">
    <path d="M 103.68 256.68 
L 518.4 256.68 
" style="fill: none; stroke: #474d56; stroke-width: 0.8; stroke-linejoin: miter; stroke-linecap: square"/>
   </g>
   <g id="patch_6">
    <path d="M 103.68 49.68 
L 518.4 49.68 
" style="fill: none; stroke: #474d56; stroke-width: 0.8; stroke-linejoin: miter; stroke-linecap: square"/>
   </g>
  </g>
  <g id="axes_2">
   <g id="patch_7">
    <path d="M 103.68 339.48 
L 518.4 339.48 
L 518.4 256.68 
L 103.68 256.68 
z
"/>
   </g>
   <g id="matplotlib.axis_3">
    <g id="xtick_7">
     <g id="line2d_27">
      <path d="M 137.031608 339.48 
L 137.031608 256.68 
" clip-path="url(#p1394a0e52d)" style="fill: none; stroke-dasharray: 2.96,1.28; stroke-dashoffset: 0; stroke: #ffffff; stroke-width: 0.8"/>
     </g>
     <g id="line2d_28">
      <g>
       <use xlink:href="#m14d82b7005" x="137.031608" y="339.48" style="fill: #ffffff; stroke: #ffffff; stroke-width: 0.8"/>
      </g>
     </g>
     <g id="text_9">
      <!-- 00:00 -->
      <g style="fill: #ffffff" transform="translate(128.793814 372.23084) rotate(-45) scale(0.1 -0.1)">
       <defs>
        <path id="DejaVuSans-3a" d="M 750 794 
L 1409 794 
L 1409 0 
L 750 0 
L 750 794 
z
M 750 3309 
L 1409 3309 
L 1409 2516 
L 750 2516 
L 750 3309 
z
" transform="scale(0.015625)"/>
       </defs>
       <use xlink:href="#DejaVuSans-30"/>
       <use xlink:href="#DejaVuSans-30" x="63.623047"/>
       <use xlink:href="#DejaVuSans-3a" x="127.246094"/>
       <use xlink:href="#DejaVuSans-30" x="160.9375"/>
       <use xlink:href="#DejaVuSans-30" x="224.560547"/>
      </g>
     </g>
    </g>
    <g id="xtick_8">
     <g id="line2d_29">
      <path d="M 212.687431 339.48 
L 212.687431 256.68 
" clip-path="url(#p1394a0e52d)" style="fill: none; stroke-dasharray: 2.96,1.28; stroke-dashoffset: 0; stroke: #ffffff; stroke-width: 0.8"/>
     </g>
     <g id="line2d_30">
      <g>
       <use xlink:href="#m14d82b7005" x="212.687431" y="339.48" style="fill: #ffffff; stroke: #ffffff; stroke-width: 0.8"/>
      </g>
     </g>
     <g id="text_10">
      <!-- 05:00 -->
      <g style="fill: #ffffff" transform="translate(204.449637 372.23084) rotate(-45) scale(0.1 -0.1)">
       <use xlink:href="#DejaVuSans-30"/>
       <use xlink:href="#DejaVuSans-35" x="63.623047"/>
       <use xlink:href="#DejaVuSans-3a" x="127.246094"/>
       <use xlink:href="#DejaVuSans-30" x="160.9375"/>
       <use xlink:href="#DejaVuSans-30" x="224.560547"/>
      </g>
     </g>
    </g>
    <g id="xtick_9">
     <g id="line2d_31">
      <path d="M 288.343253 339.48 
L 288.343253 256.68 
" clip-path="url(#p1394a0e52d)" style="fill: none; stroke-dasharray: 2.96,1.28; stroke-dashoffset: 0; stroke: #ffffff; stroke-width: 0.8"/>
     </g>
     <g id="line2d_32">
      <g>
       <use xlink:href="#m14d82b7005" x="288.343253" y="339.48" style="fill: #ffffff; stroke: #ffffff; stroke-width: 0.8"/>
      </g>
     </g>
     <g id="text_11">
      <!-- 10:00 -->
      <g style="fill: #ffffff" transform="translate(280.105459 372.23084) rotate(-45) scale(0.1 -0.1)">
       <defs>
        <path id="DejaVuSans-31" d="M 794 531 
L 1825 531 
L 1825 4091 
L 703 3866 
L 703 4441 
L 1819 4666 
L 2450 4666 
L 2450 531 
L 3481 531 
L 3481 0 
L 794 0 
L 794 531 
z
" transform="scale(0.015625)"/>
       </defs>
       <use xlink:href="#DejaVuSans-31"/>
       <use xlink:href="#DejaVuSans-30" x="63.623047"/>
       <use xlink:href="#DejaVuSans-3a" x="127.246094"/>
       <use xlink:href="#DejaVuSans-30" x="160.9375"/>
       <use xlink:href="#DejaVuSans-30" x="224.560547"/>
      </g>
     </g>
    </g>
    <g id="xtick_10">
     <g id="line2d_33">
      <path d="M 363.999076 339.48 
L 363.999076 256.68 
" clip-path="url(#p1394a0e52d)" style="fill: none; stroke-dasharray: 2.96,1.28; stroke-dashoffset: 0; stroke: #ffffff; stroke-width: 0.8"/>
     </g>
     <g id="line2d_34">
      <g>
       <use xlink:href="#m14d82b7005" x="363.999076" y="339.48" style="fill: #ffffff; stroke: #ffffff; stroke-width: 0.8"/>
      </g>
     </g>
     <g id="text_12">
      <!-- 15:00 -->
      <g style="fill: #ffffff" transform="translate(355.761282 372.23084) rotate(-45) scale(0.1 -0.1)">
       <use xlink:href="#DejaVuSans-31"/>
       <use xlink:href="#DejaVuSans-35" x="63.623047"/>
       <use xlink:href="#DejaVuSans-3a" x="127.246094"/>
       <use xlink:href="#DejaVuSans-30" x="160.9375"/>
       <use xlink:href="#DejaVuSans-30" x="224.560547"/>
      </g>
     </g>
    </g>
    <g id="xtick_11">
     <g id="line2d_35">
      <path d="M 439.654898 339.48 
L 439.654898 256.68 
" clip-path="url(#p1394a0e52d)" style="fill: none; stroke-dasharray: 2.96,1.28; stroke-dashoffset: 0; stroke: #ffffff; stroke-width: 0.8"/>
     </g>
     <g id="line2d_36">
      <g>
       <use xlink:href="#m14d82b7005" x="439.654898" y="339.48" style="fill: #ffffff; stroke: #ffffff; stroke-width: 0.8"/>
      </g>
     </g>
     <g id="text_13">
      <!-- 20:00 -->
      <g style="fill: #ffffff" transform="translate(431.417104 372.23084) rotate(-45) scale(0.1 -0.1)">
       <defs>
        <path id="DejaVuSans-32" d="M 1228 531 
L 3431 531 
L 3431 0 
L 469 0 
L 469 531 
Q 828 903 1448 1529 
Q 2069 2156 2228 2338 
Q 2531 2678 2651 2914 
Q 2772 3150 2772 3378 
Q 2772 3750 2511 3984 
Q 2250 4219 1831 4219 
Q 1534 4219 1204 4116 
Q 875 4013 500 3803 
L 500 4441 
Q 881 4594 1212 4672 
Q 1544 4750 1819 4750 
Q 2544 4750 2975 4387 
Q 3406 4025 3406 3419 
Q 3406 3131 3298 2873 
Q 3191 2616 2906 2266 
Q 2828 2175 2409 1742 
Q 1991 1309 1228 531 
z
" transform="scale(0.015625)"/>
       </defs>
       <use xlink:href="#DejaVuSans-32"/>
       <use xlink:href="#DejaVuSans-30" x="63.623047"/>
       <use xlink:href="#DejaVuSans-3a" x="127.246094"/>
       <use xlink:href="#DejaVuSans-30" x="160.9375"/>
       <use xlink:href="#DejaVuSans-30" x="224.560547"/>
      </g>
     </g>
    </g>
    <g id="xtick_12">
     <g id="line2d_37">
      <path d="M 515.310721 339.48 
L 515.310721 256.68 
" clip-path="url(#p1394a0e52d)" style="fill: none; stroke-dasharray: 2.96,1.28; stroke-dashoffset: 0; stroke: #ffffff; stroke-width: 0.8"/>
     </g>
     <g id="line2d_38">
      <g>
       <use xlink:href="#m14d82b7005" x="515.310721" y="339.48" style="fill: #ffffff; stroke: #ffffff; stroke-width: 0.8"/>
      </g>
     </g>
    </g>
   </g>
   <g id="matplotlib.axis_4">
    <g id="ytick_8">
     <g id="line2d_39">
      <path d="M 103.68 317.525166 
L 518.4 317.525166 
" clip-path="url(#p1394a0e52d)" style="fill: none; stroke-dasharray: 2.96,1.28; stroke-dashoffset: 0; stroke: #ffffff; stroke-width: 0.8"/>
     </g>
     <g id="line2d_40">
      <g>
       <use xlink:href="#ma4496fae06" x="518.4" y="317.525166" style="fill: #ffffff; stroke: #ffffff; stroke-width: 0.8"/>
      </g>
     </g>
     <g id="text_14">
      <!-- 20000 -->
      <g style="fill: #ffffff" transform="translate(525.4 321.324385) scale(0.1 -0.1)">
       <use xlink:href="#DejaVuSans-32"/>
       <use xlink:href="#DejaVuSans-30" x="63.623047"/>
       <use xlink:href="#DejaVuSans-30" x="127.246094"/>
       <use xlink:href="#DejaVuSans-30" x="190.869141"/>
       <use xlink:href="#DejaVuSans-30" x="254.492188"/>
      </g>
     </g>
    </g>
    <g id="ytick_9">
     <g id="line2d_41">
      <path d="M 103.68 284.850393 
L 518.4 284.850393 
" clip-path="url(#p1394a0e52d)" style="fill: none; stroke-dasharray: 2.96,1.28; stroke-dashoffset: 0; stroke: #ffffff; stroke-width: 0.8"/>
     </g>
     <g id="line2d_42">
      <g>
       <use xlink:href="#ma4496fae06" x="518.4" y="284.850393" style="fill: #ffffff; stroke: #ffffff; stroke-width: 0.8"/>
      </g>
     </g>
     <g id="text_15">
      <!-- 40000 -->
      <g style="fill: #ffffff" transform="translate(525.4 288.649611) scale(0.1 -0.1)">
       <defs>
        <path id="DejaVuSans-34" d="M 2419 4116 
L 825 1625 
L 2419 1625 
L 2419 4116 
z
M 2253 4666 
L 3047 4666 
L 3047 1625 
L 3713 1625 
L 3713 1100 
L 3047 1100 
L 3047 0 
L 2419 0 
L 2419 1100 
L 313 1100 
L 313 1709 
L 2253 4666 
z
" transform="scale(0.015625)"/>
       </defs>
       <use xlink:href="#DejaVuSans-34"/>
       <use xlink:href="#DejaVuSans-30" x="63.623047"/>
       <use xlink:href="#DejaVuSans-30" x="127.246094"/>
       <use xlink:href="#DejaVuSans-30" x="190.869141"/>
       <use xlink:href="#DejaVuSans-30" x="254.492188"/>
      </g>
     </g>
    </g>
    <g id="text_16">
     <!-- Volume -->
     <g style="fill: #ffffff" transform="translate(568.810938 316.676875) rotate(-90) scale(0.1 -0.1)">
      <defs>
       <path id="DejaVuSans-56" d="M 1831 0 
L 50 4666 
L 709 4666 
L 2188 738 
L 3669 4666 
L 4325 4666 
L 2547 0 
L 1831 0 
z
" transform="scale(0.015625)"/>
       <path id="DejaVuSans-6f" d="M 1959 3097 
Q 1497 3097 1228 2736 
Q 959 2375 959 1747 
Q 959 1119 1226 758 
Q 1494 397 1959 397 
Q 2419 397 2687 759 
Q 2956 1122 2956 1747 
Q 2956 2369 2687 2733 
Q 2419 3097 1959 3097 
z
M 1959 3584 
Q 2709 3584 3137 3096 
Q 3566 2609 3566 1747 
Q 3566 888 3137 398 
Q 2709 -91 1959 -91 
Q 1206 -91 779 398 
Q 353 888 353 1747 
Q 353 2609 779 3096 
Q 1206 3584 1959 3584 
z
" transform="scale(0.015625)"/>
       <path id="DejaVuSans-6c" d="M 603 4863 
L 1178 4863 
L 1178 0 
L 603 0 
L 603 4863 
z
" transform="scale(0.015625)"/>
       <path id="DejaVuSans-75" d="M 544 1381 
L 544 3500 
L 1119 3500 
L 1119 1403 
Q 1119 906 1312 657 
Q 1506 409 1894 409 
Q 2359 409 2629 706 
Q 2900 1003 2900 1516 
L 2900 3500 
L 3475 3500 
L 3475 0 
L 2900 0 
L 2900 538 
Q 2691 219 2414 64 
Q 2138 -91 1772 -91 
Q 1169 -91 856 284 
Q 544 659 544 1381 
z
M 1991 3584 
L 1991 3584 
z
" transform="scale(0.015625)"/>
       <path id="DejaVuSans-6d" d="M 3328 2828 
Q 3544 3216 3844 3400 
Q 4144 3584 4550 3584 
Q 5097 3584 5394 3201 
Q 5691 2819 5691 2113 
L 5691 0 
L 5113 0 
L 5113 2094 
Q 5113 2597 4934 2840 
Q 4756 3084 4391 3084 
Q 3944 3084 3684 2787 
Q 3425 2491 3425 1978 
L 3425 0 
L 2847 0 
L 2847 2094 
Q 2847 2600 2669 2842 
Q 2491 3084 2119 3084 
Q 1678 3084 1418 2786 
Q 1159 2488 1159 1978 
L 1159 0 
L 581 0 
L 581 3500 
L 1159 3500 
L 1159 2956 
Q 1356 3278 1631 3431 
Q 1906 3584 2284 3584 
Q 2666 3584 2933 3390 
Q 3200 3197 3328 2828 
z
" transform="scale(0.015625)"/>
      </defs>
      <use xlink:href="#DejaVuSans-56"/>
      <use xlink:href="#DejaVuSans-6f" x="60.658203"/>
      <use xlink:href="#DejaVuSans-6c" x="121.839844"/>
      <use xlink:href="#DejaVuSans-75" x="149.623047"/>
      <use xlink:href="#DejaVuSans-6d" x="213.001953"/>
      <use xlink:href="#DejaVuSans-65" x="310.414062"/>
     </g>
    </g>
   </g>
   <g id="patch_8">
    <path d="M 129.617338 350.19994 
L 144.445879 350.19994 
L 144.445879 296.516921 
L 129.617338 296.516921 
z
" clip-path="url(#p1394a0e52d)" style="fill: #82333f; stroke: #752e39; stroke-width: 0.65; stroke-linejoin: miter"/>
   </g>
   <g id="patch_9">
    <path d="M 144.748502 350.19994 
L 159.577043 350.19994 
L 159.577043 301.491655 
L 144.748502 301.491655 
z
" clip-path="url(#p1394a0e52d)" style="fill: #247252; stroke: #20674a; stroke-width: 0.65; stroke-linejoin: miter"/>
   </g>
   <g id="patch_10">
    <path d="M 159.879667 350.19994 
L 174.708208 350.19994 
L 174.708208 301.774292 
L 159.879667 301.774292 
z
" clip-path="url(#p1394a0e52d)" style="fill: #247252; stroke: #20674a; stroke-width: 0.65; stroke-linejoin: miter"/>
   </g>
   <g id="patch_11">
    <path d="M 175.010831 350.19994 
L 189.839372 350.19994 
L 189.839372 309.304193 
L 175.010831 309.304193 
z
" clip-path="url(#p1394a0e52d)" style="fill: #82333f; stroke: #752e39; stroke-width: 0.65; stroke-linejoin: miter"/>
   </g>
   <g id="patch_12">
    <path d="M 190.141996 350.19994 
L 204.970537 350.19994 
L 204.970537 314.466807 
L 190.141996 314.466807 
z
" clip-path="url(#p1394a0e52d)" style="fill: #82333f; stroke: #752e39; stroke-width: 0.65; stroke-linejoin: miter"/>
   </g>
   <g id="patch_13">
    <path d="M 205.27316 350.19994 
L 220.101701 350.19994 
L 220.101701 312.411564 
L 205.27316 312.411564 
z
" clip-path="url(#p1394a0e52d)" style="fill: #247252; stroke: #20674a; stroke-width: 0.65; stroke-linejoin: miter"/>
   </g>
   <g id="patch_14">
    <path d="M 220.404325 350.19994 
L 235.232866 350.19994 
L 235.232866 302.295454 
L 220.404325 302.295454 
z
" clip-path="url(#p1394a0e52d)" style="fill: #82333f; stroke: #752e39; stroke-width: 0.65; stroke-linejoin: miter"/>
   </g>
   <g id="patch_15">
    <path d="M 235.535489 350.19994 
L 250.36403 350.19994 
L 250.36403 294.861943 
L 235.535489 294.861943 
z
" clip-path="url(#p1394a0e52d)" style="fill: #247252; stroke: #20674a; stroke-width: 0.65; stroke-linejoin: miter"/>
   </g>
   <g id="patch_16">
    <path d="M 250.666654 350.19994 
L 265.495195 350.19994 
L 265.495195 289.330104 
L 250.666654 289.330104 
z
" clip-path="url(#p1394a0e52d)" style="fill: #82333f; stroke: #752e39; stroke-width: 0.65; stroke-linejoin: miter"/>
   </g>
   <g id="patch_17">
    <path d="M 265.797818 350.19994 
L 280.626359 350.19994 
L 280.626359 292.117262 
L 265.797818 292.117262 
z
" clip-path="url(#p1394a0e52d)" style="fill: #82333f; stroke: #752e39; stroke-width: 0.65; stroke-linejoin: miter"/>
   </g>
   <g id="patch_18">
    <path d="M 280.928983 350.19994 
L 295.757524 350.19994 
L 295.757524 292.184246 
L 280.928983 292.184246 
z
" clip-path="url(#p1394a0e52d)" style="fill: #82333f; stroke: #752e39; stroke-width: 0.65; stroke-linejoin: miter"/>
   </g>
   <g id="patch_19">
    <path d="M 296.060147 350.19994 
L 310.888688 350.19994 
L 310.888688 277.629268 
L 296.060147 277.629268 
z
" clip-path="url(#p1394a0e52d)" style="fill: #82333f; stroke: #752e39; stroke-width: 0.65; stroke-linejoin: miter"/>
   </g>
   <g id="patch_20">
    <path d="M 311.191312 350.19994 
L 326.019853 350.19994 
L 326.019853 281.759359 
L 311.191312 281.759359 
z
" clip-path="url(#p1394a0e52d)" style="fill: #82333f; stroke: #752e39; stroke-width: 0.65; stroke-linejoin: miter"/>
   </g>
   <g id="patch_21">
    <path d="M 326.322476 350.19994 
L 341.151017 350.19994 
L 341.151017 265.181813 
L 326.322476 265.181813 
z
" clip-path="url(#p1394a0e52d)" style="fill: #247252; stroke: #20674a; stroke-width: 0.65; stroke-linejoin: miter"/>
   </g>
   <g id="patch_22">
    <path d="M 341.453641 350.19994 
L 356.282182 350.19994 
L 356.282182 272.002672 
L 341.453641 272.002672 
z
" clip-path="url(#p1394a0e52d)" style="fill: #247252; stroke: #20674a; stroke-width: 0.65; stroke-linejoin: miter"/>
   </g>
   <g id="patch_23">
    <path d="M 356.584805 350.19994 
L 371.413346 350.19994 
L 371.413346 284.415818 
L 356.584805 284.415818 
z
" clip-path="url(#p1394a0e52d)" style="fill: #82333f; stroke: #752e39; stroke-width: 0.65; stroke-linejoin: miter"/>
   </g>
   <g id="patch_24">
    <path d="M 371.71597 350.19994 
L 386.544511 350.19994 
L 386.544511 276.637588 
L 371.71597 276.637588 
z
" clip-path="url(#p1394a0e52d)" style="fill: #82333f; stroke: #752e39; stroke-width: 0.65; stroke-linejoin: miter"/>
   </g>
   <g id="patch_25">
    <path d="M 386.847134 350.19994 
L 401.675675 350.19994 
L 401.675675 294.383258 
L 386.847134 294.383258 
z
" clip-path="url(#p1394a0e52d)" style="fill: #247252; stroke: #20674a; stroke-width: 0.65; stroke-linejoin: miter"/>
   </g>
   <g id="patch_26">
    <path d="M 401.978299 350.19994 
L 416.80684 350.19994 
L 416.80684 295.889565 
L 401.978299 295.889565 
z
" clip-path="url(#p1394a0e52d)" style="fill: #82333f; stroke: #752e39; stroke-width: 0.65; stroke-linejoin: miter"/>
   </g>
   <g id="patch_27">
    <path d="M 417.109463 350.19994 
L 431.938004 350.19994 
L 431.938004 273.477938 
L 417.109463 273.477938 
z
" clip-path="url(#p1394a0e52d)" style="fill: #247252; stroke: #20674a; stroke-width: 0.65; stroke-linejoin: miter"/>
   </g>
   <g id="patch_28">
    <path d="M 432.240628 350.19994 
L 447.069169 350.19994 
L 447.069169 300.116047 
L 432.240628 300.116047 
z
" clip-path="url(#p1394a0e52d)" style="fill: #247252; stroke: #20674a; stroke-width: 0.65; stroke-linejoin: miter"/>
   </g>
   <g id="patch_29">
    <path d="M 447.371792 350.19994 
L 462.200333 350.19994 
L 462.200333 312.51449 
L 447.371792 312.51449 
z
" clip-path="url(#p1394a0e52d)" style="fill: #82333f; stroke: #752e39; stroke-width: 0.65; stroke-linejoin: miter"/>
   </g>
   <g id="patch_30">
    <path d="M 462.502957 350.19994 
L 477.331498 350.19994 
L 477.331498 297.577217 
L 462.502957 297.577217 
z
" clip-path="url(#p1394a0e52d)" style="fill: #82333f; stroke: #752e39; stroke-width: 0.65; stroke-linejoin: miter"/>
   </g>
   <g id="patch_31">
    <path d="M 477.634121 350.19994 
L 492.462662 350.19994 
L 492.462662 302.614033 
L 477.634121 302.614033 
z
" clip-path="url(#p1394a0e52d)" style="fill: #82333f; stroke: #752e39; stroke-width: 0.65; stroke-linejoin: miter"/>
   </g>
   <g id="patch_32">
    <path d="M 103.68 339.48 
L 103.68 256.68 
" style="fill: none; stroke: #474d56; stroke-width: 0.8; stroke-linejoin: miter; stroke-linecap: square"/>
   </g>
   <g id="patch_33">
    <path d="M 518.4 339.48 
L 518.4 256.68 
" style="fill: none; stroke: #474d56; stroke-width: 0.8; stroke-linejoin: miter; stroke-linecap: square"/>
   </g>
   <g id="patch_34">
    <path d="M 103.68 339.48 
L 518.4 339.48 
" style="fill: none; stroke: #474d56; stroke-width: 0.8; stroke-linejoin: miter; stroke-linecap: square"/>
   </g>
   <g id="patch_35">
    <path d="M 103.68 256.68 
L 518.4 256.68 
" style="fill: none; stroke: #474d56; stroke-width: 0.8; stroke-linejoin: miter; stroke-linecap: square"/>
   </g>
  </g>
  <g id="text_17">
   <!-- NEAR - day 4 -->
   <g style="fill: #ffffff" transform="translate(235.94175 12.19725) scale(0.144 -0.144)">
    <defs>
     <path id="DejaVuSans-Bold-4e" d="M 588 4666 
L 1931 4666 
L 3628 1466 
L 3628 4666 
L 4769 4666 
L 4769 0 
L 3425 0 
L 1728 3200 
L 1728 0 
L 588 0 
L 588 4666 
z
" transform="scale(0.015625)"/>
     <path id="DejaVuSans-Bold-45" d="M 588 4666 
L 3834 4666 
L 3834 3756 
L 1791 3756 
L 1791 2888 
L 3713 2888 
L 3713 1978 
L 1791 1978 
L 1791 909 
L 3903 909 
L 3903 0 
L 588 0 
L 588 4666 
z
" transform="scale(0.015625)"/>
     <path id="DejaVuSans-Bold-41" d="M 3419 850 
L 1538 850 
L 1241 0 
L 31 0 
L 1759 4666 
L 3194 4666 
L 4922 0 
L 3713 0 
L 3419 850 
z
M 1838 1716 
L 3116 1716 
L 2478 3572 
L 1838 1716 
z
" transform="scale(0.015625)"/>
     <path id="DejaVuSans-Bold-52" d="M 2297 2597 
Q 2675 2597 2839 2737 
Q 3003 2878 3003 3200 
Q 3003 3519 2839 3656 
Q 2675 3794 2297 3794 
L 1791 3794 
L 1791 2597 
L 2297 2597 
z
M 1791 1766 
L 1791 0 
L 588 0 
L 588 4666 
L 2425 4666 
Q 3347 4666 3776 4356 
Q 4206 4047 4206 3378 
Q 4206 2916 3982 2619 
Q 3759 2322 3309 2181 
Q 3556 2125 3751 1926 
Q 3947 1728 4147 1325 
L 4800 0 
L 3519 0 
L 2950 1159 
Q 2778 1509 2601 1637 
Q 2425 1766 2131 1766 
L 1791 1766 
z
" transform="scale(0.015625)"/>
     <path id="DejaVuSans-Bold-20" transform="scale(0.015625)"/>
     <path id="DejaVuSans-Bold-2d" d="M 347 2297 
L 2309 2297 
L 2309 1388 
L 347 1388 
L 347 2297 
z
" transform="scale(0.015625)"/>
     <path id="DejaVuSans-Bold-64" d="M 2919 2988 
L 2919 4863 
L 4044 4863 
L 4044 0 
L 2919 0 
L 2919 506 
Q 2688 197 2409 53 
Q 2131 -91 1766 -91 
Q 1119 -91 703 423 
Q 288 938 288 1747 
Q 288 2556 703 3070 
Q 1119 3584 1766 3584 
Q 2128 3584 2408 3439 
Q 2688 3294 2919 2988 
z
M 2181 722 
Q 2541 722 2730 984 
Q 2919 1247 2919 1747 
Q 2919 2247 2730 2509 
Q 2541 2772 2181 2772 
Q 1825 2772 1636 2509 
Q 1447 2247 1447 1747 
Q 1447 1247 1636 984 
Q 1825 722 2181 722 
z
" transform="scale(0.015625)"/>
     <path id="DejaVuSans-Bold-61" d="M 2106 1575 
Q 1756 1575 1579 1456 
Q 1403 1338 1403 1106 
Q 1403 894 1545 773 
Q 1688 653 1941 653 
Q 2256 653 2472 879 
Q 2688 1106 2688 1447 
L 2688 1575 
L 2106 1575 
z
M 3816 1997 
L 3816 0 
L 2688 0 
L 2688 519 
Q 2463 200 2181 54 
Q 1900 -91 1497 -91 
Q 953 -91 614 226 
Q 275 544 275 1050 
Q 275 1666 698 1953 
Q 1122 2241 2028 2241 
L 2688 2241 
L 2688 2328 
Q 2688 2594 2478 2717 
Q 2269 2841 1825 2841 
Q 1466 2841 1156 2769 
Q 847 2697 581 2553 
L 581 3406 
Q 941 3494 1303 3539 
Q 1666 3584 2028 3584 
Q 2975 3584 3395 3211 
Q 3816 2838 3816 1997 
z
" transform="scale(0.015625)"/>
     <path id="DejaVuSans-Bold-79" d="M 78 3500 
L 1197 3500 
L 2138 1125 
L 2938 3500 
L 4056 3500 
L 2584 -331 
Q 2363 -916 2067 -1148 
Q 1772 -1381 1288 -1381 
L 641 -1381 
L 641 -647 
L 991 -647 
Q 1275 -647 1404 -556 
Q 1534 -466 1606 -231 
L 1638 -134 
L 78 3500 
z
" transform="scale(0.015625)"/>
     <path id="DejaVuSans-Bold-34" d="M 2356 3675 
L 1038 1722 
L 2356 1722 
L 2356 3675 
z
M 2156 4666 
L 3494 4666 
L 3494 1722 
L 4159 1722 
L 4159 850 
L 3494 850 
L 3494 0 
L 2356 0 
L 2356 850 
L 288 850 
L 288 1881 
L 2156 4666 
z
" transform="scale(0.015625)"/>
    </defs>
    <use xlink:href="#DejaVuSans-Bold-4e"/>
    <use xlink:href="#DejaVuSans-Bold-45" x="83.691406"/>
    <use xlink:href="#DejaVuSans-Bold-41" x="152.001953"/>
    <use xlink:href="#DejaVuSans-Bold-52" x="229.394531"/>
    <use xlink:href="#DejaVuSans-Bold-20" x="306.396484"/>
    <use xlink:href="#DejaVuSans-Bold-2d" x="341.210938"/>
    <use xlink:href="#DejaVuSans-Bold-20" x="382.714844"/>
    <use xlink:href="#DejaVuSans-Bold-64" x="417.529297"/>
    <use xlink:href="#DejaVuSans-Bold-61" x="489.111328"/>
    <use xlink:href="#DejaVuSans-Bold-79" x="553.466797"/>
    <use xlink:href="#DejaVuSans-Bold-20" x="618.652344"/>
    <use xlink:href="#DejaVuSans-Bold-34" x="653.466797"/>
   </g>
  </g>
 </g>
 <defs>
  <clipPath id="p870ad534b7">
   <rect x="103.68" y="49.68" width="414.72" height="207"/>
  </clipPath>
  <clipPath id="p1394a0e52d">
   <rect x="103.68" y="256.68" width="414.72" height="82.8"/>
  </clipPath>
 </defs>
</svg>
